<?xml version="1.0" standalone="no"?>
<!DOCTYPE svg PUBLIC "-//W3C//DTD SVG 1.1//EN" "http://www.w3.org/Graphics/SVG/1.1/DTD/svg11.dtd" >
<svg>
<metadata>
Created by FontForge 20110222 at Tue Apr  2 02:42:24 2013
 By Orthosie Webmaster
Copyright (c) 1999 by Henrik Kubel. All rights reserved.
</metadata>
<defs>
<font id="Battersea2011SemiBold" horiz-adv-x="400" >
  <font-face 
    font-family="Battersea2011SemiBold"
    font-weight="600"
    font-stretch="normal"
    units-per-em="1000"
    panose-1="2 0 5 6 4 0 0 2 0 4"
    ascent="750"
    descent="-250"
    x-height="524"
    cap-height="700"
    bbox="-205 -388 1159 1035"
    underline-thickness="20"
    underline-position="-113"
    unicode-range="U+0020-FB06"
  />
<missing-glyph horiz-adv-x="0" 
 />
    <glyph glyph-name="f_f" unicode="ff" horiz-adv-x="651" 
d="M355 751q-18 -43 -21 -92q-20 2 -35 2q-67 0 -67 -73v-64h162v70q0 75 45.5 119t125.5 44q30 0 63 -5.5t41 -8.5l-16 -94q-30 12 -72 12q-73 0 -73 -72v-65h121v-95h-121v-429h-114v429h-162v-429h-114v429h-95v95h95v70q0 75 45.5 119t125.5 44q37 0 66 -6z" />
    <glyph glyph-name="f_f_i" unicode="ffi" horiz-adv-x="848" 
d="M394 429h-162v-429h-114v429h-95v95h95v70q0 75 45.5 119t125.5 44q37 0 66 -6q-18 -43 -21 -92q-20 2 -35 2q-67 0 -67 -73v-64h162v45q0 100 57 153t156 53q41 0 81.5 -8.5t61.5 -16.5l20 -9l-23 -102q-60 35 -135 35q-54 0 -79 -30.5t-25 -75.5v-44h276v-524h-114v429
h-162v-429h-114v429z" />
    <glyph glyph-name="f_f_l" unicode="ffl" horiz-adv-x="897" 
d="M390 429h-162v-429h-114v429h-91v95h91v70q0 76 43.5 120.5t125.5 44.5q42 0 74 -9q-18 -41 -21 -93q-24 4 -36 4q-72 0 -72 -74v-63h162v69q0 73 49 120.5t135 47.5q64 0 129 -28l82 2v-586q0 -31 11 -44t37 -13q22 0 47 9l17 -93q-44 -17 -94 -17q-58 0 -95.5 32
t-37.5 102v516q-39 21 -84 21q-39 0 -60 -20.5t-21 -56.5v-61h116v-95h-116v-429h-115v429z" />
    <glyph glyph-name="f_f_f" unicode="fff" horiz-adv-x="927" 
d="M394 429h-162v-429h-114v429h-95v95h95v70q0 75 45.5 119t125.5 44q37 0 66 -6q-18 -43 -21 -92q-20 2 -35 2q-67 0 -67 -73v-64h162v70q0 75 45.5 119t125.5 44q37 0 66 -6q-18 -43 -21 -92q-20 2 -35 2q-67 0 -67 -73v-64h162v70q0 75 45.5 119t125.5 44q30 0 63 -5.5
t41 -8.5l-16 -94q-30 12 -72 12q-73 0 -73 -72v-65h121v-95h-121v-429h-114v429h-162v-429h-114v429z" />
    <glyph glyph-name="f_b" unicode="fb" horiz-adv-x="883" 
d="M492 37l-11 -37h-82v641q-42 21 -85 21q-39 0 -60 -20.5t-21 -56.5v-61h116v-95h-116v-429h-115v429h-95v95h95v69q0 73 49 120.5t135 47.5q64 0 129 -28l82 2v-249q56 51 142 51q78 0 125.5 -43t47.5 -124v-196q0 -82 -49.5 -134.5t-145.5 -52.5q-91 0 -141 50zM713 176
v178q0 42 -24 64t-65 22q-57 0 -111 -42v-279q34 -37 100 -37q48 0 74 25t26 69z" />
    <glyph glyph-name="f_f_b" unicode="ffb" horiz-adv-x="1155" 
d="M390 429h-162v-429h-114v429h-91v95h91v65q0 76 43.5 120.5t125.5 44.5q42 0 74 -9q-18 -41 -21 -93q-24 4 -36 4q-72 0 -72 -74v-58h162v69q0 73 49 120.5t135 47.5q64 0 129 -28l82 2v-249q55 51 142 51q78 0 125.5 -43t47.5 -124v-196q0 -82 -49.5 -134.5
t-145.5 -52.5q-91 0 -141 50l-11 -37h-83v641q-39 21 -84 21q-39 0 -60 -20.5t-21 -56.5v-61h116v-95h-116v-429h-115v429zM985 176v178q0 42 -24 64t-65 22q-60 0 -111 -42v-279q11 -13 38.5 -25t61.5 -12q48 0 74 25t26 69z" />
    <glyph glyph-name="f_f_h" unicode="ffh" horiz-adv-x="1162" 
d="M786 735v-251q58 53 144 53q78 0 121.5 -42.5t43.5 -124.5v-370h-114v360q0 39 -22 59.5t-62 20.5q-58 0 -111 -47v-393h-115v641q-39 21 -85 21q-39 0 -60 -20.5t-21 -56.5v-61h116v-95h-116v-429h-115v429h-162v-429h-114v429h-91v95h91v65q0 76 43.5 120.5t125.5 44.5
q42 0 74 -9q-18 -41 -21 -93q-24 4 -36 4q-72 0 -72 -74v-58h162v69q0 73 49 120.5t136 47.5q64 0 128 -28z" />
    <glyph glyph-name="f_f_j" unicode="ffj" horiz-adv-x="849" 
d="M670 429h-162v-429h-114v429h-162v-429h-114v429h-95v95h95v70q0 75 45.5 119t125.5 44q37 0 66 -6q-18 -43 -21 -92q-20 2 -35 2q-67 0 -67 -73v-64h162v45q0 100 57 153t156 53q41 0 81.5 -8.5t61.5 -16.5l20 -9l-23 -102q-60 35 -135 35q-54 0 -79 -30.5t-25 -75.5
v-44h276v-524q0 -42 -8 -75t-26.5 -64.5t-56 -52t-92.5 -28.5l-33 95q59 9 80.5 36t21.5 78v440z" />
    <glyph glyph-name="f_f_k" unicode="ffk" horiz-adv-x="1129" 
d="M390 429h-162v-429h-114v429h-91v95h91v65q0 76 43.5 120.5t125.5 44.5q42 0 74 -9q-18 -41 -21 -93q-24 4 -36 4q-72 0 -72 -74v-58h162v69q0 73 49 120.5t135 47.5q64 0 129 -28l82 2v-443l198 232h133l-189 -214l193 -310h-133l-139 234l-63 -78v-156h-115v641
q-39 21 -84 21q-39 0 -60 -20.5t-21 -56.5v-61h116v-95h-116v-429h-115v429z" />
    <glyph glyph-name="f_h" unicode="fh" horiz-adv-x="890" 
d="M513 735v-251q59 53 144 53q78 0 122 -42.5t44 -124.5v-370h-115v360q0 39 -21.5 59.5t-61.5 20.5q-56 0 -112 -47v-393h-114v641q-42 21 -85 21q-39 0 -60 -20.5t-21 -56.5v-61h116v-95h-116v-429h-115v429h-95v95h95v69q0 73 49 120.5t135 47.5q64 0 129 -28z" />
    <glyph glyph-name="f_i" unicode="fi" horiz-adv-x="572" 
d="M232 568v-44h276v-524h-114v429h-162v-429h-114v429h-95v95h95v45q0 100 57 153t156 53q41 0 81.5 -8.5t61.5 -16.5l20 -9l-23 -102q-60 35 -135 35q-54 0 -79 -30.5t-25 -75.5z" />
    <glyph glyph-name="f_j" unicode="fj" horiz-adv-x="572" 
d="M232 568v-44h276v-524q0 -42 -8 -75t-26.5 -64.5t-56 -52t-92.5 -28.5l-33 95q59 9 80.5 36t21.5 78v440h-162v-429h-114v429h-95v95h95v45q0 100 57 153t156 53q41 0 81.5 -8.5t61.5 -16.5l20 -9l-23 -102q-60 35 -135 35q-54 0 -79 -30.5t-25 -75.5z" />
    <glyph glyph-name="f_k" unicode="fk" horiz-adv-x="858" 
d="M513 735v-443l198 232h133l-189 -214l194 -310h-134l-139 234l-63 -78v-156h-114v641q-42 21 -85 21q-39 0 -60 -20.5t-21 -56.5v-61h116v-95h-116v-429h-115v429h-95v95h95v69q0 73 49 120.5t135 47.5q64 0 129 -28z" />
    <glyph glyph-name="f_l" unicode="fl" horiz-adv-x="625" 
d="M608 101l18 -93q-46 -17 -95 -17q-58 0 -95 32t-37 102v516q-42 21 -85 21q-39 0 -60 -20.5t-21 -56.5v-61h116v-95h-116v-429h-115v429h-95v95h95v69q0 73 49 120.5t135 47.5q64 0 129 -28l82 2v-586q0 -31 11 -44t37 -13q22 0 47 9z" />
    <glyph glyph-name=".notdef" horiz-adv-x="0" 
 />
    <glyph glyph-name=".null" horiz-adv-x="0" 
 />
    <glyph glyph-name="nonmarkingreturn" horiz-adv-x="333" 
 />
    <glyph glyph-name="space" unicode=" " horiz-adv-x="235" 
 />
    <glyph glyph-name="exclam" unicode="!" horiz-adv-x="295" 
d="M215 700l-20 -477h-95l-19 477h134zM77 0v148h141v-148h-141z" />
    <glyph glyph-name="quotedbl" unicode="&#x22;" horiz-adv-x="395" 
d="M161 700v-305h-96v305h96zM330 700v-305h-96v305h96z" />
    <glyph glyph-name="numbersign" unicode="#" horiz-adv-x="613" 
d="M322 0l28 222h-116l-28 -222h-80l27 222h-122l8 78h123l13 109h-122l9 78h121l28 213h81l-28 -213h116l28 213h80l-27 -213h122l-8 -78h-123l-12 -109h121l-9 -78h-122l-27 -222h-81zM256 409l-14 -109h116l14 109h-116z" />
    <glyph glyph-name="dollar" unicode="$" horiz-adv-x="502" 
d="M215 -141h-54l15 133q-91 13 -148 62l43 95q53 -44 117 -58l26 221q-36 18 -61.5 35t-52.5 42.5t-41.5 60t-14.5 75.5q0 83 57 135.5t155 52.5h6l13 104h53l-13 -109q81 -14 144 -65l-49 -88q-48 41 -107 53l-23 -193l6 -3q57 -29 92.5 -54t63.5 -69.5t28 -100.5
q0 -89 -61 -145t-168 -56h-11zM352 180q0 34 -20.5 57t-66.5 48l-24 -199q53 1 82 27t29 67zM163 534q0 -50 67 -91l20 170q-41 -2 -64 -24t-23 -55z" />
    <glyph glyph-name="percent" unicode="%" horiz-adv-x="689" 
d="M36 485v106q0 49 34.5 81.5t90.5 32.5h21q56 0 90 -32t34 -82v-106q0 -49 -34 -80t-90 -31h-21q-56 0 -90.5 31t-34.5 80zM625 698l-475 -698h-83l478 698h80zM224 491v95q0 51 -53 51q-52 0 -52 -51v-95q0 -50 52 -50q53 0 53 50zM383 102v106q0 49 34 81t90 32h22
q55 0 89.5 -32t34.5 -81v-106q0 -50 -34.5 -80.5t-89.5 -30.5h-22q-56 0 -90 30.5t-34 80.5zM570 108v95q0 51 -53 51q-52 0 -52 -51v-95q0 -51 52 -51q53 0 53 51z" />
    <glyph glyph-name="ampersand" unicode="&#x26;" horiz-adv-x="668" 
d="M178 389q-40 48 -57.5 84.5t-17.5 78.5q0 74 50 117.5t132 43.5q111 0 176 -79q-11 -12 -32 -38t-32 -38q-49 61 -108 61q-29 0 -51.5 -16t-22.5 -50q0 -24 15.5 -51.5t59.5 -78.5l167 -194q58 74 86 171l104 -43q-9 -44 -41.5 -105t-72.5 -106l82 -89l-85 -74
q-8 9 -34.5 38t-40.5 45q-88 -80 -197 -80q-107 0 -164.5 56t-57.5 143q0 129 142 204zM384 145l-144 167q-40 -22 -63 -49t-23 -72q0 -51 31 -77t77 -26q69 0 122 57z" />
    <glyph glyph-name="quotesingle" unicode="'" horiz-adv-x="226" 
d="M161 700v-305h-96v305h96z" />
    <glyph glyph-name="parenleft" unicode="(" horiz-adv-x="314" 
d="M152 299q0 -254 160 -431l-77 -37q-28 24 -57.5 63.5t-62 98.5t-53 140t-20.5 166q0 86 20.5 167t53 139.5t62.5 98.5t57 63l77 -37q-64 -70 -112 -178t-48 -253z" />
    <glyph glyph-name="parenright" unicode=")" horiz-adv-x="315" 
d="M163 300q0 145 -48 253t-112 177l77 37q27 -23 57 -63t62.5 -98.5t53 -139t20.5 -166.5t-20.5 -167t-53 -140t-62 -98.5t-57.5 -63.5l-77 38q64 69 112 177t48 254z" />
    <glyph glyph-name="asterisk" unicode="*" horiz-adv-x="524" 
d="M330 723l-28 -178l153 70l37 -116l-168 -29l131 -137l-96 -67l-96 150l-98 -150l-96 67l131 137l-168 29l37 116l154 -70l-28 178h135z" />
    <glyph glyph-name="plus" unicode="+" horiz-adv-x="564" 
d="M330 76h-96v215h-203v92h203v209h96v-209h203v-92h-203v-215z" />
    <glyph glyph-name="comma" unicode="," horiz-adv-x="274" 
d="M66 0v148h142v-138q0 -73 -32 -115.5t-109 -61.5q-18 38 -28 57q46 14 64.5 37t18.5 73h-56z" />
    <glyph glyph-name="hyphen" unicode="-" horiz-adv-x="382" 
d="M49 361h284v-97h-284v97z" />
    <glyph glyph-name="period" unicode="." horiz-adv-x="273" 
d="M66 0v148h141v-148h-141z" />
    <glyph glyph-name="slash" unicode="/" horiz-adv-x="436" 
d="M417 751l-323 -811h-76l326 811h73z" />
    <glyph glyph-name="zero" unicode="0" horiz-adv-x="560" 
d="M57 179v332q0 79 56 135.5t156 56.5h22q100 0 156 -56.5t56 -135.5v-332q0 -79 -56 -135.5t-156 -56.5h-22q-100 0 -156 56.5t-56 135.5zM176 491v-291q0 -112 104 -112t104 112v291q0 111 -104 111t-104 -111z" />
    <glyph glyph-name="one" unicode="1" horiz-adv-x="560" 
d="M490 101v-101h-404v101h147v478l-122 -66l-42 88l174 94h109v-594h138z" />
    <glyph glyph-name="two" unicode="2" horiz-adv-x="560" 
d="M271 600q-84 0 -134 -72l-72 75q26 39 81.5 69.5t130.5 30.5q98 0 154.5 -53.5t56.5 -135.5v-12q0 -57 -24 -105t-84 -110l-176 -184h290v-103h-419v115l204 212q53 55 75 94t22 76v9q0 42 -28.5 68t-76.5 26z" />
    <glyph glyph-name="three" unicode="3" horiz-adv-x="560" 
d="M279 603q-84 0 -139 -70q-8 10 -30 36.5t-34 40.5q27 37 81 65t127 28q94 0 149.5 -49t55.5 -125v-13q0 -48 -25.5 -89.5t-77.5 -61.5q60 -21 89 -67t29 -106q0 -88 -58 -146.5t-165 -58.5h-4q-145 0 -221 78l56 91q61 -70 154 -70q52 0 86 26.5t34 80.5v8
q0 103 -117 103h-75v95h68q53 0 86.5 26.5t33.5 76.5v7q0 46 -28 70t-75 24z" />
    <glyph glyph-name="four" unicode="4" horiz-adv-x="560" 
d="M520 185h-75v-185h-111v185h-285v105l247 404h149v-410h75v-99zM334 284v302l-177 -302h177z" />
    <glyph glyph-name="five" unicode="5" horiz-adv-x="560" 
d="M96 324v368h389l-8 -96h-281v-176q46 36 119 36q85 0 134.5 -50.5t49.5 -134.5v-86q0 -88 -59.5 -143t-177.5 -55q-136 0 -201 65l48 96q68 -63 151 -63q54 0 87 27t33 81v65q0 100 -93 100q-60 0 -94 -48z" />
    <glyph glyph-name="six" unicode="6" horiz-adv-x="560" 
d="M177 495v-100q59 39 135 39q92 0 141 -52t49 -134v-58q0 -89 -56.5 -146t-160.5 -57h-15q-98 0 -155 55.5t-57 132.5v320q0 93 62 150.5t175 57.5q66 0 118.5 -19t81.5 -44l-46 -96q-64 58 -152 58q-53 0 -86.5 -27t-33.5 -80zM177 304v-106q0 -54 27 -82t77 -28
q49 0 76 27.5t27 83.5v27q0 110 -99 110q-63 0 -108 -32z" />
    <glyph glyph-name="seven" unicode="7" horiz-adv-x="560" 
d="M60 483v209h440v-98l-238 -594h-126l252 595h-224v-112h-104z" />
    <glyph glyph-name="eight" unicode="8" horiz-adv-x="560" 
d="M279 83q113 0 113 108v14q0 106 -113 106q-112 0 -112 -106v-14q0 -108 112 -108zM289 704q105 0 157 -53.5t52 -131.5v-12q0 -51 -23.5 -91.5t-71.5 -56.5q52 -13 80 -57.5t28 -100.5v-23q0 -87 -58 -139.5t-174 -52.5q-115 0 -173 52.5t-58 139.5v23q0 56 28 100.5
t80 57.5q-48 16 -71.5 56.5t-23.5 91.5v12q0 78 52 131.5t158 53.5h18zM279 401q56 0 80.5 26t24.5 78q0 53 -24.5 79t-80.5 26q-55 0 -79.5 -26t-24.5 -79q0 -51 24.5 -77.5t79.5 -26.5z" />
    <glyph glyph-name="nine" unicode="9" horiz-adv-x="560" 
d="M383 195v100q-59 -39 -135 -39q-92 0 -141 52t-49 134v58q0 89 56.5 146t160.5 57h14q99 0 156 -55.5t57 -132.5v-320q0 -93 -62 -150.5t-175 -57.5q-66 0 -118.5 19t-81.5 44l46 96q64 -58 152 -58q53 0 86.5 27t33.5 80zM383 386v106q0 54 -27 82t-77 28
q-49 0 -76.5 -28t-27.5 -83v-27q0 -110 100 -110q63 0 108 32z" />
    <glyph glyph-name="colon" unicode=":" horiz-adv-x="305" 
d="M82 0v148h141v-148h-141zM82 375v149h141v-149h-141z" />
    <glyph glyph-name="semicolon" unicode=";" horiz-adv-x="306" 
d="M82 0v148h142v-138q0 -73 -32 -115.5t-109 -61.5q-18 38 -28 57q46 14 64.5 37t18.5 73h-56zM82 375v149h142v-149h-142z" />
    <glyph glyph-name="less" unicode="&#x3c;" horiz-adv-x="700" 
d="M33 368l220 257h135l-180 -210h459v-105h-459l180 -210h-135l-220 257v11z" />
    <glyph glyph-name="equal" unicode="=" horiz-adv-x="475" 
d="M57 384v92h361v-92h-361zM57 285h361v-92h-361v92z" />
    <glyph glyph-name="greater" unicode="&#x3e;" horiz-adv-x="700" 
d="M447 625l220 -257v-11l-220 -257h-135l180 210h-459v105h459l-180 210h135z" />
    <glyph glyph-name="question" unicode="?" horiz-adv-x="441" 
d="M407 555q0 -45 -23 -86.5t-50 -68t-50 -63t-23 -73.5v-40h-116v41q0 46 21.5 89.5t47 70.5t47 59t21.5 57v3q0 31 -23 46t-56 15q-70 0 -136 -52l-41 94q77 65 192 65q90 0 139.5 -42t49.5 -115zM134 0v148h143v-148h-143z" />
    <glyph glyph-name="at" unicode="@" horiz-adv-x="977" 
d="M596 49q-55 -62 -152 -62q-78 0 -123 44.5t-45 116.5q0 75 51 116t143 41h102v48q0 86 -92 86q-74 0 -166 -52l-13 101q29 19 81.5 34.5t112.5 15.5q91 0 142 -41.5t51 -121.5v-254q0 -57 58 -57q44 0 73.5 39.5t40 90t10.5 108.5q0 173 -100.5 268.5t-261.5 95.5
q-171 0 -281 -107.5t-110 -297.5q0 -86 24 -159t71.5 -130t125.5 -89.5t178 -32.5q160 0 280 80l20 -72q-126 -82 -307 -82q-209 0 -344 128.5t-135 350.5q0 217 130.5 351t347.5 134q107 0 193 -35t140 -95.5t83 -139t29 -167.5q0 -57 -12 -109.5t-37 -100.5t-72 -77
t-110 -29q-84 0 -126 62zM572 222h-99q-38 0 -60 -19t-22 -52q0 -31 19.5 -52.5t61.5 -21.5q60 0 100 40v105z" />
    <glyph glyph-name="A" unicode="A" horiz-adv-x="561" 
d="M421 0l-44 183h-201l-42 -183h-116l173 700h175l179 -700h-124zM273 605l-75 -321h155l-75 321h-5z" />
    <glyph glyph-name="B" unicode="B" horiz-adv-x="582" 
d="M535 186q0 -88 -59 -137t-149 -49h-249v700h249q90 0 140 -50t50 -133q0 -115 -94 -152q53 -13 82.5 -54t29.5 -99v-26zM400 501v19q0 37 -23 59t-67 22h-113v-192h106q97 0 97 92zM417 189v25q0 42 -27.5 68.5t-80.5 26.5h-112v-210h115q46 0 75.5 21.5t29.5 68.5z" />
    <glyph glyph-name="C" unicode="C" horiz-adv-x="532" 
d="M461 162l49 -92q-81 -83 -217 -83q-108 0 -169 55.5t-61 151.5v314q0 89 63 147t167 58q127 0 205 -82l-59 -83q-64 66 -145 66q-51 0 -81.5 -29.5t-30.5 -85.5v-296q0 -57 32 -86.5t87 -29.5q94 0 160 75z" />
    <glyph glyph-name="D" unicode="D" horiz-adv-x="602" 
d="M78 700h242q100 0 159 -57t59 -138v-311q0 -80 -59 -137t-159 -57h-242v700zM302 601h-105v-502h105q54 0 86 27.5t32 84.5v278q0 112 -118 112z" />
    <glyph glyph-name="E" unicode="E" horiz-adv-x="545" 
d="M491 99v-99h-413v700h420l-15 -99h-286v-192h270v-100h-270v-210h294z" />
    <glyph glyph-name="F" unicode="F" horiz-adv-x="515" 
d="M78 0v700h399v-99h-281v-212h265v-100h-265v-289h-118z" />
    <glyph glyph-name="G" unicode="G" horiz-adv-x="575" 
d="M182 497v-294q0 -119 112 -119q61 0 108 28v170h-119v94h231v-377h-71l-21 41q-55 -53 -154 -53q-104 0 -154.5 58t-50.5 149v313q0 90 65.5 148t173.5 58q135 0 210 -81l-59 -85q-66 66 -146 66q-55 0 -90 -30t-35 -86z" />
    <glyph glyph-name="H" unicode="H" horiz-adv-x="628" 
d="M197 700v-291h234v291h119v-700h-119v309h-234v-309h-119v700h119z" />
    <glyph glyph-name="I" unicode="I" horiz-adv-x="275" 
d="M197 700v-700h-119v700h119z" />
    <glyph glyph-name="J" unicode="J" horiz-adv-x="459" 
d="M385 701v-498q0 -105 -56 -161t-160 -56q-88 0 -167 51l39 97q58 -47 123 -47q102 0 102 116v498h119z" />
    <glyph glyph-name="K" unicode="K" horiz-adv-x="577" 
d="M195 700v-336l240 336h133l-234 -313l237 -387h-141l-172 302l-63 -85v-217h-117v700h117z" />
    <glyph glyph-name="L" unicode="L" horiz-adv-x="496" 
d="M196 700v-594h285v-106h-403v700h118z" />
    <glyph glyph-name="M" unicode="M" horiz-adv-x="774" 
d="M438 182h-103l-142 343v-525h-115v700h151l159 -394l161 394h147v-700h-116v525z" />
    <glyph glyph-name="N" unicode="N" horiz-adv-x="630" 
d="M439 196v504h113v-700h-134l-228 519v-519h-112v700h139z" />
    <glyph glyph-name="O" unicode="O" horiz-adv-x="600" 
d="M282 713h35q98 0 158.5 -58t60.5 -137v-336q0 -80 -60.5 -137.5t-158.5 -57.5h-35q-97 0 -157.5 57.5t-60.5 137.5v336q0 79 60.5 137t157.5 58zM300 85q118 0 118 115v300q0 115 -118 115t-118 -115v-300q0 -115 118 -115z" />
    <glyph glyph-name="P" unicode="P" horiz-adv-x="554" 
d="M78 700h237q95 0 150.5 -50.5t55.5 -138.5v-49q0 -87 -54.5 -143t-151.5 -56h-118v-263h-119v700zM403 465v34q0 102 -113 102h-93v-238h93q113 0 113 102z" />
    <glyph glyph-name="Q" unicode="Q" horiz-adv-x="599" 
d="M181 500v-300q0 -115 118 -115t118 115v300q0 115 -118 115t-118 -115zM410 12l131 -77l-58 -90l-208 142q-99 0 -155 58t-56 137v336q0 79 60 137t158 58h34q98 0 158.5 -58t60.5 -137v-336q0 -56 -32 -104.5t-93 -65.5z" />
    <glyph glyph-name="R" unicode="R" horiz-adv-x="577" 
d="M295 601h-98v-228h88q55 0 88.5 26.5t33.5 81.5v19q0 101 -112 101zM278 273h-81v-273h-119v700h233q95 0 154.5 -50.5t59.5 -140.5v-23q0 -72 -36 -121t-100 -65l184 -300h-137z" />
    <glyph glyph-name="S" unicode="S" horiz-adv-x="521" 
d="M269 613q-47 0 -72 -21.5t-25 -56.5q0 -37 31.5 -65.5t76.5 -50.5t90 -48.5t76.5 -72.5t31.5 -109q0 -90 -61.5 -146t-174.5 -56q-67 0 -121.5 18.5t-83.5 44.5l42 99q78 -63 166 -63q56 0 85.5 26.5t29.5 66.5q0 29 -17 52.5t-44 40.5t-60 33t-65.5 35.5t-59.5 43
t-44 59.5t-17 81q0 85 57 137t158 52q119 0 200 -67l-49 -91q-69 58 -150 58z" />
    <glyph glyph-name="T" unicode="T" horiz-adv-x="511" 
d="M24 700h463v-101h-172v-599h-119v599h-172v101z" />
    <glyph glyph-name="U" unicode="U" horiz-adv-x="609" 
d="M417 199v501h118v-519q0 -79 -59.5 -136.5t-157.5 -57.5h-26q-100 0 -158.5 55t-58.5 138v520h119v-501q0 -57 31 -83.5t81 -26.5q52 0 81.5 27t29.5 83z" />
    <glyph glyph-name="V" unicode="V" horiz-adv-x="547" 
d="M190 0l-173 700h123l137 -596l136 596h117l-174 -700h-166z" />
    <glyph glyph-name="W" unicode="W" horiz-adv-x="900" 
d="M573 0l-123 551l-119 -551h-162l-147 700h126l106 -596l130 596h132l138 -596l105 596h118l-144 -700h-160z" />
    <glyph glyph-name="X" unicode="X" horiz-adv-x="551" 
d="M528 700l-185 -349l195 -351h-131l-137 271l-128 -271h-126l189 359l-184 341h130l130 -259l125 259h122z" />
    <glyph glyph-name="Y" unicode="Y" horiz-adv-x="553" 
d="M541 700l-206 -454v-246h-117v246l-207 454h132l137 -335l136 335h125z" />
    <glyph glyph-name="Z" unicode="Z" horiz-adv-x="534" 
d="M490 98l-11 -98h-438v93l319 508h-313l10 99h432v-93l-318 -509h319z" />
    <glyph glyph-name="bracketleft" unicode="[" horiz-adv-x="347" 
d="M78 -141v851h250v-81h-156v-689h156v-81h-250z" />
    <glyph glyph-name="backslash" unicode="\" horiz-adv-x="436" 
d="M342 -60l-323 811h75l324 -811h-76z" />
    <glyph glyph-name="bracketright" unicode="]" horiz-adv-x="347" 
d="M269 710v-851h-250v81h156v689h-156v81h250z" />
    <glyph glyph-name="asciicircum" unicode="^" horiz-adv-x="601" 
d="M300 573l-122 -391h-116l174 518h129l173 -518h-116z" />
    <glyph glyph-name="underscore" unicode="_" horiz-adv-x="317" 
d="M312 -151h-307v97h307v-97z" />
    <glyph glyph-name="grave" unicode="`" horiz-adv-x="395" 
d="M220 595l-151 163h143l114 -163h-106z" />
    <glyph glyph-name="a" unicode="a" horiz-adv-x="518" 
d="M336 221h-100q-38 0 -60 -19t-22 -52q0 -31 20 -52t62 -21q60 0 100 40v104zM208 -13q-78 0 -123 43.5t-45 115.5q0 76 51 117t142 41h103v48q0 86 -93 86q-78 0 -166 -51l-13 102q30 19 82.5 33.5t110.5 14.5q92 0 143 -41.5t51 -121.5v-235q0 -71 34 -117l-106 -34
q-16 21 -25 55q-56 -56 -146 -56z" />
    <glyph glyph-name="b" unicode="b" horiz-adv-x="554" 
d="M304 -13q-89 0 -141 50l-10 -37h-83v735h114v-249q55 51 143 51q77 0 124.5 -42.5t47.5 -122.5v-199q0 -82 -49.5 -134t-145.5 -52zM184 398v-280q13 -14 40.5 -25.5t60.5 -11.5q48 0 74 25t26 70v178q0 42 -24.5 64.5t-66.5 22.5q-58 0 -110 -43z" />
    <glyph glyph-name="c" unicode="c" horiz-adv-x="479" 
d="M169 336v-154q0 -98 107 -98q68 0 151 51l23 -98q-72 -50 -190 -50q-95 0 -150.5 46t-55.5 131v165q0 97 52.5 152.5t159.5 55.5q98 0 172 -47l-33 -94q-68 42 -134 42q-102 0 -102 -102z" />
    <glyph glyph-name="d" unicode="d" horiz-adv-x="554" 
d="M370 119v286q-45 35 -105 35q-44 0 -70 -21.5t-26 -60.5v-181q0 -45 24.5 -69.5t71.5 -24.5q60 0 105 36zM374 37q-56 -50 -142 -50t-131.5 48.5t-45.5 128.5v201q0 81 51 126.5t132 45.5q80 0 132 -42v240h114v-735h-110v37z" />
    <glyph glyph-name="e" unicode="e" horiz-adv-x="505" 
d="M345 316v33q0 93 -86 93q-91 0 -91 -94v-32h177zM168 233v-55q0 -48 30 -71t79 -23q66 0 149 51l23 -99q-71 -49 -186 -49q-96 0 -152.5 46t-56.5 131v186q0 81 54.5 134t151.5 53q93 0 144 -50.5t51 -136.5v-117h-287z" />
    <glyph glyph-name="f" unicode="f" horiz-adv-x="375" 
d="M393 743l-16 -94q-30 12 -72 12q-73 0 -73 -72v-65h121v-95h-121v-429h-114v429h-95v95h95v70q0 75 45.5 119t125.5 44q30 0 63 -5.5t41 -8.5z" />
    <glyph glyph-name="g" unicode="g" horiz-adv-x="516" 
d="M478 -58q0 -82 -60.5 -122.5t-170.5 -40.5q-132 0 -217 49l34 94q83 -51 191 -51q115 0 115 69q0 26 -22.5 36.5t-93.5 10.5l-166 -4l-35 63l57 144q-63 38 -63 130v42q0 79 51.5 127t144.5 48h9q27 0 49.5 -3.5t31.5 -6.5l9 -3l166 5v-95h-89q37 -34 37 -102
q0 -89 -49.5 -138t-147.5 -49h-11q-35 0 -65 8l-26 -73q21 3 78 3h29q27 0 48 -1.5t47.5 -5.5t46 -14t37 -24.5t26.5 -39t9 -56.5zM254 450h-5q-50 0 -72 -25.5t-22 -65.5v-36q0 -40 22.5 -65.5t71.5 -25.5h5q48 0 70.5 26t22.5 65v36q0 40 -22.5 65.5t-70.5 25.5z" />
    <glyph glyph-name="h" unicode="h" horiz-adv-x="561" 
d="M380 0v358q0 39 -22 59.5t-61 20.5q-57 0 -113 -47v-391h-114v735h114v-251q60 53 147 53q75 0 119 -43t44 -124v-370h-114z" />
    <glyph glyph-name="i" unicode="i" horiz-adv-x="253" 
d="M184 0h-114v524h114v-524zM64 606v129h125v-129h-125z" />
    <glyph glyph-name="j" unicode="j" horiz-adv-x="254" 
d="M184 524v-519q0 -43 -7 -76.5t-26 -66t-56.5 -53.5t-93.5 -29l-33 95q59 9 80.5 36t21.5 78v535h114zM64 606v129h125v-129h-125z" />
    <glyph glyph-name="k" unicode="k" horiz-adv-x="536" 
d="M388 524h137l-192 -209l194 -315h-136l-138 237l-69 -75v-162h-114v735h114v-440z" />
    <glyph glyph-name="l" unicode="l" horiz-adv-x="292" 
d="M278 100l17 -93q-42 -16 -95 -16q-60 0 -96 31.5t-36 102.5v610h114v-587q0 -30 11 -43.5t38 -13.5q22 0 47 9z" />
    <glyph glyph-name="m" unicode="m" horiz-adv-x="826" 
d="M180 524v-45q50 58 137 58q44 0 79 -17t51 -47q59 64 153 64q76 0 117.5 -41.5t41.5 -123.5v-372h-114v359q0 80 -75 80q-52 0 -100 -42q2 -36 2 -56v-341h-114v359q0 80 -75 80q-50 0 -99 -43v-396h-114v524h110z" />
    <glyph glyph-name="n" unicode="n" horiz-adv-x="561" 
d="M184 0h-114v524h111v-45q58 58 149 58q75 0 119.5 -43.5t44.5 -124.5v-369h-114v358q0 38 -22.5 59t-59.5 21q-58 0 -114 -47v-391z" />
    <glyph glyph-name="o" unicode="o" horiz-adv-x="538" 
d="M168 347v-170q0 -44 26.5 -68.5t74.5 -24.5t74.5 24.5t26.5 68.5v170q0 44 -26.5 68.5t-74.5 24.5t-74.5 -24.5t-26.5 -68.5zM54 175v174q0 80 53 134t146 54h32q93 0 146 -54t53 -134v-174q0 -80 -53 -134t-146 -54h-32q-93 0 -146 54t-53 134z" />
    <glyph glyph-name="p" unicode="p" horiz-adv-x="554" 
d="M184 -207h-114v732h109v-44q50 56 146 56q78 0 126 -42.5t48 -122.5v-208q0 -78 -52 -127.5t-140 -49.5q-73 0 -123 33v-227zM184 398v-279q12 -14 41.5 -25t61.5 -11q98 0 98 115v162q0 39 -23.5 59.5t-64.5 20.5q-62 0 -113 -42z" />
    <glyph glyph-name="q" unicode="q" horiz-adv-x="553" 
d="M238 -13q-87 0 -135 49t-48 128v201q0 81 52.5 126.5t132.5 45.5q85 0 136 -44l31 36h76v-736h-114v231q-54 -37 -131 -37zM264 83q62 0 105 31v291q-45 35 -105 35q-44 0 -69.5 -21t-25.5 -60v-182q0 -45 24 -69.5t71 -24.5z" />
    <glyph glyph-name="r" unicode="r" horiz-adv-x="396" 
d="M182 524v-65q50 70 143 70q28 0 56 -4l-11 -115q-35 5 -61 5q-79 0 -124 -62v-353h-115v524h112z" />
    <glyph glyph-name="s" unicode="s" horiz-adv-x="473" 
d="M245 537q104 0 174 -43l-29 -95q-14 13 -56.5 29t-85.5 16q-37 0 -61 -14t-24 -42q0 -39 64 -61l64 -25q69 -23 105 -54.5t36 -95.5q0 -82 -57 -123.5t-148 -41.5q-55 0 -106.5 14.5t-82.5 36.5l28 98q29 -23 73.5 -38.5t87.5 -15.5q44 0 67.5 16.5t23.5 45.5
q0 22 -16.5 35.5t-55.5 27.5l-61 23q-61 20 -97 53t-36 97q0 76 52.5 116.5t140.5 40.5z" />
    <glyph glyph-name="t" unicode="t" horiz-adv-x="406" 
d="M376 524l-15 -95h-134v-282q0 -56 49 -56q42 0 84 22l18 -89q-20 -14 -58 -23.5t-73 -9.5q-59 0 -96.5 32t-37.5 103v303h-96l7 95h89v176h114v-176h149z" />
    <glyph glyph-name="u" unicode="u" horiz-adv-x="558" 
d="M233 -13q-79 0 -122.5 42.5t-43.5 124.5v370h115v-357q0 -85 82 -85q55 0 105 42v400h114v-379q0 -76 35 -124l-102 -34q-17 18 -31 61q-59 -61 -152 -61z" />
    <glyph glyph-name="v" unicode="v" horiz-adv-x="516" 
d="M138 524l120 -427h5l118 427h121l-165 -524h-159l-164 524h124z" />
    <glyph glyph-name="w" unicode="w" horiz-adv-x="782" 
d="M22 524h121l81 -411l106 411h123l106 -411l82 411h120l-123 -524h-148l-101 396l-97 -396h-149z" />
    <glyph glyph-name="x" unicode="x" horiz-adv-x="484" 
d="M150 524l96 -181l95 181h119l-152 -258l156 -266h-124l-100 185l-98 -185h-122l153 266l-148 258h125z" />
    <glyph glyph-name="y" unicode="y" horiz-adv-x="516" 
d="M502 524l-165 -524q-39 -123 -89.5 -171.5t-147.5 -48.5q-45 0 -75 5l4 101q31 -7 60 -7q56 0 83 28.5t46 92.5h-41l-163 524h124l119 -427h4l120 427h121z" />
    <glyph glyph-name="z" unicode="z" horiz-adv-x="485" 
d="M442 90l-11 -90h-388v91l272 342h-265v91h387v-95l-269 -339h274z" />
    <glyph glyph-name="braceleft" unicode="{" horiz-adv-x="345" 
d="M328 -64l-32 -89q-96 7 -139.5 54t-43.5 143v90q0 74 -14 96t-74 22v87q59 0 73.5 17.5t14.5 75.5v139q0 161 183 177l32 -89q-58 -4 -78.5 -26t-20.5 -78v-136q0 -105 -92 -124q92 -19 92 -124v-131q0 -56 20.5 -78t78.5 -26z" />
    <glyph glyph-name="bar" unicode="|" horiz-adv-x="231" 
d="M155 847v-1028h-79v1028h79z" />
    <glyph glyph-name="braceright" unicode="}" horiz-adv-x="345" 
d="M17 -64q58 4 78.5 26t20.5 78v131q0 105 92 124q-92 19 -92 124v136q0 56 -20.5 78t-78.5 26l32 89q183 -16 183 -177v-139q0 -58 14.5 -75.5t73.5 -17.5v-87q-60 0 -74 -22t-14 -96v-90q0 -96 -43.5 -143t-139.5 -54z" />
    <glyph glyph-name="asciitilde" unicode="~" horiz-adv-x="519" 
d="M357 277q-33 0 -94 22t-82 22q-46 0 -49 -50l-79 27q0 45 30 83.5t86 38.5q35 0 96 -23t80 -23q39 0 39 49l81 -23q0 -47 -27 -85t-81 -38z" />
    <glyph glyph-name="uni00A0" unicode="&#xa0;" horiz-adv-x="235" 
 />
    <glyph glyph-name="exclamdown" unicode="&#xa1;" horiz-adv-x="286" 
d="M191 300l19 -484h-134l19 484h96zM72 375v149h141v-149h-141z" />
    <glyph glyph-name="cent" unicode="&#xa2;" horiz-adv-x="465" 
d="M287 664v-129q70 -7 136 -47l-33 -92q-50 32 -103 39v-350q56 8 125 50l23 -96q-58 -40 -148 -50v-146h-60v145q-84 4 -136 50t-52 126v156q0 92 47 151t141 65v128h60zM154 336v-154q0 -81 73 -95v348q-73 -12 -73 -99z" />
    <glyph glyph-name="sterling" unicode="&#xa3;" horiz-adv-x="540" 
d="M229 281v-183h271l-14 -98h-445v98h72v183h-72v94h72v134q0 87 54 141.5t156 54.5q106 0 183 -68l-51 -88q-55 57 -127 57q-51 0 -75 -26.5t-24 -83.5v-121h211l-13 -94h-198z" />
    <glyph glyph-name="currency" unicode="&#xa4;" horiz-adv-x="627" 
d="M39 120l94 99q-38 59 -38 131q0 74 39 132l-95 101l55 57l95 -101q57 41 124 41q69 0 124 -41l96 101l55 -57l-96 -101q40 -63 40 -132q0 -68 -39 -131l95 -99l-55 -57l-95 99q-54 -42 -125 -42t-125 42l-94 -99zM181 350q0 -62 37 -104.5t95 -42.5t95 42.5t37 104.5
t-37 104.5t-95 42.5t-95 -42.5t-37 -104.5z" />
    <glyph glyph-name="yen" unicode="&#xa5;" horiz-adv-x="585" 
d="M207 314l-37 80h-114v73h80l-106 233h127l138 -326l139 326h121l-107 -233h80v-73h-114l-38 -80h152v-73h-177v-241h-118v241h-177v73h151z" />
    <glyph glyph-name="brokenbar" unicode="&#xa6;" horiz-adv-x="233" 
d="M77 289h79v-470h-79v470zM77 847h79v-450h-79v450z" />
    <glyph glyph-name="section" unicode="&#xa7;" horiz-adv-x="477" 
d="M86 356q63 -51 148 -51q90 0 90 63q0 20 -12.5 33t-44.5 25l-91 32q-116 41 -116 145q0 74 55 116t142 42q100 0 168 -44l-29 -94q-15 14 -54 28t-83 14q-41 0 -64.5 -14t-23.5 -39q0 -33 50 -53q17 -7 49.5 -18.5t51 -18.5t44 -21.5t39 -30t23.5 -40.5t10 -56
q0 -80 -55 -122t-140 -42q-78 0 -118 21q12 -29 95 -59q11 -4 45 -16t43.5 -16t34.5 -15t33 -18t23.5 -19.5t20.5 -25t10 -30t5 -38.5q0 -82 -57 -124t-148 -42q-55 0 -106.5 14.5t-82.5 36.5l29 96q28 -23 73.5 -38t89.5 -15q88 0 88 64q0 42 -55 59l-89 28
q-143 45 -143 161q0 74 52 122z" />
    <glyph glyph-name="dieresis" unicode="&#xa8;" horiz-adv-x="485" 
d="M82 596v129h126v-129h-126zM277 596v129h126v-129h-126z" />
    <glyph glyph-name="copyright" unicode="&#xa9;" horiz-adv-x="784" 
d="M391 731q172 0 265 -108t93 -273t-93 -273t-265 -108q-171 0 -263.5 107.5t-92.5 273.5t92.5 273.5t263.5 107.5zM392 40q134 0 205 85.5t71 224.5q0 138 -71.5 223.5t-204.5 85.5q-134 0 -205.5 -85.5t-71.5 -223.5q0 -139 71.5 -224.5t205.5 -85.5zM302 424v-132
q0 -45 25.5 -67.5t66.5 -22.5q55 0 119 46l23 -74q-72 -50 -151 -50t-122 42.5t-43 108.5v164q0 63 46.5 106.5t119.5 43.5q87 0 145 -48l-35 -68q-51 39 -108 39q-40 0 -63 -24t-23 -64z" />
    <glyph glyph-name="ordfeminine" unicode="&#xaa;" horiz-adv-x="409" 
d="M248 491h-65q-51 0 -51 -42q0 -45 52 -45q34 0 64 24v63zM165 337q-54 0 -86 30t-32 80q0 52 35.5 79.5t98.5 27.5h67v30q0 54 -57 54q-50 0 -118 -36l-10 71q74 38 142 38q64 0 95.5 -30t31.5 -82v-157q0 -43 26 -76l-77 -30q-11 11 -21 37q-41 -36 -95 -36z" />
    <glyph glyph-name="guillemotleft" unicode="&#xab;" horiz-adv-x="610" 
d="M342 570l-188 -250l188 -250h-136l-187 250l187 250h136zM565 570l-187 -250l187 -250h-135l-187 250l187 250h135z" />
    <glyph glyph-name="logicalnot" unicode="&#xac;" horiz-adv-x="507" 
d="M338 152v132h-293v97h406v-229h-113z" />
    <glyph glyph-name="uni00AD" unicode="&#xad;" horiz-adv-x="0" 
 />
    <glyph glyph-name="registered" unicode="&#xae;" horiz-adv-x="784" 
d="M402 496h-74v-110h74q25 0 39.5 14.5t14.5 40.5q0 27 -15 41t-39 14zM463 326l112 -182h-103l-95 166h-49v-166h-88v429h183q51 0 86 -35t35 -80v-22q0 -37 -22 -67.5t-59 -42.5zM391 731q172 0 265 -107.5t93 -273.5t-93 -273.5t-265 -107.5t-264 107.5t-92 273.5
t92 273.5t264 107.5zM392 40q133 0 204.5 86t71.5 224t-71.5 223.5t-204.5 85.5q-134 0 -205.5 -85.5t-71.5 -223.5t72 -224t205 -86z" />
    <glyph glyph-name="macron" unicode="&#xaf;" horiz-adv-x="457" 
d="M384 605h-311v86h311v-86z" />
    <glyph glyph-name="degree" unicode="&#xb0;" horiz-adv-x="429" 
d="M215 353q-76 0 -122.5 44t-46.5 124v11q0 80 46.5 124t122.5 44q75 0 121.5 -44t46.5 -124v-11q0 -80 -46.5 -124t-121.5 -44zM214 624q-41 0 -61.5 -25t-20.5 -64v-16q0 -39 21 -65t61 -26q41 0 62 26t21 65v16q0 38 -21 63.5t-62 25.5z" />
    <glyph glyph-name="plusminus" unicode="&#xb1;" horiz-adv-x="588" 
d="M342 158h-96v214h-203v92h203v210h96v-210h203v-92h-203v-214zM545 0h-502v92h502v-92z" />
    <glyph glyph-name="twosuperior" unicode="&#xb2;" 
d="M194 632q-43 0 -75 -42l-50 53q15 24 50 42.5t80 18.5q59 0 94 -31t35 -79v-6q0 -58 -61 -119q-1 -2 -44.5 -44t-52.5 -49h161v-71h-254v78l120 115q50 47 50 87v2q0 20 -14.5 32.5t-38.5 12.5z" />
    <glyph glyph-name="threesuperior" unicode="&#xb3;" 
d="M196 631q-44 0 -78 -40l-45 56q44 53 127 53q56 0 90 -28.5t34 -73.5v-7q0 -60 -51 -83q61 -19 61 -90v-3q0 -49 -36 -83t-105 -34q-81 0 -127 46l44 60q37 -37 83 -37q25 0 42 13.5t17 37.5v2q0 47 -59 47h-50v67h43q62 0 62 48v4q0 22 -14.5 33.5t-37.5 11.5z" />
    <glyph glyph-name="acute" unicode="&#xb4;" horiz-adv-x="395" 
d="M326 758l-151 -163h-106l114 163h143z" />
    <glyph glyph-name="mu" unicode="&#xb5;" horiz-adv-x="550" 
d="M62 -207v731h114v-354q0 -86 84 -86q54 0 103 42v398h114v-377q0 -75 36 -124l-102 -35q-21 23 -31 62q-50 -62 -136 -62q-55 0 -82 24v-219h-100z" />
    <glyph glyph-name="paragraph" unicode="&#xb6;" horiz-adv-x="629" 
d="M343 601v-565q0 -211 -206 -211q-49 0 -90 13l18 94q24 -10 60 -10q100 0 100 114v199h-6q-92 2 -139.5 54.5t-47.5 144.5v58q0 101 56.5 154.5t148.5 53.5h328v-700h-119v601h-103z" />
    <glyph glyph-name="periodcentered" unicode="&#xb7;" horiz-adv-x="280" 
d="M72 290v143h136v-143h-136z" />
    <glyph glyph-name="cedilla" unicode="&#xb8;" horiz-adv-x="405" 
d="M89 -152q45 -23 93 -23q65 0 65 46q0 36 -61 40h-18.5h-23.5h-20l41 101l72 3l-20 -43q9 0 22.5 -2.5t36 -11t38 -30.5t15.5 -55q0 -58 -42 -86.5t-101 -28.5q-29 0 -56.5 6.5t-40.5 13.5l-13 6z" />
    <glyph glyph-name="onesuperior" unicode="&#xb9;" 
d="M328 375v-70h-244v70h83v236l-69 -33l-28 64l110 53h70v-320h78z" />
    <glyph glyph-name="ordmasculine" unicode="&#xba;" horiz-adv-x="412" 
d="M199 711h10q64 0 105 -35t41 -88v-129q0 -53 -41 -87.5t-105 -34.5h-10q-64 0 -104.5 34.5t-40.5 87.5v129q0 53 40.5 88t104.5 35zM204 409q31 0 48 15.5t17 43.5v112q0 28 -17 43.5t-48 15.5t-48 -15.5t-17 -43.5v-112q0 -28 17 -43.5t48 -15.5z" />
    <glyph glyph-name="guillemotright" unicode="&#xbb;" horiz-adv-x="610" 
d="M232 320l-187 250h135l188 -250l-188 -250h-135zM456 320l-187 250h135l187 -250l-187 -250h-135z" />
    <glyph glyph-name="onequarter" unicode="&#xbc;" horiz-adv-x="1080" 
d="M961 102h-43v-101h-77v101h-173v67l154 222h96v-225h43v-64zM841 166v143l-100 -143h100zM184 8l658 714l44 -39l-657 -714zM366 375v-70h-244v70h83v236l-69 -33l-28 64l110 53h70v-320h78z" />
    <glyph glyph-name="onehalf" unicode="&#xbd;" horiz-adv-x="1080" 
d="M822 327q-43 0 -75 -42l-50 53q15 24 50 42.5t80 18.5q59 0 94 -31t35 -79v-6q0 -58 -61 -119q-1 -2 -44.5 -44t-52.5 -49h161v-71h-254v78l120 115q50 47 50 87v2q0 20 -14.5 32.5t-38.5 12.5zM184 8l658 714l44 -39l-657 -714zM366 375v-70h-244v70h83v236l-69 -33
l-28 64l110 53h70v-320h78z" />
    <glyph glyph-name="threequarters" unicode="&#xbe;" horiz-adv-x="1080" 
d="M964 101h-43v-101h-77v101h-173v67l154 222h96v-225h43v-64zM844 165v143l-100 -143h100zM237 631q-44 0 -78 -40l-45 56q44 53 127 53q56 0 90 -28.5t34 -73.5v-7q0 -60 -51 -83q61 -19 61 -90v-3q0 -49 -36 -83t-105 -34q-81 0 -127 46l44 60q37 -37 83 -37
q25 0 42 13.5t17 37.5v2q0 47 -59 47h-50v67h43q62 0 62 48v4q0 22 -14.5 33.5t-37.5 11.5zM184 8l658 714l44 -39l-657 -714z" />
    <glyph glyph-name="questiondown" unicode="&#xbf;" horiz-adv-x="440" 
d="M41 -45q0 41 15.5 77t37.5 62t44 50.5t37.5 54t15.5 61.5v40h116v-41q0 -40 -17.5 -78t-39.5 -63t-44 -56.5t-29 -57.5q-13 -17 -13 -34q0 -30 24 -45.5t60 -15.5q72 0 138 52l40 -93q-78 -66 -194 -66q-90 0 -140.5 42t-50.5 111zM317 525v-149h-142v149h142z" />
    <glyph glyph-name="Agrave" unicode="&#xc0;" horiz-adv-x="561" 
d="M421 0l-44 183h-201l-42 -183h-116l173 700h175l179 -700h-124zM273 605l-75 -321h155l-75 321h-5zM302 771l-151 163h143l114 -163h-106z" />
    <glyph glyph-name="Aacute" unicode="&#xc1;" horiz-adv-x="561" 
d="M421 0l-44 183h-201l-42 -183h-116l173 700h175l179 -700h-124zM273 605l-75 -321h155l-75 321h-5zM429 934l-151 -163h-106l114 163h143z" />
    <glyph glyph-name="Acircumflex" unicode="&#xc2;" horiz-adv-x="561" 
d="M421 0l-44 183h-201l-42 -183h-116l173 700h175l179 -700h-124zM273 605l-75 -321h155l-75 321h-5zM351 771l-69 103l-69 -103h-112l129 183h103l129 -183h-111z" />
    <glyph glyph-name="Atilde" unicode="&#xc3;" horiz-adv-x="561" 
d="M421 0l-44 183h-201l-42 -183h-116l173 700h175l179 -700h-124zM273 605l-75 -321h155l-75 321h-5zM206 816q-29 0 -38 -46l-71 32q3 42 30.5 73.5t71.5 31.5q31 0 82 -22.5t68 -22.5q18 0 26.5 12.5t13.5 37.5l72 -34q-5 -42 -31.5 -74.5t-70.5 -32.5q-29 0 -82 22.5
t-71 22.5z" />
    <glyph glyph-name="Adieresis" unicode="&#xc4;" horiz-adv-x="561" 
d="M421 0l-44 183h-201l-42 -183h-116l173 700h175l179 -700h-124zM273 605l-75 -321h155l-75 321h-5zM115 772v129h126v-129h-126zM310 772v129h126v-129h-126z" />
    <glyph glyph-name="Aring" unicode="&#xc5;" horiz-adv-x="561" 
d="M278 891q64 0 105.5 -38t41.5 -103v-4q0 -65 -43 -103l165 -643h-124l-44 183h-201l-42 -183h-118l160 637q-48 38 -48 109v4q0 65 41.5 103t106.5 38zM356 284l-75 321h-5l-75 -321h155zM278 676q32 0 48 20t16 48v6q0 29 -16 48.5t-48 19.5t-48.5 -19.5t-16.5 -48.5v-6
q0 -28 16.5 -48t48.5 -20z" />
    <glyph glyph-name="AE" unicode="&#xc6;" horiz-adv-x="873" 
d="M819 0h-413v184h-197l-86 -184h-130l346 700h486l-14 -99h-287v-191h270v-101h-270v-210h295v-99zM405 600l-152 -316h153v316h-1z" />
    <glyph glyph-name="Ccedilla" unicode="&#xc7;" horiz-adv-x="534" 
d="M167 -152q45 -23 93 -23q65 0 65 46q0 36 -61 40h-62l32 81q-81 14 -126 67t-45 135v314q0 89 63 147t167 58q127 0 205 -82l-59 -83q-64 66 -145 66q-51 0 -81.5 -29.5t-30.5 -85.5v-296q0 -57 32 -86.5t87 -29.5q94 0 160 75l49 -92q-78 -80 -208 -83l-7 -15
q9 0 22.5 -2.5t36 -11t38 -30.5t15.5 -55q0 -58 -42 -86.5t-101 -28.5q-29 0 -56.5 6.5t-40.5 13.5l-13 6z" />
    <glyph glyph-name="Egrave" unicode="&#xc8;" horiz-adv-x="545" 
d="M491 99v-99h-413v700h420l-15 -99h-286v-192h270v-100h-270v-210h294zM272 771l-151 163h143l114 -163h-106z" />
    <glyph glyph-name="Eacute" unicode="&#xc9;" horiz-adv-x="545" 
d="M491 99v-99h-413v700h420l-15 -99h-286v-192h270v-100h-270v-210h294zM460 934l-151 -163h-106l114 163h143z" />
    <glyph glyph-name="Ecircumflex" unicode="&#xca;" horiz-adv-x="545" 
d="M491 99v-99h-413v700h420l-15 -99h-286v-192h270v-100h-270v-210h294zM350 771l-69 103l-69 -103h-112l129 183h103l129 -183h-111z" />
    <glyph glyph-name="Edieresis" unicode="&#xcb;" horiz-adv-x="545" 
d="M491 99v-99h-413v700h420l-15 -99h-286v-192h270v-100h-270v-210h294zM122 772v129h126v-129h-126zM317 772v129h126v-129h-126z" />
    <glyph glyph-name="Igrave" unicode="&#xcc;" horiz-adv-x="275" 
d="M197 700v-700h-119v700h119zM160 771l-151 163h143l114 -163h-106z" />
    <glyph glyph-name="Iacute" unicode="&#xcd;" horiz-adv-x="275" 
d="M197 700v-700h-119v700h119zM266 934l-151 -163h-106l114 163h143z" />
    <glyph glyph-name="Icircumflex" unicode="&#xce;" horiz-adv-x="275" 
d="M197 700v-700h-119v700h119zM208 771l-69 103l-69 -103h-112l129 183h103l129 -183h-111z" />
    <glyph glyph-name="Idieresis" unicode="&#xcf;" horiz-adv-x="275" 
d="M197 700v-700h-119v700h119zM-24 772v129h126v-129h-126zM171 772v129h126v-129h-126z" />
    <glyph glyph-name="Eth" unicode="&#xd0;" horiz-adv-x="607" 
d="M83 700h242q99 0 158.5 -57.5t59.5 -137.5v-311q0 -80 -59.5 -137t-158.5 -57h-242v310h-69v92h69v298zM307 601h-106v-199h129v-92h-129v-212h106q54 0 86 27.5t32 84.5v279q0 112 -118 112z" />
    <glyph glyph-name="Ntilde" unicode="&#xd1;" horiz-adv-x="630" 
d="M439 196v504h113v-700h-134l-228 519v-519h-112v700h139zM243 816q-29 0 -38 -46l-71 32q3 42 30.5 73.5t71.5 31.5q31 0 82 -22.5t68 -22.5q18 0 26.5 12.5t13.5 37.5l72 -34q-5 -42 -31.5 -74.5t-70.5 -32.5q-30 0 -83 22.5t-70 22.5z" />
    <glyph glyph-name="Ograve" unicode="&#xd2;" horiz-adv-x="600" 
d="M282 713h35q98 0 158.5 -58t60.5 -137v-336q0 -80 -60.5 -137.5t-158.5 -57.5h-35q-97 0 -157.5 57.5t-60.5 137.5v336q0 79 60.5 137t157.5 58zM300 85q118 0 118 115v300q0 115 -118 115t-118 -115v-300q0 -115 118 -115zM322 771l-151 163h143l114 -163h-106z" />
    <glyph glyph-name="Oacute" unicode="&#xd3;" horiz-adv-x="600" 
d="M282 713h35q98 0 158.5 -58t60.5 -137v-336q0 -80 -60.5 -137.5t-158.5 -57.5h-35q-97 0 -157.5 57.5t-60.5 137.5v336q0 79 60.5 137t157.5 58zM300 85q118 0 118 115v300q0 115 -118 115t-118 -115v-300q0 -115 118 -115zM460 934l-151 -163h-106l114 163h143z" />
    <glyph glyph-name="Ocircumflex" unicode="&#xd4;" horiz-adv-x="600" 
d="M282 713h35q98 0 158.5 -58t60.5 -137v-336q0 -80 -60.5 -137.5t-158.5 -57.5h-35q-97 0 -157.5 57.5t-60.5 137.5v336q0 79 60.5 137t157.5 58zM300 85q118 0 118 115v300q0 115 -118 115t-118 -115v-300q0 -115 118 -115zM370 771l-69 103l-69 -103h-112l129 183h103
l129 -183h-111z" />
    <glyph glyph-name="Otilde" unicode="&#xd5;" horiz-adv-x="600" 
d="M282 713h35q98 0 158.5 -58t60.5 -137v-336q0 -80 -60.5 -137.5t-158.5 -57.5h-35q-97 0 -157.5 57.5t-60.5 137.5v336q0 79 60.5 137t157.5 58zM300 85q118 0 118 115v300q0 115 -118 115t-118 -115v-300q0 -115 118 -115zM227 816q-29 0 -38 -46l-71 32q3 42 30.5 73.5
t71.5 31.5q31 0 82 -22.5t68 -22.5q18 0 26.5 12.5t13.5 37.5l72 -34q-5 -42 -31.5 -74.5t-70.5 -32.5q-29 0 -82.5 22.5t-70.5 22.5z" />
    <glyph glyph-name="Odieresis" unicode="&#xd6;" horiz-adv-x="600" 
d="M282 713h35q98 0 158.5 -58t60.5 -137v-336q0 -80 -60.5 -137.5t-158.5 -57.5h-35q-97 0 -157.5 57.5t-60.5 137.5v336q0 79 60.5 137t157.5 58zM300 85q118 0 118 115v300q0 115 -118 115t-118 -115v-300q0 -115 118 -115zM138 772v129h126v-129h-126zM333 772v129h126
v-129h-126z" />
    <glyph glyph-name="multiply" unicode="&#xd7;" horiz-adv-x="636" 
d="M599 576l-226 -226l226 -226l-56 -55l-225 225l-224 -225l-57 55l226 226l-226 226l57 55l224 -226l225 226z" />
    <glyph glyph-name="Oslash" unicode="&#xd8;" horiz-adv-x="600" 
d="M173 11l-48 -102l-53 24l54 110q-62 57 -62 139v336q0 79 60.5 137t157.5 58h35q59 0 109 -26l44 96l51 -23l-48 -105q63 -58 63 -137v-336q0 -80 -61 -137.5t-158 -57.5h-35q-59 0 -109 24zM300 85q53 0 85 28.5t32 86.5v337l-199 -427q31 -25 82 -25zM182 500v-335
l198 425q-29 25 -80 25q-53 0 -85.5 -29t-32.5 -86z" />
    <glyph glyph-name="Ugrave" unicode="&#xd9;" horiz-adv-x="609" 
d="M417 199v501h118v-519q0 -79 -59.5 -136.5t-157.5 -57.5h-26q-100 0 -158.5 55t-58.5 138v520h119v-501q0 -57 31 -83.5t81 -26.5q52 0 81.5 27t29.5 83zM327 771l-151 163h143l114 -163h-106z" />
    <glyph glyph-name="Uacute" unicode="&#xda;" horiz-adv-x="609" 
d="M417 199v501h118v-519q0 -79 -59.5 -136.5t-157.5 -57.5h-26q-100 0 -158.5 55t-58.5 138v520h119v-501q0 -57 31 -83.5t81 -26.5q52 0 81.5 27t29.5 83zM470 934l-151 -163h-106l114 163h143z" />
    <glyph glyph-name="Ucircumflex" unicode="&#xdb;" horiz-adv-x="609" 
d="M417 199v501h118v-519q0 -79 -59.5 -136.5t-157.5 -57.5h-26q-100 0 -158.5 55t-58.5 138v520h119v-501q0 -57 31 -83.5t81 -26.5q52 0 81.5 27t29.5 83zM376 771l-69 103l-69 -103h-112l129 183h103l129 -183h-111z" />
    <glyph glyph-name="Udieresis" unicode="&#xdc;" horiz-adv-x="609" 
d="M417 199v501h118v-519q0 -79 -59.5 -136.5t-157.5 -57.5h-26q-100 0 -158.5 55t-58.5 138v520h119v-501q0 -57 31 -83.5t81 -26.5q52 0 81.5 27t29.5 83zM143 772v129h126v-129h-126zM338 772v129h126v-129h-126z" />
    <glyph glyph-name="Yacute" unicode="&#xdd;" horiz-adv-x="553" 
d="M541 700l-206 -454v-246h-117v246l-207 454h132l137 -335l136 335h125zM441 934l-151 -163h-106l114 163h143z" />
    <glyph glyph-name="Thorn" unicode="&#xde;" horiz-adv-x="565" 
d="M531 380v-50q0 -86 -56.5 -141.5t-149.5 -55.5h-128v-133h-119v700h119v-132h128q94 0 150 -50.5t56 -137.5zM197 470v-238h98q118 0 118 102v33q0 103 -118 103h-98z" />
    <glyph glyph-name="germandbls" unicode="&#xdf;" horiz-adv-x="576" 
d="M263 306v101h35q95 0 95 114q0 60 -28 87.5t-73 27.5q-50 0 -76.5 -31.5t-26.5 -84.5v-520h-119v517q0 103 62 161t161 58q94 0 153 -52t59 -149q0 -122 -94 -164q55 -12 87 -57.5t32 -120.5q0 -92 -51 -145.5t-153 -53.5q-32 0 -73 6l-3 98q41 -9 69 -9q42 0 68 25
t26 73v17q0 102 -123 102h-27z" />
    <glyph glyph-name="agrave" unicode="&#xe0;" horiz-adv-x="518" 
d="M336 221h-100q-38 0 -60 -19t-22 -52q0 -31 20 -52t62 -21q60 0 100 40v104zM208 -13q-78 0 -123 43.5t-45 115.5q0 76 51 117t142 41h103v48q0 86 -93 86q-78 0 -166 -51l-13 102q30 19 82.5 33.5t110.5 14.5q92 0 143 -41.5t51 -121.5v-235q0 -71 34 -117l-106 -34
q-16 21 -25 55q-56 -56 -146 -56zM281 595l-151 163h143l114 -163h-106z" />
    <glyph glyph-name="aacute" unicode="&#xe1;" horiz-adv-x="518" 
d="M336 221h-100q-38 0 -60 -19t-22 -52q0 -31 20 -52t62 -21q60 0 100 40v104zM208 -13q-78 0 -123 43.5t-45 115.5q0 76 51 117t142 41h103v48q0 86 -93 86q-78 0 -166 -51l-13 102q30 19 82.5 33.5t110.5 14.5q92 0 143 -41.5t51 -121.5v-235q0 -71 34 -117l-106 -34
q-16 21 -25 55q-56 -56 -146 -56zM387 758l-151 -163h-106l114 163h143z" />
    <glyph glyph-name="acircumflex" unicode="&#xe2;" horiz-adv-x="518" 
d="M336 221h-100q-38 0 -60 -19t-22 -52q0 -31 20 -52t62 -21q60 0 100 40v104zM208 -13q-78 0 -123 43.5t-45 115.5q0 76 51 117t142 41h103v48q0 86 -93 86q-78 0 -166 -51l-13 102q30 19 82.5 33.5t110.5 14.5q92 0 143 -41.5t51 -121.5v-235q0 -71 34 -117l-106 -34
q-16 21 -25 55q-56 -56 -146 -56zM330 595l-69 103l-69 -103h-112l129 183h103l129 -183h-111z" />
    <glyph glyph-name="atilde" unicode="&#xe3;" horiz-adv-x="518" 
d="M336 221h-100q-38 0 -60 -19t-22 -52q0 -31 20 -52t62 -21q60 0 100 40v104zM208 -13q-78 0 -123 43.5t-45 115.5q0 76 51 117t142 41h103v48q0 86 -93 86q-78 0 -166 -51l-13 102q30 19 82.5 33.5t110.5 14.5q92 0 143 -41.5t51 -121.5v-235q0 -71 34 -117l-106 -34
q-16 21 -25 55q-56 -56 -146 -56zM186 640q-29 0 -38 -46l-71 32q3 42 30.5 73.5t71.5 31.5q31 0 82 -22.5t68 -22.5q18 0 26.5 12.5t13.5 37.5l72 -34q-5 -42 -31.5 -74.5t-70.5 -32.5q-29 0 -82 22.5t-71 22.5z" />
    <glyph glyph-name="adieresis" unicode="&#xe4;" horiz-adv-x="518" 
d="M336 221h-100q-38 0 -60 -19t-22 -52q0 -31 20 -52t62 -21q60 0 100 40v104zM208 -13q-78 0 -123 43.5t-45 115.5q0 76 51 117t142 41h103v48q0 86 -93 86q-78 0 -166 -51l-13 102q30 19 82.5 33.5t110.5 14.5q92 0 143 -41.5t51 -121.5v-235q0 -71 34 -117l-106 -34
q-16 21 -25 55q-56 -56 -146 -56zM97 596v129h126v-129h-126zM292 596v129h126v-129h-126z" />
    <glyph glyph-name="aring" unicode="&#xe5;" horiz-adv-x="518" 
d="M336 221h-100q-38 0 -60 -19t-22 -52q0 -31 20 -52t62 -21q60 0 100 40v104zM208 -13q-78 0 -123 43.5t-45 115.5q0 76 51 117t142 41h103v48q0 86 -93 86q-78 0 -166 -51l-13 102q30 19 82.5 33.5t110.5 14.5q92 0 143 -41.5t51 -121.5v-235q0 -71 34 -117l-106 -34
q-16 21 -25 55q-56 -56 -146 -56zM396 726v-9q0 -63 -38 -98.5t-99 -35.5t-99 35.5t-38 98.5v9q0 62 38 97.5t99 35.5t99 -35.5t38 -97.5zM199 728v-13q0 -28 15 -46.5t45 -18.5t44.5 18.5t14.5 46.5v13q0 27 -14.5 45.5t-44.5 18.5t-45 -18.5t-15 -45.5z" />
    <glyph glyph-name="ae" unicode="&#xe6;" horiz-adv-x="788" 
d="M213 -13q-81 0 -127 43t-46 116q0 77 51.5 119t141.5 42h103v50q0 81 -93 81q-76 0 -166 -50l-13 102q84 47 192 47q104 0 151 -55q43 55 140 55q88 0 140 -51t52 -136v-117h-288v-63q5 -86 107 -86q66 0 151 49l21 -93q-80 -53 -188 -53q-114 0 -167 67
q-60 -67 -162 -67zM336 224h-99q-38 0 -60.5 -19.5t-22.5 -53.5q0 -30 19.5 -52t61.5 -22q61 0 108 44q-7 20 -7 72v31zM627 316v30q0 96 -88 96q-43 0 -65.5 -22.5t-22.5 -63.5v-40h176z" />
    <glyph glyph-name="ccedilla" unicode="&#xe7;" horiz-adv-x="479" 
d="M130 -152q45 -23 93 -23q65 0 65 46q0 36 -61 40h-18.5h-23.5h-20l33 82q-68 13 -106 56.5t-38 114.5v165q0 97 52.5 152.5t159.5 55.5q98 0 172 -47l-33 -94q-68 42 -134 42q-102 0 -102 -102v-154q0 -98 107 -98q68 0 151 51l23 -98q-70 -48 -185 -50l-7 -15
q9 0 22.5 -2.5t36 -11t38 -30.5t15.5 -55q0 -58 -42 -86.5t-101 -28.5q-29 0 -56.5 6.5t-40.5 13.5l-13 6z" />
    <glyph glyph-name="egrave" unicode="&#xe8;" horiz-adv-x="505" 
d="M345 316v33q0 93 -86 93q-91 0 -91 -94v-32h177zM168 233v-55q0 -48 30 -71t79 -23q66 0 149 51l23 -99q-71 -49 -186 -49q-96 0 -152.5 46t-56.5 131v186q0 81 54.5 134t151.5 53q93 0 144 -50.5t51 -136.5v-117h-287zM277 595l-151 163h143l114 -163h-106z" />
    <glyph glyph-name="eacute" unicode="&#xe9;" horiz-adv-x="505" 
d="M345 316v33q0 93 -86 93q-91 0 -91 -94v-32h177zM168 233v-55q0 -48 30 -71t79 -23q66 0 149 51l23 -99q-71 -49 -186 -49q-96 0 -152.5 46t-56.5 131v186q0 81 54.5 134t151.5 53q93 0 144 -50.5t51 -136.5v-117h-287zM417 758l-151 -163h-106l114 163h143z" />
    <glyph glyph-name="ecircumflex" unicode="&#xea;" horiz-adv-x="505" 
d="M345 316v33q0 93 -86 93q-91 0 -91 -94v-32h177zM168 233v-55q0 -48 30 -71t79 -23q66 0 149 51l23 -99q-71 -49 -186 -49q-96 0 -152.5 46t-56.5 131v186q0 81 54.5 134t151.5 53q93 0 144 -50.5t51 -136.5v-117h-287zM326 595l-69 103l-69 -103h-112l129 183h103
l129 -183h-111z" />
    <glyph glyph-name="edieresis" unicode="&#xeb;" horiz-adv-x="505" 
d="M345 316v33q0 93 -86 93q-91 0 -91 -94v-32h177zM168 233v-55q0 -48 30 -71t79 -23q66 0 149 51l23 -99q-71 -49 -186 -49q-96 0 -152.5 46t-56.5 131v186q0 81 54.5 134t151.5 53q93 0 144 -50.5t51 -136.5v-117h-287zM93 596v129h126v-129h-126zM288 596v129h126v-129
h-126z" />
    <glyph glyph-name="igrave" unicode="&#xec;" horiz-adv-x="255" 
d="M184 0h-114v524h114v-524zM151 595l-151 163h143l114 -163h-106z" />
    <glyph glyph-name="iacute" unicode="&#xed;" horiz-adv-x="255" 
d="M184 0h-114v524h114v-524zM256 758l-151 -163h-106l114 163h143z" />
    <glyph glyph-name="icircumflex" unicode="&#xee;" horiz-adv-x="255" 
d="M184 0h-114v524h114v-524zM199 595l-69 103l-69 -103h-112l129 183h103l129 -183h-111z" />
    <glyph glyph-name="idieresis" unicode="&#xef;" horiz-adv-x="255" 
d="M184 0h-114v524h114v-524zM-33 596v129h126v-129h-126zM162 596v129h126v-129h-126z" />
    <glyph glyph-name="eth" unicode="&#xf0;" horiz-adv-x="551" 
d="M224 774q65 0 118 -22l70 70l35 -35l-60 -60q100 -72 100 -240v-305q0 -87 -56 -141t-153 -54h-10q-98 0 -156 52.5t-58 128.5v195q0 77 53.5 125.5t142.5 48.5q79 0 124 -47q0 2 -0.5 10.5t-0.5 9.5q-3 98 -63 139l-64 -63l-35 35l49 49q-19 5 -43 5q-58 0 -110 -22
l-17 96q55 25 134 25zM271 83q47 0 72.5 25.5t25.5 73.5v192q0 29 -26 48.5t-71 19.5q-49 0 -76 -24.5t-27 -73.5v-162q0 -48 26.5 -73.5t75.5 -25.5z" />
    <glyph glyph-name="ntilde" unicode="&#xf1;" horiz-adv-x="561" 
d="M184 0h-114v524h111v-45q58 58 149 58q75 0 119.5 -43.5t44.5 -124.5v-369h-114v358q0 38 -22.5 59t-59.5 21q-58 0 -114 -47v-391zM211 640q-29 0 -38 -46l-71 32q3 42 30.5 73.5t71.5 31.5q31 0 82 -22.5t68 -22.5q18 0 26.5 12.5t13.5 37.5l72 -34q-5 -42 -31.5 -74.5
t-70.5 -32.5q-30 0 -83 22.5t-70 22.5z" />
    <glyph glyph-name="ograve" unicode="&#xf2;" horiz-adv-x="538" 
d="M168 347v-170q0 -44 26.5 -68.5t74.5 -24.5t74.5 24.5t26.5 68.5v170q0 44 -26.5 68.5t-74.5 24.5t-74.5 -24.5t-26.5 -68.5zM54 175v174q0 80 53 134t146 54h32q93 0 146 -54t53 -134v-174q0 -80 -53 -134t-146 -54h-32q-93 0 -146 54t-53 134zM291 595l-151 163h143
l114 -163h-106z" />
    <glyph glyph-name="oacute" unicode="&#xf3;" horiz-adv-x="538" 
d="M168 347v-170q0 -44 26.5 -68.5t74.5 -24.5t74.5 24.5t26.5 68.5v170q0 44 -26.5 68.5t-74.5 24.5t-74.5 -24.5t-26.5 -68.5zM54 175v174q0 80 53 134t146 54h32q93 0 146 -54t53 -134v-174q0 -80 -53 -134t-146 -54h-32q-93 0 -146 54t-53 134zM426 758l-151 -163h-106
l114 163h143z" />
    <glyph glyph-name="ocircumflex" unicode="&#xf4;" horiz-adv-x="538" 
d="M168 347v-170q0 -44 26.5 -68.5t74.5 -24.5t74.5 24.5t26.5 68.5v170q0 44 -26.5 68.5t-74.5 24.5t-74.5 -24.5t-26.5 -68.5zM54 175v174q0 80 53 134t146 54h32q93 0 146 -54t53 -134v-174q0 -80 -53 -134t-146 -54h-32q-93 0 -146 54t-53 134zM339 595l-69 103
l-69 -103h-112l129 183h103l129 -183h-111z" />
    <glyph glyph-name="otilde" unicode="&#xf5;" horiz-adv-x="538" 
d="M168 347v-170q0 -44 26.5 -68.5t74.5 -24.5t74.5 24.5t26.5 68.5v170q0 44 -26.5 68.5t-74.5 24.5t-74.5 -24.5t-26.5 -68.5zM54 175v174q0 80 53 134t146 54h32q93 0 146 -54t53 -134v-174q0 -80 -53 -134t-146 -54h-32q-93 0 -146 54t-53 134zM196 640q-29 0 -38 -46
l-71 32q3 42 30.5 73.5t71.5 31.5q31 0 82 -22.5t68 -22.5q18 0 26.5 12.5t13.5 37.5l72 -34q-5 -42 -31.5 -74.5t-70.5 -32.5q-29 0 -82 22.5t-71 22.5z" />
    <glyph glyph-name="odieresis" unicode="&#xf6;" horiz-adv-x="538" 
d="M168 347v-170q0 -44 26.5 -68.5t74.5 -24.5t74.5 24.5t26.5 68.5v170q0 44 -26.5 68.5t-74.5 24.5t-74.5 -24.5t-26.5 -68.5zM54 175v174q0 80 53 134t146 54h32q93 0 146 -54t53 -134v-174q0 -80 -53 -134t-146 -54h-32q-93 0 -146 54t-53 134zM108 596v129h126v-129
h-126zM303 596v129h126v-129h-126z" />
    <glyph glyph-name="divide" unicode="&#xf7;" horiz-adv-x="540" 
d="M505 289h-470v92h470v-92zM199 74v149h141v-149h-141zM199 447v149h141v-149h-141z" />
    <glyph glyph-name="oslash" unicode="&#xf8;" horiz-adv-x="538" 
d="M65 -60l51 92q-62 53 -62 143v174q0 80 53 134t146 54h32q59 0 102 -23l49 88l40 -22l-51 -92q59 -51 59 -139v-174q0 -80 -53 -134t-146 -54h-32q-52 0 -97 20l-50 -90zM168 347v-170q0 -24 7 -41l160 286q-26 18 -66 18q-48 0 -74.5 -24.5t-26.5 -68.5zM370 347
q0 17 -5 34l-158 -282q24 -15 62 -15q48 0 74.5 24.5t26.5 68.5v170z" />
    <glyph glyph-name="ugrave" unicode="&#xf9;" horiz-adv-x="558" 
d="M233 -13q-79 0 -122.5 42.5t-43.5 124.5v370h115v-357q0 -85 82 -85q55 0 105 42v400h114v-379q0 -76 35 -124l-102 -34q-17 18 -31 61q-59 -61 -152 -61zM292 595l-151 163h143l114 -163h-106z" />
    <glyph glyph-name="uacute" unicode="&#xfa;" horiz-adv-x="558" 
d="M233 -13q-79 0 -122.5 42.5t-43.5 124.5v370h115v-357q0 -85 82 -85q55 0 105 42v400h114v-379q0 -76 35 -124l-102 -34q-17 18 -31 61q-59 -61 -152 -61zM438 758l-151 -163h-106l114 163h143z" />
    <glyph glyph-name="ucircumflex" unicode="&#xfb;" horiz-adv-x="558" 
d="M233 -13q-79 0 -122.5 42.5t-43.5 124.5v370h115v-357q0 -85 82 -85q55 0 105 42v400h114v-379q0 -76 35 -124l-102 -34q-17 18 -31 61q-59 -61 -152 -61zM350 595l-69 103l-69 -103h-112l129 183h103l129 -183h-111z" />
    <glyph glyph-name="udieresis" unicode="&#xfc;" horiz-adv-x="558" 
d="M233 -13q-79 0 -122.5 42.5t-43.5 124.5v370h115v-357q0 -85 82 -85q55 0 105 42v400h114v-379q0 -76 35 -124l-102 -34q-17 18 -31 61q-59 -61 -152 -61zM118 596v129h126v-129h-126zM313 596v129h126v-129h-126z" />
    <glyph glyph-name="yacute" unicode="&#xfd;" horiz-adv-x="516" 
d="M502 524l-165 -524q-39 -123 -89.5 -171.5t-147.5 -48.5q-45 0 -75 5l4 101q31 -7 60 -7q56 0 83 28.5t46 92.5h-41l-163 524h124l119 -427h4l120 427h121zM439 758l-151 -163h-106l114 163h143z" />
    <glyph glyph-name="thorn" unicode="&#xfe;" horiz-adv-x="552" 
d="M70 -207v942h114v-249q60 49 139 49q78 0 126 -42.5t48 -122.5v-204q0 -78 -52 -128t-140 -50q-70 0 -121 34v-229h-114zM184 396v-275q12 -14 40.5 -25.5t60.5 -11.5q45 0 71.5 25t26.5 69v181q0 39 -23.5 59.5t-64.5 20.5q-59 0 -111 -43z" />
    <glyph glyph-name="ydieresis" unicode="&#xff;" horiz-adv-x="516" 
d="M502 524l-165 -524q-39 -123 -89.5 -171.5t-147.5 -48.5q-45 0 -75 5l4 101q31 -7 60 -7q56 0 83 28.5t46 92.5h-41l-163 524h124l119 -427h4l120 427h121zM98 596v129h126v-129h-126zM293 596v129h126v-129h-126z" />
    <glyph glyph-name="Amacron" unicode="&#x100;" horiz-adv-x="561" 
d="M421 0l-44 183h-201l-42 -183h-116l173 700h175l179 -700h-124zM273 605l-75 -321h155l-75 321h-5zM436 781h-311v86h311v-86z" />
    <glyph glyph-name="amacron" unicode="&#x101;" horiz-adv-x="518" 
d="M336 221h-100q-38 0 -60 -19t-22 -52q0 -31 20 -52t62 -21q60 0 100 40v104zM208 -13q-78 0 -123 43.5t-45 115.5q0 76 51 117t142 41h103v48q0 86 -93 86q-78 0 -166 -51l-13 102q30 19 82.5 33.5t110.5 14.5q92 0 143 -41.5t51 -121.5v-235q0 -71 34 -117l-106 -34
q-16 21 -25 55q-56 -56 -146 -56zM414 605h-311v86h311v-86z" />
    <glyph glyph-name="Abreve" unicode="&#x102;" horiz-adv-x="561" 
d="M421 0l-44 183h-201l-42 -183h-116l173 700h175l179 -700h-124zM273 605l-75 -321h155l-75 321h-5zM283 768q-73 0 -115 49t-37 137h93q-3 -101 59 -101q63 0 58 101h94q6 -83 -34.5 -134.5t-117.5 -51.5z" />
    <glyph glyph-name="abreve" unicode="&#x103;" horiz-adv-x="518" 
d="M336 221h-100q-38 0 -60 -19t-22 -52q0 -31 20 -52t62 -21q60 0 100 40v104zM208 -13q-78 0 -123 43.5t-45 115.5q0 76 51 117t142 41h103v48q0 86 -93 86q-78 0 -166 -51l-13 102q30 19 82.5 33.5t110.5 14.5q92 0 143 -41.5t51 -121.5v-235q0 -71 34 -117l-106 -34
q-16 21 -25 55q-56 -56 -146 -56zM261 592q-73 0 -115 49t-37 137h93q-3 -101 59 -101q63 0 58 101h94q6 -83 -34.5 -134.5t-117.5 -51.5z" />
    <glyph glyph-name="Aogonek" unicode="&#x104;" horiz-adv-x="561" 
d="M545 0h-44q-65 -59 -65 -114q0 -52 59 -52q40 0 92 17l-23 -75q-40 -15 -88 -15q-59 0 -96 28t-37 80q0 76 76 138l-42 176h-201l-42 -183h-116l173 700h175zM273 605l-75 -321h155l-75 321h-5z" />
    <glyph glyph-name="aogonek" unicode="&#x105;" horiz-adv-x="519" 
d="M207 -13q-79 0 -123.5 44.5t-44.5 115.5q0 76 51.5 116.5t142.5 40.5h103v48q0 42 -21.5 64t-71.5 22q-77 0 -166 -51l-13 102q29 19 82 33.5t111 14.5q92 0 143 -41.5t51 -121.5v-234q0 -70 35 -117q-92 -74 -92 -137q0 -52 58 -52q40 0 92 17l-22 -75q-40 -15 -89 -15
q-59 0 -96 28t-37 80q0 70 69 133q-7 13 -15 41q-56 -56 -147 -56zM336 221h-99q-38 0 -60.5 -18.5t-22.5 -51.5q0 -31 20 -52.5t62 -21.5q54 0 100 40v104z" />
    <glyph glyph-name="Cacute" unicode="&#x106;" horiz-adv-x="532" 
d="M461 162l49 -92q-81 -83 -217 -83q-108 0 -169 55.5t-61 151.5v314q0 89 63 147t167 58q127 0 205 -82l-59 -83q-64 66 -145 66q-51 0 -81.5 -29.5t-30.5 -85.5v-296q0 -57 32 -86.5t87 -29.5q94 0 160 75zM394 934l-151 -163h-106l114 163h143z" />
    <glyph glyph-name="cacute" unicode="&#x107;" horiz-adv-x="479" 
d="M169 336v-154q0 -98 107 -98q68 0 151 51l23 -98q-72 -50 -190 -50q-95 0 -150.5 46t-55.5 131v165q0 97 52.5 152.5t159.5 55.5q98 0 172 -47l-33 -94q-68 42 -134 42q-102 0 -102 -102zM368 758l-151 -163h-106l114 163h143z" />
    <glyph glyph-name="Ccircumflex" unicode="&#x108;" horiz-adv-x="532" 
d="M461 162l49 -92q-81 -83 -217 -83q-108 0 -169 55.5t-61 151.5v314q0 89 63 147t167 58q127 0 205 -82l-59 -83q-64 66 -145 66q-51 0 -81.5 -29.5t-30.5 -85.5v-296q0 -57 32 -86.5t87 -29.5q94 0 160 75zM337 771l-69 103l-69 -103h-112l129 183h103l129 -183h-111z
" />
    <glyph glyph-name="ccircumflex" unicode="&#x109;" horiz-adv-x="479" 
d="M169 336v-154q0 -98 107 -98q68 0 151 51l23 -98q-72 -50 -190 -50q-95 0 -150.5 46t-55.5 131v165q0 97 52.5 152.5t159.5 55.5q98 0 172 -47l-33 -94q-68 42 -134 42q-102 0 -102 -102zM311 595l-69 103l-69 -103h-112l129 183h103l129 -183h-111z" />
    <glyph glyph-name="Cdotaccent" unicode="&#x10a;" horiz-adv-x="532" 
d="M461 162l49 -92q-81 -83 -217 -83q-108 0 -169 55.5t-61 151.5v314q0 89 63 147t167 58q127 0 205 -82l-59 -83q-64 66 -145 66q-51 0 -81.5 -29.5t-30.5 -85.5v-296q0 -57 32 -86.5t87 -29.5q94 0 160 75zM200 777v144h138v-144h-138z" />
    <glyph glyph-name="cdotaccent" unicode="&#x10b;" horiz-adv-x="479" 
d="M169 336v-154q0 -98 107 -98q68 0 151 51l23 -98q-72 -50 -190 -50q-95 0 -150.5 46t-55.5 131v165q0 97 52.5 152.5t159.5 55.5q98 0 172 -47l-33 -94q-68 42 -134 42q-102 0 -102 -102zM174 601v144h138v-144h-138z" />
    <glyph glyph-name="Ccaron" unicode="&#x10c;" horiz-adv-x="532" 
d="M461 162l49 -92q-81 -83 -217 -83q-108 0 -169 55.5t-61 151.5v314q0 89 63 147t167 58q127 0 205 -82l-59 -83q-64 66 -145 66q-51 0 -81.5 -29.5t-30.5 -85.5v-296q0 -57 32 -86.5t87 -29.5q94 0 160 75zM199 954l69 -103l69 103h111l-129 -183h-103l-129 183h112z" />
    <glyph glyph-name="ccaron" unicode="&#x10d;" horiz-adv-x="479" 
d="M169 336v-154q0 -98 107 -98q68 0 151 51l23 -98q-72 -50 -190 -50q-95 0 -150.5 46t-55.5 131v165q0 97 52.5 152.5t159.5 55.5q98 0 172 -47l-33 -94q-68 42 -134 42q-102 0 -102 -102zM173 778l69 -103l69 103h111l-129 -183h-103l-129 183h112z" />
    <glyph glyph-name="Dcaron" unicode="&#x10e;" horiz-adv-x="602" 
d="M78 700h242q100 0 159 -57t59 -138v-311q0 -80 -59 -137t-159 -57h-242v700zM302 601h-105v-502h105q54 0 86 27.5t32 84.5v278q0 112 -118 112zM234 954l69 -103l69 103h111l-129 -183h-103l-129 183h112z" />
    <glyph glyph-name="dcaron" unicode="&#x10f;" horiz-adv-x="817" 
d="M370 495v240h114v-735h-110v37q-55 -50 -142 -50q-86 0 -131.5 49t-45.5 129v200q0 81 51 126.5t132 45.5q82 0 132 -42zM170 358v-181q0 -94 97 -94q26 0 51.5 9t36 16t15.5 12v285q-45 35 -104 35q-44 0 -70 -21.5t-26 -60.5zM615 551v149h142v-138q0 -74 -31.5 -117
t-108.5 -61l-28 57q42 14 62.5 34.5t20.5 60.5v15h-57z" />
    <glyph glyph-name="Dcroat" unicode="&#x110;" horiz-adv-x="607" 
d="M83 700h242q99 0 158.5 -57.5t59.5 -137.5v-311q0 -80 -59.5 -137t-158.5 -57h-242v310h-69v92h69v298zM307 601h-106v-199h129v-92h-129v-212h106q54 0 86 27.5t32 84.5v279q0 112 -118 112z" />
    <glyph glyph-name="dcroat" unicode="&#x111;" horiz-adv-x="555" 
d="M260 673h110v62h114v-62h49v-78h-49v-595h-110v37q-55 -50 -142 -50q-86 0 -131.5 49t-45.5 129v200q0 81 51 126.5t132 45.5q82 0 132 -42v100h-110v78zM170 358v-181q0 -94 97 -94q26 0 51.5 9t36 16t15.5 12v285q-45 35 -104 35q-44 0 -70 -21.5t-26 -60.5z" />
    <glyph glyph-name="Emacron" unicode="&#x112;" horiz-adv-x="545" 
d="M491 99v-99h-413v700h420l-15 -99h-286v-192h270v-100h-270v-210h294zM428 781h-311v86h311v-86z" />
    <glyph glyph-name="emacron" unicode="&#x113;" horiz-adv-x="505" 
d="M345 316v33q0 93 -86 93q-91 0 -91 -94v-32h177zM168 233v-55q0 -48 30 -71t79 -23q66 0 149 51l23 -99q-71 -49 -186 -49q-96 0 -152.5 46t-56.5 131v186q0 81 54.5 134t151.5 53q93 0 144 -50.5t51 -136.5v-117h-287zM408 605h-311v86h311v-86z" />
    <glyph glyph-name="Ebreve" unicode="&#x114;" horiz-adv-x="545" 
d="M491 99v-99h-413v700h420l-15 -99h-286v-192h270v-100h-270v-210h294zM275 768q-73 0 -115 49t-37 137h93q-3 -101 59 -101q63 0 58 101h94q6 -83 -34.5 -134.5t-117.5 -51.5z" />
    <glyph glyph-name="ebreve" unicode="&#x115;" horiz-adv-x="505" 
d="M345 316v33q0 93 -86 93q-91 0 -91 -94v-32h177zM168 233v-55q0 -48 30 -71t79 -23q66 0 149 51l23 -99q-71 -49 -186 -49q-96 0 -152.5 46t-56.5 131v186q0 81 54.5 134t151.5 53q93 0 144 -50.5t51 -136.5v-117h-287zM255 592q-73 0 -115 49t-37 137h93
q-3 -101 59 -101q63 0 58 101h94q6 -83 -34.5 -134.5t-117.5 -51.5z" />
    <glyph glyph-name="Edotaccent" unicode="&#x116;" horiz-adv-x="545" 
d="M491 99v-99h-413v700h420l-15 -99h-286v-192h270v-100h-270v-210h294zM207 777v144h138v-144h-138z" />
    <glyph glyph-name="edotaccent" unicode="&#x117;" horiz-adv-x="505" 
d="M345 316v33q0 93 -86 93q-91 0 -91 -94v-32h177zM168 233v-55q0 -48 30 -71t79 -23q66 0 149 51l23 -99q-71 -49 -186 -49q-96 0 -152.5 46t-56.5 131v186q0 81 54.5 134t151.5 53q93 0 144 -50.5t51 -136.5v-117h-287zM187 601v144h138v-144h-138z" />
    <glyph glyph-name="Eogonek" unicode="&#x118;" horiz-adv-x="545" 
d="M412 0q-65 -59 -65 -114q0 -52 59 -52q40 0 92 17l-23 -75q-40 -15 -88 -15q-59 0 -96 28t-37 80q0 73 66 131h-242v700h420l-15 -99h-287v-191h270v-101h-270v-210h295v-99h-79z" />
    <glyph glyph-name="eogonek" unicode="&#x119;" horiz-adv-x="506" 
d="M169 233v-54q0 -49 29.5 -72t77.5 -23q65 0 151 51l22 -96q-45 -30 -101 -41q-62 -60 -62 -112t59 -52q40 0 92 17l-23 -75q-40 -15 -88 -15q-59 0 -96 28t-37 80q0 62 53 119q-88 3 -140 49t-52 128v194q0 78 55 128t149 50q93 0 146 -51t53 -136v-117h-288zM345 317v30
q0 95 -87 95q-89 0 -89 -93v-32h176z" />
    <glyph glyph-name="Ecaron" unicode="&#x11a;" horiz-adv-x="545" 
d="M491 99v-99h-413v700h420l-15 -99h-286v-192h270v-100h-270v-210h294zM206 954l69 -103l69 103h111l-129 -183h-103l-129 183h112z" />
    <glyph glyph-name="ecaron" unicode="&#x11b;" horiz-adv-x="505" 
d="M345 316v33q0 93 -86 93q-91 0 -91 -94v-32h177zM168 233v-55q0 -48 30 -71t79 -23q66 0 149 51l23 -99q-71 -49 -186 -49q-96 0 -152.5 46t-56.5 131v186q0 81 54.5 134t151.5 53q93 0 144 -50.5t51 -136.5v-117h-287zM186 778l69 -103l69 103h111l-129 -183h-103
l-129 183h112z" />
    <glyph glyph-name="Gcircumflex" unicode="&#x11c;" horiz-adv-x="575" 
d="M182 203v294q0 56 35 86t90 30q80 0 146 -66l59 85q-75 81 -210 81q-108 0 -173.5 -58t-65.5 -148v-313q0 -91 50.5 -149t154.5 -58q99 0 154 53l21 -41h71v377h-231v-94h119v-170q-47 -28 -108 -28q-112 0 -112 119zM359 771l-69 103l-69 -103h-112l129 183h103
l129 -183h-111z" />
    <glyph glyph-name="gcircumflex" unicode="&#x11d;" horiz-adv-x="516" 
d="M478 -58q0 -82 -60.5 -122.5t-170.5 -40.5q-132 0 -217 49l34 94q83 -51 191 -51q115 0 115 69q0 26 -22.5 36.5t-93.5 10.5l-166 -4l-35 63l57 144q-63 38 -63 130v42q0 79 51.5 127t144.5 48h9q27 0 49.5 -3.5t31.5 -6.5l9 -3l166 5v-95h-89q37 -34 37 -102
q0 -89 -49.5 -138t-147.5 -49h-11q-35 0 -65 8l-26 -73q21 3 78 3h29q27 0 48 -1.5t47.5 -5.5t46 -14t37 -24.5t26.5 -39t9 -56.5zM254 450h-5q-50 0 -72 -25.5t-22 -65.5v-36q0 -40 22.5 -65.5t71.5 -25.5h5q48 0 70.5 26t22.5 65v36q0 40 -22.5 65.5t-70.5 25.5zM329 595
l-69 103l-69 -103h-112l129 183h103l129 -183h-111z" />
    <glyph glyph-name="Gbreve" unicode="&#x11e;" horiz-adv-x="575" 
d="M182 203v294q0 56 35 86t90 30q80 0 146 -66l59 85q-75 81 -210 81q-108 0 -173.5 -58t-65.5 -148v-313q0 -91 50.5 -149t154.5 -58q99 0 154 53l21 -41h71v377h-231v-94h119v-170q-47 -28 -108 -28q-112 0 -112 119zM290 768q-73 0 -115 49t-37 137h93q-3 -101 59 -101
q63 0 58 101h94q6 -83 -34.5 -134.5t-117.5 -51.5z" />
    <glyph glyph-name="gbreve" unicode="&#x11f;" horiz-adv-x="516" 
d="M478 -58q0 -82 -60.5 -122.5t-170.5 -40.5q-132 0 -217 49l34 94q83 -51 191 -51q115 0 115 69q0 26 -22.5 36.5t-93.5 10.5l-166 -4l-35 63l57 144q-63 38 -63 130v42q0 79 51.5 127t144.5 48h9q27 0 49.5 -3.5t31.5 -6.5l9 -3l166 5v-95h-89q37 -34 37 -102
q0 -89 -49.5 -138t-147.5 -49h-11q-35 0 -65 8l-26 -73q21 3 78 3h29q27 0 48 -1.5t47.5 -5.5t46 -14t37 -24.5t26.5 -39t9 -56.5zM254 450h-5q-50 0 -72 -25.5t-22 -65.5v-36q0 -40 22.5 -65.5t71.5 -25.5h5q48 0 70.5 26t22.5 65v36q0 40 -22.5 65.5t-70.5 25.5zM260 592
q-73 0 -115 49t-37 137h93q-3 -101 59 -101q63 0 58 101h94q6 -83 -34.5 -134.5t-117.5 -51.5z" />
    <glyph glyph-name="Gdotaccent" unicode="&#x120;" horiz-adv-x="575" 
d="M182 203v294q0 56 35 86t90 30q80 0 146 -66l59 85q-75 81 -210 81q-108 0 -173.5 -58t-65.5 -148v-313q0 -91 50.5 -149t154.5 -58q99 0 154 53l21 -41h71v377h-231v-94h119v-170q-47 -28 -108 -28q-112 0 -112 119zM222 777v144h138v-144h-138z" />
    <glyph glyph-name="gdotaccent" unicode="&#x121;" horiz-adv-x="516" 
d="M478 -58q0 -82 -60.5 -122.5t-170.5 -40.5q-132 0 -217 49l34 94q83 -51 191 -51q115 0 115 69q0 26 -22.5 36.5t-93.5 10.5l-166 -4l-35 63l57 144q-63 38 -63 130v42q0 79 51.5 127t144.5 48h9q27 0 49.5 -3.5t31.5 -6.5l9 -3l166 5v-95h-89q37 -34 37 -102
q0 -89 -49.5 -138t-147.5 -49h-11q-35 0 -65 8l-26 -73q21 3 78 3h29q27 0 48 -1.5t47.5 -5.5t46 -14t37 -24.5t26.5 -39t9 -56.5zM254 450h-5q-50 0 -72 -25.5t-22 -65.5v-36q0 -40 22.5 -65.5t71.5 -25.5h5q48 0 70.5 26t22.5 65v36q0 40 -22.5 65.5t-70.5 25.5zM192 601
v144h138v-144h-138z" />
    <glyph glyph-name="Gcommaaccent" unicode="&#x122;" horiz-adv-x="575" 
d="M182 497v-294q0 -119 112 -119q61 0 108 28v170h-119v94h231v-377h-71l-21 41q-55 -53 -154 -53q-104 0 -154.5 58t-50.5 149v313q0 90 65.5 148t173.5 58q135 0 210 -81l-59 -85q-66 66 -146 66q-55 0 -90 -30t-35 -86zM230 -221v148h142v-138q0 -73 -32 -115.5
t-109 -61.5q-18 38 -28 57q46 14 64.5 37t18.5 73h-56z" />
    <glyph glyph-name="gcommaaccent" unicode="&#x123;" horiz-adv-x="516" 
d="M478 -58q0 -82 -60.5 -122.5t-170.5 -40.5q-132 0 -217 49l34 94q83 -51 191 -51q115 0 115 69q0 26 -22.5 36.5t-93.5 10.5l-166 -4l-35 63l57 144q-63 38 -63 130v42q0 79 51.5 127t144.5 48h9q27 0 49.5 -3.5t31.5 -6.5l9 -3l166 5v-95h-89q37 -34 37 -102
q0 -89 -49.5 -138t-147.5 -49h-11q-35 0 -65 8l-26 -73q21 3 78 3h29q27 0 48 -1.5t47.5 -5.5t46 -14t37 -24.5t26.5 -39t9 -56.5zM254 450h-5q-50 0 -72 -25.5t-22 -65.5v-36q0 -40 22.5 -65.5t71.5 -25.5h5q48 0 70.5 26t22.5 65v36q0 40 -22.5 65.5t-70.5 25.5zM318 749
v-149h-142v138q0 73 32 116t109 62q18 -38 28 -57q-46 -14 -65 -37t-19 -73h57z" />
    <glyph glyph-name="Hcircumflex" unicode="&#x124;" horiz-adv-x="628" 
d="M197 700v-291h234v291h119v-700h-119v309h-234v-309h-119v700h119zM385 771l-69 103l-69 -103h-112l129 183h103l129 -183h-111z" />
    <glyph glyph-name="hcircumflex" unicode="&#x125;" horiz-adv-x="561" 
d="M380 0v358q0 39 -22 59.5t-61 20.5q-57 0 -113 -47v-391h-114v735h114v-251q60 53 147 53q75 0 119 -43t44 -124v-370h-114zM352 787l-69 103l-69 -103h-112l129 183h103l129 -183h-111z" />
    <glyph glyph-name="Hbar" unicode="&#x126;" horiz-adv-x="627" 
d="M197 700v-100h233v100h119v-100h63v-91h-63v-509h-119v309h-233v-309h-119v509h-58v91h58v100h119zM197 410h233v99h-233v-99z" />
    <glyph glyph-name="hbar" unicode="&#x127;" horiz-adv-x="562" 
d="M295 595h-110v-111q58 53 144 53q78 0 122 -42.5t44 -124.5v-370h-115v360q0 39 -22 59.5t-62 20.5q-58 0 -111 -47v-393h-115v595h-49v78h49v62h115v-62h110v-78z" />
    <glyph glyph-name="Itilde" unicode="&#x128;" horiz-adv-x="275" 
d="M197 700v-700h-119v700h119zM65 816q-29 0 -38 -46l-71 32q3 42 30.5 73.5t71.5 31.5q31 0 82 -22.5t68 -22.5q18 0 26.5 12.5t13.5 37.5l72 -34q-5 -42 -31.5 -74.5t-70.5 -32.5q-29 0 -82.5 22.5t-70.5 22.5z" />
    <glyph glyph-name="itilde" unicode="&#x129;" horiz-adv-x="255" 
d="M184 0h-114v524h114v-524zM55 640q-29 0 -38 -46l-71 32q3 42 30.5 73.5t71.5 31.5q31 0 82 -22.5t68 -22.5q18 0 26.5 12.5t13.5 37.5l72 -34q-5 -42 -31.5 -74.5t-70.5 -32.5q-29 0 -82.5 22.5t-70.5 22.5z" />
    <glyph glyph-name="Imacron" unicode="&#x12a;" horiz-adv-x="275" 
d="M197 700v-700h-119v700h119zM293 781h-311v86h311v-86z" />
    <glyph glyph-name="imacron" unicode="&#x12b;" horiz-adv-x="255" 
d="M184 0h-114v524h114v-524zM283 605h-311v86h311v-86z" />
    <glyph glyph-name="Ibreve" unicode="&#x12c;" horiz-adv-x="275" 
d="M197 700v-700h-119v700h119zM140 768q-73 0 -115 49t-37 137h93q-3 -101 59 -101q63 0 58 101h94q6 -83 -34.5 -134.5t-117.5 -51.5z" />
    <glyph glyph-name="ibreve" unicode="&#x12d;" horiz-adv-x="255" 
d="M184 0h-114v524h114v-524zM130 592q-73 0 -115 49t-37 137h93q-3 -101 59 -101q63 0 58 101h94q6 -83 -34.5 -134.5t-117.5 -51.5z" />
    <glyph glyph-name="Iogonek" unicode="&#x12e;" horiz-adv-x="275" 
d="M197 700v-700h-29q-65 -57 -65 -114q0 -52 58 -52q40 0 92 17l-22 -75q-40 -15 -89 -15q-59 0 -96 28t-37 80q0 73 69 132v699h119z" />
    <glyph glyph-name="iogonek" unicode="&#x12f;" horiz-adv-x="256" 
d="M185 0h-23q-65 -57 -65 -114q0 -52 59 -52q40 0 92 17l-23 -75q-40 -15 -88 -15q-59 0 -96 28t-37 80q0 73 66 131v524h115v-524zM64 606v129h127v-129h-127z" />
    <glyph glyph-name="Idotaccent" unicode="&#x130;" horiz-adv-x="275" 
d="M197 700v-700h-119v700h119zM72 777v144h138v-144h-138z" />
    <glyph glyph-name="dotlessi" unicode="&#x131;" horiz-adv-x="253" 
d="M184 0h-114v524h114v-524z" />
    <glyph glyph-name="IJ" unicode="&#x132;" horiz-adv-x="734" 
d="M197 700v-700h-119v700h119zM659 701v-496q0 -106 -55.5 -161t-163.5 -55q-96 0 -162 44l37 102q59 -42 123 -42q51 0 76.5 25t25.5 87v496h119z" />
    <glyph glyph-name="ij" unicode="&#x133;" horiz-adv-x="509" 
d="M185 0h-115v524h115v-524zM65 606v129h126v-129h-126zM439 524v-519q0 -43 -7 -76.5t-26 -66t-56.5 -53.5t-93.5 -29l-33 95q59 9 80.5 36t21.5 78v535h114zM320 606v129h125v-129h-125z" />
    <glyph glyph-name="Jcircumflex" unicode="&#x134;" horiz-adv-x="459" 
d="M385 701v-498q0 -105 -56 -161t-160 -56q-88 0 -167 51l39 97q58 -47 123 -47q102 0 102 116v498h119zM301 771l-69 103l-69 -103h-112l129 183h103l129 -183h-111z" />
    <glyph glyph-name="jcircumflex" unicode="&#x135;" horiz-adv-x="254" 
d="M184 524v-519q0 -43 -7 -76.5t-26 -66t-56.5 -53.5t-93.5 -29l-33 95q59 9 80.5 36t21.5 78v535h114zM199 595l-69 103l-69 -103h-112l129 183h103l129 -183h-111z" />
    <glyph glyph-name="Kcommaaccent" unicode="&#x136;" horiz-adv-x="577" 
d="M195 700v-336l240 336h133l-234 -313l237 -387h-141l-172 302l-63 -85v-217h-117v700h117zM231 -221v148h142v-138q0 -73 -32 -115.5t-109 -61.5q-18 38 -28 57q46 14 64.5 37t18.5 73h-56z" />
    <glyph glyph-name="kcommaaccent" unicode="&#x137;" horiz-adv-x="536" 
d="M388 524h137l-192 -209l194 -315h-136l-138 237l-69 -75v-162h-114v735h114v-440zM210 -221v148h142v-138q0 -73 -32 -115.5t-109 -61.5q-18 38 -28 57q46 14 64.5 37t18.5 73h-56z" />
    <glyph glyph-name="kgreenlandic" unicode="&#x138;" horiz-adv-x="566" 
d="M414 524h140l-209 -218l214 -306h-141l-157 233l-77 -81v-152h-114v524h114v-239z" />
    <glyph glyph-name="Lacute" unicode="&#x139;" horiz-adv-x="496" 
d="M196 700v-594h285v-106h-403v700h118zM376 934l-151 -163h-106l114 163h143z" />
    <glyph glyph-name="lacute" unicode="&#x13a;" horiz-adv-x="292" 
d="M278 100l17 -93q-42 -16 -95 -16q-60 0 -96 31.5t-36 102.5v610h114v-587q0 -30 11 -43.5t38 -13.5q22 0 47 9zM275 947l-151 -163h-106l114 163h143z" />
    <glyph glyph-name="Lcommaaccent" unicode="&#x13b;" horiz-adv-x="496" 
d="M196 700v-594h285v-106h-403v700h118zM190 -221v148h142v-138q0 -73 -32 -115.5t-109 -61.5q-18 38 -28 57q46 14 64.5 37t18.5 73h-56z" />
    <glyph glyph-name="lcommaaccent" unicode="&#x13c;" horiz-adv-x="292" 
d="M278 100l17 -93q-42 -16 -95 -16q-60 0 -96 31.5t-36 102.5v610h114v-587q0 -30 11 -43.5t38 -13.5q22 0 47 9zM88 -221v148h142v-138q0 -73 -32 -115.5t-109 -61.5q-18 38 -28 57q46 14 64.5 37t18.5 73h-56z" />
    <glyph glyph-name="Lcaron" unicode="&#x13d;" horiz-adv-x="496" 
d="M196 700v-594h285v-106h-403v700h118zM311 551v149h142v-138q0 -73 -32 -116t-109 -62q-18 38 -28 57q46 14 64.5 37t18.5 73h-56z" />
    <glyph glyph-name="lcaron" unicode="&#x13e;" horiz-adv-x="536" 
d="M278 100l17 -93q-42 -16 -95 -16q-60 0 -96 31.5t-36 102.5v610h115v-587q0 -30 11 -43.5t37 -13.5q22 0 47 9zM343 551v149h142v-138q0 -73 -32 -116t-109 -62q-18 38 -28 57q46 14 64.5 37t18.5 73h-56z" />
    <glyph glyph-name="Ldot" unicode="&#x13f;" horiz-adv-x="496" 
d="M196 700v-594h285v-106h-403v700h118zM303 287v143h136v-143h-136z" />
    <glyph glyph-name="ldot" unicode="&#x140;" horiz-adv-x="505" 
d="M297 287v143h136v-143h-136zM278 100l17 -93q-42 -16 -95 -16q-60 0 -96 31.5t-36 102.5v610h114v-587q0 -30 11 -43.5t38 -13.5q22 0 47 9z" />
    <glyph glyph-name="Lslash" unicode="&#x141;" horiz-adv-x="498" 
d="M201 700v-313l179 61v-85l-179 -59v-205h284v-99h-403v265l-67 -23v84l67 22v352h119z" />
    <glyph glyph-name="lslash" unicode="&#x142;" horiz-adv-x="327" 
d="M17 350l55 18v367h115v-328l102 35v-84l-102 -34v-174q0 -33 12 -45t37 -12q26 0 64 17l18 -93q-52 -25 -112 -25q-58 0 -96 32.5t-38 102.5v158l-55 -18v83z" />
    <glyph glyph-name="Nacute" unicode="&#x143;" horiz-adv-x="630" 
d="M439 196v504h113v-700h-134l-228 519v-519h-112v700h139zM443 934l-151 -163h-106l114 163h143z" />
    <glyph glyph-name="nacute" unicode="&#x144;" horiz-adv-x="561" 
d="M184 0h-114v524h111v-45q58 58 149 58q75 0 119.5 -43.5t44.5 -124.5v-369h-114v358q0 38 -22.5 59t-59.5 21q-58 0 -114 -47v-391zM409 758l-151 -163h-106l114 163h143z" />
    <glyph glyph-name="Ncommaaccent" unicode="&#x145;" horiz-adv-x="630" 
d="M439 196v504h113v-700h-134l-228 519v-519h-112v700h139zM257 -221v148h142v-138q0 -73 -32 -115.5t-109 -61.5q-18 38 -28 57q46 14 64.5 37t18.5 73h-56z" />
    <glyph glyph-name="ncommaaccent" unicode="&#x146;" horiz-adv-x="561" 
d="M184 0h-114v524h111v-45q58 58 149 58q75 0 119.5 -43.5t44.5 -124.5v-369h-114v358q0 38 -22.5 59t-59.5 21q-58 0 -114 -47v-391zM223 -221v148h142v-138q0 -73 -32 -115.5t-109 -61.5q-18 38 -28 57q46 14 64.5 37t18.5 73h-56z" />
    <glyph glyph-name="Ncaron" unicode="&#x147;" horiz-adv-x="630" 
d="M439 196v504h113v-700h-134l-228 519v-519h-112v700h139zM248 954l69 -103l69 103h111l-129 -183h-103l-129 183h112z" />
    <glyph glyph-name="ncaron" unicode="&#x148;" horiz-adv-x="561" 
d="M184 0h-114v524h111v-45q58 58 149 58q75 0 119.5 -43.5t44.5 -124.5v-369h-114v358q0 38 -22.5 59t-59.5 21q-58 0 -114 -47v-391zM214 778l69 -103l69 103h111l-129 -183h-103l-129 183h112z" />
    <glyph glyph-name="napostrophe" unicode="&#x149;" horiz-adv-x="562" 
d="M185 0h-115v524h112v-47q60 60 150 60q75 0 119 -42.5t44 -124.5v-370h-115v360q0 39 -22 59.5t-62 20.5q-58 0 -111 -47v-393zM63 756v148h142v-138q0 -73 -32 -116t-109 -62l-27 57q42 14 62 34.5t20 60.5v16h-56z" />
    <glyph glyph-name="Eng" unicode="&#x14a;" horiz-adv-x="629" 
d="M439 226v474h112v-731q0 -101 -48.5 -147.5t-152.5 -46.5h-31l-16 103q18 -2 28 -2q102 0 102 91v26l-243 516v-509h-112v700h138z" />
    <glyph glyph-name="eng" unicode="&#x14b;" horiz-adv-x="561" 
d="M184 0h-114v524h111v-45q58 58 149 58q75 0 119.5 -43.5t44.5 -124.5v-369q0 -42 -8 -75t-26.5 -64.5t-56 -52t-92.5 -28.5l-33 95q59 9 80.5 36t21.5 78v369q0 38 -22.5 59t-59.5 21q-58 0 -114 -47v-391z" />
    <glyph glyph-name="Omacron" unicode="&#x14c;" horiz-adv-x="600" 
d="M282 713h35q98 0 158.5 -58t60.5 -137v-336q0 -80 -60.5 -137.5t-158.5 -57.5h-35q-97 0 -157.5 57.5t-60.5 137.5v336q0 79 60.5 137t157.5 58zM300 85q118 0 118 115v300q0 115 -118 115t-118 -115v-300q0 -115 118 -115zM455 781h-311v86h311v-86z" />
    <glyph glyph-name="omacron" unicode="&#x14d;" horiz-adv-x="538" 
d="M168 347v-170q0 -44 26.5 -68.5t74.5 -24.5t74.5 24.5t26.5 68.5v170q0 44 -26.5 68.5t-74.5 24.5t-74.5 -24.5t-26.5 -68.5zM54 175v174q0 80 53 134t146 54h32q93 0 146 -54t53 -134v-174q0 -80 -53 -134t-146 -54h-32q-93 0 -146 54t-53 134zM424 605h-311v86h311v-86
z" />
    <glyph glyph-name="Obreve" unicode="&#x14e;" horiz-adv-x="600" 
d="M282 713h35q98 0 158.5 -58t60.5 -137v-336q0 -80 -60.5 -137.5t-158.5 -57.5h-35q-97 0 -157.5 57.5t-60.5 137.5v336q0 79 60.5 137t157.5 58zM300 85q118 0 118 115v300q0 115 -118 115t-118 -115v-300q0 -115 118 -115zM302 768q-73 0 -115 49t-37 137h93
q-3 -101 59 -101q63 0 58 101h94q6 -83 -34.5 -134.5t-117.5 -51.5z" />
    <glyph glyph-name="obreve" unicode="&#x14f;" horiz-adv-x="538" 
d="M168 347v-170q0 -44 26.5 -68.5t74.5 -24.5t74.5 24.5t26.5 68.5v170q0 44 -26.5 68.5t-74.5 24.5t-74.5 -24.5t-26.5 -68.5zM54 175v174q0 80 53 134t146 54h32q93 0 146 -54t53 -134v-174q0 -80 -53 -134t-146 -54h-32q-93 0 -146 54t-53 134zM271 592q-73 0 -115 49
t-37 137h93q-3 -101 59 -101q63 0 58 101h94q6 -83 -34.5 -134.5t-117.5 -51.5z" />
    <glyph glyph-name="Ohungarumlaut" unicode="&#x150;" horiz-adv-x="600" 
d="M282 713h35q98 0 158.5 -58t60.5 -137v-336q0 -80 -60.5 -137.5t-158.5 -57.5h-35q-97 0 -157.5 57.5t-60.5 137.5v336q0 79 60.5 137t157.5 58zM300 85q118 0 118 115v300q0 115 -118 115t-118 -115v-300q0 -115 118 -115zM328 934l-152 -163h-107l115 163h144zM531 934
l-151 -163h-108l115 163h144z" />
    <glyph glyph-name="ohungarumlaut" unicode="&#x151;" horiz-adv-x="538" 
d="M168 347v-170q0 -44 26.5 -68.5t74.5 -24.5t74.5 24.5t26.5 68.5v170q0 44 -26.5 68.5t-74.5 24.5t-74.5 -24.5t-26.5 -68.5zM54 175v174q0 80 53 134t146 54h32q93 0 146 -54t53 -134v-174q0 -80 -53 -134t-146 -54h-32q-93 0 -146 54t-53 134zM297 758l-152 -163h-107
l115 163h144zM500 758l-151 -163h-108l115 163h144z" />
    <glyph glyph-name="OE" unicode="&#x152;" horiz-adv-x="884" 
d="M417 664v36h420q-10 -66 -16 -99h-285v-192h269v-98h-269v-213h295v-98h-414v38q-18 -21 -55.5 -36t-78.5 -15h-17q-96 0 -149 56.5t-53 138.5v336q0 80 58 137.5t154 57.5h19q35 0 70 -14.5t52 -34.5zM417 198v304q0 113 -118 113q-59 0 -88 -33t-29 -106v-276
q0 -115 117 -115q54 0 86 27.5t32 85.5z" />
    <glyph glyph-name="oe" unicode="&#x153;" horiz-adv-x="820" 
d="M254 537h15q108 0 156 -77q47 77 157 77q90 0 139.5 -50.5t49.5 -136.5v-118h-289v-45q0 -103 111 -103q63 0 150 49l20 -95q-73 -50 -180 -50q-124 0 -163 74q-43 -74 -154 -74h-15q-91 0 -144 49t-53 127v195q0 78 54.5 128t145.5 50zM267 84q48 0 74.5 26t26.5 71v163
q0 45 -26.5 70.5t-74.5 25.5q-47 0 -73 -24.5t-26 -68.5v-169q0 -44 26 -69t73 -25zM661 315v31q0 96 -87 96q-45 0 -68.5 -26.5t-23.5 -71.5v-29h179z" />
    <glyph glyph-name="Racute" unicode="&#x154;" horiz-adv-x="577" 
d="M295 601h-98v-228h88q55 0 88.5 26.5t33.5 81.5v19q0 101 -112 101zM278 273h-81v-273h-119v700h233q95 0 154.5 -50.5t59.5 -140.5v-23q0 -72 -36 -121t-100 -65l184 -300h-137zM417 934l-151 -163h-106l114 163h143z" />
    <glyph glyph-name="racute" unicode="&#x155;" horiz-adv-x="387" 
d="M182 524v-65q50 70 143 70q28 0 56 -4l-11 -115q-35 5 -61 5q-79 0 -124 -62v-353h-115v524h112zM322 758l-151 -163h-106l114 163h143z" />
    <glyph glyph-name="Rcommaaccent" unicode="&#x156;" horiz-adv-x="577" 
d="M295 601h-98v-228h88q55 0 88.5 26.5t33.5 81.5v19q0 101 -112 101zM278 273h-81v-273h-119v700h233q95 0 154.5 -50.5t59.5 -140.5v-23q0 -72 -36 -121t-100 -65l184 -300h-137zM231 -221v148h142v-138q0 -73 -32 -115.5t-109 -61.5q-18 38 -28 57q46 14 64.5 37
t18.5 73h-56z" />
    <glyph glyph-name="rcommaaccent" unicode="&#x157;" horiz-adv-x="387" 
d="M182 524v-65q50 70 143 70q28 0 56 -4l-11 -115q-35 5 -61 5q-79 0 -124 -62v-353h-115v524h112zM57 -221v148h142v-138q0 -73 -32 -115.5t-109 -61.5q-18 38 -28 57q46 14 64.5 37t18.5 73h-56z" />
    <glyph glyph-name="Rcaron" unicode="&#x158;" horiz-adv-x="577" 
d="M295 601h-98v-228h88q55 0 88.5 26.5t33.5 81.5v19q0 101 -112 101zM278 273h-81v-273h-119v700h233q95 0 154.5 -50.5t59.5 -140.5v-23q0 -72 -36 -121t-100 -65l184 -300h-137zM222 954l69 -103l69 103h111l-129 -183h-103l-129 183h112z" />
    <glyph glyph-name="rcaron" unicode="&#x159;" horiz-adv-x="387" 
d="M182 524v-65q50 70 143 70q28 0 56 -4l-11 -115q-35 5 -61 5q-79 0 -124 -62v-353h-115v524h112zM127 778l69 -103l69 103h111l-129 -183h-103l-129 183h112z" />
    <glyph glyph-name="Sacute" unicode="&#x15a;" horiz-adv-x="521" 
d="M269 613q-47 0 -72 -21.5t-25 -56.5q0 -37 31.5 -65.5t76.5 -50.5t90 -48.5t76.5 -72.5t31.5 -109q0 -90 -61.5 -146t-174.5 -56q-67 0 -121.5 18.5t-83.5 44.5l42 99q78 -63 166 -63q56 0 85.5 26.5t29.5 66.5q0 29 -17 52.5t-44 40.5t-60 33t-65.5 35.5t-59.5 43
t-44 59.5t-17 81q0 85 57 137t158 52q119 0 200 -67l-49 -91q-69 58 -150 58zM389 934l-151 -163h-106l114 163h143z" />
    <glyph glyph-name="sacute" unicode="&#x15b;" horiz-adv-x="471" 
d="M245 537q104 0 174 -43l-29 -95q-14 13 -56.5 29t-85.5 16q-37 0 -61 -14t-24 -42q0 -39 64 -61l64 -25q69 -23 105 -54.5t36 -95.5q0 -82 -57 -123.5t-148 -41.5q-55 0 -106.5 14.5t-82.5 36.5l28 98q29 -23 73.5 -38.5t87.5 -15.5q44 0 67.5 16.5t23.5 45.5
q0 22 -16.5 35.5t-55.5 27.5l-61 23q-61 20 -97 53t-36 97q0 76 52.5 116.5t140.5 40.5zM364 758l-151 -163h-106l114 163h143z" />
    <glyph glyph-name="Scircumflex" unicode="&#x15c;" horiz-adv-x="521" 
d="M269 613q-47 0 -72 -21.5t-25 -56.5q0 -37 31.5 -65.5t76.5 -50.5t90 -48.5t76.5 -72.5t31.5 -109q0 -90 -61.5 -146t-174.5 -56q-67 0 -121.5 18.5t-83.5 44.5l42 99q78 -63 166 -63q56 0 85.5 26.5t29.5 66.5q0 29 -17 52.5t-44 40.5t-60 33t-65.5 35.5t-59.5 43
t-44 59.5t-17 81q0 85 57 137t158 52q119 0 200 -67l-49 -91q-69 58 -150 58zM332 771l-69 103l-69 -103h-112l129 183h103l129 -183h-111z" />
    <glyph glyph-name="scircumflex" unicode="&#x15d;" horiz-adv-x="471" 
d="M245 537q104 0 174 -43l-29 -95q-14 13 -56.5 29t-85.5 16q-37 0 -61 -14t-24 -42q0 -39 64 -61l64 -25q69 -23 105 -54.5t36 -95.5q0 -82 -57 -123.5t-148 -41.5q-55 0 -106.5 14.5t-82.5 36.5l28 98q29 -23 73.5 -38.5t87.5 -15.5q44 0 67.5 16.5t23.5 45.5
q0 22 -16.5 35.5t-55.5 27.5l-61 23q-61 20 -97 53t-36 97q0 76 52.5 116.5t140.5 40.5zM307 595l-69 103l-69 -103h-112l129 183h103l129 -183h-111z" />
    <glyph glyph-name="Scedilla" unicode="&#x15e;" horiz-adv-x="521" 
d="M269 613q-47 0 -72 -21.5t-25 -56.5q0 -37 31.5 -65.5t76.5 -50.5t90 -48.5t76.5 -72.5t31.5 -109q0 -83 -52 -137.5t-150 -62.5l-5 -18q10 0 23 -2.5t36.5 -10.5t39 -30.5t15.5 -55.5q0 -55 -40.5 -82t-100.5 -27q-28 0 -55 5.5t-41 11.5l-13 6l12 68q49 -25 96 -25
q62 0 62 41q0 14 -7 23t-22 12.5t-28 4.5t-34 1q-5 0 -15 -0.5t-14 -0.5l27 78q-58 4 -104 22t-71 40l42 99q78 -63 166 -63q56 0 85.5 26.5t29.5 66.5q0 29 -17 52.5t-44 40.5t-60 33t-65.5 35.5t-59.5 43t-44 59.5t-17 81q0 85 57 137t158 52q119 0 200 -67l-49 -91
q-69 58 -150 58z" />
    <glyph glyph-name="scedilla" unicode="&#x15f;" horiz-adv-x="471" 
d="M248 537q99 0 169 -45l-29 -93q-13 13 -52.5 27.5t-83.5 14.5q-41 0 -64.5 -14t-23.5 -39q0 -33 49 -53q17 -7 57 -20.5t61.5 -23.5t48 -28.5t39 -46t12.5 -65.5q0 -75 -49.5 -116t-130.5 -47l-5 -17q10 0 23 -2.5t36.5 -10.5t39 -30.5t15.5 -55.5q0 -55 -40.5 -82
t-100.5 -27q-28 0 -55.5 5.5t-40.5 11.5l-13 6l12 68q49 -25 96 -25q62 0 62 41q0 14 -7 23t-22 12.5t-28 4.5t-34 1q-5 0 -15 -0.5t-14 -0.5l28 79q-98 9 -152 49l29 98q30 -24 75 -39.5t88 -15.5q89 0 89 62q0 39 -57 59l-92 32q-116 41 -116 146q0 74 55.5 115.5
t140.5 41.5z" />
    <glyph glyph-name="Scaron" unicode="&#x160;" horiz-adv-x="521" 
d="M269 613q-47 0 -72 -21.5t-25 -56.5q0 -37 31.5 -65.5t76.5 -50.5t90 -48.5t76.5 -72.5t31.5 -109q0 -90 -61.5 -146t-174.5 -56q-67 0 -121.5 18.5t-83.5 44.5l42 99q78 -63 166 -63q56 0 85.5 26.5t29.5 66.5q0 29 -17 52.5t-44 40.5t-60 33t-65.5 35.5t-59.5 43
t-44 59.5t-17 81q0 85 57 137t158 52q119 0 200 -67l-49 -91q-69 58 -150 58zM191 954l69 -103l69 103h111l-129 -183h-103l-129 183h112z" />
    <glyph glyph-name="scaron" unicode="&#x161;" horiz-adv-x="471" 
d="M245 537q104 0 174 -43l-29 -95q-14 13 -56.5 29t-85.5 16q-37 0 -61 -14t-24 -42q0 -39 64 -61l64 -25q69 -23 105 -54.5t36 -95.5q0 -82 -57 -123.5t-148 -41.5q-55 0 -106.5 14.5t-82.5 36.5l28 98q29 -23 73.5 -38.5t87.5 -15.5q44 0 67.5 16.5t23.5 45.5
q0 22 -16.5 35.5t-55.5 27.5l-61 23q-61 20 -97 53t-36 97q0 76 52.5 116.5t140.5 40.5zM180 778l69 -103l69 103h111l-129 -183h-103l-129 183h112z" />
    <glyph glyph-name="Tcommaaccent" unicode="&#x162;" horiz-adv-x="510" 
d="M24 700h463v-101h-172v-599h-119v599h-172v101zM184 -221v148h142v-138q0 -73 -32 -115.5t-109 -61.5q-18 38 -28 57q46 14 64.5 37t18.5 73h-56z" />
    <glyph glyph-name="tcommaaccent" unicode="&#x163;" horiz-adv-x="406" 
d="M376 524l-15 -95h-134v-282q0 -56 49 -56q42 0 84 22l18 -89q-20 -14 -58 -23.5t-73 -9.5q-59 0 -96.5 32t-37.5 103v303h-96l7 95h89v176h114v-176h149zM145 -221v148h142v-138q0 -73 -32 -115.5t-109 -61.5q-18 38 -28 57q46 14 64.5 37t18.5 73h-56z" />
    <glyph glyph-name="Tcaron" unicode="&#x164;" horiz-adv-x="510" 
d="M24 700h463v-101h-172v-599h-119v599h-172v101zM188 954l69 -103l69 103h111l-129 -183h-103l-129 183h112z" />
    <glyph glyph-name="tcaron" unicode="&#x165;" horiz-adv-x="398" 
d="M314 766v149h142v-139q0 -73 -31.5 -116t-108.5 -61l-28 57q42 13 62.5 33.5t20.5 60.5v16h-57zM376 524l-15 -95h-134v-282q0 -56 49 -56q42 0 84 22l18 -89q-20 -14 -58 -23.5t-73 -9.5q-59 0 -96.5 32t-37.5 103v303h-96l7 95h89v176h114v-176h149z" />
    <glyph glyph-name="Tbar" unicode="&#x166;" horiz-adv-x="515" 
d="M22 700h471v-99h-176v-200h113v-90h-113v-311h-119v311h-113v90h113v200h-176v99z" />
    <glyph glyph-name="tbar" unicode="&#x167;" horiz-adv-x="398" 
d="M368 524l-15 -95h-133v-87h145l-7 -96h-138v-98q0 -32 12.5 -44t36.5 -12q43 0 84 22l18 -90q-49 -33 -130 -33q-59 0 -97 32t-38 103v120h-87l7 96h80v87h-87l7 95h80v176h114v-176h148z" />
    <glyph glyph-name="Utilde" unicode="&#x168;" horiz-adv-x="609" 
d="M417 199v501h118v-519q0 -79 -59.5 -136.5t-157.5 -57.5h-26q-100 0 -158.5 55t-58.5 138v520h119v-501q0 -57 31 -83.5t81 -26.5q52 0 81.5 27t29.5 83zM231 816q-29 0 -38 -46l-71 32q3 42 30.5 73.5t71.5 31.5q31 0 82 -22.5t68 -22.5q18 0 26.5 12.5t13.5 37.5
l72 -34q-5 -42 -31.5 -74.5t-70.5 -32.5q-30 0 -83 22.5t-70 22.5z" />
    <glyph glyph-name="utilde" unicode="&#x169;" horiz-adv-x="558" 
d="M233 -13q-79 0 -122.5 42.5t-43.5 124.5v370h115v-357q0 -85 82 -85q55 0 105 42v400h114v-379q0 -76 35 -124l-102 -34q-17 18 -31 61q-59 -61 -152 -61zM206 640q-29 0 -38 -46l-71 32q3 42 30.5 73.5t71.5 31.5q31 0 82 -22.5t68 -22.5q18 0 26.5 12.5t13.5 37.5
l72 -34q-5 -42 -31.5 -74.5t-70.5 -32.5q-29 0 -82 22.5t-71 22.5z" />
    <glyph glyph-name="Umacron" unicode="&#x16a;" horiz-adv-x="609" 
d="M417 199v501h118v-519q0 -79 -59.5 -136.5t-157.5 -57.5h-26q-100 0 -158.5 55t-58.5 138v520h119v-501q0 -57 31 -83.5t81 -26.5q52 0 81.5 27t29.5 83zM460 781h-311v86h311v-86z" />
    <glyph glyph-name="umacron" unicode="&#x16b;" horiz-adv-x="558" 
d="M233 -13q-79 0 -122.5 42.5t-43.5 124.5v370h115v-357q0 -85 82 -85q55 0 105 42v400h114v-379q0 -76 35 -124l-102 -34q-17 18 -31 61q-59 -61 -152 -61zM434 605h-311v86h311v-86z" />
    <glyph glyph-name="Ubreve" unicode="&#x16c;" horiz-adv-x="609" 
d="M417 199v501h118v-519q0 -79 -59.5 -136.5t-157.5 -57.5h-26q-100 0 -158.5 55t-58.5 138v520h119v-501q0 -57 31 -83.5t81 -26.5q52 0 81.5 27t29.5 83zM307 768q-73 0 -115 49t-37 137h93q-3 -101 59 -101q63 0 58 101h94q6 -83 -34.5 -134.5t-117.5 -51.5z" />
    <glyph glyph-name="ubreve" unicode="&#x16d;" horiz-adv-x="558" 
d="M233 -13q-79 0 -122.5 42.5t-43.5 124.5v370h115v-357q0 -85 82 -85q55 0 105 42v400h114v-379q0 -76 35 -124l-102 -34q-17 18 -31 61q-59 -61 -152 -61zM281 592q-73 0 -115 49t-37 137h93q-3 -101 59 -101q63 0 58 101h94q6 -83 -34.5 -134.5t-117.5 -51.5z" />
    <glyph glyph-name="Uring" unicode="&#x16e;" horiz-adv-x="609" 
d="M417 199v501h118v-519q0 -79 -59.5 -136.5t-157.5 -57.5h-26q-100 0 -158.5 55t-58.5 138v520h119v-501q0 -57 31 -83.5t81 -26.5q52 0 81.5 27t29.5 83zM441 902v-9q0 -63 -38 -98.5t-99 -35.5t-99 35.5t-38 98.5v9q0 62 38 97.5t99 35.5t99 -35.5t38 -97.5zM244 904
v-13q0 -28 15 -46.5t45 -18.5t44.5 18.5t14.5 46.5v13q0 27 -14.5 45.5t-44.5 18.5t-45 -18.5t-15 -45.5z" />
    <glyph glyph-name="uring" unicode="&#x16f;" horiz-adv-x="558" 
d="M233 -13q-79 0 -122.5 42.5t-43.5 124.5v370h115v-357q0 -85 82 -85q55 0 105 42v400h114v-379q0 -76 35 -124l-102 -34q-17 18 -31 61q-59 -61 -152 -61zM416 726v-9q0 -63 -38 -98.5t-99 -35.5t-99 35.5t-38 98.5v9q0 62 38 97.5t99 35.5t99 -35.5t38 -97.5zM219 728
v-13q0 -28 15 -46.5t45 -18.5t44.5 18.5t14.5 46.5v13q0 27 -14.5 45.5t-44.5 18.5t-45 -18.5t-15 -45.5z" />
    <glyph glyph-name="Uhungarumlaut" unicode="&#x170;" horiz-adv-x="609" 
d="M417 199v501h118v-519q0 -79 -59.5 -136.5t-157.5 -57.5h-26q-100 0 -158.5 55t-58.5 138v520h119v-501q0 -57 31 -83.5t81 -26.5q52 0 81.5 27t29.5 83zM332 934l-152 -163h-107l115 163h144zM535 934l-151 -163h-108l115 163h144z" />
    <glyph glyph-name="uhungarumlaut" unicode="&#x171;" horiz-adv-x="558" 
d="M233 -13q-79 0 -122.5 42.5t-43.5 124.5v370h115v-357q0 -85 82 -85q55 0 105 42v400h114v-379q0 -76 35 -124l-102 -34q-17 18 -31 61q-59 -61 -152 -61zM307 758l-152 -163h-107l115 163h144zM510 758l-151 -163h-108l115 163h144z" />
    <glyph glyph-name="Uogonek" unicode="&#x172;" horiz-adv-x="609" 
d="M417 199v501h118v-519q0 -71 -48 -125t-129 -66q-53 -55 -53 -106q0 -49 58 -49q44 0 92 16l-22 -74q-39 -16 -89 -16q-61 0 -96.5 28.5t-35.5 80.5q0 65 53 118q-89 8 -139.5 61.5t-50.5 130.5v520h119v-501q0 -57 31 -83.5t81 -26.5q52 0 81.5 27t29.5 83z" />
    <glyph glyph-name="uogonek" unicode="&#x173;" horiz-adv-x="558" 
d="M233 -13q-79 0 -122.5 42.5t-43.5 124.5v370h115v-357q0 -85 82 -85q55 0 105 42v400h114v-379q0 -76 35 -124q-92 -68 -92 -137q0 -49 58 -49q44 0 92 16l-22 -74q-39 -16 -89 -16q-61 0 -96.5 28.5t-35.5 80.5q0 76 71 134q-13 21 -19 44q-59 -61 -152 -61z" />
    <glyph glyph-name="Wcircumflex" unicode="&#x174;" horiz-adv-x="900" 
d="M573 0l-123 551l-119 -551h-162l-147 700h126l106 -596l130 596h132l138 -596l105 596h118l-144 -700h-160zM521 771l-69 103l-69 -103h-112l129 183h103l129 -183h-111z" />
    <glyph glyph-name="wcircumflex" unicode="&#x175;" horiz-adv-x="782" 
d="M22 524h121l81 -411l106 411h123l106 -411l82 411h120l-123 -524h-148l-101 396l-97 -396h-149zM462 595l-69 103l-69 -103h-112l129 183h103l129 -183h-111z" />
    <glyph glyph-name="Ycircumflex" unicode="&#x176;" horiz-adv-x="553" 
d="M541 700l-206 -454v-246h-117v246l-207 454h132l137 -335l136 335h125zM348 771l-69 103l-69 -103h-112l129 183h103l129 -183h-111z" />
    <glyph glyph-name="ycircumflex" unicode="&#x177;" horiz-adv-x="516" 
d="M502 524l-165 -524q-39 -123 -89.5 -171.5t-147.5 -48.5q-45 0 -75 5l4 101q31 -7 60 -7q56 0 83 28.5t46 92.5h-41l-163 524h124l119 -427h4l120 427h121zM329 595l-69 103l-69 -103h-112l129 183h103l129 -183h-111z" />
    <glyph glyph-name="Ydieresis" unicode="&#x178;" horiz-adv-x="553" 
d="M541 700l-206 -454v-246h-117v246l-207 454h132l137 -335l136 335h125zM119 775v129h126v-129h-126zM314 775v129h126v-129h-126z" />
    <glyph glyph-name="Zacute" unicode="&#x179;" horiz-adv-x="534" 
d="M490 98l-11 -98h-438v93l319 508h-313l10 99h432v-93l-318 -509h319zM395 934l-151 -163h-106l114 163h143z" />
    <glyph glyph-name="zacute" unicode="&#x17a;" horiz-adv-x="485" 
d="M442 90l-11 -90h-388v91l272 342h-265v91h387v-95l-269 -339h274zM371 758l-151 -163h-106l114 163h143z" />
    <glyph glyph-name="Zdotaccent" unicode="&#x17b;" horiz-adv-x="534" 
d="M490 98l-11 -98h-438v93l319 508h-313l10 99h432v-93l-318 -509h319zM201 777v144h138v-144h-138z" />
    <glyph glyph-name="zdotaccent" unicode="&#x17c;" horiz-adv-x="485" 
d="M442 90l-11 -90h-388v91l272 342h-265v91h387v-95l-269 -339h274zM177 601v144h138v-144h-138z" />
    <glyph glyph-name="Zcaron" unicode="&#x17d;" horiz-adv-x="534" 
d="M490 98l-11 -98h-438v93l319 508h-313l10 99h432v-93l-318 -509h319zM205 954l69 -103l69 103h111l-129 -183h-103l-129 183h112z" />
    <glyph glyph-name="zcaron" unicode="&#x17e;" horiz-adv-x="485" 
d="M442 90l-11 -90h-388v91l272 342h-265v91h387v-95l-269 -339h274zM182 778l69 -103l69 103h111l-129 -183h-103l-129 183h112z" />
    <glyph glyph-name="longs" unicode="&#x17f;" horiz-adv-x="299" 
d="M232 589v-589h-114v429h-95v95h95v70q0 75 45 119t125 44q30 0 63.5 -5.5t41.5 -8.5l-16 -94q-30 12 -72 12q-38 0 -56.5 -19t-16.5 -53z" />
    <glyph glyph-name="florin" unicode="&#x192;" horiz-adv-x="467" 
d="M452 741l-16 -90q-34 15 -78 15q-71 0 -71 -72v-227h133v-92h-133v-305q0 -189 -168 -189q-61 0 -112 20l17 92q36 -16 79 -16q69 0 69 72v326h-125v92h125v232q0 75 45 119t124 44q66 0 111 -21z" />
    <glyph glyph-name="Scommaaccent" unicode="&#x218;" horiz-adv-x="521" 
d="M269 613q-47 0 -72 -21.5t-25 -56.5q0 -37 31.5 -65.5t76.5 -50.5t90 -48.5t76.5 -72.5t31.5 -109q0 -90 -61.5 -146t-174.5 -56q-67 0 -121.5 18.5t-83.5 44.5l42 99q78 -63 166 -63q56 0 85.5 26.5t29.5 66.5q0 29 -17 52.5t-44 40.5t-60 33t-65.5 35.5t-59.5 43
t-44 59.5t-17 81q0 85 57 137t158 52q119 0 200 -67l-49 -91q-69 58 -150 58zM188 -221v148h142v-138q0 -73 -32 -115.5t-109 -61.5q-18 38 -28 57q46 14 64.5 37t18.5 73h-56z" />
    <glyph glyph-name="scommaaccent" unicode="&#x219;" horiz-adv-x="471" 
d="M245 537q104 0 174 -43l-29 -95q-14 13 -56.5 29t-85.5 16q-37 0 -61 -14t-24 -42q0 -39 64 -61l64 -25q69 -23 105 -54.5t36 -95.5q0 -82 -57 -123.5t-148 -41.5q-55 0 -106.5 14.5t-82.5 36.5l28 98q29 -23 73.5 -38.5t87.5 -15.5q44 0 67.5 16.5t23.5 45.5
q0 22 -16.5 35.5t-55.5 27.5l-61 23q-61 20 -97 53t-36 97q0 76 52.5 116.5t140.5 40.5zM178 -221v148h142v-138q0 -73 -32 -115.5t-109 -61.5q-18 38 -28 57q46 14 64.5 37t18.5 73h-56z" />
    <glyph glyph-name="uni021A" unicode="&#x21a;" horiz-adv-x="510" 
d="M24 700h463v-101h-172v-599h-119v599h-172v101zM184 -221v148h142v-138q0 -73 -32 -115.5t-109 -61.5q-18 38 -28 57q46 14 64.5 37t18.5 73h-56z" />
    <glyph glyph-name="uni021B" unicode="&#x21b;" horiz-adv-x="406" 
d="M376 524l-15 -95h-134v-282q0 -56 49 -56q42 0 84 22l18 -89q-20 -14 -58 -23.5t-73 -9.5q-59 0 -96.5 32t-37.5 103v303h-96l7 95h89v176h114v-176h149zM145 -221v148h142v-138q0 -73 -32 -115.5t-109 -61.5q-18 38 -28 57q46 14 64.5 37t18.5 73h-56z" />
    <glyph glyph-name="dotlessj" unicode="&#x237;" horiz-adv-x="254" 
d="M184 524v-519q0 -43 -7 -76.5t-26 -66t-56.5 -53.5t-93.5 -29l-33 95q59 9 80.5 36t21.5 78v535h114z" />
    <glyph glyph-name="apostrophe" unicode="&#x2bc;" horiz-adv-x="264" 
d="M71 551v149h142v-138q0 -73 -32 -116t-109 -62q-18 38 -28 57q46 14 64.5 37t18.5 73h-56z" />
    <glyph glyph-name="circumflex" unicode="&#x2c6;" horiz-adv-x="514" 
d="M326 595l-69 103l-69 -103h-112l129 183h103l129 -183h-111z" />
    <glyph glyph-name="caron" unicode="&#x2c7;" horiz-adv-x="514" 
d="M188 778l69 -103l69 103h111l-129 -183h-103l-129 183h112z" />
    <glyph glyph-name="uni02C9" unicode="&#x2c9;" horiz-adv-x="457" 
d="M384 605h-311v86h311v-86z" />
    <glyph glyph-name="breve" unicode="&#x2d8;" horiz-adv-x="454" 
d="M227 592q-73 0 -115 49t-37 137h93q-3 -101 59 -101q63 0 58 101h94q6 -83 -34.5 -134.5t-117.5 -51.5z" />
    <glyph glyph-name="dotaccent" unicode="&#x2d9;" horiz-adv-x="306" 
d="M85 601v144h138v-144h-138z" />
    <glyph glyph-name="ring" unicode="&#x2da;" horiz-adv-x="426" 
d="M350 726v-9q0 -63 -38 -98.5t-99 -35.5t-99 35.5t-38 98.5v9q0 62 38 97.5t99 35.5t99 -35.5t38 -97.5zM153 728v-13q0 -28 15 -46.5t45 -18.5t44.5 18.5t14.5 46.5v13q0 27 -14.5 45.5t-44.5 18.5t-45 -18.5t-15 -45.5z" />
    <glyph glyph-name="ogonek" unicode="&#x2db;" horiz-adv-x="392" 
d="M265 28l-2 -14q-33 -25 -57 -60t-24 -70q0 -49 58 -49q44 0 92 16l-22 -74q-39 -16 -89 -16q-61 0 -96.5 28.5t-35.5 80.5q0 44 27.5 84.5t56 60.5t53.5 30q6 -3 19 -8.5t20 -8.5z" />
    <glyph glyph-name="tilde" unicode="&#x2dc;" horiz-adv-x="510" 
d="M182 640q-29 0 -38 -46l-71 32q3 42 30.5 73.5t71.5 31.5q31 0 82 -22.5t68 -22.5q18 0 26.5 12.5t13.5 37.5l72 -34q-5 -42 -31.5 -74.5t-70.5 -32.5q-29 0 -82 22.5t-71 22.5z" />
    <glyph glyph-name="hungarumlaut" unicode="&#x2dd;" horiz-adv-x="601" 
d="M328 758l-152 -163h-107l115 163h144zM531 758l-151 -163h-108l115 163h144z" />
    <glyph glyph-name="Omega" unicode="&#x3a9;" horiz-adv-x="679" 
d="M262 707h154q98 0 159.5 -56.5t61.5 -135.5v-141q0 -73 -37.5 -125t-116.5 -60v-90h126v-99h-231v273h33q56 0 81.5 26.5t25.5 85.5v106q0 58 -31 88t-89 30h-117q-120 0 -120 -118v-106q0 -59 25.5 -85.5t81.5 -26.5h32v-273h-230v99h125v90q-79 8 -116 60t-37 125v141
q0 79 61.5 135.5t158.5 56.5z" />
    <glyph glyph-name="Omega" unicode="&#x2126;" horiz-adv-x="679" 
d="M262 707h154q98 0 159.5 -56.5t61.5 -135.5v-141q0 -73 -37.5 -125t-116.5 -60v-90h126v-99h-231v273h33q56 0 81.5 26.5t25.5 85.5v106q0 58 -31 88t-89 30h-117q-120 0 -120 -118v-106q0 -59 25.5 -85.5t81.5 -26.5h32v-273h-230v99h125v90q-79 8 -116 60t-37 125v141
q0 79 61.5 135.5t158.5 56.5z" />
    <glyph glyph-name="pi" unicode="&#x3c0;" horiz-adv-x="725" 
d="M534 433v-288q0 -55 51 -55q50 0 95 28l20 -93q-19 -15 -58.5 -24t-76.5 -9q-66 0 -105.5 34t-39.5 106v301h-153l-85 -433h-119q6 30 90 433h-120v91h619v-91h-118z" />
    <glyph glyph-name="Wgrave" unicode="&#x1e80;" horiz-adv-x="900" 
d="M573 0l-123 551l-119 -551h-162l-147 700h126l106 -596l130 596h132l138 -596l105 596h118l-144 -700h-160zM472 771l-151 163h143l114 -163h-106z" />
    <glyph glyph-name="wgrave" unicode="&#x1e81;" horiz-adv-x="782" 
d="M22 524h121l81 -411l106 411h123l106 -411l82 411h120l-123 -524h-148l-101 396l-97 -396h-149zM413 595l-151 163h143l114 -163h-106z" />
    <glyph glyph-name="Wacute" unicode="&#x1e82;" horiz-adv-x="900" 
d="M573 0l-123 551l-119 -551h-162l-147 700h126l106 -596l130 596h132l138 -596l105 596h118l-144 -700h-160zM578 934l-151 -163h-106l114 163h143z" />
    <glyph glyph-name="wacute" unicode="&#x1e83;" horiz-adv-x="782" 
d="M22 524h121l81 -411l106 411h123l106 -411l82 411h120l-123 -524h-148l-101 396l-97 -396h-149zM519 758l-151 -163h-106l114 163h143z" />
    <glyph glyph-name="Wdieresis" unicode="&#x1e84;" horiz-adv-x="900" 
d="M573 0l-123 551l-119 -551h-162l-147 700h126l106 -596l130 596h132l138 -596l105 596h118l-144 -700h-160zM289 772v129h126v-129h-126zM484 772v129h126v-129h-126z" />
    <glyph glyph-name="wdieresis" unicode="&#x1e85;" horiz-adv-x="782" 
d="M22 524h121l81 -411l106 411h123l106 -411l82 411h120l-123 -524h-148l-101 396l-97 -396h-149zM230 596v129h126v-129h-126zM425 596v129h126v-129h-126z" />
    <glyph glyph-name="Ygrave" unicode="&#x1ef2;" horiz-adv-x="553" 
d="M541 700l-206 -454v-246h-117v246l-207 454h132l137 -335l136 335h125zM299 771l-151 163h143l114 -163h-106z" />
    <glyph glyph-name="ygrave" unicode="&#x1ef3;" horiz-adv-x="516" 
d="M502 524l-165 -524q-39 -123 -89.5 -171.5t-147.5 -48.5q-45 0 -75 5l4 101q31 -7 60 -7q56 0 83 28.5t46 92.5h-41l-163 524h124l119 -427h4l120 427h121zM280 595l-151 163h143l114 -163h-106z" />
    <glyph glyph-name="endash" unicode="&#x2013;" horiz-adv-x="599" 
d="M49 356h501v-97h-501v97z" />
    <glyph glyph-name="emdash" unicode="&#x2014;" horiz-adv-x="945" 
d="M49 356h847v-97h-847v97z" />
    <glyph glyph-name="quoteleft" unicode="&#x2018;" horiz-adv-x="270" 
d="M201 550v-149h-142v138q0 73 32 116t109 62q18 -38 28 -57q-46 -14 -65 -37t-19 -73h57z" />
    <glyph glyph-name="quoteright" unicode="&#x2019;" horiz-adv-x="264" 
d="M71 551v149h142v-138q0 -73 -32 -116t-109 -62q-18 38 -28 57q46 14 64.5 37t18.5 73h-56z" />
    <glyph glyph-name="quotesinglbase" unicode="&#x201a;" horiz-adv-x="274" 
d="M66 0v148h142v-138q0 -73 -32 -115.5t-109 -61.5q-18 38 -28 57q46 14 64.5 37t18.5 73h-56z" />
    <glyph glyph-name="quotedblleft" unicode="&#x201c;" horiz-adv-x="472" 
d="M403 550v-149h-142v138q0 73 31.5 116t108.5 62l28 -57q-46 -14 -64.5 -37t-18.5 -73h57zM201 550v-149h-142v138q0 73 32 116t108 62q4 -10 13.5 -29t14.5 -28q-45 -14 -64 -37t-19 -73h57z" />
    <glyph glyph-name="quotedblright" unicode="&#x201d;" horiz-adv-x="465" 
d="M70 551v149h142v-138q0 -73 -31.5 -116t-108.5 -62l-28 57q45 14 64 37t19 73h-57zM272 551v149h142v-138q0 -73 -32 -116t-108 -62q-4 9 -13.5 28l-14.5 29q45 14 64 37t19 73h-57z" />
    <glyph glyph-name="quotedblbase" unicode="&#x201e;" horiz-adv-x="476" 
d="M66 0v148h142v-138q0 -73 -31.5 -115.5t-108.5 -61.5l-28 57q45 14 64 37t19 73h-57zM268 0v148h142v-138q0 -72 -32 -115t-108 -62q-5 9 -14 28t-14 29q45 14 64 37t19 73h-57z" />
    <glyph glyph-name="dagger" unicode="&#x2020;" horiz-adv-x="500" 
d="M471 368h-161v-368h-119v368h-162v104h162v228h119v-228h161v-104z" />
    <glyph glyph-name="daggerdbl" unicode="&#x2021;" horiz-adv-x="524" 
d="M322 112h161v-104h-161v-226h-119v226h-162v104h162v256h-162v104h162v228h119v-228h161v-104h-161v-256z" />
    <glyph glyph-name="bullet" unicode="&#x2022;" horiz-adv-x="366" 
d="M60 362q0 51 36 87t87 36t87 -36t36 -87t-36 -87t-87 -36t-87 36t-36 87z" />
    <glyph glyph-name="ellipsis" unicode="&#x2026;" horiz-adv-x="921" 
d="M383 0v148h143v-148h-143zM714 0v148h141v-148h-141zM66 0v148h141v-148h-141z" />
    <glyph glyph-name="perthousand" unicode="&#x2030;" horiz-adv-x="1008" 
d="M38 485v106q0 50 34.5 82t90.5 32h21q55 0 89.5 -32.5t34.5 -81.5v-106q0 -49 -34 -80t-90 -31h-21q-57 0 -91 31t-34 80zM627 698l-476 -698h-82l478 698h80zM226 491v95q0 51 -53 51q-52 0 -52 -51v-95q0 -50 52 -50q53 0 53 50zM385 102v106q0 49 34 81t90 32h21
q56 0 90 -32t34 -81v-106q0 -50 -34 -80.5t-90 -30.5h-21q-56 0 -90 30.5t-34 80.5zM572 108v95q0 51 -53 51q-52 0 -52 -51v-95q0 -51 52 -51q53 0 53 51zM705 102v106q0 49 34 81t90 32h21q56 0 90.5 -32t34.5 -81v-106q0 -50 -34 -80.5t-91 -30.5h-21q-56 0 -90 30.5
t-34 80.5zM892 108v95q0 51 -53 51q-52 0 -52 -51v-95q0 -51 52 -51q53 0 53 51z" />
    <glyph glyph-name="guilsinglleft" unicode="&#x2039;" horiz-adv-x="387" 
d="M342 570l-188 -250l188 -250h-135l-188 250l188 250h135z" />
    <glyph glyph-name="guilsinglright" unicode="&#x203a;" horiz-adv-x="387" 
d="M233 320l-188 250h135l188 -250l-188 -250h-135z" />
    <glyph glyph-name="fraction" unicode="&#x2044;" horiz-adv-x="301" 
d="M-205 8l658 714l44 -39l-657 -714z" />
    <glyph glyph-name="zerosuperior" unicode="&#x2070;" 
d="M64 410v178q0 47 34.5 79.5t95.5 32.5h11q61 0 95.5 -32.5t34.5 -79.5v-178q0 -47 -34.5 -79.5t-95.5 -32.5h-11q-61 0 -95.5 32.5t-34.5 79.5zM148 576v-154q0 -54 51 -54q52 0 52 54v154q0 54 -52 54q-51 0 -51 -54z" />
    <glyph glyph-name="foursuperior" unicode="&#x2074;" 
d="M346 406h-43v-101h-77v101h-173v67l154 222h96v-225h43v-64zM226 470v143l-100 -143h100z" />
    <glyph glyph-name="fivesuperior" unicode="&#x2075;" 
d="M191 368q59 0 59 52v29q0 48 -47 48q-29 0 -49 -25l-65 9v211h235l-5 -67h-158v-73q23 13 59 13q53 0 83.5 -30.5t30.5 -79.5v-40q0 -49 -36 -83t-104 -34q-80 0 -128 44l39 64q45 -38 86 -38z" />
    <glyph glyph-name="sixsuperior" unicode="&#x2076;" 
d="M148 473v-55q0 -52 52 -52q51 0 51 53v15q0 52 -49 52q-35 0 -54 -13zM206 701q80 0 125 -41l-32 -66q-43 36 -89 36q-27 0 -44.5 -13t-17.5 -38v-41q32 16 70 16q56 0 86.5 -29.5t30.5 -77.5v-33q0 -49 -35.5 -82.5t-97.5 -33.5h-7q-61 0 -96 31.5t-35 77.5v172
q0 55 37.5 88.5t104.5 33.5z" />
    <glyph glyph-name="sevensuperior" unicode="&#x2077;" 
d="M64 565v130h271v-65l-140 -325h-92l146 321h-108v-61h-77z" />
    <glyph glyph-name="eightsuperior" unicode="&#x2078;" 
d="M196 702h8q63 0 96.5 -31t33.5 -75v-8q0 -61 -49 -79q27 -11 41 -35t14 -53v-11q0 -51 -36 -81t-104 -30t-104 30t-36 81v11q0 29 14 53t41 35q-49 18 -49 79v8q0 44 33.5 75t96.5 31zM200 365q58 0 58 51v9q0 50 -58 50t-58 -50v-9q0 -51 58 -51zM200 539q53 0 53 48
q0 49 -53 49t-53 -49q0 -48 53 -48z" />
    <glyph glyph-name="ninesuperior" unicode="&#x2079;" 
d="M251 525v55q0 53 -52 53q-51 0 -51 -54v-15q0 -52 49 -52q35 0 54 13zM193 298q-81 0 -125 40l32 67q43 -36 89 -36q27 0 44.5 13t17.5 38v41q-34 -17 -70 -17q-55 0 -86 30t-31 77v34q0 49 35.5 82.5t97.5 33.5h7q61 0 96 -31.5t35 -77.5v-172q0 -55 -37.5 -88.5
t-104.5 -33.5z" />
    <glyph glyph-name="zeroinferior" unicode="&#x2080;" 
d="M64 107v178q0 47 34.5 79.5t95.5 32.5h11q61 0 95.5 -32.5t34.5 -79.5v-178q0 -47 -34.5 -79.5t-95.5 -32.5h-11q-61 0 -95.5 32.5t-34.5 79.5zM148 273v-154q0 -54 51 -54q52 0 52 54v154q0 54 -52 54q-51 0 -51 -54z" />
    <glyph glyph-name="oneinferior" unicode="&#x2081;" 
d="M328 70v-70h-244v70h83v236l-69 -33l-28 64l110 53h70v-320h78z" />
    <glyph glyph-name="twoinferior" unicode="&#x2082;" 
d="M194 327q-43 0 -75 -42l-50 53q15 24 50 42.5t80 18.5q59 0 94 -31t35 -79v-6q0 -58 -61 -119q-1 -2 -44.5 -44t-52.5 -49h161v-71h-254v78l120 115q50 47 50 87v2q0 20 -14.5 32.5t-38.5 12.5z" />
    <glyph glyph-name="threeinferior" unicode="&#x2083;" 
d="M196 329q-44 0 -78 -40l-45 56q44 53 127 53q56 0 90 -28.5t34 -73.5v-7q0 -60 -51 -83q61 -19 61 -90v-3q0 -49 -36 -83t-105 -34q-81 0 -127 46l44 60q37 -37 83 -37q25 0 42 13.5t17 37.5v2q0 47 -59 47h-50v67h43q62 0 62 48v4q0 22 -14.5 33.5t-37.5 11.5z" />
    <glyph glyph-name="fourinferior" unicode="&#x2084;" 
d="M346 101h-43v-101h-77v101h-173v67l154 222h96v-225h43v-64zM226 165v143l-100 -143h100z" />
    <glyph glyph-name="fiveinferior" unicode="&#x2085;" 
d="M191 66q59 0 59 52v29q0 48 -47 48q-29 0 -49 -25l-65 9v211h235l-5 -67h-158v-73q23 13 59 13q53 0 83.5 -30.5t30.5 -79.5v-40q0 -49 -36 -83t-104 -34q-80 0 -128 44l39 64q45 -38 86 -38z" />
    <glyph glyph-name="sixinferior" unicode="&#x2086;" 
d="M148 170v-55q0 -52 52 -52q51 0 51 53v15q0 52 -49 52q-35 0 -54 -13zM206 398q80 0 125 -41l-32 -66q-43 36 -89 36q-27 0 -44.5 -13t-17.5 -38v-41q32 16 70 16q56 0 86.5 -29.5t30.5 -77.5v-33q0 -49 -35.5 -82.5t-97.5 -33.5h-7q-61 0 -96 31.5t-35 77.5v172
q0 55 37.5 88.5t104.5 33.5z" />
    <glyph glyph-name="seveninferior" unicode="&#x2087;" 
d="M64 260v130h271v-65l-140 -325h-92l146 321h-108v-61h-77z" />
    <glyph glyph-name="eightinferior" unicode="&#x2088;" 
d="M196 399h8q63 0 96.5 -31t33.5 -75v-8q0 -61 -49 -79q27 -11 41 -35t14 -53v-11q0 -51 -36 -81t-104 -30t-104 30t-36 81v11q0 29 14 53t41 35q-49 18 -49 79v8q0 44 33.5 75t96.5 31zM200 62q58 0 58 51v9q0 50 -58 50t-58 -50v-9q0 -51 58 -51zM200 236q53 0 53 48
q0 49 -53 49t-53 -49q0 -48 53 -48z" />
    <glyph glyph-name="nineinferior" unicode="&#x2089;" 
d="M251 222v55q0 53 -52 53q-51 0 -51 -54v-15q0 -52 49 -52q35 0 54 13zM193 -5q-81 0 -125 40l32 67q43 -36 89 -36q27 0 44.5 13t17.5 38v41q-34 -17 -70 -17q-55 0 -86 30t-31 77v34q0 49 35.5 82.5t97.5 33.5h7q61 0 96 -31.5t35 -77.5v-172q0 -55 -37.5 -88.5
t-104.5 -33.5z" />
    <glyph glyph-name="Euro" unicode="&#x20ac;" horiz-adv-x="575" 
d="M103 314v81h-66v72h66v45q0 86 60.5 143t163.5 57q128 0 205 -83l-59 -81q-64 64 -144 64q-51 0 -79.5 -28.5t-28.5 -84.5v-32h250q-8 -48 -11 -72h-239v-81h228q-6 -48 -10 -72h-218v-38q0 -57 30 -87t85 -30q47 0 89 20.5t70 52.5l50 -87q-85 -85 -221 -85
q-111 0 -166 58t-55 149v47h-66v72h66z" />
    <glyph glyph-name="afii61289" unicode="&#x2113;" horiz-adv-x="541" 
d="M92 159l-42 95q59 28 88 49v223q0 90 41 140t123 50q68 0 110 -41.5t42 -115.5q0 -150 -203 -300v-83q0 -86 68 -86q56 0 72 65l100 -37q-9 -40 -31 -68.5t-50 -41t-50.5 -17.5t-43.5 -5q-172 0 -178 182v18zM251 555v-160q95 90 95 171q0 54 -47 54q-48 0 -48 -65z" />
    <glyph glyph-name="trademark" unicode="&#x2122;" horiz-adv-x="817" 
d="M683 609l-74 -225h-82l-72 225v-264h-75v355h113l77 -242l74 242h114v-355h-75v264zM332 700v-70h-112v-285h-79v285h-112v70h303z" />
    <glyph glyph-name="estimated" unicode="&#x212e;" horiz-adv-x="896" 
d="M186 346v-187q0 -42 48.5 -78t108.5 -53.5t107 -17.5q158 0 271 126h60q-57 -71 -142 -109.5t-189 -38.5q-172 0 -296 111t-124 268q0 154 124 264.5t296 110.5q178 0 300 -112t122 -272h-676q-10 0 -10 -12zM196 377h509q10 0 10 9v188q0 27 -18 50q-105 99 -247 99
q-137 0 -244 -99q-20 -28 -20 -50v-188q0 -9 10 -9z" />
    <glyph glyph-name="onethird" unicode="&#x2153;" horiz-adv-x="1080" 
d="M827 329q-44 0 -78 -40l-45 56q44 53 127 53q56 0 90 -28.5t34 -73.5v-7q0 -60 -51 -83q61 -19 61 -90v-3q0 -49 -36 -83t-105 -34q-81 0 -127 46l44 60q37 -37 83 -37q25 0 42 13.5t17 37.5v2q0 47 -59 47h-50v67h43q62 0 62 48v4q0 22 -14.5 33.5t-37.5 11.5zM184 8
l658 714l44 -39l-657 -714zM364 375v-70h-244v70h83v236l-69 -33l-28 64l110 53h70v-320h78z" />
    <glyph glyph-name="twothirds" unicode="&#x2154;" horiz-adv-x="1080" 
d="M227 632q-43 0 -75 -42l-50 53q15 24 50 42.5t80 18.5q59 0 94 -31t35 -79v-6q0 -58 -61 -119q-1 -2 -44.5 -44t-52.5 -49h161v-71h-254v78l120 115q50 47 50 87v2q0 20 -14.5 32.5t-38.5 12.5zM828 329q-44 0 -78 -40l-45 56q44 53 127 53q56 0 90 -28.5t34 -73.5v-7
q0 -60 -51 -83q61 -19 61 -90v-3q0 -49 -36 -83t-105 -34q-81 0 -127 46l44 60q37 -37 83 -37q25 0 42 13.5t17 37.5v2q0 47 -59 47h-50v67h43q62 0 62 48v4q0 22 -14.5 33.5t-37.5 11.5zM184 8l658 714l44 -39l-657 -714z" />
    <glyph glyph-name="oneeighth" unicode="&#x215b;" horiz-adv-x="1080" 
d="M823 399h8q63 0 96.5 -31t33.5 -75v-8q0 -61 -49 -79q27 -11 41 -35t14 -53v-11q0 -51 -36 -81t-104 -30t-104 30t-36 81v11q0 29 14 53t41 35q-49 18 -49 79v8q0 44 33.5 75t96.5 31zM827 62q58 0 58 51v9q0 50 -58 50t-58 -50v-9q0 -51 58 -51zM827 236q53 0 53 48
q0 49 -53 49t-53 -49q0 -48 53 -48zM184 8l658 714l44 -39l-657 -714zM362 375v-70h-244v70h83v236l-69 -33l-28 64l110 53h70v-320h78z" />
    <glyph glyph-name="threeeighths" unicode="&#x215c;" horiz-adv-x="1080" 
d="M823 399h8q63 0 96.5 -31t33.5 -75v-8q0 -61 -49 -79q27 -11 41 -35t14 -53v-11q0 -51 -36 -81t-104 -30t-104 30t-36 81v11q0 29 14 53t41 35q-49 18 -49 79v8q0 44 33.5 75t96.5 31zM827 62q58 0 58 51v9q0 50 -58 50t-58 -50v-9q0 -51 58 -51zM827 236q53 0 53 48
q0 49 -53 49t-53 -49q0 -48 53 -48zM244 631q-44 0 -78 -40l-45 56q44 53 127 53q56 0 90 -28.5t34 -73.5v-7q0 -60 -51 -83q61 -19 61 -90v-3q0 -49 -36 -83t-105 -34q-81 0 -127 46l44 60q37 -37 83 -37q25 0 42 13.5t17 37.5v2q0 47 -59 47h-50v67h43q62 0 62 48v4
q0 22 -14.5 33.5t-37.5 11.5zM184 8l658 714l44 -39l-657 -714z" />
    <glyph glyph-name="fiveeighths" unicode="&#x215d;" horiz-adv-x="1080" 
d="M823 399h8q63 0 96.5 -31t33.5 -75v-8q0 -61 -49 -79q27 -11 41 -35t14 -53v-11q0 -51 -36 -81t-104 -30t-104 30t-36 81v11q0 29 14 53t41 35q-49 18 -49 79v8q0 44 33.5 75t96.5 31zM827 62q58 0 58 51v9q0 50 -58 50t-58 -50v-9q0 -51 58 -51zM827 236q53 0 53 48
q0 49 -53 49t-53 -49q0 -48 53 -48zM239 368q59 0 59 52v29q0 48 -47 48q-29 0 -49 -25l-65 9v211h235l-5 -67h-158v-73q23 13 59 13q53 0 83.5 -30.5t30.5 -79.5v-40q0 -49 -36 -83t-104 -34q-80 0 -128 44l39 64q45 -38 86 -38zM184 8l658 714l44 -39l-657 -714z" />
    <glyph glyph-name="seveneighths" unicode="&#x215e;" horiz-adv-x="1080" 
d="M823 399h8q63 0 96.5 -31t33.5 -75v-8q0 -61 -49 -79q27 -11 41 -35t14 -53v-11q0 -51 -36 -81t-104 -30t-104 30t-36 81v11q0 29 14 53t41 35q-49 18 -49 79v8q0 44 33.5 75t96.5 31zM827 62q58 0 58 51v9q0 50 -58 50t-58 -50v-9q0 -51 58 -51zM827 236q53 0 53 48
q0 49 -53 49t-53 -49q0 -48 53 -48zM184 8l658 714l44 -39l-657 -714zM130 565v130h271v-65l-140 -325h-92l146 321h-108v-61h-77z" />
    <glyph glyph-name="partialdiff" unicode="&#x2202;" horiz-adv-x="518" 
d="M470 487v-312q0 -80 -53 -134t-146 -54h-32q-93 0 -146 54t-53 134v182q0 79 52.5 129.5t142.5 50.5q84 0 124 -47q0 185 -155 185q-63 0 -111 -21l-18 93q59 26 140 26q52 0 95 -14t80.5 -45t58.5 -89t21 -138zM154 347v-170q0 -44 26.5 -68.5t74.5 -24.5t74.5 24.5
t26.5 68.5v170q0 44 -26.5 68.5t-74.5 24.5t-74.5 -24.5t-26.5 -68.5z" />
    <glyph glyph-name="Delta" unicode="&#x2206;" horiz-adv-x="690" 
d="M662 0h-634v94l248 606h134l252 -606v-94zM539 98l-198 487l-193 -487h391z" />
    <glyph glyph-name="product" unicode="&#x220f;" horiz-adv-x="703" 
d="M29 700h645v-99h-95v-601h-118v601h-219v-601h-119v601h-94v99z" />
    <glyph glyph-name="summation" unicode="&#x2211;" horiz-adv-x="513" 
d="M476 98v-98h-437v96l197 262l-197 245v97h437l-6 -99h-302l177 -218v-43l-177 -242h308z" />
    <glyph glyph-name="minus" unicode="&#x2212;" horiz-adv-x="465" 
d="M412 289h-359v92h359v-92z" />
    <glyph glyph-name="uni2215" unicode="&#x2215;" horiz-adv-x="301" 
d="M-205 8l658 714l44 -39l-657 -714z" />
    <glyph glyph-name="uni2219" unicode="&#x2219;" horiz-adv-x="280" 
d="M72 290v143h136v-143h-136z" />
    <glyph glyph-name="radical" unicode="&#x221a;" horiz-adv-x="563" 
d="M328 0h-164l-152 511l122 18l114 -421l219 784h128z" />
    <glyph glyph-name="infinity" unicode="&#x221e;" horiz-adv-x="844" 
d="M39 370q0 58 17.5 100.5t47 65t61 32.5t65.5 10q113 0 192 -124q80 124 193 124q34 0 65 -10t60 -32.5t46.5 -65t17.5 -100.5t-17.5 -100.5t-46.5 -65t-60 -32.5t-65 -10q-113 0 -193 124q-79 -124 -192 -124q-34 0 -65.5 10t-61 32.5t-47 65t-17.5 100.5zM372 370
q-40 61 -71 84.5t-65 23.5q-39 0 -64.5 -25.5t-25.5 -82.5q0 -56 25.5 -81.5t64.5 -25.5q34 0 65 23.5t71 83.5zM698 370q0 57 -25.5 82.5t-64.5 25.5q-34 0 -65 -23.5t-71 -84.5q40 -60 71 -83.5t65 -23.5q40 0 65 25.5t25 81.5z" />
    <glyph glyph-name="integral" unicode="&#x222b;" horiz-adv-x="386" 
d="M392 741l-16 -90q-34 15 -78 15q-71 0 -71 -72v-650q0 -76 -43.5 -119.5t-124.5 -43.5q-63 0 -112 20l17 92q36 -16 79 -16q69 0 69 72v650q0 75 44.5 119t125.5 44q62 0 110 -21z" />
    <glyph glyph-name="approxequal" unicode="&#x2248;" horiz-adv-x="484" 
d="M333 366q-31 0 -88.5 24.5t-78.5 24.5q-42 0 -53 -56l-67 39q3 38 34 71t79 33q36 0 92 -25t73 -25q39 0 48 57l69 -39q-6 -42 -35 -73t-73 -31zM333 186q-31 0 -88.5 24.5t-78.5 24.5q-42 0 -53 -56l-67 39q3 38 34 71t79 33q36 0 92 -25t73 -25q39 0 48 57l69 -39
q-6 -42 -35 -73t-73 -31z" />
    <glyph glyph-name="notequal" unicode="&#x2260;" horiz-adv-x="459" 
d="M43 384v92h223l68 132l57 -27l-54 -105h81v-92h-128l-50 -99h178v-92h-224l-61 -121l-58 27l48 94h-80v92h126l51 99h-177z" />
    <glyph glyph-name="lessequal" unicode="&#x2264;" horiz-adv-x="413" 
d="M373 91v-91h-328v91h328zM367 657l-197 -250l197 -250h-135l-197 250l197 250h135z" />
    <glyph glyph-name="greaterequal" unicode="&#x2265;" horiz-adv-x="412" 
d="M243 407l-197 250h133l198 -250l-198 -250h-133zM39 0v91h329v-91h-329z" />
    <glyph glyph-name="lozenge" unicode="&#x25ca;" horiz-adv-x="521" 
d="M251 73l106 276l-106 278l-106 -278zM320 730l155 -381l-155 -380h-138l-155 380l155 381h138z" />
    <glyph glyph-name="fi" unicode="&#xfb01;" horiz-adv-x="572" 
d="M232 568v-44h276v-524h-114v429h-162v-429h-114v429h-95v95h95v45q0 100 57 153t156 53q41 0 81.5 -8.5t61.5 -16.5l20 -9l-23 -102q-60 35 -135 35q-54 0 -79 -30.5t-25 -75.5z" />
    <glyph glyph-name="fl" unicode="&#xfb02;" horiz-adv-x="625" 
d="M608 101l18 -93q-46 -17 -95 -17q-58 0 -95 32t-37 102v516q-42 21 -85 21q-39 0 -60 -20.5t-21 -56.5v-61h116v-95h-116v-429h-115v429h-95v95h95v69q0 73 49 120.5t135 47.5q64 0 129 -28l82 2v-586q0 -31 11 -44t37 -13q22 0 47 9z" />
    <glyph glyph-name="st" unicode="&#xfb06;" horiz-adv-x="870" 
d="M52 380q0 70 46 110.5t123 45.5q-30 37 -30 89q0 51 38.5 86.5t106.5 35.5h356v-223h148l-15 -95h-133v-281q0 -32 12.5 -44t36.5 -12q43 0 84 22l18 -90q-49 -33 -130 -33q-59 0 -97 32t-38 103v303h-86l6 95h80v127h-213q-36 0 -53.5 -17t-17.5 -44q0 -34 21 -60
q63 -10 104 -36l-29 -95q-14 13 -56.5 29t-85.5 16q-37 0 -61 -14t-24 -42q0 -39 64 -61l64 -25q69 -23 105 -54.5t36 -95.5q0 -82 -57 -123.5t-148 -41.5q-55 0 -106.5 14.5t-82.5 36.5l28 98q29 -23 73.5 -38.5t87.5 -15.5q44 0 67.5 16.5t23.5 45.5q0 22 -16.5 35.5
t-55.5 27.5l-61 23q-61 20 -97 53t-36 97z" />
    <glyph glyph-name="apple" horiz-adv-x="1209" 
d="M1115 474q0 67 -24.5 128.5t-69.5 105.5q-82 79 -198 79q-121 0 -218 -87q-102 88 -221 88q-114 0 -195 -78q-45 -44 -70 -106.5t-25 -130.5q0 -137 90 -268q67 -98 171 -180q53 -43 113.5 -80.5t87.5 -51t38 -17.5q9 -4 18 0q11 4 38 17.5t88 51t115 79.5
q106 83 171 179q91 133 91 271zM1058 734q48 -49 74.5 -118t26.5 -143q0 -85 -32 -168t-84 -151.5t-121.5 -130t-141.5 -107t-146 -78.5q-16 -8 -31 -8t-31 8q-97 44 -187 107.5t-166.5 144.5t-122.5 181.5t-46 203.5q0 74 27 143t75 119q92 93 235 93q124 0 222 -86
q94 84 217 84q141 0 232 -94zM603 506q-48 0 -92 14q47 82 94 130q43 -44 93 -129q-44 -15 -95 -15zM1036 403l-40 89q-3 7 -10 10q-8 2 -14 -1l-129 -62q-16 -9 -9 -24l47 -105q7 -16 23 -9q7 3 10 10t0 13l-40 90l33 15l15 -33q7 -16 24 -9q16 7 9 24l-15 34l31 15l32 -72
q7 -16 24 -9q16 7 9 24zM796 595l26 -50q11 -22 35 -30q29 -8 55 7q25 13 34.5 39.5t-2.5 49.5l-33 67q-3 7 -11 9t-14 -1l-135 -74q-16 -9 -7 -25t25 -7zM752 97q0 7 -5 12.5t-13 5.5h-179q34 18 57 32.5t53.5 39t46.5 54.5t16 63q0 50 -33 87t-90 37q-56 0 -93.5 -32.5
t-37.5 -83.5q0 -36 24.5 -64.5t62.5 -28.5q30 0 54 19t24 54q0 23 -11.5 33.5t-24.5 10.5q-14 0 -23.5 -9.5t-9.5 -22.5q0 -17 15 -27q1 -1 0 -6.5t-7.5 -10.5t-18.5 -5q-22 0 -34.5 18.5t-12.5 39.5q0 36 25 58t66 22q40 0 62.5 -26t22.5 -62q0 -68 -109 -139
q-22 -14 -46.5 -27t-38.5 -20.5t-15 -8.5q-8 -10 -4 -20q5 -11 17 -11h241q19 0 19 18zM214 362l17 50l114 -40q18 -7 23 11q3 7 -0.5 14t-10.5 9l-115 41l15 47q5 18 -12 23q-7 2 -14 -1.5t-9 -10.5l-43 -132q-2 -7 1.5 -14t10.5 -9q18 -5 23 12zM357 597l-98 -22
q-18 -4 -14 -22t22 -14l104 23l9 -22q-7 -9 -7 -18q0 -10 7.5 -18t18.5 -8t17 8q13 12 4 34l-63 159q-7 17 -24 10t-10 -24zM426 655q0 -14 9.5 -23.5t22.5 -9.5t22.5 10t9.5 22q0 14 -9 23.5t-23 9.5t-23 -9.5t-9 -22.5zM823 751q103 0 172 -69q83 -81 83 -209
q0 -125 -84 -250q-62 -89 -164 -170q-108 -86 -227 -143q-116 56 -226 144q-103 82 -163 172q-83 120 -83 248t84 210q71 68 172 68t192 -77q-55 -58 -99 -135q-77 -135 -123 -319l-50 10q-7 2 -13.5 -2t-7.5 -11q-4 -16 14 -20l135 -29q16 -4 20 13q3 17 -13 21l-48 10
q39 155 100 274q52 -19 109 -19q60 0 112 20q62 -124 98 -276l-48 -10q-16 -4 -14 -20q4 -18 21 -14l135 28q17 4 13 20q-1 7 -7 11.5t-13 2.5l-49 -10l-1 1v2q-47 186 -123 320q-43 78 -95 131q90 77 191 77zM854 561l-26 52l59 32l25 -50q5 -12 0 -24t-17 -18
q-29 -13 -41 8zM571 3q0 -14 9.5 -23.5t22.5 -9.5t22.5 10t9.5 22q0 14 -9 23.5t-23 9.5t-23 -9.5t-9 -22.5z" />
    <glyph glyph-name="ct" horiz-adv-x="876" 
d="M312 590q0 -39 23 -62q55 -10 103 -40l-33 -92q-70 42 -135 42q-101 0 -101 -102v-153q0 -99 107 -99q64 0 150 51l23 -96q-79 -52 -188 -52q-93 0 -150 46.5t-57 131.5v180q0 81 48 133t135 58q-28 37 -28 89q0 51 38 86.5t106 35.5h345v-223h148l-15 -95h-133v-281
q0 -32 12.5 -44t36.5 -12q43 0 84 22l18 -90q-49 -33 -130 -33q-59 0 -97 32t-38 103v303h-86l6 95h80v127h-202q-35 0 -52.5 -17t-17.5 -44z" />
    <glyph glyph-name="i.locl" horiz-adv-x="255" 
d="M185 0h-115v524h115v-524zM65 606v129h126v-129h-126z" />
    <glyph glyph-name="arrow.up" horiz-adv-x="700" 
d="M356 681l256 -220l-1 -135l-209 180l-1 -459h-104v459l-210 -180v134l257 221h12z" />
    <glyph glyph-name="arrow.down" horiz-adv-x="700" 
d="M612 267l-256 -220h-12l-257 221v134l210 -180v459h104l1 -459l209 180z" />
    <glyph glyph-name="arrowup.left" horiz-adv-x="700" 
d="M127 593l337 25l94 -96l-275 -20l324 -326l-73 -73l-325 324l-21 -275l-95 94l25 338z" />
    <glyph glyph-name="arrowup.right" horiz-adv-x="700" 
d="M236 618l337 -25l9 -9l25 -338l-95 -94l-21 275l-325 -324l-73 73l324 326l-275 20z" />
    <glyph glyph-name="arrowdown.left" horiz-adv-x="700" 
d="M464 103l-337 25l-9 9l-25 338l95 94l21 -275l325 324l73 -73l-324 -326l275 -20z" />
    <glyph glyph-name="arrowdown.right" horiz-adv-x="700" 
d="M573 128l-337 -25l-94 96l275 20l-324 326l73 73l325 -324l21 275l95 -94l-25 -338z" />
    <glyph glyph-name="questiondown.alt" horiz-adv-x="437" 
d="M43 146q0 44 22.5 85t49.5 67.5t49.5 63.5t22.5 74v40h116v-41q0 -44 -21.5 -87t-47 -70.5t-47 -60.5t-21.5 -60q0 -30 22.5 -46t56.5 -16q72 0 137 52l40 -92q-75 -66 -186 -66q-89 0 -141 43t-52 114zM312 700v-144h-137v144h137z" />
    <glyph glyph-name="exclamdown.alt" horiz-adv-x="283" 
d="M71 551v149h141v-149h-141zM189 476l20 -476h-134l19 476h95z" />
    <glyph glyph-name="hyphen.alt" horiz-adv-x="387" 
d="M51 409h285v-100h-285v100z" />
    <glyph glyph-name="endash.alt" horiz-adv-x="603" 
d="M51 409h501v-100h-501v100z" />
    <glyph glyph-name="emdash.alt" horiz-adv-x="949" 
d="M51 409h847v-100h-847v100z" />
    <glyph glyph-name="guillemotleft.alt" horiz-adv-x="610" 
d="M342 610l-188 -250l188 -250h-136l-187 250l187 250h136zM565 610l-187 -250l187 -250h-135l-187 250l187 250h135z" />
    <glyph glyph-name="guillemotright.alt" horiz-adv-x="610" 
d="M232 360l-187 250h135l188 -250l-188 -250h-135zM456 360l-187 250h135l187 -250l-187 -250h-135z" />
    <glyph glyph-name="guilsinglleft.alt" horiz-adv-x="387" 
d="M342 609l-188 -250l188 -250h-135l-188 250l188 250h135z" />
    <glyph glyph-name="guilsinglright.alt" horiz-adv-x="387" 
d="M233 360l-188 250h135l188 -250l-188 -250h-135z" />
    <glyph glyph-name="at.alt" horiz-adv-x="977" 
d="M596 138q-55 -62 -152 -62q-78 0 -123 44.5t-45 116.5q0 75 51 116.5t143 41.5h102v47q0 86 -92 86q-77 0 -166 -52l-13 101q29 19 81.5 35t112.5 16q91 0 142 -42t51 -122v-253q0 -57 58 -57q44 0 73.5 39.5t40 90t10.5 107.5q0 174 -100.5 269t-261.5 95
q-171 0 -281 -107t-110 -297q0 -86 24 -159t71.5 -130t125.5 -89.5t178 -32.5q159 0 280 79l20 -71q-125 -83 -307 -83q-136 0 -243.5 55.5t-171.5 165.5t-64 258q0 217 130.5 351t347.5 134q107 0 193 -35t140 -95.5t83 -139t29 -167.5q0 -57 -12 -109.5t-37 -100.5
t-72 -77t-110 -29q-84 0 -126 62zM572 311h-99q-38 0 -60 -18.5t-22 -52.5q0 -31 19.5 -52t61.5 -21q60 0 100 40v104z" />
    <glyph glyph-name="hungarumlaut.cap" horiz-adv-x="601" 
d="M328 758l-152 -163h-107l115 163h144zM531 758l-151 -163h-108l115 163h144z" />
    <glyph glyph-name="cedilla.cap" horiz-adv-x="401" 
d="M89 -152q45 -23 93 -23q65 0 65 46q0 36 -61 40h-18.5h-23.5h-20l41 101l72 3l-20 -43q9 0 22.5 -2.5t36 -11t38 -30.5t15.5 -55q0 -58 -42 -86.5t-101 -28.5q-29 0 -56.5 6.5t-40.5 13.5l-13 6z" />
    <glyph glyph-name="ogonek.cap" horiz-adv-x="392" 
d="M265 28l-2 -14q-33 -25 -57 -60t-24 -70q0 -49 58 -49q44 0 92 16l-22 -74q-39 -16 -89 -16q-61 0 -96.5 28.5t-35.5 80.5q0 44 27.5 84.5t56 60.5t53.5 30q6 -3 19 -8.5t20 -8.5z" />
    <glyph glyph-name="caron.cap" horiz-adv-x="514" 
d="M188 778l69 -103l69 103h111l-129 -183h-103l-129 183h112z" />
    <glyph glyph-name="macron.cap" horiz-adv-x="457" 
d="M384 605h-311v86h311v-86z" />
    <glyph glyph-name="dieresis.cap" horiz-adv-x="485" 
d="M82 596v129h126v-129h-126zM277 596v129h126v-129h-126z" />
    <glyph glyph-name="dotaccent.cap" horiz-adv-x="306" 
d="M85 601v144h138v-144h-138z" />
    <glyph glyph-name="circumflex.cap" horiz-adv-x="514" 
d="M326 595l-69 103l-69 -103h-112l129 183h103l129 -183h-111z" />
    <glyph glyph-name="acute.cap" horiz-adv-x="395" 
d="M326 758l-151 -163h-106l114 163h143z" />
    <glyph glyph-name="grave.cap" horiz-adv-x="395" 
d="M220 595l-151 163h143l114 -163h-106z" />
    <glyph glyph-name="breve.cap" horiz-adv-x="454" 
d="M227 592q-73 0 -115 49t-37 137h93q-3 -101 59 -101q63 0 58 101h94q6 -83 -34.5 -134.5t-117.5 -51.5z" />
    <glyph glyph-name="commaaccent.cap" horiz-adv-x="274" 
d="M66 -221v148h142v-138q0 -73 -32 -115.5t-109 -61.5q-18 38 -28 57q46 14 64.5 37t18.5 73h-56z" />
    <glyph glyph-name="commaaccent" horiz-adv-x="274" 
d="M66 -221v148h142v-138q0 -73 -32 -115.5t-109 -61.5q-18 38 -28 57q46 14 64.5 37t18.5 73h-56z" />
    <glyph glyph-name="revcommaaccent" horiz-adv-x="270" 
d="M201 550v-149h-142v138q0 73 32 116t109 62q18 -38 28 -57q-46 -14 -65 -37t-19 -73h57z" />
    <glyph glyph-name="zero.alt" horiz-adv-x="565" 
d="M57 179v332q0 79 56 135.5t156 56.5h22q100 0 156 -56.5t56 -135.5v-332q0 -79 -56 -135.5t-156 -56.5h-22q-100 0 -156 56.5t-56 135.5zM176 491v-291q0 -112 104 -112t104 112v291q0 111 -104 111t-104 -111z" />
    <glyph glyph-name="one.alt" horiz-adv-x="532" 
d="M474 101v-101h-404v101h147v478l-122 -66l-42 88l174 94h109v-594h138z" />
    <glyph glyph-name="two.alt" horiz-adv-x="547" 
d="M259 600q-84 0 -134 -72l-72 75q26 39 81.5 69.5t130.5 30.5q98 0 154.5 -53.5t56.5 -135.5v-12q0 -57 -24 -105t-84 -110l-176 -184h290v-103h-419v115l204 212q53 55 75 94t22 76v9q0 42 -28.5 68t-76.5 26z" />
    <glyph glyph-name="three.alt" horiz-adv-x="559" 
d="M273 603q-84 0 -139 -70q-8 10 -30 36.5t-34 40.5q27 37 81 65t127 28q94 0 149.5 -49t55.5 -125v-13q0 -48 -25.5 -89.5t-77.5 -61.5q60 -21 89 -67t29 -106q0 -88 -58 -146.5t-165 -58.5h-4q-145 0 -221 78l56 91q61 -70 154 -70q52 0 86 26.5t34 80.5v8
q0 103 -117 103h-75v95h68q53 0 86.5 26.5t33.5 76.5v7q0 46 -28 70t-75 24z" />
    <glyph glyph-name="four.alt" horiz-adv-x="550" 
d="M518 185h-75v-185h-111v185h-285v105l247 404h149v-410h75v-99zM332 284v302l-177 -302h177z" />
    <glyph glyph-name="five.alt" horiz-adv-x="559" 
d="M90 324v368h389l-8 -96h-281v-176q46 36 119 36q85 0 134.5 -50.5t49.5 -134.5v-86q0 -88 -59.5 -143t-177.5 -55q-136 0 -201 65l48 96q68 -63 151 -63q54 0 87 27t33 81v65q0 100 -93 100q-60 0 -94 -48z" />
    <glyph glyph-name="six.alt" horiz-adv-x="563" 
d="M177 495v-100q59 39 135 39q92 0 141 -52t49 -134v-58q0 -89 -56.5 -146t-160.5 -57h-15q-98 0 -155 55.5t-57 132.5v320q0 93 62 150.5t175 57.5q66 0 118.5 -19t81.5 -44l-46 -96q-64 58 -152 58q-53 0 -86.5 -27t-33.5 -80zM177 304v-106q0 -54 27 -82t77 -28
q49 0 76 27.5t27 83.5v27q0 110 -99 110q-63 0 -108 -32z" />
    <glyph glyph-name="seven.alt" horiz-adv-x="541" 
d="M48 483v209h440v-98l-238 -594h-126l252 595h-224v-112h-104z" />
    <glyph glyph-name="eight.alt" horiz-adv-x="565" 
d="M279 83q113 0 113 108v14q0 106 -113 106q-112 0 -112 -106v-14q0 -108 112 -108zM289 704q105 0 157 -53.5t52 -131.5v-12q0 -51 -23.5 -91.5t-71.5 -56.5q52 -13 80 -57.5t28 -100.5v-23q0 -87 -58 -139.5t-174 -52.5q-115 0 -173 52.5t-58 139.5v23q0 56 28 100.5
t80 57.5q-48 16 -71.5 56.5t-23.5 91.5v12q0 78 52 131.5t158 53.5h18zM279 401q56 0 80.5 26t24.5 78q0 53 -24.5 79t-80.5 26q-55 0 -79.5 -26t-24.5 -79q0 -51 24.5 -77.5t79.5 -26.5z" />
    <glyph glyph-name="nine.alt" horiz-adv-x="563" 
d="M381 195v100q-59 -39 -135 -39q-92 0 -141 52t-49 134v58q0 89 56.5 146t160.5 57h14q99 0 156 -55.5t57 -132.5v-320q0 -93 -62 -150.5t-175 -57.5q-66 0 -118.5 19t-81.5 44l46 96q64 -58 152 -58q53 0 86.5 27t33.5 80zM381 386v106q0 54 -27 82t-77 28
q-49 0 -76.5 -28t-27.5 -83v-27q0 -110 100 -110q63 0 108 32z" />
    <glyph glyph-name="zero.tosf" horiz-adv-x="565" 
d="M59 180v179q0 80 56 136.5t156 56.5h23q100 0 156 -56.5t56 -136.5v-179q0 -80 -56 -136.5t-156 -56.5h-23q-100 0 -156 56.5t-56 136.5zM180 339v-139q0 -112 103 -112t103 112v139q0 112 -103 112t-103 -112z" />
    <glyph glyph-name="one.tosf" horiz-adv-x="565" 
d="M494 98v-98h-405v98h147v331l-121 -65l-43 88l174 94h110v-448h138z" />
    <glyph glyph-name="two.tosf" horiz-adv-x="565" 
d="M274 448q-42 0 -78 -20t-58 -51l-74 78q25 38 81 68t131 30q99 0 156 -46t57 -125q0 -57 -31.5 -102t-103.5 -92q-5 -3 -61 -44.5t-64 -45.5h268v-98h-419v109q172 126 211 152q45 32 63 56.5t18 57.5t-25 53t-71 20z" />
    <glyph glyph-name="three.tosf" horiz-adv-x="565" 
d="M279 451q-84 0 -139 -70q-8 10 -30 36.5t-34 40.5q27 37 81 65t127 28q94 0 149.5 -49t55.5 -125v-13q0 -48 -25.5 -89.5t-77.5 -61.5q60 -21 89 -67t29 -106q0 -88 -58 -146.5t-165 -58.5h-4q-145 0 -221 78l56 91q61 -70 154 -70q52 0 86 26.5t34 80.5v8
q0 103 -117 103h-75v95h68q53 0 86.5 26.5t33.5 76.5v7q0 46 -28 70t-75 24z" />
    <glyph glyph-name="four.tosf" horiz-adv-x="565" 
d="M520 37h-75v-185h-111v185h-285v105l247 404h149v-410h75v-99zM334 136v302l-177 -302h177z" />
    <glyph glyph-name="five.tosf" horiz-adv-x="565" 
d="M96 171v368h389l-8 -96h-281v-176q46 36 119 36q85 0 134.5 -50.5t49.5 -134.5v-86q0 -88 -59.5 -143t-177.5 -55q-136 0 -201 65l48 96q68 -63 151 -63q54 0 87 27t33 81v65q0 100 -93 100q-60 0 -94 -48z" />
    <glyph glyph-name="six.tosf" horiz-adv-x="565" 
d="M177 495v-100q59 39 135 39q92 0 141 -52t49 -134v-58q0 -89 -56.5 -146t-160.5 -57h-15q-98 0 -155 55.5t-57 132.5v320q0 93 62 150.5t175 57.5q66 0 118.5 -19t81.5 -44l-46 -96q-64 58 -152 58q-53 0 -86.5 -27t-33.5 -80zM177 304v-106q0 -54 27 -82t77 -28
q49 0 76 27.5t27 83.5v27q0 110 -99 110q-63 0 -108 -32z" />
    <glyph glyph-name="seven.tosf" horiz-adv-x="565" 
d="M60 329v209h440v-98l-238 -594h-126l252 595h-224v-112h-104z" />
    <glyph glyph-name="eight.tosf" horiz-adv-x="565" 
d="M279 83q113 0 113 108v14q0 106 -113 106q-112 0 -112 -106v-14q0 -108 112 -108zM289 704q105 0 157 -53.5t52 -131.5v-12q0 -51 -23.5 -91.5t-71.5 -56.5q52 -13 80 -57.5t28 -100.5v-23q0 -87 -58 -139.5t-174 -52.5q-115 0 -173 52.5t-58 139.5v23q0 56 28 100.5
t80 57.5q-48 16 -71.5 56.5t-23.5 91.5v12q0 78 52 131.5t158 53.5h18zM279 401q56 0 80.5 26t24.5 78q0 53 -24.5 79t-80.5 26q-55 0 -79.5 -26t-24.5 -79q0 -51 24.5 -77.5t79.5 -26.5z" />
    <glyph glyph-name="nine.tosf" horiz-adv-x="565" 
d="M383 43v100q-59 -39 -135 -39q-92 0 -141 52t-49 134v58q0 89 56.5 146t160.5 57h14q99 0 156 -55.5t57 -132.5v-320q0 -93 -62 -150.5t-175 -57.5q-66 0 -118.5 19t-81.5 44l46 96q64 -58 152 -58q53 0 86.5 27t33.5 80zM383 234v106q0 54 -27 82t-77 28
q-49 0 -76.5 -28t-27.5 -83v-27q0 -110 100 -110q63 0 108 32z" />
    <glyph glyph-name="zero.posf" horiz-adv-x="565" 
d="M59 180v179q0 80 56 136.5t156 56.5h23q100 0 156 -56.5t56 -136.5v-179q0 -80 -56 -136.5t-156 -56.5h-23q-100 0 -156 56.5t-56 136.5zM180 339v-139q0 -112 103 -112t103 112v139q0 112 -103 112t-103 -112z" />
    <glyph glyph-name="one.posf" horiz-adv-x="502" 
d="M477 98v-98h-405v98h147v331l-121 -65l-43 88l174 94h110v-448h138z" />
    <glyph glyph-name="two.posf" horiz-adv-x="530" 
d="M255 448q-42 0 -78 -20t-58 -51l-74 78q25 38 81 68t131 30q99 0 156 -46t57 -125q0 -57 -31.5 -102t-103.5 -92q-5 -3 -61 -44.5t-64 -45.5h268v-98h-419v109q172 126 211 152q45 32 63 56.5t18 57.5t-25 53t-71 20z" />
    <glyph glyph-name="three.posf" horiz-adv-x="544" 
d="M258 451q-84 0 -139 -70q-8 10 -30 36.5t-34 40.5q27 37 81 65t127 28q94 0 149.5 -49t55.5 -125v-13q0 -48 -25.5 -89.5t-77.5 -61.5q60 -21 89 -67t29 -106q0 -88 -58 -146.5t-165 -58.5h-4q-145 0 -221 78l56 91q61 -70 154 -70q52 0 86 26.5t34 80.5v8
q0 103 -117 103h-75v95h68q53 0 86.5 26.5t33.5 76.5v7q0 46 -28 70t-75 24z" />
    <glyph glyph-name="four.posf" horiz-adv-x="539" 
d="M513 37h-75v-185h-111v185h-285v105l247 404h149v-410h75v-99zM327 136v302l-177 -302h177z" />
    <glyph glyph-name="five.posf" horiz-adv-x="551" 
d="M81 171v368h389l-8 -96h-281v-176q46 36 119 36q85 0 134.5 -50.5t49.5 -134.5v-86q0 -88 -59.5 -143t-177.5 -55q-136 0 -201 65l48 96q68 -63 151 -63q54 0 87 27t33 81v65q0 100 -93 100q-60 0 -94 -48z" />
    <glyph glyph-name="six.posf" horiz-adv-x="563" 
d="M177 495v-100q59 39 135 39q92 0 141 -52t49 -134v-58q0 -89 -56.5 -146t-160.5 -57h-15q-98 0 -155 55.5t-57 132.5v320q0 93 62 150.5t175 57.5q66 0 118.5 -19t81.5 -44l-46 -96q-64 58 -152 58q-53 0 -86.5 -27t-33.5 -80zM177 304v-106q0 -54 27 -82t77 -28
q49 0 76 27.5t27 83.5v27q0 110 -99 110q-63 0 -108 -32z" />
    <glyph glyph-name="seven.posf" horiz-adv-x="521" 
d="M35 330v209h440v-98l-238 -594h-126l252 595h-224v-112h-104z" />
    <glyph glyph-name="eight.posf" horiz-adv-x="565" 
d="M279 83q113 0 113 108v14q0 106 -113 106q-112 0 -112 -106v-14q0 -108 112 -108zM289 704q105 0 157 -53.5t52 -131.5v-12q0 -51 -23.5 -91.5t-71.5 -56.5q52 -13 80 -57.5t28 -100.5v-23q0 -87 -58 -139.5t-174 -52.5q-115 0 -173 52.5t-58 139.5v23q0 56 28 100.5
t80 57.5q-48 16 -71.5 56.5t-23.5 91.5v12q0 78 52 131.5t158 53.5h18zM279 401q56 0 80.5 26t24.5 78q0 53 -24.5 79t-80.5 26q-55 0 -79.5 -26t-24.5 -79q0 -51 24.5 -77.5t79.5 -26.5z" />
    <glyph glyph-name="nine.posf" horiz-adv-x="563" 
d="M381 43v100q-59 -39 -135 -39q-92 0 -141 52t-49 134v58q0 89 56.5 146t160.5 57h14q99 0 156 -55.5t57 -132.5v-320q0 -93 -62 -150.5t-175 -57.5q-66 0 -118.5 19t-81.5 44l46 96q64 -58 152 -58q53 0 86.5 27t33.5 80zM381 234v106q0 54 -27 82t-77 28
q-49 0 -76.5 -28t-27.5 -83v-27q0 -110 100 -110q63 0 108 32z" />
    <glyph glyph-name="ffi" horiz-adv-x="848" 
d="M394 429h-162v-429h-114v429h-95v95h95v70q0 75 45.5 119t125.5 44q37 0 66 -6q-18 -43 -21 -92q-20 2 -35 2q-67 0 -67 -73v-64h162v45q0 100 57 153t156 53q41 0 81.5 -8.5t61.5 -16.5l20 -9l-23 -102q-60 35 -135 35q-54 0 -79 -30.5t-25 -75.5v-44h276v-524h-114v429
h-162v-429h-114v429z" />
    <glyph glyph-name="ffl" horiz-adv-x="897" 
d="M390 429h-162v-429h-114v429h-91v95h91v70q0 76 43.5 120.5t125.5 44.5q42 0 74 -9q-18 -41 -21 -93q-24 4 -36 4q-72 0 -72 -74v-63h162v69q0 73 49 120.5t135 47.5q64 0 129 -28l82 7v-591q0 -31 11 -44t37 -13q22 0 47 9l17 -93q-44 -17 -94 -17q-58 0 -95.5 32
t-37.5 102v516q-39 21 -84 21q-39 0 -60 -20.5t-21 -56.5v-61h116v-95h-116v-429h-115v429z" />
    <glyph glyph-name="ampersand.alt" horiz-adv-x="668" 
d="M384 145l-144 167q-40 -22 -63 -49t-23 -72q0 -51 31 -77t77 -26q69 0 122 57zM219 552q0 -43 53 -109q79 48 79 106q0 36 -19 52.5t-45 16.5q-28 0 -48 -15.5t-20 -50.5zM533 146l82 -89l-85 -74q-8 9 -34.5 38t-40.5 45q-88 -80 -197 -80q-107 0 -164.5 56t-57.5 143
q0 129 142 204q-40 48 -58 84t-18 78q0 74 50 118t132 44q92 0 137 -46t45 -114q0 -50 -28 -94t-103 -90q57 -65 122 -140q58 74 86 171l104 -43q-9 -44 -41.5 -105t-72.5 -106z" />
    <glyph glyph-name="ff" horiz-adv-x="651" 
d="M355 751q-18 -43 -21 -92q-20 2 -35 2q-67 0 -67 -73v-64h162v70q0 75 45.5 119t125.5 44q30 0 63 -5.5t41 -8.5l-16 -94q-30 12 -72 12q-73 0 -73 -72v-65h121v-95h-121v-429h-114v429h-162v-429h-114v429h-95v95h95v70q0 75 45.5 119t125.5 44q37 0 66 -6z" />
    <glyph glyph-name="zero.sups" 
d="M64 560v178q0 47 34.5 79.5t95.5 32.5h11q61 0 95.5 -32.5t34.5 -79.5v-178q0 -47 -34.5 -79.5t-95.5 -32.5h-11q-61 0 -95.5 32.5t-34.5 79.5zM148 726v-154q0 -54 51 -54q52 0 52 54v154q0 54 -52 54q-51 0 -51 -54z" />
    <glyph glyph-name="one.sups" 
d="M328 525v-70h-244v70h83v236l-69 -33l-28 64l110 53h70v-320h78z" />
    <glyph glyph-name="two.sups" 
d="M194 782q-43 0 -75 -42l-50 53q15 24 50 42.5t80 18.5q59 0 94 -31t35 -79v-6q0 -58 -61 -119q-1 -2 -44.5 -44t-52.5 -49h161v-71h-254v78l120 115q50 47 50 87v2q0 20 -14.5 32.5t-38.5 12.5z" />
    <glyph glyph-name="three.sups" 
d="M196 781q-44 0 -78 -40l-45 56q44 53 127 53q56 0 90 -28.5t34 -73.5v-7q0 -60 -51 -83q61 -19 61 -90v-3q0 -49 -36 -83t-105 -34q-81 0 -127 46l44 60q37 -37 83 -37q25 0 42 13.5t17 37.5v2q0 47 -59 47h-50v67h43q62 0 62 48v4q0 22 -14.5 33.5t-37.5 11.5z" />
    <glyph glyph-name="four.sups" 
d="M346 556h-43v-101h-77v101h-173v67l154 222h96v-225h43v-64zM226 620v143l-100 -143h100z" />
    <glyph glyph-name="five.sups" 
d="M191 518q59 0 59 52v29q0 48 -47 48q-29 0 -49 -25l-65 9v211h235l-5 -67h-158v-73q23 13 59 13q53 0 83.5 -30.5t30.5 -79.5v-40q0 -49 -36 -83t-104 -34q-80 0 -128 44l39 64q45 -38 86 -38z" />
    <glyph glyph-name="six.sups" 
d="M148 623v-55q0 -52 52 -52q51 0 51 53v15q0 52 -49 52q-35 0 -54 -13zM206 851q80 0 125 -41l-32 -66q-43 36 -89 36q-27 0 -44.5 -13t-17.5 -38v-41q32 16 70 16q56 0 86.5 -29.5t30.5 -77.5v-33q0 -49 -35.5 -82.5t-97.5 -33.5h-7q-61 0 -96 31.5t-35 77.5v172
q0 55 37.5 88.5t104.5 33.5z" />
    <glyph glyph-name="seven.sups" 
d="M64 715v130h271v-65l-140 -325h-92l146 321h-108v-61h-77z" />
    <glyph glyph-name="eight.sups" 
d="M196 852h8q63 0 96.5 -31t33.5 -75v-8q0 -61 -49 -79q27 -11 41 -35t14 -53v-11q0 -51 -36 -81t-104 -30t-104 30t-36 81v11q0 29 14 53t41 35q-49 18 -49 79v8q0 44 33.5 75t96.5 31zM200 515q58 0 58 51v9q0 50 -58 50t-58 -50v-9q0 -51 58 -51zM200 689q53 0 53 48
q0 49 -53 49t-53 -49q0 -48 53 -48z" />
    <glyph glyph-name="nine.sups" 
d="M251 675v55q0 53 -52 53q-51 0 -51 -54v-15q0 -52 49 -52q35 0 54 13zM193 448q-81 0 -125 40l32 67q43 -36 89 -36q27 0 44.5 13t17.5 38v41q-34 -17 -70 -17q-55 0 -86 30t-31 77v34q0 49 35.5 82.5t97.5 33.5h7q61 0 96 -31.5t35 -77.5v-172q0 -55 -37.5 -88.5
t-104.5 -33.5z" />
    <glyph glyph-name="zero.sinf" 
d="M64 -40v178q0 47 34.5 79.5t95.5 32.5h11q61 0 95.5 -32.5t34.5 -79.5v-178q0 -47 -34.5 -79.5t-95.5 -32.5h-11q-61 0 -95.5 32.5t-34.5 79.5zM148 126v-154q0 -54 51 -54q52 0 52 54v154q0 54 -52 54q-51 0 -51 -54z" />
    <glyph glyph-name="one.sinf" 
d="M328 -75v-70h-244v70h83v236l-69 -33l-28 64l110 53h70v-320h78z" />
    <glyph glyph-name="two.sinf" 
d="M194 182q-43 0 -75 -42l-50 53q15 24 50 42.5t80 18.5q59 0 94 -31t35 -79v-6q0 -58 -61 -119q-1 -2 -44.5 -44t-52.5 -49h161v-71h-254v78l120 115q50 47 50 87v2q0 20 -14.5 32.5t-38.5 12.5z" />
    <glyph glyph-name="three.sinf" 
d="M196 181q-44 0 -78 -40l-45 56q44 53 127 53q56 0 90 -28.5t34 -73.5v-7q0 -60 -51 -83q61 -19 61 -90v-3q0 -49 -36 -83t-105 -34q-81 0 -127 46l44 60q37 -37 83 -37q25 0 42 13.5t17 37.5v2q0 47 -59 47h-50v67h43q62 0 62 48v4q0 22 -14.5 33.5t-37.5 11.5z" />
    <glyph glyph-name="four.sinf" 
d="M346 -44h-43v-101h-77v101h-173v67l154 222h96v-225h43v-64zM226 20v143l-100 -143h100z" />
    <glyph glyph-name="five.sinf" 
d="M191 -82q59 0 59 52v29q0 48 -47 48q-29 0 -49 -25l-65 9v211h235l-5 -67h-158v-73q23 13 59 13q53 0 83.5 -30.5t30.5 -79.5v-40q0 -49 -36 -83t-104 -34q-80 0 -128 44l39 64q45 -38 86 -38z" />
    <glyph glyph-name="six.sinf" 
d="M148 23v-55q0 -52 52 -52q51 0 51 53v15q0 52 -49 52q-35 0 -54 -13zM206 251q80 0 125 -41l-32 -66q-43 36 -89 36q-27 0 -44.5 -13t-17.5 -38v-41q32 16 70 16q56 0 86.5 -29.5t30.5 -77.5v-33q0 -49 -35.5 -82.5t-97.5 -33.5h-7q-61 0 -96 31.5t-35 77.5v172
q0 55 37.5 88.5t104.5 33.5z" />
    <glyph glyph-name="seven.sinf" 
d="M64 115v130h271v-65l-140 -325h-92l146 321h-108v-61h-77z" />
    <glyph glyph-name="eight.sinf" 
d="M196 252h8q63 0 96.5 -31t33.5 -75v-8q0 -61 -49 -79q27 -11 41 -35t14 -53v-11q0 -51 -36 -81t-104 -30t-104 30t-36 81v11q0 29 14 53t41 35q-49 18 -49 79v8q0 44 33.5 75t96.5 31zM200 -85q58 0 58 51v9q0 50 -58 50t-58 -50v-9q0 -51 58 -51zM200 89q53 0 53 48
q0 49 -53 49t-53 -49q0 -48 53 -48z" />
    <glyph glyph-name="nine.sinf" 
d="M251 75v55q0 53 -52 53q-51 0 -51 -54v-15q0 -52 49 -52q35 0 54 13zM193 -152q-81 0 -125 40l32 67q43 -36 89 -36q27 0 44.5 13t17.5 38v41q-34 -17 -70 -17q-55 0 -86 30t-31 77v34q0 49 35.5 82.5t97.5 33.5h7q61 0 96 -31.5t35 -77.5v-172q0 -55 -37.5 -88.5
t-104.5 -33.5z" />
    <glyph glyph-name="onefifth" horiz-adv-x="1080" 
d="M361 375v-70h-244v70h83v236l-69 -33l-28 64l110 53h70v-320h78zM821 66q59 0 59 52v29q0 48 -47 48q-29 0 -49 -25l-65 9v211h235l-5 -67h-158v-73q23 13 59 13q53 0 83.5 -30.5t30.5 -79.5v-40q0 -49 -36 -83t-104 -34q-80 0 -128 44l39 64q45 -38 86 -38zM184 8
l658 714l44 -39l-657 -714z" />
    <glyph glyph-name="twofifths" horiz-adv-x="1080" 
d="M226 632q-43 0 -75 -42l-50 53q15 24 50 42.5t80 18.5q59 0 94 -31t35 -79v-6q0 -58 -61 -119q-1 -2 -44.5 -44t-52.5 -49h161v-71h-254v78l120 115q50 47 50 87v2q0 20 -14.5 32.5t-38.5 12.5zM821 66q59 0 59 52v29q0 48 -47 48q-29 0 -49 -25l-65 9v211h235l-5 -67
h-158v-73q23 13 59 13q53 0 83.5 -30.5t30.5 -79.5v-40q0 -49 -36 -83t-104 -34q-80 0 -128 44l39 64q45 -38 86 -38zM184 8l658 714l44 -39l-657 -714z" />
    <glyph glyph-name="threefifths" horiz-adv-x="1080" 
d="M245 631q-44 0 -78 -40l-45 56q44 53 127 53q56 0 90 -28.5t34 -73.5v-7q0 -60 -51 -83q61 -19 61 -90v-3q0 -49 -36 -83t-105 -34q-81 0 -127 46l44 60q37 -37 83 -37q25 0 42 13.5t17 37.5v2q0 47 -59 47h-50v67h43q62 0 62 48v4q0 22 -14.5 33.5t-37.5 11.5zM821 66
q59 0 59 52v29q0 48 -47 48q-29 0 -49 -25l-65 9v211h235l-5 -67h-158v-73q23 13 59 13q53 0 83.5 -30.5t30.5 -79.5v-40q0 -49 -36 -83t-104 -34q-80 0 -128 44l39 64q45 -38 86 -38zM184 8l658 714l44 -39l-657 -714z" />
    <glyph glyph-name="fourfifths" horiz-adv-x="1080" 
d="M395 406h-43v-101h-77v101h-173v67l154 222h96v-225h43v-64zM275 470v143l-100 -143h100zM821 66q59 0 59 52v29q0 48 -47 48q-29 0 -49 -25l-65 9v211h235l-5 -67h-158v-73q23 13 59 13q53 0 83.5 -30.5t30.5 -79.5v-40q0 -49 -36 -83t-104 -34q-80 0 -128 44l39 64
q45 -38 86 -38zM184 8l658 714l44 -39l-657 -714z" />
    <glyph glyph-name="onesixth" horiz-adv-x="1080" 
d="M768 170v-55q0 -52 52 -52q51 0 51 53v15q0 52 -49 52q-35 0 -54 -13zM826 398q80 0 125 -41l-32 -66q-43 36 -89 36q-27 0 -44.5 -13t-17.5 -38v-41q32 16 70 16q56 0 86.5 -29.5t30.5 -77.5v-33q0 -49 -35.5 -82.5t-97.5 -33.5h-7q-61 0 -96 31.5t-35 77.5v172
q0 55 37.5 88.5t104.5 33.5zM360 375v-70h-244v70h83v236l-69 -33l-28 64l110 53h70v-320h78zM184 8l658 714l44 -39l-657 -714z" />
    <glyph glyph-name="fivesixths" horiz-adv-x="1080" 
d="M768 170v-55q0 -52 52 -52q51 0 51 53v15q0 52 -49 52q-35 0 -54 -13zM826 398q80 0 125 -41l-32 -66q-43 36 -89 36q-27 0 -44.5 -13t-17.5 -38v-41q32 16 70 16q56 0 86.5 -29.5t30.5 -77.5v-33q0 -49 -35.5 -82.5t-97.5 -33.5h-7q-61 0 -96 31.5t-35 77.5v172
q0 55 37.5 88.5t104.5 33.5zM251 368q59 0 59 52v29q0 48 -47 48q-29 0 -49 -25l-65 9v211h235l-5 -67h-158v-73q23 13 59 13q53 0 83.5 -30.5t30.5 -79.5v-40q0 -49 -36 -83t-104 -34q-80 0 -128 44l39 64q45 -38 86 -38zM184 8l658 714l44 -39l-657 -714z" />
    <glyph glyph-name="oneseventh" horiz-adv-x="1080" 
d="M350 375v-70h-244v70h83v236l-69 -33l-28 64l110 53h70v-320h78zM184 8l658 714l44 -39l-657 -714zM713 260v130h271v-65l-140 -325h-92l146 321h-108v-61h-77z" />
    <glyph glyph-name="twosevenths" horiz-adv-x="1080" 
d="M215 632q-43 0 -75 -42l-50 53q15 24 50 42.5t80 18.5q59 0 94 -31t35 -79v-6q0 -58 -61 -119q-1 -2 -44.5 -44t-52.5 -49h161v-71h-254v78l120 115q50 47 50 87v2q0 20 -14.5 32.5t-38.5 12.5zM184 8l658 714l44 -39l-657 -714zM713 260v130h271v-65l-140 -325h-92
l146 321h-108v-61h-77z" />
    <glyph glyph-name="threesevenths" horiz-adv-x="1080" 
d="M240 631q-44 0 -78 -40l-45 56q44 53 127 53q56 0 90 -28.5t34 -73.5v-7q0 -60 -51 -83q61 -19 61 -90v-3q0 -49 -36 -83t-105 -34q-81 0 -127 46l44 60q37 -37 83 -37q25 0 42 13.5t17 37.5v2q0 47 -59 47h-50v67h43q62 0 62 48v4q0 22 -14.5 33.5t-37.5 11.5zM184 8
l658 714l44 -39l-657 -714zM713 260v130h271v-65l-140 -325h-92l146 321h-108v-61h-77z" />
    <glyph glyph-name="foursevenths" horiz-adv-x="1080" 
d="M384 406h-43v-101h-77v101h-173v67l154 222h96v-225h43v-64zM264 470v143l-100 -143h100zM184 8l658 714l44 -39l-657 -714zM713 260v130h271v-65l-140 -325h-92l146 321h-108v-61h-77z" />
    <glyph glyph-name="fivesevenths" horiz-adv-x="1080" 
d="M231 368q59 0 59 52v29q0 48 -47 48q-29 0 -49 -25l-65 9v211h235l-5 -67h-158v-73q23 13 59 13q53 0 83.5 -30.5t30.5 -79.5v-40q0 -49 -36 -83t-104 -34q-80 0 -128 44l39 64q45 -38 86 -38zM184 8l658 714l44 -39l-657 -714zM713 260v130h271v-65l-140 -325h-92
l146 321h-108v-61h-77z" />
    <glyph glyph-name="sixsevenths" horiz-adv-x="1080" 
d="M189 473v-55q0 -52 52 -52q51 0 51 53v15q0 52 -49 52q-35 0 -54 -13zM247 701q80 0 125 -41l-32 -66q-43 36 -89 36q-27 0 -44.5 -13t-17.5 -38v-41q32 16 70 16q56 0 86.5 -29.5t30.5 -77.5v-33q0 -49 -35.5 -82.5t-97.5 -33.5h-7q-61 0 -96 31.5t-35 77.5v172
q0 55 37.5 88.5t104.5 33.5zM184 8l658 714l44 -39l-657 -714zM713 260v130h271v-65l-140 -325h-92l146 321h-108v-61h-77z" />
    <glyph glyph-name="oneninth" horiz-adv-x="1080" 
d="M361 375v-70h-244v70h83v236l-69 -33l-28 64l110 53h70v-320h78zM881 222v55q0 53 -52 53q-51 0 -51 -54v-15q0 -52 49 -52q35 0 54 13zM823 -5q-81 0 -125 40l32 67q43 -36 89 -36q27 0 44.5 13t17.5 38v41q-34 -17 -70 -17q-55 0 -86 30t-31 77v34q0 49 35.5 82.5
t97.5 33.5h7q61 0 96 -31.5t35 -77.5v-172q0 -55 -37.5 -88.5t-104.5 -33.5zM184 8l658 714l44 -39l-657 -714z" />
    <glyph glyph-name="twoninths" horiz-adv-x="1080" 
d="M226 632q-43 0 -75 -42l-50 53q15 24 50 42.5t80 18.5q59 0 94 -31t35 -79v-6q0 -58 -61 -119q-1 -2 -44.5 -44t-52.5 -49h161v-71h-254v78l120 115q50 47 50 87v2q0 20 -14.5 32.5t-38.5 12.5zM881 222v55q0 53 -52 53q-51 0 -51 -54v-15q0 -52 49 -52q35 0 54 13z
M823 -5q-81 0 -125 40l32 67q43 -36 89 -36q27 0 44.5 13t17.5 38v41q-34 -17 -70 -17q-55 0 -86 30t-31 77v34q0 49 35.5 82.5t97.5 33.5h7q61 0 96 -31.5t35 -77.5v-172q0 -55 -37.5 -88.5t-104.5 -33.5zM184 8l658 714l44 -39l-657 -714z" />
    <glyph glyph-name="fourninths" horiz-adv-x="1080" 
d="M395 406h-43v-101h-77v101h-173v67l154 222h96v-225h43v-64zM275 470v143l-100 -143h100zM881 222v55q0 53 -52 53q-51 0 -51 -54v-15q0 -52 49 -52q35 0 54 13zM823 -5q-81 0 -125 40l32 67q43 -36 89 -36q27 0 44.5 13t17.5 38v41q-34 -17 -70 -17q-55 0 -86 30t-31 77
v34q0 49 35.5 82.5t97.5 33.5h7q61 0 96 -31.5t35 -77.5v-172q0 -55 -37.5 -88.5t-104.5 -33.5zM184 8l658 714l44 -39l-657 -714z" />
    <glyph glyph-name="fiveninths" horiz-adv-x="1080" 
d="M242 368q59 0 59 52v29q0 48 -47 48q-29 0 -49 -25l-65 9v211h235l-5 -67h-158v-73q23 13 59 13q53 0 83.5 -30.5t30.5 -79.5v-40q0 -49 -36 -83t-104 -34q-80 0 -128 44l39 64q45 -38 86 -38zM184 8l658 714l44 -39l-657 -714zM881 222v55q0 53 -52 53q-51 0 -51 -54
v-15q0 -52 49 -52q35 0 54 13zM823 -5q-81 0 -125 40l32 67q43 -36 89 -36q27 0 44.5 13t17.5 38v41q-34 -17 -70 -17q-55 0 -86 30t-31 77v34q0 49 35.5 82.5t97.5 33.5h7q61 0 96 -31.5t35 -77.5v-172q0 -55 -37.5 -88.5t-104.5 -33.5z" />
    <glyph glyph-name="sevenninths" horiz-adv-x="1080" 
d="M881 222v55q0 53 -52 53q-51 0 -51 -54v-15q0 -52 49 -52q35 0 54 13zM823 -5q-81 0 -125 40l32 67q43 -36 89 -36q27 0 44.5 13t17.5 38v41q-34 -17 -70 -17q-55 0 -86 30t-31 77v34q0 49 35.5 82.5t97.5 33.5h7q61 0 96 -31.5t35 -77.5v-172q0 -55 -37.5 -88.5
t-104.5 -33.5zM184 8l658 714l44 -39l-657 -714zM133 565v130h271v-65l-140 -325h-92l146 321h-108v-61h-77z" />
    <glyph glyph-name="eightninths" horiz-adv-x="1080" 
d="M251 702h8q63 0 96.5 -31t33.5 -75v-8q0 -61 -49 -79q27 -11 41 -35t14 -53v-11q0 -51 -36 -81t-104 -30t-104 30t-36 81v11q0 29 14 53t41 35q-49 18 -49 79v8q0 44 33.5 75t96.5 31zM255 365q58 0 58 51v9q0 50 -58 50t-58 -50v-9q0 -51 58 -51zM255 539q53 0 53 48
q0 49 -53 49t-53 -49q0 -48 53 -48zM881 222v55q0 53 -52 53q-51 0 -51 -54v-15q0 -52 49 -52q35 0 54 13zM823 -5q-81 0 -125 40l32 67q43 -36 89 -36q27 0 44.5 13t17.5 38v41q-34 -17 -70 -17q-55 0 -86 30t-31 77v34q0 49 35.5 82.5t97.5 33.5h7q61 0 96 -31.5t35 -77.5
v-172q0 -55 -37.5 -88.5t-104.5 -33.5zM184 8l658 714l44 -39l-657 -714z" />
    <glyph glyph-name="caron.alt" horiz-adv-x="514" 
d="M188 778l69 -93l69 93h111l-139 -183h-83l-139 183h112z" />
    <glyph glyph-name="orn.1" horiz-adv-x="890" 
d="M50 349q0 164 115.5 279.5t279.5 115.5q163 0 279 -116t116 -279q0 -164 -115.5 -279.5t-279.5 -115.5t-279.5 115.5t-115.5 279.5zM360 251v198q0 85 84 85q85 0 85 -85v-198q0 -85 -85 -85q-84 0 -84 85zM290 463v-226q0 -52 39 -89.5t106 -37.5h19q67 0 105.5 37.5
t38.5 89.5v226q0 52 -38.5 89.5t-105.5 37.5h-19q-67 0 -106 -37.5t-39 -89.5z" />
    <glyph glyph-name="orn.2" horiz-adv-x="890" 
d="M50 349q0 164 115.5 279.5t279.5 115.5q163 0 279 -116t116 -279q0 -164 -115.5 -279.5t-279.5 -115.5t-279.5 115.5t-115.5 279.5zM586 120v56h-96v410h-68l-119 -64l26 -49l90 49v-346h-105v-56h272z" />
    <glyph glyph-name="orn.3" horiz-adv-x="890" 
d="M50 349q0 164 115.5 279.5t279.5 115.5q163 0 279 -116t116 -279q0 -164 -115.5 -279.5t-279.5 -115.5t-279.5 115.5t-115.5 279.5zM441 534q35 0 57 -18t22 -49v-6q0 -27 -15.5 -54t-55.5 -69l-145 -152v-65h287v58h-214l141 148q68 71 68 134v7q0 54 -38.5 89
t-103.5 35q-51 0 -89.5 -20t-55.5 -45l45 -42q35 49 97 49z" />
    <glyph glyph-name="orn.4" horiz-adv-x="890" 
d="M50 349q0 164 115.5 279.5t279.5 115.5q163 0 279 -116t116 -279q0 -164 -115.5 -279.5t-279.5 -115.5t-279.5 115.5t-115.5 279.5zM438 168q-67 0 -111 44l-33 -53q54 -50 143 -50h8q74 0 114.5 41.5t40.5 99.5v7q0 36 -20.5 66t-60.5 43q34 11 51.5 38.5t17.5 59.5v13
q0 46 -37.5 79.5t-103.5 33.5q-89 0 -141 -57l37 -45q39 46 102 46q37 0 58.5 -17.5t21.5 -51.5v-6q0 -36 -23.5 -54.5t-63.5 -18.5h-50v-55h54q88 0 88 -76v-8q0 -79 -92 -79z" />
    <glyph glyph-name="orn.5" horiz-adv-x="890" 
d="M50 349q0 164 115.5 279.5t279.5 115.5q163 0 279 -116t116 -279q0 -164 -115.5 -279.5t-279.5 -115.5t-279.5 115.5t-115.5 279.5zM462 526v-226h-148zM526 249h57v51h-57v285h-86l-187 -280v-56h209v-130h64v130z" />
    <glyph glyph-name="orn.6" horiz-adv-x="890" 
d="M50 349q0 164 115.5 279.5t279.5 115.5q163 0 279 -116t116 -279q0 -164 -115.5 -279.5t-279.5 -115.5t-279.5 115.5t-115.5 279.5zM321 338l53 -8q28 34 76 34q77 0 77 -81v-35q0 -80 -92 -80q-66 0 -110 44l-33 -53q54 -50 143 -50q82 0 122 38.5t40 94.5v50
q0 56 -35.5 91.5t-97.5 35.5q-52 0 -85 -24v131h200l9 54h-267v-242z" />
    <glyph glyph-name="orn.7" horiz-adv-x="890" 
d="M50 349q0 164 115.5 279.5t279.5 115.5q163 0 279 -116t116 -279q0 -164 -115.5 -279.5t-279.5 -115.5t-279.5 115.5t-115.5 279.5zM360 248v77q36 26 90 26q79 0 79 -83v-18q0 -84 -85 -84q-38 0 -61 21.5t-23 60.5zM360 378v74q0 40 26.5 61t66.5 21q69 0 109 -42
l30 54q-48 44 -138 44q-77 0 -119 -38.5t-42 -98.5v-219q0 -51 38.5 -87.5t104.5 -36.5h14q68 0 107 38t39 93v43q0 54 -35 89t-98 35q-54 0 -103 -30z" />
    <glyph glyph-name="orn.8" horiz-adv-x="890" 
d="M50 349q0 164 115.5 279.5t279.5 115.5q163 0 279 -116t116 -279q0 -164 -115.5 -279.5t-279.5 -115.5t-279.5 115.5t-115.5 279.5zM294 583v-132h61v76h174l-175 -408h74l167 408v56h-301z" />
    <glyph glyph-name="orn.9" horiz-adv-x="890" 
d="M50 349q0 164 115.5 279.5t279.5 115.5q163 0 279 -116t116 -279q0 -164 -115.5 -279.5t-279.5 -115.5t-279.5 115.5t-115.5 279.5zM445 537q81 0 81 -75q0 -77 -81 -77t-81 77q0 75 81 75zM445 334q87 0 87 -79v-9q0 -81 -87 -81t-87 81v9q0 79 87 79zM445 110
q75 0 116.5 33.5t41.5 91.5v21q0 35 -19 64t-55 40q64 24 64 95v20q0 47 -36.5 81.5t-102.5 34.5h-17q-67 0 -103.5 -34.5t-36.5 -81.5v-20q0 -71 64 -95q-36 -11 -55 -40t-19 -64v-21q0 -58 41.5 -91.5t116.5 -33.5z" />
    <glyph glyph-name="orn.10" horiz-adv-x="890" 
d="M50 349q0 164 115.5 279.5t279.5 115.5q163 0 279 -116t116 -279q0 -164 -115.5 -279.5t-279.5 -115.5t-279.5 115.5t-115.5 279.5zM529 452v-77q-36 -26 -90 -26q-79 0 -79 83v18q0 84 85 84q38 0 61 -21.5t23 -60.5zM529 322v-74q0 -39 -26.5 -60.5t-66.5 -21.5
q-69 0 -109 42l-30 -54q46 -44 138 -44q77 0 119 38.5t42 98.5v219q0 51 -38.5 87.5t-104.5 36.5h-14q-68 0 -107 -38t-39 -93v-43q0 -54 35 -89t98 -35q54 0 103 30z" />
    <glyph glyph-name="tilde.cap" horiz-adv-x="510" 
d="M182 640q-29 0 -38 -46l-71 32q3 42 30.5 73.5t71.5 31.5q31 0 82 -22.5t68 -22.5q18 0 26.5 12.5t13.5 37.5l72 -34q-5 -42 -31.5 -74.5t-70.5 -32.5q-29 0 -82 22.5t-71 22.5z" />
    <glyph glyph-name="ring.cap" horiz-adv-x="426" 
d="M350 726v-9q0 -63 -38 -98.5t-99 -35.5t-99 35.5t-38 98.5v9q0 62 38 97.5t99 35.5t99 -35.5t38 -97.5zM153 728v-13q0 -28 15 -46.5t45 -18.5t44.5 18.5t14.5 46.5v13q0 27 -14.5 45.5t-44.5 18.5t-45 -18.5t-15 -45.5z" />
  </font>
</defs>
</svg>
