<?xml version="1.0" standalone="no"?>
<!DOCTYPE svg PUBLIC "-//W3C//DTD SVG 1.1//EN" "http://www.w3.org/Graphics/SVG/1.1/DTD/svg11.dtd" >
<svg>
<metadata>
Created by FontForge 20110222 at Tue Apr  2 02:47:27 2013
 By Orthosie Webmaster
2010 Lukasz Dziedzic published by FSI FontShop International GmbH
</metadata>
<defs>
<font id="GoodOTBookItalic" horiz-adv-x="532" >
  <font-face 
    font-family="GoodOTBookItalic"
    font-weight="450"
    font-style="italic"
    font-stretch="normal"
    units-per-em="1000"
    panose-1="2 11 6 4 2 1 1 2 1 2"
    ascent="820"
    descent="-180"
    x-height="505"
    cap-height="725"
    bbox="-555 -206 1217 904"
    underline-thickness="70"
    underline-position="-20"
    slope="-7"
    unicode-range="U+000D-FB04"
  />
<missing-glyph horiz-adv-x="496" 
d="M254 259l14 64q136 57 136 161q0 43 -31.5 72t-94.5 29q-57 0 -100 -29t-67 -76l51 -17q39 66 106 66q34 0 50 -15.5t16 -39.5q0 -82 -125 -125l-6 -90h51zM186 206l-10 -82h78l9 82h-77zM-20 0l88 724h442l-88 -724h-442z" />
    <glyph glyph-name="f_f" unicode="ff" horiz-adv-x="583" 
d="M592 505l-8 -62h-125l-54 -443h-83l54 443h-192l-54 -443h-83l54 443h-63l7 62h64l5 41q10 81 63 130.5t156 53.5l-2 -60q-66 -4 -97 -35.5t-40 -89.5l-6 -40h196l5 41q10 81 63 130.5t156 53.5l-2 -60q-66 -4 -97 -35.5t-40 -89.5l-6 -40h129z" />
    <glyph glyph-name="f_f_i" unicode="ffi" horiz-adv-x="782" 
d="M605 730l-2 -60q-66 -4 -97 -35.5t-40 -89.5l-6 -40h276l-62 -505h-83l53 443h-188l-54 -443h-83l54 443h-189l-54 -443h-83l54 443h-63l7 62h64l5 41q10 81 63 130.5t156 53.5l-2 -60q-66 -4 -97 -35.5t-40 -89.5l-6 -40h193l5 41q10 81 63 130.5t156 53.5zM682 725h78
l-13 -107h-78z" />
    <glyph glyph-name="f_f_j" unicode="ffj" horiz-adv-x="783" 
d="M736 505l-59 -477q-22 -185 -198 -197v67q100 12 114 130l51 415h-187l-55 -443h-83l54 443h-189l-54 -443h-83l54 443h-63l7 62h64l5 41q10 81 63 130.5t156 53.5l-2 -60q-66 -4 -97 -35.5t-40 -89.5l-6 -40h193l5 41q10 81 63 130.5t156 53.5l-2 -60q-66 -4 -97 -35.5
t-40 -89.5l-6 -40h276zM682 725h78l-13 -107h-78z" />
    <glyph glyph-name="f_f_l" unicode="ffl" horiz-adv-x="790" 
d="M581 505l-7 -62h-118l-54 -443h-84l54 443h-188l-54 -443h-83l54 443h-63l7 62h64l5 41q10 81 63 130.5t156 53.5l-2 -60q-66 -4 -97 -35.5t-40 -89.5l-6 -40h192l5 41q22 183 241 183h57l3 19h84l-92 -748h-84l82 669h-54q-76 0 -111.5 -29.5t-44.5 -94.5l-6 -40h121z
" />
    <glyph glyph-name="f_i" unicode="fi" horiz-adv-x="510" 
d="M333 730l-2 -60q-66 -4 -97 -35.5t-40 -89.5l-6 -40h276l-62 -505h-83l53 443h-188l-54 -443h-83l54 443h-63l7 62h64l5 41q10 81 63 130.5t156 53.5zM410 725h78l-13 -107h-78z" />
    <glyph glyph-name="f_j" unicode="fj" horiz-adv-x="511" 
d="M464 505l-59 -477q-22 -185 -198 -197v67q100 12 114 130l51 415h-187l-55 -443h-83l54 443h-63l7 62h64l5 41q10 81 63 130.5t156 53.5l-2 -60q-66 -4 -97 -35.5t-40 -89.5l-6 -40h276zM410 725h78l-13 -107h-78z" />
    <glyph glyph-name="f_l" unicode="fl" horiz-adv-x="518" 
d="M310 505l-8 -63h-118l-54 -442h-83l54 442h-63l7 63h64l5 41q22 183 241 183h56l3 19h84l-92 -748h-84l82 669h-54q-76 0 -111.5 -30t-44.5 -94l-6 -40h122z" />
    <glyph glyph-name=".notdef" horiz-adv-x="496" 
d="M254 259l14 64q136 57 136 161q0 43 -31.5 72t-94.5 29q-57 0 -100 -29t-67 -76l51 -17q39 66 106 66q34 0 50 -15.5t16 -39.5q0 -82 -125 -125l-6 -90h51zM186 206l-10 -82h78l9 82h-77zM-20 0l88 724h442l-88 -724h-442z" />
    <glyph glyph-name=".null" horiz-adv-x="0" 
 />
    <glyph glyph-name=".null" horiz-adv-x="0" 
 />
    <glyph glyph-name="nonmarkingreturn" horiz-adv-x="333" 
 />
    <glyph glyph-name="CR" unicode="&#xd;" horiz-adv-x="225" 
 />
    <glyph glyph-name="space" unicode=" " horiz-adv-x="225" 
 />
    <glyph glyph-name="exclam" unicode="!" horiz-adv-x="229" 
d="M123 725h85l-38 -299l-35 -216h-67l16 213zM27 0l12 108h101l-12 -108h-101z" />
    <glyph glyph-name="quotedbl" unicode="&#x22;" horiz-adv-x="308" 
d="M219 608l14 117h77l-14 -117l-34 -114h-39zM86 608l14 117h77l-14 -117l-34 -114h-39z" />
    <glyph glyph-name="numbersign" unicode="#" 
d="M55 449l7 60h115l44 216h62l-44 -216h131l44 216h62l-44 -216h87l-6 -60h-90l-35 -174h103l-7 -59h-105l-44 -216h-62l44 216h-132l-43 -216h-62l43 216h-96l7 59h99l35 174h-113zM230 449l-35 -174h131l35 174h-131z" />
    <glyph glyph-name="dollar" unicode="$" horiz-adv-x="478" 
d="M347 825l-10 -95q54 -12 88 -49.5t45 -92.5l-63 -23q-16 77 -84 93l-44 -253q35 -19 55.5 -33.5t45 -37.5t36 -53t11.5 -68q0 -95 -58.5 -155t-148.5 -67l-20 -90h-54l9 93q-60 10 -96.5 50.5t-46.5 108.5l66 26q15 -91 91 -110l48 268q-35 18 -56 32t-45.5 36.5
t-36.5 51.5t-12 66q0 88 56.5 146.5t147.5 64.5l22 91h54zM228 64q52 5 87.5 39t35.5 89q0 39 -22.5 66.5t-64.5 52.5zM263 662q-50 -6 -82.5 -37t-32.5 -82q0 -62 83 -111z" />
    <glyph glyph-name="percent" unicode="%" horiz-adv-x="577" 
d="M303 542q-8 -63 -42.5 -97t-91.5 -34q-51 0 -78 27t-27 78q0 9 10 86q18 133 135 133q50 0 77 -28t27 -79q0 -9 -10 -86zM135 602q-9 -78 -9 -83q0 -52 50 -52q29 0 44.5 17.5t20.5 56.5q9 69 9 83q0 53 -48 53q-58 0 -67 -75zM15 1l490 724h68l-492 -724h-66zM520 119
q-8 -63 -42 -97t-91 -34q-51 0 -78 27t-27 77q0 10 10 87q8 63 42 98t92 35q50 0 77 -28t27 -79q0 -9 -10 -86zM353 179q-9 -68 -9 -81q0 -54 49 -54q56 0 66 74q9 68 9 81q0 55 -49 55q-56 0 -66 -75z" />
    <glyph glyph-name="ampersand" unicode="&#x26;" horiz-adv-x="597" 
d="M476 612l-61 -34q-30 88 -100 88q-44 0 -69 -27.5t-25 -77.5q0 -38 19 -71l154 -262q36 85 50 193l2 16h141l-7 -65h-75q-21 -120 -70 -212q51 -74 130 -95l-20 -72q-96 16 -161 93q-81 -95 -192 -95q-84 0 -131.5 43t-47.5 128t43 157.5t117 119.5q-35 57 -35 117
q0 75 49 126.5t132 51.5q62 0 100 -29t57 -93zM209 61q77 0 138 82l-138 236q-53 -38 -80.5 -96t-27.5 -112q0 -110 108 -110z" />
    <glyph glyph-name="quotesingle" unicode="'" horiz-adv-x="172" 
d="M86 608l14 117h77l-14 -117l-34 -114h-39z" />
    <glyph glyph-name="parenleft" unicode="(" horiz-adv-x="259" 
d="M45 186l37 285q24 181 84.5 261.5t165.5 80.5h26l-6 -59h-27q-65 0 -107.5 -64.5t-62.5 -218.5l-37 -285q-7 -56 -7 -104q0 -179 109 -179h27l-7 -59h-26q-88 0 -132 55.5t-44 176.5q0 54 7 110z" />
    <glyph glyph-name="parenright" unicode=")" horiz-adv-x="259" 
d="M221 471l-37 -285q-24 -181 -84 -261.5t-165 -80.5h-26l6 60h27q64 0 106.5 64.5t62.5 217.5l37 285q7 56 7 106q0 177 -109 177h-27l7 59h26q88 0 132 -55t44 -176q0 -54 -7 -111z" />
    <glyph glyph-name="asterisk" unicode="*" horiz-adv-x="308" 
d="M165 657l-98 23l24 56l89 -42l4 107h55l-21 -107l99 42l11 -56l-103 -23l58 -81l-48 -34l-43 91l-63 -91l-41 35z" />
    <glyph glyph-name="plus" unicode="+" horiz-adv-x="462" 
d="M197 90v189h-146v65h146v190h64v-190h151v-65h-151v-189h-64z" />
    <glyph glyph-name="comma" unicode="," horiz-adv-x="207" 
d="M17 0l12 102h100l-8 -75q-15 -138 -115 -149v40q27 7 39 25t17 57h-45z" />
    <glyph glyph-name="hyphen" unicode="-" horiz-adv-x="268" 
d="M21 256l8 74h217l-9 -74h-216z" />
    <glyph glyph-name="period" unicode="." horiz-adv-x="206" 
d="M16 0l12 108h101l-12 -108h-101z" />
    <glyph glyph-name="slash" unicode="/" horiz-adv-x="310" 
d="M-72 -85l377 830h68l-377 -830h-68z" />
    <glyph glyph-name="zero" unicode="0" horiz-adv-x="548" 
d="M520 495l-37 -268q-15 -112 -79 -174.5t-168 -62.5q-95 0 -145 51t-50 143q0 20 3 43l36 268q15 113 79 176.5t169 63.5q94 0 144.5 -52t50.5 -145q0 -20 -3 -43zM168 495l-37 -268q-2 -14 -2 -38q0 -122 116 -122q66 0 103 39t48 121l36 268q2 14 2 38q0 123 -115 123
q-133 0 -151 -161z" />
    <glyph glyph-name="one" unicode="1" horiz-adv-x="364" 
d="M255 728h68l-89 -728h-91l67 540h-145l7 63h66q57 0 79.5 22.5t37.5 102.5z" />
    <glyph glyph-name="two" unicode="2" horiz-adv-x="525" 
d="M323 735q91 0 137 -43t46 -113q0 -53 -17 -98t-46 -79t-64 -64t-73.5 -59t-73 -58t-64 -66.5t-43.5 -79.5h328l-8 -75h-420l3 46q7 49 32.5 94t60 79.5t75 68t79 65t70.5 63.5t51.5 71t19.5 80q0 92 -107 92q-52 0 -92 -33t-61 -93l-67 22q28 79 89 129.5t145 50.5z" />
    <glyph glyph-name="three" unicode="3" horiz-adv-x="511" 
d="M193 340l8 70h49q143 0 143 155q0 94 -101 94q-102 0 -151 -113l-65 23q32 77 93 121.5t139 44.5q88 0 132 -42.5t44 -114.5q0 -77 -32.5 -128t-89.5 -71q96 -25 96 -133q0 -113 -62 -184.5t-182 -71.5q-79 0 -130.5 38t-66.5 113l68 26q13 -51 48.5 -77.5t84.5 -26.5
q77 0 113 48.5t36 130.5q0 54 -31.5 76t-91.5 22h-51z" />
    <glyph glyph-name="four" unicode="4" horiz-adv-x="512" 
d="M380 0h-82l16 138h-323l7 59l386 528h85l-63 -514h90l-16 -73h-83zM98 211h225l55 401z" />
    <glyph glyph-name="five" unicode="5" horiz-adv-x="515" 
d="M123 337l-56 30l75 358h363l-16 -79h-288l-45 -225q69 36 142 36q176 0 176 -171q0 -143 -69 -219.5t-189 -76.5q-74 0 -124 39t-63 114l70 25q11 -52 44 -78.5t79 -26.5q78 0 119.5 53.5t41.5 157.5q0 58 -29.5 83.5t-91.5 25.5q-37 0 -76 -13t-63 -33z" />
    <glyph glyph-name="six" unicode="6" horiz-adv-x="525" 
d="M331 735q69 0 114.5 -37.5t58.5 -107.5l-65 -28q-21 97 -114 97q-136 0 -159 -173l-11 -82q61 51 153 51q172 0 172 -166q0 -147 -68.5 -223t-180.5 -76q-89 0 -139.5 48.5t-50.5 141.5q0 22 3 44l34 253q15 116 82 187t171 71zM284 382q-54 0 -96 -23t-47 -61l-11 -82
q-2 -11 -2 -30q0 -60 30.5 -89.5t83.5 -29.5q74 0 112.5 60.5t38.5 145.5q0 109 -109 109z" />
    <glyph glyph-name="seven" unicode="7" horiz-adv-x="474" 
d="M166 0h-99l344 648h-355l10 77h448l-8 -67z" />
    <glyph glyph-name="eight" unicode="8" horiz-adv-x="535" 
d="M229 -10q-200 0 -200 171q0 181 130 225q-72 32 -72 125q0 103 58.5 163.5t175.5 60.5q187 0 187 -155q0 -72 -29.5 -122t-81.5 -72q86 -31 86 -139q0 -122 -63.5 -189.5t-190.5 -67.5zM238 64q157 0 157 179q0 56 -31.5 79.5t-90.5 23.5q-74 0 -114.5 -40t-40.5 -135
q0 -58 29.5 -82.5t90.5 -24.5zM312 662q-72 0 -107 -36t-35 -118q0 -49 27 -71.5t84 -22.5q72 0 107.5 37t35.5 118q0 50 -26.5 71.5t-85.5 21.5z" />
    <glyph glyph-name="nine" unicode="9" horiz-adv-x="526" 
d="M93 161q16 -50 46 -72.5t82 -22.5q63 0 102 36t48 105l17 136q-58 -52 -148 -52q-176 0 -176 170q0 129 67 201.5t184 72.5q88 0 137 -48.5t49 -131.5q0 -23 -2 -36l-40 -308q-13 -101 -80 -161t-163 -60q-153 0 -186 138zM262 363q48 0 91.5 23t48.5 61l10 76q2 18 2 27
q0 52 -28 80.5t-81 28.5q-72 0 -112 -47.5t-40 -139.5q0 -59 27.5 -84t81.5 -25z" />
    <glyph glyph-name="colon" unicode=":" horiz-adv-x="206" 
d="M63 375l12 108h101l-12 -108h-101zM16 0l12 108h101l-12 -108h-101z" />
    <glyph glyph-name="semicolon" unicode=";" horiz-adv-x="207" 
d="M63 375l12 108h101l-12 -108h-101zM17 0l12 102h100l-8 -75q-15 -138 -115 -149v40q27 7 39 25t17 57h-45z" />
    <glyph glyph-name="less" unicode="&#x3c;" horiz-adv-x="462" 
d="M385 458l-218 -143l219 -143v-84l-329 221v11l328 222v-84z" />
    <glyph glyph-name="equal" unicode="=" horiz-adv-x="462" 
d="M403 342h-344v66h344v-66zM403 199h-344v66h344v-66z" />
    <glyph glyph-name="greater" unicode="&#x3e;" horiz-adv-x="462" 
d="M77 172l217 143l-216 143v84l328 -222v-11l-329 -221v84z" />
    <glyph glyph-name="question" unicode="?" horiz-adv-x="482" 
d="M55 573q33 72 96.5 117t145.5 45q90 0 133.5 -42.5t43.5 -108.5q0 -85 -55 -156.5t-150 -112.5l-21 -106h-64l12 146q190 79 190 215q0 41 -24 66.5t-78 25.5q-109 0 -163 -112zM141 0l12 108h101l-12 -108h-101z" />
    <glyph glyph-name="at" unicode="@" horiz-adv-x="755" 
d="M548 446h-27l-20 -229q-2 -16 -2 -27q0 -62 56 -62q43 0 64 33t21 114v138q0 123 -66 191t-189 68q-126 0 -198.5 -76.5t-72.5 -197.5v-208q0 -139 74 -214t201 -75q81 0 137 22t102 68l46 -36q-110 -115 -285 -115q-161 0 -251 91.5t-90 257.5v210q0 145 90.5 240.5
t246.5 95.5q152 0 235.5 -89.5t83.5 -232.5v-137q0 -106 -40.5 -158.5t-110.5 -52.5q-80 0 -106 57q-54 -60 -131 -60q-58 0 -88.5 37.5t-30.5 108.5q0 133 66.5 213.5t185.5 80.5h101zM427 196l22 241h-15q-78 0 -119 -59.5t-41 -166.5q0 -85 59 -85q62 0 94 70z" />
    <glyph glyph-name="A" unicode="A" horiz-adv-x="589" 
d="M148 185l-77 -185h-96l320 725h103l143 -725h-97l-32 185h-264zM335 636l-157 -379h222z" />
    <glyph glyph-name="B" unicode="B" horiz-adv-x="563" 
d="M519 575q0 -68 -30 -121.5t-90 -71.5q112 -27 112 -143q0 -108 -60 -173.5t-178 -65.5h-232l89 725h206q91 0 137 -39.5t46 -110.5zM175 339l-33 -261h135q142 0 142 164q0 51 -26.5 74t-82.5 23h-135zM213 645l-30 -233h117q131 0 131 148q0 44 -24.5 64.5t-77.5 20.5
h-116z" />
    <glyph glyph-name="C" unicode="C" horiz-adv-x="517" 
d="M332 735q75 0 124.5 -42.5t59.5 -108.5l-72 -26q-16 98 -115 98q-133 0 -155 -164l-36 -266q-2 -20 -2 -30q0 -60 31 -95t88 -35q53 0 86.5 24.5t55.5 81.5l68 -24q-57 -158 -225 -158q-92 0 -145 53.5t-53 143.5q0 25 2 38l36 267q15 114 81.5 178.5t170.5 64.5z" />
    <glyph glyph-name="D" unicode="D" horiz-adv-x="607" 
d="M130 725h234q103 0 159 -53.5t56 -148.5q0 -21 -3 -42l-33 -239q-16 -113 -85.5 -177.5t-182.5 -64.5h-234zM450 244l32 233q2 13 2 37q0 131 -130 131h-140l-70 -567h140q144 0 166 166z" />
    <glyph glyph-name="E" unicode="E" horiz-adv-x="518" 
d="M130 725h393l-10 -82h-299l-29 -232h237l-9 -74h-237l-32 -256h313l-9 -81h-407z" />
    <glyph glyph-name="F" unicode="F" horiz-adv-x="508" 
d="M130 725h394l-10 -82h-300l-30 -241h258l-9 -76h-258l-40 -326h-94z" />
    <glyph glyph-name="G" unicode="G" horiz-adv-x="582" 
d="M352 735q83 0 137.5 -42t65.5 -112l-71 -26q-30 101 -133 101q-154 0 -179 -182l-33 -239q-2 -12 -2 -34q0 -131 135 -131q92 0 148 76l19 145h-102l8 65h184l-42 -356h-78l7 62q-71 -71 -174 -71q-95 0 -147.5 51.5t-52.5 146.5q0 21 3 44l33 241q16 121 85.5 191
t188.5 70z" />
    <glyph glyph-name="H" unicode="H" horiz-adv-x="609" 
d="M130 725h94l-39 -313h266l39 313h94l-89 -725h-94l41 330h-267l-40 -330h-94z" />
    <glyph glyph-name="I" unicode="I" horiz-adv-x="281" 
d="M146 725h94l-89 -725h-94z" />
    <glyph glyph-name="J" unicode="J" horiz-adv-x="274" 
d="M155 725h94l-76 -609q-31 -253 -278 -256l1 75q84 0 127.5 42t55.5 138z" />
    <glyph glyph-name="K" unicode="K" horiz-adv-x="574" 
d="M524 0h-109l-161 337l-91 -100l-29 -237h-93l89 725h93l-47 -382l307 382h110l-269 -324z" />
    <glyph glyph-name="L" unicode="L" horiz-adv-x="470" 
d="M130 725h92l-80 -642h278l-10 -83h-369z" />
    <glyph glyph-name="M" unicode="M" horiz-adv-x="765" 
d="M655 725h86l-89 -725h-86l65 532l-248 -397h-42l-150 397l-64 -532h-86l89 725h86l161 -462z" />
    <glyph glyph-name="N" unicode="N" horiz-adv-x="609" 
d="M130 725h74l231 -524l65 524h84l-89 -725h-67l-237 536l-66 -536h-84z" />
    <glyph glyph-name="O" unicode="O" horiz-adv-x="584" 
d="M346 735q102 0 156.5 -52.5t54.5 -147.5q0 -27 -2 -41l-36 -262q-16 -114 -84 -178t-181 -64q-103 0 -157.5 52.5t-54.5 148.5q0 27 2 41l36 261q16 114 84 178t182 64zM425 232l36 261q2 12 2 35q0 128 -127 128q-140 0 -162 -162l-36 -262q-2 -13 -2 -35
q0 -130 127 -130q140 0 162 165z" />
    <glyph glyph-name="P" unicode="P" horiz-adv-x="545" 
d="M362 725q87 0 132.5 -46t45.5 -131q0 -122 -62 -192.5t-164 -70.5h-144l-35 -285h-94l89 725h232zM214 646l-36 -286h136q132 0 132 186q0 52 -23.5 76t-72.5 24h-136z" />
    <glyph glyph-name="Q" unicode="Q" horiz-adv-x="584" 
d="M346 735q102 0 156.5 -52.5t54.5 -147.5q0 -27 -2 -41l-36 -262q-13 -94 -61.5 -154t-129.5 -79l100 -117l-86 -36l-102 144q-97 4 -147.5 56.5t-50.5 144.5q0 27 2 41l36 261q16 114 84 178t182 64zM425 232l36 261q2 24 2 35q0 128 -127 128q-140 0 -162 -162l-36 -262
q-2 -13 -2 -35q0 -130 127 -130q140 0 162 165z" />
    <glyph glyph-name="R" unicode="R" horiz-adv-x="560" 
d="M400 0l-122 312h-105l-38 -312h-94l89 725h216q182 0 182 -162q0 -97 -43 -158t-118 -76l138 -329h-105zM214 646l-32 -260h117q135 0 135 170q0 47 -23.5 68.5t-76.5 21.5h-120z" />
    <glyph glyph-name="S" unicode="S" horiz-adv-x="481" 
d="M293 735q77 0 127 -38.5t65 -104.5l-69 -29q-10 46 -43 71t-82 25q-64 0 -97 -32.5t-33 -86.5q0 -38 28.5 -67.5t69.5 -51t82.5 -45.5t70 -64t28.5 -94q0 -106 -67 -167t-170 -61q-78 0 -132 43.5t-64 118.5l75 27q9 -55 44 -83.5t85 -28.5q65 0 101.5 33t36.5 98
q0 41 -29 71.5t-70.5 51.5t-83 44.5t-70.5 63.5t-29 94q0 91 62 151.5t164 60.5z" />
    <glyph glyph-name="T" unicode="T" horiz-adv-x="473" 
d="M67 725h444l-10 -82h-175l-79 -643h-94l79 643h-175z" />
    <glyph glyph-name="U" unicode="U" horiz-adv-x="609" 
d="M501 725h93l-64 -499q-14 -112 -82 -174t-182 -62q-103 0 -158 51t-55 144q0 24 2 37l65 503h94l-65 -503q-2 -20 -2 -27q0 -122 129 -122q141 0 160 149z" />
    <glyph glyph-name="V" unicode="V" horiz-adv-x="576" 
d="M617 725l-318 -725h-96l-139 725h103l98 -613l249 613h103z" />
    <glyph glyph-name="W" unicode="W" horiz-adv-x="891" 
d="M911 725l-263 -725h-102l-66 571l-208 -571h-102l-83 725h94l56 -612l218 612h87l66 -612l209 612h94z" />
    <glyph glyph-name="X" unicode="X" horiz-adv-x="566" 
d="M-11 0l242 367l-149 358h105l112 -303l187 303h103l-238 -361l153 -364h-104l-117 307l-191 -307h-103z" />
    <glyph glyph-name="Y" unicode="Y" horiz-adv-x="550" 
d="M594 725l-280 -481l-29 -244h-94l29 245l-159 480h105l113 -395l211 395h104z" />
    <glyph glyph-name="Z" unicode="Z" horiz-adv-x="517" 
d="M446 81l-9 -81h-437l7 57l400 587h-311l10 81h420l-7 -55l-400 -589h327z" />
    <glyph glyph-name="bracketleft" unicode="[" horiz-adv-x="257" 
d="M17 -156l118 969h239l-6 -60h-163l-104 -848h162l-7 -61h-239z" />
    <glyph glyph-name="backslash" unicode="\" horiz-adv-x="316" 
d="M97 745l173 -830h-68l-174 830h69z" />
    <glyph glyph-name="bracketright" unicode="]" horiz-adv-x="258" 
d="M249 813l-119 -969h-240l7 61h161l105 847h-162l6 61h242z" />
    <glyph glyph-name="asciicircum" unicode="^" horiz-adv-x="443" 
d="M79 524l145 226h57l140 -226h-70l-99 163l-101 -163h-72z" />
    <glyph glyph-name="underscore" unicode="_" horiz-adv-x="405" 
d="M-43 -57h404l-7 -59h-404z" />
    <glyph glyph-name="grave" unicode="`" horiz-adv-x="266" 
d="M63 725h97l49 -137h-65z" />
    <glyph glyph-name="a" unicode="a" horiz-adv-x="487" 
d="M27 164l21 150q13 98 62 148.5t128 50.5q69 0 124 -49l10 41h76l-61 -505h-75l2 70q-78 -78 -167 -78q-122 0 -122 133q0 25 2 39zM183 64q74 0 136 77l33 265q-45 39 -102 39q-102 0 -119 -131l-20 -146q-2 -20 -2 -28q0 -76 74 -76z" />
    <glyph glyph-name="b" unicode="b" horiz-adv-x="491" 
d="M207 748l-39 -309q77 75 165 75q122 0 122 -133q0 -25 -2 -39l-21 -151q-13 -98 -62.5 -148.5t-128.5 -50.5q-72 0 -127 51l-9 -43h-73l92 748h83zM297 443q-75 0 -138 -81l-33 -263q48 -40 104 -40q99 0 118 132l21 148q1 9 1 26q0 42 -18.5 60t-54.5 18z" />
    <glyph glyph-name="c" unicode="c" horiz-adv-x="417" 
d="M402 412l-59 -27q-24 61 -90 61q-106 0 -121 -121l-22 -164q-1 -7 -1 -20q0 -84 85 -84q80 0 121 78l58 -23q-67 -121 -199 -121q-73 0 -111.5 38.5t-38.5 103.5q0 8 2 26l23 166q12 84 63.5 136.5t141.5 52.5q114 0 148 -102z" />
    <glyph glyph-name="d" unicode="d" horiz-adv-x="492" 
d="M387 0h-75l1 70q-76 -78 -166 -78q-122 0 -122 133q0 25 2 39l21 150q13 98 62 148.5t128 50.5q68 0 121 -46l35 281h84zM111 167q-2 -20 -2 -28q0 -77 73 -77q74 0 136 78l33 267q-44 38 -101 38q-102 0 -119 -131z" />
    <glyph glyph-name="e" unicode="e" horiz-adv-x="444" 
d="M399 248h-277l-10 -75q-2 -16 -2 -22q0 -45 25 -69.5t72 -24.5q40 0 68 19.5t51 64.5l59 -22q-59 -128 -193 -128q-80 0 -123 41t-43 111q0 9 2 27l22 166q10 79 64 128.5t139 49.5q76 0 117.5 -42.5t41.5 -111.5q0 -18 -1 -27zM134 340l-5 -38h202l6 40q1 7 1 19
q0 42 -23.5 65.5t-66.5 23.5q-99 0 -114 -110z" />
    <glyph glyph-name="f" unicode="f" horiz-adv-x="308" 
d="M317 505l-8 -62h-125l-54 -443h-83l54 443h-63l7 62h64l5 41q10 81 63 130.5t156 53.5l-2 -60q-66 -4 -97 -35.5t-40 -89.5l-6 -40h129z" />
    <glyph glyph-name="g" unicode="g" horiz-adv-x="487" 
d="M29 184l19 130q14 98 62.5 148.5t127.5 50.5q69 0 124 -49l10 41h76l-58 -470q-12 -99 -70 -151.5t-146 -52.5q-70 0 -150 33l14 63q68 -29 125 -29q61 0 100 34.5t46 97.5l6 53q-67 -67 -157 -67q-63 0 -97 36t-34 100q0 10 2 32zM190 81q73 0 129 70l33 256
q-46 38 -102 38q-100 0 -119 -130l-19 -131q-2 -16 -2 -22q0 -81 80 -81z" />
    <glyph glyph-name="h" unicode="h" horiz-adv-x="500" 
d="M453 342l-43 -342h-84l43 339q1 9 1 26q0 42 -18.5 60t-54.5 18q-74 0 -137 -79l-44 -364h-84l92 748h83l-38 -308q77 74 164 74q122 0 122 -133q0 -25 -2 -39z" />
    <glyph glyph-name="i" unicode="i" horiz-adv-x="229" 
d="M98 505h84l-62 -505h-84zM127 725h79l-13 -107h-80z" />
    <glyph glyph-name="j" unicode="j" horiz-adv-x="245" 
d="M142 725h79l-13 -107h-80zM-60 -169l1 67q50 6 77.5 37t34.5 93l59 477h84l-59 -477q-22 -185 -197 -197z" />
    <glyph glyph-name="k" unicode="k" horiz-adv-x="484" 
d="M124 748h84l-62 -503l236 260h94l-198 -218l156 -287h-97l-122 234l-80 -77l-19 -157h-84z" />
    <glyph glyph-name="l" unicode="l" horiz-adv-x="235" 
d="M131 748h84l-92 -748h-84z" />
    <glyph glyph-name="m" unicode="m" horiz-adv-x="729" 
d="M535 442q-40 0 -76.5 -31.5t-42.5 -80.5l-41 -330h-84l42 338q2 20 2 29q0 75 -63 75q-61 0 -115 -71l-46 -371h-83l61 505h75l-7 -67q68 76 147 76q42 0 69.5 -23t36.5 -66q63 89 158 89q56 0 85.5 -35t29.5 -101q0 -24 -3 -43l-41 -335h-84l42 338q2 20 2 29
q0 75 -64 75z" />
    <glyph glyph-name="n" unicode="n" horiz-adv-x="496" 
d="M448 342l-42 -342h-84l41 329q3 30 3 37q0 76 -73 76t-136 -77l-46 -365h-83l61 505h75l-3 -70q76 79 167 79q122 0 122 -133q0 -25 -2 -39z" />
    <glyph glyph-name="o" unicode="o" horiz-adv-x="469" 
d="M430 336l-23 -169q-11 -79 -66 -127.5t-145 -48.5q-82 0 -126 40.5t-44 107.5q0 10 2 28l22 169q10 80 65 129t146 49q83 0 126.5 -41.5t43.5 -110.5q0 -17 -1 -26zM134 333l-22 -162q-2 -16 -2 -24q0 -90 94 -90q103 0 119 114l22 162q1 8 1 24q0 91 -93 91
q-103 0 -119 -115z" />
    <glyph glyph-name="p" unicode="p" horiz-adv-x="487" 
d="M449 342l-21 -151q-13 -98 -62.5 -148.5t-128.5 -50.5q-69 0 -122 47l-25 -208h-84l83 674h75l-4 -70q79 79 168 79q123 0 123 -135q0 -24 -2 -37zM293 443q-73 0 -137 -78l-34 -266q46 -40 103 -40q101 0 119 132l19 139q3 21 3 37q0 76 -73 76z" />
    <glyph glyph-name="q" unicode="q" horiz-adv-x="487" 
d="M28 170l20 144q13 98 62 148.5t128 50.5q69 0 124 -49l10 41h76l-83 -674h-84l29 236q-77 -75 -163 -75q-122 0 -122 133q0 24 3 45zM183 64q75 0 137 79l32 263q-45 39 -102 39q-102 0 -119 -131l-20 -146q-2 -20 -2 -28q0 -76 74 -76z" />
    <glyph glyph-name="r" unicode="r" horiz-adv-x="342" 
d="M351 500l-18 -77q-21 12 -42 12q-48 0 -87.5 -51t-60.5 -133l-32 -251h-83l61 505h73l-9 -125q63 133 150 133q29 0 48 -13z" />
    <glyph glyph-name="s" unicode="s" horiz-adv-x="404" 
d="M382 406l-59 -23q-20 69 -92 69q-44 0 -69 -22.5t-25 -56.5q0 -26 22 -44.5t53.5 -31t63.5 -27.5t54 -43t22 -68q0 -73 -51.5 -120.5t-128.5 -47.5q-124 0 -157 112l58 26q22 -76 103 -76q44 0 70 24t26 65q0 27 -22 46t-54 32t-64 27.5t-54 42t-22 66.5q0 66 48.5 112
t130.5 46q119 0 147 -108z" />
    <glyph glyph-name="t" unicode="t" horiz-adv-x="323" 
d="M316 505l-7 -65h-124l-38 -307q-1 -6 -1 -16q0 -59 58 -59q24 0 47 9l4 -52q-41 -22 -87 -22q-107 0 -107 110q0 17 3 39l37 294l-63 14l7 53l68 4l39 143h60l-19 -145h123z" />
    <glyph glyph-name="u" unicode="u" horiz-adv-x="496" 
d="M163 505l-42 -336q-2 -20 -2 -28q0 -76 73 -76q71 0 135 76l46 364h84l-62 -505h-74l2 71q-76 -78 -167 -78q-122 0 -122 133q0 27 3 48l42 331h84z" />
    <glyph glyph-name="v" unicode="v" horiz-adv-x="479" 
d="M489 505l-240 -505h-93l-115 505h95l75 -427l183 427h95z" />
    <glyph glyph-name="w" unicode="w" horiz-adv-x="701" 
d="M415 0l-52 408l-151 -408h-92l-76 505h88l46 -423l157 423h81l52 -424l151 424h88l-199 -505h-93z" />
    <glyph glyph-name="x" unicode="x" horiz-adv-x="473" 
d="M-15 0l190 259l-121 246h96l90 -201l136 201h95l-182 -249l126 -256h-96l-96 211l-142 -211h-96z" />
    <glyph glyph-name="y" unicode="y" horiz-adv-x="490" 
d="M497 505l-254 -529q-34 -72 -79.5 -106t-114.5 -38v61q44 6 71 27t49 66l12 25l-137 494h94l96 -401l175 401h88z" />
    <glyph glyph-name="z" unicode="z" horiz-adv-x="417" 
d="M348 68l-7 -68h-339l5 52l289 385h-229l7 68h332l-6 -50l-291 -387h239z" />
    <glyph glyph-name="braceleft" unicode="{" horiz-adv-x="263" 
d="M26 302l7 53q94 9 94 84q0 16 -7 67.5t-7 85.5q0 221 239 221h27l-6 -53h-27q-157 0 -157 -172q0 -31 6.5 -81t6.5 -68q0 -87 -84 -110q62 -19 62 -76q0 -28 -28 -102t-34 -122q-2 -16 -2 -23q0 -53 31.5 -80.5t92.5 -27.5h27l-6 -54h-27q-94 0 -145 37.5t-51 109.5
q0 9 2 27q7 54 35 128t28 97q0 25 -20.5 40.5t-56.5 18.5z" />
    <glyph glyph-name="bar" unicode="|" horiz-adv-x="263" 
d="M37 -156l118 969h79l-118 -969h-79z" />
    <glyph glyph-name="braceright" unicode="}" horiz-adv-x="263" 
d="M243 355l-6 -53q-45 -4 -70 -24.5t-25 -55.5q0 -16 7.5 -67.5t7.5 -87.5q0 -110 -61 -166.5t-178 -56.5h-27l7 55h26q77 0 116.5 44t39.5 127q0 31 -6.5 81t-6.5 70q0 84 85 108q-63 18 -63 75q0 23 32 107.5t32 141.5q0 106 -124 106h-27l7 54h26q94 0 145.5 -36.5
t51.5 -108.5q0 -8 -2 -26q-7 -54 -36 -129.5t-29 -98.5q0 -51 78 -59z" />
    <glyph glyph-name="asciitilde" unicode="~" horiz-adv-x="493" 
d="M161 606h-64q13 141 117 141q30 0 54.5 -13.5t38 -29.5t31.5 -29.5t35 -13.5q23 0 35 17t16 58h65q-13 -141 -117 -141q-30 0 -54.5 13.5t-38 29.5t-31.5 29.5t-35 13.5q-23 0 -35.5 -17t-16.5 -58z" />
    <glyph glyph-name="uni00A0" unicode="&#xa0;" horiz-adv-x="225" 
 />
    <glyph glyph-name="exclamdown" unicode="&#xa1;" horiz-adv-x="229" 
d="M108 -100h-85l38 299l34 216h68l-17 -214zM204 625l-13 -108h-100l13 108h100z" />
    <glyph glyph-name="cent" unicode="&#xa2;" horiz-adv-x="417" 
d="M406 400l-62 -25q-20 70 -93 70q-102 0 -118 -116l-21 -152q-2 -18 -2 -25q0 -95 92 -95q74 0 112 77l59 -22q-50 -104 -150 -118l-22 -93h-54l9 92q-63 9 -96.5 50t-33.5 103q0 14 3 35l21 151q10 74 54.5 122.5t118.5 57.5l25 110h54l-11 -112q88 -18 115 -110z" />
    <glyph glyph-name="sterling" unicode="&#xa3;" horiz-adv-x="548" 
d="M51 328l-3 64h69q0 8 -0.5 23.5t-0.5 22.5q0 138 59 218t172 80q74 0 122 -40.5t56 -108.5l-68 -25q-19 96 -115 96q-44 0 -72.5 -18t-43.5 -55.5t-20.5 -82.5t-5.5 -110h228l-16 -64h-212q0 -12 0.5 -35.5t0.5 -33.5q0 -11 -0.5 -29t-0.5 -24q26 -10 49.5 -33.5
t38.5 -45.5t36 -39.5t44 -17.5q32 0 52.5 27.5t39.5 93.5l63 -17q-25 -96 -64.5 -140t-95.5 -44q-43 0 -74 25t-59.5 68t-40.5 55q-31 -148 -131 -148q-35 0 -55 20t-20 57q0 57 40 97t104 48q-5 57 -7 116h-69zM71 52q22 0 35 23.5t21 82.5q-40 -3 -59 -26.5t-19 -52.5
q0 -27 22 -27z" />
    <glyph glyph-name="currency" unicode="&#xa4;" horiz-adv-x="387" 
d="M86 362q0 43 27 82l-39 47l39 37l39 -47q32 19 65 19q35 0 61 -20l52 50l30 -37l-51 -49q11 -24 11 -50q0 -44 -28 -84l40 -47l-38 -37l-41 48q-30 -19 -65 -19q-34 0 -60 18l-51 -49l-30 37l51 49q-12 24 -12 52zM211 445q-28 0 -50 -23.5t-22 -52.5q0 -26 15.5 -42.5
t40.5 -16.5q28 0 50 22.5t22 53.5q0 25 -16 42t-40 17z" />
    <glyph glyph-name="yen" unicode="&#xa5;" horiz-adv-x="580" 
d="M454 162h-129l-19 -162h-94l19 162h-138l7 61h138l6 47h-138l7 61h121l-146 394h105l111 -354l199 354h105l-245 -394h111l-7 -61h-129l-6 -47h129z" />
    <glyph glyph-name="brokenbar" unicode="&#xa6;" horiz-adv-x="263" 
d="M104 398l51 415h79l-51 -415h-79zM37 -156l51 415h78l-50 -415h-79z" />
    <glyph glyph-name="section" unicode="&#xa7;" horiz-adv-x="433" 
d="M17 -42l66 18q17 -72 89 -72q46 0 70 26t24 63q0 29 -23 56.5t-56 51.5t-66 49.5t-56 63t-23 80.5q0 55 29 96t78 63q-55 55 -55 115q0 69 47.5 118t132.5 49q63 0 102 -32.5t48 -91.5l-66 -17q-16 71 -89 71q-47 0 -70 -25.5t-23 -62.5q0 -29 23 -57t56 -51.5
t65.5 -49.5t55.5 -63t23 -81q0 -55 -29 -96.5t-78 -62.5q55 -55 55 -117q0 -68 -47.5 -116.5t-131.5 -48.5q-64 0 -102.5 32.5t-48.5 91.5zM243 159q81 30 81 99q0 13 -3 25t-12 24.5t-15 21t-22 22t-22.5 19t-26.5 21t-25 19.5q-81 -29 -81 -99q0 -15 6 -30t12.5 -25.5
t23 -26.5t24.5 -22.5t31 -24.5t29 -23z" />
    <glyph glyph-name="dieresis" unicode="&#xa8;" horiz-adv-x="266" 
d="M83 725h66l-14 -107h-65zM223 725h65l-14 -107h-65z" />
    <glyph glyph-name="copyright" unicode="&#xa9;" horiz-adv-x="698" 
d="M351 618q64 0 108 -34.5t58 -90.5l-57 -19q-23 83 -103 83q-53 0 -81 -33.5t-28 -94.5v-138q0 -58 28 -92.5t80 -34.5q44 0 68 20t37 70l58 -17q-29 -133 -168 -133q-83 0 -132.5 51.5t-49.5 134.5v139q0 87 48.5 138t133.5 51zM646 426v-131q0 -133 -79.5 -220.5
t-217.5 -87.5t-217.5 87t-79.5 221v131q0 134 79.5 221.5t217.5 87.5t217.5 -87.5t79.5 -221.5zM590 296v130q0 114 -64.5 185t-177.5 71q-112 0 -176 -71t-64 -185v-130q0 -114 64 -185t177 -71t177 71t64 185z" />
    <glyph glyph-name="ordfeminine" unicode="&#xaa;" horiz-adv-x="298" 
d="M51 543l11 86q15 121 124 121q44 0 79 -28l6 24h54l-38 -305h-53l1 39q-49 -46 -108 -46q-38 0 -58 22.5t-20 63.5q0 7 2 23zM153 481q48 0 85 43l20 160q-28 23 -63 23q-64 0 -74 -79l-10 -74q-2 -16 -2 -24q0 -49 44 -49z" />
    <glyph glyph-name="guillemotleft" unicode="&#xab;" horiz-adv-x="404" 
d="M398 437l-146 -178l102 -179h-75l-100 179l144 178h75zM237 437l-146 -178l102 -179h-75l-100 179l144 178h75z" />
    <glyph glyph-name="logicalnot" unicode="&#xac;" horiz-adv-x="462" 
d="M347 130v148h-296v66h360v-214h-64z" />
    <glyph glyph-name="uni00AD" unicode="&#xad;" horiz-adv-x="268" 
d="M21 256l8 74h217l-9 -74h-216z" />
    <glyph glyph-name="registered" unicode="&#xae;" horiz-adv-x="269" 
d="M291 668v-55q0 -49 -30 -82t-86 -33t-86 32.5t-30 82.5v55q0 49 29.5 81t86.5 32q56 0 86 -32t30 -81zM86 668v-55q0 -89 88 -89q91 0 91 89v55q0 88 -91 88q-88 0 -88 -88zM208 561l-34 65h-21v-65h-35v164h61q60 0 60 -48q0 -37 -33 -45l41 -71h-39zM153 698v-48h26
q24 0 24 25q0 23 -24 23h-26z" />
    <glyph glyph-name="macron" unicode="&#xaf;" horiz-adv-x="266" 
d="M298 683l-6 -58h-238l7 58h237z" />
    <glyph glyph-name="degree" unicode="&#xb0;" horiz-adv-x="255" 
d="M67 676q0 45 30.5 77t74.5 32t75 -32t31 -77q0 -46 -31 -77.5t-75 -31.5t-74.5 31.5t-30.5 77.5zM115 676q0 -27 16.5 -44.5t40.5 -17.5t40.5 17.5t16.5 44.5q0 26 -16.5 43.5t-40.5 17.5t-40.5 -17.5t-16.5 -43.5z" />
    <glyph glyph-name="plusminus" unicode="&#xb1;" horiz-adv-x="462" 
d="M197 140v162h-146v65h146v167h64v-167h151v-65h-151v-162h-64zM412 41h-361v66h361v-66z" />
    <glyph glyph-name="twosuperior" unicode="&#xb2;" horiz-adv-x="271" 
d="M198 801q46 0 68.5 -20.5t22.5 -52.5q0 -39 -23.5 -71t-53 -49t-58.5 -40t-36 -45h149l-5 -45h-208l1 26q6 36 35 68t60 51t56.5 45.5t25.5 53.5q0 33 -43 33q-22 0 -39.5 -14t-26.5 -38l-43 15q37 83 118 83z" />
    <glyph glyph-name="threesuperior" unicode="&#xb3;" horiz-adv-x="271" 
d="M139 621l5 42h25q57 0 57 58q0 35 -41 35q-44 0 -65 -45l-40 15q15 35 45.5 55t70.5 20q44 0 66.5 -20t22.5 -53q0 -63 -54 -84q43 -12 43 -59q0 -54 -33 -82.5t-87 -28.5q-83 0 -99 70l43 16q12 -42 58 -42q58 0 58 65q0 38 -49 38h-26z" />
    <glyph glyph-name="acute" unicode="&#xb4;" horiz-adv-x="266" 
d="M176 725h97l-107 -137h-64z" />
    <glyph glyph-name="mu" unicode="&#xb5;" horiz-adv-x="506" 
d="M48 179l41 326h84l-41 -326q-2 -16 -2 -23q0 -44 23.5 -67t67.5 -23q68 0 114 55l48 384h84l-61 -505h-75l1 51q-49 -52 -117 -52q-75 0 -103 58q-10 -128 -10 -221l-85 -6q14 219 31 349z" />
    <glyph glyph-name="paragraph" unicode="&#xb6;" horiz-adv-x="589" 
d="M221 748h426l-9 -77h-108l-103 -834h-82l103 834h-156l-103 -834h-80l79 624q-68 0 -102.5 31.5t-34.5 88.5q0 71 45 119t125 48z" />
    <glyph glyph-name="periodcentered" unicode="&#xb7;" horiz-adv-x="230" 
d="M55 318q0 27 17.5 46t41.5 19q25 0 43 -19t18 -46q0 -26 -18 -45t-43 -19q-24 0 -41.5 19t-17.5 45z" />
    <glyph glyph-name="cedilla" unicode="&#xb8;" horiz-adv-x="266" 
d="M62 18l47 -3l-13 -47q70 -11 70 -53q0 -36 -34 -59.5t-93 -27.5l-9 41q38 7 53 15.5t15 22.5q0 21 -65 25z" />
    <glyph glyph-name="onesuperior" unicode="&#xb9;" horiz-adv-x="212" 
d="M171 799h47l-39 -321h-59l28 225h-67l5 38h27q28 0 39 11t19 47z" />
    <glyph glyph-name="ordmasculine" unicode="&#xba;" horiz-adv-x="284" 
d="M309 638l-12 -92q-6 -48 -42.5 -80t-96.5 -32q-54 0 -83 27t-29 70q0 7 2 21l11 86q6 48 42 80t95 32q55 0 84.5 -27.5t29.5 -70.5q0 -2 -0.5 -6.5t-0.5 -7.5zM118 633l-11 -76q-2 -10 -2 -20q0 -59 58 -59q66 0 75 72l11 83q1 5 1 14q0 57 -59 57q-65 0 -73 -71z" />
    <glyph glyph-name="guillemotright" unicode="&#xbb;" horiz-adv-x="404" 
d="M157 80l145 179l-102 178h75l100 -178l-144 -179h-74zM-4 80l145 179l-102 178h75l100 -178l-144 -179h-74z" />
    <glyph glyph-name="onequarter" unicode="&#xbc;" horiz-adv-x="567" 
d="M199 727h47l-39 -321h-59l28 225h-67l5 38h27q28 0 39 11t19 47zM82 0h-59l471 725l60 2zM465 0h-50l7 59h-152l5 37l175 223h54l-27 -216h40l-10 -44h-35zM336 103h92l22 155z" />
    <glyph glyph-name="onehalf" unicode="&#xbd;" horiz-adv-x="567" 
d="M199 727h47l-39 -321h-59l28 225h-67l5 38h27q28 0 39 11t19 47zM82 0h-59l471 725l60 2zM438 323q46 0 68.5 -20.5t22.5 -52.5q0 -39 -23.5 -71t-53 -49t-58.5 -40t-36 -45h149l-5 -45h-208l1 26q6 36 35 68t60 51t56.5 45.5t25.5 53.5q0 33 -43 33q-22 0 -39.5 -14
t-26.5 -38l-43 15q37 83 118 83z" />
    <glyph glyph-name="threequarters" unicode="&#xbe;" horiz-adv-x="567" 
d="M126 549l5 42h25q57 0 57 58q0 35 -41 35q-44 0 -65 -45l-40 15q15 35 45.5 55t70.5 20q44 0 66.5 -20t22.5 -53q0 -63 -54 -84q43 -12 43 -59q0 -54 -33 -82.5t-87 -28.5q-83 0 -99 70l43 16q12 -42 58 -42q58 0 58 65q0 38 -49 38h-26zM82 0h-59l471 725h60zM455 0h-50
l7 59h-152l5 37l175 223h54l-27 -216h40l-10 -44h-35zM326 103h92l22 155z" />
    <glyph glyph-name="questiondown" unicode="&#xbf;" horiz-adv-x="482" 
d="M431 52q-33 -72 -96.5 -117t-145.5 -45q-91 0 -134.5 43t-43.5 109q0 84 55.5 156t149.5 113l21 105h64l-11 -145q-191 -81 -191 -216q0 -41 24.5 -66t78.5 -25q109 0 163 111zM345 625l-13 -108h-101l13 108h101z" />
    <glyph glyph-name="Agrave" unicode="&#xc0;" horiz-adv-x="589" 
d="M148 185l-77 -185h-96l320 725h103l143 -725h-97l-32 185h-264zM335 636l-157 -379h222zM225 872h108l54 -112h-74z" />
    <glyph glyph-name="Aacute" unicode="&#xc1;" horiz-adv-x="589" 
d="M148 185l-77 -185h-96l320 725h103l143 -725h-97l-32 185h-264zM335 636l-157 -379h222zM388 872h107l-107 -112h-74z" />
    <glyph glyph-name="Acircumflex" unicode="&#xc2;" horiz-adv-x="589" 
d="M148 185l-77 -185h-96l320 725h103l143 -725h-97l-32 185h-264zM335 636l-157 -379h222zM300 760h-74l102 112h69l76 -112h-74l-42 65z" />
    <glyph glyph-name="Atilde" unicode="&#xc3;" horiz-adv-x="589" 
d="M148 185l-77 -185h-96l320 725h103l143 -725h-97l-32 185h-264zM335 636l-157 -379h222zM460 873l44 -7q-16 -58 -38 -85.5t-58 -27.5q-23 0 -42 17t-33.5 34t-26.5 17q-24 0 -44 -62l-45 6q16 58 38 86t58 28q24 0 43 -17.5t33 -34.5t26 -17q25 0 45 63z" />
    <glyph glyph-name="Adieresis" unicode="&#xc4;" horiz-adv-x="589" 
d="M148 185l-77 -185h-96l320 725h103l143 -725h-97l-32 185h-264zM335 636l-157 -379h222zM247 872h68l-12 -101h-67zM413 872h67l-12 -101h-67z" />
    <glyph glyph-name="Aring" unicode="&#xc5;" horiz-adv-x="589" 
d="M148 185l-77 -185h-96l320 725h103l143 -725h-97l-32 185h-264zM335 636l-157 -379h222zM271 813q0 34 28.5 59t67.5 25q34 0 55 -18.5t21 -47.5q0 -36 -27.5 -60t-66.5 -24q-35 0 -56.5 18.5t-21.5 47.5zM363 859q-15 0 -28 -12t-13 -30q0 -14 8.5 -23t23.5 -9
q17 0 28.5 12t11.5 29q0 14 -8.5 23.5t-22.5 9.5z" />
    <glyph glyph-name="AE" unicode="&#xc6;" horiz-adv-x="834" 
d="M180 188l-107 -188h-96l424 725h438l-10 -82h-301l-7 -232h237l-8 -74h-231l-7 -256h258l-9 -81h-347l6 188h-240zM222 260h201l13 373z" />
    <glyph glyph-name="Ccedilla" unicode="&#xc7;" horiz-adv-x="517" 
d="M332 735q75 0 124.5 -42.5t59.5 -108.5l-72 -26q-16 98 -115 98q-133 0 -155 -164l-36 -266q-2 -20 -2 -30q0 -60 31 -95t88 -35q53 0 86.5 24.5t55.5 81.5l68 -24q-55 -149 -208 -157l-6 -23q70 -11 70 -53q0 -36 -34 -59.5t-93 -27.5l-9 41q38 7 53 15.5t15 22.5
q0 21 -65 25l20 60q-78 9 -122 61t-44 134q0 25 2 38l36 267q15 114 81.5 178.5t170.5 64.5z" />
    <glyph glyph-name="Egrave" unicode="&#xc8;" horiz-adv-x="518" 
d="M130 725h393l-10 -82h-299l-29 -232h237l-9 -74h-237l-32 -256h313l-9 -81h-407zM223 872h108l54 -112h-74z" />
    <glyph glyph-name="Eacute" unicode="&#xc9;" horiz-adv-x="518" 
d="M130 725h393l-10 -82h-299l-29 -232h237l-9 -74h-237l-32 -256h313l-9 -81h-407zM353 872h107l-107 -112h-74z" />
    <glyph glyph-name="Ecircumflex" unicode="&#xca;" horiz-adv-x="518" 
d="M130 725h393l-10 -82h-299l-29 -232h237l-9 -74h-237l-32 -256h313l-9 -81h-407zM288 760h-74l102 112h69l76 -112h-74l-42 65z" />
    <glyph glyph-name="Edieresis" unicode="&#xcb;" horiz-adv-x="518" 
d="M130 725h393l-10 -82h-299l-29 -232h237l-9 -74h-237l-32 -256h313l-9 -81h-407zM232 872h68l-12 -101h-67zM398 872h67l-12 -101h-67z" />
    <glyph glyph-name="Igrave" unicode="&#xcc;" horiz-adv-x="281" 
d="M146 725h94l-89 -725h-94zM79 872h108l54 -112h-74z" />
    <glyph glyph-name="Iacute" unicode="&#xcd;" horiz-adv-x="281" 
d="M146 725h94l-89 -725h-94zM228 872h107l-107 -112h-74z" />
    <glyph glyph-name="Icircumflex" unicode="&#xce;" horiz-adv-x="281" 
d="M146 725h94l-89 -725h-94zM149 760h-74l102 112h69l76 -112h-74l-42 65z" />
    <glyph glyph-name="Idieresis" unicode="&#xcf;" horiz-adv-x="281" 
d="M146 725h94l-89 -725h-94zM95 872h68l-12 -101h-67zM261 872h67l-12 -101h-67z" />
    <glyph glyph-name="Eth" unicode="&#xd0;" horiz-adv-x="618" 
d="M142 725h234q103 0 159 -53.5t56 -148.5q0 -21 -3 -42l-33 -239q-16 -113 -85.5 -177.5t-182.5 -64.5h-234l42 344h-72l6 56h73zM496 514q0 131 -130 131h-140l-30 -245h78l-6 -56h-79l-33 -266h140q144 0 166 166l32 233q2 13 2 37z" />
    <glyph glyph-name="Ntilde" unicode="&#xd1;" horiz-adv-x="609" 
d="M130 725h74l231 -524l65 524h84l-89 -725h-67l-237 536l-66 -536h-84zM472 873l44 -7q-16 -58 -38 -85.5t-58 -27.5q-23 0 -42 17t-33.5 34t-26.5 17q-24 0 -44 -62l-45 6q16 58 38 86t58 28q24 0 43 -17.5t33 -34.5t26 -17q25 0 45 63z" />
    <glyph glyph-name="Ograve" unicode="&#xd2;" horiz-adv-x="584" 
d="M346 735q102 0 156.5 -52.5t54.5 -147.5q0 -27 -2 -41l-36 -262q-16 -114 -84 -178t-181 -64q-103 0 -157.5 52.5t-54.5 148.5q0 27 2 41l36 261q16 114 84 178t182 64zM425 232l36 261q2 12 2 35q0 128 -127 128q-140 0 -162 -162l-36 -262q-2 -13 -2 -35
q0 -130 127 -130q140 0 162 165zM237 872h108l54 -112h-74z" />
    <glyph glyph-name="Oacute" unicode="&#xd3;" horiz-adv-x="584" 
d="M346 735q102 0 156.5 -52.5t54.5 -147.5q0 -27 -2 -41l-36 -262q-16 -114 -84 -178t-181 -64q-103 0 -157.5 52.5t-54.5 148.5q0 27 2 41l36 261q16 114 84 178t182 64zM425 232l36 261q2 12 2 35q0 128 -127 128q-140 0 -162 -162l-36 -262q-2 -13 -2 -35
q0 -130 127 -130q140 0 162 165zM372 872h107l-107 -112h-74z" />
    <glyph glyph-name="Ocircumflex" unicode="&#xd4;" horiz-adv-x="584" 
d="M346 735q102 0 156.5 -52.5t54.5 -147.5q0 -27 -2 -41l-36 -262q-16 -114 -84 -178t-181 -64q-103 0 -157.5 52.5t-54.5 148.5q0 27 2 41l36 261q16 114 84 178t182 64zM425 232l36 261q2 12 2 35q0 128 -127 128q-140 0 -162 -162l-36 -262q-2 -13 -2 -35
q0 -130 127 -130q140 0 162 165zM299 760h-74l102 112h69l76 -112h-74l-42 65z" />
    <glyph glyph-name="Otilde" unicode="&#xd5;" horiz-adv-x="584" 
d="M346 735q102 0 156.5 -52.5t54.5 -147.5q0 -27 -2 -41l-36 -262q-16 -114 -84 -178t-181 -64q-103 0 -157.5 52.5t-54.5 148.5q0 27 2 41l36 261q16 114 84 178t182 64zM425 232l36 261q2 12 2 35q0 128 -127 128q-140 0 -162 -162l-36 -262q-2 -13 -2 -35
q0 -130 127 -130q140 0 162 165zM455 873l44 -7q-16 -58 -38 -85.5t-58 -27.5q-23 0 -42 17t-33.5 34t-26.5 17q-24 0 -44 -62l-45 6q16 58 38 86t58 28q24 0 43 -17.5t33 -34.5t26 -17q25 0 45 63z" />
    <glyph glyph-name="Odieresis" unicode="&#xd6;" horiz-adv-x="584" 
d="M346 735q102 0 156.5 -52.5t54.5 -147.5q0 -27 -2 -41l-36 -262q-16 -114 -84 -178t-181 -64q-103 0 -157.5 52.5t-54.5 148.5q0 27 2 41l36 261q16 114 84 178t182 64zM425 232l36 261q2 12 2 35q0 128 -127 128q-140 0 -162 -162l-36 -262q-2 -13 -2 -35
q0 -130 127 -130q140 0 162 165zM245 872h68l-12 -101h-67zM411 872h67l-12 -101h-67z" />
    <glyph glyph-name="multiply" unicode="&#xd7;" horiz-adv-x="462" 
d="M348 139l-118 125l-117 -125l-44 47l117 125l-117 126l44 47l117 -126l118 126l44 -47l-118 -126l118 -125z" />
    <glyph glyph-name="Oslash" unicode="&#xd8;" horiz-adv-x="584" 
d="M346 735q116 0 171 -69l47 59l30 -26l-55 -69q18 -42 18 -97q0 -25 -2 -39l-36 -262q-16 -114 -84 -178t-181 -64q-116 0 -171 67l-44 -55l-30 27l51 65q-18 40 -18 96q0 27 2 42l36 261q16 114 84 178t182 64zM138 232q-3 -18 -3 -33q0 -2 0.5 -5.5t0.5 -5.5l318 399
q-26 69 -118 69q-140 0 -162 -162zM425 232l36 261q2 30 2 41l-318 -399q25 -68 118 -68q140 0 162 165z" />
    <glyph glyph-name="Ugrave" unicode="&#xd9;" horiz-adv-x="609" 
d="M501 725h93l-64 -499q-14 -112 -82 -174t-182 -62q-103 0 -158 51t-55 144q0 24 2 37l65 503h94l-65 -503q-2 -20 -2 -27q0 -122 129 -122q141 0 160 149zM260 872h108l54 -112h-74z" />
    <glyph glyph-name="Uacute" unicode="&#xda;" horiz-adv-x="609" 
d="M501 725h93l-64 -499q-14 -112 -82 -174t-182 -62q-103 0 -158 51t-55 144q0 24 2 37l65 503h94l-65 -503q-2 -20 -2 -27q0 -122 129 -122q141 0 160 149zM383 872h107l-107 -112h-74z" />
    <glyph glyph-name="Ucircumflex" unicode="&#xdb;" horiz-adv-x="609" 
d="M501 725h93l-64 -499q-14 -112 -82 -174t-182 -62q-103 0 -158 51t-55 144q0 24 2 37l65 503h94l-65 -503q-2 -20 -2 -27q0 -122 129 -122q141 0 160 149zM312 760h-74l102 112h69l76 -112h-74l-42 65z" />
    <glyph glyph-name="Udieresis" unicode="&#xdc;" horiz-adv-x="609" 
d="M501 725h93l-64 -499q-14 -112 -82 -174t-182 -62q-103 0 -158 51t-55 144q0 24 2 37l65 503h94l-65 -503q-2 -20 -2 -27q0 -122 129 -122q141 0 160 149zM258 872h68l-12 -101h-67zM424 872h67l-12 -101h-67z" />
    <glyph glyph-name="Yacute" unicode="&#xdd;" horiz-adv-x="550" 
d="M594 725l-280 -481l-29 -244h-94l29 245l-159 480h105l113 -395l211 395h104zM357 872h107l-107 -112h-74z" />
    <glyph glyph-name="Thorn" unicode="&#xde;" horiz-adv-x="545" 
d="M345 595q86 0 132 -45.5t46 -129.5q0 -123 -61.5 -194t-164.5 -71h-143l-19 -155h-94l89 725h94l-17 -130h138zM198 516l-36 -286h136q131 0 131 187q0 52 -22.5 75.5t-72.5 23.5h-136z" />
    <glyph glyph-name="germandbls" unicode="&#xdf;" horiz-adv-x="496" 
d="M252 385q0 47 26.5 84t74.5 55q10 32 10 54q0 30 -16 47.5t-46 17.5q-105 0 -126 -175l-58 -468h-85l58 469q14 116 69.5 178.5t144.5 62.5q62 0 96.5 -37t34.5 -96q0 -48 -23 -99q-75 -17 -75 -79q0 -23 19 -47.5t41.5 -43.5t41.5 -53t19 -76q0 -87 -53 -138t-137 -51
q-81 0 -124 42l27 61q34 -34 93 -34q49 0 79 29.5t30 81.5q0 25 -12.5 47t-30.5 39.5t-35.5 35t-30 41.5t-12.5 52z" />
    <glyph glyph-name="agrave" unicode="&#xe0;" horiz-adv-x="487" 
d="M182 725h97l49 -137h-65zM27 164l21 150q13 98 62 148.5t128 50.5q69 0 124 -49l10 41h76l-61 -505h-75l2 70q-78 -78 -167 -78q-122 0 -122 133q0 25 2 39zM183 64q74 0 136 77l33 265q-45 39 -102 39q-102 0 -119 -131l-20 -146q-2 -20 -2 -28q0 -76 74 -76z" />
    <glyph glyph-name="aacute" unicode="&#xe1;" horiz-adv-x="487" 
d="M296 725h97l-107 -137h-64zM27 164l21 150q13 98 62 148.5t128 50.5q69 0 124 -49l10 41h76l-61 -505h-75l2 70q-78 -78 -167 -78q-122 0 -122 133q0 25 2 39zM183 64q74 0 136 77l33 265q-45 39 -102 39q-102 0 -119 -131l-20 -146q-2 -20 -2 -28q0 -76 74 -76z" />
    <glyph glyph-name="acircumflex" unicode="&#xe2;" horiz-adv-x="487" 
d="M222 588h-71l108 137h59l74 -137h-71l-40 84zM27 164l21 150q13 98 62 148.5t128 50.5q69 0 124 -49l10 41h76l-61 -505h-75l2 70q-78 -78 -167 -78q-122 0 -122 133q0 25 2 39zM183 64q74 0 136 77l33 265q-45 39 -102 39q-102 0 -119 -131l-20 -146q-2 -20 -2 -28
q0 -76 74 -76z" />
    <glyph glyph-name="atilde" unicode="&#xe3;" horiz-adv-x="487" 
d="M381 725l44 -9q-18 -67 -40.5 -99t-58.5 -32q-19 0 -35 13.5t-25 30t-19.5 30t-20.5 13.5q-14 0 -24.5 -18t-21.5 -62l-45 9q18 68 40 100t59 32q19 0 35 -13.5t25 -30.5t19.5 -30.5t20.5 -13.5q25 0 47 80zM27 164l21 150q13 98 62 148.5t128 50.5q69 0 124 -49l10 41
h76l-61 -505h-75l2 70q-78 -78 -167 -78q-122 0 -122 133q0 25 2 39zM183 64q74 0 136 77l33 265q-45 39 -102 39q-102 0 -119 -131l-20 -146q-2 -20 -2 -28q0 -76 74 -76z" />
    <glyph glyph-name="adieresis" unicode="&#xe4;" horiz-adv-x="487" 
d="M187 725h66l-14 -107h-65zM327 725h65l-14 -107h-65zM27 164l21 150q13 98 62 148.5t128 50.5q69 0 124 -49l10 41h76l-61 -505h-75l2 70q-78 -78 -167 -78q-122 0 -122 133q0 25 2 39zM183 64q74 0 136 77l33 265q-45 39 -102 39q-102 0 -119 -131l-20 -146
q-2 -20 -2 -28q0 -76 74 -76z" />
    <glyph glyph-name="aring" unicode="&#xe5;" horiz-adv-x="487" 
d="M195 652q0 35 27 63.5t69 28.5q34 0 55 -19.5t21 -51.5q0 -40 -28 -65.5t-67 -25.5q-35 0 -56 19.5t-21 50.5zM286 704q-18 0 -29.5 -15t-11.5 -34q0 -32 32 -32q18 0 29.5 12.5t11.5 32.5q0 15 -8.5 25.5t-23.5 10.5zM27 164l21 150q13 98 62 148.5t128 50.5
q69 0 124 -49l10 41h76l-61 -505h-75l2 70q-78 -78 -167 -78q-122 0 -122 133q0 25 2 39zM183 64q74 0 136 77l33 265q-45 39 -102 39q-102 0 -119 -131l-20 -146q-2 -20 -2 -28q0 -76 74 -76z" />
    <glyph glyph-name="ae" unicode="&#xe6;" horiz-adv-x="687" 
d="M641 244h-262l-10 -76q-2 -16 -2 -23q0 -89 89 -89q38 0 65 19.5t49 65.5l57 -22q-56 -127 -178 -127q-100 0 -134 79q-29 -38 -74 -58t-91 -20q-62 0 -94.5 32t-32.5 88q0 89 62.5 134.5t219.5 49.5l6 45q1 9 1 25q0 79 -73 79q-64 0 -116 -76l-48 31q74 111 182 111
q83 0 112 -67q51 69 144 69q67 0 104.5 -40t37.5 -107q0 -9 -2 -29zM168 59q45 0 78.5 28.5t40.5 75.5l11 81q-113 -2 -156 -30t-43 -87q0 -68 69 -68zM392 345l-7 -49h190l6 50q1 7 1 20q0 41 -21.5 63t-61.5 22q-92 0 -107 -106z" />
    <glyph glyph-name="ccedilla" unicode="&#xe7;" horiz-adv-x="417" 
d="M402 412l-59 -27q-24 61 -90 61q-106 0 -121 -121l-22 -164q-1 -7 -1 -20q0 -84 85 -84q80 0 121 78l58 -23q-61 -109 -169 -119l-7 -25q70 -11 70 -53q0 -36 -34 -59.5t-93 -27.5l-9 41q38 7 53 15.5t15 22.5q0 21 -65 25l20 60q-64 6 -97 43.5t-33 97.5q0 8 2 26
l23 166q12 84 63.5 136.5t141.5 52.5q114 0 148 -102z" />
    <glyph glyph-name="egrave" unicode="&#xe8;" horiz-adv-x="444" 
d="M399 248h-277l-10 -75q-2 -16 -2 -22q0 -45 25 -69.5t72 -24.5q40 0 68 19.5t51 64.5l59 -22q-59 -128 -193 -128q-80 0 -123 41t-43 111q0 9 2 27l22 166q10 79 64 128.5t139 49.5q76 0 117.5 -42.5t41.5 -111.5q0 -18 -1 -27zM134 340l-5 -38h202l6 40q1 7 1 19
q0 42 -23.5 65.5t-66.5 23.5q-99 0 -114 -110zM168 725h97l49 -137h-65z" />
    <glyph glyph-name="eacute" unicode="&#xe9;" horiz-adv-x="444" 
d="M399 248h-277l-10 -75q-2 -16 -2 -22q0 -45 25 -69.5t72 -24.5q40 0 68 19.5t51 64.5l59 -22q-59 -128 -193 -128q-80 0 -123 41t-43 111q0 9 2 27l22 166q10 79 64 128.5t139 49.5q76 0 117.5 -42.5t41.5 -111.5q0 -18 -1 -27zM134 340l-5 -38h202l6 40q1 7 1 19
q0 42 -23.5 65.5t-66.5 23.5q-99 0 -114 -110zM295 725h97l-107 -137h-64z" />
    <glyph glyph-name="ecircumflex" unicode="&#xea;" horiz-adv-x="444" 
d="M399 248h-277l-10 -75q-2 -16 -2 -22q0 -45 25 -69.5t72 -24.5q40 0 68 19.5t51 64.5l59 -22q-59 -128 -193 -128q-80 0 -123 41t-43 111q0 9 2 27l22 166q10 79 64 128.5t139 49.5q76 0 117.5 -42.5t41.5 -111.5q0 -18 -1 -27zM134 340l-5 -38h202l6 40q1 7 1 19
q0 42 -23.5 65.5t-66.5 23.5q-99 0 -114 -110zM215 588h-71l108 137h59l74 -137h-71l-40 84z" />
    <glyph glyph-name="edieresis" unicode="&#xeb;" horiz-adv-x="444" 
d="M399 248h-277l-10 -75q-2 -16 -2 -22q0 -45 25 -69.5t72 -24.5q40 0 68 19.5t51 64.5l59 -22q-59 -128 -193 -128q-80 0 -123 41t-43 111q0 9 2 27l22 166q10 79 64 128.5t139 49.5q76 0 117.5 -42.5t41.5 -111.5q0 -18 -1 -27zM134 340l-5 -38h202l6 40q1 7 1 19
q0 42 -23.5 65.5t-66.5 23.5q-99 0 -114 -110zM179 725h66l-14 -107h-65zM319 725h65l-14 -107h-65z" />
    <glyph glyph-name="igrave" unicode="&#xec;" horiz-adv-x="229" 
d="M98 505h84l-62 -505h-84zM38 725h97l49 -137h-65z" />
    <glyph glyph-name="iacute" unicode="&#xed;" horiz-adv-x="229" 
d="M98 505h84l-62 -505h-84zM189 725h97l-107 -137h-64z" />
    <glyph glyph-name="icircumflex" unicode="&#xee;" horiz-adv-x="229" 
d="M98 505h84l-62 -505h-84zM100 588h-71l108 137h59l74 -137h-71l-40 84z" />
    <glyph glyph-name="idieresis" unicode="&#xef;" horiz-adv-x="229" 
d="M98 505h84l-62 -505h-84zM65 725h66l-14 -107h-65zM205 725h65l-14 -107h-65z" />
    <glyph glyph-name="eth" unicode="&#xf0;" horiz-adv-x="471" 
d="M215 587l52 64q-32 14 -80 25l20 56q58 -9 103 -29l49 59l41 -33l-44 -53q88 -67 88 -208q0 -28 -5 -70l-30 -223q-11 -83 -65.5 -133t-145.5 -50q-82 0 -126.5 41t-44.5 108q0 13 3 35l19 138q27 196 190 196q69 0 125 -49q0 4 0.5 12t0.5 12q0 92 -53 138l-57 -69z
M113 171q-1 -8 -1 -22q0 -92 94 -92q103 0 119 114l32 231q-47 42 -106 42q-99 0 -118 -132z" />
    <glyph glyph-name="ntilde" unicode="&#xf1;" horiz-adv-x="496" 
d="M448 342l-42 -342h-84l41 329q3 30 3 37q0 76 -73 76t-136 -77l-46 -365h-83l61 505h75l-3 -70q76 79 167 79q122 0 122 -133q0 -25 -2 -39zM397 725l44 -9q-18 -67 -40.5 -99t-58.5 -32q-19 0 -35 13.5t-25 30t-19.5 30t-20.5 13.5q-14 0 -24.5 -18t-21.5 -62l-45 9
q18 68 40 100t59 32q19 0 35 -13.5t25 -30.5t19.5 -30.5t20.5 -13.5q25 0 47 80z" />
    <glyph glyph-name="ograve" unicode="&#xf2;" horiz-adv-x="469" 
d="M430 336l-23 -169q-11 -79 -66 -127.5t-145 -48.5q-82 0 -126 40.5t-44 107.5q0 10 2 28l22 169q10 80 65 129t146 49q83 0 126.5 -41.5t43.5 -110.5q0 -17 -1 -26zM134 333l-22 -162q-2 -16 -2 -24q0 -90 94 -90q103 0 119 114l22 162q1 8 1 24q0 91 -93 91
q-103 0 -119 -115zM165 725h97l49 -137h-65z" />
    <glyph glyph-name="oacute" unicode="&#xf3;" horiz-adv-x="469" 
d="M430 336l-23 -169q-11 -79 -66 -127.5t-145 -48.5q-82 0 -126 40.5t-44 107.5q0 10 2 28l22 169q10 80 65 129t146 49q83 0 126.5 -41.5t43.5 -110.5q0 -17 -1 -26zM134 333l-22 -162q-2 -16 -2 -24q0 -90 94 -90q103 0 119 114l22 162q1 8 1 24q0 91 -93 91
q-103 0 -119 -115zM306 725h97l-107 -137h-64z" />
    <glyph glyph-name="ocircumflex" unicode="&#xf4;" horiz-adv-x="469" 
d="M430 336l-23 -169q-11 -79 -66 -127.5t-145 -48.5q-82 0 -126 40.5t-44 107.5q0 10 2 28l22 169q10 80 65 129t146 49q83 0 126.5 -41.5t43.5 -110.5q0 -17 -1 -26zM134 333l-22 -162q-2 -16 -2 -24q0 -90 94 -90q103 0 119 114l22 162q1 8 1 24q0 91 -93 91
q-103 0 -119 -115zM220 588h-71l108 137h59l74 -137h-71l-40 84z" />
    <glyph glyph-name="otilde" unicode="&#xf5;" horiz-adv-x="469" 
d="M430 336l-23 -169q-11 -79 -66 -127.5t-145 -48.5q-82 0 -126 40.5t-44 107.5q0 10 2 28l22 169q10 80 65 129t146 49q83 0 126.5 -41.5t43.5 -110.5q0 -17 -1 -26zM134 333l-22 -162q-2 -16 -2 -24q0 -90 94 -90q103 0 119 114l22 162q1 8 1 24q0 91 -93 91
q-103 0 -119 -115zM382 725l44 -9q-18 -67 -40.5 -99t-58.5 -32q-19 0 -35 13.5t-25 30t-19.5 30t-20.5 13.5q-14 0 -24.5 -18t-21.5 -62l-45 9q18 68 40 100t59 32q19 0 35 -13.5t25 -30.5t19.5 -30.5t20.5 -13.5q25 0 47 80z" />
    <glyph glyph-name="odieresis" unicode="&#xf6;" horiz-adv-x="469" 
d="M430 336l-23 -169q-11 -79 -66 -127.5t-145 -48.5q-82 0 -126 40.5t-44 107.5q0 10 2 28l22 169q10 80 65 129t146 49q83 0 126.5 -41.5t43.5 -110.5q0 -17 -1 -26zM134 333l-22 -162q-2 -16 -2 -24q0 -90 94 -90q103 0 119 114l22 162q1 8 1 24q0 91 -93 91
q-103 0 -119 -115zM184 725h66l-14 -107h-65zM324 725h65l-14 -107h-65z" />
    <glyph glyph-name="divide" unicode="&#xf7;" horiz-adv-x="462" 
d="M412 278h-361v66h361v-66zM177 483q0 23 15 39.5t36 16.5q22 0 37.5 -16.5t15.5 -39.5q0 -22 -15.5 -38t-37.5 -16q-21 0 -36 16t-15 38zM177 144q0 23 15 39t36 16q22 0 37.5 -16t15.5 -39t-15.5 -39t-37.5 -16q-21 0 -36 16t-15 39z" />
    <glyph glyph-name="oslash" unicode="&#xf8;" horiz-adv-x="469" 
d="M430 336l-23 -169q-11 -79 -66 -127.5t-145 -48.5q-88 0 -131 45l-31 -34l-30 27l37 41q-15 30 -15 69q0 6 2 28l22 169q10 80 65 129t146 49q88 0 133 -48l33 37l32 -26l-41 -46q13 -29 13 -69q0 -17 -1 -26zM134 333l-22 -162q-2 -16 -2 -23l227 255q-21 45 -84 45
q-106 0 -119 -115zM345 333q1 6 1 18l-226 -253q22 -41 84 -41q103 0 119 114z" />
    <glyph glyph-name="ugrave" unicode="&#xf9;" horiz-adv-x="496" 
d="M163 505l-42 -336q-2 -20 -2 -28q0 -76 73 -76q71 0 135 76l46 364h84l-62 -505h-74l2 71q-76 -78 -167 -78q-122 0 -122 133q0 27 3 48l42 331h84zM181 725h97l49 -137h-65z" />
    <glyph glyph-name="uacute" unicode="&#xfa;" horiz-adv-x="496" 
d="M163 505l-42 -336q-2 -20 -2 -28q0 -76 73 -76q71 0 135 76l46 364h84l-62 -505h-74l2 71q-76 -78 -167 -78q-122 0 -122 133q0 27 3 48l42 331h84zM317 725h97l-107 -137h-64z" />
    <glyph glyph-name="ucircumflex" unicode="&#xfb;" horiz-adv-x="496" 
d="M163 505l-42 -336q-2 -20 -2 -28q0 -76 73 -76q71 0 135 76l46 364h84l-62 -505h-74l2 71q-76 -78 -167 -78q-122 0 -122 133q0 27 3 48l42 331h84zM234 588h-71l108 137h59l74 -137h-71l-40 84z" />
    <glyph glyph-name="udieresis" unicode="&#xfc;" horiz-adv-x="496" 
d="M163 505l-42 -336q-2 -20 -2 -28q0 -76 73 -76q71 0 135 76l46 364h84l-62 -505h-74l2 71q-76 -78 -167 -78q-122 0 -122 133q0 27 3 48l42 331h84zM198 725h66l-14 -107h-65zM338 725h65l-14 -107h-65z" />
    <glyph glyph-name="yacute" unicode="&#xfd;" horiz-adv-x="490" 
d="M497 505l-254 -529q-34 -72 -79.5 -106t-114.5 -38v61q44 6 71 27t49 66l12 25l-137 494h94l96 -401l175 401h88zM326 725h97l-107 -137h-64z" />
    <glyph glyph-name="thorn" unicode="&#xfe;" horiz-adv-x="487" 
d="M449 342l-21 -151q-13 -98 -62.5 -148.5t-128.5 -50.5q-69 0 -122 47l-25 -208h-84l113 917h84l-39 -309q77 75 164 75q123 0 123 -135q0 -24 -2 -37zM293 443q-74 0 -138 -80l-33 -264q46 -40 103 -40q101 0 119 132l19 141q3 21 3 35q0 76 -73 76z" />
    <glyph glyph-name="ydieresis" unicode="&#xff;" horiz-adv-x="490" 
d="M497 505l-254 -529q-34 -72 -79.5 -106t-114.5 -38v61q44 6 71 27t49 66l12 25l-137 494h94l96 -401l175 401h88zM209 725h66l-14 -107h-65zM349 725h65l-14 -107h-65z" />
    <glyph glyph-name="dotlessi" unicode="&#x131;" horiz-adv-x="229" 
d="M98 505h84l-62 -505h-84z" />
    <glyph glyph-name="IJ" unicode="&#x132;" horiz-adv-x="555" 
d="M146 725h94l-89 -725h-94zM436 725h94l-76 -609q-31 -253 -278 -256l1 75q84 0 127.5 42t55.5 138z" />
    <glyph glyph-name="ij" unicode="&#x133;" horiz-adv-x="474" 
d="M98 505h84l-62 -505h-84zM127 725h79l-13 -107h-80zM371 725h79l-13 -107h-80zM169 -169l1 67q50 6 77.5 37t34.5 93l59 477h84l-59 -477q-22 -185 -197 -197z" />
    <glyph glyph-name="Lslash" unicode="&#x141;" horiz-adv-x="481" 
d="M141 725h92l-40 -316l185 96l-8 -78l-186 -95l-31 -249h278l-10 -83h-369l36 292l-64 -31l9 77l64 32z" />
    <glyph glyph-name="lslash" unicode="&#x142;" horiz-adv-x="306" 
d="M160 748h84l-37 -296l95 55l-9 -72l-95 -56l-46 -379h-84l41 334l-84 -48l8 72l85 49z" />
    <glyph glyph-name="OE" unicode="&#x152;" horiz-adv-x="876" 
d="M488 725h393l-10 -82h-299l-29 -232h237l-9 -74h-237l-32 -256h313l-9 -81h-407l7 65q-60 -75 -172 -75q-91 0 -141.5 53t-50.5 147q0 28 2 42l36 261q16 113 81 177.5t165 64.5q110 0 154 -74zM425 232l36 261q2 13 2 37q0 125 -127 125q-72 0 -111.5 -39.5
t-50.5 -121.5l-36 -262q-2 -13 -2 -37q0 -127 127 -127q72 0 111.5 40t50.5 124z" />
    <glyph glyph-name="oe" unicode="&#x153;" horiz-adv-x="732" 
d="M687 241h-272l-10 -74q-1 -8 -1 -21q0 -90 92 -90q82 0 124 87l54 -24q-62 -129 -193 -129q-99 0 -132 70q-57 -70 -159 -70q-78 0 -121 43t-43 108q0 7 2 25l23 173q10 75 64 125.5t139 50.5q105 0 144 -72q53 72 152 72q71 0 110.5 -43.5t39.5 -110.5q0 -17 -1 -25z
M344 356q0 93 -92 93q-102 0 -117 -115l-22 -163q-2 -18 -2 -26q0 -91 91 -91q102 0 119 117l21 156q2 16 2 29zM428 340l-6 -45h196l6 48q1 7 1 20q0 41 -22.5 63.5t-63.5 22.5q-97 0 -111 -109z" />
    <glyph glyph-name="Scaron" unicode="&#x160;" horiz-adv-x="481" 
d="M293 735q77 0 127 -38.5t65 -104.5l-69 -29q-10 46 -43 71t-82 25q-64 0 -97 -32.5t-33 -86.5q0 -38 28.5 -67.5t69.5 -51t82.5 -45.5t70 -64t28.5 -94q0 -106 -67 -167t-170 -61q-78 0 -132 43.5t-64 118.5l75 27q9 -55 44 -83.5t85 -28.5q65 0 101.5 33t36.5 98
q0 41 -29 71.5t-70.5 51.5t-83 44.5t-70.5 63.5t-29 94q0 91 62 151.5t164 60.5zM199 872h73l40 -67l57 67h71l-104 -112h-59z" />
    <glyph glyph-name="scaron" unicode="&#x161;" horiz-adv-x="404" 
d="M382 406l-59 -23q-20 69 -92 69q-44 0 -69 -22.5t-25 -56.5q0 -26 22 -44.5t53.5 -31t63.5 -27.5t54 -43t22 -68q0 -73 -51.5 -120.5t-128.5 -47.5q-124 0 -157 112l58 26q22 -76 103 -76q44 0 70 24t26 65q0 27 -22 46t-54 32t-64 27.5t-54 42t-22 66.5q0 66 48.5 112
t130.5 46q119 0 147 -108zM144 725h71l39 -84l60 84h71l-108 -137h-59z" />
    <glyph glyph-name="Ydieresis" unicode="&#x178;" horiz-adv-x="550" 
d="M594 725l-280 -481l-29 -244h-94l29 245l-159 480h105l113 -395l211 395h104zM228 872h68l-12 -101h-67zM394 872h67l-12 -101h-67z" />
    <glyph glyph-name="Zcaron" unicode="&#x17d;" horiz-adv-x="517" 
d="M446 81l-9 -81h-437l7 57l400 587h-311l10 81h420l-7 -55l-400 -589h327zM216 872h73l40 -67l57 67h71l-104 -112h-59z" />
    <glyph glyph-name="zcaron" unicode="&#x17e;" horiz-adv-x="417" 
d="M348 68l-7 -68h-339l5 52l289 385h-229l7 68h332l-6 -50l-291 -387h239zM150 725h71l39 -84l60 84h71l-108 -137h-59z" />
    <glyph glyph-name="longs" unicode="&#x17f;" horiz-adv-x="283" 
d="M359 730l-2 -60q-65 -4 -96 -35.5t-38 -89.5l-67 -545h-84l54 443h-88l7 62h89l5 41q10 81 64 130.5t156 53.5z" />
    <glyph glyph-name="florin" unicode="&#x192;" horiz-adv-x="326" 
d="M320 505l-12 -62h-124l-94 -514h-83l92 514h-62l12 62h61l8 41q34 177 232 184l-6 -60q-128 -7 -146 -125l-6 -40h128z" />
    <glyph glyph-name="uni02BB" unicode="&#x2bb;" horiz-adv-x="189" 
d="M191 695l-12 -102h-96l9 76q10 86 68 158l31 -16q-30 -51 -37 -110z" />
    <glyph glyph-name="afii57929" unicode="&#x2bc;" horiz-adv-x="189" 
d="M89 644l12 102h95l-8 -76q-9 -86 -69 -159l-32 16q31 51 40 111z" />
    <glyph glyph-name="circumflex" unicode="&#x2c6;" horiz-adv-x="266" 
d="M119 588h-71l108 137h59l74 -137h-71l-40 84z" />
    <glyph glyph-name="caron" unicode="&#x2c7;" horiz-adv-x="266" 
d="M65 725h71l39 -84l60 84h71l-108 -137h-59z" />
    <glyph glyph-name="uni02C9" unicode="&#x2c9;" horiz-adv-x="266" 
d="M298 683l-6 -58h-238l7 58h237z" />
    <glyph glyph-name="breve" unicode="&#x2d8;" horiz-adv-x="266" 
d="M64 725h63q-1 -11 -1 -29q0 -39 11 -53.5t36 -14.5q28 0 44 20.5t27 76.5h63q-20 -82 -50.5 -113t-89.5 -31t-81 30.5t-22 113.5z" />
    <glyph glyph-name="dotaccent" unicode="&#x2d9;" horiz-adv-x="266" 
d="M103 725h79l-13 -107h-80z" />
    <glyph glyph-name="ring" unicode="&#x2da;" horiz-adv-x="266" 
d="M91 652q0 35 27 63.5t69 28.5q34 0 55 -19.5t21 -51.5q0 -40 -28 -65.5t-67 -25.5q-35 0 -56 19.5t-21 50.5zM182 704q-18 0 -29.5 -15t-11.5 -34q0 -32 32 -32q18 0 29.5 12.5t11.5 32.5q0 15 -8.5 25.5t-23.5 10.5z" />
    <glyph glyph-name="ogonek" unicode="&#x2db;" horiz-adv-x="266" 
d="M112 11l37 -7q-41 -15 -64.5 -37.5t-23.5 -46.5q0 -32 45 -32q32 0 68 18l11 -46q-47 -26 -103 -26q-92 0 -92 64q0 35 33.5 64.5t88.5 48.5z" />
    <glyph glyph-name="tilde" unicode="&#x2dc;" horiz-adv-x="266" 
d="M278 725l44 -9q-18 -67 -40.5 -99t-58.5 -32q-19 0 -35 13.5t-25 30t-19.5 30t-20.5 13.5q-14 0 -24.5 -18t-21.5 -62l-45 9q18 68 40 100t59 32q19 0 35 -13.5t25 -30.5t19.5 -30.5t20.5 -13.5q25 0 47 80z" />
    <glyph glyph-name="hungarumlaut" unicode="&#x2dd;" horiz-adv-x="266" 
d="M140 725h87l-94 -137h-54zM278 725h87l-111 -137h-55z" />
    <glyph glyph-name="gravecomb" unicode="&#x300;" horiz-adv-x="0" 
d="M-194 725h97l49 -137h-65z" />
    <glyph glyph-name="acutecomb" unicode="&#x301;" horiz-adv-x="0" 
d="M-90 725h97l-107 -137h-64z" />
    <glyph glyph-name="uni0302" unicode="&#x302;" horiz-adv-x="0" 
d="M-124 588h-71l108 137h59l74 -137h-71l-40 84z" />
    <glyph glyph-name="tildecomb" unicode="&#x303;" horiz-adv-x="0" 
d="M6 725l44 -9q-18 -67 -40.5 -99t-58.5 -32q-19 0 -35 13.5t-25 30t-19.5 30t-20.5 13.5q-14 0 -24.5 -18t-21.5 -62l-45 9q18 68 40 100t59 32q19 0 35 -13.5t25 -30.5t19.5 -30.5t20.5 -13.5q25 0 47 80z" />
    <glyph glyph-name="uni0304" unicode="&#x304;" horiz-adv-x="0" 
d="M34 683l-6 -58h-238l7 58h237z" />
    <glyph glyph-name="uni0306" unicode="&#x306;" horiz-adv-x="0" 
d="M-204 725h63q-1 -11 -1 -29q0 -39 11 -53.5t36 -14.5q28 0 44 20.5t27 76.5h63q-20 -82 -50.5 -113t-89.5 -31t-81 30.5t-22 113.5z" />
    <glyph glyph-name="uni0307" unicode="&#x307;" horiz-adv-x="0" 
d="M-81 725h79l-13 -107h-80z" />
    <glyph glyph-name="uni0308" unicode="&#x308;" horiz-adv-x="0" 
d="M-182 725h66l-14 -107h-65zM-42 725h65l-14 -107h-65z" />
    <glyph glyph-name="uni030A" unicode="&#x30a;" horiz-adv-x="0" 
d="M-180 652q0 35 27 63.5t69 28.5q34 0 55 -19.5t21 -51.5q0 -40 -28 -65.5t-67 -25.5q-35 0 -56 19.5t-21 50.5zM-89 704q-18 0 -29.5 -15t-11.5 -34q0 -32 32 -32q18 0 29.5 12.5t11.5 32.5q0 15 -8.5 25.5t-23.5 10.5z" />
    <glyph glyph-name="uni030B" unicode="&#x30b;" horiz-adv-x="0" 
d="M-126 725h87l-94 -137h-54zM12 725h87l-111 -137h-55z" />
    <glyph glyph-name="uni030C" unicode="&#x30c;" horiz-adv-x="0" 
d="M-202 725h71l39 -84l60 84h71l-108 -137h-59z" />
    <glyph glyph-name="uni0312" unicode="&#x312;" horiz-adv-x="0" 
d="M-141 574h-95l82 151h63z" />
    <glyph glyph-name="uni0315" unicode="&#x315;" horiz-adv-x="0" 
d="M166 725h95l-87 -152h-63z" />
    <glyph glyph-name="uni0326" unicode="&#x326;" horiz-adv-x="0" 
d="M-323 -99l8 65h92l-5 -39q-7 -55 -30 -79t-76 -28v34q26 3 36.5 12.5t12.5 30.5z" />
    <glyph glyph-name="uni0327" unicode="&#x327;" horiz-adv-x="0" 
d="M-162 18l47 -3l-13 -47q70 -11 70 -53q0 -36 -34 -59.5t-93 -27.5l-9 41q38 7 53 15.5t15 22.5q0 21 -65 25z" />
    <glyph glyph-name="uni0328" unicode="&#x328;" horiz-adv-x="0" 
d="M-138 11l37 -7q-41 -15 -64.5 -37.5t-23.5 -46.5q0 -32 45 -32q32 0 68 18l11 -46q-47 -26 -103 -26q-92 0 -92 64q0 35 33.5 64.5t88.5 48.5z" />
    <glyph glyph-name="uni0335" unicode="&#x335;" horiz-adv-x="1" 
d="M33 281l-6 -58h-238l7 58h237z" />
    <glyph glyph-name="uni0336" unicode="&#x336;" horiz-adv-x="1" 
d="M-555 219l7 67h527l-8 -67h-526z" />
    <glyph glyph-name="uni0394" unicode="&#x394;" horiz-adv-x="589" 
d="M-25 0l334 725h78l154 -725h-566zM334 616l-232 -539h330z" />
    <glyph glyph-name="uni03A9" unicode="&#x3a9;" horiz-adv-x="584" 
d="M346 735q104 0 158.5 -47.5t54.5 -135.5q0 -25 -2 -38l-20 -139q-21 -149 -159 -192l-12 -104h132l-9 -79h-199l28 235q58 11 87.5 44t37.5 94l20 139q2 18 2 26q0 57 -33 87.5t-96 30.5q-69 0 -109.5 -37t-50.5 -107l-19 -130q-3 -21 -3 -37q0 -47 23 -73.5t72 -36.5
l-28 -235h-199l9 79h131l13 104q-115 38 -115 160q0 10 2 32l20 139q15 106 82 163.5t182 57.5z" />
    <glyph glyph-name="uni03BC" unicode="&#x3bc;" horiz-adv-x="506" 
d="M48 179l41 326h84l-41 -326q-2 -16 -2 -23q0 -44 23.5 -67t67.5 -23q68 0 114 55l48 384h84l-61 -505h-75l1 51q-49 -52 -117 -52q-75 0 -103 58q-10 -128 -10 -221l-85 -6q14 219 31 349z" />
    <glyph glyph-name="pi" unicode="&#x3c0;" horiz-adv-x="498" 
d="M386 0h-84l53 438h-179l-42 -343q-6 -47 -36 -74t-77 -27q-22 0 -41 7l5 50h14q46 0 52 50l41 335h-56l8 69h458l-8 -69h-56z" />
    <glyph glyph-name="uni2007" unicode="&#x2007;" 
 />
    <glyph glyph-name="uni2008" unicode="&#x2008;" horiz-adv-x="206" 
 />
    <glyph glyph-name="uni200B" unicode="&#x200b;" horiz-adv-x="0" 
 />
    <glyph glyph-name="uni2010" unicode="&#x2010;" horiz-adv-x="268" 
d="M21 256l8 74h217l-9 -74h-216z" />
    <glyph glyph-name="endash" unicode="&#x2013;" horiz-adv-x="406" 
d="M21 262l7 67h356l-7 -67h-356z" />
    <glyph glyph-name="emdash" unicode="&#x2014;" horiz-adv-x="577" 
d="M21 262l7 67h527l-8 -67h-526z" />
    <glyph glyph-name="quoteleft" unicode="&#x2018;" horiz-adv-x="189" 
d="M191 695l-12 -102h-96l9 76q10 86 68 158l31 -16q-30 -51 -37 -110z" />
    <glyph glyph-name="quoteright" unicode="&#x2019;" horiz-adv-x="189" 
d="M89 644l12 102h95l-8 -76q-9 -86 -69 -159l-32 16q31 51 40 111z" />
    <glyph glyph-name="quotesinglbase" unicode="&#x201a;" horiz-adv-x="189" 
d="M11 6l12 102h95l-8 -76q-9 -86 -69 -159l-32 16q31 51 40 111z" />
    <glyph glyph-name="quotedblleft" unicode="&#x201c;" horiz-adv-x="334" 
d="M335 695l-12 -102h-96l9 76q10 86 68 158l31 -16q-30 -51 -37 -110zM191 695l-12 -102h-96l9 76q10 86 68 158l31 -16q-30 -51 -37 -110z" />
    <glyph glyph-name="quotedblright" unicode="&#x201d;" horiz-adv-x="334" 
d="M233 644l12 102h95l-8 -76q-9 -86 -69 -159l-32 16q31 51 40 111zM89 645l12 102h95l-8 -76q-9 -86 -69 -159l-32 16q31 51 40 111z" />
    <glyph glyph-name="quotedblbase" unicode="&#x201e;" horiz-adv-x="332" 
d="M144 6l12 102h95l-8 -76q-9 -86 -69 -159l-32 16q31 51 40 111zM4 6l12 102h95l-8 -76q-9 -86 -69 -159l-32 16q31 51 40 111z" />
    <glyph glyph-name="dagger" unicode="&#x2020;" horiz-adv-x="417" 
d="M51 548l150 -6l20 206h83l-30 -206l152 6l-9 -83l-151 5l-72 -624h-84l83 624l-151 -5z" />
    <glyph glyph-name="daggerdbl" unicode="&#x2021;" horiz-adv-x="417" 
d="M149 124l44 346l-151 -5l9 83l150 -6l20 206h83l-30 -206l152 6l-9 -83l-151 5l-44 -346l152 5l-9 -83l-152 6l-19 -206h-84l31 206l-152 -6l9 83z" />
    <glyph glyph-name="bullet" unicode="&#x2022;" horiz-adv-x="271" 
d="M20 310q0 54 33.5 91t82.5 37t82.5 -37t33.5 -91q0 -53 -33.5 -90t-82.5 -37t-82.5 37t-33.5 90z" />
    <glyph glyph-name="ellipsis" unicode="&#x2026;" horiz-adv-x="617" 
d="M16 0l12 108h101l-12 -108h-101zM222 0l12 108h100l-12 -108h-100zM427 0l12 108h101l-12 -108h-101z" />
    <glyph glyph-name="perthousand" unicode="&#x2030;" horiz-adv-x="842" 
d="M791 119q-8 -63 -42 -97t-91 -34q-51 0 -78 27t-27 78q0 9 10 86q8 63 42 98t92 35q50 0 77 -28t27 -79q0 -9 -10 -86zM624 179q-9 -68 -9 -81q0 -54 49 -54q56 0 66 74q9 68 9 81q0 55 -49 55q-56 0 -66 -75zM303 542q-8 -63 -42.5 -97t-91.5 -34q-51 0 -78 27t-27 78
q0 9 10 86q18 133 135 133q50 0 77 -28t27 -79q0 -9 -10 -86zM135 602q-9 -78 -9 -83q0 -52 50 -52q29 0 44.5 17.5t20.5 56.5q9 69 9 83q0 53 -48 53q-58 0 -67 -75zM15 1l490 724h68l-492 -724h-66zM520 119q-8 -63 -42 -97t-91 -34q-51 0 -78 27t-27 77q0 10 10 87
q8 63 42 98t92 35q50 0 77 -28t27 -79q0 -9 -10 -86zM353 179q-9 -68 -9 -81q0 -54 49 -54q56 0 66 74q9 68 9 81q0 55 -49 55q-56 0 -66 -75z" />
    <glyph glyph-name="guilsinglleft" unicode="&#x2039;" horiz-adv-x="243" 
d="M237 437l-146 -178l102 -179h-75l-100 179l144 178h75z" />
    <glyph glyph-name="guilsinglright" unicode="&#x203a;" horiz-adv-x="243" 
d="M-4 80l145 179l-102 178h75l100 -178l-144 -179h-74z" />
    <glyph glyph-name="uni203D" unicode="&#x203d;" horiz-adv-x="507" 
d="M55 571q34 73 101 119t151 46q97 0 144 -44t47 -113q0 -83 -57.5 -151.5t-156.5 -109.5l-18 -108h-64l17 183l33 269q-85 -20 -131 -112zM290 385q55 31 90 78.5t35 108.5q0 83 -90 94zM157 0l12 108h101l-12 -108h-101z" />
    <glyph glyph-name="fraction" unicode="&#x2044;" horiz-adv-x="272" 
d="M-43 0h-59l471 725h60z" />
    <glyph glyph-name="uni2070" unicode="&#x2070;" horiz-adv-x="271" 
d="M291 689l-14 -103q-7 -52 -38 -82t-83 -30q-46 0 -71 25t-25 68q0 12 1 19l14 102q7 53 38 83t83 30q46 0 71 -24.5t25 -68.5q0 -12 -1 -19zM130 688l-14 -102q-1 -6 -1 -16q0 -50 46 -50q52 0 61 66l13 95q2 10 2 22q0 49 -47 49q-51 0 -60 -64z" />
    <glyph glyph-name="uni2074" unicode="&#x2074;" horiz-adv-x="271" 
d="M241 478h-50l7 59h-152l5 37l175 223h54l-27 -216h40l-10 -44h-35zM112 581h92l22 155z" />
    <glyph glyph-name="uni2075" unicode="&#x2075;" horiz-adv-x="271" 
d="M112 619l-35 19l34 159h180l-9 -47h-133l-17 -82q31 13 61 13q84 0 84 -79q0 -61 -33 -94.5t-92 -33.5q-80 0 -94 70l42 16q12 -42 54 -42q65 0 65 77q0 42 -51 42q-33 0 -56 -18z" />
    <glyph glyph-name="uni2076" unicode="&#x2076;" horiz-adv-x="271" 
d="M202 801q34 0 57.5 -17t30.5 -49l-40 -18q-12 39 -49 39q-57 0 -69 -69l-4 -25q28 19 69 19q82 0 82 -76q0 -65 -33.5 -98t-88.5 -33q-94 0 -94 94q0 14 1 21l13 92q8 54 41 87t84 33zM121 606l-3 -25q-1 -5 -1 -13q0 -48 47 -48q61 0 61 76q0 41 -45 41q-22 0 -40 -8.5
t-19 -22.5z" />
    <glyph glyph-name="uni2077" unicode="&#x2077;" horiz-adv-x="252" 
d="M139 478h-64l156 272h-159l6 47h218l-5 -42z" />
    <glyph glyph-name="uni2078" unicode="&#x2078;" horiz-adv-x="271" 
d="M156 474q-100 0 -100 79q0 73 58 94q-32 16 -32 55q0 45 29 72t85 27q93 0 93 -71q0 -59 -49 -83q39 -15 39 -60q0 -57 -32.5 -85t-90.5 -28zM161 518q63 0 63 67q0 38 -50 38q-31 0 -46.5 -14t-15.5 -49q0 -23 11.5 -32.5t37.5 -9.5zM191 758q-30 0 -43.5 -13.5
t-13.5 -44.5q0 -37 45 -37q57 0 57 61q0 34 -45 34z" />
    <glyph glyph-name="uni2079" unicode="&#x2079;" horiz-adv-x="271" 
d="M60 537l37 21q16 -39 57 -39q59 0 65 58l5 44q-27 -18 -68 -18q-38 0 -60 19.5t-22 57.5q0 56 32.5 88.5t90.5 32.5q44 0 68.5 -23.5t24.5 -63.5q0 -12 -1 -18l-16 -117q-7 -48 -39.5 -76.5t-81.5 -28.5q-75 0 -92 63zM172 645q19 0 37.5 8t21.5 21l4 28q1 5 1 13
q0 42 -44 42q-63 0 -63 -71q0 -41 43 -41z" />
    <glyph glyph-name="uni207A" unicode="&#x207a;" horiz-adv-x="232" 
d="M125 532l9 81h-68l4 38h69l9 81h39l-10 -81h69l-4 -38h-70l-9 -81h-38z" />
    <glyph glyph-name="uni207B" unicode="&#x207b;" horiz-adv-x="232" 
d="M242 613h-176l4 38h176z" />
    <glyph glyph-name="uni207C" unicode="&#x207c;" horiz-adv-x="232" 
d="M237 645h-162l5 38h161zM228 574h-161l4 38h161z" />
    <glyph glyph-name="uni207D" unicode="&#x207d;" horiz-adv-x="142" 
d="M65 568l16 129q10 78 38 113.5t82 35.5h13l-5 -35h-13q-56 0 -70 -114l-16 -129q-3 -22 -3 -40q0 -74 46 -74h13l-4 -35h-13q-45 0 -66 24.5t-21 77.5q0 21 3 47z" />
    <glyph glyph-name="uni207E" unicode="&#x207e;" horiz-adv-x="142" 
d="M158 697l-17 -129q-11 -78 -39 -113.5t-80 -35.5h-12l3 36h13q55 0 70 113l16 129q3 24 3 42q0 71 -46 71h-12l4 36h12q45 0 66.5 -25.5t21.5 -79.5q0 -20 -3 -44z" />
    <glyph glyph-name="uni207F" unicode="&#x207f;" horiz-adv-x="272" 
d="M61 478l30 249h47v-28q34 32 74 32q34 0 50.5 -18.5t16.5 -49.5q0 -11 -1 -17l-20 -168h-53l20 158q1 7 1 16q0 36 -35 36q-34 0 -56 -32l-21 -178h-53z" />
    <glyph glyph-name="uni2080" unicode="&#x2080;" horiz-adv-x="271" 
d="M219 93l-14 -103q-7 -52 -38 -82t-83 -30q-46 0 -71 25t-25 68q0 12 1 19l14 102q7 53 38 83t83 30q46 0 71 -24.5t25 -68.5q0 -12 -1 -19zM58 92l-14 -102q-1 -6 -1 -16q0 -50 46 -50q52 0 61 66l13 95q2 10 2 22q0 49 -47 49q-51 0 -60 -64z" />
    <glyph glyph-name="uni2081" unicode="&#x2081;" horiz-adv-x="212" 
d="M99 203h47l-39 -321h-59l28 225h-67l5 38h27q28 0 39 11t19 47z" />
    <glyph glyph-name="uni2082" unicode="&#x2082;" horiz-adv-x="271" 
d="M126 205q46 0 68.5 -20.5t22.5 -52.5q0 -39 -23.5 -71t-53 -49t-58.5 -40t-36 -45h149l-5 -45h-208l1 26q6 36 35 68t60 51t56.5 45.5t25.5 53.5q0 33 -43 33q-22 0 -39.5 -14t-26.5 -38l-43 15q37 83 118 83z" />
    <glyph glyph-name="uni2083" unicode="&#x2083;" horiz-adv-x="271" 
d="M67 25l5 42h25q57 0 57 58q0 35 -41 35q-44 0 -65 -45l-40 15q15 35 45.5 55t70.5 20q44 0 66.5 -20t22.5 -53q0 -63 -54 -84q43 -12 43 -59q0 -54 -33 -82.5t-87 -28.5q-83 0 -99 70l43 16q12 -42 58 -42q58 0 58 65q0 38 -49 38h-26z" />
    <glyph glyph-name="uni2084" unicode="&#x2084;" horiz-adv-x="271" 
d="M169 -118h-50l7 59h-152l5 37l175 223h54l-27 -216h40l-10 -44h-35zM40 -15h92l22 155z" />
    <glyph glyph-name="uni2085" unicode="&#x2085;" horiz-adv-x="271" 
d="M40 23l-35 19l34 159h180l-9 -47h-133l-17 -82q31 13 61 13q84 0 84 -79q0 -61 -33 -94.5t-92 -33.5q-80 0 -94 70l42 16q12 -42 54 -42q65 0 65 77q0 42 -51 42q-33 0 -56 -18z" />
    <glyph glyph-name="uni2086" unicode="&#x2086;" horiz-adv-x="271" 
d="M130 205q34 0 57.5 -17t30.5 -49l-40 -18q-12 39 -49 39q-57 0 -69 -69l-4 -25q28 19 69 19q82 0 82 -76q0 -65 -33.5 -98t-88.5 -33q-94 0 -94 94q0 14 1 21l13 92q8 54 41 87t84 33zM49 10l-3 -25q-1 -5 -1 -13q0 -48 47 -48q61 0 61 76q0 41 -45 41q-22 0 -40 -8.5
t-19 -22.5z" />
    <glyph glyph-name="uni2087" unicode="&#x2087;" horiz-adv-x="252" 
d="M67 -118h-64l156 272h-159l6 47h218l-5 -42z" />
    <glyph glyph-name="uni2088" unicode="&#x2088;" horiz-adv-x="271" 
d="M84 -122q-100 0 -100 79q0 73 58 94q-32 16 -32 55q0 45 29 72t85 27q93 0 93 -71q0 -59 -49 -83q39 -15 39 -60q0 -57 -32.5 -85t-90.5 -28zM89 -78q63 0 63 67q0 38 -50 38q-31 0 -46.5 -14t-15.5 -49q0 -23 11.5 -32.5t37.5 -9.5zM119 162q-30 0 -43.5 -13.5
t-13.5 -44.5q0 -37 45 -37q57 0 57 61q0 34 -45 34z" />
    <glyph glyph-name="uni2089" unicode="&#x2089;" horiz-adv-x="271" 
d="M-12 -59l37 21q16 -39 57 -39q59 0 65 58l5 44q-27 -18 -68 -18q-38 0 -60 19.5t-22 57.5q0 56 32.5 88.5t90.5 32.5q44 0 68.5 -23.5t24.5 -63.5q0 -12 -1 -18l-16 -117q-7 -48 -39.5 -76.5t-81.5 -28.5q-75 0 -92 63zM100 49q19 0 37.5 8t21.5 21l4 28q1 5 1 13
q0 42 -44 42q-63 0 -63 -71q0 -41 43 -41z" />
    <glyph glyph-name="uni208A" unicode="&#x208a;" horiz-adv-x="232" 
d="M53 -64l9 81h-68l4 38h69l9 81h39l-10 -81h69l-4 -38h-70l-9 -81h-38z" />
    <glyph glyph-name="uni208B" unicode="&#x208b;" horiz-adv-x="232" 
d="M170 17h-176l4 38h176z" />
    <glyph glyph-name="uni208C" unicode="&#x208c;" horiz-adv-x="232" 
d="M165 49h-162l5 38h161zM156 -22h-161l4 38h161z" />
    <glyph glyph-name="uni208D" unicode="&#x208d;" horiz-adv-x="142" 
d="M-7 -28l16 129q10 78 38 113.5t82 35.5h13l-5 -35h-13q-56 0 -70 -114l-16 -129q-3 -22 -3 -40q0 -74 46 -74h13l-4 -35h-13q-45 0 -66 24.5t-21 77.5q0 21 3 47z" />
    <glyph glyph-name="uni208E" unicode="&#x208e;" horiz-adv-x="142" 
d="M86 101l-17 -129q-11 -78 -39 -113.5t-80 -35.5h-12l3 36h13q55 0 70 113l16 129q3 24 3 42q0 71 -46 71h-12l4 36h12q45 0 66.5 -25.5t21.5 -79.5q0 -20 -3 -44z" />
    <glyph glyph-name="franc" unicode="&#x20a3;" horiz-adv-x="507" 
d="M-19 109l8 62h73l68 554h393l-10 -82h-299l-29 -237h256l-9 -77h-257l-19 -158h103l-7 -62h-104l-13 -109h-94l13 109h-73z" />
    <glyph glyph-name="lira" unicode="&#x20a4;" horiz-adv-x="548" 
d="M55 366l-2 52h63q0 59 4 91q13 106 72 166.5t155 60.5q74 0 122 -40.5t56 -108.5l-68 -25q-19 96 -115 96q-77 0 -109.5 -61.5t-32.5 -178.5h236l-15 -52h-221v-36h208l-13 -50h-194q0 -44 -2 -82q32 -11 61 -44t54 -58.5t54 -25.5q32 0 52.5 27.5t39.5 93.5l63 -17
q-25 -96 -64.5 -140t-95.5 -44q-44 0 -75 25t-58.5 66.5t-40.5 53.5q-31 -145 -131 -145q-35 0 -55 19t-20 53q0 60 39.5 98.5t104.5 43.5l-5 76h-60l-2 50h60q-2 24 -2 36h-63zM70 48q21 0 34.5 24t20.5 83q-39 -3 -58 -26.5t-19 -52.5q0 -28 22 -28z" />
    <glyph glyph-name="peseta" unicode="&#x20a7;" horiz-adv-x="911" 
d="M251 725q64 0 98 -40.5t34 -119.5q0 -128 -51 -199.5t-131 -71.5h-70l-36 -294h-77l89 725h144zM900 405l-51 -19q-7 68 -58 68q-29 0 -46 -22.5t-17 -57.5q0 -23 14.5 -42t35 -35t41.5 -33.5t35.5 -46t14.5 -64.5q0 -73 -39 -118t-99 -45q-102 0 -111 126l54 17
q5 -85 60 -85q30 0 48.5 24t18.5 66q0 27 -14.5 48.5t-35.5 37.5t-42 33t-35.5 43.5t-14.5 59.5q0 68 38 112t96 44q47 0 74.5 -29t32.5 -82zM628 506l-8 -62h-89l-41 -332q-2 -16 -2 -20q0 -40 41 -40q17 0 37 10l5 -48q-32 -22 -72 -22q-82 0 -82 85q0 7 2 29l42 336
l-48 12l6 51l53 3l34 139h50l-18 -141h90zM175 656l-37 -298h66q79 0 98 150q4 28 4 56q0 49 -16 70.5t-49 21.5h-66z" />
    <glyph glyph-name="Euro" unicode="&#x20ac;" horiz-adv-x="548" 
d="M350 735q75 0 125 -42.5t59 -108.5l-72 -26q-8 45 -37 70t-79 25q-129 0 -153 -161l-6 -41h245l-19 -52h-233l-7 -49h223l-19 -51h-211l-10 -73q-2 -20 -2 -29q0 -60 31 -95t89 -35q53 0 86 24t55 81l68 -24q-57 -158 -225 -158q-92 0 -145 53.5t-53 143.5q0 25 2 38
l10 74h-55l6 51h56l6 49h-56l6 52h57l6 41q17 114 83 178.5t169 64.5z" />
    <glyph glyph-name="uni20B4" unicode="&#x20b4;" horiz-adv-x="523" 
d="M50 403l6 54h302q61 51 61 122q0 87 -101 87q-105 0 -165 -95l-61 29q82 135 240 135q82 0 124 -39.5t42 -104.5q0 -77 -55 -134h58l-6 -54h-120q-21 -14 -61.5 -37t-53.5 -31h226l-6 -54h-295q-61 -58 -61 -125q0 -46 30.5 -71t85.5 -25q108 0 169 106l57 -28
q-78 -148 -238 -148q-93 0 -138.5 40t-45.5 108q0 83 57 143h-66l6 54h124q23 15 114 68h-229z" />
    <glyph glyph-name="afii61248" unicode="&#x2105;" horiz-adv-x="827" 
d="M194 735q49 0 85.5 -26.5t49.5 -66.5l-54 -21q-18 53 -76 53q-38 0 -58.5 -24t-20.5 -67v-149q0 -40 20.5 -64.5t58.5 -24.5q59 0 76 59l55 -19q-25 -97 -136 -97q-67 0 -108 40t-41 106v149q0 70 40 111t109 41zM782 288v-141q0 -71 -41.5 -112t-117.5 -41
q-75 0 -116.5 41t-41.5 112v141q0 71 41.5 112t116.5 41q76 0 117.5 -41t41.5 -112zM707 147v141q0 92 -84 92t-84 -92v-141q0 -93 84 -93t84 93zM242 0h-54l382 725h55z" />
    <glyph glyph-name="afii61289" unicode="&#x2113;" horiz-adv-x="676" 
d="M171 254l-11 58q28 8 57 21q14 182 68.5 291.5t133.5 109.5q88 0 88 -117q0 -82 -62.5 -167t-159.5 -144q-2 -27 -2 -87q0 -91 11.5 -125t38.5 -34q25 0 49 32.5t40 81.5l57 -17q-19 -72 -64 -120.5t-97 -48.5q-55 0 -80.5 51.5t-25.5 170.5q0 40 1 59q-21 -9 -42 -15z
M411 667q-39 0 -73 -76t-48 -214q67 49 109.5 112.5t42.5 120.5t-31 57z" />
    <glyph glyph-name="afii61352" unicode="&#x2116;" horiz-adv-x="887" 
d="M130 725h74l231 -524l66 524h83l-89 -725h-67l-237 536l-66 -536h-84zM876 616l-12 -95q-6 -51 -42 -81.5t-94 -30.5q-52 0 -81 25.5t-29 69.5q0 12 2 24l13 95q7 51 42.5 82t92.5 31q54 0 82 -26t28 -70q0 -12 -2 -24zM692 619l-12 -90q-2 -14 -2 -17q0 -51 55 -51
q62 0 70 62l12 90q2 14 2 21q0 49 -56 49q-61 0 -69 -64zM600 325l6 50h244l-6 -50h-244z" />
    <glyph glyph-name="uni2117" unicode="&#x2117;" horiz-adv-x="698" 
d="M646 426v-131q0 -133 -79.5 -220.5t-217.5 -87.5t-217.5 87t-79.5 221v131q0 134 79.5 221.5t217.5 87.5t217.5 -87.5t79.5 -221.5zM590 296v130q0 114 -64 185t-177 71t-177 -71t-64 -185v-130q0 -114 64 -185t177 -71t177 71t64 185zM367 609q73 0 111.5 -39t38.5 -111
t-38 -111.5t-109 -39.5h-85v-192h-68v493h150zM285 554v-193h81q84 0 84 97q0 50 -20.5 73t-63.5 23h-81z" />
    <glyph glyph-name="uni2120" unicode="&#x2120;" horiz-adv-x="583" 
d="M528 725h53v-315h-51v207l-76 -156h-25l-76 156v-207h-51v315h52l87 -189zM259 662l-41 -15q-17 42 -57 42q-48 0 -48 -39q0 -21 23 -36t50 -24t50 -32.5t23 -59.5q0 -41 -28.5 -67t-72.5 -26q-79 0 -106 73l39 17q20 -47 65 -47q47 0 47 44q0 22 -23 37.5t-50 24.5
t-50 32t-23 59q0 38 27 63t75 25q74 0 100 -71z" />
    <glyph glyph-name="trademark" unicode="&#x2122;" horiz-adv-x="559" 
d="M512 725h52v-315h-51v207l-76 -156h-24l-77 156v-207h-51v315h52l88 -190zM50 725h200v-48h-72v-267h-56v267h-72v48z" />
    <glyph glyph-name="Omega" unicode="&#x2126;" horiz-adv-x="584" 
d="M346 735q104 0 158.5 -47.5t54.5 -135.5q0 -25 -2 -38l-20 -139q-21 -149 -159 -192l-12 -104h132l-9 -79h-199l28 235q58 11 87.5 44t37.5 94l20 139q2 18 2 26q0 57 -33 87.5t-96 30.5q-69 0 -109.5 -37t-50.5 -107l-19 -130q-3 -21 -3 -37q0 -47 23 -73.5t72 -36.5
l-28 -235h-199l9 79h131l13 104q-115 38 -115 160q0 10 2 32l20 139q15 106 82 163.5t182 57.5z" />
    <glyph glyph-name="estimated" unicode="&#x212e;" horiz-adv-x="777" 
d="M732 350h-586v-99q0 -85 71.5 -152t187.5 -67q156 0 254 124l40 -29q-105 -140 -298 -140q-156 0 -256 101t-100 246q0 149 96.5 248.5t247.5 99.5q150 0 239.5 -91.5t103.5 -240.5zM146 437v-38h484v39q0 85 -65.5 143t-175.5 58q-107 0 -175 -61.5t-68 -140.5z" />
    <glyph glyph-name="uni2150" unicode="&#x2150;" horiz-adv-x="623" 
d="M162 727h47l-39 -321h-59l28 225h-67l5 38h27q28 0 39 11t19 47zM103 0h-59l471 725h60zM452 0h-64l156 272h-159l6 47h218l-5 -42z" />
    <glyph glyph-name="uni2151" unicode="&#x2151;" horiz-adv-x="642" 
d="M162 727h47l-39 -321h-59l28 225h-67l5 38h27q28 0 39 11t19 47zM103 0h-59l471 725h60zM373 59l37 21q16 -39 57 -39q59 0 65 58l5 44q-27 -18 -68 -18q-38 0 -60 19.5t-22 57.5q0 56 32.5 88.5t90.5 32.5q44 0 68.5 -23.5t24.5 -63.5q0 -12 -1 -18l-16 -117
q-7 -48 -39.5 -76.5t-81.5 -28.5q-75 0 -92 63zM485 167q19 0 37.5 8t21.5 21l4 28q1 5 1 13q0 42 -44 42q-63 0 -63 -71q0 -41 43 -41z" />
    <glyph glyph-name="uni2152" unicode="&#x2152;" horiz-adv-x="854" 
d="M162 727h47l-39 -321h-59l28 225h-67l5 38h27q28 0 39 11t19 47zM103 0h-59l471 725h60zM484 321h47l-39 -321h-59l28 225h-67l5 38h27q28 0 39 11t19 47zM816 211l-14 -103q-7 -52 -38 -82t-83 -30q-47 0 -71.5 25t-24.5 68q0 12 1 19l14 102q7 53 38 83t83 30
q47 0 71.5 -24.5t24.5 -68.5q0 -12 -1 -19zM655 210l-14 -102q-1 -6 -1 -16q0 -50 46 -50q52 0 61 66l13 95q2 10 2 22q0 49 -47 49q-51 0 -60 -64z" />
    <glyph glyph-name="onethird" unicode="&#x2153;" horiz-adv-x="567" 
d="M199 727h47l-39 -321h-59l28 225h-67l5 38h27q28 0 39 11t19 47zM82 0h-59l471 725l60 2zM379 143l5 42h25q57 0 57 58q0 35 -41 35q-44 0 -65 -45l-40 15q15 35 45.5 55t70.5 20q44 0 66.5 -20t22.5 -53q0 -63 -54 -84q43 -12 43 -59q0 -54 -33 -82.5t-87 -28.5
q-83 0 -99 70l43 16q12 -42 58 -42q58 0 58 65q0 38 -49 38h-26z" />
    <glyph glyph-name="twothirds" unicode="&#x2154;" horiz-adv-x="567" 
d="M185 729q46 0 68.5 -20.5t22.5 -52.5q0 -39 -23.5 -71t-53 -49t-58.5 -40t-36 -45h149l-5 -45h-208l1 26q6 36 35 68t60 51t56.5 45.5t25.5 53.5q0 33 -43 33q-46 0 -66 -52l-43 15q37 83 118 83zM82 0h-59l471 725h60zM379 143l5 42h25q57 0 57 58q0 35 -41 35
q-44 0 -65 -45l-40 15q15 35 45.5 55t70.5 20q44 0 66.5 -20t22.5 -53q0 -63 -54 -84q43 -12 43 -59q0 -54 -33 -82.5t-87 -28.5q-83 0 -99 70l43 16q12 -42 58 -42q58 0 58 65q0 38 -49 38h-26z" />
    <glyph glyph-name="uni2155" unicode="&#x2155;" horiz-adv-x="567" 
d="M199 727h47l-39 -321h-59l28 225h-67l5 38h27q28 0 39 11t19 47zM82 0h-59l471 725l60 2zM352 141l-35 19l34 159h180l-9 -47h-133l-17 -82q31 13 61 13q84 0 84 -79q0 -61 -33 -94.5t-92 -33.5q-80 0 -94 70l42 16q12 -42 54 -42q65 0 65 77q0 42 -51 42q-33 0 -56 -18z
" />
    <glyph glyph-name="uni2156" unicode="&#x2156;" horiz-adv-x="567" 
d="M185 729q46 0 68.5 -20.5t22.5 -52.5q0 -39 -23.5 -71t-53 -49t-58.5 -40t-36 -45h149l-5 -45h-208l1 26q6 36 35 68t60 51t56.5 45.5t25.5 53.5q0 33 -43 33q-46 0 -66 -52l-43 15q37 83 118 83zM82 0h-59l471 725h60zM352 141l-35 19l34 159h180l-9 -47h-133l-17 -82
q31 13 61 13q84 0 84 -79q0 -61 -33 -94.5t-92 -33.5q-80 0 -94 70l42 16q12 -42 54 -42q65 0 65 77q0 42 -51 42q-33 0 -56 -18z" />
    <glyph glyph-name="uni2157" unicode="&#x2157;" horiz-adv-x="567" 
d="M126 549l5 42h25q57 0 57 58q0 35 -41 35q-44 0 -65 -45l-40 15q15 35 45.5 55t70.5 20q44 0 66.5 -20t22.5 -53q0 -63 -54 -84q43 -12 43 -59q0 -54 -33 -82.5t-87 -28.5q-83 0 -99 70l43 16q12 -42 58 -42q58 0 58 65q0 38 -49 38h-26zM82 0h-59l471 725h60zM352 141
l-35 19l34 159h180l-9 -47h-133l-17 -82q31 13 61 13q84 0 84 -79q0 -61 -33 -94.5t-92 -33.5q-80 0 -94 70l42 16q12 -42 54 -42q65 0 65 77q0 42 -51 42q-33 0 -56 -18z" />
    <glyph glyph-name="uni2158" unicode="&#x2158;" horiz-adv-x="567" 
d="M217 406h-50l7 59h-152l5 37l175 223h54l-27 -216h40l-10 -44h-35zM88 509h92l22 155zM82 0h-59l471 725h60zM352 141l-35 19l34 159h180l-9 -47h-133l-17 -82q31 13 61 13q84 0 84 -79q0 -61 -33 -94.5t-92 -33.5q-80 0 -94 70l42 16q12 -42 54 -42q65 0 65 77
q0 42 -51 42q-33 0 -56 -18z" />
    <glyph glyph-name="uni2159" unicode="&#x2159;" horiz-adv-x="567" 
d="M199 727h47l-39 -321h-59l28 225h-67l5 38h27q28 0 39 11t19 47zM82 0h-59l471 725l60 2zM442 323q34 0 57.5 -17t30.5 -49l-40 -18q-12 39 -49 39q-57 0 -69 -69l-4 -25q28 19 69 19q82 0 82 -76q0 -65 -33.5 -98t-88.5 -33q-94 0 -94 94q0 14 1 21l13 92q8 54 41 87
t84 33zM361 128l-3 -25q-1 -5 -1 -13q0 -48 47 -48q61 0 61 76q0 41 -45 41q-22 0 -40 -8.5t-19 -22.5z" />
    <glyph glyph-name="uni215A" unicode="&#x215a;" horiz-adv-x="567" 
d="M99 547l-35 19l34 159h180l-9 -47h-133l-17 -82q31 13 61 13q84 0 84 -79q0 -61 -33 -94.5t-92 -33.5q-80 0 -94 70l42 16q12 -42 54 -42q65 0 65 77q0 42 -51 42q-33 0 -56 -18zM82 0h-59l471 725h60zM442 323q34 0 57.5 -17t30.5 -49l-40 -18q-12 39 -49 39
q-57 0 -69 -69l-4 -25q28 19 69 19q82 0 82 -76q0 -65 -33.5 -98t-88.5 -33q-94 0 -94 94q0 14 1 21l13 92q8 54 41 87t84 33zM361 128l-3 -25q-1 -5 -1 -13q0 -48 47 -48q61 0 61 76q0 41 -45 41q-22 0 -40 -8.5t-19 -22.5z" />
    <glyph glyph-name="oneeighth" unicode="&#x215b;" horiz-adv-x="567" 
d="M199 727h47l-39 -321h-59l28 225h-67l5 38h27q28 0 39 11t19 47zM82 0h-59l471 725l60 2zM396 -4q-100 0 -100 79q0 73 58 94q-32 16 -32 55q0 45 29 72t85 27q93 0 93 -71q0 -59 -49 -83q39 -15 39 -60q0 -57 -32.5 -85t-90.5 -28zM463 96q0 2 0.5 5.5t0.5 5.5
q0 38 -50 38q-31 0 -46.5 -14t-15.5 -49q0 -23 11.5 -32.5t37.5 -9.5q29 0 43.5 12t18.5 44zM431 280q-30 0 -43.5 -13.5t-13.5 -44.5q0 -37 45 -37q57 0 57 61q0 34 -45 34z" />
    <glyph glyph-name="threeeighths" unicode="&#x215c;" horiz-adv-x="567" 
d="M126 549l5 42h25q57 0 57 58q0 35 -41 35q-44 0 -65 -45l-40 15q15 35 45.5 55t70.5 20q44 0 66.5 -20t22.5 -53q0 -63 -54 -84q43 -12 43 -59q0 -54 -33 -82.5t-87 -28.5q-83 0 -99 70l43 16q12 -42 58 -42q58 0 58 65q0 38 -49 38h-26zM82 0h-59l471 725h60zM396 -4
q-100 0 -100 79q0 73 58 94q-32 16 -32 55q0 45 29 72t85 27q93 0 93 -71q0 -59 -49 -83q39 -15 39 -60q0 -57 -32.5 -85t-90.5 -28zM401 40q63 0 63 67q0 38 -50 38q-31 0 -46.5 -14t-15.5 -49q0 -23 11.5 -32.5t37.5 -9.5zM431 280q-30 0 -43.5 -13.5t-13.5 -44.5
q0 -37 45 -37q57 0 57 61q0 34 -45 34z" />
    <glyph glyph-name="fiveeighths" unicode="&#x215d;" horiz-adv-x="567" 
d="M99 547l-35 19l34 159h180l-9 -47h-133l-17 -82q31 13 61 13q84 0 84 -79q0 -61 -33 -94.5t-92 -33.5q-80 0 -94 70l42 16q12 -42 54 -42q65 0 65 77q0 42 -51 42q-33 0 -56 -18zM82 0h-59l471 725h60zM396 -4q-100 0 -100 79q0 73 58 94q-32 16 -32 55q0 45 29 72t85 27
q93 0 93 -71q0 -59 -49 -83q39 -15 39 -60q0 -57 -32.5 -85t-90.5 -28zM463 96q0 2 0.5 5.5t0.5 5.5q0 38 -50 38q-31 0 -46.5 -14t-15.5 -49q0 -23 11.5 -32.5t37.5 -9.5q29 0 43.5 12t18.5 44zM431 280q-30 0 -43.5 -13.5t-13.5 -44.5q0 -37 45 -37q57 0 57 61
q0 34 -45 34z" />
    <glyph glyph-name="seveneighths" unicode="&#x215e;" horiz-adv-x="567" 
d="M185 406h-64l156 272h-159l6 47h218l-5 -42zM82 0h-59l471 725h60zM396 -4q-100 0 -100 79q0 73 58 94q-32 16 -32 55q0 45 29 72t85 27q93 0 93 -71q0 -59 -49 -83q39 -15 39 -60q0 -57 -32.5 -85t-90.5 -28zM401 40q63 0 63 67q0 38 -50 38q-31 0 -46.5 -14t-15.5 -49
q0 -23 11.5 -32.5t37.5 -9.5zM431 280q-30 0 -43.5 -13.5t-13.5 -44.5q0 -37 45 -37q57 0 57 61q0 34 -45 34z" />
    <glyph glyph-name="uni215F" unicode="&#x215f;" horiz-adv-x="567" 
d="M199 727h47l-39 -321h-59l28 225h-67l5 38h27q28 0 39 11t19 47zM82 0h-59l471 725l60 2z" />
    <glyph glyph-name="uni2189" unicode="&#x2189;" horiz-adv-x="701" 
d="M282 617l-14 -103q-7 -52 -38 -82t-83 -30q-47 0 -71.5 25t-24.5 68q0 12 1 19l14 102q7 53 38 83t83 30q47 0 71.5 -24.5t24.5 -68.5q0 -12 -1 -19zM121 616l-14 -102q-1 -6 -1 -16q0 -50 46 -50q52 0 61 66l13 95q2 10 2 22q0 49 -47 49q-51 0 -60 -64zM162 0h-59
l471 725h60zM511 143l5 42h25q57 0 57 58q0 35 -41 35q-44 0 -65 -45l-40 15q15 35 45.5 55t70.5 20q44 0 66.5 -20t22.5 -53q0 -63 -54 -84q43 -12 43 -59q0 -54 -33 -82.5t-87 -28.5q-83 0 -99 70l43 16q12 -42 58 -42q58 0 58 65q0 38 -49 38h-26z" />
    <glyph glyph-name="partialdiff" unicode="&#x2202;" horiz-adv-x="473" 
d="M260 515q76 0 115 -45q1 9 1 26q0 76 -38.5 123.5t-125.5 64.5l23 55q215 -32 215 -245q0 -38 -11 -110l-33 -205q-14 -86 -74 -137t-152 -51q-78 0 -118.5 37.5t-40.5 102.5q0 13 4 41l27 162q14 81 69 131t139 50zM321 173l24 143q6 39 6 51q0 81 -88 81
q-53 0 -86 -30.5t-42 -86.5l-25 -151q-5 -32 -5 -43q0 -80 88 -80q106 0 128 116z" />
    <glyph glyph-name="Delta" unicode="&#x2206;" horiz-adv-x="589" 
d="M-25 0l334 725h78l154 -725h-566zM334 616l-232 -539h330z" />
    <glyph glyph-name="product" unicode="&#x220f;" horiz-adv-x="599" 
d="M82 725h540l-10 -82h-67l-88 -714h-86l88 715h-234l-88 -715h-86l88 714h-67z" />
    <glyph glyph-name="summation" unicode="&#x2211;" horiz-adv-x="538" 
d="M85 725h473l-10 -82h-346l165 -302l-244 -331h356l-10 -81h-482l4 40l278 372l-190 339z" />
    <glyph glyph-name="minus" unicode="&#x2212;" horiz-adv-x="462" 
d="M411 279h-360v65h360v-65z" />
    <glyph glyph-name="uni2215" unicode="&#x2215;" horiz-adv-x="272" 
d="M-43 0h-59l471 725h60z" />
    <glyph glyph-name="uni2219" unicode="&#x2219;" 
d="M150 310q0 54 33.5 91t82.5 37t82.5 -37t33.5 -91q0 -53 -33.5 -90t-82.5 -37t-82.5 37t-33.5 90z" />
    <glyph glyph-name="radical" unicode="&#x221a;" horiz-adv-x="568" 
d="M618 748l-327 -748h-97l-88 427l-77 13l7 65h156l64 -394l259 637h103z" />
    <glyph glyph-name="infinity" unicode="&#x221e;" horiz-adv-x="559" 
d="M520 287q0 -72 -30 -109t-76 -37q-38 0 -66.5 22t-68.5 72q-38 -50 -67 -72t-67 -22q-46 0 -76 37t-30 109q0 73 30 110t76 37q38 0 67 -22t67 -72q40 50 68.5 72t66.5 22q46 0 76 -37t30 -110zM246 287q-33 47 -52 65.5t-42 18.5q-52 0 -52 -84q0 -83 52 -83
q23 0 42 18.5t52 64.5zM313 287q24 -33 35.5 -46.5t27 -25t31.5 -11.5q52 0 52 83q0 84 -52 84q-23 0 -41.5 -18t-52.5 -66z" />
    <glyph glyph-name="integral" unicode="&#x222b;" horiz-adv-x="213" 
d="M248 839l7 -66q-50 -6 -74 -37t-24 -93v-615q0 -185 -175 -197l-7 67q50 6 74 37t24 93v614q0 185 175 197z" />
    <glyph glyph-name="approxequal" unicode="&#x2248;" horiz-adv-x="462" 
d="M403 417v-65q-47 -26 -90 -26q-32 0 -86.5 18.5t-84.5 18.5q-40 0 -83 -25v65q43 25 90 25q33 0 89.5 -18.5t84.5 -18.5q40 0 80 26zM403 274v-65q-47 -26 -90 -26q-32 0 -87 18.5t-84 18.5q-41 0 -83 -26v66q43 25 90 25q33 0 89.5 -18.5t84.5 -18.5q40 0 80 26z" />
    <glyph glyph-name="notequal" unicode="&#x2260;" horiz-adv-x="462" 
d="M358 492l-43 -84h88v-66h-122l-40 -77h162v-66h-196l-56 -110l-43 23l44 87h-93v66h127l40 77h-167v66h201l55 108z" />
    <glyph glyph-name="lessequal" unicode="&#x2264;" horiz-adv-x="462" 
d="M385 458l-211 -126l212 -125v-82l-329 202v10l328 204v-83zM63 33v62h323v-62h-323z" />
    <glyph glyph-name="greaterequal" unicode="&#x2265;" horiz-adv-x="462" 
d="M76 207l212 125l-211 126v83l328 -204v-10l-329 -202v82zM399 95v-62h-323v62h323z" />
    <glyph glyph-name="dotmath" unicode="&#x22c5;" 
d="M206 318q0 27 17.5 46t41.5 19q25 0 43 -19t18 -46q0 -26 -18 -45t-43 -19q-24 0 -41.5 19t-17.5 45z" />
    <glyph glyph-name="lozenge" unicode="&#x25ca;" horiz-adv-x="415" 
d="M40 298l168 255l167 -255l-167 -256zM111 297l96 -147l97 147l-96 147z" />
    <glyph glyph-name="uni2E18" unicode="&#x2e18;" horiz-adv-x="505" 
d="M454 54q-34 -73 -101 -119t-151 -46q-97 0 -144 44t-47 113q0 83 57.5 151.5t156.5 109.5l18 108h64l-17 -183l-33 -269q85 20 131 112zM219 240q-55 -31 -90 -78.5t-35 -108.5q0 -83 90 -94zM352 625l-12 -108h-101l12 108h101z" />
    <glyph glyph-name="uniFB00" unicode="&#xfb00;" horiz-adv-x="583" 
d="M592 505l-8 -62h-125l-54 -443h-83l54 443h-192l-54 -443h-83l54 443h-63l7 62h64l5 41q10 81 63 130.5t156 53.5l-2 -60q-66 -4 -97 -35.5t-40 -89.5l-6 -40h196l5 41q10 81 63 130.5t156 53.5l-2 -60q-66 -4 -97 -35.5t-40 -89.5l-6 -40h129z" />
    <glyph glyph-name="fi" unicode="&#xfb01;" horiz-adv-x="510" 
d="M333 730l-2 -60q-66 -4 -97 -35.5t-40 -89.5l-6 -40h276l-62 -505h-83l53 443h-188l-54 -443h-83l54 443h-63l7 62h64l5 41q10 81 63 130.5t156 53.5zM410 725h78l-13 -107h-78z" />
    <glyph glyph-name="fl" unicode="&#xfb02;" horiz-adv-x="518" 
d="M310 505l-8 -63h-118l-54 -442h-83l54 442h-63l7 63h64l5 41q22 183 241 183h56l3 19h84l-92 -748h-84l82 669h-54q-76 0 -111.5 -30t-44.5 -94l-6 -40h122z" />
    <glyph glyph-name="uniFB03" unicode="&#xfb03;" horiz-adv-x="782" 
d="M605 730l-2 -60q-66 -4 -97 -35.5t-40 -89.5l-6 -40h276l-62 -505h-83l53 443h-188l-54 -443h-83l54 443h-189l-54 -443h-83l54 443h-63l7 62h64l5 41q10 81 63 130.5t156 53.5l-2 -60q-66 -4 -97 -35.5t-40 -89.5l-6 -40h193l5 41q10 81 63 130.5t156 53.5zM682 725h78
l-13 -107h-78z" />
    <glyph glyph-name="uniFB04" unicode="&#xfb04;" horiz-adv-x="790" 
d="M581 505l-7 -62h-118l-54 -443h-84l54 443h-188l-54 -443h-83l54 443h-63l7 62h64l5 41q10 81 63 130.5t156 53.5l-2 -60q-66 -4 -97 -35.5t-40 -89.5l-6 -40h192l5 41q22 183 241 183h57l3 19h84l-92 -748h-84l82 669h-54q-76 0 -111.5 -29.5t-44.5 -94.5l-6 -40h121z
" />
    <glyph glyph-name="caron.alt001" horiz-adv-x="266" 
d="M172 725h74l-69 -137h-46z" />
    <glyph glyph-name="ogonek.alt001" horiz-adv-x="266" 
d="M111 -112q32 0 68 18l11 -46q-45 -26 -101 -26q-94 0 -94 65q0 35 31 66t80 51l38 -16q-28 0 -53 -25.5t-25 -53.5q0 -33 45 -33z" />
    <glyph glyph-name="numbersign.subs" horiz-adv-x="276" 
d="M-7 77l4 35h56l19 92h38l-20 -92h62l19 92h38l-19 -92h43l-4 -35h-45l-14 -69h50l-4 -35h-51l-19 -91h-38l19 91h-61l-19 -91h-38l19 91h-47l4 35h48l15 69h-55zM85 77l-14 -69h62l14 69h-62z" />
    <glyph glyph-name="dollar.subs" horiz-adv-x="251" 
d="M147 254l-6 -52q56 -14 67 -66l-37 -14q-10 30 -38 38l-19 -95q24 -10 38 -18t27 -25.5t13 -39.5q0 -44 -30 -72.5t-77 -32.5l-11 -45h-32l5 47q-63 11 -75 73l40 16q9 -37 43 -46l19 101q-18 7 -29 12.5t-23.5 15t-19 23t-6.5 30.5q0 41 29 69t77 32l12 49h33zM91 -81
q21 2 37.5 14t16.5 35q0 25 -41 43zM96 162q-50 -5 -50 -45q0 -22 37 -40z" />
    <glyph glyph-name="comma.subs" horiz-adv-x="138" 
d="M-14 -116l8 70h65l-7 -54q-7 -52 -24 -77t-51 -29l-1 28q34 10 41 62h-31z" />
    <glyph glyph-name="period.subs" horiz-adv-x="138" 
d="M-14 -118l8 72h65l-8 -72h-65z" />
    <glyph glyph-name="n.subs" horiz-adv-x="272" 
d="M-11 -118l30 249h47v-28q34 32 74 32q34 0 50.5 -18.5t16.5 -49.5q0 -11 -1 -17l-20 -168h-53l20 158q1 7 1 16q0 36 -35 36q-34 0 -56 -32l-21 -178h-53z" />
    <glyph glyph-name="cent.subs" horiz-adv-x="243" 
d="M211 135l-40 -15q-8 41 -50 41q-57 0 -65 -66l-14 -109q-1 -6 -1 -16q0 -52 48 -52q42 0 63 47l37 -15q-28 -61 -87 -71l-12 -47h-34l5 47q-75 9 -75 90q0 11 1 17l15 112q6 45 32 73.5t69 32.5l14 50h34l-5 -52q49 -12 65 -67z" />
    <glyph glyph-name="sterling.subs" horiz-adv-x="280" 
d="M9 -88q19 0 24 42q-33 -3 -33 -30q0 -12 9 -12zM-8 26l-2 36h34q-1 10 -1 28q0 53 32.5 86.5t85.5 33.5q38 0 63.5 -20t30.5 -50l-42 -17q-9 40 -54 40q-37 0 -50.5 -25.5t-13.5 -75.5h109l-9 -36h-99q1 -13 1 -47q13 -6 37 -29.5t41 -23.5q16 0 25.5 11t17.5 37l38 -12
q-25 -85 -83 -85q-15 0 -29 7t-21 14t-18.5 21t-15.5 18q-19 -60 -69 -60q-19 0 -30 10t-11 27q0 28 19 47t53 22l-5 43h-34z" />
    <glyph glyph-name="currency.subs" horiz-adv-x="196" 
d="M7 49q0 19 9 33l-21 23l19 21l22 -24q14 9 31 9q19 0 32 -9l24 25l19 -21l-23 -24q9 -15 9 -33q0 -21 -9 -34l22 -22l-20 -21l-23 23q-14 -9 -31 -9t-31 9l-22 -24l-20 21l22 23q-9 15 -9 34zM39 49q0 -13 8.5 -21.5t20.5 -8.5t20 8.5t8 21.5t-8 21.5t-20 8.5t-20.5 -8.5
t-8.5 -21.5z" />
    <glyph glyph-name="yen.subs" horiz-adv-x="304" 
d="M203 -55h-62l-7 -63h-60l7 63h-65l4 34h65l3 20h-66l4 33h56l-79 172h68l53 -150l91 150h68l-121 -172h51l-4 -33h-62l-2 -20h62z" />
    <glyph glyph-name="franc.subs" horiz-adv-x="263" 
d="M-43 -73l4 35h34l30 242h209l-6 -48h-149l-11 -90h127l-5 -45h-128l-7 -59h49l-4 -35h-50l-5 -45h-59l5 45h-34z" />
    <glyph glyph-name="lira.subs" horiz-adv-x="280" 
d="M-6 46l-2 28h31q0 2 -0.5 5t-0.5 5q0 56 32 91t87 35q38 0 63.5 -20t30.5 -50l-42 -17q-9 40 -54 40q-64 0 -64 -89h115l-9 -28h-106q0 -3 0.5 -7.5t0.5 -6.5h100l-8 -28h-91v-31q14 -5 37.5 -26t40.5 -21q16 0 25.5 11t17.5 37l38 -12q-25 -85 -83 -85q-16 0 -30 7
t-21 14t-18 20.5t-15 17.5q-20 -59 -69 -59q-19 0 -30 9.5t-11 25.5q0 28 19.5 46t53.5 20q0 10 -3 26h-32v28h29q-1 4 -1 14h-31zM8 -90q19 0 24 42q-33 -4 -33 -31q0 -11 9 -11z" />
    <glyph glyph-name="peseta.subs" horiz-adv-x="458" 
d="M91 204q68 0 68 -77q0 -57 -25 -89t-64 -32h-34l-15 -124h-47l39 322h78zM418 62l-29 -13q-6 28 -28 28q-11 0 -18 -8.5t-7 -21.5q0 -11 11 -21t23.5 -17t23.5 -22t11 -35q0 -34 -19.5 -54.5t-50.5 -20.5q-52 0 -58 57l30 11q5 -34 30 -34q12 0 19.5 9t7.5 24
q0 13 -11 24t-24 18t-24 21t-11 34q0 31 19 51.5t49 20.5q50 0 56 -51zM281 108l-4 -35h-41l-17 -142q0 -18 19 -18q7 0 16 3l1 -28q-15 -10 -37 -10q-43 0 -43 44q0 10 1 15l16 134l-20 7l4 30l24 1l18 61h30l-8 -62h41zM55 164l-14 -121h29q42 0 42 83q0 38 -27 38h-30z
" />
    <glyph glyph-name="Euro.subs" horiz-adv-x="281" 
d="M141 209q38 0 65 -20t33 -50l-44 -17q-10 39 -55 39q-63 0 -71 -69l-1 -8h122l-10 -27h-116l-3 -19h111l-10 -27h-104l-3 -20q-1 -4 -1 -13q0 -55 56 -55q45 0 65 42l41 -16q-31 -72 -116 -72q-49 0 -77.5 27t-28.5 71q0 10 1 16l3 20h-26l4 27h25l3 19h-26l4 27h26l1 8
q6 54 41.5 85.5t90.5 31.5z" />
    <glyph glyph-name="numbersign.sups" horiz-adv-x="276" 
d="M65 673l4 35h56l19 92h38l-20 -92h62l19 92h38l-19 -92h43l-4 -35h-45l-14 -69h50l-4 -35h-51l-19 -91h-38l19 91h-61l-19 -91h-38l19 91h-47l4 35h48l15 69h-55zM157 673l-14 -69h62l14 69h-62z" />
    <glyph glyph-name="dollar.sups" horiz-adv-x="251" 
d="M219 850l-6 -52q56 -14 67 -66l-37 -14q-10 30 -38 38l-19 -95q24 -10 38 -18t27 -25.5t13 -39.5q0 -44 -30 -72.5t-77 -32.5l-11 -45h-32l5 47q-63 11 -75 73l40 16q9 -37 43 -46l19 101q-18 7 -29 12.5t-24 15t-19 23t-6 30.5q0 41 29 69t77 32l12 49h33zM163 515
q21 2 37.5 14t16.5 35q0 25 -41 43zM168 758q-50 -5 -50 -45q0 -22 37 -40z" />
    <glyph glyph-name="comma.sups" horiz-adv-x="138" 
d="M58 480l8 70h65l-7 -54q-7 -52 -24 -77t-51 -29l-1 28q34 10 41 62h-31z" />
    <glyph glyph-name="period.sups" horiz-adv-x="138" 
d="M58 478l8 72h65l-8 -72h-65z" />
    <glyph glyph-name="cent.sups" horiz-adv-x="243" 
d="M283 731l-40 -15q-8 41 -50 41q-57 0 -65 -66l-14 -109q-1 -6 -1 -16q0 -52 48 -52q42 0 63 47l37 -15q-28 -61 -87 -71l-12 -47h-34l5 46q-37 5 -56 29t-19 60q0 12 1 19l15 112q6 45 32 73.5t69 32.5l14 50h34l-5 -52q49 -12 65 -67z" />
    <glyph glyph-name="sterling.sups" horiz-adv-x="280" 
d="M64 622l-2 36h34q-1 10 -1 28q0 53 32.5 86.5t85.5 33.5q38 0 63.5 -20t30.5 -50l-42 -17q-9 40 -54 40q-37 0 -50.5 -25.5t-13.5 -75.5h109l-9 -36h-99q1 -13 1 -47q13 -6 37 -29.5t41 -23.5q16 0 25.5 11t17.5 37l38 -12q-25 -85 -83 -85q-15 0 -29 7t-21 14t-18.5 21
t-15.5 18q-19 -60 -69 -60q-19 0 -30 10t-11 27q0 28 19 47t53 22l-5 43h-34zM81 508q19 0 24 42q-33 -3 -33 -30q0 -12 9 -12z" />
    <glyph glyph-name="currency.sups" horiz-adv-x="196" 
d="M79 645q0 19 9 33l-21 23l19 21l22 -24q14 9 31 9q19 0 32 -9l24 25l19 -21l-23 -24q9 -15 9 -33q0 -21 -9 -34l22 -22l-20 -21l-23 23q-13 -9 -31 -9q-17 0 -31 9l-22 -24l-20 21l22 23q-9 15 -9 34zM111 645q0 -13 8.5 -21.5t20.5 -8.5t20 8.5t8 21.5t-8 21.5t-20 8.5
t-20.5 -8.5t-8.5 -21.5z" />
    <glyph glyph-name="yen.sups" horiz-adv-x="304" 
d="M275 541h-62l-7 -63h-60l7 63h-65l4 34h65l3 20h-66l4 33h56l-79 172h68l53 -150l91 150h68l-121 -172h51l-4 -33h-62l-2 -20h62z" />
    <glyph glyph-name="franc.sups" horiz-adv-x="263" 
d="M29 523l4 35h34l30 242h209l-6 -48h-149l-11 -90h127l-5 -45h-128l-7 -59h49l-4 -35h-50l-5 -45h-59l5 45h-34z" />
    <glyph glyph-name="lira.sups" horiz-adv-x="280" 
d="M66 642l-2 28h31q0 2 -0.5 5t-0.5 5q0 56 32 91t87 35q38 0 63.5 -20t30.5 -50l-42 -17q-9 40 -54 40q-64 0 -64 -89h115l-9 -28h-106q0 -3 0.5 -7.5t0.5 -6.5h100l-8 -28h-91v-31q14 -5 37.5 -26t40.5 -21q16 0 25.5 11t17.5 37l38 -12q-25 -85 -83 -85q-16 0 -30 7
t-21 14t-18 20.5t-15 17.5q-20 -59 -69 -59q-19 0 -30 9.5t-11 25.5q0 28 19.5 46t53.5 20q0 10 -3 26h-32v28h29q-1 4 -1 14h-31zM80 506q19 0 24 42q-33 -4 -33 -31q0 -11 9 -11z" />
    <glyph glyph-name="peseta.sups" horiz-adv-x="458" 
d="M163 800q68 0 68 -77q0 -57 -25 -89t-64 -32h-34l-15 -124h-47l39 322h78zM490 658l-29 -13q-6 28 -28 28q-11 0 -18 -8.5t-7 -21.5q0 -11 11 -21t23.5 -17t23.5 -22t11 -35q0 -34 -19.5 -54.5t-50.5 -20.5q-52 0 -58 57l30 11q5 -34 30 -34q12 0 19.5 9t7.5 24
q0 13 -11 24t-24 18t-24 21t-11 34q0 31 19 51.5t49 20.5q50 0 56 -51zM353 704l-4 -35h-41l-17 -137v-5q0 -18 19 -18q7 0 16 3l1 -28q-15 -10 -37 -10q-43 0 -43 44q0 10 1 15l16 134l-20 7l4 30l24 1l18 61h30l-8 -62h41zM127 760l-14 -121h29q42 0 42 83q0 38 -27 38
h-30z" />
    <glyph glyph-name="Euro.sups" horiz-adv-x="281" 
d="M213 805q38 0 65 -20t33 -50l-44 -17q-10 39 -55 39q-63 0 -71 -69l-1 -8h122l-10 -27h-116l-3 -19h111l-10 -27h-104l-3 -20q-1 -4 -1 -13q0 -55 56 -55q45 0 65 42l41 -16q-31 -72 -116 -72q-49 0 -77.5 27t-28.5 71q0 10 1 16l3 20h-26l4 27h25l3 19h-26l4 27h26l1 8
q6 54 41.5 85.5t90.5 31.5z" />
    <glyph glyph-name="numbersign.numr" horiz-adv-x="276" 
d="M56 601l4 35h56l19 92h38l-20 -92h62l19 92h38l-19 -92h43l-4 -35h-45l-14 -69h50l-4 -35h-51l-19 -91h-38l19 91h-61l-19 -91h-38l19 91h-47l4 35h48l15 69h-55zM148 601l-14 -69h62l14 69h-62z" />
    <glyph glyph-name="dollar.numr" horiz-adv-x="251" 
d="M210 778l-6 -52q56 -14 67 -66l-37 -14q-10 30 -38 38l-19 -95q24 -10 38 -18t27 -25.5t13 -39.5q0 -44 -30 -72.5t-77 -32.5l-11 -45h-32l5 47q-63 11 -75 73l40 16q9 -37 43 -46l19 101q-18 7 -29 12.5t-24 15t-19 23t-6 30.5q0 41 29 69t77 32l12 49h33zM154 443
q21 2 37.5 14t16.5 35q0 25 -41 43zM159 686q-50 -5 -50 -45q0 -22 37 -40z" />
    <glyph glyph-name="parenleft.numr" horiz-adv-x="142" 
d="M56 496l16 129q10 78 38 113.5t82 35.5h13l-5 -35h-13q-56 0 -70 -114l-16 -129q-3 -22 -3 -40q0 -74 46 -74h13l-4 -35h-13q-45 0 -66 24.5t-21 77.5q0 21 3 47z" />
    <glyph glyph-name="parenright.numr" horiz-adv-x="142" 
d="M149 625l-17 -129q-11 -78 -39 -113.5t-80 -35.5h-12l3 36h13q55 0 70 113l16 129q3 24 3 42q0 71 -46 71h-12l4 36h12q45 0 66.5 -25.5t21.5 -79.5q0 -20 -3 -44z" />
    <glyph glyph-name="plus.numr" horiz-adv-x="232" 
d="M116 460l9 81h-68l4 38h69l9 81h39l-10 -81h69l-4 -38h-70l-9 -81h-38z" />
    <glyph glyph-name="comma.numr" horiz-adv-x="138" 
d="M49 408l8 70h65l-7 -54q-7 -52 -24 -77t-51 -29l-1 28q34 10 41 62h-31z" />
    <glyph glyph-name="period.numr" horiz-adv-x="138" 
d="M49 406l8 72h65l-8 -72h-65z" />
    <glyph glyph-name="zero.numr" horiz-adv-x="271" 
d="M282 617l-14 -103q-7 -52 -38 -82t-83 -30q-47 0 -71.5 25t-24.5 68q0 12 1 19l14 102q7 53 38 83t83 30q47 0 71.5 -24.5t24.5 -68.5q0 -12 -1 -19zM121 616l-14 -102q-1 -6 -1 -16q0 -50 46 -50q52 0 61 66l13 95q2 10 2 22q0 49 -47 49q-51 0 -60 -64z" />
    <glyph glyph-name="one.numr" horiz-adv-x="212" 
d="M162 727h47l-39 -321h-59l28 225h-67l5 38h27q28 0 39 11t19 47z" />
    <glyph glyph-name="two.numr" horiz-adv-x="271" 
d="M189 729q46 0 68.5 -20.5t22.5 -52.5q0 -39 -23.5 -71t-53 -49t-58.5 -40t-36 -45h149l-5 -45h-208l1 26q6 36 35 68t60 51t56.5 45.5t25.5 53.5q0 33 -43 33q-46 0 -66 -52l-43 15q37 83 118 83z" />
    <glyph glyph-name="three.numr" horiz-adv-x="271" 
d="M130 549l5 42h25q57 0 57 58q0 35 -41 35q-44 0 -65 -45l-40 15q15 35 45.5 55t70.5 20q44 0 66.5 -20t22.5 -53q0 -63 -54 -84q43 -12 43 -59q0 -54 -33 -82.5t-87 -28.5q-83 0 -99 70l43 16q12 -42 58 -42q58 0 58 65q0 38 -49 38h-26z" />
    <glyph glyph-name="four.numr" horiz-adv-x="271" 
d="M232 406h-50l7 59h-152l5 37l175 223h54l-27 -216h40l-10 -44h-35zM103 509h92l22 155z" />
    <glyph glyph-name="five.numr" horiz-adv-x="271" 
d="M103 547l-35 19l34 159h180l-9 -47h-133l-17 -82q31 13 61 13q84 0 84 -79q0 -61 -33 -94.5t-92 -33.5q-80 0 -94 70l42 16q12 -42 54 -42q65 0 65 77q0 42 -51 42q-33 0 -56 -18z" />
    <glyph glyph-name="six.numr" horiz-adv-x="271" 
d="M193 729q34 0 57.5 -17t30.5 -49l-40 -18q-12 39 -49 39q-58 0 -69 -69l-4 -25q29 19 69 19q82 0 82 -76q0 -65 -33 -98t-89 -33q-94 0 -94 94q0 14 1 21l13 92q8 54 41 87t84 33zM112 534l-3 -25q-1 -5 -1 -13q0 -48 47 -48q61 0 61 76q0 41 -45 41q-22 0 -40 -8.5
t-19 -22.5z" />
    <glyph glyph-name="seven.numr" horiz-adv-x="252" 
d="M130 406h-64l156 272h-159l6 47h218l-5 -42z" />
    <glyph glyph-name="eight.numr" horiz-adv-x="271" 
d="M147 402q-100 0 -100 79q0 73 58 94q-32 16 -32 55q0 45 29 72t85 27q93 0 93 -71q0 -59 -49 -83q39 -15 39 -60q0 -57 -32.5 -85t-90.5 -28zM152 446q63 0 63 67q0 38 -50 38q-31 0 -46.5 -14t-15.5 -49q0 -23 11.5 -32.5t37.5 -9.5zM182 686q-30 0 -43.5 -13.5
t-13.5 -44.5q0 -37 45 -37q57 0 57 61q0 34 -45 34z" />
    <glyph glyph-name="nine.numr" horiz-adv-x="271" 
d="M51 465l37 21q16 -39 57 -39q59 0 65 58l5 44q-27 -18 -68 -18q-38 0 -60 19.5t-22 57.5q0 56 32.5 88.5t90.5 32.5q44 0 68.5 -23.5t24.5 -63.5q0 -12 -1 -18l-16 -117q-7 -48 -39.5 -76.5t-81.5 -28.5q-75 0 -92 63zM163 573q19 0 37.5 8t21.5 21l4 28q1 5 1 13
q0 42 -44 42q-63 0 -63 -71q0 -41 43 -41z" />
    <glyph glyph-name="equal.numr" horiz-adv-x="232" 
d="M228 573h-162l5 38h161zM219 502h-161l4 38h161z" />
    <glyph glyph-name="n.numr" horiz-adv-x="272" 
d="M52 406l30 249h47v-28q34 32 74 32q34 0 50.5 -18.5t16.5 -49.5q0 -11 -1 -17l-20 -168h-53l20 158q1 7 1 16q0 36 -35 36q-34 0 -56 -32l-21 -178h-53z" />
    <glyph glyph-name="cent.numr" horiz-adv-x="243" 
d="M274 659l-40 -15q-8 41 -50 41q-57 0 -65 -66l-14 -109q-1 -6 -1 -16q0 -52 48 -52q42 0 63 47l37 -15q-28 -61 -87 -71l-12 -47h-34l5 46q-37 5 -56 29t-19 60q0 12 1 19l15 112q6 45 32 73.5t69 32.5l14 50h34l-5 -52q49 -12 65 -67z" />
    <glyph glyph-name="sterling.numr" horiz-adv-x="280" 
d="M55 550l-2 36h34q-1 10 -1 28q0 53 32.5 86.5t85.5 33.5q38 0 63.5 -20t30.5 -50l-42 -17q-9 40 -54 40q-37 0 -50.5 -25.5t-13.5 -75.5h109l-9 -36h-99q1 -13 1 -47q13 -6 37 -29.5t41 -23.5q16 0 25.5 11t17.5 37l38 -12q-25 -85 -83 -85q-15 0 -29 7t-21 14t-18.5 21
t-15.5 18q-19 -60 -69 -60q-19 0 -30 10t-11 27q0 28 19 47t53 22l-5 43h-34zM72 436q19 0 24 42q-33 -3 -33 -30q0 -12 9 -12z" />
    <glyph glyph-name="currency.numr" horiz-adv-x="196" 
d="M70 573q0 19 9 33l-21 23l19 21l22 -24q13 9 31 9t32 -9l24 25l19 -21l-23 -24q9 -15 9 -33q0 -21 -9 -34l22 -22l-20 -21l-23 23q-13 -9 -31 -9t-31 9l-22 -24l-20 21l22 23q-9 15 -9 34zM102 573q0 -13 8.5 -21.5t20.5 -8.5t20 8.5t8 21.5t-8 21.5t-20 8.5t-20.5 -8.5
t-8.5 -21.5z" />
    <glyph glyph-name="yen.numr" horiz-adv-x="304" 
d="M266 469h-62l-7 -63h-60l7 63h-65l4 34h65l3 20h-66l4 33h56l-79 172h68l53 -150l91 150h68l-121 -172h51l-4 -33h-62l-2 -20h62z" />
    <glyph glyph-name="franc.numr" horiz-adv-x="263" 
d="M20 451l4 35h34l30 242h209l-6 -48h-149l-11 -90h127l-5 -45h-128l-7 -59h49l-4 -35h-50l-5 -45h-59l5 45h-34z" />
    <glyph glyph-name="lira.numr" horiz-adv-x="280" 
d="M57 570l-2 28h31q0 2 -0.5 5t-0.5 5q0 56 32 91t87 35q38 0 63.5 -20t30.5 -50l-42 -17q-9 40 -54 40q-64 0 -64 -89h115l-9 -28h-106q0 -3 0.5 -7.5t0.5 -6.5h100l-8 -28h-91v-31q14 -5 37.5 -26t40.5 -21q16 0 25.5 11t17.5 37l38 -12q-25 -85 -83 -85q-16 0 -30 7
t-21 14t-18 20.5t-15 17.5q-20 -59 -69 -59q-19 0 -30 9.5t-11 25.5q0 28 19.5 46t53.5 20q0 10 -3 26h-32v28h29q-1 4 -1 14h-31zM71 434q19 0 24 42q-33 -4 -33 -31q0 -11 9 -11z" />
    <glyph glyph-name="peseta.numr" horiz-adv-x="458" 
d="M154 728q68 0 68 -77q0 -57 -25 -89t-64 -32h-34l-15 -124h-47l39 322h78zM481 586l-29 -13q-6 28 -28 28q-11 0 -18 -8.5t-7 -21.5q0 -11 11 -21t23.5 -17t23.5 -22t11 -35q0 -34 -19.5 -54.5t-50.5 -20.5q-52 0 -58 57l30 11q5 -34 30 -34q12 0 19.5 9t7.5 24
q0 13 -11 24t-24 18t-24 21t-11 34q0 31 19 51.5t49 20.5q50 0 56 -51zM344 632l-4 -35h-41l-16 -128q-1 -7 -1 -14q0 -18 19 -18q7 0 16 3l1 -28q-15 -10 -37 -10q-43 0 -43 44q0 10 1 15l16 134l-20 7l4 30l24 1l18 61h30l-8 -62h41zM118 688l-14 -121h29q42 0 42 83
q0 38 -27 38h-30z" />
    <glyph glyph-name="Euro.numr" horiz-adv-x="281" 
d="M204 733q38 0 65 -20t33 -50l-44 -17q-10 39 -55 39q-63 0 -71 -69l-1 -8h122l-10 -27h-116l-3 -19h111l-10 -27h-104l-3 -20q-1 -4 -1 -13q0 -55 56 -55q45 0 65 42l41 -16q-31 -72 -116 -72q-49 0 -77.5 27t-28.5 71q0 10 1 16l3 20h-26l4 27h25l3 19h-26l4 27h26l1 8
q6 54 41.5 85.5t90.5 31.5z" />
    <glyph glyph-name="minus.numr" horiz-adv-x="232" 
d="M233 541h-176l4 38h176z" />
    <glyph glyph-name="numbersign.dnom" horiz-adv-x="276" 
d="M7 195l4 35h56l19 92h38l-20 -92h62l19 92h38l-19 -92h43l-4 -35h-45l-14 -69h50l-4 -35h-51l-19 -91h-38l19 91h-61l-19 -91h-38l19 91h-47l4 35h48l15 69h-55zM99 195l-14 -69h62l14 69h-62z" />
    <glyph glyph-name="dollar.dnom" horiz-adv-x="251" 
d="M161 372l-6 -52q56 -14 67 -66l-37 -14q-10 30 -38 38l-19 -95q24 -10 38 -18t27 -25.5t13 -39.5q0 -44 -30 -72.5t-77 -32.5l-11 -45h-32l5 47q-63 11 -75 73l40 16q9 -37 43 -46l19 101q-18 7 -29 12.5t-24 15t-19 23t-6 30.5q0 41 29 69t77 32l12 49h33zM105 37
q21 2 37.5 14t16.5 35q0 25 -41 43zM110 280q-50 -5 -50 -45q0 -22 37 -40z" />
    <glyph glyph-name="parenleft.dnom" horiz-adv-x="142" 
d="M7 90l16 129q10 78 38 113.5t82 35.5h13l-5 -35h-13q-56 0 -70 -114l-16 -129q-3 -22 -3 -40q0 -74 46 -74h13l-4 -35h-13q-45 0 -66 24.5t-21 77.5q0 21 3 47z" />
    <glyph glyph-name="parenright.dnom" horiz-adv-x="142" 
d="M100 219l-17 -129q-11 -78 -39 -113.5t-80 -35.5h-12l3 36h13q55 0 70 113l16 129q3 24 3 42q0 71 -46 71h-12l4 36h12q45 0 66.5 -25.5t21.5 -79.5q0 -20 -3 -44z" />
    <glyph glyph-name="plus.dnom" horiz-adv-x="232" 
d="M67 54l9 81h-68l4 38h69l9 81h39l-10 -81h69l-4 -38h-70l-9 -81h-38z" />
    <glyph glyph-name="comma.dnom" horiz-adv-x="138" 
d="M0 2l8 70h65l-7 -54q-7 -52 -24 -77t-51 -29l-1 28q34 10 41 62h-31z" />
    <glyph glyph-name="period.dnom" horiz-adv-x="138" 
d="M0 0l8 72h65l-8 -72h-65z" />
    <glyph glyph-name="zero.dnom" horiz-adv-x="271" 
d="M233 211l-14 -103q-7 -52 -38 -82t-83 -30q-46 0 -71 25t-25 68q0 12 1 19l14 102q7 53 38 83t83 30q46 0 71 -24.5t25 -68.5q0 -12 -1 -19zM72 210l-14 -102q-1 -6 -1 -16q0 -50 46 -50q52 0 61 66l13 95q2 10 2 22q0 49 -47 49q-51 0 -60 -64z" />
    <glyph glyph-name="one.dnom" horiz-adv-x="212" 
d="M113 321h47l-39 -321h-59l28 225h-67l5 38h27q28 0 39 11t19 47z" />
    <glyph glyph-name="two.dnom" horiz-adv-x="271" 
d="M140 323q46 0 68.5 -20.5t22.5 -52.5q0 -39 -23.5 -71t-53 -49t-58.5 -40t-36 -45h149l-5 -45h-208l1 26q6 36 35 68t60 51t56.5 45.5t25.5 53.5q0 33 -43 33q-22 0 -39.5 -14t-26.5 -38l-43 15q37 83 118 83z" />
    <glyph glyph-name="three.dnom" horiz-adv-x="271" 
d="M81 143l5 42h25q57 0 57 58q0 35 -41 35q-44 0 -65 -45l-40 15q15 35 45.5 55t70.5 20q44 0 66.5 -20t22.5 -53q0 -63 -54 -84q43 -12 43 -59q0 -54 -33 -82.5t-87 -28.5q-83 0 -99 70l43 16q12 -42 58 -42q58 0 58 65q0 38 -49 38h-26z" />
    <glyph glyph-name="four.dnom" horiz-adv-x="271" 
d="M183 0h-50l7 59h-152l5 37l175 223h54l-27 -216h40l-10 -44h-35zM54 103h92l22 155z" />
    <glyph glyph-name="five.dnom" horiz-adv-x="271" 
d="M54 141l-35 19l34 159h180l-9 -47h-133l-17 -82q31 13 61 13q84 0 84 -79q0 -61 -33 -94.5t-92 -33.5q-80 0 -94 70l42 16q12 -42 54 -42q65 0 65 77q0 42 -51 42q-33 0 -56 -18z" />
    <glyph glyph-name="six.dnom" horiz-adv-x="271" 
d="M144 323q34 0 57.5 -17t30.5 -49l-40 -18q-12 39 -49 39q-57 0 -69 -69l-4 -25q29 19 69 19q82 0 82 -76q0 -65 -33.5 -98t-88.5 -33q-94 0 -94 94q0 14 1 21l13 92q8 54 41 87t84 33zM63 128l-3 -25q-1 -5 -1 -13q0 -48 47 -48q61 0 61 76q0 41 -45 41q-22 0 -40 -8.5
t-19 -22.5z" />
    <glyph glyph-name="seven.dnom" horiz-adv-x="252" 
d="M81 0h-64l156 272h-159l6 47h218l-5 -42z" />
    <glyph glyph-name="eight.dnom" horiz-adv-x="271" 
d="M98 -4q-100 0 -100 79q0 73 58 94q-32 16 -32 55q0 45 29 72t85 27q93 0 93 -71q0 -59 -49 -83q39 -15 39 -60q0 -57 -32.5 -85t-90.5 -28zM103 40q63 0 63 67q0 38 -50 38q-31 0 -46.5 -14t-15.5 -49q0 -23 11.5 -32.5t37.5 -9.5zM133 280q-30 0 -43.5 -13.5
t-13.5 -44.5q0 -37 45 -37q57 0 57 61q0 34 -45 34z" />
    <glyph glyph-name="nine.dnom" horiz-adv-x="271" 
d="M2 59l37 21q16 -39 57 -39q59 0 65 58l5 44q-27 -18 -68 -18q-38 0 -60 19.5t-22 57.5q0 56 32.5 88.5t90.5 32.5q44 0 68.5 -23.5t24.5 -63.5q0 -12 -1 -18l-16 -117q-7 -48 -39.5 -76.5t-81.5 -28.5q-75 0 -92 63zM114 167q19 0 37.5 8t21.5 21l4 28q1 5 1 13
q0 42 -44 42q-63 0 -63 -71q0 -41 43 -41z" />
    <glyph glyph-name="equal.dnom" horiz-adv-x="232" 
d="M179 167h-162l5 38h161zM170 96h-161l4 38h161z" />
    <glyph glyph-name="n.dnom" horiz-adv-x="272" 
d="M3 0l30 249h47v-28q34 32 74 32q34 0 50.5 -18.5t16.5 -49.5q0 -11 -1 -17l-20 -168h-53l19 150q2 14 2 24q0 36 -35 36q-34 0 -56 -32l-21 -178h-53z" />
    <glyph glyph-name="cent.dnom" horiz-adv-x="243" 
d="M225 253l-40 -15q-8 41 -50 41q-57 0 -65 -66l-14 -109q-1 -6 -1 -16q0 -52 48 -52q42 0 63 47l37 -15q-28 -61 -87 -71l-12 -47h-34l5 47q-75 9 -75 90q0 11 1 17l15 112q6 45 32 73.5t69 32.5l14 50h34l-5 -52q49 -12 65 -67z" />
    <glyph glyph-name="sterling.dnom" horiz-adv-x="280" 
d="M6 144l-2 36h34q-1 10 -1 28q0 53 32.5 86.5t85.5 33.5q38 0 63.5 -20t30.5 -50l-42 -17q-9 40 -54 40q-37 0 -50.5 -25.5t-13.5 -75.5h109l-9 -36h-99q1 -13 1 -47q13 -6 37 -29.5t41 -23.5q16 0 25.5 11t17.5 37l38 -12q-25 -85 -83 -85q-15 0 -29 7t-21 14t-18.5 21
t-15.5 18q-19 -60 -69 -60q-19 0 -30 10t-11 27q0 28 19 47t53 22l-5 43h-34zM23 30q19 0 24 42q-33 -3 -33 -30q0 -12 9 -12z" />
    <glyph glyph-name="currency.dnom" horiz-adv-x="196" 
d="M21 167q0 20 9 33l-21 23l19 21l22 -24q14 9 31 9q19 0 32 -9l24 25l19 -21l-23 -24q9 -15 9 -33q0 -21 -9 -34l22 -22l-20 -21l-23 23q-13 -9 -31 -9q-17 0 -31 9l-22 -24l-20 21l22 23q-9 15 -9 34zM53 167q0 -13 8.5 -21.5t20.5 -8.5t20 8.5t8 21.5t-8 21.5t-20 8.5
t-20.5 -8.5t-8.5 -21.5z" />
    <glyph glyph-name="yen.dnom" horiz-adv-x="304" 
d="M217 63h-62l-7 -63h-60l7 63h-65l4 34h65l3 20h-66l4 33h56l-79 172h68l53 -150l91 150h68l-121 -172h51l-4 -33h-62l-2 -20h62z" />
    <glyph glyph-name="franc.dnom" horiz-adv-x="263" 
d="M-29 45l4 35h34l30 242h209l-6 -48h-149l-11 -90h127l-5 -45h-128l-7 -59h49l-4 -35h-50l-5 -45h-59l5 45h-34z" />
    <glyph glyph-name="lira.dnom" horiz-adv-x="280" 
d="M8 164l-2 28h31q0 2 -0.5 5t-0.5 5q0 56 32 91t87 35q38 0 63.5 -20t30.5 -50l-42 -17q-9 40 -54 40q-64 0 -64 -89h115l-9 -28h-106q0 -3 0.5 -7.5t0.5 -6.5h100l-8 -28h-91v-31q14 -5 37.5 -26t40.5 -21q16 0 25.5 11t17.5 37l38 -12q-25 -85 -83 -85q-16 0 -30 7
t-21 14t-18 20.5t-15 17.5q-20 -59 -69 -59q-19 0 -30 9.5t-11 25.5q0 28 19.5 46t53.5 20q0 9 -3 26h-32v28h29q-1 4 -1 14h-31zM22 28q19 0 24 42q-33 -4 -33 -31q0 -11 9 -11z" />
    <glyph glyph-name="peseta.dnom" horiz-adv-x="458" 
d="M105 322q68 0 68 -77q0 -57 -25 -89t-64 -32h-34l-15 -124h-47l39 322h78zM432 180l-29 -13q-6 28 -28 28q-11 0 -18 -8.5t-7 -21.5q0 -11 11 -21t23.5 -17t23.5 -22t11 -35q0 -34 -19.5 -54.5t-50.5 -20.5q-52 0 -58 57l30 11q5 -34 30 -34q12 0 19.5 9t7.5 24
q0 13 -11 24t-24 18t-24 21t-11 34q0 31 19 51.5t49 20.5q50 0 56 -51zM295 226l-4 -35h-41l-16 -129q-1 -8 -1 -13q0 -18 19 -18q7 0 16 3l1 -28q-15 -10 -37 -10q-43 0 -43 44q0 10 1 15l16 134l-20 7l4 30l24 1l18 61h30l-8 -62h41zM69 282l-14 -121h29q42 0 42 83
q0 38 -27 38h-30z" />
    <glyph glyph-name="Euro.dnom" horiz-adv-x="281" 
d="M155 327q38 0 65 -20t33 -50l-44 -17q-10 39 -55 39q-63 0 -71 -69l-1 -8h122l-10 -27h-116l-3 -19h111l-10 -27h-104l-3 -20q-1 -4 -1 -13q0 -55 56 -55q45 0 65 42l41 -16q-31 -72 -116 -72q-49 0 -77.5 27t-28.5 71q0 10 1 16l3 20h-26l4 27h25l3 19h-26l4 27h26l1 8
q6 54 41.5 85.5t90.5 31.5z" />
    <glyph glyph-name="minus.dnom" horiz-adv-x="232" 
d="M184 135h-176l4 38h176z" />
    <glyph glyph-name="space.frac" horiz-adv-x="45" 
 />
    <glyph glyph-name="numbersign.osf" horiz-adv-x="458" 
d="M37 373l7 59h95l36 179h62l-36 -179h107l36 179h63l-36 -179h72l-6 -59h-75l-28 -137h86l-7 -57h-87l-37 -179h-63l37 179h-107l-37 -179h-62l37 179h-80l6 57h83l27 137h-93zM192 373l-27 -137h106l28 137h-107z" />
    <glyph glyph-name="dollar.osf" horiz-adv-x="458" 
d="M63 437q0 73 49 121t127 57l29 124h55l-13 -128q47 -10 77.5 -41t40.5 -77l-62 -21q-20 76 -106 76q-55 0 -82 -25t-27 -69q0 -31 25 -56t60.5 -43t71.5 -38.5t61 -54.5t25 -79q0 -76 -47.5 -128t-120.5 -61l-28 -129h-55l13 128q-59 6 -92.5 39t-46.5 96l64 22
q21 -94 121 -94q47 0 78 28.5t31 78.5q0 33 -25.5 58.5t-62 43.5t-73 38t-62 54t-25.5 80z" />
    <glyph glyph-name="plus.osf" horiz-adv-x="458" 
d="M195 70v185h-143v65h143v187h65v-187h147v-65h-147v-185h-65z" />
    <glyph glyph-name="zero.osf" horiz-adv-x="484" 
d="M452 387l-26 -198q-12 -94 -69.5 -146t-153.5 -52q-85 0 -130 43t-45 121q0 23 2 36l25 191q13 97 70 151.5t152 54.5q86 0 131.5 -43t45.5 -122q0 -12 -2 -36zM139 383l-25 -188q-3 -21 -3 -38q0 -100 100 -100q58 0 89.5 31.5t40.5 97.5l26 195q3 18 3 40
q0 100 -101 100q-114 0 -130 -138z" />
    <glyph glyph-name="one.osf" horiz-adv-x="334" 
d="M194 407h-147l8 62h67q58 0 80 23.5t35 98.5h68l-72 -591h-89z" />
    <glyph glyph-name="two.osf" horiz-adv-x="456" 
d="M276 590q79 0 117.5 -33.5t38.5 -90.5q0 -80 -78 -174.5t-227 -222.5h264l-7 -69h-380l4 53q339 269 339 400q0 67 -88 67q-82 0 -141 -79l-57 30q44 60 95 89.5t120 29.5z" />
    <glyph glyph-name="three.osf" horiz-adv-x="455" 
d="M419 461q0 -58 -27 -106.5t-77 -64.5q89 -19 89 -109q0 -134 -99.5 -205.5t-290.5 -71.5l1 70q162 0 232.5 52t70.5 148q0 43 -29 61t-99 18h-27l8 66h25q71 0 104.5 31.5t33.5 100.5t-82 69q-83 0 -145 -79l-56 29q86 120 217 120q76 0 113.5 -35t37.5 -94z" />
    <glyph glyph-name="four.osf" horiz-adv-x="451" 
d="M315 -93h-81l28 229h-277l7 62l323 384h82l-46 -380h87l-15 -66h-80zM84 202h187l42 285z" />
    <glyph glyph-name="five.osf" horiz-adv-x="440" 
d="M406 507h-255l-37 -188q55 22 114 22q165 0 165 -140q0 -136 -100.5 -216.5t-277.5 -80.5v69q149 0 221 58t72 155q0 47 -27.5 67t-84.5 20q-67 0 -115 -28l-53 27l64 310h328z" />
    <glyph glyph-name="six.osf" horiz-adv-x="465" 
d="M413 618q-102 0 -171 -62.5t-96 -185.5q53 39 121 39q157 0 157 -153q0 -123 -61 -194t-162 -71q-82 0 -122.5 47t-40.5 130q0 23 3 47l12 95q22 175 119 276t244 101zM248 338q-66 0 -114 -45l-9 -77q-3 -22 -3 -42q0 -113 91 -113q55 0 91 44.5t36 138.5q0 50 -22.5 72
t-69.5 22z" />
    <glyph glyph-name="seven.osf" horiz-adv-x="418" 
d="M117 -90h-91l320 598h-312l9 74h399l-7 -65z" />
    <glyph glyph-name="eight.osf" horiz-adv-x="461" 
d="M193 -9q-172 0 -172 139q0 141 111 175q-65 29 -65 105q0 81 50 130.5t149 49.5q83 0 122.5 -34t39.5 -93q0 -56 -26.5 -98t-71.5 -60q78 -28 78 -113q0 -97 -56 -149t-159 -52zM201 58q59 0 90.5 34t31.5 98q0 80 -96 80q-121 0 -121 -126q0 -86 95 -86zM259 523
q-112 0 -112 -116q0 -77 87 -77q112 0 112 121q0 38 -20.5 55t-66.5 17z" />
    <glyph glyph-name="nine.osf" horiz-adv-x="465" 
d="M46 -26q228 0 274 265q-52 -34 -118 -34q-159 0 -159 148q0 110 57.5 173t160.5 63q81 0 122.5 -48t41.5 -130q0 -21 -3 -43l-12 -92q-23 -177 -118.5 -274.5t-245.5 -97.5v70zM220 272q62 0 111 44l7 51q3 26 3 45q0 107 -90 107q-57 0 -91 -38t-34 -118q0 -48 23 -69.5
t71 -21.5z" />
    <glyph glyph-name="less.osf" horiz-adv-x="458" 
d="M396 431l-231 -144l231 -144v-83l-342 222v10l342 223v-84z" />
    <glyph glyph-name="equal.osf" horiz-adv-x="458" 
d="M398 327h-338v65h338v-65zM398 184h-338v66h338v-66z" />
    <glyph glyph-name="greater.osf" horiz-adv-x="458" 
d="M62 515l343 -222v-10l-342 -223v83l231 144l-232 145v83z" />
    <glyph glyph-name="cent.osf" horiz-adv-x="458" 
d="M437 494l-70 -25q-19 81 -104 81q-57 0 -87 -34.5t-39 -103.5l-30 -215q-3 -22 -3 -38q0 -103 99 -103q85 0 124 87l64 -23q-51 -112 -165 -127l-27 -128h-55l13 127q-137 16 -137 161q0 20 3 41l29 215q12 89 59 144t129 63l29 123h55l-13 -125q98 -20 126 -120z" />
    <glyph glyph-name="sterling.osf" horiz-adv-x="458" 
d="M417 494l-63 -22q-11 78 -83 78q-60 0 -83 -53.5t-23 -167.5h173l-12 -52h-161q0 -9 0.5 -25.5t0.5 -24.5q0 -27 -2 -59q23 -11 44 -38t38.5 -47t37.5 -20q24 0 40.5 21.5t29.5 74.5l58 -15q-20 -82 -52 -118.5t-78 -36.5q-33 0 -55.5 17.5t-45 55.5t-27.5 44
q-29 -117 -108 -117q-29 0 -45 16.5t-16 47.5q0 48 31.5 82t81.5 39l-8 103h-48l-2 52h48q0 7 -0.5 20.5t-0.5 19.5q0 117 48.5 183.5t138.5 66.5q60 0 98 -34t45 -91zM56 42q31 0 43 86q-30 -4 -44.5 -23.5t-14.5 -43.5q0 -19 16 -19z" />
    <glyph glyph-name="currency.osf" horiz-adv-x="366" 
d="M66 310q0 36 19 66l-44 47l34 37l44 -47q29 19 63 19q35 0 63 -19l47 49l34 -36l-46 -50q19 -30 19 -66q0 -37 -19 -67l45 -48l-34 -36l-46 47q-28 -19 -63 -19q-34 0 -62 19l-46 -49l-35 36l46 50q-19 30 -19 67zM120 310q0 -29 18.5 -48.5t44.5 -19.5t44.5 19.5
t18.5 48.5q0 28 -18.5 47.5t-44.5 19.5t-44.5 -19.5t-18.5 -47.5z" />
    <glyph glyph-name="yen.osf" horiz-adv-x="458" 
d="M370 139h-119l-16 -139h-84l16 139h-117l6 52h117l5 41h-117l6 52h101l-129 326h93l100 -293l169 293h96l-211 -326h101l-6 -52h-119l-5 -41h119z" />
    <glyph glyph-name="logicalnot.osf" horiz-adv-x="458" 
d="M343 107v148h-291v65h355v-213h-64z" />
    <glyph glyph-name="plusminus.osf" horiz-adv-x="458" 
d="M196 126v155h-144v65h144v160h64v-160h147v-65h-147v-155h-64zM407 27h-355v65h355v-65z" />
    <glyph glyph-name="multiply.osf" horiz-adv-x="458" 
d="M336 119l-118 125l-117 -125l-44 46l117 125l-117 126l44 47l117 -126l118 126l44 -46l-118 -126l118 -126z" />
    <glyph glyph-name="divide.osf" horiz-adv-x="458" 
d="M407 256h-355v65h355v-65zM176 460q0 23 15 39.5t36 16.5t36.5 -16.5t15.5 -39.5q0 -22 -15.5 -38t-36.5 -16q-22 0 -36.5 15.5t-14.5 38.5zM176 121q0 23 14.5 39t36.5 16q21 0 36.5 -16.5t15.5 -38.5t-15.5 -38t-36.5 -16q-22 0 -36.5 15.5t-14.5 38.5z" />
    <glyph glyph-name="franc.osf" horiz-adv-x="458" 
d="M-6 89l6 57h59l56 464h334l-9 -73h-248l-24 -195h213l-8 -68h-214l-15 -128h87l-7 -57h-87l-11 -89h-85l11 89h-58z" />
    <glyph glyph-name="lira.osf" horiz-adv-x="458" 
d="M417 494l-63 -22q-11 78 -83 78q-56 0 -79 -45.5t-27 -141.5h196l-13 -43h-183v-32h173l-12 -41h-160q0 -59 -2 -79q23 -11 44 -38t38.5 -47t37.5 -20q24 0 40.5 21.5t29.5 74.5l58 -15q-20 -82 -52 -118.5t-78 -36.5q-33 0 -55.5 17.5t-45 55.5t-27.5 44
q-29 -117 -108 -117q-29 0 -45 16.5t-16 47.5q0 48 31.5 82t81.5 39q0 6 -2.5 31t-3.5 42h-45l-2 41h44q0 5 -0.5 15.5t-0.5 16.5h-47l-2 43h48q0 121 48 188.5t139 67.5q60 0 98 -34t45 -91zM56 42q31 0 43 86q-30 -4 -44.5 -23.5t-14.5 -43.5q0 -19 16 -19z" />
    <glyph glyph-name="peseta.osf" horiz-adv-x="458" 
d="M23 396l6 52h50l20 162h182q70 0 106 -37.5t36 -107.5v-17h40l-6 -52h-41q-15 -76 -60.5 -118t-114.5 -42h-104l-29 -236h-84l48 396h-49zM241 300q39 0 60.5 23.5t31.5 76.5h-176l-12 -100h96zM175 540l-12 -95h177v17q0 78 -69 78h-96z" />
    <glyph glyph-name="Euro.osf" horiz-adv-x="458" 
d="M439 493l-69 -23q-17 80 -97 80q-54 0 -82 -33t-37 -99l-5 -37h172l-14 -46h-164l-5 -42h155l-15 -45h-146l-7 -56q-3 -24 -3 -40q0 -95 90 -95q81 0 118 85l65 -22q-57 -130 -194 -130q-82 0 -122.5 41t-40.5 118q0 20 3 41l7 58h-35l5 45h36l6 42h-37l6 46h37l5 34
q14 93 65 148t142 55q64 0 106 -33t55 -92z" />
    <glyph glyph-name="uni20B4.osf" horiz-adv-x="464" 
d="M46 334l5 50h257q47 39 47 97q0 69 -81 69q-86 0 -134 -77l-59 27q69 115 205 115q72 0 108.5 -33.5t36.5 -89.5q0 -63 -43 -108h46l-5 -50h-103q-16 -11 -91 -53h186l-5 -50h-250q-47 -45 -47 -100q0 -36 24.5 -55.5t68.5 -19.5q88 0 137 85l56 -25q-68 -126 -205 -126
q-80 0 -119 34t-39 91q0 65 44 116h-53l5 50h107q9 6 89 53h-188z" />
    <glyph glyph-name="minus.osf" horiz-adv-x="458" 
d="M407 255h-355v65h355v-65z" />
    <glyph glyph-name="approxequal.osf" horiz-adv-x="458" 
d="M398 398v-65q-47 -26 -89 -26q-31 0 -84 18t-82 18q-41 0 -82 -25v66q43 25 88 25q32 0 87 -18.5t83 -18.5q39 0 79 26zM398 255v-65q-47 -26 -89 -26q-31 0 -84 18t-82 18q-41 0 -82 -25v65q45 26 89 26q32 0 86.5 -18.5t82.5 -18.5q39 0 79 26z" />
    <glyph glyph-name="notequal.osf" horiz-adv-x="458" 
d="M398 184h-189l-57 -111l-43 24l44 87h-93v66h127l40 77h-167v65h200l56 109l43 -24l-44 -85h83v-65h-116l-40 -77h156v-66z" />
    <glyph glyph-name="lessequal.osf" horiz-adv-x="458" 
d="M396 437l-223 -120l223 -118v-81l-342 194v10l342 198v-83zM60 28v60h337v-60h-337z" />
    <glyph glyph-name="greaterequal.osf" horiz-adv-x="458" 
d="M61 199l224 118l-223 120v83l341 -198v-10l-342 -194v81zM397 88v-60h-336v60h336z" />
    <glyph glyph-name="numbersign.tf" 
d="M59 449l6 59h114l44 217h61l-44 -217h130l44 217h61l-44 -217h86l-6 -59h-89l-35 -174h102l-7 -58h-104l-44 -217h-61l44 217h-130l-44 -217h-60l43 217h-95l7 58h97l35 174h-111zM231 449l-35 -174h130l35 174h-130z" />
    <glyph glyph-name="dollar.tf" 
d="M374 829l-11 -99q59 -12 97.5 -49t50.5 -92l-64 -25q-21 77 -99 93l-45 -251q39 -17 62.5 -30.5t51 -36t41 -52.5t13.5 -69q0 -98 -64 -159t-164 -68l-21 -93h-56l9 96q-65 10 -106.5 52t-54.5 108l69 29q20 -93 107 -113l48 267q-39 17 -62.5 29.5t-51.5 34t-41 51
t-13 67.5q0 89 62.5 149t162.5 66l22 95h57zM252 66q62 6 101 39.5t39 92.5q0 41 -26.5 66.5t-77.5 49.5zM286 660q-61 -6 -97 -38.5t-36 -82.5q0 -38 25.5 -62.5t73.5 -47.5z" />
    <glyph glyph-name="plus.tf" 
d="M232 86v194h-149v64h149v194h63v-194h154v-64h-154v-194h-63z" />
    <glyph glyph-name="zero.tf" 
d="M508 498l-37 -275q-14 -110 -77 -171.5t-166 -61.5q-93 0 -142.5 50t-49.5 140q0 20 3 43l37 275q15 112 77.5 174.5t166.5 62.5q93 0 142 -51.5t49 -142.5q0 -21 -3 -43zM162 498l-38 -275q-1 -7 -1.5 -20t-0.5 -17q0 -121 115 -121q127 0 148 158l37 275q2 14 2 39
q0 121 -114 121q-130 0 -148 -160z" />
    <glyph glyph-name="one.tf" 
d="M115 0l6 54h125l61 487h-165l7 63h87q57 0 78.5 22t36.5 102h67l-83 -674h116l-6 -54h-330z" />
    <glyph glyph-name="two.tf" 
d="M328 735q90 0 135 -43t45 -113q0 -53 -17.5 -98.5t-46.5 -79.5t-64.5 -64.5t-74 -59t-72.5 -57.5t-62 -66.5t-41 -79.5h325l-8 -74h-415l3 46q7 49 32.5 94t59.5 80t74 68.5t78.5 65.5t69.5 64.5t50.5 71t19.5 80.5q0 90 -104 90q-52 0 -91.5 -33t-60.5 -92l-66 21
q28 79 88 129t143 50z" />
    <glyph glyph-name="three.tf" 
d="M212 341l9 69h48q142 0 142 158q0 93 -99 93q-101 0 -150 -114l-64 23q31 76 91.5 120.5t137.5 44.5q87 0 130.5 -42t43.5 -114q0 -77 -32 -128.5t-89 -71.5q95 -26 95 -134q0 -115 -61.5 -185t-180.5 -70q-163 0 -194 150l66 25q14 -51 49 -77t83 -26q77 0 112 50.5
t35 131.5q0 53 -31 75t-90 22h-51z" />
    <glyph glyph-name="four.tf" 
d="M391 0h-81l16 138h-319l7 58l383 529h83l-63 -515h89l-16 -72h-82zM112 210h223l55 403z" />
    <glyph glyph-name="five.tf" 
d="M132 338l-55 29l75 358h357l-16 -77h-283l-45 -227q67 36 140 36q173 0 173 -171q0 -142 -68 -219t-186 -77q-74 0 -123 39t-61 112l67 25q11 -52 44 -78t78 -26q82 0 121 60t39 151q0 59 -29 85t-90 26q-38 0 -76.5 -13t-61.5 -33z" />
    <glyph glyph-name="six.tf" 
d="M330 735q68 0 113 -37.5t58 -107.5l-64 -27q-19 97 -112 97q-134 0 -157 -172l-11 -84q61 50 150 50q88 0 128.5 -41t40.5 -123q0 -148 -67.5 -224t-178.5 -76q-88 0 -137 47.5t-49 138.5q0 22 3 46l34 258q15 115 81 185t168 70zM143 299l-11 -85q-2 -11 -2 -32
q0 -59 30 -88t81 -29q68 0 109 52.5t41 156.5q0 108 -108 108q-53 0 -94.5 -22.5t-45.5 -60.5z" />
    <glyph glyph-name="seven.tf" 
d="M191 0h-97l353 649h-368l9 76h462l-8 -66z" />
    <glyph glyph-name="eight.tf" 
d="M227 -10q-97 0 -146.5 41t-49.5 129q0 183 128 226q-72 33 -72 123q0 105 58.5 165.5t173.5 60.5q185 0 185 -154q0 -149 -111 -195q85 -29 85 -138q0 -117 -64.5 -187.5t-186.5 -70.5zM236 63q78 0 117 48t39 131q0 105 -120 105q-74 0 -114 -40.5t-40 -136.5
q0 -59 28.5 -83t89.5 -24zM311 663q-72 0 -106.5 -36t-34.5 -119q0 -50 26.5 -72t82.5 -22q72 0 106.5 37.5t34.5 121.5q0 49 -26 69.5t-83 20.5z" />
    <glyph glyph-name="nine.tf" 
d="M101 159q15 -49 45.5 -72t80.5 -23q62 0 100.5 35.5t47.5 104.5l18 139q-60 -50 -146 -50q-174 0 -174 169q0 129 66 201t183 72q87 0 135 -48t48 -131q0 -21 -3 -42l-41 -306q-13 -100 -78.5 -159t-160.5 -59q-152 0 -183 137zM269 363q47 0 89.5 22.5t47.5 59.5l11 80
q2 18 2 27q0 52 -27.5 80t-80.5 28q-71 0 -111 -48t-40 -141q0 -58 27.5 -83t81.5 -25z" />
    <glyph glyph-name="less.tf" 
d="M428 476l-248 -161l249 -161v-81l-358 237v10l357 238v-82z" />
    <glyph glyph-name="equal.tf" 
d="M440 342h-349v65h349v-65zM440 201h-349v65h349v-65z" />
    <glyph glyph-name="greater.tf" 
d="M103 154l249 161l-248 161v82l357 -238v-10l-358 -237v81z" />
    <glyph glyph-name="cent.tf" 
d="M85 495q12 104 71 167.5t152 71.5l22 90h53l-10 -93q58 -10 96.5 -50t46.5 -96l-71 -26q-16 96 -115 96q-130 0 -152 -160l-37 -272q-2 -20 -2 -29q0 -59 30.5 -93.5t87.5 -34.5q53 0 85.5 24t54.5 81l67 -23q-53 -145 -196 -157l-21 -89h-53l9 91q-74 10 -115 61.5
t-41 130.5q0 24 2 37z" />
    <glyph glyph-name="sterling.tf" 
d="M61 330l-3 62h62q0 70 5 121q11 105 67 164t147 59q70 0 115 -39t52 -107l-68 -24q-15 93 -105 93q-39 0 -65 -16.5t-40.5 -52.5t-20 -82t-7.5 -116h213l-15 -62h-198q0 -99 -1 -128q23 -10 45 -32.5t35.5 -43.5t33 -37.5t40.5 -16.5q30 0 49 25.5t36 90.5l59 -15
q-23 -97 -59.5 -140t-89.5 -43q-41 0 -69.5 25t-53.5 67t-36 54q-31 -146 -125 -146q-33 0 -51.5 19.5t-18.5 54.5q0 57 37 96t97 47q0 8 -1.5 30t-2.5 46t-1 47h-62zM77 50q20 0 32.5 23.5t19.5 82.5q-37 -5 -54.5 -27.5t-17.5 -51.5q0 -27 20 -27z" />
    <glyph glyph-name="currency.tf" 
d="M150 379q0 38 18 65l-43 46l33 36l44 -46q29 19 63 19q33 0 63 -20l46 50l34 -36l-46 -49q19 -30 19 -65t-20 -67l46 -47l-34 -36l-46 47q-29 -19 -62 -19t-62 19l-46 -49l-33 36l45 49q-19 30 -19 67zM203 378q0 -28 18.5 -47.5t44.5 -19.5t44.5 19.5t18.5 47.5
q0 29 -18 48t-45 19t-45 -19t-18 -48z" />
    <glyph glyph-name="yen.tf" 
d="M421 164h-129l-19 -164h-87l19 164h-138l7 60h138l6 47h-138l7 60h120l-140 394h97l111 -356l198 356h98l-241 -394h110l-6 -60h-129l-6 -47h129z" />
    <glyph glyph-name="logicalnot.tf" 
d="M385 133v146h-302v65h366v-211h-64z" />
    <glyph glyph-name="plusminus.tf" 
d="M232 131v171h-145v64h145v179h63v-179h149v-64h-149v-171h-63zM444 27h-357v64h357v-64z" />
    <glyph glyph-name="multiply.tf" 
d="M400 120l-136 146l-136 -146l-43 46l136 146l-136 146l43 46l136 -146l136 146l43 -46l-136 -146l136 -146z" />
    <glyph glyph-name="divide.tf" 
d="M449 279h-366v65h366v-65zM210 485q0 23 15.5 39.5t37.5 16.5t38 -16.5t16 -39.5q0 -24 -16 -40.5t-38 -16.5t-37.5 16.5t-15.5 40.5zM210 143q0 23 15.5 40t37.5 17t38 -17t16 -40t-16 -39.5t-38 -16.5t-37.5 16.5t-15.5 39.5z" />
    <glyph glyph-name="uni2007.tf" 
 />
    <glyph glyph-name="franc.tf" 
d="M-4 109l7 62h73l68 554h392l-9 -82h-299l-29 -237h255l-8 -76h-257l-19 -159h103l-7 -62h-104l-13 -109h-94l13 109h-72z" />
    <glyph glyph-name="lira.tf" 
d="M59 369l-2 48h64q0 65 4 96q13 106 68.5 164.5t145.5 58.5q70 0 115 -39t52 -107l-68 -24q-15 93 -105 93q-72 0 -101 -59t-32 -183h229l-14 -48h-215v-35h203l-14 -46h-189q0 -66 -1 -86q23 -10 45 -32.5t35.5 -43.5t33 -37.5t40.5 -16.5q30 0 49 25.5t36 90.5l59 -15
q-23 -97 -59.5 -140t-89.5 -43q-41 0 -69.5 25t-53.5 67t-36 54q-31 -146 -125 -146q-33 0 -51.5 19.5t-18.5 54.5q0 57 37 96t97 47l-4 81h-58l-2 46h59q-1 11 -1 35h-63zM77 50q20 0 32.5 23.5t19.5 82.5q-37 -5 -54.5 -27.5t-17.5 -51.5q0 -27 20 -27z" />
    <glyph glyph-name="peseta.tf" 
d="M37 477l6 52h57l24 196h207q80 0 121 -44.5t41 -128.5q0 -15 -1 -23h53l-6 -52h-54q-17 -91 -69.5 -140.5t-133.5 -49.5h-123l-35 -287h-89l58 477h-56zM204 648l-15 -120h213q1 9 1 25q0 50 -20.5 72.5t-62.5 22.5h-116zM284 359q46 0 73 29t39 90h-213l-15 -119h116z
" />
    <glyph glyph-name="Euro.tf" 
d="M357 735q75 0 124 -42t58 -108l-71 -26q-15 96 -114 96q-131 0 -152 -160l-6 -45h233l-18 -50h-222l-7 -49h211l-17 -51h-201l-10 -77q-2 -20 -2 -30q0 -59 30.5 -93t87.5 -34q52 0 85 24t55 81l66 -23q-56 -158 -222 -158q-91 0 -143 53t-52 143q0 12 2 36l10 78h-69
l6 51h70l7 49h-71l7 50h71l6 45q15 112 80 176t168 64z" />
    <glyph glyph-name="uni20B4.tf" 
d="M61 403l6 54h297q62 52 62 126q0 84 -100 84q-103 0 -163 -95l-61 28q82 135 237 135q81 0 123 -39t42 -104q0 -77 -56 -135h58l-6 -54h-120q-6 -4 -112 -67h223l-6 -54h-290q-61 -58 -61 -128q0 -46 30 -70.5t84 -24.5q106 0 167 106l56 -27q-78 -148 -235 -148
q-92 0 -137 40t-45 108q0 79 58 144h-66l6 54h124q16 11 34.5 22t41 24.5t34.5 20.5h-225z" />
    <glyph glyph-name="minus.tf" 
d="M449 280h-366v64h366v-64z" />
    <glyph glyph-name="approxequal.tf" 
d="M435 416v-64q-43 -25 -89 -25q-31 0 -85.5 17.5t-83.5 17.5q-41 0 -81 -24v64q46 25 89 25q33 0 88.5 -18.5t83.5 -18.5q40 0 78 26zM435 274v-63q-43 -25 -89 -25q-32 0 -86 17.5t-82 17.5q-40 0 -82 -25v64q43 25 89 25q33 0 88.5 -18t83.5 -18q41 0 78 25z" />
    <glyph glyph-name="notequal.tf" 
d="M396 498l-48 -91h92v-65h-126l-39 -76h165v-65h-199l-60 -116l-42 23l48 93h-96v65h129l40 76h-169v65h203l59 114z" />
    <glyph glyph-name="lessequal.tf" 
d="M428 490l-243 -144l244 -142v-80l-358 217v10l357 221v-82zM77 32v62h353v-62h-353z" />
    <glyph glyph-name="greaterequal.tf" 
d="M103 204l244 142l-243 144v82l357 -221v-10l-358 -217v80zM455 94v-62h-353v62h353z" />
    <glyph glyph-name="numbersign.tosf" horiz-adv-x="480" 
d="M46 375l7 58h97l36 178h61l-36 -178h110l37 178h61l-36 -178h75l-7 -58h-76l-29 -139h88l-7 -58h-90l-36 -178h-62l37 178h-111l-36 -178h-61l37 178h-83l7 58h84l28 139h-95zM202 375l-27 -139h109l29 139h-111z" />
    <glyph glyph-name="dollar.tosf" horiz-adv-x="480" 
d="M71 438q0 68 46 116.5t133 60.5l30 124h54l-14 -128q48 -10 79 -41t41 -77l-60 -21q-21 77 -110 77q-57 0 -85 -25.5t-28 -70.5q0 -32 25.5 -56.5t62.5 -42.5t74 -38t62.5 -54t25.5 -79q0 -77 -48.5 -128t-123.5 -61l-27 -129h-54l13 128q-60 7 -94 39.5t-48 95.5l64 22
q22 -94 123 -94q50 0 82 28.5t32 79.5q0 34 -26.5 59t-64 42.5t-74.5 37.5t-63.5 54t-26.5 81z" />
    <glyph glyph-name="plus.tosf" horiz-adv-x="480" 
d="M207 68v186h-146v65h146v188h64v-188h149v-65h-149v-186h-64z" />
    <glyph glyph-name="zero.tosf" horiz-adv-x="480" 
d="M452 386l-26 -195q-13 -96 -70.5 -148t-154.5 -52q-87 0 -132.5 43t-45.5 123q0 23 2 36l25 187q13 99 70.5 153.5t154.5 54.5q87 0 133 -43t46 -122q0 -24 -2 -37zM132 380l-25 -183q-3 -21 -3 -37q0 -103 105 -103q118 0 135 131l26 199q2 24 2 32q0 103 -105 103
q-119 0 -135 -142z" />
    <glyph glyph-name="one.tosf" horiz-adv-x="480" 
d="M251 408h-149l7 61h69q58 0 80.5 23.5t35.5 98.5h66l-66 -536h118l-6 -55h-340l6 55h135z" />
    <glyph glyph-name="two.tosf" horiz-adv-x="480" 
d="M285 590q80 0 119 -34t39 -93q0 -80 -78 -173.5t-230 -220.5h268l-8 -69h-384l3 52q347 265 347 399q0 70 -92 70q-83 0 -145 -79l-56 29q44 60 95.5 89.5t121.5 29.5z" />
    <glyph glyph-name="three.tosf" horiz-adv-x="480" 
d="M432 461q0 -57 -27 -103t-79 -68q91 -20 91 -110q0 -133 -101 -204.5t-293 -71.5v69q310 0 310 198q0 44 -29.5 63t-101.5 19h-27l8 66h24q73 0 107.5 31.5t34.5 99.5q0 70 -86 70q-84 0 -150 -78l-54 28q88 120 219 120q78 0 116 -35t38 -94z" />
    <glyph glyph-name="four.tosf" horiz-adv-x="480" 
d="M330 -93h-79l28 229h-284l7 60l331 386h79l-46 -380h88l-15 -66h-81zM94 202h194l44 289z" />
    <glyph glyph-name="five.tosf" horiz-adv-x="480" 
d="M428 508h-261l-37 -189q54 23 117 23q169 0 169 -142q0 -136 -102.5 -216t-281.5 -80l1 68q153 0 226.5 57.5t73.5 155.5q0 48 -28 68.5t-88 20.5q-69 0 -119 -28l-52 27l65 309h331z" />
    <glyph glyph-name="six.tosf" horiz-adv-x="480" 
d="M418 618q-104 0 -175 -63t-98 -187q57 42 126 42q159 0 159 -154q0 -123 -61 -194t-163 -71q-84 0 -125.5 48t-41.5 131q0 22 3 46l12 94q22 175 119 276t247 101zM252 340q-67 0 -119 -49l-9 -74q-3 -23 -3 -41q0 -115 95 -115q59 0 95.5 44.5t36.5 139.5
q0 50 -23.5 72.5t-72.5 22.5z" />
    <glyph glyph-name="seven.tosf" horiz-adv-x="480" 
d="M149 -90h-88l325 599h-319l8 73h405l-6 -64z" />
    <glyph glyph-name="eight.tosf" horiz-adv-x="480" 
d="M202 -9q-175 0 -175 140q0 138 115 173q-67 29 -67 107q0 80 50.5 129.5t150.5 49.5q83 0 123 -34t40 -93q0 -57 -26.5 -99t-72.5 -60q79 -25 79 -113q0 -99 -58 -149.5t-159 -50.5zM211 58q59 0 92.5 34.5t33.5 98.5q0 79 -100 79q-126 0 -126 -126q0 -86 100 -86z
M269 524q-116 0 -116 -116q0 -78 91 -78q116 0 116 120q0 38 -21.5 56t-69.5 18z" />
    <glyph glyph-name="nine.tosf" horiz-adv-x="480" 
d="M56 -27q234 0 281 267q-53 -36 -124 -36q-162 0 -162 150q0 109 59 172t162 63q82 0 124 -48t42 -130q0 -21 -3 -44l-11 -91q-22 -176 -119.5 -274t-248.5 -98v69zM231 271q66 0 116 47l7 48q3 24 3 44q0 110 -95 110q-59 0 -94.5 -38t-35.5 -117q0 -50 24.5 -72
t74.5 -22z" />
    <glyph glyph-name="less.tosf" horiz-adv-x="480" 
d="M410 432l-238 -146l239 -146v-82l-349 223v10l348 224v-83z" />
    <glyph glyph-name="equal.tosf" horiz-adv-x="480" 
d="M412 326h-344v66h344v-66zM412 183h-344v65h344v-65z" />
    <glyph glyph-name="greater.tosf" horiz-adv-x="480" 
d="M70 515l348 -223v-11l-347 -223v83l236 145l-237 146v83z" />
    <glyph glyph-name="cent.tosf" horiz-adv-x="480" 
d="M449 494l-67 -24q-21 81 -109 81q-60 0 -91 -35.5t-40 -105.5l-29 -219q-2 -24 -2 -32q0 -103 102 -103q88 0 129 87l62 -22q-50 -113 -167 -128l-28 -128h-53l12 127q-139 15 -139 160q0 22 3 44l28 211q12 90 60 146t132 64l29 122h54l-14 -124q49 -9 82 -40.5
t46 -80.5z" />
    <glyph glyph-name="sterling.tosf" horiz-adv-x="480" 
d="M429 493l-61 -22q-13 79 -87 79q-63 0 -86 -53.5t-23 -167.5h177l-12 -52h-164q0 -77 -1 -110q27 -12 63 -58t61 -46t41.5 21.5t30.5 75.5l56 -15q-20 -83 -51.5 -119.5t-78.5 -36.5q-26 0 -48 14t-33.5 30.5t-26.5 40.5t-24 34q-27 -119 -107 -119q-61 0 -61 63
q0 48 31 82t82 40l-8 103h-49l-2 52h49q0 7 -0.5 20t-0.5 19q0 117 49 184t139 67q62 0 100 -34.5t45 -91.5zM64 42q32 0 44 87q-32 -5 -46.5 -24.5t-14.5 -43.5q0 -19 17 -19z" />
    <glyph glyph-name="currency.tosf" horiz-adv-x="480" 
d="M124 378q0 36 19 66l-44 47l34 37l44 -47q29 19 63 19q35 0 64 -20l46 50l34 -37l-46 -49q19 -30 19 -66t-19 -68l45 -47l-34 -37l-46 48q-29 -19 -63 -19t-62 19l-46 -50l-35 37l46 49q-19 32 -19 68zM178 378q0 -29 18.5 -48.5t44.5 -19.5t44.5 19.5t18.5 48.5
q0 28 -18.5 47.5t-44.5 19.5t-44.5 -19.5t-18.5 -47.5z" />
    <glyph glyph-name="yen.tosf" horiz-adv-x="480" 
d="M383 139h-122l-16 -139h-81l16 139h-121l6 52h121l5 42h-121l6 52h104l-133 326h91l105 -294l175 294h93l-214 -326h103l-6 -52h-122l-5 -42h122z" />
    <glyph glyph-name="logicalnot.tosf" horiz-adv-x="480" 
d="M357 104v150h-296v65h359v-215h-63z" />
    <glyph glyph-name="plusminus.tosf" horiz-adv-x="480" 
d="M207 124v157h-146v64h146v161h63v-161h150v-64h-150v-157h-63zM420 26h-359v65h359v-65z" />
    <glyph glyph-name="multiply.tosf" horiz-adv-x="480" 
d="M359 116l-119 127l-119 -127l-43 46l119 127l-119 127l43 46l119 -127l119 127l44 -46l-120 -127l120 -127z" />
    <glyph glyph-name="divide.tosf" horiz-adv-x="480" 
d="M420 255h-359v64h359v-64zM186 461q0 23 15 39.5t37 16.5t37.5 -16.5t15.5 -39.5t-15.5 -39t-37.5 -16t-37 16t-15 39zM186 118q0 23 15 39.5t37 16.5t37.5 -16.5t15.5 -39.5q0 -22 -15.5 -38t-37.5 -16t-37 15.5t-15 38.5z" />
    <glyph glyph-name="uni2007.tosf" horiz-adv-x="480" 
 />
    <glyph glyph-name="franc.tosf" horiz-adv-x="480" 
d="M2 90l6 56h60l57 464h337l-9 -73h-254l-24 -196h218l-8 -67h-219l-15 -128h88l-6 -56h-89l-11 -90h-83l11 90h-59z" />
    <glyph glyph-name="lira.tosf" horiz-adv-x="480" 
d="M429 493l-61 -22q-13 79 -87 79q-58 0 -81.5 -45.5t-27.5 -140.5h199l-13 -44h-186v-32h176l-12 -42h-163q0 -58 -1 -79q27 -12 63 -58t61 -46t41.5 21.5t30.5 75.5l56 -15q-20 -83 -51.5 -119.5t-78.5 -36.5q-26 0 -48 14t-33.5 30.5t-26.5 40.5t-24 34
q-27 -119 -107 -119q-61 0 -61 63q0 48 31 82t82 40l-6 72h-46l-2 42h45q0 5 -0.5 15.5t-0.5 16.5h-48l-2 44h49q0 120 48 187.5t140 67.5q62 0 100 -34.5t45 -91.5zM64 42q32 0 44 87q-32 -5 -46.5 -24.5t-14.5 -43.5q0 -19 17 -19z" />
    <glyph glyph-name="peseta.tosf" horiz-adv-x="480" 
d="M31 397l6 52h51l20 161h186q70 0 106.5 -37.5t36.5 -107.5v-16h40l-5 -52h-42q-15 -76 -60.5 -117.5t-116.5 -41.5h-109l-29 -238h-81l48 397h-51zM254 300q40 0 62.5 24t32.5 76h-185l-12 -100h102zM182 541l-12 -95h185v15q0 42 -17 61t-54 19h-102z" />
    <glyph glyph-name="Euro.tosf" horiz-adv-x="480" 
d="M453 493l-68 -23q-19 81 -101 81q-56 0 -85 -34t-38 -101l-5 -35h175l-15 -45h-166l-5 -43h157l-15 -45h-148l-8 -61q-2 -22 -2 -32q0 -99 94 -99q84 0 122 86l63 -22q-55 -130 -195 -130q-83 0 -124.5 42t-41.5 119q0 20 3 41l7 56h-36l5 45h37l6 43h-38l6 45h38l5 33
q14 94 65.5 149.5t144.5 55.5q64 0 106.5 -33t56.5 -93z" />
    <glyph glyph-name="uni20B4.tosf" horiz-adv-x="480" 
d="M49 334l6 50h263q47 41 47 100q0 67 -84 67q-88 0 -139 -78l-58 26q72 116 210 116q72 0 109 -34t37 -90q0 -62 -43 -107h47l-5 -50h-106q-18 -11 -51 -29.5t-44 -24.5h193l-6 -50h-257q-46 -44 -46 -100q0 -35 25.5 -55t70.5 -20q91 0 142 86l55 -25q-70 -126 -209 -126
q-80 0 -119.5 34.5t-39.5 91.5q0 64 43 114h-54l6 50h108l93 54h-194z" />
    <glyph glyph-name="minus.tosf" horiz-adv-x="480" 
d="M420 254h-359v65h359v-65z" />
    <glyph glyph-name="approxequal.tosf" horiz-adv-x="480" 
d="M412 397v-65q-47 -26 -90 -26q-31 0 -85.5 18.5t-83.5 18.5q-42 0 -84 -26v65q47 26 90 26q33 0 89 -19t84 -19q41 0 80 27zM412 253v-64q-47 -26 -90 -26q-31 0 -86 18t-84 18q-42 0 -83 -25v65q47 26 90 26q33 0 89 -19t84 -19q40 0 80 26z" />
    <glyph glyph-name="notequal.tosf" horiz-adv-x="480" 
d="M412 183h-193l-57 -111l-43 24l45 87h-96v65h130l40 78h-170v66h205l56 108l43 -24l-44 -84h84v-66h-118l-41 -78h159v-65z" />
    <glyph glyph-name="lessequal.tosf" horiz-adv-x="480" 
d="M410 437l-229 -121l230 -120v-80l-348 195v11l347 197v-82zM69 26v60h342v-60h-342z" />
    <glyph glyph-name="greaterequal.tosf" horiz-adv-x="480" 
d="M69 196l230 120l-229 121v82l347 -197v-11l-348 -195v80zM410 86v-60h-341v60h341z" />
    <glyph glyph-name="exclam.sc" horiz-adv-x="198" 
d="M92 582h81l-30 -241l-29 -169h-63l11 169zM14 0l11 99h96l-11 -99h-96z" />
    <glyph glyph-name="ampersand.sc" horiz-adv-x="509" 
d="M401 490l-62 -30q-22 67 -81 67q-33 0 -52.5 -20.5t-19.5 -57.5q0 -29 16 -56l126 -201q29 65 40 148l1 13h121l-6 -58h-62q-19 -96 -55 -163q43 -56 108 -72l-19 -66q-80 11 -135 72q-69 -74 -164 -74q-67 0 -107.5 35t-40.5 104t34 125t96 93q-30 47 -30 95
q0 60 42 102.5t112 42.5q105 0 138 -99zM173 55q63 0 112 63l-114 181q-39 -27 -60 -71t-21 -87q0 -86 83 -86z" />
    <glyph glyph-name="question.sc" horiz-adv-x="415" 
d="M401 461q0 -70 -49 -125.5t-124 -87.5l-16 -79h-61l8 117q159 58 159 163q0 31 -20 51.5t-65 20.5q-90 0 -135 -87l-62 21q29 60 83.5 97t125.5 37q79 0 117.5 -36.5t38.5 -91.5zM113 0l11 99h97l-11 -99h-97z" />
    <glyph glyph-name="grave.sc" horiz-adv-x="267" 
d="M81 729h94l38 -109h-65z" />
    <glyph glyph-name="a.sc" horiz-adv-x="502" 
d="M121 143l-60 -143h-90l267 582h95l124 -582h-89l-26 143h-221zM275 505l-126 -297h181z" />
    <glyph glyph-name="b.sc" horiz-adv-x="479" 
d="M435 458q0 -54 -24 -95.5t-74 -56.5q93 -23 93 -116q0 -92 -51 -141t-151 -49h-202l71 582h180q79 0 118.5 -33t39.5 -91zM144 270l-25 -202h112q114 0 114 127q0 75 -88 75h-113zM175 511l-23 -179h97q105 0 105 114q0 33 -19.5 49t-62.5 16h-97z" />
    <glyph glyph-name="c.sc" horiz-adv-x="438" 
d="M271 590q64 0 107.5 -35t52.5 -89l-65 -24q-14 77 -95 77q-55 0 -87.5 -34t-40.5 -97l-27 -199q-2 -16 -2 -24q0 -48 25.5 -76.5t73.5 -28.5q43 0 70.5 19t45.5 64l61 -23q-50 -129 -193 -129q-79 0 -124.5 45t-45.5 121q0 10 2 30l27 201q13 94 69.5 148t145.5 54z" />
    <glyph glyph-name="d.sc" horiz-adv-x="516" 
d="M482 367l-24 -169q-13 -92 -71.5 -145t-154.5 -53h-206l71 582h205q88 0 136 -44.5t48 -123.5q0 -22 -4 -47zM372 200l23 169q4 27 4 38q0 103 -105 103h-118l-55 -440h118q59 0 91.5 31.5t41.5 98.5z" />
    <glyph glyph-name="e.sc" horiz-adv-x="441" 
d="M97 582h341l-8 -72h-254l-23 -178h198l-8 -65h-198l-24 -196h262l-7 -71h-350z" />
    <glyph glyph-name="f.sc" horiz-adv-x="433" 
d="M97 582h340l-7 -74h-254l-23 -184h217l-8 -69h-217l-31 -255h-88z" />
    <glyph glyph-name="g.sc" horiz-adv-x="495" 
d="M292 590q68 0 115 -34.5t58 -91.5l-67 -26q-26 78 -111 78q-126 0 -146 -144l-25 -175q-2 -20 -2 -27q0 -106 110 -106q78 0 124 57l14 112h-84l6 56h160l-34 -289h-70l5 48q-59 -56 -146 -56q-81 0 -126 43.5t-45 124.5q0 23 2 36l24 176q13 101 73 159.5t165 58.5z" />
    <glyph glyph-name="h.sc" horiz-adv-x="517" 
d="M97 582h87l-30 -248h218l30 248h87l-71 -582h-86l31 259h-218l-31 -259h-88z" />
    <glyph glyph-name="i.sc" horiz-adv-x="239" 
d="M110 582h87l-71 -582h-87z" />
    <glyph glyph-name="j.sc" horiz-adv-x="235" 
d="M120 582h86l-59 -484q-26 -209 -238 -212l1 67q69 0 104.5 33.5t45.5 111.5z" />
    <glyph glyph-name="k.sc" horiz-adv-x="490" 
d="M443 0h-99l-135 264l-75 -79l-22 -185h-86l71 582h86l-37 -303l250 303h102l-224 -260z" />
    <glyph glyph-name="l.sc" horiz-adv-x="399" 
d="M97 582h85l-63 -508h232l-8 -74h-317z" />
    <glyph glyph-name="m.sc" horiz-adv-x="650" 
d="M542 582h79l-70 -582h-80l50 414l-201 -309h-39l-125 312l-50 -417h-80l71 582h81l136 -364z" />
    <glyph glyph-name="n.sc" horiz-adv-x="517" 
d="M97 582h68l197 -409l50 409h77l-71 -582h-62l-201 419l-51 -419h-78z" />
    <glyph glyph-name="o.sc" horiz-adv-x="496" 
d="M465 388l-27 -194q-13 -95 -72 -149t-156 -54q-89 0 -135.5 44.5t-46.5 123.5q0 23 2 35l26 193q13 96 71.5 149.5t155.5 53.5q89 0 136.5 -45t47.5 -125q0 -10 -2 -32zM353 194l25 184q3 30 3 37q0 102 -105 102q-115 0 -133 -129l-27 -194q-2 -20 -2 -29
q0 -103 104 -103q117 0 135 132z" />
    <glyph glyph-name="p.sc" horiz-adv-x="464" 
d="M299 582q75 0 114.5 -38.5t39.5 -109.5q0 -97 -52.5 -154t-139.5 -57h-120l-27 -223h-88l71 582h202zM176 511l-28 -221h113q105 0 105 143q0 40 -18.5 59t-58.5 19h-113z" />
    <glyph glyph-name="q.sc" horiz-adv-x="496" 
d="M465 388l-27 -194q-11 -77 -51.5 -127.5t-107.5 -67.5l87 -89l-79 -34l-89 115q-83 3 -126.5 47t-43.5 121q0 22 4 50l24 178q13 96 71.5 149.5t155.5 53.5q89 0 136.5 -45t47.5 -125q0 -10 -2 -32zM353 194l25 184q3 21 3 37q0 102 -105 102q-115 0 -133 -129l-27 -194
q-2 -20 -2 -29q0 -103 104 -103q117 0 135 132z" />
    <glyph glyph-name="r.sc" horiz-adv-x="477" 
d="M330 0l-102 245h-84l-30 -245h-88l71 582h187q79 0 119 -34.5t40 -98.5q0 -74 -36 -124.5t-96 -64.5l115 -260h-96zM176 512l-25 -201h97q110 0 110 129q0 37 -19.5 54.5t-64.5 17.5h-98z" />
    <glyph glyph-name="s.sc" horiz-adv-x="416" 
d="M244 591q67 0 109.5 -31t56.5 -86l-64 -25q-7 35 -35 54.5t-68 19.5q-50 0 -76 -24.5t-26 -64.5q0 -30 24 -53.5t58.5 -41t68.5 -36.5t58 -52t24 -77q0 -86 -56.5 -135t-144.5 -49q-66 0 -112.5 35.5t-55.5 96.5l69 23q9 -42 37.5 -64.5t70.5 -22.5q50 0 79 25.5t29 73.5
q0 32 -24.5 56t-59 41.5t-69 36.5t-59 51.5t-24.5 76.5q0 74 52.5 123t137.5 49z" />
    <glyph glyph-name="t.sc" horiz-adv-x="405" 
d="M46 582h382l-8 -75h-148l-63 -507h-86l62 507h-147z" />
    <glyph glyph-name="u.sc" horiz-adv-x="517" 
d="M411 582h86l-49 -392q-11 -93 -70.5 -146t-156.5 -53q-88 0 -136 43.5t-48 120.5q0 15 3 39l48 388h88l-50 -396q-2 -18 -2 -25q0 -96 106 -96q117 0 132 121z" />
    <glyph glyph-name="v.sc" horiz-adv-x="494" 
d="M520 582l-266 -582h-87l-125 582h96l85 -478l201 478h96z" />
    <glyph glyph-name="w.sc" horiz-adv-x="761" 
d="M769 582l-219 -582h-93l-58 447l-168 -447h-92l-78 582h89l51 -471l173 471h82l58 -475l168 475h87z" />
    <glyph glyph-name="x.sc" horiz-adv-x="484" 
d="M-16 0l202 293l-128 289h96l93 -238l152 238h96l-198 -288l132 -294h-97l-97 242l-157 -242h-94z" />
    <glyph glyph-name="y.sc" horiz-adv-x="472" 
d="M499 582l-233 -389l-23 -193h-87l24 194l-140 388h98l94 -311l172 311h95z" />
    <glyph glyph-name="z.sc" horiz-adv-x="441" 
d="M377 74l-8 -74h-374l5 51l328 457h-257l8 74h361l-5 -50l-329 -458h271z" />
    <glyph glyph-name="exclamdown.sc" horiz-adv-x="198" 
d="M105 0h-81l30 241l29 169h63l-11 -169zM183 582l-12 -99h-96l11 99h97z" />
    <glyph glyph-name="dieresis.sc" horiz-adv-x="267" 
d="M84 732h65l-12 -101h-66zM224 732h66l-13 -101h-66z" />
    <glyph glyph-name="macron.sc" horiz-adv-x="267" 
d="M300 709l-6 -55h-234l6 55h234z" />
    <glyph glyph-name="acute.sc" horiz-adv-x="267" 
d="M167 732h92l-87 -112h-65z" />
    <glyph glyph-name="questiondown.sc" horiz-adv-x="415" 
d="M12 121q0 71 48.5 125.5t124.5 86.5l16 81h61l-8 -118q-159 -57 -159 -162q0 -72 84 -72q90 0 135 87l63 -21q-30 -60 -84.5 -97t-125.5 -37q-79 0 -117 36t-38 91zM300 583l-12 -99h-96l12 99h96z" />
    <glyph glyph-name="germandbls.sc" horiz-adv-x="832" 
d="M244 591q67 0 109.5 -31t56.5 -86l-64 -25q-7 35 -35 54.5t-68 19.5q-50 0 -76 -24.5t-26 -64.5q0 -30 24 -53.5t58.5 -41t68.5 -36.5t58 -52t24 -77q0 -86 -56.5 -135t-144.5 -49q-66 0 -112.5 35.5t-55.5 96.5l69 23q9 -42 37.5 -64.5t70.5 -22.5q50 0 79 25.5t29 73.5
q0 32 -24.5 56t-59 41.5t-69 36.5t-59 51.5t-24.5 76.5q0 74 52.5 123t137.5 49zM660 591q67 0 109.5 -31t56.5 -86l-64 -25q-7 35 -35 54.5t-68 19.5q-50 0 -76 -24.5t-26 -64.5q0 -30 24 -53.5t58.5 -41t68.5 -36.5t58 -52t24 -77q0 -86 -56.5 -135t-144.5 -49
q-66 0 -112.5 35.5t-55.5 96.5l69 23q9 -42 37.5 -64.5t70.5 -22.5q50 0 79 25.5t29 73.5q0 32 -24.5 56t-59 41.5t-69 36.5t-59 51.5t-24.5 76.5q0 74 52.5 123t137.5 49z" />
    <glyph glyph-name="agrave.sc" horiz-adv-x="502" 
d="M121 143l-60 -143h-90l267 582h95l124 -582h-89l-26 143h-221zM275 505l-126 -297h181zM208 729h94l38 -109h-65z" />
    <glyph glyph-name="aacute.sc" horiz-adv-x="502" 
d="M121 143l-60 -143h-90l267 582h95l124 -582h-89l-26 143h-221zM275 505l-126 -297h181zM310 732h92l-87 -112h-65z" />
    <glyph glyph-name="acircumflex.sc" horiz-adv-x="502" 
d="M121 143l-60 -143h-90l267 582h95l124 -582h-89l-26 143h-221zM275 505l-126 -297h181zM245 620h-72l102 112h60l75 -112h-73l-38 68z" />
    <glyph glyph-name="atilde.sc" horiz-adv-x="502" 
d="M121 143l-60 -143h-90l267 582h95l124 -582h-89l-26 143h-221zM275 505l-126 -297h181zM396 731l46 -8q-14 -54 -36 -79.5t-57 -25.5q-31 0 -62 32.5t-45 32.5q-27 0 -43 -58l-46 7q14 55 35.5 80.5t56.5 25.5q24 0 44 -16.5t35.5 -33t28.5 -16.5q15 0 24 12.5t19 46.5z
" />
    <glyph glyph-name="adieresis.sc" horiz-adv-x="502" 
d="M121 143l-60 -143h-90l267 582h95l124 -582h-89l-26 143h-221zM275 505l-126 -297h181zM201 732h65l-12 -101h-66zM341 732h66l-13 -101h-66z" />
    <glyph glyph-name="aring.sc" horiz-adv-x="502" 
d="M121 143l-60 -143h-90l267 582h95l124 -582h-89l-26 143h-221zM275 505l-126 -297h181zM211 684q0 36 27 64t71 28q34 0 55 -20t21 -52q0 -39 -28 -65.5t-68 -26.5q-35 0 -56.5 20t-21.5 52zM304 737q-19 0 -31 -15t-12 -36q0 -34 33 -34q18 0 29.5 14t11.5 35
q0 36 -31 36z" />
    <glyph glyph-name="ae.sc" horiz-adv-x="706" 
d="M147 146l-86 -146h-88l355 582h375l-8 -72h-251l-5 -178h179l-7 -65h-173l-5 -196h218l-8 -71h-297l4 146h-203zM186 211h165l8 292z" />
    <glyph glyph-name="ccedilla.sc" horiz-adv-x="438" 
d="M271 590q64 0 107.5 -35t52.5 -89l-65 -24q-14 77 -95 77q-55 0 -87.5 -34t-40.5 -97l-27 -199q-2 -16 -2 -24q0 -48 25.5 -76.5t73.5 -28.5q43 0 70.5 19t45.5 64l61 -23q-46 -120 -176 -128l-6 -24q70 -11 70 -53q0 -36 -34 -59.5t-93 -27.5l-9 41q38 7 53 15.5
t15 22.5q0 21 -65 25l20 61q-65 9 -101.5 52.5t-36.5 111.5q0 10 2 30l27 201q13 94 69.5 148t145.5 54z" />
    <glyph glyph-name="egrave.sc" horiz-adv-x="441" 
d="M97 582h341l-8 -72h-254l-23 -178h198l-8 -65h-198l-24 -196h262l-7 -71h-350zM186 729h94l38 -109h-65z" />
    <glyph glyph-name="eacute.sc" horiz-adv-x="441" 
d="M97 582h341l-8 -72h-254l-23 -178h198l-8 -65h-198l-24 -196h262l-7 -71h-350zM288 732h92l-87 -112h-65z" />
    <glyph glyph-name="ecircumflex.sc" horiz-adv-x="441" 
d="M97 582h341l-8 -72h-254l-23 -178h198l-8 -65h-198l-24 -196h262l-7 -71h-350zM228 620h-72l102 112h60l75 -112h-73l-38 68z" />
    <glyph glyph-name="edieresis.sc" horiz-adv-x="441" 
d="M97 582h341l-8 -72h-254l-23 -178h198l-8 -65h-198l-24 -196h262l-7 -71h-350zM186 732h65l-12 -101h-66zM326 732h66l-13 -101h-66z" />
    <glyph glyph-name="igrave.sc" horiz-adv-x="239" 
d="M110 582h87l-71 -582h-87zM65 729h94l38 -109h-65z" />
    <glyph glyph-name="iacute.sc" horiz-adv-x="239" 
d="M110 582h87l-71 -582h-87zM180 732h92l-87 -112h-65z" />
    <glyph glyph-name="icircumflex.sc" horiz-adv-x="239" 
d="M110 582h87l-71 -582h-87zM114 620h-72l102 112h60l75 -112h-73l-38 68z" />
    <glyph glyph-name="idieresis.sc" horiz-adv-x="239" 
d="M110 582h87l-71 -582h-87zM69 732h65l-12 -101h-66zM209 732h66l-13 -101h-66z" />
    <glyph glyph-name="eth.sc" horiz-adv-x="525" 
d="M491 368l-24 -170q-13 -92 -71.5 -145t-154.5 -53h-206l33 274h-57l6 49h57l32 259h205q88 0 136 -44.5t48 -123.5q0 -12 -4 -46zM381 200l24 172q3 24 3 35q0 103 -105 103h-118l-24 -187h95l-6 -49h-95l-25 -204h118q59 0 91.5 31.5t41.5 98.5z" />
    <glyph glyph-name="ntilde.sc" horiz-adv-x="517" 
d="M97 582h68l197 -409l50 409h77l-71 -582h-62l-201 419l-51 -419h-78zM410 731l46 -8q-14 -54 -36 -79.5t-57 -25.5q-31 0 -62 32.5t-45 32.5q-27 0 -43 -58l-46 7q14 55 35.5 80.5t56.5 25.5q24 0 44 -16.5t35.5 -33t28.5 -16.5q15 0 24 12.5t19 46.5z" />
    <glyph glyph-name="ograve.sc" horiz-adv-x="496" 
d="M465 388l-27 -194q-13 -95 -72 -149t-156 -54q-89 0 -135.5 44.5t-46.5 123.5q0 23 2 35l26 193q13 96 71.5 149.5t155.5 53.5q89 0 136.5 -45t47.5 -125q0 -10 -2 -32zM353 194l25 184q3 30 3 37q0 102 -105 102q-115 0 -133 -129l-27 -194q-2 -20 -2 -29
q0 -103 104 -103q117 0 135 132zM197 729h94l38 -109h-65z" />
    <glyph glyph-name="oacute.sc" horiz-adv-x="496" 
d="M465 388l-27 -194q-13 -95 -72 -149t-156 -54q-89 0 -135.5 44.5t-46.5 123.5q0 23 2 35l26 193q13 96 71.5 149.5t155.5 53.5q89 0 136.5 -45t47.5 -125q0 -10 -2 -32zM353 194l25 184q3 30 3 37q0 102 -105 102q-115 0 -133 -129l-27 -194q-2 -20 -2 -29
q0 -103 104 -103q117 0 135 132zM311 732h92l-87 -112h-65z" />
    <glyph glyph-name="ocircumflex.sc" horiz-adv-x="496" 
d="M465 388l-27 -194q-13 -95 -72 -149t-156 -54q-89 0 -135.5 44.5t-46.5 123.5q0 23 2 35l26 193q13 96 71.5 149.5t155.5 53.5q89 0 136.5 -45t47.5 -125q0 -10 -2 -32zM353 194l25 184q3 30 3 37q0 102 -105 102q-115 0 -133 -129l-27 -194q-2 -20 -2 -29
q0 -103 104 -103q117 0 135 132zM243 620h-72l102 112h60l75 -112h-73l-38 68z" />
    <glyph glyph-name="otilde.sc" horiz-adv-x="496" 
d="M465 388l-27 -194q-13 -95 -72 -149t-156 -54q-89 0 -135.5 44.5t-46.5 123.5q0 23 2 35l26 193q13 96 71.5 149.5t155.5 53.5q89 0 136.5 -45t47.5 -125q0 -10 -2 -32zM353 194l25 184q3 30 3 37q0 102 -105 102q-115 0 -133 -129l-27 -194q-2 -20 -2 -29
q0 -103 104 -103q117 0 135 132zM396 731l46 -8q-14 -54 -36 -79.5t-57 -25.5q-31 0 -62 32.5t-45 32.5q-27 0 -43 -58l-46 7q14 55 35.5 80.5t56.5 25.5q24 0 44 -16.5t35.5 -33t28.5 -16.5q15 0 24 12.5t19 46.5z" />
    <glyph glyph-name="odieresis.sc" horiz-adv-x="496" 
d="M465 388l-27 -194q-13 -95 -72 -149t-156 -54q-89 0 -135.5 44.5t-46.5 123.5q0 23 2 35l26 193q13 96 71.5 149.5t155.5 53.5q89 0 136.5 -45t47.5 -125q0 -10 -2 -32zM353 194l25 184q3 30 3 37q0 102 -105 102q-115 0 -133 -129l-27 -194q-2 -20 -2 -29
q0 -103 104 -103q117 0 135 132zM199 732h65l-12 -101h-66zM339 732h66l-13 -101h-66z" />
    <glyph glyph-name="oslash.sc" horiz-adv-x="496" 
d="M465 388l-27 -194q-13 -95 -72 -149t-156 -54q-99 0 -145 54l-38 -45l-25 24l43 52q-17 37 -17 83q0 23 2 35l26 193q13 96 71.5 149.5t155.5 53.5t146 -55l41 49l26 -25l-47 -55q18 -38 18 -86q0 -10 -2 -30zM353 194l26 193q1 8 1 34l-257 -307q21 -51 96 -51
q116 0 134 131zM116 194q-2 -13 -2 -36l257 308q-21 50 -96 50q-114 0 -132 -128z" />
    <glyph glyph-name="ugrave.sc" horiz-adv-x="517" 
d="M411 582h86l-49 -392q-11 -93 -70.5 -146t-156.5 -53q-88 0 -136 43.5t-48 120.5q0 15 3 39l48 388h88l-50 -396q-2 -18 -2 -25q0 -96 106 -96q117 0 132 121zM212 729h94l38 -109h-65z" />
    <glyph glyph-name="uacute.sc" horiz-adv-x="517" 
d="M411 582h86l-49 -392q-11 -93 -70.5 -146t-156.5 -53q-88 0 -136 43.5t-48 120.5q0 15 3 39l48 388h88l-50 -396q-2 -18 -2 -25q0 -96 106 -96q117 0 132 121zM320 732h92l-87 -112h-65z" />
    <glyph glyph-name="ucircumflex.sc" horiz-adv-x="517" 
d="M411 582h86l-49 -392q-11 -93 -70.5 -146t-156.5 -53q-88 0 -136 43.5t-48 120.5q0 15 3 39l48 388h88l-50 -396q-2 -18 -2 -25q0 -96 106 -96q117 0 132 121zM255 620h-72l102 112h60l75 -112h-73l-38 68z" />
    <glyph glyph-name="udieresis.sc" horiz-adv-x="517" 
d="M411 582h86l-49 -392q-11 -93 -70.5 -146t-156.5 -53q-88 0 -136 43.5t-48 120.5q0 15 3 39l48 388h88l-50 -396q-2 -18 -2 -25q0 -96 106 -96q117 0 132 121zM211 732h65l-12 -101h-66zM351 732h66l-13 -101h-66z" />
    <glyph glyph-name="yacute.sc" horiz-adv-x="472" 
d="M499 582l-233 -389l-23 -193h-87l24 194l-140 388h98l94 -311l172 311h95zM291 732h92l-87 -112h-65z" />
    <glyph glyph-name="thorn.sc" horiz-adv-x="464" 
d="M286 480q74 0 114 -38t40 -108q0 -98 -52 -155t-140 -57h-120l-14 -122h-88l71 582h87l-12 -102h114zM163 409l-27 -221h112q105 0 105 144q0 77 -77 77h-113z" />
    <glyph glyph-name="ydieresis.sc" horiz-adv-x="472" 
d="M499 582l-233 -389l-23 -193h-87l24 194l-140 388h98l94 -311l172 311h95zM186 732h65l-12 -101h-66zM326 732h66l-13 -101h-66z" />
    <glyph glyph-name="dotlessi.sc" horiz-adv-x="239" 
d="M110 582h87l-71 -582h-87z" />
    <glyph glyph-name="ij.sc" horiz-adv-x="474" 
d="M110 582h87l-71 -582h-87zM359 582h86l-59 -484q-26 -209 -238 -212l1 67q69 0 104.5 33.5t45.5 111.5z" />
    <glyph glyph-name="lslash.sc" horiz-adv-x="404" 
d="M101 582h85l-31 -250l156 77l-8 -69l-157 -77l-23 -189h232l-8 -74h-317l28 227l-51 -23l8 69l51 24z" />
    <glyph glyph-name="oe.sc" horiz-adv-x="741" 
d="M401 582h337l-8 -72h-251l-23 -178h197l-7 -65h-198l-24 -196h262l-8 -71h-347l5 51q-52 -60 -145 -60q-77 0 -120 45t-43 123q0 22 4 50l24 178q13 94 68.5 148.5t139.5 54.5q94 0 131 -59zM353 195l26 191q2 13 2 28q0 102 -106 102q-59 0 -91 -32t-41 -98l-27 -191
q-2 -20 -2 -29q0 -103 105 -103q60 0 92.5 32.5t41.5 99.5z" />
    <glyph glyph-name="scaron.sc" horiz-adv-x="416" 
d="M244 591q67 0 109.5 -31t56.5 -86l-64 -25q-7 35 -35 54.5t-68 19.5q-50 0 -76 -24.5t-26 -64.5q0 -30 24 -53.5t58.5 -41t68.5 -36.5t58 -52t24 -77q0 -86 -56.5 -135t-144.5 -49q-66 0 -112.5 35.5t-55.5 96.5l69 23q9 -42 37.5 -64.5t70.5 -22.5q50 0 79 25.5t29 73.5
q0 32 -24.5 56t-59 41.5t-69 36.5t-59 51.5t-24.5 76.5q0 74 52.5 123t137.5 49zM150 732h70l39 -72l58 72h70l-102 -112h-60z" />
    <glyph glyph-name="zcaron.sc" horiz-adv-x="441" 
d="M377 74l-8 -74h-374l5 51l328 457h-257l8 74h361l-5 -50l-329 -458h271zM162 732h70l39 -72l58 72h70l-102 -112h-60z" />
    <glyph glyph-name="longs.sc" horiz-adv-x="416" 
d="M244 591q67 0 109.5 -31t56.5 -86l-64 -25q-7 35 -35 54.5t-68 19.5q-50 0 -76 -24.5t-26 -64.5q0 -30 24 -53.5t58.5 -41t68.5 -36.5t58 -52t24 -77q0 -86 -56.5 -135t-144.5 -49q-66 0 -112.5 35.5t-55.5 96.5l69 23q9 -42 37.5 -64.5t70.5 -22.5q50 0 79 25.5t29 73.5
q0 32 -24.5 56t-59 41.5t-69 36.5t-59 51.5t-24.5 76.5q0 74 52.5 123t137.5 49z" />
    <glyph glyph-name="circumflex.sc" horiz-adv-x="267" 
d="M127 620h-72l102 112h60l75 -112h-73l-38 68z" />
    <glyph glyph-name="caron.sc" horiz-adv-x="267" 
d="M68 732h70l39 -72l58 72h70l-102 -112h-60z" />
    <glyph glyph-name="breve.sc" horiz-adv-x="267" 
d="M70 728h59v-13q0 -31 11.5 -43t37.5 -12q28 0 43 14.5t22 53.5h60q-16 -64 -44.5 -88.5t-86.5 -24.5q-57 0 -79 24.5t-23 88.5z" />
    <glyph glyph-name="dotaccent.sc" horiz-adv-x="267" 
d="M101 732h82l-13 -101h-81z" />
    <glyph glyph-name="ring.sc" horiz-adv-x="267" 
d="M94 684q0 36 27 64t71 28q34 0 55 -20t21 -52q0 -39 -28 -65.5t-68 -26.5q-35 0 -56.5 20t-21.5 52zM187 737q-19 0 -31 -15t-12 -36q0 -34 33 -34q18 0 29.5 14t11.5 35q0 36 -31 36z" />
    <glyph glyph-name="tilde.sc" horiz-adv-x="267" 
d="M279 731l46 -8q-14 -54 -36 -79.5t-57 -25.5q-19 0 -36 10t-26.5 22.5t-21.5 22.5t-23 10q-27 0 -43 -58l-46 7q14 55 35.5 80.5t56.5 25.5q24 0 44 -16.5t35.5 -33t28.5 -16.5q15 0 24 12.5t19 46.5z" />
    <glyph glyph-name="hungarumlaut.sc" horiz-adv-x="267" 
d="M133 732h83l-77 -112h-55zM265 732h82l-90 -112h-55z" />
    <glyph glyph-name="gravecomb.sc" horiz-adv-x="1" 
d="M-298 729h94l38 -109h-65z" />
    <glyph glyph-name="acutecomb.sc" horiz-adv-x="1" 
d="M-184 732h92l-87 -112h-65z" />
    <glyph glyph-name="uni0302.sc" horiz-adv-x="1" 
d="M-252 620h-72l102 112h60l75 -112h-73l-38 68z" />
    <glyph glyph-name="tildecomb.sc" horiz-adv-x="1" 
d="M-99 731l46 -8q-14 -54 -36 -79.5t-57 -25.5q-19 0 -36 10t-26.5 22.5t-21.5 22.5t-23 10q-27 0 -43 -58l-46 7q14 55 35.5 80.5t56.5 25.5q24 0 44 -16.5t35.5 -33t28.5 -16.5q15 0 24 12.5t19 46.5z" />
    <glyph glyph-name="uni0304.sc" horiz-adv-x="1" 
d="M33 707l-6 -58h-238l7 58h237z" />
    <glyph glyph-name="uni0306.sc" horiz-adv-x="1" 
d="M-201 764h63q-1 -11 -1 -29q0 -39 11 -53.5t36 -14.5q28 0 44 20.5t27 76.5h63q-20 -82 -50.5 -113t-89.5 -31t-81 30.5t-22 113.5z" />
    <glyph glyph-name="uni0307.sc" horiz-adv-x="1" 
d="M-162 735h79l-13 -107h-80z" />
    <glyph glyph-name="uni0308.sc" horiz-adv-x="1" 
d="M-182 735h66l-14 -107h-65zM-42 735h65l-14 -107h-65z" />
    <glyph glyph-name="uni030A.sc" horiz-adv-x="1" 
d="M-174 684q0 35 27 63.5t69 28.5q34 0 55 -19.5t21 -51.5q0 -40 -28 -65.5t-67 -25.5q-35 0 -56 19.5t-21 50.5zM-83 736q-18 0 -29.5 -15t-11.5 -34q0 -32 32 -32q18 0 29.5 12.5t11.5 32.5q0 15 -8.5 25.5t-23.5 10.5z" />
    <glyph glyph-name="uni030B.sc" horiz-adv-x="1" 
d="M-125 757h87l-94 -137h-54zM13 757h87l-111 -137h-55z" />
    <glyph glyph-name="uni030C.sc" horiz-adv-x="1" 
d="M-278 732h70l39 -72l58 72h70l-102 -112h-60z" />
    <glyph glyph-name="uni0327.sc" horiz-adv-x="1" 
d="M-203 18l47 -3l-13 -47q70 -11 70 -53q0 -36 -34 -59.5t-93 -27.5l-9 41q38 7 53 15.5t15 22.5q0 21 -65 25z" />
    <glyph glyph-name="uni0328.sc" horiz-adv-x="1" 
d="M-153 5l37 -7q-41 -15 -64.5 -37.5t-23.5 -46.5q0 -32 45 -32q32 0 68 18l11 -46q-47 -26 -103 -26q-92 0 -92 64q0 35 33.5 64.5t88.5 48.5z" />
    <glyph glyph-name="uni203D.sc" horiz-adv-x="438" 
d="M423 460q0 -73 -51.5 -125t-132.5 -84l-13 -82h-59l10 133l27 218q-66 -17 -107 -87l-61 21q30 60 87.5 98t131.5 38q85 0 126.5 -37t41.5 -93zM245 311q100 53 100 137q0 68 -74 77zM127 0l11 99h97l-12 -99h-96z" />
    <glyph glyph-name="uni2E18.sc" horiz-adv-x="437" 
d="M12 130q0 73 51.5 125t132.5 84l13 82h59l-10 -133l-27 -218q66 17 107 87l61 -21q-30 -60 -87.5 -98t-131.5 -38q-85 0 -126.5 37t-41.5 93zM190 279q-100 -53 -100 -137q0 -68 74 -77zM308 590l-11 -99h-97l12 99h96z" />
    <glyph glyph-name="uniFB00.sc" horiz-adv-x="866" 
d="M97 582h340l-7 -74h-254l-23 -184h217l-8 -69h-217l-31 -255h-88zM530 582h340l-7 -74h-254l-23 -184h217l-8 -69h-217l-31 -255h-88z" />
    <glyph glyph-name="fi.sc" horiz-adv-x="672" 
d="M97 582h340l-7 -74h-254l-23 -184h217l-8 -69h-217l-31 -255h-88zM543 582h87l-71 -582h-87z" />
    <glyph glyph-name="fl.sc" horiz-adv-x="832" 
d="M97 582h340l-7 -74h-254l-23 -184h217l-8 -69h-217l-31 -255h-88zM530 582h85l-63 -508h232l-8 -74h-317z" />
    <glyph glyph-name="uniFB03.sc" horiz-adv-x="1105" 
d="M97 582h340l-7 -74h-254l-23 -184h217l-8 -69h-217l-31 -255h-88zM530 582h340l-7 -74h-254l-23 -184h217l-8 -69h-217l-31 -255h-88zM976 582h87l-71 -582h-87z" />
    <glyph glyph-name="uniFB04.sc" horiz-adv-x="1265" 
d="M97 582h340l-7 -74h-254l-23 -184h217l-8 -69h-217l-31 -255h-88zM530 582h340l-7 -74h-254l-23 -184h217l-8 -69h-217l-31 -255h-88zM963 582h85l-63 -508h232l-8 -74h-317z" />
    <glyph glyph-name="parenleft.case" horiz-adv-x="259" 
d="M50 226l37 285q24 181 84.5 261.5t165.5 80.5h26l-6 -59h-27q-65 0 -107.5 -64.5t-62.5 -218.5l-37 -285q-7 -56 -7 -106q0 -177 109 -177h27l-7 -59h-26q-88 0 -132 55t-44 176q0 54 7 111z" />
    <glyph glyph-name="parenright.case" horiz-adv-x="259" 
d="M225 511l-36 -285q-23 -181 -83.5 -261.5t-165.5 -80.5h-26l6 60h27q64 0 107 65t62 217l36 285q7 57 7 107q0 176 -108 176h-27l7 59h26q88 0 132 -55t44 -175q0 -46 -8 -112z" />
    <glyph glyph-name="hyphen.case" horiz-adv-x="268" 
d="M30 331l8 74h217l-9 -74h-216z" />
    <glyph glyph-name="at.case" horiz-adv-x="755" 
d="M548 516h-27l-20 -228q-2 -20 -2 -28q0 -62 56 -62q43 0 64 33t21 114v138q0 123 -66 191t-189 68q-126 0 -198.5 -76.5t-72.5 -197.5v-208q0 -139 74 -214t201 -75q81 0 137 22t102 68l46 -36q-110 -115 -285 -115q-161 0 -251 91.5t-90 257.5v210q0 145 90.5 240.5
t246.5 95.5q152 0 235.5 -89.5t83.5 -232.5v-137q0 -106 -40.5 -158.5t-110.5 -52.5q-80 0 -106 57q-54 -60 -131 -60q-58 0 -88.5 37.5t-30.5 108.5q0 133 66.5 213.5t185.5 80.5h101zM427 266l22 241h-15q-78 0 -119 -59.5t-41 -166.5q0 -85 59 -85q62 0 94 70z" />
    <glyph glyph-name="bracketleft.case" horiz-adv-x="257" 
d="M22 -116l118 969h239l-6 -60h-163l-104 -848h162l-7 -61h-239z" />
    <glyph glyph-name="bracketright.case" horiz-adv-x="258" 
d="M254 853l-119 -969h-240l7 61h161l105 847h-162l6 61h242z" />
    <glyph glyph-name="grave.case" horiz-adv-x="266" 
d="M72 872h108l54 -112h-74z" />
    <glyph glyph-name="braceleft.case" horiz-adv-x="263" 
d="M31 342l7 53q94 9 94 84q0 17 -7 68t-7 85q0 221 239 221h27l-6 -53h-27q-157 0 -157 -172q0 -31 6.5 -81t6.5 -68q0 -87 -85 -110q63 -19 63 -76q0 -28 -28 -102t-34 -122q-2 -16 -2 -23q0 -53 31.5 -80.5t92.5 -27.5h27l-6 -54h-27q-94 0 -145 37.5t-51 109.5q0 9 2 27
q7 54 35 128t28 97q0 25 -20.5 40.5t-56.5 18.5z" />
    <glyph glyph-name="braceright.case" horiz-adv-x="263" 
d="M248 395l-6 -53q-95 -8 -95 -82q0 -16 7.5 -67.5t7.5 -86.5q0 -110 -61.5 -166t-177.5 -56h-27l7 55h26q77 0 116.5 44t39.5 127q0 31 -6.5 81t-6.5 70q0 84 85 108q-63 18 -63 75q0 24 32 108.5t32 142.5q0 104 -124 104h-27l7 54h26q94 0 145.5 -36.5t51.5 -108.5
q0 -8 -2 -26q-7 -54 -36 -129.5t-29 -98.5q0 -51 78 -59z" />
    <glyph glyph-name="exclamdown.case" horiz-adv-x="229" 
d="M120 0h-85l37 299l35 216h68l-17 -213zM217 725l-13 -108h-101l13 108h101z" />
    <glyph glyph-name="dieresis.case" horiz-adv-x="266" 
d="M86 872h68l-12 -101h-67zM252 872h67l-12 -101h-67z" />
    <glyph glyph-name="guillemotleft.case" horiz-adv-x="404" 
d="M407 517l-146 -178l102 -179h-75l-100 179l144 178h75zM246 517l-146 -178l102 -179h-75l-100 179l144 178h75z" />
    <glyph glyph-name="uni00AD.case" horiz-adv-x="268" 
d="M30 331l8 74h217l-9 -74h-216z" />
    <glyph glyph-name="macron.case" horiz-adv-x="266" 
d="M327 849l-6 -54h-255l6 54h255z" />
    <glyph glyph-name="acute.case" horiz-adv-x="266" 
d="M193 872h107l-107 -112h-74z" />
    <glyph glyph-name="periodcentered.case" horiz-adv-x="230" 
d="M55 398q0 27 17.5 46t41.5 19q25 0 43 -19t18 -46q0 -26 -18 -45t-43 -19q-24 0 -41.5 19t-17.5 45z" />
    <glyph glyph-name="guillemotright.case" horiz-adv-x="404" 
d="M166 160l145 179l-102 178h75l100 -178l-144 -179h-74zM5 160l145 179l-102 178h75l100 -178l-144 -179h-74z" />
    <glyph glyph-name="questiondown.case" horiz-adv-x="482" 
d="M443 152q-34 -73 -97 -117.5t-145 -44.5q-91 0 -134.5 43t-43.5 109q0 84 55.5 155.5t149.5 112.5l22 106h64l-13 -146q-190 -80 -190 -215q0 -41 24.5 -66.5t78.5 -25.5q109 0 163 112zM357 725l-13 -108h-101l13 108h101z" />
    <glyph glyph-name="circumflex.case" horiz-adv-x="266" 
d="M140 760h-74l102 112h69l76 -112h-74l-42 65z" />
    <glyph glyph-name="caron.case" horiz-adv-x="266" 
d="M82 872h73l40 -67l57 67h71l-104 -112h-59z" />
    <glyph glyph-name="breve.case" horiz-adv-x="266" 
d="M80 872h63v-12q0 -33 12 -46.5t39 -13.5q28 0 43.5 16t23.5 56h63q-18 -65 -48 -91t-88 -26q-59 0 -83 26t-25 91z" />
    <glyph glyph-name="dotaccent.case" horiz-adv-x="266" 
d="M117 872h88l-12 -101h-88z" />
    <glyph glyph-name="ring.case" horiz-adv-x="266" 
d="M110 813q0 34 28.5 59t67.5 25q34 0 55 -18.5t21 -47.5q0 -36 -27 -60t-67 -24q-35 0 -56.5 18.5t-21.5 47.5zM202 859q-15 0 -28 -12t-13 -30q0 -14 8.5 -23t23.5 -9q17 0 28.5 12t11.5 29q0 14 -8.5 23.5t-22.5 9.5z" />
    <glyph glyph-name="tilde.case" horiz-adv-x="266" 
d="M295 873l44 -7q-16 -58 -38 -85.5t-58 -27.5q-23 0 -42 17t-33.5 34t-26.5 17q-24 0 -44 -62l-45 6q16 58 38 86t58 28q24 0 43 -17.5t33 -34.5t26 -17q25 0 45 63z" />
    <glyph glyph-name="hungarumlaut.case" horiz-adv-x="266" 
d="M154 872h88l-86 -112h-57zM292 872h88l-103 -112h-57z" />
    <glyph glyph-name="gravecomb.case" horiz-adv-x="1" 
d="M-346 872h108l54 -112h-74z" />
    <glyph glyph-name="acutecomb.case" horiz-adv-x="1" 
d="M-211 872h107l-107 -112h-74z" />
    <glyph glyph-name="uni0302.case" horiz-adv-x="1" 
d="M-284 760h-74l102 112h69l76 -112h-74l-42 65z" />
    <glyph glyph-name="tildecomb.case" horiz-adv-x="1" 
d="M-128 873l44 -7q-16 -58 -38 -85.5t-58 -27.5q-23 0 -42 17t-33.5 34t-26.5 17q-24 0 -44 -62l-45 6q16 58 38 86t58 28q24 0 43 -17.5t33 -34.5t26 -17q25 0 45 63z" />
    <glyph glyph-name="uni0304.case" horiz-adv-x="1" 
d="M33 845l-6 -58h-238l7 58h237z" />
    <glyph glyph-name="uni0306.case" horiz-adv-x="1" 
d="M-201 904h63q-1 -11 -1 -29q0 -39 11 -53.5t36 -14.5q28 0 44 20.5t27 76.5h63q-20 -82 -50.5 -113t-89.5 -31t-81 30.5t-22 113.5z" />
    <glyph glyph-name="uni0307.case" horiz-adv-x="1" 
d="M-162 875h79l-13 -107h-80z" />
    <glyph glyph-name="uni0308.case" horiz-adv-x="1" 
d="M-182 875h66l-14 -107h-65zM-42 875h65l-14 -107h-65z" />
    <glyph glyph-name="uni030A.case" horiz-adv-x="1" 
d="M-174 805q0 35 27 63.5t69 28.5q34 0 55 -19.5t21 -51.5q0 -40 -28 -65.5t-67 -25.5q-35 0 -56 19.5t-21 50.5zM-83 857q-18 0 -29.5 -15t-11.5 -34q0 -32 32 -32q18 0 29.5 12.5t11.5 32.5q0 15 -8.5 25.5t-23.5 10.5z" />
    <glyph glyph-name="uni030B.case" horiz-adv-x="1" 
d="M-125 897h87l-94 -137h-54zM13 897h87l-111 -137h-55z" />
    <glyph glyph-name="uni030C.case" horiz-adv-x="1" 
d="M-300 872h73l40 -67l57 67h71l-104 -112h-59z" />
    <glyph glyph-name="uni0327.case" horiz-adv-x="1" 
d="M-203 18l47 -3l-13 -47q70 -11 70 -53q0 -36 -34 -59.5t-93 -27.5l-9 41q38 7 53 15.5t15 22.5q0 21 -65 25z" />
    <glyph glyph-name="uni0328.case" horiz-adv-x="1" 
d="M-153 5l37 -7q-41 -15 -64.5 -37.5t-23.5 -46.5q0 -32 45 -32q32 0 68 18l11 -46q-47 -26 -103 -26q-92 0 -92 64q0 35 33.5 64.5t88.5 48.5z" />
    <glyph glyph-name="endash.case" horiz-adv-x="406" 
d="M31 342l7 67h356l-7 -67h-356z" />
    <glyph glyph-name="emdash.case" horiz-adv-x="577" 
d="M31 342l7 67h527l-8 -67h-526z" />
    <glyph glyph-name="bullet.case" horiz-adv-x="271" 
d="M20 390q0 54 33.5 91t82.5 37t82.5 -37t33.5 -91q0 -53 -33.5 -90t-82.5 -37t-82.5 37t-33.5 90z" />
    <glyph glyph-name="guilsinglleft.case" horiz-adv-x="243" 
d="M247 517l-146 -178l102 -179h-75l-100 179l144 178h75z" />
    <glyph glyph-name="guilsinglright.case" horiz-adv-x="243" 
d="M5 160l146 179l-102 178h75l100 -178l-144 -179h-75z" />
    <glyph glyph-name="uni2E18.case" horiz-adv-x="505" 
d="M466 154q-34 -73 -101 -119t-151 -46q-97 0 -144 44t-47 113q0 83 57.5 151.5t156.5 109.5l18 108h64l-17 -183l-33 -269q85 20 131 112zM231 340q-55 -31 -90 -78.5t-35 -108.5q0 -83 90 -94zM364 725l-12 -108h-101l12 108h101z" />
    <glyph glyph-name="ampersand.ss01" horiz-adv-x="569" 
d="M300 734q69 0 109 -31.5t40 -83.5q0 -37 -13.5 -69.5t-43 -63t-52.5 -49t-64 -47.5l120 -197q53 86 68 199h68q-18 -150 -95 -258q46 -54 115 -70l-20 -73q-88 14 -149 81q-87 -81 -200 -81q-85 0 -130.5 38t-45.5 113q0 80 44 139.5t124 118.5l-21 34q-44 63 -44 121
q0 75 53 127t137 52zM97 157q0 -46 27.5 -70t76.5 -24q78 0 144 64l-134 215q-62 -50 -88 -93t-26 -92zM372 607q0 27 -19.5 43.5t-58.5 16.5q-50 0 -77 -29t-27 -78q0 -36 29 -78l21 -35q71 52 101.5 86t30.5 74z" />
    <glyph glyph-name="ampersand.sc.ss01" horiz-adv-x="517" 
d="M267 589q61 0 95.5 -25.5t34.5 -66.5q0 -30 -12.5 -57t-40 -52t-48.5 -40t-60 -40l117 -152q46 65 58 158h67q-15 -122 -83 -208q41 -40 99 -48l-16 -64q-76 7 -134 61q-77 -63 -179 -63q-78 0 -120.5 32.5t-42.5 95.5q0 60 36 106t101 91l-5 7q-45 58 -45 120
q0 66 49 105.5t129 39.5zM86 132q0 -75 94 -75q67 0 124 46l-127 165q-52 -39 -71.5 -68t-19.5 -68zM322 481q0 45 -64 45q-93 0 -93 -83q0 -41 26 -76l8 -11q5 3 23 14t25.5 16t22 15.5t21.5 18t15.5 18t12 21t3.5 22.5z" />
    <glyph glyph-name="ampersand.ss02" horiz-adv-x="546" 
d="M409 484l78 16l-11 -90h54l-8 -68h-55l-30 -250q0 -2 -0.5 -4t-0.5 -4q0 -30 31 -30h19l-7 -58h-43q-61 0 -80 56q-72 -62 -169 -62q-82 0 -128.5 40.5t-46.5 121.5q0 86 39.5 145.5t110.5 81.5q-73 35 -73 129q0 101 57.5 164t159.5 63q146 0 182 -137l-69 -23
q-28 89 -119 89q-58 0 -92 -39.5t-34 -112.5q0 -102 128 -102h96zM219 63q78 0 137 60l28 219h-104q-85 0 -131 -44t-46 -131q0 -104 116 -104z" />
    <glyph glyph-name="ampersand.sc.ss02" horiz-adv-x="467" 
d="M337 386l75 15l-9 -70h44l-7 -63h-45l-22 -180q-1 -6 -1 -14q0 -24 24 -24h16l-6 -53h-41q-52 0 -69 45q-61 -49 -144 -49q-70 0 -110 33.5t-40 97.5q0 67 32.5 114t92.5 65q-63 28 -63 101q0 82 52 133.5t139 51.5q123 0 156 -114l-65 -22q-24 70 -94 70
q-51 0 -78 -29.5t-27 -86.5q0 -76 103 -76h78zM181 59q65 0 115 49l20 160h-84q-143 0 -143 -128q0 -81 92 -81z" />
    <glyph glyph-name="orn001" horiz-adv-x="606" 
d="M554 496l-37 -272q-15 -110 -80.5 -172t-172.5 -62q-97 0 -148.5 51t-51.5 144q0 11 2 39l38 272q15 112 80.5 175.5t171.5 63.5q96 0 148 -52.5t52 -145.5q0 -27 -2 -41zM137 377l-24 -165q-2 -24 -2 -35q0 -73 40.5 -111t117.5 -38q173 0 199 184l23 165q1 7 1.5 20
t0.5 17q0 75 -39.5 114t-117.5 39q-87 0 -137.5 -48.5t-61.5 -141.5zM200 359q0 17 12.5 31t30.5 14q15 0 24.5 -10t9.5 -25q0 -18 -12.5 -33t-30.5 -15q-15 0 -24.5 11t-9.5 27zM347 357q0 18 13 32.5t32 14.5q15 0 24.5 -10.5t9.5 -25.5q0 -18 -13 -32.5t-31 -14.5
q-15 0 -25 10.5t-10 25.5zM273 212l14 115h42l-14 -115h-42zM197 142l5 37h182l-4 -37h-183zM217 375q0 -13 12 -13q5 0 9.5 4.5t4.5 10.5q0 12 -11 12q-5 0 -10 -4.5t-5 -9.5zM381 389q-5 0 -9.5 -4.5t-4.5 -11.5q0 -11 11 -11q5 0 9.5 4.5t4.5 10.5q0 12 -11 12z" />
    </font>
</defs>
</svg>
