<?xml version="1.0" standalone="no"?>
<!DOCTYPE svg PUBLIC "-//W3C//DTD SVG 1.1//EN" "http://www.w3.org/Graphics/SVG/1.1/DTD/svg11.dtd" >
<svg>
<metadata>
Created by FontForge 20110222 at Tue Apr  2 02:47:19 2013
 By Orthosie Webmaster
2006 Lukasz Dziedzic published by FSI FontShop International GmbH
</metadata>
<defs>
<font id="GoodOTBook" horiz-adv-x="532" >
  <font-face 
    font-family="GoodOTBook"
    font-weight="450"
    font-stretch="normal"
    units-per-em="1000"
    panose-1="2 11 6 4 2 1 1 2 1 2"
    ascent="820"
    descent="-180"
    x-height="505"
    cap-height="725"
    bbox="-565 -207 1284 904"
    underline-thickness="70"
    underline-position="-20"
    unicode-range="U+000D-FB04"
  />
<missing-glyph horiz-adv-x="510" 
d="M266 260l6 62q120 52 120 147q0 48 -35.5 82t-106.5 34q-58 0 -99.5 -29t-60.5 -76l55 -18q31 67 101 67q39 0 57 -19t18 -47q0 -76 -112 -114l5 -89h52zM203 207v-83h79v83h-79zM17 0v724h454v-724h-454z" />
    <glyph glyph-name="f_f" unicode="ff" horiz-adv-x="599" 
d="M581 505v-63h-128v-442h-86v442h-196v-442h-86v442h-64v63h64v39q0 81 48.5 131.5t154.5 54.5l5 -61q-125 -5 -125 -126v-38h199v39q0 81 48.5 131.5t154.5 54.5l5 -61q-125 -5 -125 -126v-38h131z" />
    <glyph glyph-name="f_f_i" unicode="ffi" horiz-adv-x="803" 
d="M567 730l5 -61q-125 -5 -125 -126v-38h283v-505h-86v442h-194v-442h-86v442h-193v-442h-86v442h-64v63h64v39q0 81 48.5 131.5t154.5 54.5l5 -61q-125 -5 -125 -126v-38h196v39q0 81 48.5 131.5t154.5 54.5zM647 725h79v-107h-79v107z" />
    <glyph glyph-name="f_f_j" unicode="ffj" horiz-adv-x="805" 
d="M567 730l5 -61q-125 -5 -125 -126v-38h283v-476q0 -186 -179 -198l-8 67q101 12 101 131v413h-194v-442h-86v442h-193v-442h-86v442h-64v63h64v39q0 81 48.5 131.5t154.5 54.5l5 -61q-125 -5 -125 -126v-38h196v39q0 81 48.5 131.5t154.5 54.5zM647 725h79v-107h-79v107z
" />
    <glyph glyph-name="f_f_l" unicode="ffl" horiz-adv-x="812" 
d="M572 505v-63h-121v-442h-86v442h-194v-442h-86v442h-64v63h64v39q0 81 48.5 131.5t154.5 54.5l5 -61q-125 -5 -125 -126v-38h197v39q0 185 225 185h59v19h85v-748h-85v669h-57q-78 0 -111.5 -30.5t-33.5 -95.5v-38h125z" />
    <glyph glyph-name="f_i" unicode="fi" horiz-adv-x="524" 
d="M288 730l5 -61q-125 -5 -125 -126v-38h283v-505h-86v442h-194v-442h-86v442h-64v63h64v39q0 81 48.5 131.5t154.5 54.5zM368 725h79v-107h-79v107z" />
    <glyph glyph-name="f_j" unicode="fj" horiz-adv-x="525" 
d="M288 730l5 -61q-125 -5 -125 -126v-38h283v-476q0 -186 -179 -198l-8 67q101 12 101 131v413h-194v-442h-86v442h-64v63h64v39q0 81 48.5 131.5t154.5 54.5zM368 725h79v-107h-79v107z" />
    <glyph glyph-name="f_l" unicode="fl" 
d="M292 505v-64h-121v-441h-86v441h-64v64h64v39q0 185 225 185h59v19h85v-748h-85v669h-57q-77 0 -110.5 -30.5t-33.5 -95.5v-38h124z" />
    <glyph glyph-name=".notdef" horiz-adv-x="510" 
d="M266 260l6 62q120 52 120 147q0 48 -35.5 82t-106.5 34q-58 0 -99.5 -29t-60.5 -76l55 -18q31 67 101 67q39 0 57 -19t18 -47q0 -76 -112 -114l5 -89h52zM203 207v-83h79v83h-79zM17 0v724h454v-724h-454z" />
    <glyph glyph-name=".null" horiz-adv-x="0" 
 />
    <glyph glyph-name=".null" horiz-adv-x="0" 
 />
    <glyph glyph-name="nonmarkingreturn" horiz-adv-x="333" 
 />
    <glyph glyph-name="CR" unicode="&#xd;" horiz-adv-x="233" 
 />
    <glyph glyph-name="space" unicode=" " horiz-adv-x="233" 
 />
    <glyph glyph-name="exclam" unicode="!" horiz-adv-x="235" 
d="M73 725h87v-296l-9 -219h-69l-9 216v299zM66 0v109h102v-109h-102z" />
    <glyph glyph-name="quotedbl" unicode="&#x22;" horiz-adv-x="317" 
d="M185 607v118h79v-118l-21 -115h-39zM49 607v118h79v-118l-21 -115h-39z" />
    <glyph glyph-name="numbersign" unicode="#" horiz-adv-x="548" 
d="M38 449v60h118l17 216h64l-18 -216h136l17 216h64l-18 -216h91v-60h-92l-14 -174h106v-60h-108l-18 -215h-63l18 215h-136l-18 -215h-63l18 215h-101v60h103l14 174h-117zM218 449l-14 -174h136l14 174h-136z" />
    <glyph glyph-name="dollar" unicode="$" horiz-adv-x="492" 
d="M236 826h55l1 -96q57 -12 97 -49.5t58 -92.5l-62 -23q-27 76 -99 92l-13 -251q42 -20 67 -35.5t54.5 -41.5t44 -61t14.5 -80q0 -85 -51 -137.5t-136 -59.5l-11 -90h-55l-2 93q-129 20 -168 159l65 28q28 -91 108 -111l15 266q-42 20 -66.5 34.5t-54.5 40t-44 60t-14 78.5
q0 79 50 129.5t136 55.5zM376 178q0 46 -27 76t-79 57l-5 -246q111 10 111 113zM119 557q0 -42 26.5 -70.5t75.5 -54.5l3 229q-53 -5 -79 -32.5t-26 -71.5z" />
    <glyph glyph-name="percent" unicode="%" horiz-adv-x="591" 
d="M279 600v-58q0 -63 -31 -97.5t-90 -34.5t-90 34.5t-31 97.5v58q0 64 31 99.5t90 35.5t90 -35.5t31 -99.5zM100 601v-60q0 -75 58 -75t58 75v60q0 75 -58 75t-58 -75zM53 1l410 724h69l-411 -724h-68zM556 179v-59q0 -63 -31.5 -97.5t-89.5 -34.5q-59 0 -90 34.5t-31 97.5
v59q0 63 31 98.5t90 35.5q58 0 89.5 -35.5t31.5 -98.5zM377 179v-60q0 -75 58 -75t58 75v60q0 75 -58 75t-58 -75z" />
    <glyph glyph-name="ampersand" unicode="&#x26;" horiz-adv-x="614" 
d="M451 613l-59 -36q-41 88 -114 88q-42 0 -64 -22.5t-22 -63.5q0 -51 30 -90l193 -261q27 87 27 193v16h144v-67h-77q-6 -119 -44 -209q61 -74 146 -94l-12 -74q-102 16 -177 93q-71 -95 -185 -95q-97 0 -152.5 54t-55.5 159q0 72 34.5 133t95.5 101q-51 68 -51 140
q0 67 43.5 111.5t121.5 44.5q64 0 106.5 -29t71.5 -92zM246 62q79 0 131 81l-174 236q-40 -31 -62.5 -79t-22.5 -95q0 -72 33.5 -107.5t94.5 -35.5z" />
    <glyph glyph-name="quotesingle" unicode="'" horiz-adv-x="177" 
d="M49 607v118h79v-118l-21 -115h-39z" />
    <glyph glyph-name="parenleft" unicode="(" horiz-adv-x="266" 
d="M62 189v279q0 183 52.5 264.5t161.5 81.5h27v-60h-27q-67 0 -103.5 -66t-36.5 -220v-279q0 -154 36.5 -220t103.5 -66h27v-60h-27q-109 0 -161.5 82t-52.5 264z" />
    <glyph glyph-name="parenright" unicode=")" horiz-adv-x="266" 
d="M204 468v-279q0 -182 -52.5 -264t-161.5 -82h-27v61h27q67 0 103.5 66t36.5 219v279q0 154 -36.5 219.5t-103.5 65.5h-27v61h27q109 0 161.5 -81.5t52.5 -264.5z" />
    <glyph glyph-name="asterisk" unicode="*" horiz-adv-x="312" 
d="M134 694l-9 108h56l-9 -108l96 42l17 -57l-102 -24l69 -81l-45 -35l-54 92l-53 -92l-46 35l69 81l-103 24l18 57z" />
    <glyph glyph-name="plus" unicode="+" horiz-adv-x="475" 
d="M203 87v191h-151v66h151v192h65v-192h155v-66h-155v-191h-65z" />
    <glyph glyph-name="comma" unicode="," horiz-adv-x="211" 
d="M55 0v103h103v-75q0 -141 -99 -151l-5 41q27 7 36.5 24.5t10.5 57.5h-46z" />
    <glyph glyph-name="hyphen" unicode="-" horiz-adv-x="276" 
d="M27 255v75h222v-75h-222z" />
    <glyph glyph-name="period" unicode="." horiz-adv-x="210" 
d="M54 0v109h102v-109h-102z" />
    <glyph glyph-name="slash" unicode="/" horiz-adv-x="319" 
d="M-26 -85l285 830h70l-286 -830h-69z" />
    <glyph glyph-name="zero" unicode="0" horiz-adv-x="565" 
d="M509 490v-259q0 -113 -59 -177t-167 -64q-109 0 -168 64t-59 177v259q0 114 59 179.5t168 65.5q108 0 167 -65.5t59 -179.5zM145 490v-259q0 -163 138 -163q137 0 137 163v259q0 165 -137 165q-138 0 -138 -165z" />
    <glyph glyph-name="one" unicode="1" horiz-adv-x="374" 
d="M208 729h70v-729h-93v538h-149v64h68q59 0 79 23t25 104z" />
    <glyph glyph-name="two" unicode="2" horiz-adv-x="542" 
d="M279 735q102 0 155 -52.5t53 -134.5q0 -51 -16.5 -95t-44 -76t-60.5 -61t-67.5 -55.5t-63.5 -53t-50.5 -60.5t-26.5 -71h338v-76h-433l-2 47q1 47 20.5 90.5t49 77.5t65 66t71 62.5t65 60.5t47.5 66.5t18 74.5q0 53 -30.5 82.5t-93.5 29.5q-54 0 -91.5 -33.5t-51.5 -92.5
l-71 23q19 79 76 130t144 51z" />
    <glyph glyph-name="three" unicode="3" horiz-adv-x="527" 
d="M194 340v71h51q129 0 129 124q0 123 -118 123q-105 0 -144 -114l-69 24q25 77 82 122t137 45q101 0 152.5 -52.5t51.5 -138.5q0 -129 -101 -164v-2q116 -29 116 -168q0 -109 -56.5 -164.5t-164.5 -55.5q-170 0 -222 152l66 27q21 -51 61 -78t91 -27q69 0 100 37.5
t31 113.5q0 69 -35.5 97t-105.5 28h-52z" />
    <glyph glyph-name="four" unicode="4" horiz-adv-x="528" 
d="M428 0h-83v138h-334v60l331 527h86v-513h94l-8 -74h-86v-138zM112 212h233l4 397h-2l-235 -395v-2z" />
    <glyph glyph-name="five" unicode="5" horiz-adv-x="531" 
d="M121 336l-60 31l31 358h374l-6 -80h-297l-19 -224h2q64 37 142 37q205 0 205 -226q0 -118 -59 -180t-171 -62q-77 0 -133 39.5t-79 114.5l67 26q19 -52 56.5 -78.5t84.5 -26.5q74 0 108.5 41.5t34.5 125.5q0 80 -34 115.5t-109 35.5q-38 0 -76.5 -13.5t-61.5 -33.5z" />
    <glyph glyph-name="six" unicode="6" horiz-adv-x="541" 
d="M286 735q71 0 123 -37.5t74 -107.5l-63 -28q-35 96 -130 96q-71 0 -108 -46.5t-37 -129.5v-79h2q55 53 151 53q201 0 201 -217q0 -124 -58 -186.5t-164 -62.5q-102 0 -161.5 61t-59.5 176v246q0 117 61.5 189.5t168.5 72.5zM282 381q-54 0 -94.5 -22.5t-42.5 -58.5v-81
q0 -76 36.5 -113.5t97.5 -37.5q132 0 132 169q0 73 -31 108.5t-98 35.5z" />
    <glyph glyph-name="seven" unicode="7" horiz-adv-x="489" 
d="M209 0h-101l271 646h-366v79h463v-68z" />
    <glyph glyph-name="eight" unicode="8" horiz-adv-x="552" 
d="M276 -10q-115 0 -173.5 53t-58.5 166q0 139 108 176v2q-91 39 -91 157q0 90 52 140.5t163 50.5t163 -50.5t52 -140.5q0 -118 -92 -157v-2q108 -37 108 -176q0 -219 -231 -219zM417 213q0 71 -36.5 101.5t-104.5 30.5t-104.5 -30.5t-36.5 -101.5q0 -81 34 -114.5
t107 -33.5t107 33.5t34 114.5zM276 661q-69 0 -99.5 -28.5t-30.5 -94.5q0 -65 31 -94.5t99 -29.5t98.5 29.5t30.5 94.5q0 66 -30 94.5t-99 28.5z" />
    <glyph glyph-name="nine" unicode="9" horiz-adv-x="542" 
d="M113 162q23 -50 57.5 -72.5t87.5 -22.5q65 0 101.5 37t36.5 106v132h-2q-52 -52 -146 -52q-99 0 -152.5 53.5t-53.5 162.5t58.5 169t169.5 60q100 0 158 -60t58 -160v-301q0 -101 -62 -162.5t-162 -61.5q-158 0 -209 139zM262 362q50 0 92 23.5t42 61.5v73q0 66 -33 102
t-95 36q-135 0 -135 -149q0 -79 32.5 -113t96.5 -34z" />
    <glyph glyph-name="colon" unicode=":" horiz-adv-x="210" 
d="M54 373v109h102v-109h-102zM54 0v109h102v-109h-102z" />
    <glyph glyph-name="semicolon" unicode=";" horiz-adv-x="210" 
d="M54 373v109h102v-109h-102zM54 0v103h103v-75q0 -141 -99 -151l-5 41q27 7 36.5 24.5t10.5 57.5h-46z" />
    <glyph glyph-name="less" unicode="&#x3c;" horiz-adv-x="475" 
d="M395 457l-220 -142l221 -142v-87l-338 223v11l337 224v-87z" />
    <glyph glyph-name="equal" unicode="=" horiz-adv-x="475" 
d="M414 343h-353v66h353v-66zM414 197h-353v67h353v-67z" />
    <glyph glyph-name="greater" unicode="&#x3e;" horiz-adv-x="475" 
d="M79 173l220 142l-219 142v87l337 -224v-11l-338 -223v87z" />
    <glyph glyph-name="question" unicode="?" horiz-adv-x="497" 
d="M22 572q25 73 84.5 118t144.5 45q102 0 152.5 -51.5t50.5 -127.5q0 -78 -47 -141.5t-132 -101.5l-7 -103h-66l-6 145q169 71 169 195q0 47 -28 78.5t-91 31.5q-112 0 -154 -111zM184 0v109h102v-109h-102z" />
    <glyph glyph-name="at" unicode="@" horiz-adv-x="775" 
d="M562 445h-27l-20 -218q-2 -12 -2 -35q0 -62 58 -62q44 0 65.5 33t21.5 113v133q0 124 -68 193t-195 69q-129 0 -204 -77.5t-75 -199.5v-201q0 -139 76.5 -215t206.5 -76q84 0 141 22t105 68l46 -36q-110 -116 -292 -116q-165 0 -257.5 92.5t-92.5 259.5v203
q0 147 93 243.5t253 96.5q156 0 242.5 -90.5t86.5 -235.5v-132q0 -105 -42 -158.5t-114 -53.5q-81 0 -109 58q-54 -60 -135 -60q-59 0 -90.5 38t-31.5 109q0 131 68 211.5t190 80.5h105zM438 198l23 238h-16q-80 0 -122 -59t-42 -164q0 -46 15 -65.5t46 -19.5q65 0 96 70z
" />
    <glyph glyph-name="A" unicode="A" horiz-adv-x="606" 
d="M165 184l-55 -184h-99l240 725h105l239 -725h-99l-57 184h-274zM301 635l-113 -377h229l-114 377h-2z" />
    <glyph glyph-name="B" unicode="B" horiz-adv-x="579" 
d="M501 543q0 -66 -23.5 -104.5t-76.5 -55.5v-2q135 -29 135 -174q0 -103 -51.5 -155t-165.5 -52h-239v725h213q104 0 156 -48.5t52 -133.5zM174 338v-259h140q66 0 96 30.5t30 103.5q0 66 -30 95.5t-95 29.5h-141zM174 644v-231h122q62 0 89 29.5t27 90.5q0 58 -27.5 84.5
t-89.5 26.5h-121z" />
    <glyph glyph-name="C" unicode="C" 
d="M286 735q77 0 133.5 -42.5t75.5 -108.5l-70 -28q-29 99 -132 99q-68 0 -104 -43.5t-36 -123.5v-258q0 -74 36.5 -118.5t103.5 -44.5q55 0 86 24.5t47 81.5l71 -25q-38 -158 -211 -158q-104 0 -167 66t-63 174v258q0 115 61.5 181t168.5 66z" />
    <glyph glyph-name="D" unicode="D" horiz-adv-x="625" 
d="M80 725h241q118 0 183 -66t65 -182v-231q0 -114 -65.5 -180t-182.5 -66h-241v725zM473 472q0 171 -152 171h-145v-563h145q152 0 152 168v224z" />
    <glyph glyph-name="E" unicode="E" horiz-adv-x="535" 
d="M80 725h405v-83h-309v-231h245v-75h-245v-254h323v-82h-419v725z" />
    <glyph glyph-name="F" unicode="F" horiz-adv-x="524" 
d="M80 725h407v-83h-311v-240h267v-78h-267v-324h-96v725z" />
    <glyph glyph-name="G" unicode="G" horiz-adv-x="600" 
d="M307 735q85 0 146.5 -42t83.5 -112l-71 -27q-43 101 -150 101q-164 0 -164 -186v-230q0 -83 40.5 -125.5t116.5 -42.5q97 0 144 77v143h-104v66h190v-357h-79v63h-2q-62 -72 -170 -72q-109 0 -170.5 64.5t-61.5 182.5v231q0 123 64 194.5t187 71.5z" />
    <glyph glyph-name="H" unicode="H" horiz-adv-x="627" 
d="M80 725h96v-313h275v313h96v-725h-96v328h-275v-328h-96v725z" />
    <glyph glyph-name="I" unicode="I" horiz-adv-x="288" 
d="M96 725h96v-725h-96v725z" />
    <glyph glyph-name="J" unicode="J" horiz-adv-x="282" 
d="M106 725h96v-607q0 -256 -255 -259l-8 76q87 0 127 42.5t40 139.5v608z" />
    <glyph glyph-name="K" unicode="K" horiz-adv-x="591" 
d="M577 0h-112l-208 336l-82 -101v-235h-95v725h95v-384h2l266 384h113l-235 -324z" />
    <glyph glyph-name="L" unicode="L" horiz-adv-x="484" 
d="M80 725h93v-641h287v-84h-380v725z" />
    <glyph glyph-name="M" unicode="M" horiz-adv-x="787" 
d="M619 725h88v-725h-88v531h-2l-202 -396h-43l-203 398h-2v-533h-87v725h88l224 -461h2z" />
    <glyph glyph-name="N" unicode="N" horiz-adv-x="627" 
d="M80 725h75l305 -526h2v526h85v-725h-69l-311 539h-2v-539h-85v725z" />
    <glyph glyph-name="O" unicode="O" horiz-adv-x="601" 
d="M301 735q117 0 180.5 -65t63.5 -180v-253q0 -116 -63.5 -181.5t-180.5 -65.5q-118 0 -181.5 65.5t-63.5 180.5v253q0 115 63.5 180.5t181.5 65.5zM449 237v252q0 165 -148 165q-149 0 -149 -165v-253q0 -167 149 -167q148 0 148 168z" />
    <glyph glyph-name="P" unicode="P" horiz-adv-x="561" 
d="M320 725q99 0 153 -58t54 -163q0 -104 -52.5 -162t-149.5 -58h-149v-284h-96v725h240zM176 645v-285h141q59 0 86.5 35t27.5 108q0 74 -27 108t-87 34h-141z" />
    <glyph glyph-name="Q" unicode="Q" horiz-adv-x="601" 
d="M301 735q117 0 180.5 -65t63.5 -180v-253q0 -95 -43 -156.5t-124 -80.5v-2l118 -114l-84 -38l-124 144q-112 4 -172 69t-60 177v253q0 115 63.5 180.5t181.5 65.5zM449 237v252q0 165 -148 165q-149 0 -149 -165v-253q0 -167 149 -167q148 0 148 168z" />
    <glyph glyph-name="R" unicode="R" horiz-adv-x="577" 
d="M449 0l-166 311h-107v-311h-96v725h222q105 0 158 -52t53 -148q0 -167 -138 -198l182 -327h-108zM176 645v-259h122q66 0 92.5 33.5t26.5 99.5t-26.5 96t-90.5 30h-124z" />
    <glyph glyph-name="S" unicode="S" horiz-adv-x="495" 
d="M243 735q79 0 135.5 -38.5t80.5 -104.5l-67 -30q-16 45 -53.5 70t-88.5 25q-62 0 -91 -28t-29 -75q0 -38 25 -67.5t62 -47t81 -40.5t81 -46t62 -64.5t25 -96.5q0 -96 -59 -149t-159 -53q-80 0 -140.5 44t-82.5 119l74 27q17 -54 57.5 -83t90.5 -29q128 0 128 115
q0 35 -19 62t-48.5 45.5t-66 35t-73 35.5t-66 42t-48.5 60.5t-19 85.5q0 81 56.5 133.5t151.5 52.5z" />
    <glyph glyph-name="T" unicode="T" horiz-adv-x="488" 
d="M15 725h458v-84h-181v-641h-96v641h-181v84z" />
    <glyph glyph-name="U" unicode="U" horiz-adv-x="627" 
d="M462 725h96v-494q0 -114 -63.5 -177.5t-180.5 -63.5q-116 0 -180.5 62.5t-64.5 174.5v498h96v-498q0 -80 41 -116t108 -36q148 0 148 152v498z" />
    <glyph glyph-name="V" unicode="V" horiz-adv-x="594" 
d="M582 725l-236 -725h-99l-235 725h105l179 -612h2l178 612h106z" />
    <glyph glyph-name="W" unicode="W" horiz-adv-x="919" 
d="M884 725l-180 -725h-104l-139 571h-2l-141 -571h-104l-179 725h98l134 -611h2l147 611h89l144 -611h2l137 611h96z" />
    <glyph glyph-name="X" unicode="X" horiz-adv-x="584" 
d="M26 0l204 368l-199 357h107l154 -301h2l153 301h106l-199 -361l203 -364h-106l-160 308h-2l-157 -308h-106z" />
    <glyph glyph-name="Y" unicode="Y" horiz-adv-x="567" 
d="M558 725l-227 -482v-243h-96v245l-226 480h108l165 -394h2l167 394h107z" />
    <glyph glyph-name="Z" unicode="Z" horiz-adv-x="533" 
d="M488 83v-83h-450v58l337 584h-320v83h433v-56l-337 -586h337z" />
    <glyph glyph-name="bracketleft" unicode="[" horiz-adv-x="263" 
d="M74 -157v971h245v-62h-166v-847h166v-62h-245z" />
    <glyph glyph-name="backslash" unicode="\" horiz-adv-x="326" 
d="M42 745l285 -830h-69l-286 830h70z" />
    <glyph glyph-name="bracketright" unicode="]" horiz-adv-x="265" 
d="M191 814v-971h-247v63h166v846h-166v62h247z" />
    <glyph glyph-name="asciicircum" unicode="^" horiz-adv-x="455" 
d="M52 524l148 225h59l144 -225h-72l-101 163l-104 -163h-74z" />
    <glyph glyph-name="underscore" unicode="_" horiz-adv-x="418" 
d="M0 -57h418v-61h-418v61z" />
    <glyph glyph-name="grave" unicode="`" horiz-adv-x="274" 
d="M12 725h99l68 -138h-67z" />
    <glyph glyph-name="a" unicode="a" horiz-adv-x="461" 
d="M109 372l-53 32q64 111 174 111q82 0 121.5 -47t39.5 -126v-248q0 -43 40 -43h14v-50q-21 -7 -43 -7q-60 0 -85 49q-54 -51 -135 -51q-66 0 -104 36.5t-38 98.5q0 163 224 163h42v53q0 105 -87 105q-67 0 -110 -76zM200 53q63 0 106 49v128h-42q-77 0 -109 -25t-32 -72
q0 -80 77 -80z" />
    <glyph glyph-name="b" unicode="b" horiz-adv-x="505" 
d="M291 -8q-87 0 -139 58h-2l-4 -50h-76v748h86v-291h2q51 57 139 57q78 0 120 -50t42 -137v-149q0 -86 -43.5 -136t-124.5 -50zM156 385v-266q39 -58 114 -58q103 0 103 117v148q0 116 -102 116q-75 0 -115 -57z" />
    <glyph glyph-name="c" unicode="c" horiz-adv-x="428" 
d="M404 400l-60 -26q-29 71 -105 71q-52 0 -79.5 -29.5t-27.5 -85.5v-155q0 -56 28 -86t79 -30q76 0 106 76l62 -23q-46 -121 -175 -121q-88 0 -137 51t-49 130v161q0 80 49 130.5t137 50.5q60 0 104.5 -30t67.5 -84z" />
    <glyph glyph-name="d" unicode="d" horiz-adv-x="506" 
d="M214 513q83 0 133 -53h2v288h86v-748h-76l-4 52h-2q-53 -61 -144 -61q-78 0 -120.5 50t-42.5 136v150q0 86 43.5 136t124.5 50zM349 118v268q-40 56 -113 56q-104 0 -104 -117v-148q0 -116 102 -116q75 0 115 57z" />
    <glyph glyph-name="e" unicode="e" horiz-adv-x="456" 
d="M417 248h-285v-72q0 -56 29 -87t83 -31q41 0 67 19.5t45 64.5l62 -23q-44 -128 -182 -128q-90 0 -140 50t-50 132v161q0 79 49.5 129.5t137.5 50.5q85 0 134.5 -51.5t49.5 -131.5v-83zM132 338v-36h209v38q0 51 -28 80t-77 29q-52 0 -78 -29.5t-26 -81.5z" />
    <glyph glyph-name="f" unicode="f" horiz-adv-x="317" 
d="M299 505v-63h-128v-442h-86v442h-64v63h64v39q0 81 48.5 131.5t154.5 54.5l5 -61q-125 -5 -125 -126v-38h131z" />
    <glyph glyph-name="g" unicode="g" horiz-adv-x="489" 
d="M246 180q-54 0 -89 13q-40 -17 -40 -48q0 -41 63 -41h119q164 0 164 -123q0 -76 -56.5 -117t-160.5 -41q-188 0 -188 124q0 60 45 97q-58 24 -58 85q0 58 68 89q-45 41 -45 128q0 86 43 127t135 41q70 0 114 -24q47 28 63 70l43 -17q-14 -62 -60 -100q21 -39 21 -97
q0 -85 -44 -125.5t-137 -40.5zM150 345q0 -60 20.5 -82t75.5 -22q57 0 77.5 22t20.5 82t-22 83t-76 23t-75 -23t-21 -83zM294 33h-122q-42 -23 -42 -77q0 -72 119 -72q79 0 108.5 22.5t29.5 63.5q0 34 -20 48.5t-73 14.5z" />
    <glyph glyph-name="h" unicode="h" horiz-adv-x="514" 
d="M156 384v-384h-86v748h86v-292h2q49 58 138 58q79 0 121 -50t42 -136v-328h-86v326q0 116 -102 116q-37 0 -67.5 -16.5t-47.5 -41.5z" />
    <glyph glyph-name="i" unicode="i" horiz-adv-x="235" 
d="M74 505h86v-505h-86v505zM77 725h82v-107h-82v107z" />
    <glyph glyph-name="j" unicode="j" horiz-adv-x="251" 
d="M92 725h82v-107h-82v107zM-3 -169l-8 67q101 12 101 131v476h86v-476q0 -186 -179 -198z" />
    <glyph glyph-name="k" unicode="k" horiz-adv-x="497" 
d="M70 748h86v-504h2l209 261h96l-176 -218l197 -287h-100l-156 233l-72 -78v-155h-86v748z" />
    <glyph glyph-name="l" unicode="l" horiz-adv-x="241" 
d="M78 748h85v-748h-85v748z" />
    <glyph glyph-name="m" unicode="m" horiz-adv-x="749" 
d="M423 328v-328h-86v327q0 115 -86 115q-32 0 -58.5 -19.5t-40.5 -51.5v-371h-86v505h76v-59h2q47 68 130 68q91 0 124 -80h2q45 80 139 80q75 0 115 -47t40 -139v-328h-86v327q0 115 -90 115q-43 0 -69 -28.5t-26 -85.5z" />
    <glyph glyph-name="n" unicode="n" horiz-adv-x="510" 
d="M152 384v-384h-86v505h76l3 -53h2q54 62 144 62q79 0 121.5 -50t42.5 -136v-328h-86v326q0 116 -102 116q-75 0 -115 -58z" />
    <glyph glyph-name="o" unicode="o" horiz-adv-x="482" 
d="M436 333v-163q0 -80 -51 -129.5t-144 -49.5t-144 49.5t-51 129.5v163q0 81 51 131t144 50t144 -50t51 -131zM132 330v-157q0 -55 27.5 -85t81.5 -30q55 0 82.5 30t27.5 85v157q0 55 -27.5 86t-82.5 31q-109 0 -109 -117z" />
    <glyph glyph-name="p" unicode="p" horiz-adv-x="501" 
d="M287 -8q-84 0 -133 52h-2v-213h-86v674h76l3 -53h2q53 62 145 62q79 0 121 -50t42 -137v-149q0 -86 -43.5 -136t-124.5 -50zM152 385v-268q40 -56 113 -56q104 0 104 117v148q0 116 -102 116q-75 0 -115 -57z" />
    <glyph glyph-name="q" unicode="q" horiz-adv-x="501" 
d="M218 514q90 0 140 -66h2l5 57h70v-674h-86v219h-2q-52 -60 -137 -60q-77 0 -120.5 49t-43.5 131v165q0 83 46 131t126 48zM349 134v248q-42 61 -110 61q-50 0 -78.5 -29.5t-28.5 -84.5v-155q0 -53 26.5 -83.5t78.5 -30.5q38 0 67.5 20.5t44.5 53.5z" />
    <glyph glyph-name="r" unicode="r" horiz-adv-x="351" 
d="M336 500l-11 -78q-23 12 -51 12q-54 0 -85 -39.5t-37 -107.5v-287h-86v505h74l4 -92h2q41 101 130 101q35 0 60 -14z" />
    <glyph glyph-name="s" unicode="s" horiz-adv-x="416" 
d="M377 407l-57 -24q-30 68 -105 68q-43 0 -64.5 -19t-21.5 -51q0 -30 26 -50t63.5 -33.5t74.5 -29.5t63 -48t26 -80q0 -65 -46.5 -107t-119.5 -42q-127 0 -176 111l56 28q34 -77 117 -77q43 0 65.5 21t22.5 59q0 31 -26 52t-63.5 34t-75 29t-63.5 47.5t-26 78.5
q0 60 43.5 100t122.5 40q59 0 101.5 -28t62.5 -79z" />
    <glyph glyph-name="t" unicode="t" horiz-adv-x="332" 
d="M298 505v-66h-125v-303q0 -77 68 -77q25 0 46 9l10 -53q-39 -22 -86 -22q-125 0 -125 146v296l-66 14v54l70 4l22 143h61v-145h125z" />
    <glyph glyph-name="u" unicode="u" horiz-adv-x="510" 
d="M358 119v386h86v-505h-76l-4 51h-2q-54 -60 -144 -60q-78 0 -120.5 50t-42.5 136v328h86v-328q0 -56 26 -86t76 -30q75 0 115 58z" />
    <glyph glyph-name="v" unicode="v" horiz-adv-x="493" 
d="M477 505l-183 -505h-96l-182 505h98l131 -426h2l132 426h98z" />
    <glyph glyph-name="w" unicode="w" horiz-adv-x="719" 
d="M464 0l-103 410h-2l-104 -410h-95l-141 505h91l99 -421h2l107 421h84l106 -424h2l100 424h90l-142 -505h-94z" />
    <glyph glyph-name="x" unicode="x" horiz-adv-x="486" 
d="M21 0l162 261l-154 244h99l118 -200l115 200h98l-156 -249l162 -256h-98l-126 212l-122 -212h-98z" />
    <glyph glyph-name="y" unicode="y" horiz-adv-x="505" 
d="M485 505l-193 -528q-27 -72 -69.5 -107t-112.5 -39l-7 62q45 6 71 27.5t41 66.5l8 24l-203 494h96l149 -401h2l129 401h89z" />
    <glyph glyph-name="z" unicode="z" horiz-adv-x="430" 
d="M389 69v-69h-349v53l248 381v2h-237v69h341v-51l-250 -383v-2h247z" />
    <glyph glyph-name="braceleft" unicode="{" horiz-adv-x="269" 
d="M28 302v54q40 3 63 20t23 47q0 20 -18.5 93t-18.5 126q0 85 57.5 128.5t162.5 43.5h28v-54h-28q-68 0 -104.5 -33t-36.5 -96q0 -47 18 -117.5t18 -94.5q0 -69 -74 -89v-2q74 -20 74 -90q0 -23 -18 -92.5t-18 -116.5q0 -63 36.5 -97t104.5 -34h28v-54h-28
q-105 0 -162.5 44t-57.5 129q0 54 18.5 126t18.5 91q0 29 -23 46.5t-63 21.5z" />
    <glyph glyph-name="bar" unicode="|" horiz-adv-x="270" 
d="M95 -157v971h81v-971h-81z" />
    <glyph glyph-name="braceright" unicode="}" horiz-adv-x="269" 
d="M242 356v-54q-87 -8 -87 -68q0 -19 18.5 -91t18.5 -126q0 -85 -57.5 -129t-162.5 -44h-28v55h28q69 0 105 33.5t36 96.5q0 47 -17.5 116.5t-17.5 92.5q0 70 73 90v2q-73 20 -73 89q0 24 17.5 94.5t17.5 117.5q0 63 -36 95.5t-105 32.5h-28v55h28q105 0 162.5 -43.5
t57.5 -128.5q0 -53 -18.5 -126t-18.5 -93q0 -60 87 -67z" />
    <glyph glyph-name="asciitilde" unicode="~" horiz-adv-x="506" 
d="M118 605l-66 1q13 141 120 141q30 0 55.5 -13.5t39.5 -29.5t32 -29.5t36 -13.5q24 0 36.5 17t16.5 58h66q-13 -142 -120 -142q-30 0 -55.5 13.5t-39.5 29.5t-32 29.5t-36 13.5q-24 0 -36.5 -17t-16.5 -58z" />
    <glyph glyph-name="uni00A0" unicode="&#xa0;" horiz-adv-x="233" 
 />
    <glyph glyph-name="exclamdown" unicode="&#xa1;" horiz-adv-x="235" 
d="M161 -101h-87v296l9 219h69l9 -216v-299zM168 624v-109h-103v109h103z" />
    <glyph glyph-name="cent" unicode="&#xa2;" horiz-adv-x="428" 
d="M404 400l-60 -26q-30 70 -105 70q-107 0 -107 -117v-148q0 -59 27.5 -90t79.5 -31q76 0 106 77l62 -23q-39 -103 -139 -118l-11 -93h-55l-2 92q-74 9 -114 59t-40 124v154q0 75 40.5 124t115.5 58l14 112h55l2 -114q91 -18 131 -110z" />
    <glyph glyph-name="sterling" unicode="&#xa3;" horiz-adv-x="563" 
d="M48 328l-10 64h71q-13 76 -13 120q0 104 53.5 164t151.5 60q76 0 130.5 -41t72.5 -108l-67 -27q-32 97 -131 97q-123 0 -123 -153q0 -37 10 -112h235l-9 -64h-217q14 -113 15 -121q23 -8 44.5 -25t38.5 -35t33.5 -35.5t35.5 -28.5t39 -11q33 0 50.5 27t28.5 93l66 -17
q-13 -97 -48 -141t-93 -44q-44 0 -78.5 24.5t-69 68t-47.5 54.5h-2q-14 -147 -117 -147q-40 0 -63 25t-23 68q0 54 34 89t95 41l-22 115h-71zM105 53q22 0 32 23.5t11 82.5q-69 -6 -69 -71q0 -35 26 -35z" />
    <glyph glyph-name="currency" unicode="&#xa4;" horiz-adv-x="397" 
d="M80 378q0 37 19 67l-45 48l34 38l46 -49q28 20 64 20t64 -20l48 51l35 -38l-47 -50q19 -32 19 -67q0 -37 -19 -69l46 -48l-35 -38l-47 49q-29 -20 -64 -20t-63 20l-47 -51l-35 37l46 51q-19 32 -19 69zM135 377q0 -29 18.5 -48.5t45.5 -19.5t45.5 19.5t18.5 48.5
q0 30 -18.5 49t-45.5 19t-45.5 -19t-18.5 -49z" />
    <glyph glyph-name="yen" unicode="&#xa5;" horiz-adv-x="599" 
d="M485 161h-132v-161h-96v161h-143v62h143v47h-143v62h125l-202 393h108l159 -353h2l159 353h108l-202 -393h114v-62h-132v-47h132v-62z" />
    <glyph glyph-name="brokenbar" unicode="&#xa6;" horiz-adv-x="270" 
d="M95 399v415h81v-415h-81zM95 -157v416h81v-416h-81z" />
    <glyph glyph-name="section" unicode="&#xa7;" horiz-adv-x="446" 
d="M61 -42l65 18q26 -71 101 -71q86 0 86 79q0 33 -28 62.5t-67.5 54.5t-79.5 52.5t-68 69t-28 91.5q0 96 91 139q-71 61 -71 132q0 64 42 107.5t123 43.5q65 0 109 -33t61 -92l-66 -18q-26 71 -100 71q-45 0 -65.5 -22t-20.5 -56q0 -33 28 -63t67.5 -55t79 -52.5t67.5 -69
t28 -91.5q0 -98 -90 -139q71 -64 71 -132q0 -64 -42 -107t-123 -43q-65 0 -109 32.5t-61 91.5zM340 247q0 14 -3.5 27.5t-14.5 27t-17.5 22t-26 23.5t-26.5 20.5t-32.5 22t-30.5 20.5q-71 -26 -71 -88q0 -14 3.5 -27.5t14.5 -27t17.5 -22t26 -23.5t26.5 -20.5t32.5 -22
t30.5 -20.5q71 26 71 88z" />
    <glyph glyph-name="dieresis" unicode="&#xa8;" horiz-adv-x="274" 
d="M32 725h67v-108h-67v108zM175 725h67v-108h-67v108z" />
    <glyph glyph-name="copyright" unicode="&#xa9;" horiz-adv-x="714" 
d="M359 617q65 0 110.5 -34.5t60.5 -89.5l-58 -20q-23 83 -106 83q-56 0 -84.5 -34t-28.5 -96v-132q0 -59 29 -93.5t83 -34.5q45 0 70 19.5t38 68.5l59 -18q-30 -131 -173 -131q-85 0 -136 52t-51 136v133q0 88 50 139.5t137 51.5zM662 424v-126q0 -135 -82 -223.5
t-223 -88.5t-222.5 88.5t-81.5 223.5v126q0 135 81.5 223t222.5 88t223 -88t82 -223zM604 299v124q0 115 -65.5 186.5t-181.5 71.5q-115 0 -181 -72t-66 -186v-124q0 -114 66 -186t181 -72q116 0 181.5 71.5t65.5 186.5z" />
    <glyph glyph-name="ordfeminine" unicode="&#xaa;" horiz-adv-x="305" 
d="M72 656l-41 21q15 34 45.5 53.5t69.5 19.5q55 0 81.5 -29t26.5 -76v-144q0 -22 20 -22h13v-41h-34q-36 0 -51 29q-36 -32 -91 -32q-44 0 -69 22.5t-25 59.5q0 99 148 99h29v29q0 57 -56 57q-46 0 -66 -46zM126 479q42 0 68 29v64h-29q-89 0 -89 -52q0 -41 50 -41z" />
    <glyph glyph-name="guillemotleft" unicode="&#xab;" horiz-adv-x="414" 
d="M390 437l-126 -179l126 -178h-76l-125 178l125 179h76zM225 437l-126 -179l126 -178h-76l-125 178l125 179h76z" />
    <glyph glyph-name="logicalnot" unicode="&#xac;" horiz-adv-x="475" 
d="M357 127v151h-305v66h371v-217h-66z" />
    <glyph glyph-name="uni00AD" unicode="&#xad;" horiz-adv-x="276" 
d="M27 255v75h222v-75h-222z" />
    <glyph glyph-name="registered" unicode="&#xae;" horiz-adv-x="274" 
d="M255 667v-54q0 -50 -30.5 -83t-87.5 -33t-87.5 33t-30.5 83v54q0 50 30.5 82.5t87.5 32.5t87.5 -32.5t30.5 -82.5zM46 668v-55q0 -90 90 -90q93 0 93 90v55q0 88 -93 88q-90 0 -90 -88zM171 561l-34 64h-23v-64h-35v164h62q61 0 61 -48q0 -37 -32 -46l40 -70h-39z
M114 698v-48h27q25 0 25 25q0 23 -25 23h-27z" />
    <glyph glyph-name="macron" unicode="&#xaf;" horiz-adv-x="274" 
d="M259 683v-58h-244v58h244z" />
    <glyph glyph-name="degree" unicode="&#xb0;" horiz-adv-x="259" 
d="M23 675q0 46 31.5 78.5t75.5 32.5t75.5 -32.5t31.5 -78.5t-31.5 -78t-75.5 -32t-75.5 32t-31.5 78zM73 675q0 -27 16.5 -44.5t40.5 -17.5t41 17.5t17 44.5t-17 44.5t-41 17.5t-40.5 -17.5t-16.5 -44.5z" />
    <glyph glyph-name="plusminus" unicode="&#xb1;" horiz-adv-x="475" 
d="M203 140v162h-151v67h151v167h65v-167h155v-67h-155v-162h-65zM423 40h-371v67h371v-67z" />
    <glyph glyph-name="twosuperior" unicode="&#xb2;" horiz-adv-x="277" 
d="M141 802q51 0 77 -25t26 -62q0 -36 -21.5 -65t-48.5 -45t-51.5 -37.5t-28.5 -43.5h152v-45h-213l-1 26q1 34 25.5 65t53 49.5t52 44t23.5 49.5q0 43 -49 43q-47 0 -62 -53l-45 15q11 37 39.5 60.5t71.5 23.5z" />
    <glyph glyph-name="threesuperior" unicode="&#xb3;" horiz-adv-x="277" 
d="M103 622v42h25q52 0 52 46t-47 46q-46 0 -61 -45l-43 16q12 35 40.5 55t68.5 20q51 0 76.5 -24t25.5 -61q0 -55 -46 -71v-2q53 -14 53 -72q0 -47 -29 -72t-81 -25q-85 0 -110 70l42 17q18 -43 64 -43q53 0 53 56q0 26 -14 36.5t-43 10.5h-26z" />
    <glyph glyph-name="acute" unicode="&#xb4;" horiz-adv-x="274" 
d="M128 725h99l-92 -138h-66z" />
    <glyph glyph-name="mu" unicode="&#xb5;" horiz-adv-x="520" 
d="M66 182v323h86v-323q0 -56 27 -86t78 -30q72 0 112 58v381h86v-505h-77l-4 52h-2q-42 -53 -112 -53q-78 0 -113 59h-2q7 -128 18 -223l-87 -6q-10 190 -10 353z" />
    <glyph glyph-name="paragraph" unicode="&#xb6;" horiz-adv-x="604" 
d="M169 748h438v-78h-111v-833h-83v833h-162v-833h-82v618q-76 0 -115.5 39t-39.5 107q0 64 40 105.5t115 41.5z" />
    <glyph glyph-name="periodcentered" unicode="&#xb7;" horiz-adv-x="236" 
d="M57 318q0 27 17.5 46.5t42.5 19.5t43.5 -19.5t18.5 -46.5t-18 -46t-44 -19q-25 0 -42.5 19t-17.5 46z" />
    <glyph glyph-name="cedilla" unicode="&#xb8;" horiz-adv-x="274" 
d="M99 19l49 -3l-8 -47q80 -10 80 -61q0 -33 -31.5 -54.5t-89.5 -25.5l-13 41q37 7 51 14.5t14 20.5q0 24 -70 28z" />
    <glyph glyph-name="onesuperior" unicode="&#xb9;" horiz-adv-x="217" 
d="M114 800h47v-321h-60v224h-68v39h28q29 0 39 10.5t14 47.5z" />
    <glyph glyph-name="ordmasculine" unicode="&#xba;" horiz-adv-x="290" 
d="M273 637v-90q0 -48 -34 -80.5t-95 -32.5q-60 0 -93.5 32.5t-33.5 80.5v90q0 48 33.5 80.5t93.5 32.5q62 0 95.5 -32.5t33.5 -80.5zM77 632v-81q0 -35 18 -54t49 -19q32 0 50.5 19t18.5 54v81q0 35 -18.5 53t-50.5 18q-31 0 -49 -18t-18 -53z" />
    <glyph glyph-name="guillemotright" unicode="&#xbb;" horiz-adv-x="414" 
d="M188 80l127 178l-127 179h77l125 -179l-125 -178h-77zM23 80l127 178l-127 179h77l125 -179l-125 -178h-77z" />
    <glyph glyph-name="onequarter" unicode="&#xbc;" horiz-adv-x="582" 
d="M152 727h47v-321h-60v224h-68v39h28q29 0 39 10.5t14 47.5zM121 0h-61l393 725h61zM515 0h-51v59h-156v38l152 222h55v-216h41l-5 -44h-36v-59zM369 103h95l4 154h-2l-97 -152v-2z" />
    <glyph glyph-name="onehalf" unicode="&#xbd;" horiz-adv-x="582" 
d="M152 727h47v-321h-60v224h-68v39h28q29 0 39 10.5t14 47.5zM121 0h-61l393 725h61zM447 323q51 0 77 -25t26 -62q0 -36 -21.5 -65t-48.5 -45t-51.5 -37.5t-28.5 -43.5h152v-45h-213l-1 26q1 34 25.5 65t53 49.5t52 44t23.5 49.5q0 43 -49 43q-47 0 -62 -53l-45 15
q11 37 39.5 60.5t71.5 23.5z" />
    <glyph glyph-name="threequarters" unicode="&#xbe;" horiz-adv-x="582" 
d="M99 549v42h25q52 0 52 46t-47 46q-46 0 -61 -45l-43 16q12 35 40.5 55t68.5 20q51 0 76.5 -24t25.5 -61q0 -55 -46 -71v-2q53 -14 53 -72q0 -47 -29 -72t-81 -25q-85 0 -110 70l42 17q18 -43 64 -43q53 0 53 56q0 26 -14 36.5t-43 10.5h-26zM121 0h-61l393 725h61zM504 0
h-51v59h-156v38l152 222h55v-216h41l-5 -44h-36v-59zM358 103h95l4 154h-2l-97 -152v-2z" />
    <glyph glyph-name="questiondown" unicode="&#xbf;" horiz-adv-x="497" 
d="M475 52q-25 -73 -84.5 -118t-144.5 -45q-102 0 -152.5 52t-50.5 127q0 78 46.5 142t131.5 101l8 104h66l6 -146q-169 -71 -169 -194q0 -48 28 -79.5t90 -31.5q113 0 155 111zM313 624v-109h-103v109h103z" />
    <glyph glyph-name="Agrave" unicode="&#xc0;" horiz-adv-x="606" 
d="M165 184l-55 -184h-99l240 725h105l239 -725h-99l-57 184h-274zM301 635l-113 -377h229l-114 377h-2zM160 872h111l69 -113h-77z" />
    <glyph glyph-name="Aacute" unicode="&#xc1;" horiz-adv-x="606" 
d="M165 184l-55 -184h-99l240 725h105l239 -725h-99l-57 184h-274zM301 635l-113 -377h229l-114 377h-2zM327 872h109l-96 -113h-75z" />
    <glyph glyph-name="Acircumflex" unicode="&#xc2;" horiz-adv-x="606" 
d="M165 184l-55 -184h-99l240 725h105l239 -725h-99l-57 184h-274zM301 635l-113 -377h229l-114 377h-2zM251 759h-76l91 113h71l92 -113h-76l-51 66z" />
    <glyph glyph-name="Atilde" unicode="&#xc3;" horiz-adv-x="606" 
d="M165 184l-55 -184h-99l240 725h105l239 -725h-99l-57 184h-274zM301 635l-113 -377h229l-114 377h-2zM401 873l46 -7q-9 -57 -28 -85t-56 -28q-24 0 -45.5 17t-38.5 34t-29 17q-27 0 -38 -63l-46 7q9 58 28 86t56 28q24 0 45.5 -17.5t38.5 -34.5t29 -17q27 0 38 63z" />
    <glyph glyph-name="Adieresis" unicode="&#xc4;" horiz-adv-x="606" 
d="M165 184l-55 -184h-99l240 725h105l239 -725h-99l-57 184h-274zM301 635l-113 -377h229l-114 377h-2zM182 872h69v-102h-69v102zM353 872h69v-102h-69v102z" />
    <glyph glyph-name="Aring" unicode="&#xc5;" horiz-adv-x="606" 
d="M165 184l-55 -184h-99l240 725h105l239 -725h-99l-57 184h-274zM301 635l-113 -377h229l-114 377h-2zM215 822q0 33 24.5 54.5t62.5 21.5t62.5 -21.5t24.5 -54.5t-24.5 -54t-62.5 -21t-62.5 21t-24.5 54zM266 822q0 -16 10 -26.5t26 -10.5t26 10.5t10 26.5t-10 27t-26 11
t-26 -11t-10 -27z" />
    <glyph glyph-name="AE" unicode="&#xc6;" horiz-adv-x="857" 
d="M199 187l-87 -187h-99l347 725h450v-83h-311l23 -231h245v-75h-238l24 -254h268v-82h-357l-17 187h-248zM405 633l-172 -372h207l-33 372h-2z" />
    <glyph glyph-name="Ccedilla" unicode="&#xc7;" 
d="M286 735q77 0 133.5 -42.5t75.5 -108.5l-70 -28q-29 99 -132 99q-68 0 -104 -43.5t-36 -123.5v-258q0 -74 36.5 -118.5t103.5 -44.5q55 0 86 24.5t47 81.5l71 -25q-36 -149 -194 -157l-4 -22q80 -10 80 -61q0 -33 -31.5 -54.5t-89.5 -25.5l-13 41q37 7 51 14.5t14 20.5
q0 24 -70 28l12 60q-90 10 -143 75t-53 163v258q0 115 61.5 181t168.5 66z" />
    <glyph glyph-name="Egrave" unicode="&#xc8;" horiz-adv-x="535" 
d="M80 725h405v-83h-309v-231h245v-75h-245v-254h323v-82h-419v725zM159 872h111l69 -113h-77z" />
    <glyph glyph-name="Eacute" unicode="&#xc9;" horiz-adv-x="535" 
d="M80 725h405v-83h-309v-231h245v-75h-245v-254h323v-82h-419v725zM292 872h109l-96 -113h-75z" />
    <glyph glyph-name="Ecircumflex" unicode="&#xca;" horiz-adv-x="535" 
d="M80 725h405v-83h-309v-231h245v-75h-245v-254h323v-82h-419v725zM239 759h-76l91 113h71l92 -113h-76l-51 66z" />
    <glyph glyph-name="Edieresis" unicode="&#xcb;" horiz-adv-x="535" 
d="M80 725h405v-83h-309v-231h245v-75h-245v-254h323v-82h-419v725zM167 872h69v-102h-69v102zM338 872h69v-102h-69v102z" />
    <glyph glyph-name="Igrave" unicode="&#xcc;" horiz-adv-x="288" 
d="M96 725h96v-725h-96v725zM10 872h111l69 -113h-77z" />
    <glyph glyph-name="Iacute" unicode="&#xcd;" horiz-adv-x="288" 
d="M96 725h96v-725h-96v725zM162 872h109l-96 -113h-75z" />
    <glyph glyph-name="Icircumflex" unicode="&#xce;" horiz-adv-x="288" 
d="M96 725h96v-725h-96v725zM94 759h-76l91 113h71l92 -113h-76l-51 66z" />
    <glyph glyph-name="Idieresis" unicode="&#xcf;" horiz-adv-x="288" 
d="M96 725h96v-725h-96v725zM25 872h69v-102h-69v102zM196 872h69v-102h-69v102z" />
    <glyph glyph-name="Eth" unicode="&#xd0;" horiz-adv-x="637" 
d="M92 725h241q118 0 183 -66t65 -182v-231q0 -114 -65.5 -180t-182.5 -66h-241v344h-74v56h74v325zM485 472q0 171 -152 171h-145v-243h81v-56h-81v-264h145q152 0 152 168v224z" />
    <glyph glyph-name="Ntilde" unicode="&#xd1;" horiz-adv-x="627" 
d="M80 725h75l305 -526h2v526h85v-725h-69l-311 539h-2v-539h-85v725zM414 873l46 -7q-9 -57 -28 -85t-56 -28q-30 0 -65 34t-48 34q-27 0 -38 -63l-46 7q9 58 28 86t56 28q24 0 45.5 -17.5t38.5 -34.5t29 -17q27 0 38 63z" />
    <glyph glyph-name="Ograve" unicode="&#xd2;" horiz-adv-x="601" 
d="M301 735q117 0 180.5 -65t63.5 -180v-253q0 -116 -63.5 -181.5t-180.5 -65.5q-118 0 -181.5 65.5t-63.5 180.5v253q0 115 63.5 180.5t181.5 65.5zM449 237v252q0 165 -148 165q-149 0 -149 -165v-253q0 -167 149 -167q148 0 148 168zM172 872h111l69 -113h-77z" />
    <glyph glyph-name="Oacute" unicode="&#xd3;" horiz-adv-x="601" 
d="M301 735q117 0 180.5 -65t63.5 -180v-253q0 -116 -63.5 -181.5t-180.5 -65.5q-118 0 -181.5 65.5t-63.5 180.5v253q0 115 63.5 180.5t181.5 65.5zM449 237v252q0 165 -148 165q-149 0 -149 -165v-253q0 -167 149 -167q148 0 148 168zM311 872h109l-96 -113h-75z" />
    <glyph glyph-name="Ocircumflex" unicode="&#xd4;" horiz-adv-x="601" 
d="M301 735q117 0 180.5 -65t63.5 -180v-253q0 -116 -63.5 -181.5t-180.5 -65.5q-118 0 -181.5 65.5t-63.5 180.5v253q0 115 63.5 180.5t181.5 65.5zM449 237v252q0 165 -148 165q-149 0 -149 -165v-253q0 -167 149 -167q148 0 148 168zM250 759h-76l91 113h71l92 -113h-76
l-51 66z" />
    <glyph glyph-name="Otilde" unicode="&#xd5;" horiz-adv-x="601" 
d="M301 735q117 0 180.5 -65t63.5 -180v-253q0 -116 -63.5 -181.5t-180.5 -65.5q-118 0 -181.5 65.5t-63.5 180.5v253q0 115 63.5 180.5t181.5 65.5zM449 237v252q0 165 -148 165q-149 0 -149 -165v-253q0 -167 149 -167q148 0 148 168zM396 873l46 -7q-9 -57 -28 -85
t-56 -28q-30 0 -65 34t-48 34q-27 0 -38 -63l-46 7q9 58 28 86t56 28q24 0 45.5 -17.5t38.5 -34.5t29 -17q27 0 38 63z" />
    <glyph glyph-name="Odieresis" unicode="&#xd6;" horiz-adv-x="601" 
d="M301 735q117 0 180.5 -65t63.5 -180v-253q0 -116 -63.5 -181.5t-180.5 -65.5q-118 0 -181.5 65.5t-63.5 180.5v253q0 115 63.5 180.5t181.5 65.5zM449 237v252q0 165 -148 165q-149 0 -149 -165v-253q0 -167 149 -167q148 0 148 168zM181 872h69v-102h-69v102zM352 872
h69v-102h-69v102z" />
    <glyph glyph-name="multiply" unicode="&#xd7;" horiz-adv-x="475" 
d="M357 136l-120 128l-120 -128l-45 47l120 128l-120 129l45 47l120 -128l120 128l45 -47l-121 -129l121 -128z" />
    <glyph glyph-name="Oslash" unicode="&#xd8;" horiz-adv-x="601" 
d="M301 735q120 0 184 -69l42 60l34 -28l-49 -70q33 -56 33 -138v-253q0 -116 -63.5 -181.5t-180.5 -65.5q-119 0 -184 68l-39 -57l-34 28l45 66q-33 57 -33 141v253q0 115 63.5 180.5t181.5 65.5zM152 236q0 -18 2 -46h2l274 396q-35 68 -129 68q-149 0 -149 -165v-253z
M449 237v252q0 15 -2 43h-2l-274 -396q34 -67 130 -67q148 0 148 168z" />
    <glyph glyph-name="Ugrave" unicode="&#xd9;" horiz-adv-x="627" 
d="M462 725h96v-494q0 -114 -63.5 -177.5t-180.5 -63.5q-116 0 -180.5 62.5t-64.5 174.5v498h96v-498q0 -80 41 -116t108 -36q148 0 148 152v498zM196 872h111l69 -113h-77z" />
    <glyph glyph-name="Uacute" unicode="&#xda;" horiz-adv-x="627" 
d="M462 725h96v-494q0 -114 -63.5 -177.5t-180.5 -63.5q-116 0 -180.5 62.5t-64.5 174.5v498h96v-498q0 -80 41 -116t108 -36q148 0 148 152v498zM322 872h109l-96 -113h-75z" />
    <glyph glyph-name="Ucircumflex" unicode="&#xdb;" horiz-adv-x="627" 
d="M462 725h96v-494q0 -114 -63.5 -177.5t-180.5 -63.5q-116 0 -180.5 62.5t-64.5 174.5v498h96v-498q0 -80 41 -116t108 -36q148 0 148 152v498zM263 759h-76l91 113h71l92 -113h-76l-51 66z" />
    <glyph glyph-name="Udieresis" unicode="&#xdc;" horiz-adv-x="627" 
d="M462 725h96v-494q0 -114 -63.5 -177.5t-180.5 -63.5q-116 0 -180.5 62.5t-64.5 174.5v498h96v-498q0 -80 41 -116t108 -36q148 0 148 152v498zM194 872h69v-102h-69v102zM365 872h69v-102h-69v102z" />
    <glyph glyph-name="Yacute" unicode="&#xdd;" horiz-adv-x="567" 
d="M558 725l-227 -482v-243h-96v245l-226 480h108l165 -394h2l167 394h107zM296 872h109l-96 -113h-75z" />
    <glyph glyph-name="Thorn" unicode="&#xde;" horiz-adv-x="561" 
d="M320 596q99 0 153 -58t54 -163q0 -104 -52.5 -162t-149.5 -58h-149v-155h-96v725h96v-129h144zM176 515v-285h141q60 0 87 35t27 109t-27 107.5t-87 33.5h-141z" />
    <glyph glyph-name="germandbls" unicode="&#xdf;" horiz-adv-x="510" 
d="M248 402q0 88 87 123q4 24 4 38q0 34 -19.5 55t-54.5 21q-107 0 -107 -173v-466h-88v466q0 118 50 181.5t142 63.5q69 0 110.5 -44.5t41.5 -111.5q0 -42 -12 -78q-68 -14 -68 -69q0 -22 16 -42.5t38.5 -39t45 -40t38.5 -55.5t16 -76q0 -78 -46 -121.5t-127 -43.5
q-84 0 -133 42l20 62q38 -33 100 -33q99 0 99 96q0 30 -16 55t-38.5 44t-44.5 38t-38 46.5t-16 61.5z" />
    <glyph glyph-name="agrave" unicode="&#xe0;" horiz-adv-x="461" 
d="M109 372l-53 32q64 111 174 111q82 0 121.5 -47t39.5 -126v-248q0 -43 40 -43h14v-50q-21 -7 -43 -7q-60 0 -85 49q-54 -51 -135 -51q-66 0 -104 36.5t-38 98.5q0 163 224 163h42v53q0 105 -87 105q-67 0 -110 -76zM200 53q63 0 106 49v128h-42q-77 0 -109 -25t-32 -72
q0 -80 77 -80zM124 725h99l68 -138h-67z" />
    <glyph glyph-name="aacute" unicode="&#xe1;" horiz-adv-x="461" 
d="M109 372l-53 32q64 111 174 111q82 0 121.5 -47t39.5 -126v-248q0 -43 40 -43h14v-50q-21 -7 -43 -7q-60 0 -85 49q-54 -51 -135 -51q-66 0 -104 36.5t-38 98.5q0 163 224 163h42v53q0 105 -87 105q-67 0 -110 -76zM200 53q63 0 106 49v128h-42q-77 0 -109 -25t-32 -72
q0 -80 77 -80zM241 725h99l-92 -138h-66z" />
    <glyph glyph-name="acircumflex" unicode="&#xe2;" horiz-adv-x="461" 
d="M109 372l-53 32q64 111 174 111q82 0 121.5 -47t39.5 -126v-248q0 -43 40 -43h14v-50q-21 -7 -43 -7q-60 0 -85 49q-54 -51 -135 -51q-66 0 -104 36.5t-38 98.5q0 163 224 163h42v53q0 105 -87 105q-67 0 -110 -76zM200 53q63 0 106 49v128h-42q-77 0 -109 -25t-32 -72
q0 -80 77 -80zM182 587h-73l94 138h60l94 -138h-73l-51 84z" />
    <glyph glyph-name="atilde" unicode="&#xe3;" horiz-adv-x="461" 
d="M109 372l-53 32q64 111 174 111q82 0 121.5 -47t39.5 -126v-248q0 -43 40 -43h14v-50q-21 -7 -43 -7q-60 0 -85 49q-54 -51 -135 -51q-66 0 -104 36.5t-38 98.5q0 163 224 163h42v53q0 105 -87 105q-67 0 -110 -76zM200 53q63 0 106 49v128h-42q-77 0 -109 -25t-32 -72
q0 -80 77 -80zM328 725l46 -9q-9 -66 -28 -99t-57 -33q-25 0 -46.5 22t-38 43.5t-29.5 21.5q-26 0 -37 -79l-46 9q9 67 28 99.5t56 32.5q25 0 47 -21.5t38.5 -43.5t29.5 -22q24 0 37 79z" />
    <glyph glyph-name="adieresis" unicode="&#xe4;" horiz-adv-x="461" 
d="M109 372l-53 32q64 111 174 111q82 0 121.5 -47t39.5 -126v-248q0 -43 40 -43h14v-50q-21 -7 -43 -7q-60 0 -85 49q-54 -51 -135 -51q-66 0 -104 36.5t-38 98.5q0 163 224 163h42v53q0 105 -87 105q-67 0 -110 -76zM200 53q63 0 106 49v128h-42q-77 0 -109 -25t-32 -72
q0 -80 77 -80zM129 725h67v-108h-67v108zM272 725h67v-108h-67v108z" />
    <glyph glyph-name="aring" unicode="&#xe5;" horiz-adv-x="461" 
d="M109 372l-53 32q64 111 174 111q82 0 121.5 -47t39.5 -126v-248q0 -43 40 -43h14v-50q-21 -7 -43 -7q-60 0 -85 49q-54 -51 -135 -51q-66 0 -104 36.5t-38 98.5q0 163 224 163h42v53q0 105 -87 105q-67 0 -110 -76zM200 53q63 0 106 49v128h-42q-77 0 -109 -25t-32 -72
q0 -80 77 -80zM147 663q0 36 24.5 59.5t62.5 23.5t62.5 -23.5t24.5 -59.5t-24.5 -59t-62.5 -23t-62.5 23t-24.5 59zM197 663q0 -18 10 -29.5t27 -11.5t27 11.5t10 29.5t-10 29.5t-27 11.5t-27 -11.5t-10 -29.5z" />
    <glyph glyph-name="ae" unicode="&#xe6;" horiz-adv-x="721" 
d="M682 240h-272v-71q0 -112 103 -112q83 0 113 86l58 -24q-48 -129 -179 -129q-109 0 -147 82h-2q-49 -82 -170 -82q-68 0 -107 37.5t-39 99.5q0 76 54.5 121.5t178.5 45.5h49v54q0 48 -25 72.5t-70 24.5q-37 0 -64.5 -21t-41.5 -59l-59 29q21 55 66.5 88t102.5 33
q97 0 137 -68q43 68 140 68q80 0 127 -52.5t47 -128.5v-94zM204 55q39 0 73 19t45 53v105h-50q-147 0 -147 -100q0 -77 79 -77zM410 338v-44h194v47q0 51 -25.5 79t-71.5 28q-97 0 -97 -110z" />
    <glyph glyph-name="ccedilla" unicode="&#xe7;" horiz-adv-x="428" 
d="M404 400l-60 -26q-29 71 -105 71q-52 0 -79.5 -29.5t-27.5 -85.5v-155q0 -56 28 -86t79 -30q76 0 106 76l62 -23q-44 -113 -159 -120l-4 -23q80 -10 80 -61q0 -33 -31.5 -54.5t-89.5 -25.5l-13 41q37 7 51 14.5t14 20.5q0 24 -70 28l12 62q-72 9 -111.5 58t-39.5 120v161
q0 80 49 130.5t137 50.5q60 0 104.5 -30t67.5 -84z" />
    <glyph glyph-name="egrave" unicode="&#xe8;" horiz-adv-x="456" 
d="M417 248h-285v-72q0 -56 29 -87t83 -31q41 0 67 19.5t45 64.5l62 -23q-44 -128 -182 -128q-90 0 -140 50t-50 132v161q0 79 49.5 129.5t137.5 50.5q85 0 134.5 -51.5t49.5 -131.5v-83zM132 338v-36h209v38q0 51 -28 80t-77 29q-52 0 -78 -29.5t-26 -81.5zM119 725h99
l68 -138h-67z" />
    <glyph glyph-name="eacute" unicode="&#xe9;" horiz-adv-x="456" 
d="M417 248h-285v-72q0 -56 29 -87t83 -31q41 0 67 19.5t45 64.5l62 -23q-44 -128 -182 -128q-90 0 -140 50t-50 132v161q0 79 49.5 129.5t137.5 50.5q85 0 134.5 -51.5t49.5 -131.5v-83zM132 338v-36h209v38q0 51 -28 80t-77 29q-52 0 -78 -29.5t-26 -81.5zM249 725h99
l-92 -138h-66z" />
    <glyph glyph-name="ecircumflex" unicode="&#xea;" horiz-adv-x="456" 
d="M417 248h-285v-72q0 -56 29 -87t83 -31q41 0 67 19.5t45 64.5l62 -23q-44 -128 -182 -128q-90 0 -140 50t-50 132v161q0 79 49.5 129.5t137.5 50.5q85 0 134.5 -51.5t49.5 -131.5v-83zM132 338v-36h209v38q0 51 -28 80t-77 29q-52 0 -78 -29.5t-26 -81.5zM184 587h-73
l94 138h60l94 -138h-73l-51 84z" />
    <glyph glyph-name="edieresis" unicode="&#xeb;" horiz-adv-x="456" 
d="M417 248h-285v-72q0 -56 29 -87t83 -31q41 0 67 19.5t45 64.5l62 -23q-44 -128 -182 -128q-90 0 -140 50t-50 132v161q0 79 49.5 129.5t137.5 50.5q85 0 134.5 -51.5t49.5 -131.5v-83zM132 338v-36h209v38q0 51 -28 80t-77 29q-52 0 -78 -29.5t-26 -81.5zM130 725h67
v-108h-67v108zM273 725h67v-108h-67v108z" />
    <glyph glyph-name="igrave" unicode="&#xec;" horiz-adv-x="235" 
d="M74 505h86v-505h-86v505zM-15 725h99l68 -138h-67z" />
    <glyph glyph-name="iacute" unicode="&#xed;" horiz-adv-x="235" 
d="M74 505h86v-505h-86v505zM140 725h99l-92 -138h-66z" />
    <glyph glyph-name="icircumflex" unicode="&#xee;" horiz-adv-x="235" 
d="M74 505h86v-505h-86v505zM66 587h-73l94 138h60l94 -138h-73l-51 84z" />
    <glyph glyph-name="idieresis" unicode="&#xef;" horiz-adv-x="235" 
d="M74 505h86v-505h-86v505zM13 725h67v-108h-67v108zM156 725h67v-108h-67v108z" />
    <glyph glyph-name="eth" unicode="&#xf0;" horiz-adv-x="484" 
d="M438 177q0 -83 -51 -134t-144 -51t-144.5 49.5t-51.5 128.5v159q0 81 47 130.5t132 49.5t131 -51h2q-8 117 -78 167l-51 -72l-44 33l46 65q-36 14 -86 25l13 56q60 -9 109 -29l42 60l45 -33l-37 -53q120 -79 120 -252v-248zM133 173q0 -115 110 -115q54 0 81.5 30
t27.5 85v153q0 56 -27.5 86.5t-83.5 30.5q-108 0 -108 -117v-153z" />
    <glyph glyph-name="ntilde" unicode="&#xf1;" horiz-adv-x="510" 
d="M152 384v-384h-86v505h76l3 -53h2q54 62 144 62q79 0 121.5 -50t42.5 -136v-328h-86v326q0 116 -102 116q-75 0 -115 -58zM354 725l46 -9q-9 -66 -28 -99t-57 -33q-25 0 -46.5 22t-38 43.5t-29.5 21.5q-26 0 -37 -79l-46 9q9 67 28 99.5t56 32.5q25 0 47 -21.5
t38.5 -43.5t29.5 -22q24 0 37 79z" />
    <glyph glyph-name="ograve" unicode="&#xf2;" horiz-adv-x="482" 
d="M436 333v-163q0 -80 -51 -129.5t-144 -49.5t-144 49.5t-51 129.5v163q0 81 51 131t144 50t144 -50t51 -131zM132 330v-157q0 -55 27.5 -85t81.5 -30q55 0 82.5 30t27.5 85v157q0 55 -27.5 86t-82.5 31q-109 0 -109 -117zM117 725h99l68 -138h-67z" />
    <glyph glyph-name="oacute" unicode="&#xf3;" horiz-adv-x="482" 
d="M436 333v-163q0 -80 -51 -129.5t-144 -49.5t-144 49.5t-51 129.5v163q0 81 51 131t144 50t144 -50t51 -131zM132 330v-157q0 -55 27.5 -85t81.5 -30q55 0 82.5 30t27.5 85v157q0 55 -27.5 86t-82.5 31q-109 0 -109 -117zM261 725h99l-92 -138h-66z" />
    <glyph glyph-name="ocircumflex" unicode="&#xf4;" horiz-adv-x="482" 
d="M436 333v-163q0 -80 -51 -129.5t-144 -49.5t-144 49.5t-51 129.5v163q0 81 51 131t144 50t144 -50t51 -131zM132 330v-157q0 -55 27.5 -85t81.5 -30q55 0 82.5 30t27.5 85v157q0 55 -27.5 86t-82.5 31q-109 0 -109 -117zM190 587h-73l94 138h60l94 -138h-73l-51 84z" />
    <glyph glyph-name="otilde" unicode="&#xf5;" horiz-adv-x="482" 
d="M436 333v-163q0 -80 -51 -129.5t-144 -49.5t-144 49.5t-51 129.5v163q0 81 51 131t144 50t144 -50t51 -131zM132 330v-157q0 -55 27.5 -85t81.5 -30q55 0 82.5 30t27.5 85v157q0 55 -27.5 86t-82.5 31q-109 0 -109 -117zM339 725l46 -9q-9 -66 -28 -99t-57 -33
q-25 0 -46.5 22t-38 43.5t-29.5 21.5q-26 0 -37 -79l-46 9q9 67 28 99.5t56 32.5q25 0 47 -21.5t38.5 -43.5t29.5 -22q24 0 37 79z" />
    <glyph glyph-name="odieresis" unicode="&#xf6;" horiz-adv-x="482" 
d="M436 333v-163q0 -80 -51 -129.5t-144 -49.5t-144 49.5t-51 129.5v163q0 81 51 131t144 50t144 -50t51 -131zM132 330v-157q0 -55 27.5 -85t81.5 -30q55 0 82.5 30t27.5 85v157q0 55 -27.5 86t-82.5 31q-109 0 -109 -117zM136 725h67v-108h-67v108zM279 725h67v-108h-67
v108z" />
    <glyph glyph-name="divide" unicode="&#xf7;" horiz-adv-x="475" 
d="M423 278h-371v66h371v-66zM182 486q0 23 15.5 39.5t37.5 16.5t37.5 -16.5t15.5 -39.5t-15.5 -39.5t-37.5 -16.5t-37.5 16.5t-15.5 39.5zM182 141q0 23 15.5 39.5t37.5 16.5t37.5 -16.5t15.5 -39.5t-15.5 -39t-37.5 -16t-37.5 16t-15.5 39z" />
    <glyph glyph-name="oslash" unicode="&#xf8;" horiz-adv-x="482" 
d="M436 333v-163q0 -80 -51 -129.5t-144 -49.5q-89 0 -141 46l-28 -36l-33 28l33 42q-26 40 -26 99v163q0 81 51 131t144 50q91 0 142 -49l31 39l34 -28l-37 -46q25 -44 25 -97zM132 330v-182h2l200 254q-28 45 -93 45q-109 0 -109 -117zM351 173v179h-2l-199 -252
q26 -42 91 -42q55 0 82.5 30t27.5 85z" />
    <glyph glyph-name="ugrave" unicode="&#xf9;" horiz-adv-x="510" 
d="M358 119v386h86v-505h-76l-4 51h-2q-54 -60 -144 -60q-78 0 -120.5 50t-42.5 136v328h86v-328q0 -56 26 -86t76 -30q75 0 115 58zM133 725h99l68 -138h-67z" />
    <glyph glyph-name="uacute" unicode="&#xfa;" horiz-adv-x="510" 
d="M358 119v386h86v-505h-76l-4 51h-2q-54 -60 -144 -60q-78 0 -120.5 50t-42.5 136v328h86v-328q0 -56 26 -86t76 -30q75 0 115 58zM273 725h99l-92 -138h-66z" />
    <glyph glyph-name="ucircumflex" unicode="&#xfb;" horiz-adv-x="510" 
d="M358 119v386h86v-505h-76l-4 51h-2q-54 -60 -144 -60q-78 0 -120.5 50t-42.5 136v328h86v-328q0 -56 26 -86t76 -30q75 0 115 58zM204 587h-73l94 138h60l94 -138h-73l-51 84z" />
    <glyph glyph-name="udieresis" unicode="&#xfc;" horiz-adv-x="510" 
d="M358 119v386h86v-505h-76l-4 51h-2q-54 -60 -144 -60q-78 0 -120.5 50t-42.5 136v328h86v-328q0 -56 26 -86t76 -30q75 0 115 58zM150 725h67v-108h-67v108zM293 725h67v-108h-67v108z" />
    <glyph glyph-name="yacute" unicode="&#xfd;" horiz-adv-x="505" 
d="M485 505l-193 -528q-27 -72 -69.5 -107t-112.5 -39l-7 62q45 6 71 27.5t41 66.5l8 24l-203 494h96l149 -401h2l129 401h89zM282 725h99l-92 -138h-66z" />
    <glyph glyph-name="thorn" unicode="&#xfe;" horiz-adv-x="501" 
d="M287 -8q-84 0 -133 52h-2v-213h-86v917h86v-295h2q50 61 138 61q79 0 121 -50t42 -137v-149q0 -86 -43.5 -136t-124.5 -50zM152 385v-268q40 -56 113 -56q104 0 104 117v148q0 116 -102 116q-75 0 -115 -57z" />
    <glyph glyph-name="ydieresis" unicode="&#xff;" horiz-adv-x="505" 
d="M485 505l-193 -528q-27 -72 -69.5 -107t-112.5 -39l-7 62q45 6 71 27.5t41 66.5l8 24l-203 494h96l149 -401h2l129 401h89zM162 725h67v-108h-67v108zM305 725h67v-108h-67v108z" />
    <glyph glyph-name="dotlessi" unicode="&#x131;" horiz-adv-x="235" 
d="M74 505h86v-505h-86v505z" />
    <glyph glyph-name="IJ" unicode="&#x132;" horiz-adv-x="570" 
d="M96 725h96v-725h-96v725zM394 725h96v-607q0 -256 -255 -259l-8 76q87 0 127 42.5t40 139.5v608z" />
    <glyph glyph-name="ij" unicode="&#x133;" horiz-adv-x="486" 
d="M74 505h86v-505h-86v505zM77 725h82v-107h-82v107zM327 725h82v-107h-82v107zM232 -169l-8 67q101 12 101 131v476h86v-476q0 -186 -179 -198z" />
    <glyph glyph-name="Lslash" unicode="&#x141;" horiz-adv-x="495" 
d="M92 725h93v-316l179 97v-79l-179 -97v-246h287v-84h-380v291l-63 -32v78l63 33v355z" />
    <glyph glyph-name="lslash" unicode="&#x142;" horiz-adv-x="314" 
d="M108 748h85v-297h2l89 56v-73l-91 -56v-378h-85v334h-2l-80 -50v73l82 50v341z" />
    <glyph glyph-name="OE" unicode="&#x152;" horiz-adv-x="905" 
d="M449 725h406v-83h-310v-231h245v-75h-245v-254h324v-82h-420v65h-2q-52 -75 -166 -75q-104 0 -164.5 66t-60.5 180v253q0 114 60.5 180t164.5 66q114 0 166 -75h2v65zM449 237v252q0 165 -148 165q-149 0 -149 -165v-253q0 -167 149 -167q148 0 148 168z" />
    <glyph glyph-name="oe" unicode="&#x153;" horiz-adv-x="753" 
d="M714 241h-279v-72q0 -54 27 -83t79 -29q87 0 117 86l59 -24q-49 -129 -183 -129q-101 0 -144 72q-47 -72 -156 -72q-88 0 -138 51.5t-50 126.5v168q0 76 50 127.5t138 51.5q108 0 156 -73q46 73 149 73q80 0 127.5 -52.5t47.5 -128.5v-93zM347 331q0 117 -107 117
t-107 -117v-157q0 -119 106 -119q108 0 108 119v157zM435 338v-43h201v46q0 51 -26 79t-74 28q-101 0 -101 -110z" />
    <glyph glyph-name="Scaron" unicode="&#x160;" horiz-adv-x="495" 
d="M243 735q79 0 135.5 -38.5t80.5 -104.5l-67 -30q-16 45 -53.5 70t-88.5 25q-62 0 -91 -28t-29 -75q0 -38 25 -67.5t62 -47t81 -40.5t81 -46t62 -64.5t25 -96.5q0 -96 -59 -149t-159 -53q-80 0 -140.5 44t-82.5 119l74 27q17 -54 57.5 -83t90.5 -29q128 0 128 115
q0 35 -19 62t-48.5 45.5t-66 35t-73 35.5t-66 42t-48.5 60.5t-19 85.5q0 81 56.5 133.5t151.5 52.5zM133 872h75l49 -68l51 68h73l-94 -113h-60z" />
    <glyph glyph-name="scaron" unicode="&#x161;" horiz-adv-x="416" 
d="M377 407l-57 -24q-30 68 -105 68q-43 0 -64.5 -19t-21.5 -51q0 -30 26 -50t63.5 -33.5t74.5 -29.5t63 -48t26 -80q0 -65 -46.5 -107t-119.5 -42q-127 0 -176 111l56 28q34 -77 117 -77q43 0 65.5 21t22.5 59q0 31 -26 52t-63.5 34t-75 29t-63.5 47.5t-26 78.5
q0 60 43.5 100t122.5 40q59 0 101.5 -28t62.5 -79zM94 725h73l51 -84l51 84h73l-94 -138h-60z" />
    <glyph glyph-name="Ydieresis" unicode="&#x178;" horiz-adv-x="567" 
d="M558 725l-227 -482v-243h-96v245l-226 480h108l165 -394h2l167 394h107zM164 872h69v-102h-69v102zM335 872h69v-102h-69v102z" />
    <glyph glyph-name="Zcaron" unicode="&#x17d;" horiz-adv-x="533" 
d="M488 83v-83h-450v58l337 584h-320v83h433v-56l-337 -586h337zM151 872h75l49 -68l51 68h73l-94 -113h-60z" />
    <glyph glyph-name="zcaron" unicode="&#x17e;" horiz-adv-x="430" 
d="M389 69v-69h-349v53l248 381v2h-237v69h341v-51l-250 -383v-2h247zM100 725h73l51 -84l51 84h73l-94 -138h-60z" />
    <glyph glyph-name="longs" unicode="&#x17f;" horiz-adv-x="291" 
d="M315 730l4 -61q-66 -3 -93.5 -35.5t-27.5 -90.5v-543h-86v442h-91v63h91v39q0 81 48.5 131.5t154.5 54.5z" />
    <glyph glyph-name="florin" unicode="&#x192;" horiz-adv-x="335" 
d="M328 505l-12 -63h-128l-95 -513h-86l95 513h-64l12 63h63l8 39q16 82 74 132t164 54l-7 -61q-127 -5 -149 -126l-7 -38h132z" />
    <glyph glyph-name="uni02BB" unicode="&#x2bb;" horiz-adv-x="194" 
d="M146 695v-104h-98v77q0 88 50 160l34 -16q-24 -48 -24 -111z" />
    <glyph glyph-name="afii57929" unicode="&#x2bc;" horiz-adv-x="194" 
d="M48 643v104h99v-77q0 -89 -51 -160l-35 16q26 51 27 111z" />
    <glyph glyph-name="circumflex" unicode="&#x2c6;" horiz-adv-x="274" 
d="M86 587h-73l94 138h60l94 -138h-73l-51 84z" />
    <glyph glyph-name="caron" unicode="&#x2c7;" horiz-adv-x="274" 
d="M13 725h73l51 -84l51 84h73l-94 -138h-60z" />
    <glyph glyph-name="uni02C9" unicode="&#x2c9;" horiz-adv-x="274" 
d="M259 683v-58h-244v58h244z" />
    <glyph glyph-name="breve" unicode="&#x2d8;" horiz-adv-x="274" 
d="M12 725h64q4 -55 18 -76t43 -21t43 21t17 76h65q-10 -82 -37.5 -113.5t-87.5 -31.5t-87.5 31.5t-37.5 113.5z" />
    <glyph glyph-name="dotaccent" unicode="&#x2d9;" horiz-adv-x="274" 
d="M51 725h82v-107h-82v107z" />
    <glyph glyph-name="ring" unicode="&#x2da;" horiz-adv-x="274" 
d="M50 663q0 36 24.5 59.5t62.5 23.5t62.5 -23.5t24.5 -59.5t-24.5 -59t-62.5 -23t-62.5 23t-24.5 59zM100 663q0 -18 10 -29.5t27 -11.5t27 11.5t10 29.5t-10 29.5t-27 11.5t-27 -11.5t-10 -29.5z" />
    <glyph glyph-name="ogonek" unicode="&#x2db;" horiz-adv-x="274" 
d="M152 11l39 -7q-78 -23 -78 -78q0 -35 43 -35q40 0 71 20l18 -47q-43 -30 -101 -30q-102 0 -102 74q0 36 29 62.5t81 40.5z" />
    <glyph glyph-name="tilde" unicode="&#x2dc;" horiz-adv-x="274" 
d="M232 725l46 -9q-9 -66 -28 -99t-57 -33q-25 0 -46.5 22t-38 43.5t-29.5 21.5q-26 0 -37 -79l-46 9q9 67 28 99.5t56 32.5q25 0 47 -21.5t38.5 -43.5t29.5 -22q24 0 37 79z" />
    <glyph glyph-name="hungarumlaut" unicode="&#x2dd;" horiz-adv-x="274" 
d="M91 725h89l-80 -138h-55zM232 725h89l-96 -138h-56z" />
    <glyph glyph-name="gravecomb" unicode="&#x300;" horiz-adv-x="0" 
d="M-253 725h99l68 -138h-67z" />
    <glyph glyph-name="acutecomb" unicode="&#x301;" horiz-adv-x="0" 
d="M-146 725h99l-92 -138h-66z" />
    <glyph glyph-name="uni0302" unicode="&#x302;" horiz-adv-x="0" 
d="M-164 587h-73l94 138h60l94 -138h-73l-51 84z" />
    <glyph glyph-name="tildecomb" unicode="&#x303;" horiz-adv-x="0" 
d="M-48 725l46 -9q-9 -66 -28 -99t-57 -33q-25 0 -46.5 22t-38 43.5t-29.5 21.5q-26 0 -37 -79l-46 9q9 67 28 99.5t56 32.5q25 0 47 -21.5t38.5 -43.5t29.5 -22q24 0 37 79z" />
    <glyph glyph-name="uni0304" unicode="&#x304;" horiz-adv-x="0" 
d="M-13 683v-58h-244v58h244z" />
    <glyph glyph-name="uni0306" unicode="&#x306;" horiz-adv-x="0" 
d="M-264 725h64q4 -55 18 -76t43 -21t43 21t17 76h65q-10 -82 -37.5 -113.5t-87.5 -31.5t-87.5 31.5t-37.5 113.5z" />
    <glyph glyph-name="uni0307" unicode="&#x307;" horiz-adv-x="0" 
d="M-137 725h82v-107h-82v107z" />
    <glyph glyph-name="uni0308" unicode="&#x308;" horiz-adv-x="0" 
d="M-241 725h67v-108h-67v108zM-98 725h67v-108h-67v108z" />
    <glyph glyph-name="uni030A" unicode="&#x30a;" horiz-adv-x="0" 
d="M-229 663q0 36 24.5 59.5t62.5 23.5t62.5 -23.5t24.5 -59.5t-24.5 -59t-62.5 -23t-62.5 23t-24.5 59zM-179 663q0 -18 10 -29.5t27 -11.5t27 11.5t10 29.5t-10 29.5t-27 11.5t-27 -11.5t-10 -29.5z" />
    <glyph glyph-name="uni030B" unicode="&#x30b;" horiz-adv-x="0" 
d="M-183 725h89l-80 -138h-55zM-42 725h89l-96 -138h-56z" />
    <glyph glyph-name="uni030C" unicode="&#x30c;" horiz-adv-x="0" 
d="M-262 725h73l51 -84l51 84h73l-94 -138h-60z" />
    <glyph glyph-name="uni0312" unicode="&#x312;" horiz-adv-x="0" 
d="M-180 574h-98l65 151h64z" />
    <glyph glyph-name="uni0315" unicode="&#x315;" horiz-adv-x="0" 
d="M117 725h98l-71 -153h-65z" />
    <glyph glyph-name="uni0326" unicode="&#x326;" horiz-adv-x="0" 
d="M-282 -100v66h94v-39q0 -56 -21 -80t-74 -28l-4 35q26 3 35 12t9 30z" />
    <glyph glyph-name="uni0327" unicode="&#x327;" horiz-adv-x="0" 
d="M-131 19l49 -3l-8 -47q80 -10 80 -61q0 -33 -31.5 -54.5t-89.5 -25.5l-13 41q37 7 51 14.5t14 20.5q0 24 -70 28z" />
    <glyph glyph-name="uni0328" unicode="&#x328;" horiz-adv-x="0" 
d="M-104 11l39 -7q-78 -23 -78 -78q0 -35 43 -35q40 0 71 20l18 -47q-43 -30 -101 -30q-102 0 -102 74q0 36 29 62.5t81 40.5z" />
    <glyph glyph-name="uni0335" unicode="&#x335;" horiz-adv-x="1" 
d="M-14 282v-58h-244v58h244z" />
    <glyph glyph-name="uni0336" unicode="&#x336;" horiz-adv-x="1" 
d="M-565 219v69h540v-69h-540z" />
    <glyph glyph-name="uni0394" unicode="&#x394;" horiz-adv-x="606" 
d="M11 0l253 725h80l251 -725h-584zM304 615l-171 -536h340l-167 536h-2z" />
    <glyph glyph-name="uni03A9" unicode="&#x3a9;" horiz-adv-x="601" 
d="M301 735q119 0 181.5 -58.5t62.5 -166.5v-132q0 -149 -140 -195v-103h136v-80h-205v236q59 12 86 46t27 94v132q0 71 -38 108.5t-110 37.5t-110.5 -37.5t-38.5 -108.5v-132q0 -60 27 -94t86 -46v-236h-205v80h137v103q-141 45 -141 195v132q0 108 63 166.5t182 58.5z" />
    <glyph glyph-name="uni03BC" unicode="&#x3bc;" horiz-adv-x="520" 
d="M66 182v323h86v-323q0 -56 27 -86t78 -30q72 0 112 58v381h86v-505h-77l-4 52h-2q-42 -53 -112 -53q-78 0 -113 59h-2q7 -128 18 -223l-87 -6q-10 190 -10 353z" />
    <glyph glyph-name="pi" unicode="&#x3c0;" horiz-adv-x="512" 
d="M434 0h-86v437h-184v-340q0 -48 -27.5 -75.5t-76.5 -27.5q-20 0 -43 7v51h14q47 0 47 51v332h-59v70h472v-70h-57v-435z" />
    <glyph glyph-name="uni2007" unicode="&#x2007;" 
 />
    <glyph glyph-name="uni2008" unicode="&#x2008;" horiz-adv-x="210" 
 />
    <glyph glyph-name="uni200B" unicode="&#x200b;" horiz-adv-x="0" 
 />
    <glyph glyph-name="uni2010" unicode="&#x2010;" horiz-adv-x="276" 
d="M27 255v75h222v-75h-222z" />
    <glyph glyph-name="endash" unicode="&#x2013;" horiz-adv-x="417" 
d="M26 261v69h365v-69h-365z" />
    <glyph glyph-name="emdash" unicode="&#x2014;" horiz-adv-x="592" 
d="M26 261v69h540v-69h-540z" />
    <glyph glyph-name="quoteleft" unicode="&#x2018;" horiz-adv-x="194" 
d="M146 695v-104h-98v77q0 88 50 160l34 -16q-24 -48 -24 -111z" />
    <glyph glyph-name="quoteright" unicode="&#x2019;" horiz-adv-x="194" 
d="M48 643v104h99v-77q0 -89 -51 -160l-35 16q26 51 27 111z" />
    <glyph glyph-name="quotesinglbase" unicode="&#x201a;" horiz-adv-x="194" 
d="M48 6v104h99v-77q0 -89 -51 -160l-35 16q26 51 27 111z" />
    <glyph glyph-name="quotedblleft" unicode="&#x201c;" horiz-adv-x="342" 
d="M292 695v-104h-98v77q0 88 50 160l34 -16q-24 -48 -24 -111zM146 695v-104h-98v77q0 88 50 160l34 -16q-24 -48 -24 -111z" />
    <glyph glyph-name="quotedblright" unicode="&#x201d;" horiz-adv-x="342" 
d="M194 643v104h99v-77q0 -89 -51 -160l-35 16q26 51 27 111zM48 643v104h99v-77q0 -89 -51 -160l-35 16q26 51 27 111z" />
    <glyph glyph-name="quotedblbase" unicode="&#x201e;" horiz-adv-x="339" 
d="M183 6v104h99v-77q0 -89 -51 -160l-35 16q26 51 27 111zM41 6v104h99v-77q0 -89 -51 -160l-35 16q26 51 27 111z" />
    <glyph glyph-name="dagger" unicode="&#x2020;" horiz-adv-x="427" 
d="M21 547l154 -6l-5 207h85l-5 -207l155 6v-84l-155 5l5 -623h-85l5 623l-154 -5v84z" />
    <glyph glyph-name="daggerdbl" unicode="&#x2021;" horiz-adv-x="427" 
d="M175 125v343l-154 -5v84l154 -6l-5 207h85l-5 -207l155 6v-84l-155 5v-343l155 5v-84l-155 6l5 -207h-85l5 207l-154 -6v84z" />
    <glyph glyph-name="bullet" unicode="&#x2022;" horiz-adv-x="279" 
d="M21 310q0 55 34.5 93.5t84.5 38.5q51 0 85.5 -38t34.5 -94q0 -55 -34.5 -93t-85.5 -38q-50 0 -84.5 38t-34.5 93z" />
    <glyph glyph-name="ellipsis" unicode="&#x2026;" horiz-adv-x="630" 
d="M54 0v109h102v-109h-102zM264 0v109h103v-109h-103zM474 0v109h103v-109h-103z" />
    <glyph glyph-name="perthousand" unicode="&#x2030;" horiz-adv-x="862" 
d="M279 600v-58q0 -63 -31 -97.5t-90 -34.5t-90 34.5t-31 97.5v58q0 64 31 99.5t90 35.5t90 -35.5t31 -99.5zM100 601v-60q0 -75 58 -75t58 75v60q0 75 -58 75t-58 -75zM53 1l410 724h69l-411 -724h-68zM556 179v-59q0 -63 -31.5 -97.5t-89.5 -34.5q-59 0 -90 34.5t-31 97.5
v59q0 63 31 98.5t90 35.5q58 0 89.5 -35.5t31.5 -98.5zM377 179v-60q0 -75 58 -75t58 75v60q0 75 -58 75t-58 -75zM833 179v-59q0 -63 -31 -97.5t-90 -34.5t-90 34.5t-31 97.5v59q0 63 31 98.5t90 35.5t90 -35.5t31 -98.5zM654 179v-60q0 -75 58 -75t58 75v60q0 75 -58 75
t-58 -75z" />
    <glyph glyph-name="guilsinglleft" unicode="&#x2039;" horiz-adv-x="249" 
d="M225 437l-126 -179l126 -178h-76l-125 178l125 179h76z" />
    <glyph glyph-name="guilsinglright" unicode="&#x203a;" horiz-adv-x="249" 
d="M23 80l127 178l-127 179h77l125 -179l-125 -178h-77z" />
    <glyph glyph-name="uni203D" unicode="&#x203d;" horiz-adv-x="521" 
d="M22 571q26 72 89 118.5t150 46.5q109 0 163 -53t54 -130t-49 -137.5t-139 -97.5l-5 -108h-65l-6 184v267q-86 -20 -123 -113zM393 550q0 103 -106 115v-282q106 61 106 167zM200 0v109h102v-109h-102z" />
    <glyph glyph-name="fraction" unicode="&#x2044;" horiz-adv-x="279" 
d="M-7 0h-61l393 725h61z" />
    <glyph glyph-name="uni2070" unicode="&#x2070;" horiz-adv-x="277" 
d="M250 688v-100q0 -52 -29.5 -82.5t-81.5 -30.5q-53 0 -82 30.5t-29 82.5v100q0 53 29 83.5t82 30.5t82 -31t29 -83zM84 687v-99q0 -66 55 -66q54 0 54 66v99q0 66 -54 66q-55 0 -55 -66z" />
    <glyph glyph-name="uni2074" unicode="&#x2074;" horiz-adv-x="277" 
d="M225 479h-51v59h-156v38l152 222h55v-216h41l-5 -44h-36v-59zM79 582h95l4 154h-2l-97 -152v-2z" />
    <glyph glyph-name="uni2075" unicode="&#x2075;" horiz-adv-x="277" 
d="M75 620l-38 19l14 159h185l-3 -47h-136l-8 -83h2q26 14 59 14q98 0 98 -100q0 -107 -113 -107q-82 0 -106 70l42 17q17 -42 61 -42q57 0 57 62q0 29 -13.5 42t-44.5 13q-34 0 -56 -17z" />
    <glyph glyph-name="uni2076" unicode="&#x2076;" horiz-adv-x="277" 
d="M145 802q75 0 98 -66l-38 -18q-15 38 -56 38q-63 0 -63 -69v-26h2q22 21 66 21q96 0 96 -96q0 -55 -28.5 -83t-81.5 -28q-52 0 -80.5 30.5t-28.5 86.5v89q0 53 31 87t83 34zM143 637q-22 0 -39 -8t-18 -20v-26q0 -61 56 -61q53 0 53 62q0 53 -52 53z" />
    <glyph glyph-name="uni2077" unicode="&#x2077;" horiz-adv-x="259" 
d="M120 479h-64l126 271h-164v48h223v-43z" />
    <glyph glyph-name="uni2078" unicode="&#x2078;" horiz-adv-x="277" 
d="M139 475q-114 0 -114 97q0 59 50 75v2q-41 18 -41 68q0 39 25.5 62t79.5 23q104 0 104 -85q0 -52 -41 -68v-2q50 -16 50 -75q0 -97 -113 -97zM195 575q0 49 -56 49q-29 0 -43 -11t-14 -38q0 -31 14 -43.5t43 -12.5q30 0 43 12.5t13 43.5zM139 758q-28 0 -40 -10.5
t-12 -36.5q0 -25 12 -36t40 -11q27 0 39 11t12 36q0 26 -11.5 36.5t-39.5 10.5z" />
    <glyph glyph-name="uni2079" unicode="&#x2079;" horiz-adv-x="277" 
d="M32 538l36 21q20 -39 64 -39q59 0 59 60v42h-2q-25 -19 -66 -19q-43 0 -69 24t-26 72q0 49 28.5 76t82.5 27q51 0 79.5 -29t28.5 -78v-113q0 -49 -30.5 -78t-81.5 -29q-77 0 -103 63zM134 646q21 0 39 9t18 24v23q0 55 -52 55q-56 0 -56 -55q0 -30 12.5 -43t38.5 -13z
" />
    <glyph glyph-name="uni207A" unicode="&#x207a;" horiz-adv-x="238" 
d="M99 532v82h-70v39h70v81h39v-81h71v-39h-71v-82h-39z" />
    <glyph glyph-name="uni207B" unicode="&#x207b;" horiz-adv-x="238" 
d="M209 614h-180v39h180v-39z" />
    <glyph glyph-name="uni207C" unicode="&#x207c;" horiz-adv-x="238" 
d="M199 646h-164v39h164v-39zM199 574h-164v39h164v-39z" />
    <glyph glyph-name="uni207D" unicode="&#x207d;" horiz-adv-x="145" 
d="M33 570v127q0 78 25 114t79 36h13v-36h-13q-58 0 -58 -114v-127q0 -114 58 -114h13v-36h-13q-54 0 -79 36t-25 114z" />
    <glyph glyph-name="uni207E" unicode="&#x207e;" horiz-adv-x="145" 
d="M112 697v-127q0 -78 -25 -114t-79 -36h-13v36h13q57 0 57 114v127q0 114 -57 114h-13v36h13q54 0 79 -36t25 -114z" />
    <glyph glyph-name="uni207F" unicode="&#x207f;" horiz-adv-x="278" 
d="M40 479v248h48l3 -27h2q29 32 70 32q39 0 59 -24.5t20 -62.5v-166h-54v163q0 46 -41 46q-33 0 -52 -31v-178h-55z" />
    <glyph glyph-name="uni2080" unicode="&#x2080;" horiz-adv-x="277" 
d="M250 90v-100q0 -52 -29.5 -82.5t-81.5 -30.5q-53 0 -82 30.5t-29 82.5v100q0 53 29 83.5t82 30.5t82 -31t29 -83zM84 89v-99q0 -66 55 -66q54 0 54 66v99q0 66 -54 66q-55 0 -55 -66z" />
    <glyph glyph-name="uni2081" unicode="&#x2081;" horiz-adv-x="217" 
d="M114 202h47v-321h-60v224h-68v39h28q29 0 39 10.5t14 47.5z" />
    <glyph glyph-name="uni2082" unicode="&#x2082;" horiz-adv-x="277" 
d="M141 204q51 0 77 -25t26 -62q0 -36 -21.5 -65t-48.5 -45t-51.5 -37.5t-28.5 -43.5h152v-45h-213l-1 26q1 34 25.5 65t53 49.5t52 44t23.5 49.5q0 43 -49 43q-47 0 -62 -53l-45 15q11 37 39.5 60.5t71.5 23.5z" />
    <glyph glyph-name="uni2083" unicode="&#x2083;" horiz-adv-x="277" 
d="M103 24v42h25q52 0 52 46t-47 46q-46 0 -61 -45l-43 16q12 35 40.5 55t68.5 20q51 0 76.5 -24t25.5 -61q0 -55 -46 -71v-2q53 -14 53 -72q0 -47 -29 -72t-81 -25q-85 0 -110 70l42 17q18 -43 64 -43q53 0 53 56q0 26 -14 36.5t-43 10.5h-26z" />
    <glyph glyph-name="uni2084" unicode="&#x2084;" horiz-adv-x="277" 
d="M225 -119h-51v59h-156v38l152 222h55v-216h41l-5 -44h-36v-59zM79 -16h95l4 154h-2l-97 -152v-2z" />
    <glyph glyph-name="uni2085" unicode="&#x2085;" horiz-adv-x="277" 
d="M75 22l-38 19l14 159h185l-3 -47h-136l-8 -83h2q26 14 59 14q98 0 98 -100q0 -107 -113 -107q-82 0 -106 70l42 17q17 -42 61 -42q57 0 57 62q0 29 -13.5 42t-44.5 13q-34 0 -56 -17z" />
    <glyph glyph-name="uni2086" unicode="&#x2086;" horiz-adv-x="277" 
d="M145 204q75 0 98 -66l-38 -18q-15 38 -56 38q-63 0 -63 -69v-26h2q22 21 66 21q96 0 96 -96q0 -55 -28.5 -83t-81.5 -28q-52 0 -80.5 30.5t-28.5 86.5v89q0 53 31 87t83 34zM143 39q-22 0 -39 -8t-18 -20v-26q0 -61 56 -61q53 0 53 62q0 53 -52 53z" />
    <glyph glyph-name="uni2087" unicode="&#x2087;" horiz-adv-x="259" 
d="M120 -119h-64l126 271h-164v48h223v-43z" />
    <glyph glyph-name="uni2088" unicode="&#x2088;" horiz-adv-x="277" 
d="M139 -123q-114 0 -114 97q0 59 50 75v2q-41 18 -41 68q0 39 25.5 62t79.5 23q104 0 104 -85q0 -52 -41 -68v-2q50 -16 50 -75q0 -97 -113 -97zM195 -23q0 49 -56 49q-29 0 -43 -11t-14 -38q0 -31 14 -43.5t43 -12.5q30 0 43 12.5t13 43.5zM139 160q-28 0 -40 -10.5
t-12 -36.5q0 -25 12 -36t40 -11q27 0 39 11t12 36q0 26 -11.5 36.5t-39.5 10.5z" />
    <glyph glyph-name="uni2089" unicode="&#x2089;" horiz-adv-x="277" 
d="M32 -60l36 21q20 -39 64 -39q59 0 59 60v42h-2q-25 -19 -66 -19q-43 0 -69 24t-26 72q0 49 28.5 76t82.5 27q51 0 79.5 -29t28.5 -78v-113q0 -49 -30.5 -78t-81.5 -29q-77 0 -103 63zM134 48q21 0 39 9t18 24v23q0 55 -52 55q-56 0 -56 -55q0 -30 12.5 -43t38.5 -13z" />
    <glyph glyph-name="uni208A" unicode="&#x208a;" horiz-adv-x="238" 
d="M99 -66v82h-70v39h70v81h39v-81h71v-39h-71v-82h-39z" />
    <glyph glyph-name="uni208B" unicode="&#x208b;" horiz-adv-x="238" 
d="M209 16h-180v39h180v-39z" />
    <glyph glyph-name="uni208C" unicode="&#x208c;" horiz-adv-x="238" 
d="M199 48h-164v39h164v-39zM199 -24h-164v39h164v-39z" />
    <glyph glyph-name="uni208D" unicode="&#x208d;" horiz-adv-x="145" 
d="M33 -28v127q0 78 25 114t79 36h13v-36h-13q-58 0 -58 -114v-127q0 -114 58 -114h13v-36h-13q-54 0 -79 36t-25 114z" />
    <glyph glyph-name="uni208E" unicode="&#x208e;" horiz-adv-x="145" 
d="M112 99v-127q0 -78 -25 -114t-79 -36h-13v36h13q57 0 57 114v127q0 114 -57 114h-13v36h13q54 0 79 -36t25 -114z" />
    <glyph glyph-name="franc" unicode="&#x20a3;" horiz-adv-x="524" 
d="M5 109v63h74v553h406v-83h-310v-236h266v-78h-266v-156h107v-63h-107v-109h-96v109h-74z" />
    <glyph glyph-name="lira" unicode="&#x20a4;" horiz-adv-x="563" 
d="M48 366l-8 53h64q-8 54 -8 88q0 107 53 168t152 61q76 0 130.5 -41t72.5 -108l-67 -27q-32 97 -131 97q-123 0 -123 -158q0 -32 6 -80h244l-9 -53h-228q1 -12 5 -36h214l-7 -50h-200q8 -70 9 -80q34 -11 68 -44t63.5 -58.5t59.5 -25.5q33 0 50.5 27t28.5 93l66 -17
q-13 -97 -48 -141t-93 -44q-34 0 -65 17t-49.5 37.5t-42.5 49t-38 40.5h-2q-14 -144 -117 -144q-40 0 -63 24t-23 65q0 55 34.5 89t96.5 38l-14 74h-64l-7 50h61l-7 36h-64zM104 49q22 0 32.5 24t11.5 83q-70 -7 -70 -71q0 -36 26 -36z" />
    <glyph glyph-name="peseta" unicode="&#x20a7;" horiz-adv-x="931" 
d="M203 725q76 0 117 -55t41 -162q0 -104 -40.5 -159.5t-114.5 -55.5h-72v-293h-79v725h148zM905 403l-51 -19q-15 67 -68 67q-54 0 -54 -69q0 -23 13 -42t32.5 -32t42.5 -30t42.5 -34.5t32.5 -47.5t13 -68q0 -64 -33 -101t-89 -37q-104 0 -130 125l53 18q9 -46 27 -65
t46 -19q58 0 58 75q0 32 -18.5 56.5t-44.5 41.5t-52 35.5t-44.5 49.5t-18.5 72q0 60 32 97.5t87 37.5q97 0 124 -111zM615 504v-63h-91v-334q0 -54 48 -54q16 0 36 9l11 -48q-32 -22 -71 -22q-96 0 -96 116v331l-49 12v52l52 3l19 141h50v-143h91zM134 655v-297h68
q81 0 81 150q0 80 -20 113.5t-61 33.5h-68z" />
    <glyph glyph-name="Euro" unicode="&#x20ac;" horiz-adv-x="564" 
d="M305 735q76 0 133.5 -43t75.5 -108l-70 -28q-31 96 -133 96q-68 0 -104 -42.5t-36 -121.5v-37h255l-13 -52h-242v-49h230l-13 -52h-217v-68q0 -74 37 -118t104 -44q54 0 85 24t47 81l72 -25q-39 -158 -211 -158q-105 0 -168 66t-63 174v68h-57v52h57v49h-57v52h57v37
q0 115 62 181t169 66z" />
    <glyph glyph-name="uni20B4" unicode="&#x20b4;" horiz-adv-x="539" 
d="M38 403v55h313q47 44 47 98q0 108 -116 108q-109 0 -159 -93l-65 30q68 134 229 134q93 0 142 -48t49 -124q0 -58 -40 -105h60v-55h-124q-20 -13 -58 -35.5t-54 -32.5h235v-55h-306q-46 -48 -46 -106q0 -53 36 -83t98 -30q110 0 161 105l61 -29q-64 -147 -227 -147
q-104 0 -156.5 49t-52.5 128q0 63 40 113h-68v55h128q11 8 109 68h-236z" />
    <glyph glyph-name="afii61248" unicode="&#x2105;" horiz-adv-x="846" 
d="M199 735q50 0 87.5 -26.5t50.5 -66.5l-55 -22q-20 53 -78 53q-39 0 -60 -24.5t-21 -67.5v-145q0 -41 21 -65.5t60 -24.5q61 0 78 58l56 -19q-26 -97 -140 -97q-69 0 -110.5 40.5t-41.5 107.5v145q0 72 41 113t112 41zM801 286v-136q0 -72 -43 -114t-120 -42t-119.5 42
t-42.5 114v135q0 72 42.5 114t119.5 42t120 -42t43 -113zM724 150v135q0 94 -86 94t-86 -93v-136q0 -95 86 -95t86 95zM247 0h-55l392 725h56z" />
    <glyph glyph-name="afii61289" unicode="&#x2113;" horiz-adv-x="693" 
d="M176 253l-12 59q31 8 58 21q15 181 71 291t136 110q90 0 90 -118q0 -82 -63.5 -166.5t-162.5 -143.5q-2 -28 -2 -88q0 -90 11 -123.5t39 -33.5q25 0 49.5 33t40.5 81l59 -17q-19 -72 -65 -121t-100 -49q-55 0 -81.5 51t-26.5 169q0 40 1 60q-21 -9 -42 -15zM421 666
q-39 0 -74 -76t-50 -213h2q67 48 110.5 111t43.5 120q0 58 -32 58z" />
    <glyph glyph-name="afii61352" unicode="&#x2116;" horiz-adv-x="912" 
d="M80 725h75l305 -526h2v526h85v-725h-69l-311 539h-2v-539h-85v725zM861 621v-99q0 -51 -33 -82t-93 -31t-93 31t-33 82v99q0 51 33 83t92 32q61 0 94 -31.5t33 -83.5zM670 618v-95q0 -61 64 -61q65 0 65 62v95q0 64 -65 64q-64 0 -64 -65zM614 324v50h251v-50h-251z" />
    <glyph glyph-name="uni2117" unicode="&#x2117;" horiz-adv-x="714" 
d="M662 424v-126q0 -135 -82 -223.5t-223 -88.5t-222.5 88.5t-81.5 223.5v126q0 135 81.5 223t222.5 88t223 -88t82 -223zM604 299v124q0 115 -65.5 186.5t-181.5 71.5q-115 0 -181 -72t-66 -186v-124q0 -114 66 -186t181 -72q116 0 181.5 71.5t65.5 186.5zM377 609
q74 0 113.5 -39.5t39.5 -111.5q0 -71 -39 -110.5t-111 -39.5h-89v-191h-69v492h155zM291 553v-192h84q45 0 65.5 23.5t20.5 73.5q0 49 -20.5 72t-65.5 23h-84z" />
    <glyph glyph-name="uni2120" unicode="&#x2120;" horiz-adv-x="596" 
d="M511 725h53v-314h-51v206h-2l-77 -156h-24l-76 156h-2v-206h-52v314h53l88 -190h2zM235 662l-41 -15q-19 41 -59 41q-49 0 -49 -38q0 -21 23.5 -36t51 -23.5t51 -32t23.5 -59.5q0 -41 -28.5 -67.5t-74.5 -26.5q-80 0 -109 72l39 19q21 -47 68 -47q48 0 48 44
q0 19 -15.5 31.5t-37.5 21t-44 18.5t-37.5 30.5t-15.5 49.5q0 38 28 63.5t77 25.5q76 0 102 -71z" />
    <glyph glyph-name="trademark" unicode="&#x2122;" horiz-adv-x="572" 
d="M487 725h53v-314h-51v206h-2l-77 -156h-24l-76 156h-2v-206h-52v314h53l88 -190h2zM14 725h205v-49h-74v-265h-57v265h-74v49z" />
    <glyph glyph-name="Omega" unicode="&#x2126;" horiz-adv-x="601" 
d="M301 735q119 0 181.5 -58.5t62.5 -166.5v-132q0 -149 -140 -195v-103h136v-80h-205v236q59 12 86 46t27 94v132q0 71 -38 108.5t-110 37.5t-110.5 -37.5t-38.5 -108.5v-132q0 -60 27 -94t86 -46v-236h-205v80h137v103q-141 45 -141 195v132q0 108 63 166.5t182 58.5z" />
    <glyph glyph-name="estimated" unicode="&#x212e;" horiz-adv-x="781" 
d="M735 351h-586v-99q0 -85 71 -152t188 -67q156 0 254 124l41 -29q-106 -141 -299 -141q-157 0 -257.5 101t-100.5 247q0 149 97 249.5t248 100.5q150 0 240.5 -92t103.5 -242zM149 440v-39h483v39q0 85 -65.5 143t-174.5 58q-107 0 -175 -61.5t-68 -139.5z" />
    <glyph glyph-name="uni2150" unicode="&#x2150;" horiz-adv-x="527" 
d="M114 727h47v-321h-60v224h-68v39h28q29 0 39 10.5t14 47.5zM70 0h-61l393 725h61zM388 0h-64l126 271h-164v48h223v-43z" />
    <glyph glyph-name="uni2151" unicode="&#x2151;" horiz-adv-x="545" 
d="M114 727h47v-321h-60v224h-68v39h28q29 0 39 10.5t14 47.5zM70 0h-61l393 725h61zM300 59l36 21q20 -39 64 -39q59 0 59 60v42h-2q-25 -19 -66 -19q-43 0 -69 24t-26 72q0 49 28.5 76t82.5 27q51 0 79.5 -29t28.5 -78v-113q0 -49 -30.5 -78t-81.5 -29q-77 0 -103 63z
M402 167q21 0 39 9t18 24v23q0 55 -52 55q-56 0 -56 -55q0 -30 12.5 -43t38.5 -13z" />
    <glyph glyph-name="uni2152" unicode="&#x2152;" horiz-adv-x="762" 
d="M114 727h47v-321h-60v224h-68v39h28q29 0 39 10.5t14 47.5zM70 0h-61l393 725h61zM382 321h47v-321h-60v224h-68v39h28q29 0 39 10.5t14 47.5zM735 209v-100q0 -52 -29.5 -82.5t-81.5 -30.5q-53 0 -82 30.5t-29 82.5v100q0 53 29 83.5t82 30.5t82 -31t29 -83zM569 208
v-99q0 -66 55 -66q54 0 54 66v99q0 66 -54 66q-55 0 -55 -66z" />
    <glyph glyph-name="onethird" unicode="&#x2153;" horiz-adv-x="582" 
d="M152 727h47v-321h-60v224h-68v39h28q29 0 39 10.5t14 47.5zM121 0h-61l393 725h61zM409 143v42h25q52 0 52 46t-47 46q-46 0 -61 -45l-43 16q12 35 40.5 55t68.5 20q51 0 76.5 -24t25.5 -61q0 -55 -46 -71v-2q53 -14 53 -72q0 -47 -29 -72t-81 -25q-85 0 -110 70l42 17
q18 -43 64 -43q53 0 53 56q0 26 -14 36.5t-43 10.5h-26z" />
    <glyph glyph-name="twothirds" unicode="&#x2154;" horiz-adv-x="582" 
d="M137 729q51 0 77 -25t26 -62q0 -36 -21.5 -65t-48.5 -45t-51.5 -37.5t-28.5 -43.5h152v-45h-213l-1 26q1 34 25.5 65t53 49.5t52 44t23.5 49.5q0 43 -49 43q-47 0 -62 -53l-45 15q11 37 39.5 60.5t71.5 23.5zM121 0h-61l393 725h61zM409 143v42h25q52 0 52 46t-47 46
q-46 0 -61 -45l-43 16q12 35 40.5 55t68.5 20q51 0 76.5 -24t25.5 -61q0 -55 -46 -71v-2q53 -14 53 -72q0 -47 -29 -72t-81 -25q-85 0 -110 70l42 17q18 -43 64 -43q53 0 53 56q0 26 -14 36.5t-43 10.5h-26z" />
    <glyph glyph-name="uni2155" unicode="&#x2155;" horiz-adv-x="582" 
d="M152 727h47v-321h-60v224h-68v39h28q29 0 39 10.5t14 47.5zM121 0h-61l393 725h61zM381 141l-38 19l14 159h185l-3 -47h-136l-8 -83h2q26 14 59 14q98 0 98 -100q0 -107 -113 -107q-82 0 -106 70l42 17q17 -42 61 -42q57 0 57 62q0 29 -13.5 42t-44.5 13q-34 0 -56 -17z
" />
    <glyph glyph-name="uni2156" unicode="&#x2156;" horiz-adv-x="582" 
d="M137 729q51 0 77 -25t26 -62q0 -36 -21.5 -65t-48.5 -45t-51.5 -37.5t-28.5 -43.5h152v-45h-213l-1 26q1 34 25.5 65t53 49.5t52 44t23.5 49.5q0 43 -49 43q-47 0 -62 -53l-45 15q11 37 39.5 60.5t71.5 23.5zM121 0h-61l393 725h61zM381 141l-38 19l14 159h185l-3 -47
h-136l-8 -83h2q26 14 59 14q98 0 98 -100q0 -107 -113 -107q-82 0 -106 70l42 17q17 -42 61 -42q57 0 57 62q0 29 -13.5 42t-44.5 13q-34 0 -56 -17z" />
    <glyph glyph-name="uni2157" unicode="&#x2157;" horiz-adv-x="582" 
d="M99 549v42h25q52 0 52 46t-47 46q-46 0 -61 -45l-43 16q12 35 40.5 55t68.5 20q51 0 76.5 -24t25.5 -61q0 -55 -46 -71v-2q53 -14 53 -72q0 -47 -29 -72t-81 -25q-85 0 -110 70l42 17q18 -43 64 -43q53 0 53 56q0 26 -14 36.5t-43 10.5h-26zM121 0h-61l393 725h61z
M381 141l-38 19l14 159h185l-3 -47h-136l-8 -83h2q26 14 59 14q98 0 98 -100q0 -107 -113 -107q-82 0 -106 70l42 17q17 -42 61 -42q57 0 57 62q0 29 -13.5 42t-44.5 13q-34 0 -56 -17z" />
    <glyph glyph-name="uni2158" unicode="&#x2158;" horiz-adv-x="582" 
d="M209 406h-51v59h-156v38l152 222h55v-216h41l-5 -44h-36v-59zM63 509h95l4 154h-2l-97 -152v-2zM121 0h-61l393 725h61zM381 141l-38 19l14 159h185l-3 -47h-136l-8 -83h2q26 14 59 14q98 0 98 -100q0 -107 -113 -107q-82 0 -106 70l42 17q17 -42 61 -42q57 0 57 62
q0 29 -13.5 42t-44.5 13q-34 0 -56 -17z" />
    <glyph glyph-name="uni2159" unicode="&#x2159;" horiz-adv-x="582" 
d="M152 727h47v-321h-60v224h-68v39h28q29 0 39 10.5t14 47.5zM121 0h-61l393 725h61zM451 323q75 0 98 -66l-38 -18q-15 38 -56 38q-63 0 -63 -69v-26h2q22 21 66 21q96 0 96 -96q0 -55 -28.5 -83t-81.5 -28q-52 0 -80.5 30.5t-28.5 86.5v89q0 53 31 87t83 34zM449 158
q-22 0 -39 -8t-18 -20v-26q0 -61 56 -61q53 0 53 62q0 53 -52 53z" />
    <glyph glyph-name="uni215A" unicode="&#x215a;" horiz-adv-x="582" 
d="M71 547l-38 19l14 159h185l-3 -47h-136l-8 -83h2q26 14 59 14q98 0 98 -100q0 -107 -113 -107q-82 0 -106 70l42 17q17 -42 61 -42q57 0 57 62q0 29 -13.5 42t-44.5 13q-34 0 -56 -17zM121 0h-61l393 725h61zM451 323q75 0 98 -66l-38 -18q-15 38 -56 38q-63 0 -63 -69
v-26h2q22 21 66 21q96 0 96 -96q0 -55 -28.5 -83t-81.5 -28q-52 0 -80.5 30.5t-28.5 86.5v89q0 53 31 87t83 34zM449 158q-22 0 -39 -8t-18 -20v-26q0 -61 56 -61q53 0 53 62q0 53 -52 53z" />
    <glyph glyph-name="oneeighth" unicode="&#x215b;" horiz-adv-x="582" 
d="M152 727h47v-321h-60v224h-68v39h28q29 0 39 10.5t14 47.5zM121 0h-61l393 725h61zM445 -4q-114 0 -114 97q0 59 50 75v2q-41 18 -41 68q0 39 25.5 62t79.5 23q104 0 104 -85q0 -52 -41 -68v-2q50 -16 50 -75q0 -97 -113 -97zM501 96q0 49 -56 49q-29 0 -43 -11t-14 -38
q0 -31 14 -43.5t43 -12.5q30 0 43 12.5t13 43.5zM445 279q-28 0 -40 -10.5t-12 -36.5q0 -25 12 -36t40 -11q27 0 39 11t12 36q0 26 -11.5 36.5t-39.5 10.5z" />
    <glyph glyph-name="threeeighths" unicode="&#x215c;" horiz-adv-x="582" 
d="M99 549v42h25q52 0 52 46t-47 46q-46 0 -61 -45l-43 16q12 35 40.5 55t68.5 20q51 0 76.5 -24t25.5 -61q0 -55 -46 -71v-2q53 -14 53 -72q0 -47 -29 -72t-81 -25q-85 0 -110 70l42 17q18 -43 64 -43q53 0 53 56q0 26 -14 36.5t-43 10.5h-26zM121 0h-61l393 725h61z
M445 -4q-114 0 -114 97q0 59 50 75v2q-41 18 -41 68q0 39 25.5 62t79.5 23q104 0 104 -85q0 -52 -41 -68v-2q50 -16 50 -75q0 -97 -113 -97zM501 96q0 49 -56 49q-29 0 -43 -11t-14 -38q0 -31 14 -43.5t43 -12.5q30 0 43 12.5t13 43.5zM445 279q-28 0 -40 -10.5t-12 -36.5
q0 -25 12 -36t40 -11q27 0 39 11t12 36q0 26 -11.5 36.5t-39.5 10.5z" />
    <glyph glyph-name="fiveeighths" unicode="&#x215d;" horiz-adv-x="582" 
d="M71 547l-38 19l14 159h185l-3 -47h-136l-8 -83h2q26 14 59 14q98 0 98 -100q0 -107 -113 -107q-82 0 -106 70l42 17q17 -42 61 -42q57 0 57 62q0 29 -13.5 42t-44.5 13q-34 0 -56 -17zM121 0h-61l393 725h61zM445 -4q-114 0 -114 97q0 59 50 75v2q-41 18 -41 68
q0 39 25.5 62t79.5 23q104 0 104 -85q0 -52 -41 -68v-2q50 -16 50 -75q0 -97 -113 -97zM501 96q0 49 -56 49q-29 0 -43 -11t-14 -38q0 -31 14 -43.5t43 -12.5q30 0 43 12.5t13 43.5zM445 279q-28 0 -40 -10.5t-12 -36.5q0 -25 12 -36t40 -11q27 0 39 11t12 36
q0 26 -11.5 36.5t-39.5 10.5z" />
    <glyph glyph-name="seveneighths" unicode="&#x215e;" horiz-adv-x="582" 
d="M176 406h-64l126 271h-164v48h223v-43zM121 0h-61l393 725h61zM445 -4q-114 0 -114 97q0 59 50 75v2q-41 18 -41 68q0 39 25.5 62t79.5 23q104 0 104 -85q0 -52 -41 -68v-2q50 -16 50 -75q0 -97 -113 -97zM501 96q0 49 -56 49q-29 0 -43 -11t-14 -38q0 -31 14 -43.5
t43 -12.5q30 0 43 12.5t13 43.5zM445 279q-28 0 -40 -10.5t-12 -36.5q0 -25 12 -36t40 -11q27 0 39 11t12 36q0 26 -11.5 36.5t-39.5 10.5z" />
    <glyph glyph-name="uni215F" unicode="&#x215f;" horiz-adv-x="582" 
d="M152 727h47v-321h-60v224h-68v39h28q29 0 39 10.5t14 47.5zM121 0h-61l393 725h61z" />
    <glyph glyph-name="uni2189" unicode="&#x2189;" horiz-adv-x="605" 
d="M250 615v-100q0 -52 -29.5 -82.5t-81.5 -30.5q-53 0 -82 30.5t-29 82.5v100q0 53 29 83.5t82 30.5t82 -31t29 -83zM84 614v-99q0 -66 55 -66q54 0 54 66v99q0 66 -54 66q-55 0 -55 -66zM130 0h-61l393 725h61zM431 143v42h25q52 0 52 46t-47 46q-46 0 -61 -45l-43 16
q12 35 40.5 55t68.5 20q51 0 76.5 -24t25.5 -61q0 -55 -46 -71v-2q53 -14 53 -72q0 -47 -29 -72t-81 -25q-85 0 -110 70l42 17q18 -43 64 -43q53 0 53 56q0 26 -14 36.5t-43 10.5h-26z" />
    <glyph glyph-name="partialdiff" unicode="&#x2202;" horiz-adv-x="486" 
d="M267 515q81 0 117 -46h2q1 8 1 24q0 78 -39 126t-129 65l23 56q118 -18 168 -82t50 -169q0 -45 -10 -108l-32 -200q-14 -86 -75.5 -138t-156.5 -52q-81 0 -122.5 38.5t-41.5 104.5q0 12 4 40l27 158q14 82 71 132.5t143 50.5zM331 176l26 153q3 18 3 34q0 84 -90 84
q-55 0 -89 -31t-43 -87l-26 -153q-3 -18 -3 -34q0 -84 90 -84q111 0 132 118z" />
    <glyph glyph-name="Delta" unicode="&#x2206;" horiz-adv-x="606" 
d="M11 0l253 725h80l251 -725h-584zM304 615l-171 -536h340l-167 536h-2z" />
    <glyph glyph-name="product" unicode="&#x220f;" horiz-adv-x="617" 
d="M30 725h556v-83h-69v-713h-88v713h-242v-713h-87v713h-70v83z" />
    <glyph glyph-name="summation" unicode="&#x2211;" horiz-adv-x="555" 
d="M33 725h488v-83h-357v-2l209 -299l-210 -328v-2h368v-83h-498v41l239 372l-239 338v46z" />
    <glyph glyph-name="minus" unicode="&#x2212;" horiz-adv-x="475" 
d="M423 278h-371v66h371v-66z" />
    <glyph glyph-name="uni2215" unicode="&#x2215;" horiz-adv-x="279" 
d="M-7 0h-61l393 725h61z" />
    <glyph glyph-name="uni2219" unicode="&#x2219;" 
d="M147 310q0 55 34.5 93.5t84.5 38.5q51 0 85.5 -38t34.5 -94q0 -55 -34.5 -93t-85.5 -38q-50 0 -84.5 38t-34.5 93z" />
    <glyph glyph-name="radical" unicode="&#x221a;" horiz-adv-x="585" 
d="M580 748l-243 -748h-99l-145 425l-81 14v66h159l116 -394h2l185 637h106z" />
    <glyph glyph-name="infinity" unicode="&#x221e;" horiz-adv-x="571" 
d="M531 288q0 -73 -30.5 -110.5t-77.5 -37.5q-39 0 -68.5 22t-69.5 73q-39 -50 -68 -72.5t-68 -22.5q-47 0 -78 37.5t-31 110.5t31 110t78 37q39 0 67.5 -22.5t68.5 -73.5q41 51 70 73.5t68 22.5q47 0 77.5 -37t30.5 -110zM252 288q-43 54 -59.5 68.5t-37.5 14.5
q-53 0 -53 -83t53 -83q22 0 38 14t59 69zM320 288q26 -34 37 -47t27 -24.5t32 -11.5q53 0 53 83t-53 83q-20 0 -38 -16t-58 -67z" />
    <glyph glyph-name="integral" unicode="&#x222b;" horiz-adv-x="219" 
d="M254 840l7 -67q-100 -12 -100 -131v-613q0 -186 -179 -198l-8 67q101 12 101 131v613q0 186 179 198z" />
    <glyph glyph-name="approxequal" unicode="&#x2248;" horiz-adv-x="475" 
d="M414 419v-66q-47 -26 -92 -26q-32 0 -89 18.5t-87 18.5q-43 0 -85 -26v66q47 26 93 26q34 0 91.5 -18.5t86.5 -18.5q44 0 82 26zM414 274v-66q-47 -26 -92 -26q-32 0 -89 18.5t-87 18.5q-43 0 -85 -26v66q47 26 92 26q34 0 92 -19t87 -19q42 0 82 27z" />
    <glyph glyph-name="notequal" unicode="&#x2260;" horiz-adv-x="475" 
d="M367 494l-45 -85h92v-66h-126l-41 -79h167v-67h-202l-58 -111l-43 24l45 87h-95v67h130l41 79h-171v66h206l57 110z" />
    <glyph glyph-name="lessequal" unicode="&#x2264;" horiz-adv-x="475" 
d="M395 457l-214 -125l215 -123v-84l-337 203v10l336 205v-86zM65 31v64h332v-64h-332z" />
    <glyph glyph-name="greaterequal" unicode="&#x2265;" horiz-adv-x="475" 
d="M79 209l214 123l-213 125v86l336 -205v-10l-337 -203v84zM410 95v-64h-332v64h332z" />
    <glyph glyph-name="dotmath" unicode="&#x22c5;" 
d="M205 318q0 27 17.5 46.5t42.5 19.5t43.5 -19.5t18.5 -46.5t-18 -46t-44 -19q-25 0 -42.5 19t-17.5 46z" />
    <glyph glyph-name="lozenge" unicode="&#x25ca;" horiz-adv-x="425" 
d="M41 298l172 257l172 -257l-172 -258zM113 297l100 -148l98 148l-98 148z" />
    <glyph glyph-name="uni2E18" unicode="&#x2e18;" horiz-adv-x="521" 
d="M499 53q-26 -72 -89 -118.5t-150 -46.5q-109 0 -163 53t-54 130t49 137.5t139 97.5l5 108h65l6 -184v-267q86 20 123 113zM128 74q0 -103 106 -115v282q-106 -61 -106 -167zM321 624v-109h-102v109h102z" />
    <glyph glyph-name="uniFB00" unicode="&#xfb00;" horiz-adv-x="599" 
d="M581 505v-63h-128v-442h-86v442h-196v-442h-86v442h-64v63h64v39q0 81 48.5 131.5t154.5 54.5l5 -61q-125 -5 -125 -126v-38h199v39q0 81 48.5 131.5t154.5 54.5l5 -61q-125 -5 -125 -126v-38h131z" />
    <glyph glyph-name="fi" unicode="&#xfb01;" horiz-adv-x="524" 
d="M288 730l5 -61q-125 -5 -125 -126v-38h283v-505h-86v442h-194v-442h-86v442h-64v63h64v39q0 81 48.5 131.5t154.5 54.5zM368 725h79v-107h-79v107z" />
    <glyph glyph-name="fl" unicode="&#xfb02;" 
d="M292 505v-64h-121v-441h-86v441h-64v64h64v39q0 185 225 185h59v19h85v-748h-85v669h-57q-77 0 -110.5 -30.5t-33.5 -95.5v-38h124z" />
    <glyph glyph-name="uniFB03" unicode="&#xfb03;" horiz-adv-x="803" 
d="M567 730l5 -61q-125 -5 -125 -126v-38h283v-505h-86v442h-194v-442h-86v442h-193v-442h-86v442h-64v63h64v39q0 81 48.5 131.5t154.5 54.5l5 -61q-125 -5 -125 -126v-38h196v39q0 81 48.5 131.5t154.5 54.5zM647 725h79v-107h-79v107z" />
    <glyph glyph-name="uniFB04" unicode="&#xfb04;" horiz-adv-x="812" 
d="M572 505v-63h-121v-442h-86v442h-194v-442h-86v442h-64v63h64v39q0 81 48.5 131.5t154.5 54.5l5 -61q-125 -5 -125 -126v-38h197v39q0 185 225 185h59v19h85v-748h-85v669h-57q-78 0 -111.5 -30.5t-33.5 -95.5v-38h125z" />
    <glyph glyph-name="caron.alt001" horiz-adv-x="274" 
d="M123 725h76l-53 -138h-47z" />
    <glyph glyph-name="ogonek.alt001" horiz-adv-x="274" 
d="M144 15l41 -15q-32 0 -50.5 -20.5t-18.5 -45.5q0 -19 13 -31t35 -12q36 0 67 20l18 -47q-42 -30 -101 -30q-50 0 -76.5 20t-26.5 57q0 34 26 63.5t73 40.5z" />
    <glyph glyph-name="numbersign.subs" horiz-adv-x="282" 
d="M21 76v35h56l8 92h39l-9 -92h63l9 92h38l-8 -92h45v-35h-46l-5 -69h51v-35h-52l-9 -91h-38l8 91h-64l-8 -91h-38l8 91h-48v35h49l6 69h-55zM115 76l-6 -69h63l5 69h-62z" />
    <glyph glyph-name="dollar.subs" horiz-adv-x="257" 
d="M122 253h33l1 -52q57 -14 77 -66l-37 -14q-13 30 -43 37l-7 -95q28 -10 44 -18.5t31 -28t15 -46.5q0 -40 -26 -65t-70 -28l-5 -46h-33l-1 47q-64 11 -86 73l39 17q14 -37 49 -46l7 100q-20 7 -33.5 13t-28 17t-22 26.5t-7.5 36.5q0 37 26 61.5t71 27.5zM190 -37
q0 30 -47 47l-2 -91q49 5 49 44zM69 120q0 -27 43 -44l2 84q-45 -4 -45 -40z" />
    <glyph glyph-name="comma.subs" horiz-adv-x="141" 
d="M38 -117v71h65v-54q0 -53 -14.5 -78t-48.5 -29l-4 28q33 10 33 62h-31z" />
    <glyph glyph-name="period.subs" horiz-adv-x="141" 
d="M38 -119v73h65v-73h-65z" />
    <glyph glyph-name="n.subs" horiz-adv-x="278" 
d="M40 -119v248h48l3 -27h2q29 32 70 32q39 0 59 -24.5t20 -62.5v-166h-54v163q0 46 -41 46q-33 0 -52 -31v-178h-55z" />
    <glyph glyph-name="cent.subs" horiz-adv-x="248" 
d="M236 134l-39 -15q-16 41 -57 41q-58 0 -58 -67v-107q0 -69 57 -69q42 0 58 47l40 -15q-22 -62 -80 -71l-6 -47h-35l-1 47q-43 5 -66 34.5t-23 73.5v110q0 43 23.5 72.5t67.5 34.5l8 50h35l2 -52q50 -12 74 -67z" />
    <glyph glyph-name="sterling.subs" horiz-adv-x="286" 
d="M25 24l-6 37h34q-5 28 -5 43q0 48 28 76.5t79 28.5q39 0 67.5 -20t37.5 -51l-40 -17q-16 41 -62 41q-56 0 -56 -64q0 -18 4 -37h111l-5 -37h-100q6 -35 7 -45q14 -6 41.5 -29.5t45.5 -23.5q29 0 37 47l40 -11q-15 -86 -75 -86q-15 0 -30 7t-22.5 13.5t-21.5 22t-17 18.5
h-2q-10 -61 -62 -61q-22 0 -34.5 12.5t-12.5 34.5q0 24 17 40t48 19l-10 42h-36zM57 -88q19 0 20 41q-30 -2 -30 -27q0 -14 10 -14z" />
    <glyph glyph-name="currency.subs" horiz-adv-x="200" 
d="M39 48q0 19 9 34l-21 23l19 21l22 -24q16 9 32 9q17 0 32 -9l24 25l20 -21l-24 -25q10 -15 10 -33t-10 -35l23 -23l-20 -21l-23 24q-15 -9 -32 -9q-18 0 -32 9l-23 -25l-19 21l22 24q-9 15 -9 35zM72 48q0 -13 8.5 -22t20.5 -9t20.5 9t8.5 22t-8.5 21.5t-20.5 8.5
t-20.5 -8.5t-8.5 -21.5z" />
    <glyph glyph-name="yen.subs" horiz-adv-x="311" 
d="M251 -56h-63v-63h-60v63h-68v34h68v19h-68v34h57v2l-102 170h69l73 -150h2l73 150h69l-102 -170v-2h52v-34h-63v-19h63v-34z" />
    <glyph glyph-name="franc.subs" horiz-adv-x="269" 
d="M2 -74v36h35v241h214v-49h-153v-89h131v-46h-131v-57h50v-36h-50v-45h-61v45h-35z" />
    <glyph glyph-name="lira.subs" horiz-adv-x="286" 
d="M25 45l-5 28h31q-3 17 -3 31q0 48 28 76.5t79 28.5q39 0 67.5 -20t37.5 -51l-40 -17q-16 41 -62 41q-56 0 -56 -64q0 -15 2 -25h118l-6 -28h-108l2 -14h103l-5 -28h-93q4 -24 4 -31q15 -5 42.5 -25.5t44.5 -20.5q29 0 37 47l40 -11q-15 -86 -75 -86q-20 0 -35.5 8
t-36.5 30l-21 21q-12 -59 -62 -59q-22 0 -34.5 12t-12.5 32q0 52 67 57q0 1 -7 26h-32l-4 28h29l-3 14h-31zM57 -90q18 0 19 41q-30 -2 -30 -28q0 -13 11 -13z" />
    <glyph glyph-name="peseta.subs" horiz-adv-x="466" 
d="M104 203q80 0 80 -100q0 -47 -20 -73t-57 -26h-34v-123h-49v322h80zM455 61l-29 -13q-8 28 -31 28q-22 0 -22 -26q0 -13 13 -24t28.5 -18.5t28.5 -25t13 -41.5q0 -30 -17 -47.5t-46 -17.5q-52 0 -67 57l30 11q9 -34 35 -34q24 0 24 28q0 15 -13.5 27t-29 19.5t-29 24
t-13.5 39.5q0 28 16.5 46t44.5 18q50 0 64 -51zM309 107v-36h-41v-136q0 -23 22 -23q8 0 16 3l5 -28q-17 -10 -37 -10q-50 0 -50 60v133l-22 6v31l25 1l11 61h30v-62h41zM73 163v-121h30q34 0 34 61q0 60 -34 60h-30z" />
    <glyph glyph-name="Euro.subs" horiz-adv-x="287" 
d="M155 208q39 0 69 -20t40 -50l-43 -18q-15 39 -61 39q-65 0 -65 -70v-6h126l-7 -28h-119v-19h114l-7 -27h-107v-18q0 -32 17 -50.5t48 -18.5q47 0 61 42l44 -16q-23 -72 -110 -72q-55 0 -88 31.5t-33 83.5v18h-26v27h26v19h-26v28h26v6q0 55 32.5 87t88.5 32z" />
    <glyph glyph-name="numbersign.sups" horiz-adv-x="282" 
d="M21 674v35h56l8 92h39l-9 -92h63l9 92h38l-8 -92h45v-35h-46l-5 -69h51v-35h-52l-9 -91h-38l8 91h-64l-8 -91h-38l8 91h-48v35h49l6 69h-55zM114 674l-5 -69h63l5 69h-63z" />
    <glyph glyph-name="dollar.sups" horiz-adv-x="257" 
d="M122 851h33l1 -52q57 -14 77 -66l-37 -14q-13 30 -43 37l-7 -95q28 -10 44 -18.5t31 -28t15 -46.5q0 -40 -26 -65t-70 -29l-5 -45h-33l-1 47q-64 11 -86 73l39 17q14 -37 49 -46l7 100q-20 7 -33.5 13t-28 17t-22 26.5t-7.5 36.5q0 37 26 61.5t71 27.5zM190 561
q0 30 -47 47l-2 -91q49 5 49 44zM69 718q0 -27 43 -44l2 84q-45 -4 -45 -40z" />
    <glyph glyph-name="comma.sups" horiz-adv-x="141" 
d="M38 481v71h65v-54q0 -53 -14.5 -78t-48.5 -29l-4 28q33 10 33 62h-31z" />
    <glyph glyph-name="period.sups" horiz-adv-x="141" 
d="M38 479v73h65v-73h-65z" />
    <glyph glyph-name="cent.sups" horiz-adv-x="248" 
d="M236 732l-39 -15q-16 41 -57 41q-58 0 -58 -67v-107q0 -69 57 -69q42 0 58 47l40 -15q-22 -62 -80 -71l-6 -47h-35l-1 46q-43 6 -66 35.5t-23 73.5v110q0 43 23.5 72.5t67.5 34.5l8 50h35l2 -52q50 -12 74 -67z" />
    <glyph glyph-name="sterling.sups" horiz-adv-x="286" 
d="M25 622l-6 37h34q-5 28 -5 43q0 48 28 76.5t79 28.5q39 0 67.5 -20t37.5 -51l-40 -17q-16 41 -62 41q-56 0 -56 -64q0 -18 4 -37h111l-5 -37h-100q6 -35 7 -45q14 -6 41.5 -29.5t45.5 -23.5q29 0 37 47l40 -11q-15 -86 -75 -86q-15 0 -30 7t-22.5 13.5t-21.5 22t-17 18.5
h-2q-10 -61 -62 -61q-22 0 -34.5 12.5t-12.5 34.5q0 24 17 40t48 19l-10 42h-36zM57 510q19 0 20 41q-30 -2 -30 -27q0 -14 10 -14z" />
    <glyph glyph-name="currency.sups" horiz-adv-x="200" 
d="M39 646q0 19 9 34l-21 23l19 21l22 -24q16 9 32 9q17 0 32 -9l24 25l20 -21l-24 -25q10 -15 10 -33t-10 -35l23 -23l-20 -21l-23 24q-15 -9 -32 -9q-18 0 -32 9l-23 -25l-19 21l22 24q-9 15 -9 35zM72 646q0 -13 8.5 -22t20.5 -9t20.5 9t8.5 22t-8.5 21.5t-20.5 8.5
t-20.5 -8.5t-8.5 -21.5z" />
    <glyph glyph-name="yen.sups" horiz-adv-x="311" 
d="M251 542h-63v-63h-60v63h-68v34h68v19h-68v34h57v2l-102 170h69l73 -150h2l73 150h69l-102 -170v-2h52v-34h-63v-19h63v-34z" />
    <glyph glyph-name="franc.sups" horiz-adv-x="269" 
d="M2 524v36h35v241h214v-49h-153v-89h131v-46h-131v-57h50v-36h-50v-45h-61v45h-35z" />
    <glyph glyph-name="lira.sups" horiz-adv-x="286" 
d="M25 643l-5 28h31q-3 17 -3 31q0 48 28 76.5t79 28.5q39 0 67.5 -20t37.5 -51l-40 -17q-16 41 -62 41q-56 0 -56 -64q0 -15 2 -25h118l-6 -28h-108l2 -14h103l-5 -28h-93q4 -24 4 -31q15 -5 42.5 -25.5t44.5 -20.5q29 0 37 47l40 -11q-15 -86 -75 -86q-20 0 -35.5 8
t-36.5 30l-21 21q-12 -59 -62 -59q-22 0 -34.5 12t-12.5 32q0 52 67 57q0 1 -7 26h-32l-4 28h29l-3 14h-31zM57 508q18 0 19 41q-30 -2 -30 -28q0 -13 11 -13z" />
    <glyph glyph-name="peseta.sups" horiz-adv-x="466" 
d="M104 801q80 0 80 -100q0 -47 -20 -73t-57 -26h-34v-123h-49v322h80zM455 659l-29 -13q-8 28 -31 28q-22 0 -22 -26q0 -13 13 -24t28.5 -18.5t28.5 -25t13 -41.5q0 -30 -17 -47.5t-46 -17.5q-52 0 -67 57l30 11q9 -34 35 -34q24 0 24 28q0 15 -13.5 27t-29 19.5t-29 24
t-13.5 39.5q0 28 16.5 46t44.5 18q50 0 64 -51zM309 705v-36h-41v-136q0 -23 22 -23q8 0 16 3l5 -28q-17 -10 -37 -10q-50 0 -50 60v133l-22 6v31l25 1l11 61h30v-62h41zM73 761v-121h30q34 0 34 61q0 60 -34 60h-30z" />
    <glyph glyph-name="Euro.sups" horiz-adv-x="287" 
d="M155 806q39 0 69 -20t40 -50l-43 -18q-15 39 -61 39q-65 0 -65 -70v-6h126l-7 -28h-119v-19h114l-7 -27h-107v-18q0 -32 17 -50.5t48 -18.5q47 0 61 42l44 -16q-23 -72 -110 -72q-55 0 -88 31.5t-33 83.5v18h-26v27h26v19h-26v28h26v6q0 55 32.5 87t88.5 32z" />
    <glyph glyph-name="numbersign.numr" horiz-adv-x="282" 
d="M21 601v35h56l8 92h39l-9 -92h63l9 92h38l-8 -92h45v-35h-46l-5 -69h51v-35h-52l-9 -91h-38l8 91h-64l-8 -91h-38l8 91h-48v35h49l6 69h-55zM114 601l-5 -69h63l5 69h-63z" />
    <glyph glyph-name="dollar.numr" horiz-adv-x="257" 
d="M122 778h33l1 -52q57 -14 77 -66l-37 -14q-13 30 -43 37l-7 -95q28 -10 44 -18.5t31 -28t15 -46.5q0 -40 -26 -65t-70 -29l-5 -45h-33l-1 47q-64 11 -86 73l39 17q14 -37 49 -46l7 100q-20 7 -33.5 13t-28 17t-22 26.5t-7.5 36.5q0 37 26 61.5t71 27.5zM190 488
q0 30 -47 47l-2 -91q49 5 49 44zM69 645q0 -27 43 -44l2 84q-45 -4 -45 -40z" />
    <glyph glyph-name="parenleft.numr" horiz-adv-x="145" 
d="M33 497v127q0 78 25 114t79 36h13v-36h-13q-58 0 -58 -114v-127q0 -114 58 -114h13v-36h-13q-54 0 -79 36t-25 114z" />
    <glyph glyph-name="parenright.numr" horiz-adv-x="145" 
d="M112 624v-127q0 -78 -25 -114t-79 -36h-13v36h13q57 0 57 114v127q0 114 -57 114h-13v36h13q54 0 79 -36t25 -114z" />
    <glyph glyph-name="plus.numr" horiz-adv-x="238" 
d="M99 459v82h-70v39h70v81h39v-81h71v-39h-71v-82h-39z" />
    <glyph glyph-name="comma.numr" horiz-adv-x="141" 
d="M38 408v71h65v-54q0 -53 -14.5 -78t-48.5 -29l-4 28q33 10 33 62h-31z" />
    <glyph glyph-name="period.numr" horiz-adv-x="141" 
d="M38 406v73h65v-73h-65z" />
    <glyph glyph-name="zero.numr" horiz-adv-x="277" 
d="M250 615v-100q0 -52 -29.5 -82.5t-81.5 -30.5q-53 0 -82 30.5t-29 82.5v100q0 53 29 83.5t82 30.5t82 -31t29 -83zM84 614v-99q0 -66 55 -66q54 0 54 66v99q0 66 -54 66q-55 0 -55 -66z" />
    <glyph glyph-name="one.numr" horiz-adv-x="217" 
d="M114 727h47v-321h-60v224h-68v39h28q29 0 39 10.5t14 47.5z" />
    <glyph glyph-name="two.numr" horiz-adv-x="277" 
d="M141 729q51 0 77 -25t26 -62q0 -36 -21.5 -65t-48.5 -45t-51.5 -37.5t-28.5 -43.5h152v-45h-213l-1 26q1 34 25.5 65t53 49.5t52 44t23.5 49.5q0 43 -49 43q-47 0 -62 -53l-45 15q11 37 39.5 60.5t71.5 23.5z" />
    <glyph glyph-name="three.numr" horiz-adv-x="277" 
d="M103 549v42h25q52 0 52 46t-47 46q-46 0 -61 -45l-43 16q12 35 40.5 55t68.5 20q51 0 76.5 -24t25.5 -61q0 -55 -46 -71v-2q53 -14 53 -72q0 -47 -29 -72t-81 -25q-85 0 -110 70l42 17q18 -43 64 -43q53 0 53 56q0 26 -14 36.5t-43 10.5h-26z" />
    <glyph glyph-name="four.numr" horiz-adv-x="277" 
d="M225 406h-51v59h-156v38l152 222h55v-216h41l-5 -44h-36v-59zM79 509h95l4 154h-2l-97 -152v-2z" />
    <glyph glyph-name="five.numr" horiz-adv-x="277" 
d="M75 547l-38 19l14 159h185l-3 -47h-136l-8 -83h2q26 14 59 14q98 0 98 -100q0 -107 -113 -107q-82 0 -106 70l42 17q17 -42 61 -42q57 0 57 62q0 29 -13.5 42t-44.5 13q-34 0 -56 -17z" />
    <glyph glyph-name="six.numr" horiz-adv-x="277" 
d="M145 729q75 0 98 -66l-38 -18q-15 38 -56 38q-63 0 -63 -69v-26h2q22 21 66 21q96 0 96 -96q0 -55 -28.5 -83t-81.5 -28q-52 0 -80.5 30.5t-28.5 86.5v89q0 53 31 87t83 34zM143 564q-22 0 -39 -8t-18 -20v-26q0 -61 56 -61q53 0 53 62q0 53 -52 53z" />
    <glyph glyph-name="seven.numr" horiz-adv-x="259" 
d="M120 406h-64l126 271h-164v48h223v-43z" />
    <glyph glyph-name="eight.numr" horiz-adv-x="277" 
d="M139 402q-114 0 -114 97q0 59 50 75v2q-41 18 -41 68q0 39 25.5 62t79.5 23q104 0 104 -85q0 -52 -41 -68v-2q50 -16 50 -75q0 -97 -113 -97zM195 502q0 49 -56 49q-29 0 -43 -11t-14 -38q0 -31 14 -43.5t43 -12.5q30 0 43 12.5t13 43.5zM139 685q-28 0 -40 -10.5
t-12 -36.5q0 -25 12 -36t40 -11q27 0 39 11t12 36q0 26 -11.5 36.5t-39.5 10.5z" />
    <glyph glyph-name="nine.numr" horiz-adv-x="277" 
d="M32 465l36 21q20 -39 64 -39q59 0 59 60v42h-2q-25 -19 -66 -19q-43 0 -69 24t-26 72q0 49 28.5 76t82.5 27q51 0 79.5 -29t28.5 -78v-113q0 -49 -30.5 -78t-81.5 -29q-77 0 -103 63zM134 573q21 0 39 9t18 24v23q0 55 -52 55q-56 0 -56 -55q0 -30 12.5 -43t38.5 -13z
" />
    <glyph glyph-name="equal.numr" horiz-adv-x="238" 
d="M199 573h-164v39h164v-39zM199 501h-164v39h164v-39z" />
    <glyph glyph-name="n.numr" horiz-adv-x="278" 
d="M40 406v248h48l3 -27h2q29 32 70 32q39 0 59 -24.5t20 -62.5v-166h-54v163q0 46 -41 46q-33 0 -52 -31v-178h-55z" />
    <glyph glyph-name="cent.numr" horiz-adv-x="248" 
d="M236 659l-39 -15q-16 41 -57 41q-58 0 -58 -67v-107q0 -69 57 -69q42 0 58 47l40 -15q-22 -62 -80 -71l-6 -47h-35l-1 46q-43 6 -66 35.5t-23 73.5v110q0 43 23.5 72.5t67.5 34.5l8 50h35l2 -52q50 -12 74 -67z" />
    <glyph glyph-name="sterling.numr" horiz-adv-x="286" 
d="M25 549l-6 37h34q-5 28 -5 43q0 48 28 76.5t79 28.5q39 0 67.5 -20t37.5 -51l-40 -17q-16 41 -62 41q-56 0 -56 -64q0 -18 4 -37h111l-5 -37h-100q6 -35 7 -45q14 -6 41.5 -29.5t45.5 -23.5q29 0 37 47l40 -11q-15 -86 -75 -86q-15 0 -30 7t-22.5 13.5t-21.5 22t-17 18.5
h-2q-10 -61 -62 -61q-22 0 -34.5 12.5t-12.5 34.5q0 24 17 40t48 19l-10 42h-36zM57 437q19 0 20 41q-30 -2 -30 -27q0 -14 10 -14z" />
    <glyph glyph-name="currency.numr" horiz-adv-x="200" 
d="M39 573q0 19 9 34l-21 23l19 21l22 -24q16 9 32 9q17 0 32 -9l24 25l20 -21l-24 -25q10 -15 10 -33t-10 -35l23 -23l-20 -21l-23 24q-15 -9 -32 -9q-18 0 -32 9l-23 -25l-19 21l22 24q-9 15 -9 35zM72 573q0 -13 8.5 -22t20.5 -9t20.5 9t8.5 22t-8.5 21.5t-20.5 8.5
t-20.5 -8.5t-8.5 -21.5z" />
    <glyph glyph-name="yen.numr" horiz-adv-x="311" 
d="M251 469h-63v-63h-60v63h-68v34h68v19h-68v34h57v2l-102 170h69l73 -150h2l73 150h69l-102 -170v-2h52v-34h-63v-19h63v-34z" />
    <glyph glyph-name="franc.numr" horiz-adv-x="269" 
d="M2 451v36h35v241h214v-49h-153v-89h131v-46h-131v-57h50v-36h-50v-45h-61v45h-35z" />
    <glyph glyph-name="lira.numr" horiz-adv-x="286" 
d="M25 570l-5 28h31q-3 16 -3 31q0 48 28 76.5t79 28.5q39 0 67.5 -20t37.5 -51l-40 -17q-16 41 -62 41q-56 0 -56 -64q0 -15 2 -25h118l-6 -28h-108l2 -14h103l-5 -28h-93q4 -24 4 -31q15 -5 42.5 -25.5t44.5 -20.5q29 0 37 47l40 -11q-15 -86 -75 -86q-20 0 -35.5 8
t-36.5 29l-21 22q-12 -59 -62 -59q-22 0 -34.5 12t-12.5 32q0 52 67 57q0 1 -7 26h-32l-4 28h29l-3 14h-31zM57 435q18 0 19 41q-30 -2 -30 -28q0 -13 11 -13z" />
    <glyph glyph-name="peseta.numr" horiz-adv-x="466" 
d="M104 728q80 0 80 -100q0 -47 -20 -73t-57 -26h-34v-123h-49v322h80zM455 586l-29 -13q-8 28 -31 28q-22 0 -22 -26q0 -13 13 -24t28.5 -18.5t28.5 -25t13 -41.5q0 -30 -17 -47.5t-46 -17.5q-52 0 -67 57l30 11q9 -34 35 -34q24 0 24 28q0 15 -13.5 27t-29 19.5t-29 24
t-13.5 39.5q0 28 16.5 46t44.5 18q50 0 64 -51zM309 632v-36h-41v-136q0 -23 22 -23q8 0 16 3l5 -28q-17 -10 -37 -10q-50 0 -50 60v133l-22 6v31l25 1l11 61h30v-62h41zM73 688v-121h30q34 0 34 61q0 60 -34 60h-30z" />
    <glyph glyph-name="Euro.numr" horiz-adv-x="287" 
d="M155 733q39 0 69 -20t40 -50l-43 -18q-15 39 -61 39q-65 0 -65 -70v-6h126l-7 -28h-119v-19h114l-7 -27h-107v-18q0 -32 17 -50.5t48 -18.5q47 0 61 42l44 -16q-23 -72 -110 -72q-55 0 -88 31.5t-33 83.5v18h-26v27h26v19h-26v28h26v6q0 55 32.5 87t88.5 32z" />
    <glyph glyph-name="minus.numr" horiz-adv-x="238" 
d="M209 541h-180v39h180v-39z" />
    <glyph glyph-name="numbersign.dnom" horiz-adv-x="282" 
d="M21 195v35h56l8 92h39l-9 -92h63l9 92h38l-8 -92h45v-35h-46l-5 -69h51v-35h-52l-9 -91h-38l8 91h-64l-8 -91h-38l8 91h-48v35h49l6 69h-55zM115 195l-6 -69h63l5 69h-62z" />
    <glyph glyph-name="dollar.dnom" horiz-adv-x="257" 
d="M122 372h33l1 -52q57 -14 77 -66l-37 -14q-13 30 -43 37l-7 -95q28 -10 44 -18.5t31 -28t15 -46.5q0 -40 -26 -65t-70 -28l-5 -46h-33l-1 47q-64 11 -86 73l39 17q14 -37 49 -46l7 100q-20 7 -33.5 13t-28 17t-22 26.5t-7.5 36.5q0 37 26 61.5t71 27.5zM190 82
q0 30 -47 47l-2 -91q49 5 49 44zM69 239q0 -27 43 -44l2 84q-45 -4 -45 -40z" />
    <glyph glyph-name="parenleft.dnom" horiz-adv-x="145" 
d="M33 91v127q0 78 25 114t79 36h13v-36h-13q-58 0 -58 -114v-127q0 -114 58 -114h13v-36h-13q-54 0 -79 36t-25 114z" />
    <glyph glyph-name="parenright.dnom" horiz-adv-x="145" 
d="M112 218v-127q0 -78 -25 -114t-79 -36h-13v36h13q57 0 57 114v127q0 114 -57 114h-13v36h13q54 0 79 -36t25 -114z" />
    <glyph glyph-name="plus.dnom" horiz-adv-x="238" 
d="M99 53v82h-70v39h70v81h39v-81h71v-39h-71v-82h-39z" />
    <glyph glyph-name="comma.dnom" horiz-adv-x="141" 
d="M38 2v71h65v-54q0 -53 -14.5 -78t-48.5 -29l-4 28q33 10 33 62h-31z" />
    <glyph glyph-name="period.dnom" horiz-adv-x="141" 
d="M38 0v73h65v-73h-65z" />
    <glyph glyph-name="zero.dnom" horiz-adv-x="277" 
d="M250 209v-100q0 -52 -29.5 -82.5t-81.5 -30.5q-53 0 -82 30.5t-29 82.5v100q0 53 29 83.5t82 30.5t82 -31t29 -83zM84 208v-99q0 -66 55 -66q54 0 54 66v99q0 66 -54 66q-55 0 -55 -66z" />
    <glyph glyph-name="one.dnom" horiz-adv-x="217" 
d="M114 321h47v-321h-60v224h-68v39h28q29 0 39 10.5t14 47.5z" />
    <glyph glyph-name="two.dnom" horiz-adv-x="277" 
d="M141 323q51 0 77 -25t26 -62q0 -36 -21.5 -65t-48.5 -45t-51.5 -37.5t-28.5 -43.5h152v-45h-213l-1 26q1 34 25.5 65t53 49.5t52 44t23.5 49.5q0 43 -49 43q-47 0 -62 -53l-45 15q11 37 39.5 60.5t71.5 23.5z" />
    <glyph glyph-name="three.dnom" horiz-adv-x="277" 
d="M103 143v42h25q52 0 52 46t-47 46q-46 0 -61 -45l-43 16q12 35 40.5 55t68.5 20q51 0 76.5 -24t25.5 -61q0 -55 -46 -71v-2q53 -14 53 -72q0 -47 -29 -72t-81 -25q-85 0 -110 70l42 17q18 -43 64 -43q53 0 53 56q0 26 -14 36.5t-43 10.5h-26z" />
    <glyph glyph-name="four.dnom" horiz-adv-x="277" 
d="M225 0h-51v59h-156v38l152 222h55v-216h41l-5 -44h-36v-59zM79 103h95l4 154h-2l-97 -152v-2z" />
    <glyph glyph-name="five.dnom" horiz-adv-x="277" 
d="M75 141l-38 19l14 159h185l-3 -47h-136l-8 -83h2q26 14 59 14q98 0 98 -100q0 -107 -113 -107q-82 0 -106 70l42 17q17 -42 61 -42q57 0 57 62q0 29 -13.5 42t-44.5 13q-34 0 -56 -17z" />
    <glyph glyph-name="six.dnom" horiz-adv-x="277" 
d="M145 323q75 0 98 -66l-38 -18q-15 38 -56 38q-63 0 -63 -69v-26h2q22 21 66 21q96 0 96 -96q0 -55 -28.5 -83t-81.5 -28q-52 0 -80.5 30.5t-28.5 86.5v89q0 53 31 87t83 34zM143 158q-22 0 -39 -8t-18 -20v-26q0 -61 56 -61q53 0 53 62q0 53 -52 53z" />
    <glyph glyph-name="seven.dnom" horiz-adv-x="259" 
d="M120 0h-64l126 271h-164v48h223v-43z" />
    <glyph glyph-name="eight.dnom" horiz-adv-x="277" 
d="M139 -4q-114 0 -114 97q0 59 50 75v2q-41 18 -41 68q0 39 25.5 62t79.5 23q104 0 104 -85q0 -52 -41 -68v-2q50 -16 50 -75q0 -97 -113 -97zM195 96q0 49 -56 49q-29 0 -43 -11t-14 -38q0 -31 14 -43.5t43 -12.5q30 0 43 12.5t13 43.5zM139 279q-28 0 -40 -10.5
t-12 -36.5q0 -25 12 -36t40 -11q27 0 39 11t12 36q0 26 -11.5 36.5t-39.5 10.5z" />
    <glyph glyph-name="nine.dnom" horiz-adv-x="277" 
d="M32 59l36 21q20 -39 64 -39q59 0 59 60v42h-2q-25 -19 -66 -19q-43 0 -69 24t-26 72q0 49 28.5 76t82.5 27q51 0 79.5 -29t28.5 -78v-113q0 -49 -30.5 -78t-81.5 -29q-77 0 -103 63zM134 167q21 0 39 9t18 24v23q0 55 -52 55q-56 0 -56 -55q0 -30 12.5 -43t38.5 -13z" />
    <glyph glyph-name="equal.dnom" horiz-adv-x="238" 
d="M199 167h-164v39h164v-39zM199 95h-164v39h164v-39z" />
    <glyph glyph-name="n.dnom" horiz-adv-x="278" 
d="M40 0v248h48l3 -27h2q29 32 70 32q39 0 59 -24.5t20 -62.5v-166h-54v163q0 46 -41 46q-33 0 -52 -31v-178h-55z" />
    <glyph glyph-name="cent.dnom" horiz-adv-x="248" 
d="M236 253l-39 -15q-16 41 -57 41q-58 0 -58 -67v-107q0 -69 57 -69q42 0 58 47l40 -15q-22 -62 -80 -71l-6 -47h-35l-1 47q-43 5 -66 34.5t-23 73.5v110q0 43 23.5 72.5t67.5 34.5l8 50h35l2 -52q50 -12 74 -67z" />
    <glyph glyph-name="sterling.dnom" horiz-adv-x="286" 
d="M25 143l-6 37h34q-5 28 -5 43q0 48 28 76.5t79 28.5q39 0 67.5 -20t37.5 -51l-40 -17q-16 41 -62 41q-56 0 -56 -64q0 -18 4 -37h111l-5 -37h-100q6 -35 7 -45q14 -6 41.5 -29.5t45.5 -23.5q29 0 37 47l40 -11q-15 -86 -75 -86q-15 0 -30 7t-22.5 13.5t-21.5 22t-17 18.5
h-2q-10 -61 -62 -61q-22 0 -34.5 12.5t-12.5 34.5q0 24 17 40t48 19l-10 42h-36zM57 31q19 0 20 41q-30 -2 -30 -27q0 -14 10 -14z" />
    <glyph glyph-name="currency.dnom" horiz-adv-x="200" 
d="M39 167q0 19 9 34l-21 23l19 21l22 -24q16 9 32 9q17 0 32 -9l24 25l20 -21l-24 -25q10 -15 10 -33t-10 -35l23 -23l-20 -21l-23 24q-15 -9 -32 -9q-18 0 -32 9l-23 -25l-19 21l22 24q-9 15 -9 35zM72 167q0 -13 8.5 -22t20.5 -9t20.5 9t8.5 22t-8.5 21.5t-20.5 8.5
t-20.5 -8.5t-8.5 -21.5z" />
    <glyph glyph-name="yen.dnom" horiz-adv-x="311" 
d="M251 63h-63v-63h-60v63h-68v34h68v19h-68v34h57v2l-102 170h69l73 -150h2l73 150h69l-102 -170v-2h52v-34h-63v-19h63v-34z" />
    <glyph glyph-name="franc.dnom" horiz-adv-x="269" 
d="M2 45v36h35v241h214v-49h-153v-89h131v-46h-131v-57h50v-36h-50v-45h-61v45h-35z" />
    <glyph glyph-name="lira.dnom" horiz-adv-x="286" 
d="M25 164l-5 28h31q-3 16 -3 31q0 48 28 76.5t79 28.5q39 0 67.5 -20t37.5 -51l-40 -17q-16 41 -62 41q-56 0 -56 -64q0 -15 2 -25h118l-6 -28h-108l2 -14h103l-5 -28h-93q4 -24 4 -31q15 -5 42.5 -25.5t44.5 -20.5q29 0 37 47l40 -11q-15 -86 -75 -86q-20 0 -35.5 8
t-36.5 29l-21 22q-12 -59 -62 -59q-22 0 -34.5 12t-12.5 32q0 52 67 57q0 1 -7 26h-32l-4 28h29l-3 14h-31zM57 29q18 0 19 41q-30 -2 -30 -28q0 -13 11 -13z" />
    <glyph glyph-name="peseta.dnom" horiz-adv-x="466" 
d="M104 322q80 0 80 -100q0 -47 -20 -73t-57 -26h-34v-123h-49v322h80zM455 180l-29 -13q-8 28 -31 28q-22 0 -22 -26q0 -13 13 -24t28.5 -18.5t28.5 -25t13 -41.5q0 -30 -17 -47.5t-46 -17.5q-52 0 -67 57l30 11q9 -34 35 -34q24 0 24 28q0 15 -13.5 27t-29 19.5t-29 24
t-13.5 39.5q0 28 16.5 46t44.5 18q50 0 64 -51zM309 226v-36h-41v-136q0 -23 22 -23q8 0 16 3l5 -28q-17 -10 -37 -10q-50 0 -50 60v133l-22 6v31l25 1l11 61h30v-62h41zM73 282v-121h30q34 0 34 61q0 60 -34 60h-30z" />
    <glyph glyph-name="Euro.dnom" horiz-adv-x="287" 
d="M155 327q39 0 69 -20t40 -50l-43 -18q-15 39 -61 39q-65 0 -65 -70v-6h126l-7 -28h-119v-19h114l-7 -27h-107v-18q0 -32 17 -50.5t48 -18.5q47 0 61 42l44 -16q-23 -72 -110 -72q-55 0 -88 31.5t-33 83.5v18h-26v27h26v19h-26v28h26v6q0 55 32.5 87t88.5 32z" />
    <glyph glyph-name="minus.dnom" horiz-adv-x="238" 
d="M209 135h-180v39h180v-39z" />
    <glyph glyph-name="space.frac" horiz-adv-x="46" 
 />
    <glyph glyph-name="numbersign.osf" horiz-adv-x="471" 
d="M29 373v59h97l15 179h64l-16 -179h111l15 179h64l-15 -179h76v-59h-77l-11 -136h88v-59h-90l-15 -178h-64l15 178h-110l-16 -178h-63l15 178h-83v59h85l11 136h-96zM188 373l-10 -136h110l11 136h-111z" />
    <glyph glyph-name="dollar.osf" horiz-adv-x="471" 
d="M45 458q0 66 43.5 108.5t118.5 49.5l15 124h55l3 -128q49 -10 84.5 -41.5t51.5 -77.5l-60 -22q-30 76 -119 76q-103 0 -103 -83q0 -36 30 -62.5t72 -46t84.5 -41t72.5 -60t30 -91.5q0 -70 -41 -115t-111 -54l-13 -130h-56l-3 129q-118 13 -160 135l63 23q36 -94 137 -94
q46 0 73.5 25t27.5 70q0 38 -30.5 65.5t-74 46.5t-86.5 40.5t-73.5 60.5t-30.5 93z" />
    <glyph glyph-name="plus.osf" horiz-adv-x="471" 
d="M201 67v187h-147v66h147v188h66v-188h151v-66h-151v-187h-66z" />
    <glyph glyph-name="zero.osf" horiz-adv-x="498" 
d="M453 385v-193q0 -95 -53 -148t-152 -53q-98 0 -150.5 53.5t-52.5 149.5v186q0 98 53 153t150 55q99 0 152 -53.5t53 -149.5zM131 380v-189q0 -133 117 -133q119 0 119 131v197q0 69 -29 101.5t-90 32.5q-117 0 -117 -140z" />
    <glyph glyph-name="one.osf" horiz-adv-x="343" 
d="M186 406h-152v62h70q59 0 79 24t24 100h70v-592h-91v406z" />
    <glyph glyph-name="two.osf" horiz-adv-x="470" 
d="M248 590q89 0 133 -41t44 -108q0 -76 -68.5 -165t-196.5 -204v-2h272v-70h-390l-1 54q298 252 298 383q0 82 -100 82q-85 0 -136 -78l-61 30q74 119 206 119z" />
    <glyph glyph-name="three.osf" horiz-adv-x="469" 
d="M413 438q0 -117 -87 -147v-2q58 -12 82.5 -47t24.5 -95q0 -244 -369 -244l-7 70q156 0 222 45.5t66 129.5q0 58 -31.5 81t-111.5 23h-28v66h26q69 0 98 27t29 86q0 88 -95 88q-85 0 -141 -79l-60 30q75 120 209 120q86 0 129.5 -42t43.5 -110z" />
    <glyph glyph-name="four.osf" horiz-adv-x="464" 
d="M374 -94h-83v229h-286v62l285 385h84v-381h88l-7 -66h-81v-229zM98 201h194l8 285h-2l-200 -283v-2z" />
    <glyph glyph-name="five.osf" horiz-adv-x="452" 
d="M391 506h-262l-15 -187q55 22 115 22q190 0 190 -178q0 -120 -92.5 -190t-261.5 -70l-8 70q143 0 209.5 49.5t66.5 133.5q0 64 -30.5 90t-97.5 26q-69 0 -116 -28l-56 28l27 310h337z" />
    <glyph glyph-name="six.osf" horiz-adv-x="478" 
d="M385 618q-105 0 -168 -62.5t-76 -184.5h2q48 40 119 40q87 0 135 -49t48 -149q0 -105 -51 -163.5t-147 -58.5t-144.5 61t-48.5 165v93q0 175 86.5 276.5t238.5 101.5zM251 339q-67 0 -112 -46v-75q0 -156 110 -156q111 0 111 148q0 68 -27 98.5t-82 30.5z" />
    <glyph glyph-name="seven.osf" horiz-adv-x="430" 
d="M169 -91h-93l254 598h-321v75h411v-66z" />
    <glyph glyph-name="eight.osf" horiz-adv-x="474" 
d="M237 -9q-197 0 -197 174q0 109 95 139v2q-81 32 -81 131q0 70 45 111.5t138 41.5q94 0 139 -41t45 -111q0 -100 -82 -132v-2q95 -30 95 -139q0 -174 -197 -174zM348 170q0 100 -111 100q-110 0 -110 -99q0 -112 110 -112q57 0 84 27t27 84zM237 523q-52 0 -76.5 -23
t-24.5 -72q0 -97 101 -97q102 0 102 97q0 49 -24 72t-78 23z" />
    <glyph glyph-name="nine.osf" horiz-adv-x="479" 
d="M90 -27q234 0 250 266h-2q-47 -36 -119 -36q-88 0 -136.5 46.5t-48.5 140.5t51 146.5t147 52.5q94 0 143.5 -61t49.5 -162v-90q0 -176 -87 -274.5t-241 -98.5zM229 271q66 0 111 46v48q0 153 -111 153q-110 0 -110 -125q0 -64 27 -93t83 -29z" />
    <glyph glyph-name="less.osf" horiz-adv-x="471" 
d="M407 431l-234 -144l235 -144v-85l-352 223v11l351 224v-85z" />
    <glyph glyph-name="equal.osf" horiz-adv-x="471" 
d="M409 327h-347v67h347v-67zM409 182h-347v67h347v-67z" />
    <glyph glyph-name="greater.osf" horiz-adv-x="471" 
d="M298 287l-234 144v85h2l350 -223v-11l-349 -224h-2v85z" />
    <glyph glyph-name="cent.osf" horiz-adv-x="471" 
d="M425 494l-68 -25q-31 80 -119 80q-114 0 -114 -139v-218q0 -135 116 -135q88 0 118 87l68 -24q-40 -112 -154 -127l-13 -129h-56l-2 128q-163 18 -163 205v209q0 90 43 146.5t128 64.5l14 123h56l2 -125q103 -20 144 -121z" />
    <glyph glyph-name="sterling.osf" horiz-adv-x="471" 
d="M405 493l-62 -23q-22 79 -96 79q-89 0 -89 -126q0 -35 8 -93h178l-7 -54h-164q12 -95 12 -107q20 -9 40.5 -27.5t33.5 -35t30.5 -29.5t33.5 -13q26 0 39.5 21.5t20.5 74.5l60 -16q-19 -155 -114 -155q-26 0 -49.5 13.5t-37 29t-32 40.5t-27.5 34h-2q-12 -117 -94 -117
q-33 0 -52 20.5t-19 57.5q0 44 26.5 73t74.5 35q-11 48 -21 101h-50l-8 54h48q-10 60 -10 96q0 91 43 142t122 51q62 0 105.5 -34t58.5 -92zM91 42q32 0 33 87q-52 -6 -52 -59q0 -28 19 -28z" />
    <glyph glyph-name="currency.osf" horiz-adv-x="375" 
d="M68 310q0 36 19 68l-45 47l35 38l46 -48q29 19 63 19q33 0 65 -20l48 51l35 -37l-47 -51q19 -32 19 -67q0 -40 -20 -69l46 -48l-35 -38l-47 49q-28 -19 -64 -19q-34 0 -63 19l-47 -51l-35 38l46 49q-19 32 -19 70zM123 309q0 -29 18.5 -48.5t45.5 -19.5t46 19.5t19 48.5
q0 30 -19 49.5t-46 19.5t-45.5 -19.5t-18.5 -49.5z" />
    <glyph glyph-name="yen.osf" horiz-adv-x="471" 
d="M400 138h-121v-138h-86v138h-121v53h121v41h-121v53h103l-174 325h96l139 -292h2l136 292h98l-176 -325h104v-53h-121v-41h121v-53z" />
    <glyph glyph-name="logicalnot.osf" horiz-adv-x="471" 
d="M353 104v150h-299v66h364v-216h-65z" />
    <glyph glyph-name="plusminus.osf" horiz-adv-x="471" 
d="M202 126v155h-148v66h148v161h65v-161h151v-66h-151v-155h-65zM418 26h-364v66h364v-66z" />
    <glyph glyph-name="multiply.osf" horiz-adv-x="471" 
d="M345 115l-121 128l-120 -128l-44 47l120 128l-120 129l44 47l120 -129l121 129l44 -47l-121 -129l121 -128z" />
    <glyph glyph-name="divide.osf" horiz-adv-x="471" 
d="M418 255h-364v66h364v-66zM181 462q0 23 15 39.5t37 16.5t38 -16.5t16 -39.5t-16 -39t-38 -16t-37 16t-15 39zM181 118q0 23 15 39.5t37 16.5t38 -16.5t16 -39.5t-16 -39t-38 -16t-37 16t-15 39z" />
    <glyph glyph-name="franc.osf" horiz-adv-x="471" 
d="M20 89v57h59v464h343v-74h-256v-194h220v-69h-220v-127h90v-57h-90v-89h-87v89h-59z" />
    <glyph glyph-name="lira.osf" horiz-adv-x="471" 
d="M405 493l-62 -23q-22 79 -96 79q-89 0 -89 -126q0 -30 4 -59h201l-8 -44h-188l4 -32h178l-8 -41h-164q7 -49 8 -78q20 -9 40.5 -27.5t33.5 -35t30.5 -29.5t33.5 -13q26 0 39.5 21.5t20.5 74.5l60 -16q-19 -155 -114 -155q-26 0 -49.5 13.5t-37 29t-32 40.5t-27.5 34h-2
q-12 -117 -94 -117q-33 0 -52 20.5t-19 57.5q0 44 26.5 73t74.5 35q-8 32 -16 72h-46l-7 41h45l-5 32h-48l-8 44h49q-5 38 -5 62q0 91 43 142t122 51q62 0 105.5 -34t58.5 -92zM91 42q32 0 33 87q-52 -6 -52 -59q0 -28 19 -28z" />
    <glyph glyph-name="peseta.osf" horiz-adv-x="471" 
d="M11 396v52h51v162h189q75 0 117.5 -42t48.5 -120h41v-52h-41q-7 -76 -48.5 -118t-112.5 -42h-108v-236h-86v396h-51zM249 300q40 0 59.5 24t22.5 75h-183v-99h101zM148 539v-94h183q-3 49 -22.5 71.5t-59.5 22.5h-101z" />
    <glyph glyph-name="Euro.osf" horiz-adv-x="471" 
d="M427 494l-68 -25q-28 80 -110 80q-107 0 -107 -133v-35h178l-10 -46h-168v-42h160l-10 -45h-150v-60q0 -130 108 -130q83 0 110 85l69 -23q-43 -130 -183 -130q-95 0 -142 53t-47 150v55h-38v45h38v42h-38v46h38v31q0 94 47.5 150.5t141.5 56.5q65 0 112.5 -33t68.5 -92z
" />
    <glyph glyph-name="uni20B4.osf" horiz-adv-x="477" 
d="M42 335v50h265q36 34 36 77q0 41 -20.5 64t-72.5 23q-89 0 -128 -76l-64 27q58 116 197 116q81 0 123 -40.5t42 -105.5q0 -47 -31 -85h48v-50h-105q-17 -12 -51 -32t-39 -23h194v-50h-258q-35 -38 -35 -84q0 -42 28.5 -65.5t77.5 -23.5q91 0 132 85l59 -26
q-55 -126 -195 -126q-90 0 -134.5 41t-44.5 108q0 52 30 91h-54v50h106q9 6 90 55h-196z" />
    <glyph glyph-name="minus.osf" horiz-adv-x="471" 
d="M418 254h-364v66h364v-66z" />
    <glyph glyph-name="approxequal.osf" horiz-adv-x="471" 
d="M409 399v-66q-47 -26 -91 -26q-32 0 -86.5 18.5t-84.5 18.5q-42 0 -84 -26v66q47 26 92 26q33 0 89 -18.5t84 -18.5q43 0 81 26zM409 254v-66q-47 -26 -91 -26q-32 0 -86.5 18.5t-84.5 18.5q-42 0 -84 -26v66q47 26 91 26q33 0 89.5 -19t84.5 -19q41 0 81 27z" />
    <glyph glyph-name="notequal.osf" horiz-adv-x="471" 
d="M409 182h-195l-58 -112l-44 24l46 88h-96v67h131l41 78h-172v67h207l57 109l43 -25l-44 -84h84v-67h-119l-41 -78h160v-67z" />
    <glyph glyph-name="lessequal.osf" horiz-adv-x="471" 
d="M407 437l-227 -118v-2l228 -116v-83l-352 195v10l351 198v-84zM62 27v61h346v-61h-346z" />
    <glyph glyph-name="greaterequal.osf" horiz-adv-x="471" 
d="M63 201l227 116v2l-226 118v84l350 -198v-10l-351 -195v83zM408 88v-61h-345v61h345z" />
    <glyph glyph-name="numbersign.tf" 
d="M32 449v60h117l18 216h63l-18 -216h136l18 216h63l-18 -216h91v-60h-92l-13 -174h105v-60h-108l-17 -215h-64l18 215h-136l-17 -215h-64l18 215h-100v60h102l14 174h-116zM211 449l-13 -174h135l14 174h-136z" />
    <glyph glyph-name="dollar.tf" 
d="M253 832h59l1 -102q62 -12 107 -49.5t65 -92.5l-63 -26q-32 76 -116 92l-14 -247q46 -17 75 -31t62 -39t49.5 -60t16.5 -81q0 -90 -58 -144t-155 -61l-10 -94h-58l-2 97q-69 10 -118 52.5t-71 108.5l67 31q32 -91 127 -112l15 261q-47 17 -74.5 30.5t-60.5 37.5t-49 58.5
t-16 80.5q0 81 57.5 134.5t152.5 57.5zM414 185q0 48 -32.5 76.5t-93.5 52.5l-6 -245q63 4 97.5 33t34.5 83zM117 550q0 -44 30.5 -71t88.5 -51l4 229q-62 -5 -92.5 -34t-30.5 -73z" />
    <glyph glyph-name="plus.tf" 
d="M232 87v191h-151v66h151v192h65v-192h155v-66h-155v-191h-65z" />
    <glyph glyph-name="zero.tf" 
d="M493 490v-259q0 -113 -59 -177t-167 -64q-109 0 -168 64t-59 177v259q0 114 59 179.5t168 65.5q108 0 167 -65.5t59 -179.5zM130 490v-259q0 -163 137 -163t137 163v259q0 165 -137 165t-137 -165z" />
    <glyph glyph-name="one.tf" 
d="M154 0v56h131v482h-173v64h91q59 0 79 23t25 104h70v-673h122v-56h-345z" />
    <glyph glyph-name="two.tf" 
d="M276 735q103 0 156 -52.5t53 -134.5q0 -51 -17 -95t-44 -76t-60.5 -61t-68 -55.5t-64 -53t-51 -60.5t-26.5 -71h340v-76h-433l-2 47q1 55 26.5 105t63 86t80.5 74.5t79.5 71t61 75t24.5 86.5q0 112 -123 112q-54 0 -92 -33.5t-52 -92.5l-71 23q20 79 76.5 130t143.5 51z
" />
    <glyph glyph-name="three.tf" 
d="M207 340v71h51q128 0 128 124q0 123 -118 123q-106 0 -143 -114l-69 24q24 77 81.5 122t137.5 45q101 0 152.5 -52.5t51.5 -138.5q0 -129 -101 -164v-2q116 -29 116 -168q0 -109 -56.5 -164.5t-164.5 -55.5q-170 0 -222 152l66 27q21 -51 60.5 -78t90.5 -27
q70 0 101 37.5t31 113.5q0 69 -35.5 97t-105.5 28h-52z" />
    <glyph glyph-name="four.tf" 
d="M435 0h-84v138h-333v60l331 527h86v-513h94l-8 -74h-86v-138zM119 212h232l5 398h-2l-235 -396v-2z" />
    <glyph glyph-name="five.tf" 
d="M121 336l-60 31l31 358h374l-6 -80h-297l-20 -224h2q66 37 143 37q206 0 206 -226q0 -118 -59.5 -180t-171.5 -62q-76 0 -132.5 39.5t-79.5 114.5l67 26q19 -52 57 -78.5t84 -26.5q74 0 108.5 41.5t34.5 125.5q0 80 -34 115.5t-108 35.5q-39 0 -77.5 -13.5t-61.5 -33.5z
" />
    <glyph glyph-name="six.tf" 
d="M278 735q71 0 123 -37.5t74 -107.5l-63 -28q-35 96 -130 96q-71 0 -108 -46.5t-37 -129.5v-79h2q55 53 151 53q201 0 201 -217q0 -124 -58 -186.5t-164 -62.5q-102 0 -161.5 61t-59.5 176v246q0 117 61.5 189.5t168.5 72.5zM274 381q-54 0 -94.5 -22.5t-42.5 -58.5v-81
q0 -76 36.5 -113.5t97.5 -37.5q132 0 132 169q0 73 -31 108.5t-98 35.5z" />
    <glyph glyph-name="seven.tf" 
d="M228 0h-101l283 646h-383v79h482v-68z" />
    <glyph glyph-name="eight.tf" 
d="M267 -10q-115 0 -173.5 53t-58.5 166q0 139 108 176v2q-91 39 -91 157q0 90 52 140.5t163 50.5t163 -50.5t52 -140.5q0 -118 -92 -157v-2q108 -37 108 -176q0 -219 -231 -219zM408 213q0 71 -36.5 101.5t-104.5 30.5t-104.5 -30.5t-36.5 -101.5q0 -81 34 -114.5
t107 -33.5t107 33.5t34 114.5zM267 661q-69 0 -99.5 -28.5t-30.5 -94.5q0 -65 31 -94.5t99 -29.5t98.5 29.5t30.5 94.5q0 66 -30 94.5t-99 28.5z" />
    <glyph glyph-name="nine.tf" 
d="M112 162q23 -50 57.5 -72.5t87.5 -22.5q65 0 101.5 37t36.5 106v132h-2q-52 -52 -146 -52q-99 0 -152.5 53.5t-53.5 162.5t58.5 169t169.5 60q100 0 158 -60t58 -160v-301q0 -101 -62 -162.5t-162 -61.5q-158 0 -209 139zM261 362q50 0 92 23.5t42 61.5v73q0 66 -33 102
t-95 36q-135 0 -135 -149q0 -79 32.5 -113t96.5 -34z" />
    <glyph glyph-name="less.tf" 
d="M424 457l-220 -142l221 -142v-87l-338 223v11l337 224v-87z" />
    <glyph glyph-name="equal.tf" 
d="M443 343h-353v66h353v-66zM443 197h-353v67h353v-67z" />
    <glyph glyph-name="greater.tf" 
d="M108 173l220 142l-219 142v87l337 -224v-11l-338 -223v87z" />
    <glyph glyph-name="cent.tf" 
d="M51 488q0 108 54.5 173t150.5 73l11 92h55l1 -95q62 -11 106.5 -51t61.5 -96l-71 -28q-29 96 -132 96q-68 0 -104 -42.5t-36 -121.5v-258q0 -74 36.5 -118t103.5 -44q55 0 86 24t47 81l72 -25q-36 -145 -184 -157l-11 -90h-55l-2 92q-88 13 -139 76.5t-51 160.5v258z" />
    <glyph glyph-name="sterling.tf" 
d="M49 329l-10 64h65q-12 79 -12 117q0 106 50.5 166t144.5 60q73 0 125 -40t68 -108l-67 -26q-28 94 -123 94q-114 0 -114 -154q0 -30 9 -109h223l-8 -64h-206q12 -102 14 -124q32 -11 64 -44.5t60 -59.5t56 -26q31 0 47.5 26t26.5 90l63 -16q-12 -97 -45 -141t-88 -44
q-33 0 -62.5 17.5t-46.5 38.5t-39 50t-36 41h-2q-11 -147 -110 -147q-38 0 -60.5 24.5t-22.5 67.5q0 52 32 86.5t90 41.5q-10 54 -21 119h-65zM102 53q21 0 30.5 23t10.5 81q-65 -7 -65 -70q0 -34 24 -34z" />
    <glyph glyph-name="currency.tf" 
d="M148 378q0 38 18 67l-45 48l35 38l46 -49q28 20 64 20t64 -20l48 51l35 -38l-47 -50q19 -32 19 -67q0 -37 -19 -69l46 -48l-35 -38l-47 49q-29 -20 -64 -20q-36 0 -64 19l-47 -50l-35 37l47 51q-19 32 -19 69zM202 377q0 -29 19 -48.5t46 -19.5t45.5 19.5t18.5 48.5
q0 30 -18.5 49t-45.5 19t-46 -19t-19 -49z" />
    <glyph glyph-name="yen.tf" 
d="M445 162h-133v-162h-91v162h-144v62h144v47h-144v62h125l-198 392h102l160 -353h2l160 353h102l-199 -392h114v-62h-133v-47h133v-62z" />
    <glyph glyph-name="logicalnot.tf" 
d="M386 127v151h-305v66h371v-217h-66z" />
    <glyph glyph-name="plusminus.tf" 
d="M232 140v162h-151v67h151v167h65v-167h155v-67h-155v-162h-65zM452 40h-371v67h371v-67z" />
    <glyph glyph-name="multiply.tf" 
d="M386 136l-120 128l-120 -128l-45 47l120 128l-120 129l45 47l120 -128l120 128l45 -47l-121 -129l121 -128z" />
    <glyph glyph-name="divide.tf" 
d="M452 278h-371v66h371v-66zM211 486q0 23 15.5 39.5t37.5 16.5t37.5 -16.5t15.5 -39.5t-15.5 -39.5t-37.5 -16.5t-37.5 16.5t-15.5 39.5zM211 141q0 23 15.5 39.5t37.5 16.5t37.5 -16.5t15.5 -39.5t-15.5 -39t-37.5 -16t-37.5 16t-15.5 39z" />
    <glyph glyph-name="uni2007.tf" 
 />
    <glyph glyph-name="franc.tf" 
d="M9 108v64h75v553h410v-85h-312v-234h268v-79h-268v-155h108v-64h-108v-108h-98v108h-75z" />
    <glyph glyph-name="lira.tf" 
d="M42 371l-8 48h66q-8 58 -8 91q0 106 50.5 166t144.5 60q73 0 125 -40t68 -108l-67 -26q-28 94 -123 94q-114 0 -114 -154q0 -34 6 -83h240l-9 -48h-225q1 -12 5 -36h212l-8 -47h-198q8 -69 9 -83q32 -11 64 -44.5t60 -59.5t56 -26q31 0 47.5 26t26.5 90l63 -16
q-12 -97 -45 -141t-88 -44q-33 0 -62.5 17.5t-46.5 38.5t-39 50t-36 41h-2q-11 -147 -110 -147q-38 0 -60.5 24.5t-22.5 67.5q0 52 32 86.5t90 41.5q-1 5 -6 32.5t-8 45.5h-62l-7 47h61l-6 36h-65zM102 53q21 0 30.5 23t10.5 81q-65 -7 -65 -70q0 -34 24 -34z" />
    <glyph glyph-name="peseta.tf" 
d="M4 475v53h58v197h219q88 0 137.5 -51t54.5 -146h56v-53h-56q-7 -91 -55 -141t-132 -50h-130v-284h-94v475h-58zM156 645v-118h224q-4 62 -28 90t-73 28h-123zM279 360q48 0 72 28t29 88h-224v-116h123z" />
    <glyph glyph-name="Euro.tf" 
d="M306 735q77 0 134 -42.5t76 -108.5l-71 -28q-29 96 -132 96q-68 0 -104 -42.5t-36 -121.5v-37h245l-12 -52h-233v-49h220l-12 -52h-208v-68q0 -74 36.5 -118t104.5 -44q54 0 85 24t47 81l72 -25q-39 -158 -211 -158q-105 0 -168 66t-63 174v68h-73v52h73v49h-73v52h73v37
q0 115 61.5 181t168.5 66z" />
    <glyph glyph-name="uni20B4.tf" 
d="M38 403v54h307q48 45 48 100q0 51 -25.5 80t-89.5 29q-106 0 -156 -95l-65 30q68 134 226 134q92 0 140 -47t48 -124q0 -59 -41 -107h60v-54h-123q-19 -13 -56.5 -36t-51.5 -32h231v-54h-300q-46 -48 -46 -108q0 -54 35 -83.5t96 -29.5q109 0 159 105l60 -28
q-62 -147 -223 -147q-103 0 -154.5 48.5t-51.5 127.5q0 64 41 115h-69v54h127q21 15 107 68h-233z" />
    <glyph glyph-name="minus.tf" 
d="M452 278h-371v66h371v-66z" />
    <glyph glyph-name="approxequal.tf" 
d="M443 419v-66q-47 -26 -92 -26q-32 0 -89 18.5t-87 18.5q-43 0 -85 -26v66q47 26 93 26q34 0 91.5 -18.5t86.5 -18.5q44 0 82 26zM443 274v-66q-47 -26 -92 -26q-32 0 -89 18.5t-87 18.5q-43 0 -85 -26v66q47 26 92 26q34 0 92 -19t87 -19q41 0 82 27z" />
    <glyph glyph-name="notequal.tf" 
d="M396 494l-45 -85h92v-66h-126l-41 -79h167v-67h-202l-58 -111l-43 24l45 87h-95v67h130l41 79h-171v66h206l57 110z" />
    <glyph glyph-name="lessequal.tf" 
d="M424 457l-214 -125l215 -123v-84l-337 203v10l336 205v-86zM94 31v64h332v-64h-332z" />
    <glyph glyph-name="greaterequal.tf" 
d="M108 209l214 123l-213 125v86l336 -205v-10l-337 -203v84zM439 95v-64h-332v64h332z" />
    <glyph glyph-name="numbersign.tosf" horiz-adv-x="480" 
d="M34 373v59h97l15 179h64l-16 -179h111l15 179h64l-15 -179h76v-59h-77l-11 -136h88v-59h-90l-15 -178h-64l15 178h-110l-16 -178h-63l15 178h-83v59h85l11 136h-96zM193 373l-10 -136h110l11 136h-111z" />
    <glyph glyph-name="dollar.tosf" horiz-adv-x="480" 
d="M50 458q0 66 43.5 108.5t118.5 49.5l15 124h55l3 -128q49 -10 84.5 -41.5t51.5 -77.5l-60 -22q-30 76 -118 76q-104 0 -104 -83q0 -36 30 -62.5t72.5 -46t84.5 -41t72 -60t30 -91.5q0 -70 -41 -115t-111 -54l-13 -130h-56l-3 129q-118 13 -160 135l63 23q36 -94 136 -94
q47 0 74.5 25t27.5 70q0 38 -30.5 65.5t-73.5 46.5t-86.5 40.5t-74 60.5t-30.5 93z" />
    <glyph glyph-name="plus.tosf" horiz-adv-x="480" 
d="M206 67v187h-147v66h147v188h66v-188h151v-66h-151v-187h-66z" />
    <glyph glyph-name="zero.tosf" horiz-adv-x="480" 
d="M444 385v-193q0 -95 -53 -148t-152 -53q-98 0 -150.5 53.5t-52.5 149.5v186q0 98 53 153t150 55q99 0 152 -53.5t53 -149.5zM122 380v-189q0 -133 117 -133q119 0 119 131v197q0 69 -29 101.5t-90 32.5q-117 0 -117 -140z" />
    <glyph glyph-name="one.tosf" horiz-adv-x="480" 
d="M236 406h-152v62h70q59 0 79 24t24 100h70v-536h119v-56h-345v56h135v350z" />
    <glyph glyph-name="two.tosf" horiz-adv-x="480" 
d="M251 590q89 0 133 -41t44 -108q0 -76 -68.5 -165t-196.5 -204v-2h272v-70h-390l-1 54q298 252 298 383q0 82 -100 82q-85 0 -136 -78l-61 30q74 119 206 119z" />
    <glyph glyph-name="three.tosf" horiz-adv-x="480" 
d="M417 438q0 -117 -87 -147v-2q58 -12 82.5 -47t24.5 -95q0 -244 -369 -244l-7 70q156 0 222 45.5t66 129.5q0 58 -31.5 81t-111.5 23h-28v66h26q69 0 98 27t29 86q0 88 -95 88q-85 0 -141 -79l-60 30q75 120 209 120q86 0 129.5 -42t43.5 -110z" />
    <glyph glyph-name="four.tosf" horiz-adv-x="480" 
d="M382 -94h-83v229h-286v62l285 385h84v-381h88l-7 -66h-81v-229zM106 201h194l8 285h-2l-200 -283v-2z" />
    <glyph glyph-name="five.tosf" horiz-adv-x="480" 
d="M405 506h-262l-15 -187q55 22 115 22q190 0 190 -178q0 -120 -92.5 -190t-261.5 -70l-8 70q143 0 209.5 49.5t66.5 133.5q0 64 -30.5 90t-97.5 26q-69 0 -116 -28l-56 28l27 310h337z" />
    <glyph glyph-name="six.tosf" horiz-adv-x="480" 
d="M382 618q-105 0 -168 -62.5t-76 -184.5h2q48 40 119 40q87 0 135 -49t48 -149q0 -105 -51 -163.5t-147 -58.5t-144.5 61t-48.5 165v93q0 175 86.5 276.5t238.5 101.5zM248 339q-67 0 -112 -46v-75q0 -156 110 -156q111 0 111 148q0 68 -27 98.5t-82 30.5z" />
    <glyph glyph-name="seven.tosf" horiz-adv-x="480" 
d="M198 -91h-93l254 598h-321v75h411v-66z" />
    <glyph glyph-name="eight.tosf" horiz-adv-x="480" 
d="M241 -9q-197 0 -197 174q0 109 95 139v2q-81 32 -81 131q0 70 45 111.5t138 41.5q94 0 139 -41t45 -111q0 -100 -82 -132v-2q95 -30 95 -139q0 -174 -197 -174zM352 170q0 100 -111 100q-110 0 -110 -99q0 -112 110 -112q57 0 84 27t27 84zM241 523q-52 0 -76.5 -23
t-24.5 -72q0 -97 101 -97q102 0 102 97q0 49 -24 72t-78 23z" />
    <glyph glyph-name="nine.tosf" horiz-adv-x="480" 
d="M95 -27q234 0 250 266h-2q-47 -36 -119 -36q-88 0 -136.5 46.5t-48.5 140.5t51 146.5t147 52.5q94 0 143.5 -61t49.5 -162v-90q0 -176 -87 -274.5t-241 -98.5zM234 271q66 0 111 46v48q0 153 -111 153q-110 0 -110 -125q0 -64 27 -93t83 -29z" />
    <glyph glyph-name="less.tosf" horiz-adv-x="480" 
d="M412 431l-234 -144l235 -144v-85l-352 223v11l351 224v-85z" />
    <glyph glyph-name="equal.tosf" horiz-adv-x="480" 
d="M414 327h-347v67h347v-67zM414 182h-347v67h347v-67z" />
    <glyph glyph-name="greater.tosf" horiz-adv-x="480" 
d="M69 516l352 -223v-11l-351 -224v85l233 144l-234 144v85z" />
    <glyph glyph-name="cent.tosf" horiz-adv-x="480" 
d="M430 494l-68 -25q-31 80 -119 80q-114 0 -114 -139v-218q0 -135 116 -135q88 0 118 87l68 -24q-40 -112 -154 -127l-13 -129h-56l-2 128q-163 18 -163 205v209q0 90 43 146.5t128 64.5l14 123h56l2 -125q103 -20 144 -121z" />
    <glyph glyph-name="sterling.tosf" horiz-adv-x="480" 
d="M410 493l-62 -23q-22 79 -96 79q-89 0 -89 -126q0 -35 8 -93h178l-7 -54h-164q12 -95 12 -107q20 -9 40.5 -27.5t33.5 -35t30.5 -29.5t33.5 -13q26 0 39.5 21.5t20.5 74.5l60 -16q-19 -155 -114 -155q-26 0 -49.5 13.5t-37 29t-32 40.5t-27.5 34h-2q-12 -117 -94 -117
q-33 0 -52 20.5t-19 57.5q0 44 26.5 73t74.5 35q-11 48 -21 101h-50l-8 54h48q-10 60 -10 96q0 91 43 142t122 51q62 0 105.5 -34t58.5 -92zM96 42q32 0 33 87q-52 -6 -52 -59q0 -28 19 -28z" />
    <glyph glyph-name="currency.tosf" horiz-adv-x="480" 
d="M121 310q0 36 19 68l-45 47l35 38l46 -48q29 19 63 19q33 0 65 -20l48 51l35 -37l-47 -51q19 -32 19 -67q0 -40 -20 -69l46 -48l-35 -38l-47 49q-29 -19 -64 -19q-34 0 -63 19l-47 -51l-35 38l46 49q-19 32 -19 70zM176 309q0 -29 18.5 -48.5t45.5 -19.5t46 19.5t19 48.5
q0 30 -19 49.5t-46 19.5t-45.5 -19.5t-18.5 -49.5z" />
    <glyph glyph-name="yen.tosf" horiz-adv-x="480" 
d="M405 138h-121v-138h-86v138h-121v53h121v41h-121v53h103l-174 326h96l139 -293h2l136 293h98l-176 -326h104v-53h-121v-41h121v-53z" />
    <glyph glyph-name="logicalnot.tosf" horiz-adv-x="480" 
d="M358 104v150h-299v66h364v-216h-65z" />
    <glyph glyph-name="plusminus.tosf" horiz-adv-x="480" 
d="M207 126v155h-148v66h148v161h65v-161h151v-66h-151v-155h-65zM423 26h-364v66h364v-66z" />
    <glyph glyph-name="multiply.tosf" horiz-adv-x="480" 
d="M350 115l-121 128l-120 -128l-44 47l120 128l-120 129l44 47l120 -129l121 129l44 -47l-121 -129l121 -128z" />
    <glyph glyph-name="divide.tosf" horiz-adv-x="480" 
d="M423 255h-364v66h364v-66zM186 462q0 23 15 39.5t37 16.5t38 -16.5t16 -39.5t-16 -39t-38 -16t-37 16t-15 39zM186 118q0 23 15 39.5t37 16.5t38 -16.5t16 -39.5t-16 -39t-38 -16t-37 16t-15 39z" />
    <glyph glyph-name="uni2007.tosf" horiz-adv-x="480" 
 />
    <glyph glyph-name="franc.tosf" horiz-adv-x="480" 
d="M25 89v57h59v464h343v-75h-256v-193h220v-69h-220v-127h90v-57h-90v-89h-87v89h-59z" />
    <glyph glyph-name="lira.tosf" horiz-adv-x="480" 
d="M410 493l-62 -23q-22 79 -96 79q-89 0 -89 -126q0 -30 4 -59h201l-8 -44h-188l4 -32h178l-8 -41h-164q7 -49 8 -78q20 -9 40.5 -27.5t33.5 -35t30.5 -29.5t33.5 -13q26 0 39.5 21.5t20.5 74.5l60 -16q-19 -155 -114 -155q-26 0 -49.5 13.5t-37 29t-32 40.5t-27.5 34h-2
q-12 -117 -94 -117q-33 0 -52 20.5t-19 57.5q0 44 26.5 73t74.5 35q-8 32 -16 72h-46l-7 41h45l-5 32h-48l-8 44h49q-5 38 -5 62q0 91 43 142t122 51q62 0 105.5 -34t58.5 -92zM96 42q32 0 33 87q-52 -6 -52 -59q0 -28 19 -28z" />
    <glyph glyph-name="peseta.tosf" horiz-adv-x="480" 
d="M16 396v52h51v162h189q76 0 118 -42t48 -120h41v-52h-41q-7 -76 -48.5 -118t-112.5 -42h-108v-236h-86v396h-51zM254 300q40 0 59.5 24t22.5 75h-183v-99h101zM153 539v-94h183q-3 49 -22.5 71.5t-59.5 22.5h-101z" />
    <glyph glyph-name="Euro.tosf" horiz-adv-x="480" 
d="M432 494l-68 -25q-28 80 -110 80q-107 0 -107 -133v-35h178l-10 -46h-168v-42h160l-10 -45h-150v-60q0 -130 108 -130q83 0 110 85l69 -23q-43 -130 -183 -130q-95 0 -142 53t-47 150v55h-38v45h38v42h-38v46h38v31q0 94 47.5 150.5t141.5 56.5q65 0 112.5 -33t68.5 -92z
" />
    <glyph glyph-name="uni20B4.tosf" horiz-adv-x="480" 
d="M38 334v51h272q36 34 36 78q0 87 -97 87q-91 0 -133 -77l-62 27q59 115 200 115q82 0 125 -40.5t43 -105.5q0 -46 -31 -84h48v-51h-108q-17 -11 -49.5 -29.5t-42.5 -24.5h199v-51h-267q-34 -37 -34 -83q0 -42 30 -66t81 -24q92 0 136 86l57 -26q-55 -126 -198 -126
q-91 0 -136 41t-45 108q0 48 30 90h-55v51h110q12 9 27 18t34 19.5t29 16.5h-199z" />
    <glyph glyph-name="minus.tosf" horiz-adv-x="480" 
d="M423 254h-364v66h364v-66z" />
    <glyph glyph-name="approxequal.tosf" horiz-adv-x="480" 
d="M414 399v-66q-47 -26 -91 -26q-32 0 -86.5 18.5t-84.5 18.5q-42 0 -84 -26v66q47 26 92 26q33 0 89 -18.5t84 -18.5q43 0 81 26zM414 254v-66q-47 -26 -91 -26q-32 0 -86.5 18.5t-84.5 18.5q-42 0 -84 -26v66q47 26 91 26q33 0 89.5 -19t84.5 -19q41 0 81 27z" />
    <glyph glyph-name="notequal.tosf" horiz-adv-x="480" 
d="M414 182h-195l-58 -112l-44 24l46 88h-96v67h131l41 78h-172v67h207l57 109l43 -25l-44 -84h84v-67h-119l-41 -78h160v-67z" />
    <glyph glyph-name="lessequal.tosf" horiz-adv-x="480" 
d="M412 437l-227 -118v-2l228 -116v-83l-352 195v10l351 198v-84zM67 27v61h346v-61h-346z" />
    <glyph glyph-name="greaterequal.tosf" horiz-adv-x="480" 
d="M68 201l227 116v2l-226 118v84l350 -198v-10l-351 -195v83zM413 88v-61h-345v61h345z" />
    <glyph glyph-name="exclam.sc" horiz-adv-x="203" 
d="M60 582h82v-239l-9 -170h-64l-9 170v239zM52 0v101h98v-101h-98z" />
    <glyph glyph-name="ampersand.sc" horiz-adv-x="522" 
d="M387 491l-60 -31q-31 66 -91 66q-31 0 -48 -17t-17 -48q0 -39 24 -69l156 -201q21 69 21 149v13h124v-59h-64q-6 -96 -35 -161q51 -57 120 -71l-10 -68q-84 11 -148 73q-61 -75 -159 -75q-77 0 -124 43.5t-47 128.5q0 119 105 185q-42 55 -42 112q0 55 38 91.5t104 36.5
q107 0 153 -98zM208 56q63 0 108 62l-142 181q-63 -49 -63 -133q0 -55 26.5 -82.5t70.5 -27.5z" />
    <glyph glyph-name="question.sc" horiz-adv-x="427" 
d="M393 441q0 -63 -39.5 -113t-112.5 -79l-6 -79h-63l-6 117q143 51 143 148q0 36 -23 60.5t-74 24.5q-93 0 -129 -87l-66 22q24 60 75 97t124 37q89 0 133 -43.5t44 -104.5zM155 0v101h98v-101h-98z" />
    <glyph glyph-name="grave.sc" horiz-adv-x="276" 
d="M30 729h96l53 -110h-67z" />
    <glyph glyph-name="a.sc" horiz-adv-x="516" 
d="M144 142l-45 -142h-92l204 582h96l201 -582h-91l-46 142h-227zM256 499l-91 -290h185l-92 290h-2z" />
    <glyph glyph-name="b.sc" horiz-adv-x="493" 
d="M429 436q0 -52 -19 -83t-63 -46v-2q111 -25 111 -139q0 -166 -185 -166h-209v582h186q89 0 134 -39.5t45 -106.5zM152 269v-199h116q53 0 77.5 23.5t24.5 78.5q0 50 -24.5 73.5t-77.5 23.5h-116zM152 510v-178h100q51 0 73.5 23t22.5 70q0 44 -22.5 64.5t-72.5 20.5h-101
z" />
    <glyph glyph-name="c.sc" horiz-adv-x="450" 
d="M242 590q66 0 114.5 -35t65.5 -89l-63 -25q-26 77 -109 77q-56 0 -86 -34.5t-30 -98.5v-193q0 -59 30.5 -95t85.5 -36q45 0 70.5 19t38.5 64l65 -24q-36 -129 -182 -129q-89 0 -143 55t-54 145v194q0 95 52.5 150t144.5 55z" />
    <glyph glyph-name="d.sc" horiz-adv-x="531" 
d="M486 380v-178q0 -93 -55.5 -147.5t-154.5 -54.5h-212v582h212q99 0 154.5 -54.5t55.5 -147.5zM398 205v170q0 134 -122 134h-122v-437h122q122 0 122 133z" />
    <glyph glyph-name="e.sc" horiz-adv-x="454" 
d="M64 582h352v-74h-262v-176h203v-66h-203v-194h271v-72h-361v582z" />
    <glyph glyph-name="f.sc" horiz-adv-x="447" 
d="M64 582h351v-75h-261v-183h224v-70h-224v-254h-90v582z" />
    <glyph glyph-name="g.sc" horiz-adv-x="510" 
d="M264 590q70 0 123 -35t71 -91l-65 -27q-37 78 -126 78q-133 0 -133 -147v-168q0 -135 126 -135q79 0 121 56v111h-86v58h164v-290h-71v49h-2q-53 -57 -142 -57q-93 0 -146 54t-53 153v170q0 101 55 161t164 60z" />
    <glyph glyph-name="h.sc" 
d="M64 582h90v-248h225v248h89v-582h-89v258h-225v-258h-90v582z" />
    <glyph glyph-name="i.sc" horiz-adv-x="245" 
d="M78 582h89v-582h-89v582z" />
    <glyph glyph-name="j.sc" horiz-adv-x="242" 
d="M88 582h89v-482q0 -212 -219 -215l-7 69q72 0 104.5 34t32.5 112v482z" />
    <glyph glyph-name="k.sc" horiz-adv-x="504" 
d="M493 0h-102l-171 263l-67 -78v-185h-89v582h89v-303h2l218 303h104l-199 -260z" />
    <glyph glyph-name="l.sc" horiz-adv-x="410" 
d="M64 582h87v-506h239v-76h-326v582z" />
    <glyph glyph-name="m.sc" horiz-adv-x="668" 
d="M521 582h82v-582h-81v416h-2l-167 -311h-39l-166 313h-2v-418h-82v582h83l185 -363h2z" />
    <glyph glyph-name="n.sc" 
d="M64 582h70l253 -410h2v410h79v-582h-64l-258 420h-2v-420h-80v582z" />
    <glyph glyph-name="o.sc" horiz-adv-x="511" 
d="M466 384v-186q0 -96 -55 -151.5t-155 -55.5q-101 0 -156 55.5t-55 151.5v186q0 96 55 151t156 55q100 0 155 -55t55 -151zM378 198v186q0 132 -122 132t-122 -132v-186q0 -134 122 -134t122 134z" />
    <glyph glyph-name="p.sc" horiz-adv-x="478" 
d="M273 582q85 0 131.5 -47.5t46.5 -132.5q0 -84 -45.5 -132t-127.5 -48h-124v-222h-90v582h209zM154 510v-220h116q48 0 70 27t22 83q0 57 -22 83.5t-70 26.5h-116z" />
    <glyph glyph-name="q.sc" horiz-adv-x="511" 
d="M466 384v-186q0 -77 -36.5 -129t-103.5 -68v-2l101 -88l-76 -35l-108 115q-95 4 -146.5 59t-51.5 148v186q0 96 55 151t156 55q100 0 155 -55t55 -151zM378 198v186q0 132 -122 132t-122 -132v-186q0 -134 122 -134t122 134z" />
    <glyph glyph-name="r.sc" horiz-adv-x="491" 
d="M377 0l-135 244h-88v-244h-90v582h193q91 0 136.5 -43t45.5 -121q0 -63 -29.5 -104.5t-84.5 -54.5l151 -259h-99zM154 511v-200h100q53 0 75.5 26.5t22.5 77.5q0 49 -22 72.5t-75 23.5h-101z" />
    <glyph glyph-name="s.sc" horiz-adv-x="428" 
d="M212 591q68 0 115.5 -31t69.5 -85l-62 -27q-13 35 -44.5 54.5t-72.5 19.5q-94 0 -94 -78q0 -26 15.5 -46t40 -34.5t54.5 -27.5t59.5 -29t54 -35t40 -49.5t15.5 -68.5q0 -78 -50 -121t-136 -43q-68 0 -119.5 36t-69.5 97l68 23q14 -42 47 -64.5t76 -22.5q99 0 99 87
q0 37 -29 63.5t-70.5 44.5t-83 38.5t-70.5 57.5t-29 90q0 66 47.5 108.5t128.5 42.5z" />
    <glyph glyph-name="t.sc" horiz-adv-x="418" 
d="M12 582h394v-76h-153v-506h-89v506h-152v76z" />
    <glyph glyph-name="u.sc" 
d="M389 582h88v-388q0 -95 -55 -149t-155 -54t-155.5 53.5t-55.5 145.5v392h89v-392q0 -124 122 -124t122 124v392z" />
    <glyph glyph-name="v.sc" horiz-adv-x="509" 
d="M501 582l-202 -582h-89l-202 582h98l148 -478h2l146 478h99z" />
    <glyph glyph-name="w.sc" horiz-adv-x="784" 
d="M756 582l-153 -582h-95l-115 449h-2l-116 -449h-94l-153 582h91l111 -471h2l118 471h84l120 -475h2l111 475h89z" />
    <glyph glyph-name="x.sc" horiz-adv-x="499" 
d="M21 0l173 292l-169 290h98l125 -237h2l126 237h99l-168 -288l172 -294h-99l-129 242h-2l-131 -242h-97z" />
    <glyph glyph-name="y.sc" horiz-adv-x="486" 
d="M479 582l-192 -390v-192h-88v194l-193 388h100l136 -310h2l137 310h98z" />
    <glyph glyph-name="z.sc" horiz-adv-x="454" 
d="M418 75v-75h-386v52l280 453v2h-266v75h372v-51l-280 -454v-2h280z" />
    <glyph glyph-name="exclamdown.sc" horiz-adv-x="203" 
d="M145 0h-83v239l9 170h64l10 -170v-239zM152 582v-100h-98v100h98z" />
    <glyph glyph-name="dieresis.sc" horiz-adv-x="276" 
d="M32 732h67v-102h-67v102zM176 732h68v-102h-68v102z" />
    <glyph glyph-name="macron.sc" horiz-adv-x="276" 
d="M258 709v-55h-240v55h240z" />
    <glyph glyph-name="acute.sc" horiz-adv-x="276" 
d="M118 732h94l-75 -113h-67z" />
    <glyph glyph-name="questiondown.sc" horiz-adv-x="427" 
d="M34 142q0 63 39 113t112 79l7 79h63l7 -117q-144 -50 -144 -147q0 -36 23 -61t74 -25q93 0 129 87l66 -22q-23 -59 -74.5 -96.5t-124.5 -37.5q-89 0 -133 43.5t-44 104.5zM272 583v-100h-98v100h98z" />
    <glyph glyph-name="germandbls.sc" horiz-adv-x="856" 
d="M212 591q68 0 115.5 -31t69.5 -85l-62 -27q-13 35 -44.5 54.5t-72.5 19.5q-94 0 -94 -78q0 -26 15.5 -46t40 -34.5t54.5 -27.5t59.5 -29t54 -35t40 -49.5t15.5 -68.5q0 -78 -50 -121t-136 -43q-68 0 -119.5 36t-69.5 97l68 23q14 -42 47 -64.5t76 -22.5q99 0 99 87
q0 37 -29 63.5t-70.5 44.5t-83 38.5t-70.5 57.5t-29 90q0 66 47.5 108.5t128.5 42.5zM640 591q68 0 115.5 -31t69.5 -85l-62 -27q-13 35 -44.5 54.5t-72.5 19.5q-94 0 -94 -78q0 -26 15.5 -46t40 -34.5t54.5 -27.5t59.5 -29t54 -35t40 -49.5t15.5 -68.5q0 -78 -50 -121
t-136 -43q-68 0 -119.5 36t-69.5 97l68 23q14 -42 47 -64.5t76 -22.5q99 0 99 87q0 37 -29 63.5t-70.5 44.5t-83 38.5t-70.5 57.5t-29 90q0 66 47.5 108.5t128.5 42.5z" />
    <glyph glyph-name="agrave.sc" horiz-adv-x="516" 
d="M144 142l-45 -142h-92l204 582h96l201 -582h-91l-46 142h-227zM256 499l-91 -290h185l-92 290h-2zM161 729h96l53 -110h-67z" />
    <glyph glyph-name="aacute.sc" horiz-adv-x="516" 
d="M144 142l-45 -142h-92l204 582h96l201 -582h-91l-46 142h-227zM256 499l-91 -290h185l-92 290h-2zM264 732h94l-75 -113h-67z" />
    <glyph glyph-name="acircumflex.sc" horiz-adv-x="516" 
d="M144 142l-45 -142h-92l204 582h96l201 -582h-91l-46 142h-227zM256 499l-91 -290h185l-92 290h-2zM210 619h-74l91 113h62l91 -113h-74l-49 68z" />
    <glyph glyph-name="atilde.sc" horiz-adv-x="516" 
d="M144 142l-45 -142h-92l204 582h96l201 -582h-91l-46 142h-227zM256 499l-91 -290h185l-92 290h-2zM354 731l48 -8q-15 -106 -83 -106q-25 0 -47.5 16.5t-40.5 32.5t-31 16q-28 0 -37 -57l-48 7q8 55 27 80.5t55 25.5q25 0 47.5 -16t41 -32.5t31.5 -16.5q15 0 23 12.5
t14 45.5z" />
    <glyph glyph-name="adieresis.sc" horiz-adv-x="516" 
d="M144 142l-45 -142h-92l204 582h96l201 -582h-91l-46 142h-227zM256 499l-91 -290h185l-92 290h-2zM152 732h67v-102h-67v102zM296 732h68v-102h-68v102z" />
    <glyph glyph-name="aring.sc" horiz-adv-x="516" 
d="M144 142l-45 -142h-92l204 582h96l201 -582h-91l-46 142h-227zM256 499l-91 -290h185l-92 290h-2zM170 695q0 36 25 59t63 23t62.5 -23t24.5 -59q0 -37 -24.5 -60t-62.5 -23t-63 23t-25 60zM220 695q0 -19 10 -31t28 -12t27.5 12t9.5 31q0 18 -10 30t-27 12t-27.5 -12
t-10.5 -30z" />
    <glyph glyph-name="ae.sc" horiz-adv-x="728" 
d="M170 145l-70 -145h-91l293 582h387v-74h-259l18 -176h184v-66h-177l20 -194h224v-72h-306l-14 145h-209zM343 501l-141 -290h170l-27 290h-2z" />
    <glyph glyph-name="ccedilla.sc" horiz-adv-x="450" 
d="M242 590q66 0 114.5 -35t65.5 -89l-63 -25q-26 77 -109 77q-56 0 -86 -34.5t-30 -98.5v-193q0 -59 30.5 -95t85.5 -36q45 0 70.5 19t38.5 64l65 -24q-34 -120 -165 -128l-4 -23q80 -10 80 -61q0 -33 -31.5 -54.5t-89.5 -25.5l-13 41q37 7 51 14.5t14 20.5q0 24 -70 28
l12 62q-75 10 -119 63t-44 134v194q0 95 52.5 150t144.5 55z" />
    <glyph glyph-name="egrave.sc" horiz-adv-x="454" 
d="M64 582h352v-74h-262v-176h203v-66h-203v-194h271v-72h-361v582zM138 729h96l53 -110h-67z" />
    <glyph glyph-name="eacute.sc" horiz-adv-x="454" 
d="M64 582h352v-74h-262v-176h203v-66h-203v-194h271v-72h-361v582zM242 732h94l-75 -113h-67z" />
    <glyph glyph-name="ecircumflex.sc" horiz-adv-x="454" 
d="M64 582h352v-74h-262v-176h203v-66h-203v-194h271v-72h-361v582zM194 619h-74l91 113h62l91 -113h-74l-49 68z" />
    <glyph glyph-name="edieresis.sc" horiz-adv-x="454" 
d="M64 582h352v-74h-262v-176h203v-66h-203v-194h271v-72h-361v582zM136 732h67v-102h-67v102zM280 732h68v-102h-68v102z" />
    <glyph glyph-name="igrave.sc" horiz-adv-x="245" 
d="M78 582h89v-582h-89v582zM13 729h96l53 -110h-67z" />
    <glyph glyph-name="iacute.sc" horiz-adv-x="245" 
d="M78 582h89v-582h-89v582zM130 732h94l-75 -113h-67z" />
    <glyph glyph-name="icircumflex.sc" horiz-adv-x="245" 
d="M78 582h89v-582h-89v582zM75 619h-74l91 113h62l91 -113h-74l-49 68z" />
    <glyph glyph-name="idieresis.sc" horiz-adv-x="245" 
d="M78 582h89v-582h-89v582zM16 732h67v-102h-67v102zM160 732h68v-102h-68v102z" />
    <glyph glyph-name="eth.sc" horiz-adv-x="540" 
d="M495 380v-178q0 -93 -55.5 -147.5t-154.5 -54.5h-212v273h-58v50h58v259h212q99 0 154.5 -54.5t55.5 -147.5zM407 205v170q0 134 -122 134h-122v-186h98v-50h-98v-201h122q122 0 122 133z" />
    <glyph glyph-name="ntilde.sc" 
d="M64 582h70l253 -410h2v410h79v-582h-64l-258 420h-2v-420h-80v582zM368 731l48 -8q-15 -106 -83 -106q-25 0 -47.5 16.5t-40.5 32.5t-31 16q-28 0 -37 -57l-48 7q8 55 27 80.5t55 25.5q25 0 47.5 -16t41 -32.5t31.5 -16.5q15 0 23 12.5t14 45.5z" />
    <glyph glyph-name="ograve.sc" horiz-adv-x="511" 
d="M466 384v-186q0 -96 -55 -151.5t-155 -55.5q-101 0 -156 55.5t-55 151.5v186q0 96 55 151t156 55q100 0 155 -55t55 -151zM378 198v186q0 132 -122 132t-122 -132v-186q0 -134 122 -134t122 134zM149 729h96l53 -110h-67z" />
    <glyph glyph-name="oacute.sc" horiz-adv-x="511" 
d="M466 384v-186q0 -96 -55 -151.5t-155 -55.5q-101 0 -156 55.5t-55 151.5v186q0 96 55 151t156 55q100 0 155 -55t55 -151zM378 198v186q0 132 -122 132t-122 -132v-186q0 -134 122 -134t122 134zM265 732h94l-75 -113h-67z" />
    <glyph glyph-name="ocircumflex.sc" horiz-adv-x="511" 
d="M466 384v-186q0 -96 -55 -151.5t-155 -55.5q-101 0 -156 55.5t-55 151.5v186q0 96 55 151t156 55q100 0 155 -55t55 -151zM378 198v186q0 132 -122 132t-122 -132v-186q0 -134 122 -134t122 134zM209 619h-74l91 113h62l91 -113h-74l-49 68z" />
    <glyph glyph-name="otilde.sc" horiz-adv-x="511" 
d="M466 384v-186q0 -96 -55 -151.5t-155 -55.5q-101 0 -156 55.5t-55 151.5v186q0 96 55 151t156 55q100 0 155 -55t55 -151zM378 198v186q0 132 -122 132t-122 -132v-186q0 -134 122 -134t122 134zM354 731l48 -8q-15 -106 -83 -106q-25 0 -47.5 16.5t-40.5 32.5t-31 16
q-28 0 -37 -57l-48 7q8 55 27 80.5t55 25.5q25 0 47.5 -16t41 -32.5t31.5 -16.5q15 0 23 12.5t14 45.5z" />
    <glyph glyph-name="odieresis.sc" horiz-adv-x="511" 
d="M466 384v-186q0 -96 -55 -151.5t-155 -55.5q-101 0 -156 55.5t-55 151.5v186q0 96 55 151t156 55q100 0 155 -55t55 -151zM378 198v186q0 132 -122 132t-122 -132v-186q0 -134 122 -134t122 134zM149 732h67v-102h-67v102zM293 732h68v-102h-68v102z" />
    <glyph glyph-name="oslash.sc" horiz-adv-x="511" 
d="M466 384v-186q0 -96 -55 -151.5t-155 -55.5q-99 0 -156 55l-34 -47l-29 25l38 52q-30 50 -30 122v186q0 96 55 151t156 55t155 -56l37 50l29 -25l-41 -56q30 -52 30 -119zM378 198v186q0 14 -2 36h-2l-223 -305q29 -51 105 -51q122 0 122 134zM134 198q0 -27 1 -38h2
l223 305q-29 50 -104 50q-122 0 -122 -131v-186z" />
    <glyph glyph-name="ugrave.sc" 
d="M389 582h88v-388q0 -95 -55 -149t-155 -54t-155.5 53.5t-55.5 145.5v392h89v-392q0 -124 122 -124t122 124v392zM165 729h96l53 -110h-67z" />
    <glyph glyph-name="uacute.sc" 
d="M389 582h88v-388q0 -95 -55 -149t-155 -54t-155.5 53.5t-55.5 145.5v392h89v-392q0 -124 122 -124t122 124v392zM275 732h94l-75 -113h-67z" />
    <glyph glyph-name="ucircumflex.sc" 
d="M389 582h88v-388q0 -95 -55 -149t-155 -54t-155.5 53.5t-55.5 145.5v392h89v-392q0 -124 122 -124t122 124v392zM221 619h-74l91 113h62l91 -113h-74l-49 68z" />
    <glyph glyph-name="udieresis.sc" 
d="M389 582h88v-388q0 -95 -55 -149t-155 -54t-155.5 53.5t-55.5 145.5v392h89v-392q0 -124 122 -124t122 124v392zM162 732h67v-102h-67v102zM306 732h68v-102h-68v102z" />
    <glyph glyph-name="yacute.sc" horiz-adv-x="486" 
d="M479 582l-192 -390v-192h-88v194l-193 388h100l136 -310h2l137 310h98zM246 732h94l-75 -113h-67z" />
    <glyph glyph-name="thorn.sc" horiz-adv-x="478" 
d="M273 481q85 0 131.5 -47.5t46.5 -132.5q0 -84 -45.5 -132t-127.5 -48h-124v-121h-90v582h90v-101h119zM154 409v-220h116q48 0 70 27t22 84t-22 83t-70 26h-116z" />
    <glyph glyph-name="ydieresis.sc" horiz-adv-x="486" 
d="M479 582l-192 -390v-192h-88v194l-193 388h100l136 -310h2l137 310h98zM137 732h67v-102h-67v102zM281 732h68v-102h-68v102z" />
    <glyph glyph-name="dotlessi.sc" horiz-adv-x="245" 
d="M78 582h89v-582h-89v582z" />
    <glyph glyph-name="ij.sc" horiz-adv-x="487" 
d="M78 582h89v-582h-89v582zM333 582h89v-482q0 -212 -219 -215l-7 69q72 0 104.5 34t32.5 112v482z" />
    <glyph glyph-name="lslash.sc" horiz-adv-x="416" 
d="M68 582h87v-251l152 79v-70l-152 -79v-185h239v-76h-326v226l-49 -24v71l49 23v286z" />
    <glyph glyph-name="oe.sc" horiz-adv-x="766" 
d="M378 582h348v-74h-260v-176h203v-66h-203v-194h271v-72h-359v52h-2q-44 -61 -140 -61q-88 0 -139.5 56t-51.5 151v186q0 95 51.5 150.5t139.5 55.5q96 0 140 -60h2v52zM378 199v184q0 132 -122 132t-122 -132v-184q0 -135 122 -135t122 135z" />
    <glyph glyph-name="scaron.sc" horiz-adv-x="428" 
d="M212 591q68 0 115.5 -31t69.5 -85l-62 -27q-13 35 -44.5 54.5t-72.5 19.5q-94 0 -94 -78q0 -26 15.5 -46t40 -34.5t54.5 -27.5t59.5 -29t54 -35t40 -49.5t15.5 -68.5q0 -78 -50 -121t-136 -43q-68 0 -119.5 36t-69.5 97l68 23q14 -42 47 -64.5t76 -22.5q99 0 99 87
q0 37 -29 63.5t-70.5 44.5t-83 38.5t-70.5 57.5t-29 90q0 66 47.5 108.5t128.5 42.5zM100 732h72l50 -72l50 72h72l-91 -113h-62z" />
    <glyph glyph-name="zcaron.sc" horiz-adv-x="454" 
d="M418 75v-75h-386v52l280 453v2h-266v75h372v-51l-280 -454v-2h280zM113 732h72l50 -72l50 72h72l-91 -113h-62z" />
    <glyph glyph-name="longs.sc" horiz-adv-x="428" 
d="M212 591q68 0 115.5 -31t69.5 -85l-62 -27q-13 35 -44.5 54.5t-72.5 19.5q-94 0 -94 -78q0 -26 15.5 -46t40 -34.5t54.5 -27.5t59.5 -29t54 -35t40 -49.5t15.5 -68.5q0 -78 -50 -121t-136 -43q-68 0 -119.5 36t-69.5 97l68 23q14 -42 47 -64.5t76 -22.5q99 0 99 87
q0 37 -29 63.5t-70.5 44.5t-83 38.5t-70.5 57.5t-29 90q0 66 47.5 108.5t128.5 42.5z" />
    <glyph glyph-name="circumflex.sc" horiz-adv-x="276" 
d="M90 619h-74l91 113h62l91 -113h-74l-49 68z" />
    <glyph glyph-name="caron.sc" horiz-adv-x="276" 
d="M16 732h72l50 -72l50 72h72l-91 -113h-62z" />
    <glyph glyph-name="breve.sc" horiz-adv-x="276" 
d="M18 728h61q3 -39 16 -53.5t43 -14.5q29 0 42.5 14.5t15.5 53.5h62q-8 -64 -34 -88.5t-86 -24.5q-59 0 -85 24.5t-35 88.5z" />
    <glyph glyph-name="dotaccent.sc" horiz-adv-x="276" 
d="M49 732h84v-102h-84v102z" />
    <glyph glyph-name="ring.sc" horiz-adv-x="276" 
d="M50 695q0 36 25 59t63 23t62.5 -23t24.5 -59q0 -37 -24.5 -60t-62.5 -23t-63 23t-25 60zM100 695q0 -19 10 -31t28 -12t27.5 12t9.5 31q0 18 -10 30t-27 12t-27.5 -12t-10.5 -30z" />
    <glyph glyph-name="tilde.sc" horiz-adv-x="276" 
d="M234 731l48 -8q-15 -106 -83 -106q-25 0 -47.5 16.5t-40.5 32.5t-31 16q-28 0 -37 -57l-48 7q8 55 27 80.5t55 25.5q25 0 47.5 -16t41 -32.5t31.5 -16.5q15 0 23 12.5t14 45.5z" />
    <glyph glyph-name="hungarumlaut.sc" horiz-adv-x="276" 
d="M83 732h85l-65 -113h-57zM219 732h84l-78 -113h-57z" />
    <glyph glyph-name="gravecomb.sc" horiz-adv-x="1" 
d="M-361 729h96l53 -110h-67z" />
    <glyph glyph-name="acutecomb.sc" horiz-adv-x="1" 
d="M-245 732h94l-75 -113h-67z" />
    <glyph glyph-name="uni0302.sc" horiz-adv-x="1" 
d="M-301 619h-74l91 113h62l91 -113h-74l-49 68z" />
    <glyph glyph-name="tildecomb.sc" horiz-adv-x="1" 
d="M-156 731l48 -8q-15 -106 -83 -106q-25 0 -47.5 16.5t-40.5 32.5t-31 16q-28 0 -37 -57l-48 7q8 55 27 80.5t55 25.5q25 0 47.5 -16t41 -32.5t31.5 -16.5q15 0 23 12.5t14 45.5z" />
    <glyph glyph-name="uni0304.sc" horiz-adv-x="1" 
d="M-14 706v-58h-244v58h244z" />
    <glyph glyph-name="uni0306.sc" horiz-adv-x="1" 
d="M-261 764h64q4 -55 18 -76t43 -21t43 21t17 76h65q-10 -82 -37.5 -113.5t-87.5 -31.5t-87.5 31.5t-37.5 113.5z" />
    <glyph glyph-name="uni0307.sc" horiz-adv-x="1" 
d="M-222 735h82v-107h-82v107z" />
    <glyph glyph-name="uni0308.sc" horiz-adv-x="1" 
d="M-241 735h67v-108h-67v108zM-98 735h67v-108h-67v108z" />
    <glyph glyph-name="uni030A.sc" horiz-adv-x="1" 
d="M-223 694q0 36 24.5 59.5t62.5 23.5t62.5 -23.5t24.5 -59.5t-24.5 -59t-62.5 -23t-62.5 23t-24.5 59zM-173 694q0 -18 10 -29.5t27 -11.5t27 11.5t10 29.5t-10 29.5t-27 11.5t-27 -11.5t-10 -29.5z" />
    <glyph glyph-name="uni030B.sc" horiz-adv-x="1" 
d="M-182 757h89l-80 -138h-55zM-41 757h89l-96 -138h-56z" />
    <glyph glyph-name="uni030C.sc" horiz-adv-x="1" 
d="M-340 732h72l50 -72l50 72h72l-91 -113h-62z" />
    <glyph glyph-name="uni0327.sc" horiz-adv-x="1" 
d="M-174 19l49 -3l-8 -47q80 -10 80 -61q0 -33 -31.5 -54.5t-89.5 -25.5l-13 41q37 7 51 14.5t14 20.5q0 24 -70 28z" />
    <glyph glyph-name="uni0328.sc" horiz-adv-x="1" 
d="M-121 5l39 -7q-78 -23 -78 -78q0 -35 43 -35q40 0 71 20l18 -47q-43 -30 -101 -30q-102 0 -102 74q0 36 29 62.5t81 40.5z" />
    <glyph glyph-name="uni203D.sc" horiz-adv-x="449" 
d="M416 438q0 -62 -42.5 -110.5t-122.5 -77.5l-3 -80h-60l-6 132v218q-70 -17 -100 -88l-65 21q25 61 79 99t129 38q95 0 143 -44.5t48 -107.5zM336 435q0 77 -86 88v-212q86 43 86 124zM168 0v101h98v-101h-98z" />
    <glyph glyph-name="uni2E18.sc" horiz-adv-x="450" 
d="M34 152q0 62 42.5 110.5t122.5 77.5l3 80h60l6 -132v-218q70 17 100 88l65 -21q-25 -61 -79 -99t-129 -38q-95 0 -143 44.5t-48 107.5zM114 155q0 -77 86 -88v212q-86 -43 -86 -124zM282 590v-101h-98v101h98z" />
    <glyph glyph-name="uniFB00.sc" horiz-adv-x="894" 
d="M64 582h351v-75h-261v-183h224v-70h-224v-254h-90v582zM511 582h351v-75h-261v-183h224v-70h-224v-254h-90v582z" />
    <glyph glyph-name="fi.sc" horiz-adv-x="692" 
d="M64 582h351v-75h-261v-183h224v-70h-224v-254h-90v582zM525 582h89v-582h-89v582z" />
    <glyph glyph-name="fl.sc" horiz-adv-x="857" 
d="M64 582h351v-75h-261v-183h224v-70h-224v-254h-90v582zM511 582h87v-506h239v-76h-326v582z" />
    <glyph glyph-name="uniFB03.sc" horiz-adv-x="1139" 
d="M64 582h351v-75h-261v-183h224v-70h-224v-254h-90v582zM511 582h351v-75h-261v-183h224v-70h-224v-254h-90v582zM972 582h89v-582h-89v582z" />
    <glyph glyph-name="uniFB04.sc" horiz-adv-x="1304" 
d="M64 582h351v-75h-261v-183h224v-70h-224v-254h-90v582zM511 582h351v-75h-261v-183h224v-70h-224v-254h-90v582zM958 582h87v-506h239v-76h-326v582z" />
    <glyph glyph-name="parenleft.case" horiz-adv-x="266" 
d="M62 229v279q0 183 52.5 264.5t161.5 81.5h27v-60h-27q-67 0 -103.5 -66t-36.5 -220v-279q0 -153 36.5 -219.5t103.5 -66.5h27v-60h-27q-109 0 -161.5 82t-52.5 264z" />
    <glyph glyph-name="parenright.case" horiz-adv-x="266" 
d="M204 508v-279q0 -182 -52.5 -264t-161.5 -82h-27v61h27q67 0 103.5 66t36.5 219v279q0 154 -36.5 219.5t-103.5 65.5h-27v61h27q109 0 161.5 -81.5t52.5 -264.5z" />
    <glyph glyph-name="hyphen.case" horiz-adv-x="276" 
d="M27 329v75h222v-75h-222z" />
    <glyph glyph-name="at.case" horiz-adv-x="775" 
d="M562 515h-27l-19 -206q-3 -27 -3 -47q0 -62 58 -62q44 0 65.5 33t21.5 113v133q0 124 -68 193t-195 69q-129 0 -204 -77.5t-75 -199.5v-201q0 -139 76.5 -215t206.5 -76q84 0 141 22t105 68l46 -36q-110 -116 -292 -116q-165 0 -257.5 92.5t-92.5 259.5v203
q0 147 93 243.5t253 96.5q156 0 242.5 -90.5t86.5 -235.5v-132q0 -105 -42 -158.5t-114 -53.5q-81 0 -109 58q-54 -60 -135 -60q-59 0 -90.5 38t-31.5 109q0 131 68 211.5t190 80.5h105zM438 268l23 238h-16q-80 0 -122 -59t-42 -164q0 -46 15 -65.5t46 -19.5q65 0 96 70z
" />
    <glyph glyph-name="bracketleft.case" horiz-adv-x="263" 
d="M74 -117v971h245v-62h-166v-847h166v-62h-245z" />
    <glyph glyph-name="bracketright.case" horiz-adv-x="265" 
d="M191 854v-971h-247v63h166v846h-166v62h247z" />
    <glyph glyph-name="grave.case" horiz-adv-x="274" 
d="M3 872h111l69 -113h-77z" />
    <glyph glyph-name="braceleft.case" horiz-adv-x="269" 
d="M28 342v54q40 3 63 20t23 47q0 20 -18.5 93t-18.5 126q0 85 57.5 128.5t162.5 43.5h28v-54h-28q-68 0 -104.5 -33t-36.5 -96q0 -47 18 -117.5t18 -94.5q0 -69 -74 -89v-2q74 -20 74 -90q0 -23 -18 -92.5t-18 -116.5q0 -63 36.5 -97t104.5 -34h28v-54h-28
q-105 0 -162.5 44t-57.5 129q0 54 18.5 126t18.5 91q0 29 -23 46.5t-63 21.5z" />
    <glyph glyph-name="braceright.case" horiz-adv-x="269" 
d="M242 396v-54q-87 -8 -87 -68q0 -19 18.5 -91t18.5 -126q0 -85 -57.5 -129t-162.5 -44h-28v55h28q69 0 105 33.5t36 96.5q0 47 -17.5 116.5t-17.5 92.5q0 70 73 90v2q-73 20 -73 89q0 24 17.5 94.5t17.5 117.5q0 63 -36 95.5t-105 32.5h-28v55h28q105 0 162.5 -43.5
t57.5 -128.5q0 -53 -18.5 -126t-18.5 -93q0 -60 87 -67z" />
    <glyph glyph-name="exclamdown.case" horiz-adv-x="235" 
d="M161 0h-87v296l9 219h69l9 -216v-299zM168 725v-109h-103v109h103z" />
    <glyph glyph-name="dieresis.case" horiz-adv-x="274" 
d="M17 872h69v-102h-69v102zM188 872h69v-102h-69v102z" />
    <glyph glyph-name="guillemotleft.case" horiz-adv-x="414" 
d="M390 517l-126 -179l126 -178h-76l-125 178l125 179h76zM225 517l-126 -179l126 -178h-76l-125 178l125 179h76z" />
    <glyph glyph-name="uni00AD.case" horiz-adv-x="276" 
d="M27 329v75h222v-75h-222z" />
    <glyph glyph-name="macron.case" horiz-adv-x="274" 
d="M268 850v-55h-262v55h262z" />
    <glyph glyph-name="acute.case" horiz-adv-x="274" 
d="M127 872h109l-96 -113h-75z" />
    <glyph glyph-name="periodcentered.case" horiz-adv-x="236" 
d="M57 398q0 27 17.5 46.5t42.5 19.5t43.5 -19.5t18.5 -46.5t-18 -46t-44 -19q-25 0 -42.5 19t-17.5 46z" />
    <glyph glyph-name="guillemotright.case" horiz-adv-x="414" 
d="M188 160l127 178l-127 179h77l125 -179l-125 -178h-77zM23 160l127 178l-127 179h77l125 -179l-125 -178h-77z" />
    <glyph glyph-name="questiondown.case" horiz-adv-x="497" 
d="M475 153q-25 -73 -84.5 -118t-144.5 -45q-102 0 -152.5 51.5t-50.5 127.5q0 77 46.5 141t131.5 101l8 104h66l6 -145q-169 -71 -169 -195q0 -47 28 -78.5t90 -31.5q113 0 155 111zM313 725v-109h-103v109h103z" />
    <glyph glyph-name="circumflex.case" horiz-adv-x="274" 
d="M86 759h-76l91 113h71l92 -113h-76l-51 66z" />
    <glyph glyph-name="caron.case" horiz-adv-x="274" 
d="M13 872h75l49 -68l51 68h73l-94 -113h-60z" />
    <glyph glyph-name="breve.case" horiz-adv-x="274" 
d="M11 872h64q4 -40 18 -55.5t43 -15.5t43.5 15.5t18.5 55.5h63q-10 -65 -37.5 -91t-87.5 -26t-87.5 26t-37.5 91z" />
    <glyph glyph-name="dotaccent.case" horiz-adv-x="274" 
d="M48 872h89v-102h-89v102z" />
    <glyph glyph-name="ring.case" horiz-adv-x="274" 
d="M50 822q0 33 24.5 54.5t62.5 21.5t62.5 -21.5t24.5 -54.5t-24.5 -54t-62.5 -21t-62.5 21t-24.5 54zM101 822q0 -16 10 -26.5t26 -10.5t26 10.5t10 26.5t-10 27t-26 11t-26 -11t-10 -27z" />
    <glyph glyph-name="tilde.case" horiz-adv-x="274" 
d="M231 873l46 -7q-9 -57 -28 -85t-56 -28q-24 0 -45.5 17t-38.5 34t-29 17q-27 0 -38 -63l-46 7q9 58 28 86t56 28q24 0 45.5 -17.5t38.5 -34.5t29 -17q27 0 38 63z" />
    <glyph glyph-name="hungarumlaut.case" horiz-adv-x="274" 
d="M88 872h90l-76 -113h-58zM229 872h90l-92 -113h-59z" />
    <glyph glyph-name="gravecomb.case" horiz-adv-x="1" 
d="M-428 872h111l69 -113h-77z" />
    <glyph glyph-name="acutecomb.case" horiz-adv-x="1" 
d="M-289 872h109l-96 -113h-75z" />
    <glyph glyph-name="uni0302.case" horiz-adv-x="1" 
d="M-350 759h-76l91 113h71l92 -113h-76l-51 66z" />
    <glyph glyph-name="tildecomb.case" horiz-adv-x="1" 
d="M-204 873l46 -7q-9 -57 -28 -85t-56 -28q-30 0 -65 34t-48 34q-27 0 -38 -63l-46 7q9 58 28 86t56 28q24 0 45.5 -17.5t38.5 -34.5t29 -17q27 0 38 63z" />
    <glyph glyph-name="uni0304.case" horiz-adv-x="1" 
d="M-14 844v-58h-244v58h244z" />
    <glyph glyph-name="uni0306.case" horiz-adv-x="1" 
d="M-261 904h64q4 -55 18 -76t43 -21t43 21t17 76h65q-10 -82 -37.5 -113.5t-87.5 -31.5t-87.5 31.5t-37.5 113.5z" />
    <glyph glyph-name="uni0307.case" horiz-adv-x="1" 
d="M-222 875h82v-107h-82v107z" />
    <glyph glyph-name="uni0308.case" horiz-adv-x="1" 
d="M-241 875h67v-108h-67v108zM-98 875h67v-108h-67v108z" />
    <glyph glyph-name="uni030A.case" horiz-adv-x="1" 
d="M-223 815q0 36 24.5 59.5t62.5 23.5t62.5 -23.5t24.5 -59.5t-24.5 -59t-62.5 -23t-62.5 23t-24.5 59zM-173 815q0 -18 10 -29.5t27 -11.5t27 11.5t10 29.5t-10 29.5t-27 11.5t-27 -11.5t-10 -29.5z" />
    <glyph glyph-name="uni030B.case" horiz-adv-x="1" 
d="M-182 897h89l-80 -138h-55zM-41 897h89l-96 -138h-56z" />
    <glyph glyph-name="uni030C.case" horiz-adv-x="1" 
d="M-381 872h75l49 -68l51 68h73l-94 -113h-60z" />
    <glyph glyph-name="uni0327.case" horiz-adv-x="1" 
d="M-174 19l49 -3l-8 -47q80 -10 80 -61q0 -33 -31.5 -54.5t-89.5 -25.5l-13 41q37 7 51 14.5t14 20.5q0 24 -70 28z" />
    <glyph glyph-name="uni0328.case" horiz-adv-x="1" 
d="M-121 5l39 -7q-78 -23 -78 -78q0 -35 43 -35q40 0 71 20l18 -47q-43 -30 -101 -30q-102 0 -102 74q0 36 29 62.5t81 40.5z" />
    <glyph glyph-name="endash.case" horiz-adv-x="417" 
d="M26 341v69h365v-69h-365z" />
    <glyph glyph-name="emdash.case" horiz-adv-x="592" 
d="M26 341v69h540v-69h-540z" />
    <glyph glyph-name="bullet.case" horiz-adv-x="279" 
d="M21 390q0 55 34.5 93.5t84.5 38.5q51 0 85.5 -38t34.5 -94q0 -55 -34.5 -93t-85.5 -38q-50 0 -84.5 38t-34.5 93z" />
    <glyph glyph-name="guilsinglleft.case" horiz-adv-x="249" 
d="M225 517l-126 -179l126 -178h-76l-125 178l125 179h76z" />
    <glyph glyph-name="guilsinglright.case" horiz-adv-x="249" 
d="M23 160l127 178l-127 179h77l125 -179l-125 -178h-77z" />
    <glyph glyph-name="uni2E18.case" horiz-adv-x="521" 
d="M499 154q-26 -72 -89 -118.5t-150 -46.5q-109 0 -163 53t-54 130t49 137.5t139 97.5l5 108h65l6 -184v-267q86 20 123 113zM128 175q0 -103 106 -115v282q-106 -61 -106 -167zM321 725v-109h-102v109h102z" />
    <glyph glyph-name="ampersand.ss01" horiz-adv-x="586" 
d="M80 571q0 71 45.5 117t128.5 46q77 0 123 -37t46 -96q0 -45 -24.5 -86.5t-51 -65t-75.5 -60.5l150 -197q45 87 45 201h70q0 -152 -66 -259q54 -53 128 -69l-12 -74q-93 14 -163 82q-80 -82 -196 -82q-97 0 -150 47t-53 138q0 67 37.5 119.5t103.5 103.5l-25 33
q-61 81 -61 139zM116 183q0 -58 32 -88.5t89 -30.5q79 0 140 64l-166 214q-95 -79 -95 -159zM344 595q0 32 -22 51.5t-67 19.5q-93 0 -93 -95q0 -42 40 -91l26 -34q58 44 87 77.5t29 71.5z" />
    <glyph glyph-name="ampersand.sc.ss01" horiz-adv-x="533" 
d="M73 458q0 56 42.5 93.5t122.5 37.5q68 0 107 -30t39 -76q0 -28 -11 -52.5t-35 -47.5t-42 -37t-53 -38l140 -151q39 67 39 158h69q0 -122 -59 -207q46 -40 108 -49l-10 -65q-76 6 -145 62q-72 -64 -176 -64q-87 0 -136 38.5t-49 113.5q0 89 117 172l-6 7q-62 67 -62 135z
M108 149q0 -44 28.5 -67.5t79.5 -23.5q71 0 122 45l-152 165q-78 -60 -78 -119zM309 475q0 23 -18.5 36.5t-54.5 13.5q-86 0 -86 -69q0 -48 38 -89l11 -12q38 26 56.5 40t36 36.5t17.5 43.5z" />
    <glyph glyph-name="ampersand.ss02" horiz-adv-x="563" 
d="M399 484l78 17v-90h55v-70h-55v-248q0 -38 36 -38h19v-59h-45q-61 0 -87 58q-67 -64 -167 -64q-96 0 -150 50.5t-54 150.5q0 149 129 188q-96 41 -96 164q0 87 51.5 139.5t146.5 52.5q149 0 205 -137l-67 -25q-41 90 -135 90q-55 0 -84 -32t-29 -93q0 -127 147 -127h99z
M256 65q80 0 136 60v216h-109q-163 0 -163 -143q0 -133 136 -133z" />
    <glyph glyph-name="ampersand.sc.ss02" horiz-adv-x="481" 
d="M337 387l74 15v-70h45v-64h-45v-187q0 -30 29 -30h16v-54h-42q-52 0 -76 47q-57 -51 -144 -51q-79 0 -125 41t-46 119q0 117 107 150q-79 32 -79 127q0 71 46.5 115t128.5 44q124 0 175 -114l-64 -23q-34 70 -106 70q-96 0 -96 -96q0 -94 118 -94h81zM217 60q67 0 113 49
v159h-88q-132 0 -132 -107q0 -101 107 -101z" />
    <glyph glyph-name="orn001" horiz-adv-x="622" 
d="M543 491v-262q0 -112 -61 -175.5t-171 -63.5q-111 0 -171.5 63.5t-60.5 175.5v262q0 114 60.5 179t171.5 65q110 0 171 -65t61 -179zM128 373v-156q0 -93 47 -141t136 -48t136.5 48.5t47.5 140.5v156q0 95 -47 145t-137 50t-136.5 -50t-46.5 -145zM197 362
q0 17 11.5 29.5t27.5 12.5q18 0 29 -12t11 -30q0 -17 -11.5 -29.5t-28.5 -12.5q-16 0 -27.5 12.5t-11.5 29.5zM350 362q0 17 11.5 29.5t28.5 12.5q16 0 28 -12.5t12 -29.5t-11.5 -29.5t-28.5 -12.5t-28.5 12.5t-11.5 29.5zM291 213v114h44v-114h-44zM223 143v37h187v-37
h-187zM213 374q0 -13 13 -13t13 13q0 14 -13 14t-13 -14zM368 374q0 -13 13 -13t13 13q0 14 -13 14t-13 -14z" />
    </font>
</defs>
</svg>
