<?xml version="1.0" standalone="no"?>
<!DOCTYPE svg PUBLIC "-//W3C//DTD SVG 1.1//EN" "http://www.w3.org/Graphics/SVG/1.1/DTD/svg11.dtd" >
<svg>
<metadata>
Created by FontForge 20110222 at Tue Apr  2 02:47:09 2013
 By Orthosie Webmaster
2010 Lukasz Dziedzic published by FSI FontShop International GmbH
</metadata>
<defs>
<font id="GoodOTBoldItalic" horiz-adv-x="532" >
  <font-face 
    font-family="GoodOTBoldItalic"
    font-weight="700"
    font-style="italic"
    font-stretch="normal"
    units-per-em="1000"
    panose-1="2 11 8 4 2 1 1 2 1 2"
    ascent="820"
    descent="-180"
    x-height="511"
    cap-height="725"
    bbox="-587 -202 1220 905"
    underline-thickness="70"
    underline-position="-20"
    slope="-7"
    unicode-range="U+000D-FB04"
  />
<missing-glyph horiz-adv-x="500" 
d="M272 274l11 47q131 56 131 155q0 44 -33 74t-101 30q-118 0 -175 -111l76 -25q29 53 83 53q46 0 46 -37q0 -71 -110 -103l-4 -83h76zM182 235l-12 -103h99l11 103h-98zM-16 0l88 724h443l-88 -724h-443z" />
    <glyph glyph-name="f_f" unicode="ff" horiz-adv-x="580" 
d="M594 510l-11 -99h-98l-50 -411h-134l50 411h-138l-50 -411h-134l50 411h-50l11 99h52l4 33q10 83 69 134t175 53l-5 -95q-54 -2 -80 -26t-32 -69l-4 -30h145l4 33q10 83 69 134t175 53l-5 -95q-54 -2 -80 -26t-32 -69l-4 -30h103z" />
    <glyph glyph-name="f_f_i" unicode="ffi" horiz-adv-x="796" 
d="M610 730l-5 -95q-54 -2 -80 -26t-32 -69l-4 -30h277l-62 -510h-134l49 411h-136l-50 -411h-134l50 411h-136l-50 -411h-134l50 411h-50l11 99h52l4 33q10 83 69 134t175 53l-5 -95q-54 -2 -80 -26t-32 -69l-4 -30h143l4 33q10 83 69 134t175 53zM668 725h118l-15 -128
h-118z" />
    <glyph glyph-name="f_f_j" unicode="ffj" horiz-adv-x="797" 
d="M766 510l-58 -470q-24 -196 -224 -206l3 103q39 5 59 28t27 74l46 372h-136l-50 -411h-134l50 411h-136l-50 -411h-134l50 411h-50l11 99h52l4 33q10 83 69 134t175 53l-5 -95q-54 -2 -80 -26t-32 -69l-4 -30h143l4 33q10 83 69 134t175 53l-5 -95q-54 -2 -80 -26
t-32 -69l-4 -30h277zM668 725h118l-15 -128h-118z" />
    <glyph glyph-name="f_f_l" unicode="ffl" horiz-adv-x="808" 
d="M362 510l4 33q11 85 73.5 136t187.5 51h40l2 16h134l-91 -746h-134l77 635h-38q-61 0 -89 -23t-34 -72l-4 -30h91l-11 -99h-87l-50 -411h-134l50 411h-136l-50 -411h-134l50 411h-50l11 99h52l4 33q10 83 69 134t175 53l-5 -95q-54 -2 -80 -26t-32 -69l-4 -30h143z" />
    <glyph glyph-name="f_i" unicode="fi" horiz-adv-x="526" 
d="M340 730l-5 -95q-54 -2 -80 -26t-32 -69l-4 -30h277l-62 -510h-134l49 411h-136l-50 -411h-134l50 411h-50l11 99h52l4 33q10 83 69 134t175 53zM398 725h118l-15 -128h-118z" />
    <glyph glyph-name="f_j" unicode="fj" horiz-adv-x="526" 
d="M496 510l-58 -470q-24 -196 -224 -206l3 103q39 5 59 28t27 74l46 372h-136l-50 -411h-134l50 411h-50l11 99h52l4 33q10 83 69 134t175 53l-5 -95q-54 -2 -80 -26t-32 -69l-4 -30h277zM398 725h118l-15 -128h-118z" />
    <glyph glyph-name="f_l" unicode="fl" horiz-adv-x="537" 
d="M311 510l-11 -100h-87l-50 -410h-134l50 410h-50l11 100h52l4 33q10 85 72.5 136t187.5 51h41l2 16h134l-91 -746h-134l77 635h-38q-61 0 -89.5 -23t-34.5 -72l-4 -30h92z" />
    <glyph glyph-name=".notdef" horiz-adv-x="500" 
d="M272 274l11 47q131 56 131 155q0 44 -33 74t-101 30q-118 0 -175 -111l76 -25q29 53 83 53q46 0 46 -37q0 -71 -110 -103l-4 -83h76zM182 235l-12 -103h99l11 103h-98zM-16 0l88 724h443l-88 -724h-443z" />
    <glyph glyph-name=".null" horiz-adv-x="0" 
 />
    <glyph glyph-name=".null" horiz-adv-x="0" 
 />
    <glyph glyph-name="nonmarkingreturn" horiz-adv-x="333" 
 />
    <glyph glyph-name="CR" unicode="&#xd;" horiz-adv-x="192" 
 />
    <glyph glyph-name="space" unicode=" " horiz-adv-x="192" 
 />
    <glyph glyph-name="exclam" unicode="!" horiz-adv-x="248" 
d="M109 725h134l-36 -275l-39 -223h-110l14 218zM19 0l16 146h137l-16 -146h-137z" />
    <glyph glyph-name="quotedbl" unicode="&#x22;" horiz-adv-x="364" 
d="M235 583l17 142h111l-17 -142l-43 -109h-55zM83 583l17 142h111l-17 -142l-43 -109h-55z" />
    <glyph glyph-name="numbersign" unicode="#" horiz-adv-x="540" 
d="M58 436l10 92h95l39 197h95l-39 -197h100l39 197h95l-40 -197h76l-10 -92h-80l-27 -146h88l-10 -92h-92l-39 -198h-94l39 198h-100l-39 -198h-95l39 198h-80l11 92h83l27 146h-91zM244 436l-27 -146h100l26 146h-99z" />
    <glyph glyph-name="dollar" unicode="$" horiz-adv-x="502" 
d="M377 824l-10 -99q105 -34 126 -156l-95 -32q-12 59 -54 77l-38 -192q34 -19 54.5 -33.5t44.5 -38.5t36 -54.5t12 -67.5q0 -97 -58 -160t-148 -75l-25 -94h-80l9 97q-123 26 -141 169l101 35q10 -67 63 -88l39 201q-34 18 -55.5 33t-46 39t-37 54.5t-12.5 68.5
q0 91 58 154.5t153 71.5l24 90h80zM336 180q0 2 0.5 5.5t0.5 4.5q0 45 -55 83l-24 -169q69 11 78 76zM185 553q-1 -4 -1 -11q0 -42 53 -78l21 157q-65 -10 -73 -68z" />
    <glyph glyph-name="percent" unicode="%" horiz-adv-x="609" 
d="M327 586l-6 -44q-8 -70 -46.5 -108t-102.5 -38q-57 0 -87 30.5t-30 86.5q0 9 2 29l6 44q9 71 47 110t103 39q57 0 86.5 -31.5t29.5 -88.5q0 -9 -2 -29zM155 585l-5 -42q-2 -18 -2 -24q0 -40 34 -40q21 0 32 14.5t15 49.5l5 42q2 18 2 24q0 38 -33 38q-21 0 -32.5 -14
t-15.5 -48zM17 0l491 723h98l-491 -723h-98zM570 177l-6 -43q-21 -147 -149 -147q-57 0 -87 30.5t-30 87.5q0 9 2 29l5 43q8 70 47.5 109.5t103.5 39.5q56 0 86 -31.5t30 -88.5q0 -9 -2 -29zM398 176l-6 -42q-2 -18 -2 -24q0 -39 34 -39q21 0 31.5 13.5t15.5 49.5l6 42
q2 18 2 24q0 38 -33 38q-22 0 -32.5 -13.5t-15.5 -48.5z" />
    <glyph glyph-name="ampersand" unicode="&#x26;" horiz-adv-x="608" 
d="M495 598l-96 -51q-27 80 -81 80q-63 0 -63 -72q0 -31 14 -54l131 -218q21 58 32 136l4 29h167l-12 -106h-66q-20 -91 -59 -165q42 -56 113 -67l-27 -118q-108 9 -169 74q-81 -75 -188 -75q-87 0 -138 45t-51 135q0 82 39.5 151.5t109.5 112.5q-31 55 -31 109q0 78 52 134
t145 56q69 0 110.5 -33t63.5 -103zM225 101q54 0 101 50l-115 190q-68 -64 -68 -157q0 -83 82 -83z" />
    <glyph glyph-name="quotesingle" unicode="'" horiz-adv-x="195" 
d="M78 583l17 142h111l-17 -142l-43 -109h-55z" />
    <glyph glyph-name="parenleft" unicode="(" horiz-adv-x="280" 
d="M36 166l42 331q21 167 81.5 243t176.5 76h27l-10 -94h-28q-104 0 -134 -225l-43 -331q-5 -39 -5 -82q0 -143 85 -143h28l-11 -95h-28q-97 0 -142.5 53.5t-45.5 167.5q0 49 7 99z" />
    <glyph glyph-name="parenright" unicode=")" horiz-adv-x="280" 
d="M254 497l-43 -331q-22 -168 -82.5 -244t-174.5 -76h-27l10 95h28q103 0 133 225l43 331q6 48 6 84q0 141 -85 141h-28l10 94h28q97 0 143 -53.5t46 -167.5q0 -48 -7 -98z" />
    <glyph glyph-name="asterisk" unicode="*" horiz-adv-x="316" 
d="M153 638l-92 20l33 78l82 -41l2 99h77l-22 -99l92 41l15 -78l-97 -20l56 -73l-67 -48l-38 85l-57 -85l-57 49z" />
    <glyph glyph-name="plus" unicode="+" horiz-adv-x="450" 
d="M176 90v171h-137v99h137v170h97v-170h138v-99h-138v-171h-97z" />
    <glyph glyph-name="comma" unicode="," horiz-adv-x="214" 
d="M4 0l15 134h136l-11 -97q-19 -164 -152 -173l2 62q30 4 43.5 20.5t19.5 53.5h-53z" />
    <glyph glyph-name="hyphen" unicode="-" horiz-adv-x="280" 
d="M22 235l13 116h222l-13 -116h-222z" />
    <glyph glyph-name="period" unicode="." horiz-adv-x="214" 
d="M3 0l16 146h137l-16 -146h-137z" />
    <glyph glyph-name="slash" unicode="/" horiz-adv-x="319" 
d="M-71 -85l362 827h100l-364 -827h-98z" />
    <glyph glyph-name="zero" unicode="0" horiz-adv-x="540" 
d="M524 484l-33 -244q-16 -117 -83 -183.5t-176 -66.5q-99 0 -151 54t-52 150q0 22 3 46l34 243q16 118 82 185t176 67q98 0 150.5 -54.5t52.5 -151.5q0 -21 -3 -45zM204 484l-34 -244q-3 -23 -3 -41q0 -47 19.5 -67.5t59.5 -20.5q47 0 72 29.5t35 99.5l33 244q3 21 3 38
q0 46 -19 66.5t-60 20.5q-48 0 -73.5 -29t-32.5 -96z" />
    <glyph glyph-name="one" unicode="1" horiz-adv-x="382" 
d="M249 729h115l-90 -729h-146l63 498h-140l12 101h59q59 0 83.5 24.5t43.5 105.5z" />
    <glyph glyph-name="two" unicode="2" horiz-adv-x="518" 
d="M322 735q96 0 144 -46t48 -119q0 -72 -29.5 -130t-74 -97t-91 -72t-88.5 -72.5t-57 -81.5h286l-13 -117h-440l5 63q9 57 39.5 109t70 89t84 75.5t81.5 69t61 68.5t24 75q0 64 -76 64q-40 0 -72.5 -28.5t-50.5 -81.5l-106 36q33 88 98 142t157 54z" />
    <glyph glyph-name="three" unicode="3" horiz-adv-x="514" 
d="M183 317l12 108h53q108 0 108 121q0 69 -71 69q-82 0 -121 -94l-101 37q32 82 96.5 129.5t152.5 47.5q94 0 142 -46.5t48 -119.5q0 -68 -30.5 -119t-83.5 -73q86 -27 86 -130q0 -125 -72 -191t-187 -66q-181 0 -207 167l107 38q21 -89 104 -89q51 0 80 35.5t29 103.5
q0 39 -22.5 55.5t-66.5 16.5h-56z" />
    <glyph glyph-name="four" unicode="4" horiz-adv-x="529" 
d="M410 0h-128l15 132h-305l11 95l358 498h138l-59 -480h73l-22 -113h-65zM150 245h162l46 314z" />
    <glyph glyph-name="five" unicode="5" horiz-adv-x="515" 
d="M141 316l-85 41l73 368h385l-24 -126h-265l-29 -158q56 25 116 25q170 0 170 -175q0 -136 -66.5 -218.5t-202.5 -82.5q-83 0 -135.5 42.5t-62.5 125.5l110 38q16 -89 94 -89q116 0 116 162q0 42 -22 60.5t-68 18.5q-60 0 -104 -32z" />
    <glyph glyph-name="six" unicode="6" horiz-adv-x="525" 
d="M331 735q76 0 124.5 -41.5t61.5 -121.5l-102 -40q-16 82 -90 82q-102 0 -121 -127l-10 -63q58 36 130 36q167 0 167 -164q0 -23 -3 -50q-16 -129 -82.5 -192.5t-176.5 -63.5q-97 0 -148.5 52t-51.5 145q0 21 3 45l32 238q16 117 88 191t179 74zM177 288l-9 -72
q-2 -16 -2 -23q0 -80 81 -80q45 0 69 29.5t34 98.5q2 11 2 31q0 38 -17.5 55t-55.5 17q-44 0 -71.5 -15t-30.5 -41z" />
    <glyph glyph-name="seven" unicode="7" horiz-adv-x="485" 
d="M196 0h-154l319 600h-310l15 125h461l-13 -111z" />
    <glyph glyph-name="eight" unicode="8" horiz-adv-x="529" 
d="M227 -10q-210 0 -210 178q0 166 118 217q-60 34 -60 120q0 105 60.5 167.5t183.5 62.5q195 0 195 -160q0 -140 -98 -190q75 -37 75 -135q0 -124 -68.5 -192t-195.5 -68zM240 107q61 0 86.5 36.5t25.5 107.5q0 40 -20.5 56t-62.5 16q-55 0 -83.5 -30t-28.5 -106
q0 -44 20.5 -62t62.5 -18zM305 621q-52 0 -76.5 -28.5t-24.5 -97.5q0 -37 18 -52.5t58 -15.5q52 0 77 28.5t25 99.5q0 36 -18 51t-59 15z" />
    <glyph glyph-name="nine" unicode="9" horiz-adv-x="525" 
d="M118 196q12 -47 36 -67t67 -20q101 0 116 112l12 94q-51 -37 -121 -37q-84 0 -129.5 42t-45.5 128q0 136 70.5 211.5t192.5 75.5q96 0 147 -51.5t51 -136.5q0 -24 -2 -37l-37 -280q-14 -111 -83.5 -175.5t-176.5 -64.5q-165 0 -195 156zM267 391q36 0 65.5 15.5
t33.5 46.5l9 63q2 18 2 25q0 72 -78 72q-106 0 -106 -147q0 -41 18 -58t56 -17z" />
    <glyph glyph-name="colon" unicode=":" horiz-adv-x="214" 
d="M46 345l16 146h137l-16 -146h-137zM3 0l16 146h137l-16 -146h-137z" />
    <glyph glyph-name="semicolon" unicode=";" horiz-adv-x="215" 
d="M47 345l16 146h137l-16 -146h-137zM4 0l15 134h136l-11 -97q-19 -164 -152 -173l2 62q30 4 44 20t25 54h-59z" />
    <glyph glyph-name="less" unicode="&#x3c;" horiz-adv-x="450" 
d="M386 422l-166 -106l167 -106v-131l-341 230v13l340 231v-131z" />
    <glyph glyph-name="equal" unicode="=" horiz-adv-x="450" 
d="M394 334h-338v100h338v-100zM394 169h-338v100h338v-100z" />
    <glyph glyph-name="greater" unicode="&#x3e;" horiz-adv-x="450" 
d="M64 210l166 106l-166 106v131l340 -231v-13l-340 -230v131z" />
    <glyph glyph-name="question" unicode="?" horiz-adv-x="493" 
d="M48 559q37 80 103 128t155 48q97 0 144.5 -44.5t47.5 -113.5q0 -85 -53.5 -158.5t-148.5 -116.5l-17 -77h-102l9 140q87 33 130.5 81.5t43.5 105.5q0 67 -76 67q-87 0 -132 -94zM133 0l16 146h137l-16 -146h-137z" />
    <glyph glyph-name="at" unicode="@" horiz-adv-x="760" 
d="M551 425h-21l-15 -199q-1 -6 -1 -16q0 -47 42 -47q34 0 52 28t18 103v126q0 223 -235 223q-121 0 -188 -69.5t-67 -178.5v-207q0 -124 69.5 -190t189.5 -66q79 0 130 20.5t97 63.5l72 -52q-119 -124 -300 -124q-170 0 -263 91.5t-93 255.5v209q0 147 94 244.5t259 97.5
q160 0 245 -89t85 -229v-125q0 -115 -46.5 -172.5t-124.5 -57.5q-76 0 -108 45q-50 -48 -123 -48q-62 0 -95 42t-33 115q0 136 64.5 213.5t183.5 77.5h117zM404 198l16 213h-8q-102 0 -102 -187q0 -36 9.5 -50t29.5 -14q37 0 55 38z" />
    <glyph glyph-name="A" unicode="A" horiz-adv-x="596" 
d="M176 154l-56 -154h-151l297 725h170l119 -725h-152l-19 154h-208zM332 584l-116 -319h155z" />
    <glyph glyph-name="B" unicode="B" horiz-adv-x="569" 
d="M539 567q0 -151 -109 -189q99 -29 99 -138q0 -107 -59.5 -173.5t-191.5 -66.5h-251l89 725h223q102 0 151 -42.5t49 -115.5zM211 314l-25 -192h98q48 0 73 29.5t25 99.5q0 35 -17 49t-56 14h-98zM247 599l-23 -174h83q94 0 94 114q0 33 -16.5 46.5t-54.5 13.5h-83z" />
    <glyph glyph-name="C" unicode="C" horiz-adv-x="512" 
d="M329 735q81 0 134 -47.5t61 -120.5l-114 -39q-9 82 -83 82q-95 0 -110 -120l-36 -267q-2 -18 -2 -24q0 -89 84 -89q38 0 62.5 20.5t41.5 66.5l108 -37q-59 -170 -239 -170q-97 0 -152.5 53t-55.5 144q0 22 4 53l34 249q16 115 86 180.5t177 65.5z" />
    <glyph glyph-name="D" unicode="D" horiz-adv-x="604" 
d="M116 725h248q108 0 166.5 -56.5t58.5 -155.5q0 -31 -5 -62l-28 -197q-17 -118 -90 -186t-191 -68h-248zM436 464q3 22 3 40q0 50 -21.5 72t-67.5 22h-100l-60 -475h99q53 0 80.5 30.5t37.5 104.5z" />
    <glyph glyph-name="E" unicode="E" horiz-adv-x="508" 
d="M116 725h408l-15 -130h-259l-22 -166h195l-13 -114h-196l-24 -187h269l-14 -128h-418z" />
    <glyph glyph-name="F" unicode="F" horiz-adv-x="503" 
d="M116 725h412l-15 -130h-263l-22 -178h224l-13 -120h-226l-37 -297h-149z" />
    <glyph glyph-name="G" unicode="G" horiz-adv-x="580" 
d="M352 735q89 0 146 -45.5t67 -123.5l-113 -40q-22 85 -102 85q-61 0 -93 -35t-43 -109l-32 -222q-2 -20 -2 -27q0 -102 103 -102q63 0 102 50l15 109h-79l12 99h209l-45 -374h-121l5 45q-67 -55 -153 -55q-92 0 -145 52t-53 152q0 24 3 49l31 225q17 125 89 196t199 71z
" />
    <glyph glyph-name="H" unicode="H" horiz-adv-x="608" 
d="M116 725h149l-36 -290h185l36 290h150l-89 -725h-150l38 304h-185l-38 -304h-149z" />
    <glyph glyph-name="I" unicode="I" horiz-adv-x="294" 
d="M126 725h149l-89 -725h-149z" />
    <glyph glyph-name="J" unicode="J" horiz-adv-x="296" 
d="M138 725h149l-75 -597q-16 -127 -91 -195t-206 -70l1 118q68 0 102 33t44 112z" />
    <glyph glyph-name="K" unicode="K" horiz-adv-x="586" 
d="M547 0h-164l-119 300l-63 -78l-27 -222h-147l89 725h147l-41 -332l230 332h169l-248 -320z" />
    <glyph glyph-name="L" unicode="L" horiz-adv-x="468" 
d="M116 725h144l-74 -593h241l-14 -132h-386z" />
    <glyph glyph-name="M" unicode="M" horiz-adv-x="774" 
d="M625 725h140l-89 -725h-135l52 428l-195 -316h-66l-117 315l-53 -427h-135l89 725h140l131 -418z" />
    <glyph glyph-name="N" unicode="N" horiz-adv-x="608" 
d="M116 725h111l189 -413l52 413h132l-89 -725h-104l-195 429l-54 -429h-131z" />
    <glyph glyph-name="O" unicode="O" horiz-adv-x="583" 
d="M346 735q108 0 165.5 -55t57.5 -153q0 -21 -3 -44l-32 -241q-15 -118 -87.5 -185t-192.5 -67q-109 0 -166.5 55t-57.5 153q0 22 3 44l32 241q15 118 88 185t193 67zM384 242l33 241q2 13 2 36q0 48 -21 69.5t-66 21.5q-52 0 -80 -29.5t-37 -97.5l-33 -241q-2 -13 -2 -37
q0 -49 21 -71.5t66 -22.5q53 0 81 31t36 100z" />
    <glyph glyph-name="P" unicode="P" horiz-adv-x="556" 
d="M364 725q93 0 143 -50.5t50 -141.5q0 -129 -66 -205t-174 -76h-109l-32 -252h-149l89 725h248zM251 601l-31 -233h94q43 0 68.5 39t25.5 120q0 40 -15 57t-48 17h-94z" />
    <glyph glyph-name="Q" unicode="Q" horiz-adv-x="583" 
d="M346 735q108 0 165.5 -55t57.5 -153q0 -21 -3 -44l-32 -241q-12 -89 -56 -149.5t-117 -85.5l97 -108l-133 -54l-93 146q-98 5 -150 59.5t-52 147.5q0 22 3 44l32 241q15 118 88 185t193 67zM384 242l33 241q2 13 2 36q0 48 -21 69.5t-66 21.5q-52 0 -80 -29.5t-37 -97.5
l-33 -241q-2 -13 -2 -37q0 -49 21 -71.5t66 -22.5q53 0 81 31t36 100z" />
    <glyph glyph-name="R" unicode="R" horiz-adv-x="566" 
d="M362 0l-85 286h-65l-36 -286h-149l89 725h233q202 0 202 -172q0 -87 -36.5 -149t-100.5 -85l108 -319h-160zM251 602l-26 -203h80q96 0 96 139q0 35 -16.5 49.5t-54.5 14.5h-79z" />
    <glyph glyph-name="S" unicode="S" horiz-adv-x="494" 
d="M297 735q168 0 208 -159l-107 -45q-18 85 -101 85q-43 0 -66 -21t-23 -59q0 -24 19 -46t47 -37.5t61 -37t61 -44t47 -59.5t19 -82q0 -112 -70.5 -176t-180.5 -64q-83 0 -142 47t-69 127l117 39q9 -47 38 -71t68 -24q96 0 96 86q0 33 -27 60.5t-65 49t-76.5 46t-65.5 65.5
t-27 94q0 95 67 160.5t172 65.5z" />
    <glyph glyph-name="T" unicode="T" horiz-adv-x="488" 
d="M65 725h464l-15 -131h-157l-74 -594h-150l74 594h-157z" />
    <glyph glyph-name="U" unicode="U" horiz-adv-x="605" 
d="M457 725h149l-62 -486q-15 -118 -87.5 -183.5t-191.5 -65.5q-107 0 -165.5 53t-58.5 149q0 26 2 40l62 493h150l-63 -493q-1 -8 -1 -22q0 -87 89 -87q51 0 79 26t35 83z" />
    <glyph glyph-name="V" unicode="V" horiz-adv-x="597" 
d="M647 725l-306 -725h-156l-128 725h163l64 -546l199 546h164z" />
    <glyph glyph-name="W" unicode="W" horiz-adv-x="909" 
d="M945 725l-259 -725h-161l-46 485l-167 -485h-161l-80 725h149l37 -543l182 543h139l45 -546l174 546h148z" />
    <glyph glyph-name="X" unicode="X" horiz-adv-x="579" 
d="M-23 0l225 370l-132 355h162l78 -267l143 267h162l-220 -362l136 -363h-162l-84 273l-147 -273h-161z" />
    <glyph glyph-name="Y" unicode="Y" horiz-adv-x="573" 
d="M624 725l-272 -503l-27 -222h-149l27 221l-147 504h165l75 -355l164 355h164z" />
    <glyph glyph-name="Z" unicode="Z" horiz-adv-x="521" 
d="M460 129l-14 -129h-447l9 88l344 508h-267l15 129h436l-10 -89l-340 -507h274z" />
    <glyph glyph-name="bracketleft" unicode="[" horiz-adv-x="275" 
d="M8 -154l119 970h255l-11 -95h-134l-97 -779h134l-11 -96h-255z" />
    <glyph glyph-name="backslash" unicode="\" horiz-adv-x="328" 
d="M127 742l159 -827h-100l-159 827h100z" />
    <glyph glyph-name="bracketright" unicode="]" horiz-adv-x="279" 
d="M279 816l-118 -970h-257l10 97h133l97 777h-134l11 96h258z" />
    <glyph glyph-name="asciicircum" unicode="^" horiz-adv-x="443" 
d="M68 526l136 221h96l133 -221h-105l-76 133l-78 -133h-106z" />
    <glyph glyph-name="underscore" unicode="_" horiz-adv-x="417" 
d="M-41 -46h416l-11 -92h-415z" />
    <glyph glyph-name="grave" unicode="`" horiz-adv-x="271" 
d="M48 725h145l37 -143h-99z" />
    <glyph glyph-name="a" unicode="a" horiz-adv-x="493" 
d="M17 176l19 134q29 207 191 207q64 0 109 -40l10 34h123l-62 -511h-119v58q-70 -67 -153 -67q-121 0 -121 140q0 21 3 45zM198 105q49 0 93 53l29 231q-29 23 -67 23q-69 0 -83 -102l-18 -125q-2 -20 -2 -26q0 -31 12 -42.5t36 -11.5z" />
    <glyph glyph-name="b" unicode="b" horiz-adv-x="495" 
d="M242 746l-35 -285q67 59 144 59q120 0 120 -140q0 -21 -3 -45l-19 -135q-14 -102 -62.5 -154.5t-127.5 -52.5q-67 0 -115 45l-10 -38h-117l91 746h134zM287 409q-51 0 -94 -56l-28 -232q29 -23 67 -23q35 0 55.5 24t27.5 78l18 129q2 20 2 27q0 30 -12 41.5t-36 11.5z
" />
    <glyph glyph-name="c" unicode="c" horiz-adv-x="422" 
d="M416 395l-97 -36q-14 55 -62 55q-37 0 -58 -22.5t-28 -74.5l-20 -145q-1 -7 -1 -20q0 -58 58 -58t87 62l92 -34q-67 -131 -211 -131q-80 0 -120.5 42t-40.5 108q0 16 1 24l22 157q12 86 67.5 142t150.5 56q62 0 104 -32t56 -93z" />
    <glyph glyph-name="d" unicode="d" horiz-adv-x="496" 
d="M288 0l-1 57q-69 -66 -152 -66q-121 0 -121 140q0 21 3 45l19 134q29 207 191 207q60 0 104 -35l33 264h134l-91 -746h-119zM152 182q-2 -20 -2 -26q0 -30 12 -41.5t36 -11.5q50 0 92 53l29 234q-28 22 -66 22q-35 0 -55.5 -24t-27.5 -78z" />
    <glyph glyph-name="e" unicode="e" horiz-adv-x="451" 
d="M414 233h-255l-5 -43q-3 -21 -3 -29q0 -68 70 -68q55 0 89 66l93 -34q-61 -134 -209 -134q-85 0 -131.5 44t-46.5 115q0 15 3 36l20 148q11 81 68.5 133.5t151.5 52.5q82 0 125.5 -46t43.5 -118q0 -21 -3 -42zM174 342l-5 -32h136l4 27q2 16 2 24q0 59 -59 59
q-36 0 -54 -19t-24 -59z" />
    <glyph glyph-name="f" unicode="f" horiz-adv-x="308" 
d="M322 510l-11 -99h-98l-50 -411h-134l50 411h-50l11 99h52l4 33q10 83 69 134t175 53l-5 -95q-54 -2 -80 -26t-32 -69l-4 -30h103z" />
    <glyph glyph-name="g" unicode="g" horiz-adv-x="493" 
d="M21 212l15 98q32 207 191 207q64 0 109 -40l10 34h123l-56 -460q-13 -105 -75.5 -160.5t-160.5 -55.5q-74 0 -158 31l20 99q68 -25 121 -25q54 0 85.5 26t37.5 75l4 31q-59 -53 -140 -53q-63 0 -96.5 37.5t-33.5 104.5q0 23 4 51zM204 121q48 0 88 47l28 221
q-29 23 -67 23q-35 0 -55 -23.5t-28 -76.5l-17 -117q-1 -7 -1 -19q0 -55 52 -55z" />
    <glyph glyph-name="h" unicode="h" horiz-adv-x="503" 
d="M468 335l-42 -335h-134l41 329q2 20 2 27q0 30 -12 41.5t-36 11.5q-49 0 -93 -55l-43 -354h-134l91 746h134l-35 -284q66 58 144 58q120 0 120 -140q0 -21 -3 -45z" />
    <glyph glyph-name="i" unicode="i" horiz-adv-x="248" 
d="M84 511h134l-63 -511h-134zM116 725h122l-16 -128h-122z" />
    <glyph glyph-name="j" unicode="j" horiz-adv-x="259" 
d="M125 725h122l-16 -128h-122zM-53 -166l3 103q38 5 58 28t27 74l58 472h135l-59 -471q-25 -196 -222 -206z" />
    <glyph glyph-name="k" unicode="k" horiz-adv-x="505" 
d="M108 746h135l-58 -470l188 235h141l-184 -222l134 -289h-148l-85 202l-63 -61l-17 -141h-134z" />
    <glyph glyph-name="l" unicode="l" horiz-adv-x="254" 
d="M115 746h134l-91 -746h-134z" />
    <glyph glyph-name="m" unicode="m" horiz-adv-x="732" 
d="M522 406q-27 0 -50.5 -22.5t-28.5 -60.5l-41 -323h-133l40 327q2 20 2 26q0 30 -10.5 41.5t-31.5 11.5q-40 0 -77 -46l-44 -360h-134l63 511h118l-5 -56q63 65 137 65q38 0 65 -21t37 -61q66 82 153 82q56 0 87 -36.5t31 -106.5q0 -26 -2 -41l-42 -336h-134l41 327
q1 9 1 25q0 54 -42 54z" />
    <glyph glyph-name="n" unicode="n" horiz-adv-x="500" 
d="M465 335l-42 -335h-134l41 327q2 20 2 26q0 29 -12 41t-36 12q-49 0 -93 -54l-43 -352h-134l63 511h118l-1 -58q72 67 154 67q120 0 120 -138q0 -22 -3 -47z" />
    <glyph glyph-name="o" unicode="o" horiz-adv-x="479" 
d="M451 334l-21 -158q-11 -81 -71 -133t-158 -52q-90 0 -137.5 44.5t-47.5 115.5q0 7 2 25l21 158q10 80 70 133t158 53q91 0 138 -44t47 -116q0 -17 -1 -26zM173 328l-21 -146q-1 -8 -1 -22q0 -68 62 -68q37 0 56.5 22t26.5 68l21 146q1 8 1 23q0 67 -63 67q-72 0 -82 -90z
" />
    <glyph glyph-name="p" unicode="p" horiz-adv-x="493" 
d="M466 335l-20 -135q-30 -207 -190 -207q-61 0 -105 36l-24 -199h-134l84 681h118l-1 -59q71 68 154 68q121 0 121 -140q0 -21 -3 -45zM285 409q-50 0 -93 -54l-30 -234q29 -23 68 -23q67 0 82 102l19 129q2 20 2 26q0 30 -12 42t-36 12z" />
    <glyph glyph-name="q" unicode="q" horiz-adv-x="493" 
d="M17 176l19 134q29 207 191 207q64 0 109 -40l10 34h123l-83 -681h-134l27 219q-67 -58 -144 -58q-121 0 -121 140q0 21 3 45zM198 105q50 0 94 55l28 229q-29 23 -67 23q-69 0 -83 -102l-18 -125q-2 -20 -2 -26q0 -31 12 -42.5t36 -11.5z" />
    <glyph glyph-name="r" unicode="r" horiz-adv-x="357" 
d="M368 506l-26 -125q-18 13 -42 13q-40 0 -71.5 -39t-49.5 -110l-31 -245h-134l63 511h115l-5 -103q56 111 133 111q28 0 48 -13z" />
    <glyph glyph-name="s" unicode="s" horiz-adv-x="406" 
d="M396 395l-93 -31q-15 60 -71 60q-62 0 -62 -51q0 -19 20 -34t49 -27.5t58 -28.5t49 -45t20 -69q0 -75 -56.5 -126.5t-139.5 -51.5q-134 0 -167 122l91 38q11 -33 33.5 -49.5t48.5 -16.5q28 0 45 14.5t17 42.5q0 20 -20.5 35.5t-49 28t-57.5 28t-49.5 44.5t-20.5 69
q0 74 53.5 123.5t142.5 49.5q66 0 106.5 -33.5t52.5 -91.5z" />
    <glyph glyph-name="t" unicode="t" horiz-adv-x="328" 
d="M330 511l-11 -101h-104l-32 -258q-1 -5 -1 -13q0 -47 50 -47q18 0 38 6l1 -83q-46 -23 -100 -23q-65 0 -94.5 31t-29.5 95q0 26 2 40l32 245l-54 18l10 88l64 5l51 138h93l-18 -141h103z" />
    <glyph glyph-name="u" unicode="u" horiz-adv-x="500" 
d="M201 511l-41 -326q-2 -20 -2 -26q0 -30 12 -41.5t36 -11.5q49 0 92 52l45 353h134l-63 -511h-118v59q-70 -67 -153 -67q-121 0 -121 140q0 21 3 45l42 334h134z" />
    <glyph glyph-name="v" unicode="v" horiz-adv-x="494" 
d="M516 511l-230 -511h-151l-104 511h151l43 -389l140 389h151z" />
    <glyph glyph-name="w" unicode="w" horiz-adv-x="712" 
d="M392 0l-30 343l-113 -343h-149l-65 511h139l22 -378l123 378h128l29 -381l116 381h139l-191 -511h-148z" />
    <glyph glyph-name="x" unicode="x" horiz-adv-x="493" 
d="M-26 0l176 264l-110 247h148l67 -180l105 180h146l-172 -255l114 -256h-148l-70 190l-110 -190h-146z" />
    <glyph glyph-name="y" unicode="y" horiz-adv-x="494" 
d="M514 511l-237 -507q-41 -88 -96.5 -127t-140.5 -42l3 96q41 5 67 22.5t44 54.5l9 19l-130 484h149l63 -341l131 341h138z" />
    <glyph glyph-name="z" unicode="z" horiz-adv-x="419" 
d="M362 105l-12 -105h-355l8 75l242 329h-192l13 107h350l-8 -74l-245 -332h199z" />
    <glyph glyph-name="braceleft" unicode="{" horiz-adv-x="287" 
d="M21 290l10 83q82 9 82 82q0 15 -4.5 58.5t-4.5 71.5q0 231 254 231h28l-9 -83h-28q-126 0 -126 -168q0 -23 3.5 -63t3.5 -55q0 -90 -91 -116q68 -22 68 -82q0 -19 -26.5 -98t-26.5 -127q0 -94 95 -94h28l-10 -83h-28q-101 0 -154.5 39t-53.5 115q0 57 28 136.5t28 97.5
q0 23 -17.5 37.5t-48.5 17.5z" />
    <glyph glyph-name="bar" unicode="|" horiz-adv-x="288" 
d="M27 -154l119 970h124l-118 -970h-125z" />
    <glyph glyph-name="braceright" unicode="}" horiz-adv-x="287" 
d="M276 373l-10 -83q-83 -7 -83 -82q0 -15 4.5 -58t4.5 -71q0 -232 -252 -232h-29l10 84h27q125 0 125 164q0 24 -3.5 65t-3.5 56q0 89 90 116q-67 19 -67 80q0 18 26.5 98t26.5 129q0 93 -95 93h-28l10 84h28q101 0 155 -38.5t54 -114.5q0 -57 -29 -137.5t-29 -98.5
q0 -48 68 -54z" />
    <glyph glyph-name="asciitilde" unicode="~" horiz-adv-x="489" 
d="M182 587h-98q11 159 132 159q39 0 68 -17t47.5 -33.5t33.5 -16.5q14 0 21.5 12.5t10.5 44.5h98q-13 -159 -132 -159q-31 0 -56 10.5t-38 23t-28 23t-27 10.5q-15 0 -22 -12t-10 -45z" />
    <glyph glyph-name="uni00A0" unicode="&#xa0;" horiz-adv-x="192" 
 />
    <glyph glyph-name="exclamdown" unicode="&#xa1;" horiz-adv-x="248" 
d="M143 -105h-134l35 275l38 223h110l-13 -218zM232 620l-17 -145h-136l17 145h136z" />
    <glyph glyph-name="cent" unicode="&#xa2;" horiz-adv-x="422" 
d="M417 390l-98 -35q-13 56 -64 56q-35 0 -55.5 -20.5t-27.5 -70.5l-19 -129q-2 -20 -2 -26q0 -73 63 -73q53 0 81 64l92 -34q-50 -105 -147 -126l-26 -97h-79l9 96q-62 12 -94.5 54.5t-32.5 104.5q0 14 4 44l17 128q10 75 55 127t120 64l30 116h80l-12 -121
q87 -27 106 -122z" />
    <glyph glyph-name="sterling" unicode="&#xa3;" horiz-adv-x="563" 
d="M56 320l-2 97h62q0 6 -0.5 18t-0.5 17q0 128 63.5 206.5t178.5 78.5q81 0 130 -45t56 -120l-107 -38q-11 80 -84 80q-57 0 -80.5 -49.5t-23.5 -147.5h195l-23 -97h-172q0 -63 -3 -105q23 -12 45.5 -37.5t41 -42.5t39.5 -17q25 0 41.5 21t30.5 73l97 -28
q-26 -101 -69 -147.5t-106 -46.5q-36 0 -66.5 20t-44.5 38.5t-35 52.5q-44 -111 -144 -111q-43 0 -67 23t-24 66q0 58 40.5 98t108.5 50l-10 93h-67zM97 84q27 0 37 68q-27 -5 -39 -20t-12 -32q0 -16 14 -16z" />
    <glyph glyph-name="currency" unicode="&#xa4;" horiz-adv-x="391" 
d="M74 355q0 44 27 86l-36 44l52 52l38 -46q31 17 65 17q33 0 62 -18l51 50l41 -51l-50 -49q10 -21 10 -50q0 -48 -26 -87l37 -45l-52 -51l-39 46q-31 -17 -66 -17t-61 17l-50 -49l-41 50l49 48q-11 25 -11 53zM212 427q-24 0 -41.5 -18t-17.5 -44q0 -22 12.5 -35.5
t32.5 -13.5q24 0 41.5 18t17.5 46q0 21 -12.5 34t-32.5 13z" />
    <glyph glyph-name="yen" unicode="&#xa5;" horiz-adv-x="589" 
d="M460 126h-109l-15 -126h-149l15 126h-114l11 91h113l5 37h-113l10 91h87l-132 380h165l75 -324l157 324h166l-227 -380h81l-10 -91h-110l-4 -37h109z" />
    <glyph glyph-name="brokenbar" unicode="&#xa6;" horiz-adv-x="288" 
d="M94 397l52 419h124l-51 -419h-125zM27 -154l52 420h124l-57 -420h-119z" />
    <glyph glyph-name="section" unicode="&#xa7;" horiz-adv-x="433" 
d="M8 -21l107 21q9 -57 55 -57q30 0 44 16.5t14 41.5q0 23 -21 47t-51 46.5t-60 48t-51 62.5t-21 80q0 56 27 99.5t74 68.5q-42 50 -42 103q0 74 51 127t142 53q68 0 109 -39t48 -107l-106 -20q-9 56 -56 56q-29 0 -44 -16.5t-15 -41.5q0 -23 21 -46.5t51 -46t60.5 -48
t51.5 -62.5t21 -80q0 -56 -27.5 -100.5t-73.5 -68.5q42 -52 42 -106q0 -72 -51 -124.5t-141 -52.5q-68 0 -109 39t-49 107zM245 185q54 21 54 70q0 30 -25.5 58.5t-77.5 70.5q-55 -23 -55 -72q0 -8 2.5 -16.5t6 -15.5t11 -16.5t12.5 -15t16.5 -16t17 -15t19.5 -16.5t19 -16z
" />
    <glyph glyph-name="dieresis" unicode="&#xa8;" horiz-adv-x="271" 
d="M67 725h95l-16 -128h-95zM216 725h94l-15 -128h-95z" />
    <glyph glyph-name="copyright" unicode="&#xa9;" horiz-adv-x="731" 
d="M367 613q73 0 120 -37t60 -101l-91 -28q-15 71 -76 71q-78 0 -78 -89v-138q0 -90 77 -90q31 0 49 17.5t28 58.5l92 -26q-28 -142 -180 -142q-88 0 -140.5 49.5t-52.5 130.5v139q0 85 52 135t140 50zM686 430v-139q0 -132 -85 -220t-236 -88q-150 0 -235.5 88t-85.5 220
v139q0 132 85.5 220t235.5 88q151 0 236 -88t85 -220zM602 290v140q0 102 -62.5 166t-175.5 64q-112 0 -174 -64t-62 -166v-140q0 -101 62 -165t175 -64t175 64t62 165z" />
    <glyph glyph-name="ordfeminine" unicode="&#xaa;" horiz-adv-x="320" 
d="M50 550l11 79q17 125 126 125q42 0 71 -24l6 19h84l-38 -308h-81l-1 34q-48 -42 -101 -42q-79 0 -79 90q0 9 2 27zM171 505q35 0 58 28l18 142q-20 15 -42 15q-45 0 -53 -62l-10 -75q-1 -6 -1 -15q0 -33 30 -33z" />
    <glyph glyph-name="guillemotleft" unicode="&#xab;" horiz-adv-x="447" 
d="M437 437l-141 -175l98 -176h-109l-95 176l138 175h109zM270 437l-141 -175l98 -176h-109l-95 176l138 175h109z" />
    <glyph glyph-name="logicalnot" unicode="&#xac;" horiz-adv-x="450" 
d="M314 119v142h-275v99h372v-241h-97z" />
    <glyph glyph-name="uni00AD" unicode="&#xad;" horiz-adv-x="280" 
d="M22 235l13 116h222l-13 -116h-222z" />
    <glyph glyph-name="registered" unicode="&#xae;" horiz-adv-x="275" 
d="M301 666v-54q0 -52 -32 -88t-91 -36t-91 36t-32 88v54q0 52 32 86t91 34t91 -34t32 -86zM89 666v-54q0 -90 88 -90q91 0 91 90v54q0 88 -91 88q-88 0 -88 -88zM200 558l-24 62h-12v-62h-45v167h63q62 0 62 -51q0 -34 -27 -45l31 -71h-48zM164 690v-39h18q17 0 17 21
q0 18 -18 18h-17z" />
    <glyph glyph-name="macron" unicode="&#xaf;" horiz-adv-x="271" 
d="M317 695l-10 -85h-265l9 85h266z" />
    <glyph glyph-name="degree" unicode="&#xb0;" horiz-adv-x="262" 
d="M59 667q0 50 33.5 84.5t81.5 34.5t82 -35t34 -84t-34 -84t-82 -35t-81.5 34.5t-33.5 84.5zM128 667q0 -23 13 -36.5t34 -13.5q20 0 33 13.5t13 36.5t-14 37t-33 14q-20 0 -33 -14t-13 -37z" />
    <glyph glyph-name="plusminus" unicode="&#xb1;" horiz-adv-x="450" 
d="M176 154v132h-137v100h137v144h97v-144h138v-100h-138v-132h-97zM411 32h-372v99h372v-99z" />
    <glyph glyph-name="twosuperior" unicode="&#xb2;" horiz-adv-x="269" 
d="M198 799q50 0 74 -22.5t24 -57.5q0 -38 -21.5 -67.5t-48.5 -45t-54.5 -34t-34.5 -34.5h136l-7 -62h-221l2 32q6 36 33.5 68t57 50.5t53.5 41t24 43.5q0 24 -31 24q-38 0 -56 -47l-59 21q17 41 50.5 65.5t78.5 24.5z" />
    <glyph glyph-name="threesuperior" unicode="&#xb3;" horiz-adv-x="269" 
d="M132 610l7 56h26q45 0 45 42q0 28 -30 28q-36 0 -54 -37l-56 21q34 79 125 79q48 0 73 -21.5t25 -54.5q0 -62 -53 -82q42 -13 42 -60q0 -52 -36 -80.5t-93 -28.5q-91 0 -107 75l61 22q11 -36 47 -36q20 0 32 13t12 36q0 28 -38 28h-28z" />
    <glyph glyph-name="acute" unicode="&#xb4;" horiz-adv-x="271" 
d="M154 725h145l-115 -143h-98z" />
    <glyph glyph-name="mu" unicode="&#xb5;" horiz-adv-x="509" 
d="M37 195l40 316h134l-40 -315q-2 -18 -2 -24q0 -65 58 -65q48 0 78 37l47 367h134l-63 -511h-118l-1 41q-38 -36 -83 -36q-53 0 -76 40q-6 -80 -6 -154q0 -31 1 -44l-135 -11q12 200 32 359z" />
    <glyph glyph-name="paragraph" unicode="&#xb6;" horiz-adv-x="615" 
d="M216 745h458l-13 -118h-93l-98 -786h-127l98 786h-114l-98 -786h-124l77 615q-68 0 -102.5 32t-34.5 89q0 72 45 120t126 48z" />
    <glyph glyph-name="periodcentered" unicode="&#xb7;" horiz-adv-x="230" 
d="M35 318q0 37 23 63t56 26t57 -26t24 -63q0 -36 -24 -61.5t-57 -25.5t-56 25.5t-23 61.5z" />
    <glyph glyph-name="cedilla" unicode="&#xb8;" horiz-adv-x="271" 
d="M54 24l67 -6l-12 -41q70 -11 70 -56q0 -36 -38 -63t-106 -31l-17 55q58 12 58 27q0 18 -56 21z" />
    <glyph glyph-name="onesuperior" unicode="&#xb9;" horiz-adv-x="217" 
d="M168 797h67l-39 -321h-83l25 208h-67l6 53h27q30 0 42 11.5t22 48.5z" />
    <glyph glyph-name="ordmasculine" unicode="&#xba;" horiz-adv-x="306" 
d="M330 625l-10 -71q-7 -52 -46 -86t-104 -34q-60 0 -91 29t-31 74q0 11 2 26l9 70q6 51 45 85.5t104 34.5q62 0 93 -28.5t31 -74.5q0 -11 -2 -25zM149 627l-8 -60q-2 -13 -2 -25q0 -44 38 -44q45 0 53 61l8 59q2 20 2 24q0 42 -39 42q-45 0 -52 -57z" />
    <glyph glyph-name="guillemotright" unicode="&#xbb;" horiz-adv-x="447" 
d="M169 86l140 176l-98 175h109l95 -175l-138 -176h-108zM2 86l140 176l-98 175h109l95 -175l-138 -176h-108z" />
    <glyph glyph-name="onequarter" unicode="&#xbc;" horiz-adv-x="595" 
d="M202 727h67l-39 -321h-83l25 208h-67l6 53h27q30 0 42 11.5t22 48.5zM106 0h-83l483 727h83zM501 0h-71l7 57h-149l7 52l167 210h78l-25 -202h33l-12 -60h-28zM376 117h69l18 120z" />
    <glyph glyph-name="onehalf" unicode="&#xbd;" horiz-adv-x="595" 
d="M202 727h67l-39 -321h-83l25 208h-67l6 53h27q30 0 42 11.5t22 48.5zM106 0h-83l483 727h83zM463 323q50 0 74 -22.5t24 -57.5q0 -38 -21.5 -67.5t-48.5 -45t-54.5 -34t-34.5 -34.5h136l-7 -62h-221l2 32q6 36 33.5 68t57 50.5t53.5 41t24 43.5q0 24 -31 24
q-38 0 -56 -47l-59 21q17 41 50.5 65.5t78.5 24.5z" />
    <glyph glyph-name="threequarters" unicode="&#xbe;" horiz-adv-x="595" 
d="M127 540l7 56h26q45 0 45 42q0 28 -30 28q-35 0 -54 -37l-56 21q34 79 125 79q48 0 73 -21.5t25 -54.5q0 -62 -53 -82q42 -13 42 -60q0 -52 -36 -80.5t-93 -28.5q-90 0 -107 75l61 22q10 -36 47 -36q20 0 32 13t12 36q0 28 -38 28h-28zM106 0h-83l483 725h83zM491 0h-71
l7 57h-149l7 52l167 210h78l-25 -202h33l-12 -60h-28zM366 117h69l18 120z" />
    <glyph glyph-name="questiondown" unicode="&#xbf;" horiz-adv-x="493" 
d="M449 61q-36 -80 -102 -128t-155 -48q-98 0 -145.5 45t-47.5 114q0 84 54 157.5t148 115.5l18 78h101l-9 -140q-173 -64 -173 -189q0 -65 76 -65q88 0 131 94zM366 620l-18 -146h-136l17 146h137z" />
    <glyph glyph-name="Agrave" unicode="&#xc0;" horiz-adv-x="596" 
d="M176 154l-56 -154h-151l297 725h170l119 -725h-152l-19 154h-208zM332 584l-116 -319h155zM213 874h159l41 -120h-111z" />
    <glyph glyph-name="Aacute" unicode="&#xc1;" horiz-adv-x="596" 
d="M176 154l-56 -154h-151l297 725h170l119 -725h-152l-19 154h-208zM332 584l-116 -319h155zM360 874h160l-111 -120h-113z" />
    <glyph glyph-name="Acircumflex" unicode="&#xc2;" horiz-adv-x="596" 
d="M176 154l-56 -154h-151l297 725h170l119 -725h-152l-19 154h-208zM332 584l-116 -319h155zM316 754h-109l106 120h108l78 -120h-109l-31 54z" />
    <glyph glyph-name="Atilde" unicode="&#xc3;" horiz-adv-x="596" 
d="M176 154l-56 -154h-151l297 725h170l119 -725h-152l-19 154h-208zM332 584l-116 -319h155zM459 877l66 -9q-16 -60 -42.5 -91t-72.5 -31q-31 0 -63 25t-43 25q-24 0 -38 -44l-66 8q16 61 42.5 91.5t72.5 30.5q32 0 63.5 -24.5t42.5 -24.5q26 0 38 44z" />
    <glyph glyph-name="Adieresis" unicode="&#xc4;" horiz-adv-x="596" 
d="M176 154l-56 -154h-151l297 725h170l119 -725h-152l-19 154h-208zM332 584l-116 -319h155zM234 874h97l-13 -115h-98zM404 874h97l-13 -115h-98z" />
    <glyph glyph-name="Aring" unicode="&#xc5;" horiz-adv-x="596" 
d="M176 154l-56 -154h-151l297 725h170l119 -725h-152l-19 154h-208zM332 584l-116 -319h155zM260 807q0 38 31 63.5t78 25.5q41 0 66 -19.5t25 -51.5q0 -39 -31.5 -62t-77.5 -23q-41 0 -66 18t-25 49zM363 842q-13 0 -20 -8.5t-7 -20.5q0 -19 22 -19q12 0 19.5 7.5
t7.5 19.5q0 21 -22 21z" />
    <glyph glyph-name="AE" unicode="&#xc6;" horiz-adv-x="826" 
d="M203 160l-83 -160h-151l396 725h477l-15 -130h-260l-4 -166h193l-13 -114h-183l-4 -187h221l-14 -128h-360l4 160h-204zM261 271h149l9 304z" />
    <glyph glyph-name="Ccedilla" unicode="&#xc7;" horiz-adv-x="512" 
d="M329 735q81 0 134 -47.5t61 -120.5l-114 -39q-9 82 -83 82q-95 0 -110 -120l-36 -267q-2 -18 -2 -24q0 -89 84 -89q38 0 62.5 20.5t41.5 66.5l108 -37q-55 -157 -211 -169l-4 -14q70 -11 70 -56q0 -36 -38 -63t-106 -31l-17 55q58 12 58 27q0 18 -56 21l22 63
q-78 11 -121.5 62.5t-43.5 131.5q0 19 5 56l33 246q16 115 86 180.5t177 65.5z" />
    <glyph glyph-name="Egrave" unicode="&#xc8;" horiz-adv-x="508" 
d="M116 725h408l-15 -130h-259l-22 -166h195l-13 -114h-196l-24 -187h269l-14 -128h-418zM193 874h159l41 -120h-111z" />
    <glyph glyph-name="Eacute" unicode="&#xc9;" horiz-adv-x="508" 
d="M116 725h408l-15 -130h-259l-22 -166h195l-13 -114h-196l-24 -187h269l-14 -128h-418zM318 874h160l-111 -120h-113z" />
    <glyph glyph-name="Ecircumflex" unicode="&#xca;" horiz-adv-x="508" 
d="M116 725h408l-15 -130h-259l-22 -166h195l-13 -114h-196l-24 -187h269l-14 -128h-418zM293 754h-109l106 120h108l78 -120h-109l-31 54z" />
    <glyph glyph-name="Edieresis" unicode="&#xcb;" horiz-adv-x="508" 
d="M116 725h408l-15 -130h-259l-22 -166h195l-13 -114h-196l-24 -187h269l-14 -128h-418zM208 874h97l-13 -115h-98zM378 874h97l-13 -115h-98z" />
    <glyph glyph-name="Igrave" unicode="&#xcc;" horiz-adv-x="294" 
d="M126 725h149l-89 -725h-149zM70 874h159l41 -120h-111z" />
    <glyph glyph-name="Iacute" unicode="&#xcd;" horiz-adv-x="294" 
d="M126 725h149l-89 -725h-149zM203 874h160l-111 -120h-113z" />
    <glyph glyph-name="Icircumflex" unicode="&#xce;" horiz-adv-x="294" 
d="M126 725h149l-89 -725h-149zM167 754h-109l106 120h108l78 -120h-109l-31 54z" />
    <glyph glyph-name="Idieresis" unicode="&#xcf;" horiz-adv-x="294" 
d="M126 725h149l-89 -725h-149zM86 874h97l-13 -115h-98zM256 874h97l-13 -115h-98z" />
    <glyph glyph-name="Eth" unicode="&#xd0;" horiz-adv-x="618" 
d="M130 725h248q108 0 166.5 -56.5t58.5 -155.5q0 -27 -2 -41l-31 -218q-17 -118 -90 -186t-191 -68h-248l40 331h-63l9 82h64zM450 464q3 22 3 40q0 50 -21.5 72t-67.5 22h-100l-23 -185h65l-9 -82h-67l-26 -208h99q53 0 80.5 30.5t37.5 104.5z" />
    <glyph glyph-name="Ntilde" unicode="&#xd1;" horiz-adv-x="608" 
d="M116 725h111l189 -413l52 413h132l-89 -725h-104l-195 429l-54 -429h-131zM466 877l66 -9q-16 -60 -42.5 -91t-72.5 -31q-31 0 -63 25t-43 25q-24 0 -38 -44l-66 8q16 61 42.5 91.5t72.5 30.5q32 0 63.5 -24.5t42.5 -24.5q26 0 38 44z" />
    <glyph glyph-name="Ograve" unicode="&#xd2;" horiz-adv-x="583" 
d="M346 735q108 0 165.5 -55t57.5 -153q0 -21 -3 -44l-32 -241q-15 -118 -87.5 -185t-192.5 -67q-109 0 -166.5 55t-57.5 153q0 22 3 44l32 241q15 118 88 185t193 67zM384 242l33 241q2 13 2 36q0 48 -21 69.5t-66 21.5q-52 0 -80 -29.5t-37 -97.5l-33 -241q-2 -13 -2 -37
q0 -49 21 -71.5t66 -22.5q53 0 81 31t36 100zM215 874h159l41 -120h-111z" />
    <glyph glyph-name="Oacute" unicode="&#xd3;" horiz-adv-x="583" 
d="M346 735q108 0 165.5 -55t57.5 -153q0 -21 -3 -44l-32 -241q-15 -118 -87.5 -185t-192.5 -67q-109 0 -166.5 55t-57.5 153q0 22 3 44l32 241q15 118 88 185t193 67zM384 242l33 241q2 13 2 36q0 48 -21 69.5t-66 21.5q-52 0 -80 -29.5t-37 -97.5l-33 -241q-2 -13 -2 -37
q0 -49 21 -71.5t66 -22.5q53 0 81 31t36 100zM347 874h160l-111 -120h-113z" />
    <glyph glyph-name="Ocircumflex" unicode="&#xd4;" horiz-adv-x="583" 
d="M346 735q108 0 165.5 -55t57.5 -153q0 -21 -3 -44l-32 -241q-15 -118 -87.5 -185t-192.5 -67q-109 0 -166.5 55t-57.5 153q0 22 3 44l32 241q15 118 88 185t193 67zM384 242l33 241q2 13 2 36q0 48 -21 69.5t-66 21.5q-52 0 -80 -29.5t-37 -97.5l-33 -241q-2 -13 -2 -37
q0 -49 21 -71.5t66 -22.5q53 0 81 31t36 100zM311 754h-109l106 120h108l78 -120h-109l-31 54z" />
    <glyph glyph-name="Otilde" unicode="&#xd5;" horiz-adv-x="583" 
d="M346 735q108 0 165.5 -55t57.5 -153q0 -21 -3 -44l-32 -241q-15 -118 -87.5 -185t-192.5 -67q-109 0 -166.5 55t-57.5 153q0 22 3 44l32 241q15 118 88 185t193 67zM384 242l33 241q2 13 2 36q0 48 -21 69.5t-66 21.5q-52 0 -80 -29.5t-37 -97.5l-33 -241q-2 -13 -2 -37
q0 -49 21 -71.5t66 -22.5q53 0 81 31t36 100zM451 877l66 -9q-16 -60 -42.5 -91t-72.5 -31q-31 0 -63 25t-43 25q-24 0 -38 -44l-66 8q16 61 42.5 91.5t72.5 30.5q32 0 63.5 -24.5t42.5 -24.5q26 0 38 44z" />
    <glyph glyph-name="Odieresis" unicode="&#xd6;" horiz-adv-x="583" 
d="M346 735q108 0 165.5 -55t57.5 -153q0 -21 -3 -44l-32 -241q-15 -118 -87.5 -185t-192.5 -67q-109 0 -166.5 55t-57.5 153q0 22 3 44l32 241q15 118 88 185t193 67zM384 242l33 241q2 13 2 36q0 48 -21 69.5t-66 21.5q-52 0 -80 -29.5t-37 -97.5l-33 -241q-2 -13 -2 -37
q0 -49 21 -71.5t66 -22.5q53 0 81 31t36 100zM229 874h97l-13 -115h-98zM399 874h97l-13 -115h-98z" />
    <glyph glyph-name="multiply" unicode="&#xd7;" horiz-adv-x="450" 
d="M334 123l-110 117l-109 -117l-65 69l109 118l-109 117l64 70l110 -118l110 119l65 -71l-110 -118l110 -117z" />
    <glyph glyph-name="Oslash" unicode="&#xd8;" horiz-adv-x="583" 
d="M346 735q114 0 171 -62l47 58l38 -36l-54 -67q21 -44 21 -101q0 -21 -3 -44l-32 -241q-15 -118 -87.5 -185t-192.5 -67q-116 0 -173 62l-43 -53l-38 36l50 62q-20 43 -20 100q0 21 3 45l32 241q15 118 88 185t193 67zM384 242l30 221l-233 -287q11 -65 86 -65q53 0 81 31
t36 100zM215 483l-30 -220l232 286q-11 61 -85 61q-52 0 -80.5 -30t-36.5 -97z" />
    <glyph glyph-name="Ugrave" unicode="&#xd9;" horiz-adv-x="605" 
d="M457 725h149l-62 -486q-15 -118 -87.5 -183.5t-191.5 -65.5q-107 0 -165.5 53t-58.5 149q0 26 2 40l62 493h150l-63 -493q-1 -8 -1 -22q0 -87 89 -87q51 0 79 26t35 83zM230 874h159l41 -120h-111z" />
    <glyph glyph-name="Uacute" unicode="&#xda;" horiz-adv-x="605" 
d="M457 725h149l-62 -486q-15 -118 -87.5 -183.5t-191.5 -65.5q-107 0 -165.5 53t-58.5 149q0 26 2 40l62 493h150l-63 -493q-1 -8 -1 -22q0 -87 89 -87q51 0 79 26t35 83zM357 874h160l-111 -120h-113z" />
    <glyph glyph-name="Ucircumflex" unicode="&#xdb;" horiz-adv-x="605" 
d="M457 725h149l-62 -486q-15 -118 -87.5 -183.5t-191.5 -65.5q-107 0 -165.5 53t-58.5 149q0 26 2 40l62 493h150l-63 -493q-1 -8 -1 -22q0 -87 89 -87q51 0 79 26t35 83zM323 754h-109l106 120h108l78 -120h-109l-31 54z" />
    <glyph glyph-name="Udieresis" unicode="&#xdc;" horiz-adv-x="605" 
d="M457 725h149l-62 -486q-15 -118 -87.5 -183.5t-191.5 -65.5q-107 0 -165.5 53t-58.5 149q0 26 2 40l62 493h150l-63 -493q-1 -8 -1 -22q0 -87 89 -87q51 0 79 26t35 83zM240 874h97l-13 -115h-98zM410 874h97l-13 -115h-98z" />
    <glyph glyph-name="Yacute" unicode="&#xdd;" horiz-adv-x="573" 
d="M624 725l-272 -503l-27 -222h-149l27 221l-147 504h165l75 -355l164 355h164zM342 874h160l-111 -120h-113z" />
    <glyph glyph-name="Thorn" unicode="&#xde;" horiz-adv-x="556" 
d="M349 610q93 0 143 -50t50 -141q0 -130 -65.5 -205.5t-174.5 -75.5h-109l-17 -138h-149l89 725h149l-15 -115h99zM236 486l-30 -233h94q93 0 93 160q0 39 -15 56t-48 17h-94z" />
    <glyph glyph-name="germandbls" unicode="&#xdf;" horiz-adv-x="508" 
d="M249 389q10 89 95 130q5 17 5 34q0 21 -11.5 33.5t-32.5 12.5q-80 0 -96 -134l-57 -465h-135l57 465q14 111 75 175t159 64q72 0 112.5 -41.5t40.5 -109.5q0 -61 -22 -102q-56 -15 -56 -56q0 -17 15 -38.5t32.5 -40.5t32.5 -52t15 -71q0 -93 -55 -148t-138 -55
q-73 0 -113 33l31 98q27 -24 68 -24q32 0 51.5 21.5t19.5 59.5q0 27 -23.5 56.5t-47 64t-23.5 73.5q0 11 1 17z" />
    <glyph glyph-name="agrave" unicode="&#xe0;" horiz-adv-x="493" 
d="M17 176l19 134q29 207 191 207q64 0 109 -40l10 34h123l-62 -511h-119v58q-70 -67 -153 -67q-121 0 -121 140q0 21 3 45zM198 105q49 0 93 53l29 231q-29 23 -67 23q-69 0 -83 -102l-18 -125q-2 -20 -2 -26q0 -31 12 -42.5t36 -11.5zM172 725h145l37 -143h-99z" />
    <glyph glyph-name="aacute" unicode="&#xe1;" horiz-adv-x="493" 
d="M17 176l19 134q29 207 191 207q64 0 109 -40l10 34h123l-62 -511h-119v58q-70 -67 -153 -67q-121 0 -121 140q0 21 3 45zM198 105q49 0 93 53l29 231q-29 23 -67 23q-69 0 -83 -102l-18 -125q-2 -20 -2 -26q0 -31 12 -42.5t36 -11.5zM291 725h145l-115 -143h-98z" />
    <glyph glyph-name="acircumflex" unicode="&#xe2;" horiz-adv-x="493" 
d="M17 176l19 134q29 207 191 207q64 0 109 -40l10 34h123l-62 -511h-119v58q-70 -67 -153 -67q-121 0 -121 140q0 21 3 45zM198 105q49 0 93 53l29 231q-29 23 -67 23q-69 0 -83 -102l-18 -125q-2 -20 -2 -26q0 -31 12 -42.5t36 -11.5zM249 582h-106l114 143h93l79 -143
h-106l-29 70z" />
    <glyph glyph-name="atilde" unicode="&#xe3;" horiz-adv-x="493" 
d="M17 176l19 134q29 207 191 207q64 0 109 -40l10 34h123l-62 -511h-119v58q-70 -67 -153 -67q-121 0 -121 140q0 21 3 45zM198 105q49 0 93 53l29 231q-29 23 -67 23q-69 0 -83 -102l-18 -125q-2 -20 -2 -26q0 -31 12 -42.5t36 -11.5zM394 726l66 -13q-18 -68 -45 -102.5
t-73 -34.5q-27 0 -46.5 16.5t-33 33t-25.5 16.5q-24 0 -39 -58l-66 11q17 69 44 103.5t73 34.5q27 0 47 -16.5t33 -33t25 -16.5q24 0 40 59z" />
    <glyph glyph-name="adieresis" unicode="&#xe4;" horiz-adv-x="493" 
d="M17 176l19 134q29 207 191 207q64 0 109 -40l10 34h123l-62 -511h-119v58q-70 -67 -153 -67q-121 0 -121 140q0 21 3 45zM198 105q49 0 93 53l29 231q-29 23 -67 23q-69 0 -83 -102l-18 -125q-2 -20 -2 -26q0 -31 12 -42.5t36 -11.5zM183 725h95l-16 -128h-95zM332 725
h94l-15 -128h-95z" />
    <glyph glyph-name="aring" unicode="&#xe5;" horiz-adv-x="493" 
d="M17 176l19 134q29 207 191 207q64 0 109 -40l10 34h123l-62 -511h-119v58q-70 -67 -153 -67q-121 0 -121 140q0 21 3 45zM198 105q49 0 93 53l29 231q-29 23 -67 23q-69 0 -83 -102l-18 -125q-2 -20 -2 -26q0 -31 12 -42.5t36 -11.5zM197 647q0 42 30.5 70t79.5 28
q41 0 65.5 -20.5t24.5 -54.5q0 -43 -32 -69.5t-79 -26.5q-40 0 -64.5 20t-24.5 53zM300 686q-27 0 -27 -32q0 -21 21 -21q12 0 20 8.5t8 22.5q0 22 -22 22z" />
    <glyph glyph-name="ae" unicode="&#xe6;" horiz-adv-x="680" 
d="M642 231h-244l-7 -49q-2 -16 -2 -25q0 -66 65 -66q54 0 86 68l91 -34q-58 -133 -189 -133q-91 0 -132 66q-66 -66 -162 -66q-67 0 -101.5 33.5t-34.5 91.5q0 93 61 139.5t206 50.5l4 30q2 13 2 26q0 29 -13 40.5t-40 11.5q-53 0 -91 -65l-78 43q72 125 201 125
q77 0 108 -52q57 54 139 54q69 0 107.5 -42.5t38.5 -113.5q0 -10 -2 -32zM176 96q32 0 56.5 20.5t28.5 57.5l7 56q-75 -2 -106.5 -23t-31.5 -69q0 -42 46 -42zM413 345l-5 -38h128l5 39q1 6 1 18q0 58 -55 58q-34 0 -51.5 -18.5t-22.5 -58.5z" />
    <glyph glyph-name="ccedilla" unicode="&#xe7;" horiz-adv-x="422" 
d="M416 395l-97 -36q-14 55 -62 55q-37 0 -58 -22.5t-28 -74.5l-20 -145q-1 -7 -1 -20q0 -58 58 -58t87 62l92 -34q-60 -115 -174 -129l-4 -16q70 -11 70 -56q0 -36 -38 -63t-106 -31l-17 55q58 12 58 27q0 18 -56 21l23 63q-64 9 -96 49t-32 99q0 16 1 24l22 157
q12 86 67.5 142t150.5 56q62 0 104 -32t56 -93z" />
    <glyph glyph-name="egrave" unicode="&#xe8;" horiz-adv-x="451" 
d="M414 233h-255l-5 -43q-3 -21 -3 -29q0 -68 70 -68q55 0 89 66l93 -34q-61 -134 -209 -134q-85 0 -131.5 44t-46.5 115q0 15 3 36l20 148q11 81 68.5 133.5t151.5 52.5q82 0 125.5 -46t43.5 -118q0 -21 -3 -42zM174 342l-5 -32h136l4 27q2 16 2 24q0 59 -59 59
q-36 0 -54 -19t-24 -59zM150 725h145l37 -143h-99z" />
    <glyph glyph-name="eacute" unicode="&#xe9;" horiz-adv-x="451" 
d="M414 233h-255l-5 -43q-3 -21 -3 -29q0 -68 70 -68q55 0 89 66l93 -34q-61 -134 -209 -134q-85 0 -131.5 44t-46.5 115q0 15 3 36l20 148q11 81 68.5 133.5t151.5 52.5q82 0 125.5 -46t43.5 -118q0 -21 -3 -42zM174 342l-5 -32h136l4 27q2 16 2 24q0 59 -59 59
q-36 0 -54 -19t-24 -59zM276 725h145l-115 -143h-98z" />
    <glyph glyph-name="ecircumflex" unicode="&#xea;" horiz-adv-x="451" 
d="M414 233h-255l-5 -43q-3 -21 -3 -29q0 -68 70 -68q55 0 89 66l93 -34q-61 -134 -209 -134q-85 0 -131.5 44t-46.5 115q0 15 3 36l20 148q11 81 68.5 133.5t151.5 52.5q82 0 125.5 -46t43.5 -118q0 -21 -3 -42zM174 342l-5 -32h136l4 27q2 16 2 24q0 59 -59 59
q-36 0 -54 -19t-24 -59zM232 581h-106l114 143h93l79 -143h-106l-29 70z" />
    <glyph glyph-name="edieresis" unicode="&#xeb;" horiz-adv-x="451" 
d="M414 233h-255l-5 -43q-3 -21 -3 -29q0 -68 70 -68q55 0 89 66l93 -34q-61 -134 -209 -134q-85 0 -131.5 44t-46.5 115q0 15 3 36l20 148q11 81 68.5 133.5t151.5 52.5q82 0 125.5 -46t43.5 -118q0 -21 -3 -42zM174 342l-5 -32h136l4 27q2 16 2 24q0 59 -59 59
q-36 0 -54 -19t-24 -59zM163 725h95l-16 -128h-95zM312 725h94l-15 -128h-95z" />
    <glyph glyph-name="igrave" unicode="&#xec;" horiz-adv-x="248" 
d="M84 511h134l-63 -511h-134zM32 725h145l37 -143h-99z" />
    <glyph glyph-name="iacute" unicode="&#xed;" horiz-adv-x="248" 
d="M84 511h134l-63 -511h-134zM173 725h145l-115 -143h-98z" />
    <glyph glyph-name="icircumflex" unicode="&#xee;" horiz-adv-x="248" 
d="M84 511h134l-63 -511h-134zM122 582h-106l114 143h93l79 -143h-106l-29 70z" />
    <glyph glyph-name="idieresis" unicode="&#xef;" horiz-adv-x="248" 
d="M84 511h134l-63 -511h-134zM56 725h95l-16 -128h-95zM205 725h94l-15 -128h-95z" />
    <glyph glyph-name="eth" unicode="&#xf0;" horiz-adv-x="480" 
d="M202 582l39 51q-18 7 -67 18l30 88q58 -8 101 -24l42 54l62 -47l-35 -45q89 -70 89 -217q0 -38 -6 -82l-25 -187q-12 -89 -70.5 -144.5t-158.5 -55.5q-91 0 -138.5 45t-47.5 115q0 7 2 25l18 135q26 201 190 201q62 0 110 -41q0 4 0.5 11.5t0.5 10.5q0 64 -30 98l-44 -56
zM153 182q-2 -16 -2 -23q0 -66 64 -66q69 0 82 89l29 201q-31 27 -73 27q-68 0 -82 -104z" />
    <glyph glyph-name="ntilde" unicode="&#xf1;" horiz-adv-x="500" 
d="M465 335l-42 -335h-134l41 327q2 20 2 26q0 29 -12 41t-36 12q-49 0 -93 -54l-43 -352h-134l63 511h118l-1 -58q72 67 154 67q120 0 120 -138q0 -22 -3 -47zM399 726l66 -13q-18 -68 -45 -102.5t-73 -34.5q-27 0 -46.5 16.5t-33 33t-25.5 16.5q-24 0 -39 -58l-66 11
q17 69 44 103.5t73 34.5q27 0 47 -16.5t33 -33t25 -16.5q24 0 40 59z" />
    <glyph glyph-name="ograve" unicode="&#xf2;" horiz-adv-x="479" 
d="M451 334l-21 -158q-11 -81 -71 -133t-158 -52q-90 0 -137.5 44.5t-47.5 115.5q0 7 2 25l21 158q10 80 70 133t158 53q91 0 138 -44t47 -116q0 -17 -1 -26zM173 328l-21 -146q-1 -8 -1 -22q0 -68 62 -68q37 0 56.5 22t26.5 68l21 146q1 8 1 23q0 67 -63 67q-72 0 -82 -90z
M152 725h145l37 -143h-99z" />
    <glyph glyph-name="oacute" unicode="&#xf3;" horiz-adv-x="479" 
d="M451 334l-21 -158q-11 -81 -71 -133t-158 -52q-90 0 -137.5 44.5t-47.5 115.5q0 7 2 25l21 158q10 80 70 133t158 53q91 0 138 -44t47 -116q0 -17 -1 -26zM173 328l-21 -146q-1 -8 -1 -22q0 -68 62 -68q37 0 56.5 22t26.5 68l21 146q1 8 1 23q0 67 -63 67q-72 0 -82 -90z
M291 725h145l-115 -143h-98z" />
    <glyph glyph-name="ocircumflex" unicode="&#xf4;" horiz-adv-x="479" 
d="M451 334l-21 -158q-11 -81 -71 -133t-158 -52q-90 0 -137.5 44.5t-47.5 115.5q0 7 2 25l21 158q10 80 70 133t158 53q91 0 138 -44t47 -116q0 -17 -1 -26zM173 328l-21 -146q-1 -8 -1 -22q0 -68 62 -68q37 0 56.5 22t26.5 68l21 146q1 8 1 23q0 67 -63 67q-72 0 -82 -90z
M238 581h-106l114 143h93l79 -143h-106l-29 70z" />
    <glyph glyph-name="otilde" unicode="&#xf5;" horiz-adv-x="479" 
d="M451 334l-21 -158q-11 -81 -71 -133t-158 -52q-90 0 -137.5 44.5t-47.5 115.5q0 7 2 25l21 158q10 80 70 133t158 53q91 0 138 -44t47 -116q0 -17 -1 -26zM173 328l-21 -146q-1 -8 -1 -22q0 -68 62 -68q37 0 56.5 22t26.5 68l21 146q1 8 1 23q0 67 -63 67q-72 0 -82 -90z
M386 726l66 -13q-18 -68 -45 -102.5t-73 -34.5q-27 0 -46.5 16.5t-33 33t-25.5 16.5q-24 0 -39 -58l-66 11q17 69 44 103.5t73 34.5q27 0 47 -16.5t33 -33t25 -16.5q24 0 40 59z" />
    <glyph glyph-name="odieresis" unicode="&#xf6;" horiz-adv-x="479" 
d="M451 334l-21 -158q-11 -81 -71 -133t-158 -52q-90 0 -137.5 44.5t-47.5 115.5q0 7 2 25l21 158q10 80 70 133t158 53q91 0 138 -44t47 -116q0 -17 -1 -26zM173 328l-21 -146q-1 -8 -1 -22q0 -68 62 -68q37 0 56.5 22t26.5 68l21 146q1 8 1 23q0 67 -63 67q-72 0 -82 -90z
M170 725h95l-16 -128h-95zM319 725h94l-15 -128h-95z" />
    <glyph glyph-name="divide" unicode="&#xf7;" horiz-adv-x="450" 
d="M411 261h-372v99h372v-99zM159 477q0 29 18.5 49t45.5 20q26 0 45.5 -20.5t19.5 -48.5t-19.5 -48t-45.5 -20q-27 0 -45.5 19.5t-18.5 48.5zM159 148q0 28 18.5 48t45.5 20q26 0 45.5 -20t19.5 -48q0 -29 -19 -49t-46 -20t-45.5 20t-18.5 49z" />
    <glyph glyph-name="oslash" unicode="&#xf8;" horiz-adv-x="479" 
d="M451 334l-21 -158q-11 -81 -71 -133t-158 -52q-87 0 -135 42l-32 -34l-38 36l37 40q-17 34 -17 73q0 9 4 43l19 143q10 80 70 133t158 53q89 0 138 -44l36 38l39 -36l-43 -46q15 -31 15 -72q0 -17 -1 -26zM173 328l-18 -122l160 172q-12 40 -60 40q-72 0 -82 -90zM213 92
q37 0 57 22t26 68l16 116l-157 -169q12 -37 58 -37z" />
    <glyph glyph-name="ugrave" unicode="&#xf9;" horiz-adv-x="500" 
d="M201 511l-41 -326q-2 -20 -2 -26q0 -30 12 -41.5t36 -11.5q49 0 92 52l45 353h134l-63 -511h-118v59q-70 -67 -153 -67q-121 0 -121 140q0 21 3 45l42 334h134zM159 725h145l37 -143h-99z" />
    <glyph glyph-name="uacute" unicode="&#xfa;" horiz-adv-x="500" 
d="M201 511l-41 -326q-2 -20 -2 -26q0 -30 12 -41.5t36 -11.5q49 0 92 52l45 353h134l-63 -511h-118v59q-70 -67 -153 -67q-121 0 -121 140q0 21 3 45l42 334h134zM296 725h145l-115 -143h-98z" />
    <glyph glyph-name="ucircumflex" unicode="&#xfb;" horiz-adv-x="500" 
d="M201 511l-41 -326q-2 -20 -2 -26q0 -30 12 -41.5t36 -11.5q49 0 92 52l45 353h134l-63 -511h-118v59q-70 -67 -153 -67q-121 0 -121 140q0 21 3 45l42 334h134zM248 581h-106l114 143h93l79 -143h-106l-29 70z" />
    <glyph glyph-name="udieresis" unicode="&#xfc;" horiz-adv-x="500" 
d="M201 511l-41 -326q-2 -20 -2 -26q0 -30 12 -41.5t36 -11.5q49 0 92 52l45 353h134l-63 -511h-118v59q-70 -67 -153 -67q-121 0 -121 140q0 21 3 45l42 334h134zM181 725h95l-16 -128h-95zM330 725h94l-15 -128h-95z" />
    <glyph glyph-name="yacute" unicode="&#xfd;" horiz-adv-x="494" 
d="M514 511l-237 -507q-41 -88 -96.5 -127t-140.5 -42l3 96q41 5 67 22.5t44 54.5l9 19l-130 484h149l63 -341l131 341h138zM306 725h145l-115 -143h-98z" />
    <glyph glyph-name="thorn" unicode="&#xfe;" horiz-adv-x="493" 
d="M466 335l-20 -135q-30 -207 -190 -207q-61 0 -105 36l-24 -199h-134l113 916h134l-36 -284q67 58 144 58q121 0 121 -140q0 -21 -3 -45zM285 409q-51 0 -94 -56l-29 -232q29 -23 68 -23q67 0 82 102l19 129q2 20 2 26q0 30 -12 42t-36 12z" />
    <glyph glyph-name="ydieresis" unicode="&#xff;" horiz-adv-x="494" 
d="M514 511l-237 -507q-41 -88 -96.5 -127t-140.5 -42l3 96q41 5 67 22.5t44 54.5l9 19l-130 484h149l63 -341l131 341h138zM190 725h95l-16 -128h-95zM339 725h94l-15 -128h-95z" />
    <glyph glyph-name="dotlessi" unicode="&#x131;" horiz-adv-x="248" 
d="M84 511h134l-63 -511h-134z" />
    <glyph glyph-name="IJ" unicode="&#x132;" horiz-adv-x="590" 
d="M126 725h149l-89 -725h-149zM432 725h149l-75 -597q-16 -127 -91 -195t-206 -70l1 118q68 0 102 33t44 112z" />
    <glyph glyph-name="ij" unicode="&#x133;" horiz-adv-x="507" 
d="M84 511h134l-63 -511h-134zM116 725h122l-16 -128h-122zM373 725h122l-16 -128h-122zM195 -166l3 103q38 5 58 28t27 74l58 472h135l-59 -471q-25 -196 -222 -206z" />
    <glyph glyph-name="Lslash" unicode="&#x141;" horiz-adv-x="484" 
d="M132 725h144l-35 -282l159 74l-13 -118l-161 -75l-24 -192h241l-14 -132h-386l33 268l-64 -29l13 117l65 31z" />
    <glyph glyph-name="lslash" unicode="&#x142;" horiz-adv-x="318" 
d="M143 746h134l-33 -272l81 44l-12 -110l-83 -45l-44 -363h-134l36 298l-73 -39l12 110l75 40z" />
    <glyph glyph-name="OE" unicode="&#x152;" horiz-adv-x="838" 
d="M445 725h409l-15 -130h-259l-22 -166h195l-13 -114h-196l-24 -187h269l-14 -128h-419l5 44q-57 -54 -146 -54q-84 0 -134.5 56t-50.5 151q0 21 3 45l32 241q15 115 81.5 183.5t160.5 68.5q89 0 132 -54zM384 242l33 241q2 13 2 36q0 48 -21 69t-67 21q-52 0 -79 -29
t-37 -97l-33 -241q-2 -14 -2 -37q0 -50 21 -71.5t66 -21.5q53 0 80 30t37 100z" />
    <glyph glyph-name="oe" unicode="&#x153;" horiz-adv-x="723" 
d="M686 229h-253l-7 -57q-1 -6 -1 -17q0 -65 69 -65q65 0 97 72l83 -35q-66 -136 -204 -136q-88 0 -127 55q-55 -55 -152 -55q-84 0 -129.5 45.5t-45.5 113.5q0 9 2 25l21 160q10 78 67.5 132t148.5 54q101 0 142 -58q56 58 147 58q74 0 115 -46.5t41 -117.5q0 -18 -1 -27z
M313 326q1 9 1 24q0 35 -15 51t-46 16q-36 0 -54.5 -20.5t-25.5 -70.5l-20 -142q-2 -20 -2 -28q0 -68 59 -68q36 0 56 22.5t27 73.5zM449 342l-5 -35h133l5 37q1 6 1 17q0 59 -57 59q-35 0 -53 -18.5t-24 -59.5z" />
    <glyph glyph-name="Scaron" unicode="&#x160;" horiz-adv-x="494" 
d="M297 735q168 0 208 -159l-107 -45q-18 85 -101 85q-43 0 -66 -21t-23 -59q0 -24 19 -46t47 -37.5t61 -37t61 -44t47 -59.5t19 -82q0 -112 -70.5 -176t-180.5 -64q-83 0 -142 47t-69 127l117 39q9 -47 38 -71t68 -24q96 0 96 86q0 33 -27 60.5t-65 49t-76.5 46t-65.5 65.5
t-27 94q0 95 67 160.5t172 65.5zM186 874h107l29 -56l44 56h107l-111 -120h-93z" />
    <glyph glyph-name="scaron" unicode="&#x161;" horiz-adv-x="406" 
d="M396 395l-93 -31q-15 60 -71 60q-62 0 -62 -51q0 -19 20 -34t49 -27.5t58 -28.5t49 -45t20 -69q0 -75 -56.5 -126.5t-139.5 -51.5q-134 0 -167 122l91 38q11 -33 33.5 -49.5t48.5 -16.5q28 0 45 14.5t17 42.5q0 20 -20.5 35.5t-49 28t-57.5 28t-49.5 44.5t-20.5 69
q0 74 53.5 123.5t142.5 49.5q66 0 106.5 -33.5t52.5 -91.5zM119 725h107l28 -69l46 69h106l-115 -143h-92z" />
    <glyph glyph-name="Ydieresis" unicode="&#x178;" horiz-adv-x="573" 
d="M624 725l-272 -503l-27 -222h-149l27 221l-147 504h165l75 -355l164 355h164zM225 874h97l-13 -115h-98zM395 874h97l-13 -115h-98z" />
    <glyph glyph-name="Zcaron" unicode="&#x17d;" horiz-adv-x="521" 
d="M460 129l-14 -129h-447l9 88l344 508h-267l15 129h436l-10 -89l-340 -507h274zM197 874h107l29 -56l44 56h107l-111 -120h-93z" />
    <glyph glyph-name="zcaron" unicode="&#x17e;" horiz-adv-x="419" 
d="M362 105l-12 -105h-355l8 75l242 329h-192l13 107h350l-8 -74l-245 -332h199zM129 725h107l28 -69l46 69h106l-115 -143h-92z" />
    <glyph glyph-name="longs" unicode="&#x17f;" horiz-adv-x="298" 
d="M368 730l-5 -95q-54 -2 -76.5 -25.5t-28.5 -69.5l-67 -540h-134l50 411h-78l11 99h80l4 33q10 83 69 134t175 53z" />
    <glyph glyph-name="florin" unicode="&#x192;" horiz-adv-x="338" 
d="M329 511l-19 -98h-95l-87 -473h-134l85 473h-51l19 98h50l6 32q15 83 78 134t178 53l-11 -95q-101 -4 -117 -95l-5 -29h103z" />
    <glyph glyph-name="uni02BB" unicode="&#x2bb;" horiz-adv-x="221" 
d="M223 690l-16 -142h-126l12 102q12 97 77 179l46 -19q-30 -51 -38 -113z" />
    <glyph glyph-name="afii57929" unicode="&#x2bc;" horiz-adv-x="221" 
d="M89 616l15 142h127l-12 -103q-11 -95 -78 -178l-48 19q32 55 41 113z" />
    <glyph glyph-name="circumflex" unicode="&#x2c6;" horiz-adv-x="271" 
d="M134 582h-106l114 143h93l79 -143h-106l-29 70z" />
    <glyph glyph-name="caron" unicode="&#x2c7;" horiz-adv-x="271" 
d="M45 725h107l28 -69l46 69h106l-115 -143h-92z" />
    <glyph glyph-name="uni02C9" unicode="&#x2c9;" horiz-adv-x="271" 
d="M317 695l-10 -85h-265l9 85h266z" />
    <glyph glyph-name="breve" unicode="&#x2d8;" horiz-adv-x="271" 
d="M44 725h95q-1 -10 -1 -26q0 -31 9 -43.5t30 -12.5q24 0 37.5 17.5t23.5 64.5h95q-23 -86 -58.5 -118.5t-104.5 -32.5q-70 0 -97.5 32.5t-28.5 118.5z" />
    <glyph glyph-name="dotaccent" unicode="&#x2d9;" horiz-adv-x="271" 
d="M106 725h122l-16 -128h-122z" />
    <glyph glyph-name="ring" unicode="&#x2da;" horiz-adv-x="271" 
d="M80 647q0 42 30.5 70t79.5 28q41 0 65.5 -20.5t24.5 -54.5q0 -43 -32 -69.5t-79 -26.5q-40 0 -64.5 20t-24.5 53zM183 686q-27 0 -27 -32q0 -21 21 -21q12 0 20 8.5t8 22.5q0 22 -22 22z" />
    <glyph glyph-name="ogonek" unicode="&#x2db;" horiz-adv-x="271" 
d="M110 13l52 -6q-33 -11 -52.5 -30t-19.5 -39q0 -28 37 -28q23 0 54 13l14 -66q-45 -26 -113 -26q-47 0 -73.5 18t-26.5 50q0 71 128 114z" />
    <glyph glyph-name="tilde" unicode="&#x2dc;" horiz-adv-x="271" 
d="M278 726l66 -13q-18 -68 -45 -102.5t-73 -34.5q-27 0 -46.5 16.5t-33 33t-25.5 16.5q-24 0 -39 -58l-66 11q17 69 44 103.5t73 34.5q27 0 47 -16.5t33 -33t25 -16.5q24 0 40 59z" />
    <glyph glyph-name="hungarumlaut" unicode="&#x2dd;" horiz-adv-x="271" 
d="M119 725h125l-104 -143h-78zM278 725h125l-123 -143h-79z" />
    <glyph glyph-name="gravecomb" unicode="&#x300;" horiz-adv-x="0" 
d="M-235 725h145l37 -143h-99z" />
    <glyph glyph-name="acutecomb" unicode="&#x301;" horiz-adv-x="0" 
d="M-117 725h145l-115 -143h-98z" />
    <glyph glyph-name="uni0302" unicode="&#x302;" horiz-adv-x="0" 
d="M-128 582h-106l114 143h93l79 -143h-106l-29 70z" />
    <glyph glyph-name="tildecomb" unicode="&#x303;" horiz-adv-x="0" 
d="M0 726l66 -13q-18 -68 -45 -102.5t-73 -34.5q-27 0 -46.5 16.5t-33 33t-25.5 16.5q-24 0 -39 -58l-66 11q17 69 44 103.5t73 34.5q27 0 47 -16.5t33 -33t25 -16.5q24 0 40 59z" />
    <glyph glyph-name="uni0304" unicode="&#x304;" horiz-adv-x="0" 
d="M47 695l-10 -85h-265l9 85h266z" />
    <glyph glyph-name="uni0306" unicode="&#x306;" horiz-adv-x="0" 
d="M-228 725h95q-1 -10 -1 -26q0 -31 9 -43.5t30 -12.5q24 0 37.5 17.5t23.5 64.5h95q-23 -86 -58.5 -118.5t-104.5 -32.5q-70 0 -97.5 32.5t-28.5 118.5z" />
    <glyph glyph-name="uni0307" unicode="&#x307;" horiz-adv-x="0" 
d="M-125 725h122l-16 -128h-122z" />
    <glyph glyph-name="uni0308" unicode="&#x308;" horiz-adv-x="0" 
d="M-202 725h95l-16 -128h-95zM-53 725h94l-15 -128h-95z" />
    <glyph glyph-name="uni030A" unicode="&#x30a;" horiz-adv-x="0" 
d="M-193 647q0 42 30.5 70t79.5 28q41 0 65.5 -20.5t24.5 -54.5q0 -43 -32 -69.5t-79 -26.5q-40 0 -64.5 20t-24.5 53zM-90 686q-27 0 -27 -32q0 -21 21 -21q12 0 20 8.5t8 22.5q0 22 -22 22z" />
    <glyph glyph-name="uni030B" unicode="&#x30b;" horiz-adv-x="0" 
d="M-151 725h125l-104 -143h-78zM8 725h125l-123 -143h-79z" />
    <glyph glyph-name="uni030C" unicode="&#x30c;" horiz-adv-x="0" 
d="M-226 725h107l28 -69l46 69h106l-115 -143h-92z" />
    <glyph glyph-name="uni0312" unicode="&#x312;" horiz-adv-x="0" 
d="M-106 575h-144l88 150h97z" />
    <glyph glyph-name="uni0315" unicode="&#x315;" horiz-adv-x="0" 
d="M140 725h144l-92 -156h-98z" />
    <glyph glyph-name="uni0326" unicode="&#x326;" horiz-adv-x="0" 
d="M-347 -101l9 76h129l-4 -39q-7 -63 -38.5 -89t-104.5 -29l1 47q31 2 42.5 8.5t13.5 20.5z" />
    <glyph glyph-name="uni0327" unicode="&#x327;" horiz-adv-x="0" 
d="M-189 24l67 -6l-12 -41q70 -11 70 -56q0 -36 -38 -63t-106 -31l-17 55q58 12 58 27q0 18 -56 21z" />
    <glyph glyph-name="uni0328" unicode="&#x328;" horiz-adv-x="0" 
d="M-145 13l52 -6q-33 -11 -52.5 -30t-19.5 -39q0 -28 37 -28q23 0 54 13l14 -66q-45 -26 -113 -26q-47 0 -73.5 18t-26.5 50q0 71 128 114z" />
    <glyph glyph-name="uni0335" unicode="&#x335;" horiz-adv-x="1" 
d="M47 298l-10 -85h-265l9 85h266z" />
    <glyph glyph-name="uni0336" unicode="&#x336;" horiz-adv-x="1" 
d="M-587 202l12 106h555l-12 -106h-555z" />
    <glyph glyph-name="uni0394" unicode="&#x394;" horiz-adv-x="596" 
d="M-31 0l321 725h126l139 -725h-586zM331 548l-168 -429h226z" />
    <glyph glyph-name="uni03A9" unicode="&#x3a9;" horiz-adv-x="583" 
d="M346 735q111 0 168.5 -47.5t57.5 -140.5q0 -20 -3 -41l-17 -119q-20 -144 -147 -186l-9 -79h118l-13 -122h-221l32 279q40 7 61 31.5t28 71.5l18 120q1 9 1 24q0 84 -89 84q-99 0 -114 -108l-17 -120q-2 -18 -2 -24q0 -67 66 -79l-33 -279h-221l13 122h119l9 80
q-102 37 -102 151q0 13 4 45l15 108q32 229 278 229z" />
    <glyph glyph-name="uni03BC" unicode="&#x3bc;" horiz-adv-x="509" 
d="M37 195l40 316h134l-40 -315q-2 -18 -2 -24q0 -65 58 -65q48 0 78 37l47 367h134l-63 -511h-118l-1 41q-38 -36 -83 -36q-53 0 -76 40q-6 -80 -6 -154q0 -31 1 -44l-135 -11q12 200 32 359z" />
    <glyph glyph-name="pi" unicode="&#x3c0;" horiz-adv-x="502" 
d="M410 0h-134l49 407h-119l-38 -305q-6 -50 -41.5 -79.5t-91.5 -29.5q-28 0 -59 9l9 77h12q34 0 39 36l35 288h-42l12 108h473l-12 -108h-43z" />
    <glyph glyph-name="uni2007" unicode="&#x2007;" 
 />
    <glyph glyph-name="uni2008" unicode="&#x2008;" horiz-adv-x="214" 
 />
    <glyph glyph-name="uni200B" unicode="&#x200b;" horiz-adv-x="0" 
 />
    <glyph glyph-name="uni2010" unicode="&#x2010;" horiz-adv-x="280" 
d="M22 235l13 116h222l-13 -116h-222z" />
    <glyph glyph-name="endash" unicode="&#x2013;" horiz-adv-x="430" 
d="M23 248l12 106h374l-12 -106h-374z" />
    <glyph glyph-name="emdash" unicode="&#x2014;" horiz-adv-x="611" 
d="M23 248l12 106h555l-12 -106h-555z" />
    <glyph glyph-name="quoteleft" unicode="&#x2018;" horiz-adv-x="221" 
d="M223 690l-16 -142h-126l12 102q12 97 77 179l46 -19q-30 -51 -38 -113z" />
    <glyph glyph-name="quoteright" unicode="&#x2019;" horiz-adv-x="221" 
d="M89 616l15 142h127l-12 -103q-11 -95 -78 -178l-48 19q32 55 41 113z" />
    <glyph glyph-name="quotesinglbase" unicode="&#x201a;" horiz-adv-x="221" 
d="M14 7l15 142h127l-12 -103q-12 -95 -78 -178l-48 19q32 55 41 113z" />
    <glyph glyph-name="quotedblleft" unicode="&#x201c;" horiz-adv-x="391" 
d="M395 690l-16 -142h-126l12 102q12 97 77 179l46 -19q-30 -51 -38 -113zM223 690l-16 -142h-126l12 102q12 97 77 179l46 -19q-30 -51 -38 -113z" />
    <glyph glyph-name="quotedblright" unicode="&#x201d;" horiz-adv-x="391" 
d="M261 616l15 142h127l-12 -103q-11 -95 -78 -178l-48 19q32 55 41 113zM89 617l15 142h127l-12 -103q-11 -95 -78 -178l-48 19q32 55 41 113z" />
    <glyph glyph-name="quotedblbase" unicode="&#x201e;" horiz-adv-x="379" 
d="M173 7l15 142h127l-12 -103q-11 -95 -78 -178l-48 19q32 55 41 113zM0 7l15 142h127l-12 -103q-12 -95 -78 -178l-48 19q32 55 41 113z" />
    <glyph glyph-name="dagger" unicode="&#x2020;" horiz-adv-x="423" 
d="M49 562l134 -6l17 190h132l-30 -190l136 6l-15 -131l-134 5l-68 -590h-132l81 590l-135 -5z" />
    <glyph glyph-name="daggerdbl" unicode="&#x2021;" horiz-adv-x="423" 
d="M132 156l38 280l-135 -5l14 131l134 -6l17 190h132l-30 -190l136 6l-15 -131l-134 5l-38 -280l136 5l-15 -131l-134 6l-17 -190h-132l30 190l-135 -6l15 131z" />
    <glyph glyph-name="bullet" unicode="&#x2022;" horiz-adv-x="283" 
d="M16 311q0 59 36.5 99t89.5 40t89.5 -40t36.5 -99q0 -58 -36.5 -98t-89.5 -40t-89.5 40t-36.5 98z" />
    <glyph glyph-name="ellipsis" unicode="&#x2026;" horiz-adv-x="642" 
d="M3 0l16 146h137l-16 -146h-137zM217 0l16 146h137l-16 -146h-137zM431 0l16 146h137l-16 -146h-137z" />
    <glyph glyph-name="perthousand" unicode="&#x2030;" horiz-adv-x="900" 
d="M327 586l-6 -44q-8 -70 -46.5 -108t-102.5 -38q-57 0 -87 30.5t-30 86.5q0 9 2 29l6 44q9 71 47 110t103 39q57 0 86.5 -31.5t29.5 -88.5q0 -9 -2 -29zM155 585l-5 -42q-2 -18 -2 -24q0 -40 34 -40q21 0 32 14.5t15 49.5l5 42q2 18 2 24q0 38 -33 38q-21 0 -32.5 -14
t-15.5 -48zM17 0l491 723h98l-491 -723h-98zM570 177l-6 -43q-21 -147 -149 -147q-57 0 -87 30.5t-30 87.5q0 9 2 29l5 43q8 70 47.5 109.5t103.5 39.5q56 0 86 -31.5t30 -88.5q0 -9 -2 -29zM398 176l-6 -42q-2 -18 -2 -24q0 -39 34 -39q21 0 31.5 13.5t15.5 49.5l6 42
q2 18 2 24q0 38 -33 38q-22 0 -32.5 -13.5t-15.5 -48.5zM864 177l-6 -43q-21 -147 -149 -147q-57 0 -87 30t-30 86q0 9 2 31l5 43q8 70 47.5 109.5t103.5 39.5q56 0 86 -31.5t30 -88.5q0 -9 -2 -29zM692 176l-6 -42q-2 -18 -2 -24q0 -39 34 -39q21 0 31.5 13.5t15.5 49.5
l6 42q2 18 2 23q0 39 -33 39q-22 0 -32.5 -13.5t-15.5 -48.5z" />
    <glyph glyph-name="guilsinglleft" unicode="&#x2039;" horiz-adv-x="280" 
d="M270 437l-141 -175l98 -176h-109l-95 176l138 175h109z" />
    <glyph glyph-name="guilsinglright" unicode="&#x203a;" horiz-adv-x="280" 
d="M2 86l140 176l-98 175h109l95 -175l-138 -176h-108z" />
    <glyph glyph-name="uni203D" unicode="&#x203d;" horiz-adv-x="543" 
d="M48 556q38 80 112 131t167 51q110 0 164.5 -48t54.5 -121q0 -83 -57.5 -149.5t-165.5 -109.5l-15 -83h-103l18 204l24 188q-57 -23 -95 -95zM161 0l16 146h137l-16 -146h-137zM416 539q1 5 1 16q0 58 -59 73l-27 -215q74 48 85 126z" />
    <glyph glyph-name="fraction" unicode="&#x2044;" horiz-adv-x="280" 
d="M-20 0h-83l483 725h83z" />
    <glyph glyph-name="uni2070" unicode="&#x2070;" horiz-adv-x="269" 
d="M296 673l-11 -83q-7 -54 -40.5 -86t-88.5 -32q-49 0 -75.5 26.5t-26.5 72.5q0 14 2 27l12 83q8 55 41 86.5t87 31.5q49 0 75.5 -26t26.5 -71q0 -17 -2 -29zM145 680l-12 -84q-2 -18 -2 -22q0 -38 32 -38q20 0 30 12.5t14 41.5l11 84q2 20 2 22q0 34 -32 34
q-20 0 -30 -11.5t-13 -38.5z" />
    <glyph glyph-name="uni2074" unicode="&#x2074;" horiz-adv-x="269" 
d="M253 476h-71l7 57h-149l7 52l167 210h78l-25 -202h33l-12 -60h-28zM128 593h69l18 120z" />
    <glyph glyph-name="uni2075" unicode="&#x2075;" horiz-adv-x="269" 
d="M118 607l-48 26l33 162h195l-13 -65h-127l-11 -58q24 9 51 9q85 0 85 -80q0 -62 -35 -95.5t-98 -33.5q-88 0 -102 75l59 22q12 -35 45 -35q48 0 48 57q0 29 -39 29q-21 0 -43 -13z" />
    <glyph glyph-name="uni2076" unicode="&#x2076;" horiz-adv-x="269" 
d="M202 799q37 0 62.5 -18.5t32.5 -53.5l-55 -24q-10 32 -42 32q-48 0 -56 -51l-3 -20q27 16 62 16q83 0 83 -76q0 -65 -35 -98.5t-95 -33.5q-101 0 -101 96q0 8 2 24l11 82q8 55 44 90t90 35zM133 598l-2 -14q-2 -14 -2 -16q0 -31 37 -31q44 0 44 55q0 28 -32 28
q-43 0 -45 -22z" />
    <glyph glyph-name="uni2077" unicode="&#x2077;" horiz-adv-x="255" 
d="M151 476h-88l149 252h-144l8 67h227l-7 -61z" />
    <glyph glyph-name="uni2078" unicode="&#x2078;" horiz-adv-x="269" 
d="M156 472q-106 0 -106 82q0 67 53 91q-27 16 -27 52q0 46 29.5 74t90.5 28q99 0 99 -74q0 -56 -44 -80q35 -18 35 -60q0 -56 -35.5 -84.5t-94.5 -28.5zM163 533q26 0 36 13t10 38q0 27 -36 27q-24 0 -34.5 -10t-10.5 -38q0 -17 8 -23.5t27 -6.5zM189 738
q-22 0 -31.5 -10.5t-9.5 -36.5q0 -25 32 -25q22 0 31.5 10.5t9.5 38.5q0 13 -7 18t-25 5z" />
    <glyph glyph-name="uni2079" unicode="&#x2079;" horiz-adv-x="269" 
d="M51 541l52 28q14 -35 49 -35q48 0 54 49l4 29q-27 -15 -61 -15q-37 0 -60 19.5t-23 58.5q0 58 35 91.5t94 33.5q49 0 75 -26t26 -68q0 -13 -1 -19l-13 -101q-7 -53 -42 -83.5t-90 -30.5q-81 0 -99 69zM174 656q35 0 44 20l2 14l2 20q0 28 -34 28q-47 0 -47 -53
q0 -29 33 -29z" />
    <glyph glyph-name="uni207A" unicode="&#x207a;" horiz-adv-x="228" 
d="M116 529l9 75h-66l6 51h66l9 74h53l-9 -74h65l-6 -51h-65l-9 -75h-53z" />
    <glyph glyph-name="uni207B" unicode="&#x207b;" horiz-adv-x="228" 
d="M243 604h-184l6 51h184z" />
    <glyph glyph-name="uni207C" unicode="&#x207c;" horiz-adv-x="228" 
d="M233 639h-161l6 52h161zM224 559h-162l6 51h162z" />
    <glyph glyph-name="uni207D" unicode="&#x207d;" horiz-adv-x="147" 
d="M58 558l18 144q9 72 39 107t87 35h14l-6 -50h-14q-46 0 -57 -92l-18 -144q-2 -12 -2 -32q0 -60 36 -60h14l-5 -49h-14q-50 0 -72.5 24.5t-22.5 75.5q0 19 3 41z" />
    <glyph glyph-name="uni207E" unicode="&#x207e;" horiz-adv-x="147" 
d="M170 702l-18 -144q-9 -73 -37.5 -107t-87.5 -34h-13l5 50h13q46 0 57 91l18 144q3 20 3 33q0 58 -37 58h-14l6 51h14q49 0 71.5 -24.5t22.5 -75.5q0 -20 -3 -42z" />
    <glyph glyph-name="uni207F" unicode="&#x207f;" horiz-adv-x="274" 
d="M53 476l30 250h71l1 -23q31 28 68 28q34 0 51 -20.5t17 -53.5q0 -10 -1 -16l-20 -165h-78l20 160q0 2 0.5 5t0.5 4q0 23 -24 23q-21 0 -37 -19l-21 -173h-78z" />
    <glyph glyph-name="uni2080" unicode="&#x2080;" horiz-adv-x="269" 
d="M224 80l-11 -83q-7 -54 -40.5 -86t-88.5 -32q-49 0 -75.5 26.5t-26.5 72.5q0 14 2 27l12 83q8 55 41 86.5t87 31.5q49 0 75.5 -26t26.5 -71q0 -17 -2 -29zM73 87l-12 -84q-2 -18 -2 -22q0 -38 32 -38q20 0 30 12.5t14 41.5l11 84q2 20 2 22q0 34 -32 34q-20 0 -30 -11.5
t-13 -38.5z" />
    <glyph glyph-name="uni2081" unicode="&#x2081;" horiz-adv-x="217" 
d="M96 204h67l-39 -321h-83l25 208h-67l6 53h27q30 0 42 11.5t22 48.5z" />
    <glyph glyph-name="uni2082" unicode="&#x2082;" horiz-adv-x="269" 
d="M126 206q50 0 74 -22.5t24 -57.5q0 -38 -21.5 -67.5t-48.5 -45t-54.5 -34t-34.5 -34.5h136l-7 -62h-221l2 32q6 36 33.5 68t57 50.5t53.5 41t24 43.5q0 24 -31 24q-38 0 -56 -47l-59 21q17 41 50.5 65.5t78.5 24.5z" />
    <glyph glyph-name="uni2083" unicode="&#x2083;" horiz-adv-x="269" 
d="M60 17l7 56h26q45 0 45 42q0 28 -30 28q-36 0 -54 -37l-56 21q34 79 125 79q48 0 73 -21.5t25 -54.5q0 -62 -53 -82q42 -14 42 -60q0 -52 -36 -80.5t-93 -28.5q-91 0 -107 75l61 22q11 -36 47 -36q20 0 32 13t12 36q0 28 -38 28h-28z" />
    <glyph glyph-name="uni2084" unicode="&#x2084;" horiz-adv-x="269" 
d="M181 -117h-71l7 57h-149l7 52l167 210h78l-25 -202h33l-12 -60h-28zM56 0h69l18 120z" />
    <glyph glyph-name="uni2085" unicode="&#x2085;" horiz-adv-x="269" 
d="M46 14l-48 26l33 162h195l-13 -65h-127l-11 -58q24 9 51 9q85 0 85 -80q0 -62 -35 -95.5t-98 -33.5q-88 0 -102 75l59 22q12 -35 45 -35q48 0 48 57q0 29 -39 29q-21 0 -43 -13z" />
    <glyph glyph-name="uni2086" unicode="&#x2086;" horiz-adv-x="269" 
d="M130 206q37 0 62.5 -18.5t32.5 -53.5l-55 -24q-10 32 -42 32q-48 0 -56 -51l-3 -20q27 16 62 16q83 0 83 -76q0 -65 -35 -98.5t-95 -33.5q-101 0 -101 96q0 8 2 24l11 82q8 55 44 90t90 35zM61 5l-2 -14q-2 -14 -2 -16q0 -31 37 -31q44 0 44 55q0 28 -32 28
q-43 0 -45 -22z" />
    <glyph glyph-name="uni2087" unicode="&#x2087;" horiz-adv-x="255" 
d="M79 -117h-88l149 252h-144l8 67h227l-7 -61z" />
    <glyph glyph-name="uni2088" unicode="&#x2088;" horiz-adv-x="269" 
d="M84 -121q-106 0 -106 82q0 67 53 91q-27 16 -27 52q0 46 29.5 74t90.5 28q99 0 99 -74q0 -56 -44 -80q35 -18 35 -60q0 -56 -35.5 -84.5t-94.5 -28.5zM91 -60q26 0 36 13t10 38q0 27 -36 27q-24 0 -34.5 -10t-10.5 -38q0 -17 8 -23.5t27 -6.5zM117 145q-22 0 -31.5 -10.5
t-9.5 -36.5q0 -25 32 -25q22 0 31.5 10.5t9.5 38.5q0 13 -7 18t-25 5z" />
    <glyph glyph-name="uni2089" unicode="&#x2089;" horiz-adv-x="269" 
d="M-21 -52l52 28q14 -35 49 -35q48 0 54 49l4 29q-27 -15 -61 -15q-37 0 -60 19.5t-23 58.5q0 58 35 91.5t94 33.5q49 0 75 -26t26 -68q0 -13 -1 -19l-13 -101q-7 -53 -42 -83.5t-90 -30.5q-81 0 -99 69zM102 63q35 0 44 20l2 14l2 20q0 28 -34 28q-47 0 -47 -53
q0 -29 33 -29z" />
    <glyph glyph-name="uni208A" unicode="&#x208a;" horiz-adv-x="228" 
d="M44 -64l9 75h-66l6 51h66l9 74h53l-9 -74h65l-6 -51h-65l-9 -75h-53z" />
    <glyph glyph-name="uni208B" unicode="&#x208b;" horiz-adv-x="228" 
d="M171 11h-184l6 51h184z" />
    <glyph glyph-name="uni208C" unicode="&#x208c;" horiz-adv-x="228" 
d="M161 46h-161l6 52h161zM152 -34h-162l6 51h162z" />
    <glyph glyph-name="uni208D" unicode="&#x208d;" horiz-adv-x="147" 
d="M-14 -35l18 144q9 72 39 107t87 35h14l-6 -50h-14q-46 0 -57 -92l-17 -135q-3 -27 -3 -41q0 -60 36 -60h14l-5 -49h-14q-50 0 -72.5 24.5t-22.5 75.5q0 18 3 41z" />
    <glyph glyph-name="uni208E" unicode="&#x208e;" horiz-adv-x="147" 
d="M98 109l-18 -144q-9 -73 -37.5 -107t-87.5 -34h-13l5 50h13q46 0 57 91l18 144q3 19 3 33q0 58 -37 58h-14l6 51h14q49 0 71.5 -24.5t22.5 -75.5q0 -19 -3 -42z" />
    <glyph glyph-name="franc" unicode="&#x20a3;" horiz-adv-x="505" 
d="M-22 91l11 93h61l67 541h410l-15 -130h-260l-21 -171h221l-13 -120h-223l-15 -120h84l-10 -93h-86l-11 -91h-150l11 91h-61z" />
    <glyph glyph-name="lira" unicode="&#x20a4;" horiz-adv-x="563" 
d="M61 367l-3 75h57q0 134 62 214.5t180 80.5q81 0 130 -45t56 -120l-107 -38q-11 80 -84 80q-53 0 -76.5 -42.5t-27.5 -129.5h208l-21 -75h-187v-28h177l-17 -71h-161q0 -31 -4 -67q23 -11 46 -32.5t41.5 -36t40.5 -14.5q25 0 41.5 21t30.5 73l97 -28q-26 -101 -69 -147.5
t-106 -46.5q-19 0 -37 6t-29 11t-26 21t-19.5 21t-19.5 26.5t-16 22.5q-45 -108 -143 -108q-42 0 -66.5 21.5t-24.5 60.5q0 61 40 98t110 42l-5 56h-61l-4 71h58l-3 28h-58zM95 77q27 0 37 68q-26 -4 -38.5 -19t-12.5 -33q0 -16 14 -16z" />
    <glyph glyph-name="peseta" unicode="&#x20a7;" horiz-adv-x="944" 
d="M265 725q69 0 105.5 -44t36.5 -129q0 -136 -54 -211t-139 -75h-54l-33 -266h-121l89 725h170zM941 393l-80 -29q-6 60 -42 60q-16 0 -26.5 -14t-10.5 -37q0 -22 20 -44t43.5 -39t43.5 -50.5t20 -75.5q0 -79 -42.5 -126.5t-109.5 -47.5q-115 0 -122 138l82 25
q5 -72 45 -72q18 0 30 16t12 45q0 21 -13.5 39t-32.5 33t-38 32t-32.5 44t-13.5 62q0 73 41.5 121.5t106.5 48.5q53 0 83.5 -34.5t35.5 -94.5zM656 512l-12 -100h-74l-35 -281q-1 -4 -1 -11q0 -33 35 -33q11 0 29 6l3 -79q-37 -22 -83 -22q-95 0 -95 104q0 24 2 38l35 276
l-40 13l9 87l49 4l44 131h77l-17 -133h74zM203 616l-32 -251h46q26 0 41 28t24 100q5 42 5 62q0 35 -9 48t-29 13h-46z" />
    <glyph glyph-name="Euro" unicode="&#x20ac;" horiz-adv-x="548" 
d="M349 735q81 0 133.5 -47.5t60.5 -120.5l-113 -39q-11 77 -84 77q-95 0 -109 -115l-4 -30h214l-22 -72h-202l-4 -31h195l-22 -73h-183l-8 -61q-2 -16 -2 -23q0 -88 84 -88q38 0 62.5 20t41.5 65l108 -37q-59 -170 -239 -170q-97 0 -152.5 53t-55.5 144q0 11 2 35l8 62h-46
l9 73h47l4 31h-47l9 72h48l4 29q13 115 84.5 180.5t178.5 65.5z" />
    <glyph glyph-name="uni20B4" unicode="&#x20b4;" horiz-adv-x="515" 
d="M40 388l10 79h293q37 42 37 95q0 67 -75 67q-85 0 -130 -82l-95 39q82 149 247 149q87 0 131 -43t44 -111q0 -66 -38 -114h42l-9 -79h-123q-48 -30 -72 -44h189l-9 -79h-284q-39 -44 -39 -96q0 -35 22.5 -53.5t64.5 -18.5q85 0 135 88l88 -36q-77 -159 -244 -159
q-96 0 -142 41.5t-46 109.5t41 124h-53l9 79h130q18 12 71 44h-195z" />
    <glyph glyph-name="afii61248" unicode="&#x2105;" horiz-adv-x="860" 
d="M192 736q55 0 94.5 -29.5t52.5 -73.5l-80 -30q-14 42 -56 42q-57 0 -57 -64v-145q0 -62 56 -62q43 0 57 47l81 -29q-28 -103 -148 -103q-72 0 -115.5 40t-43.5 107v144q0 73 43.5 114.5t115.5 41.5zM827 280v-125q0 -73 -45 -117t-127 -44q-81 0 -126 44t-45 117v125
q0 73 45 117t126 44q82 0 127 -44t45 -117zM715 155v125q0 37 -14.5 53.5t-45.5 16.5t-45 -16.5t-14 -53.5v-125q0 -38 14 -55.5t45 -17.5t45.5 17.5t14.5 55.5zM266 0h-80l394 725h80z" />
    <glyph glyph-name="afii61289" unicode="&#x2113;" horiz-adv-x="733" 
d="M176 229l-16 88q36 9 58 20q17 180 81 290t157 110q53 0 80.5 -33.5t27.5 -92.5q0 -83 -67 -168t-171 -147q-1 -18 -1 -56q0 -81 8.5 -109.5t30.5 -28.5q21 0 42 32t35 67l88 -25q-23 -82 -75.5 -134.5t-114.5 -52.5q-66 0 -96 54t-30 178v20q-4 -1 -17 -5.5t-20 -6.5z
M441 633q-32 0 -61 -61t-44 -165q57 44 92.5 94.5t35.5 94.5q0 37 -23 37z" />
    <glyph glyph-name="afii61352" unicode="&#x2116;" horiz-adv-x="901" 
d="M116 725h111l189 -413l52 413h132l-89 -725h-104l-195 429l-54 -429h-131zM899 610l-13 -91q-8 -53 -45.5 -85.5t-99.5 -32.5q-57 0 -88 27.5t-31 72.5l3 33l11 84q7 52 45 85.5t101 33.5q59 0 89 -28t30 -74q0 -5 -2 -25zM602 301l8 73h261l-8 -73h-261zM724 613
l-10 -76q-3 -20 -3 -26q0 -36 37 -36q23 0 34.5 11t15.5 37l11 83q2 10 2 22q0 34 -38 34q-42 0 -49 -49z" />
    <glyph glyph-name="uni2117" unicode="&#x2117;" horiz-adv-x="731" 
d="M686 430v-139q0 -132 -85 -220t-236 -88q-150 0 -235.5 88t-85.5 220v139q0 132 85.5 220t235.5 88q151 0 236 -88t85 -220zM602 290v140q0 102 -62 166t-175 64t-175 -64t-62 -166v-140q0 -101 62 -165t175 -64t175 64t62 165zM388 600q76 0 117.5 -40.5t41.5 -113.5
t-40 -113.5t-113 -40.5h-67v-166h-106v474h167zM327 518v-149h58q56 0 56 75q0 39 -13.5 56.5t-42.5 17.5h-58z" />
    <glyph glyph-name="uni2120" unicode="&#x2120;" horiz-adv-x="578" 
d="M506 725h75v-320h-71v167l-54 -127h-34l-52 127v-167h-72v320h75l66 -172zM268 653l-56 -19q-16 39 -46 39q-32 0 -32 -25q0 -17 21 -31t46 -24t46 -34.5t21 -60.5q0 -42 -30.5 -70t-77.5 -28q-84 0 -111 79l56 23q17 -43 53 -43q31 0 31 30q0 15 -14 26t-34 20t-39.5 20
t-33.5 32.5t-14 51.5q0 41 29.5 67.5t79.5 26.5q40 0 67.5 -21.5t37.5 -58.5z" />
    <glyph glyph-name="trademark" unicode="&#x2122;" horiz-adv-x="546" 
d="M481 725h75v-320h-71v167l-54 -127h-34l-52 127v-167h-72v320h74l67 -172zM47 725h198v-68h-60v-252h-79v252h-59v68z" />
    <glyph glyph-name="Omega" unicode="&#x2126;" horiz-adv-x="583" 
d="M346 735q111 0 168.5 -47.5t57.5 -140.5q0 -20 -3 -41l-17 -119q-20 -144 -147 -186l-9 -79h118l-13 -122h-221l32 279q40 7 61 31.5t28 71.5l18 120q1 9 1 24q0 84 -89 84q-99 0 -114 -108l-17 -120q-2 -18 -2 -24q0 -67 66 -79l-33 -279h-221l13 122h119l9 80
q-102 37 -102 151q0 13 4 45l15 108q32 229 278 229z" />
    <glyph glyph-name="estimated" unicode="&#x212e;" horiz-adv-x="753" 
d="M720 343h-547v-96q0 -81 62 -138.5t165 -57.5q143 0 231 119l57 -40q-48 -67 -125 -105t-170 -38q-159 0 -259.5 99t-100.5 248t96.5 249t247.5 100q153 0 241.5 -94.5t101.5 -245.5zM173 438v-31h410v32q0 79 -54.5 128.5t-149.5 49.5q-93 0 -149.5 -51t-56.5 -128z" />
    <glyph glyph-name="uni2150" unicode="&#x2150;" horiz-adv-x="639" 
d="M159 727h67l-39 -321h-83l25 208h-67l6 53h27q30 0 42 11.5t22 48.5zM131 0h-83l483 725h83zM477 0h-88l149 252h-144l8 67h227l-7 -61z" />
    <glyph glyph-name="uni2151" unicode="&#x2151;" horiz-adv-x="653" 
d="M159 727h67l-39 -321h-83l25 208h-67l6 53h27q30 0 42 11.5t22 48.5zM131 0h-83l483 725h83zM377 65l52 28q14 -35 49 -35q48 0 54 49l4 29q-27 -15 -61 -15q-37 0 -60 19.5t-23 58.5q0 58 35 91.5t94 33.5q49 0 75 -26t26 -68q0 -13 -1 -19l-13 -101q-7 -53 -42 -83.5
t-90 -30.5q-81 0 -99 69zM500 180q35 0 44 20l2 14q0 4 0.5 8.5t1 7.5t0.5 4q0 28 -34 28q-47 0 -47 -53q0 -29 33 -29z" />
    <glyph glyph-name="uni2152" unicode="&#x2152;" horiz-adv-x="870" 
d="M159 727h67l-39 -321h-83l25 208h-67l6 53h27q30 0 42 11.5t22 48.5zM131 0h-83l483 725h83zM494 321h67l-39 -321h-83l25 208h-67l6 53h27q30 0 42 11.5t22 48.5zM839 197l-11 -83q-7 -54 -40.5 -86t-88.5 -32q-49 0 -75.5 26.5t-26.5 72.5q0 14 2 27l12 83
q8 55 41 86.5t87 31.5q49 0 75.5 -26t26.5 -71q0 -17 -2 -29zM688 204l-12 -84q-2 -18 -2 -22q0 -38 32 -38q20 0 30 12.5t14 41.5l11 84q2 20 2 22q0 34 -32 34q-20 0 -30 -11.5t-13 -38.5z" />
    <glyph glyph-name="onethird" unicode="&#x2153;" horiz-adv-x="595" 
d="M202 727h67l-39 -321h-83l25 208h-67l6 53h27q30 0 42 11.5t22 48.5zM106 0h-83l483 727h83zM397 134l7 56h26q45 0 45 42q0 28 -30 28q-35 0 -54 -37l-56 21q34 79 125 79q48 0 73 -21.5t25 -54.5q0 -62 -53 -82q42 -13 42 -60q0 -52 -36 -80.5t-93 -28.5q-90 0 -107 75
l61 22q10 -36 47 -36q20 0 32 13t12 36q0 28 -38 28h-28z" />
    <glyph glyph-name="twothirds" unicode="&#x2154;" horiz-adv-x="595" 
d="M193 729q50 0 74 -22.5t24 -57.5q0 -38 -21.5 -67.5t-48.5 -45t-54.5 -34t-34.5 -34.5h136l-7 -62h-221l2 32q6 36 33.5 68t57 50.5t53.5 41t24 43.5q0 24 -31 24q-38 0 -56 -47l-59 21q17 41 50.5 65.5t78.5 24.5zM106 0h-83l483 725h83zM397 134l7 56h26q45 0 45 42
q0 28 -30 28q-35 0 -54 -37l-56 21q34 79 125 79q48 0 73 -21.5t25 -54.5q0 -62 -53 -82q42 -13 42 -60q0 -52 -36 -80.5t-93 -28.5q-90 0 -107 75l61 22q10 -36 47 -36q20 0 32 13t12 36q0 28 -38 28h-28z" />
    <glyph glyph-name="uni2155" unicode="&#x2155;" horiz-adv-x="595" 
d="M202 727h67l-39 -321h-83l25 208h-67l6 53h27q30 0 42 11.5t22 48.5zM106 0h-83l483 727h83zM383 131l-48 26l33 162h195l-13 -65h-127l-11 -58q24 9 51 9q85 0 85 -80q0 -62 -35 -95.5t-98 -33.5q-88 0 -102 75l59 22q12 -35 45 -35q48 0 48 57q0 29 -39 29
q-21 0 -43 -13z" />
    <glyph glyph-name="uni2156" unicode="&#x2156;" horiz-adv-x="595" 
d="M193 729q50 0 74 -22.5t24 -57.5q0 -38 -21.5 -67.5t-48.5 -45t-54.5 -34t-34.5 -34.5h136l-7 -62h-221l2 32q6 36 33.5 68t57 50.5t53.5 41t24 43.5q0 24 -31 24q-38 0 -56 -47l-59 21q17 41 50.5 65.5t78.5 24.5zM106 0h-83l483 725h83zM383 131l-48 26l33 162h195
l-13 -65h-127l-11 -58q24 9 51 9q85 0 85 -80q0 -62 -35 -95.5t-98 -33.5q-88 0 -102 75l59 22q12 -35 45 -35q48 0 48 57q0 29 -39 29q-21 0 -43 -13z" />
    <glyph glyph-name="uni2157" unicode="&#x2157;" horiz-adv-x="595" 
d="M127 540l7 56h26q45 0 45 42q0 28 -30 28q-35 0 -54 -37l-56 21q34 79 125 79q48 0 73 -21.5t25 -54.5q0 -62 -53 -82q42 -13 42 -60q0 -52 -36 -80.5t-93 -28.5q-90 0 -107 75l61 22q10 -36 47 -36q20 0 32 13t12 36q0 28 -38 28h-28zM106 0h-83l483 725h83zM383 131
l-48 26l33 162h195l-13 -65h-127l-11 -58q24 9 51 9q85 0 85 -80q0 -62 -35 -95.5t-98 -33.5q-88 0 -102 75l59 22q12 -35 45 -35q48 0 48 57q0 29 -39 29q-21 0 -43 -13z" />
    <glyph glyph-name="uni2158" unicode="&#x2158;" horiz-adv-x="595" 
d="M236 406h-71l7 57h-149l7 52l167 210h78l-25 -202h33l-12 -60h-28zM111 523h69l18 120zM106 0h-83l483 725h83zM383 131l-48 26l33 162h195l-13 -65h-127l-11 -58q24 9 51 9q85 0 85 -80q0 -62 -35 -95.5t-98 -33.5q-88 0 -102 75l59 22q12 -35 45 -35q48 0 48 57
q0 29 -39 29q-21 0 -43 -13z" />
    <glyph glyph-name="uni2159" unicode="&#x2159;" horiz-adv-x="595" 
d="M202 727h67l-39 -321h-83l25 208h-67l6 53h27q30 0 42 11.5t22 48.5zM106 0h-83l483 727h83zM467 323q37 0 62.5 -18.5t32.5 -53.5l-55 -24q-10 32 -42 32q-48 0 -56 -51l-3 -20q27 16 62 16q83 0 83 -76q0 -65 -35 -98.5t-95 -33.5q-101 0 -101 96q0 8 2 24l11 82
q8 55 44 90t90 35zM398 122l-2 -14q-2 -14 -2 -16q0 -31 37 -31q44 0 44 55q0 28 -32 28q-43 0 -45 -22z" />
    <glyph glyph-name="uni215A" unicode="&#x215a;" horiz-adv-x="595" 
d="M113 537l-48 26l33 162h195l-13 -65h-127l-11 -58q24 9 51 9q85 0 85 -80q0 -62 -35 -95.5t-98 -33.5q-88 0 -102 75l59 22q12 -35 45 -35q48 0 48 57q0 29 -39 29q-21 0 -43 -13zM106 0h-83l483 725h83zM467 323q37 0 62.5 -18.5t32.5 -53.5l-55 -24q-10 32 -42 32
q-48 0 -56 -51l-3 -20q27 16 62 16q83 0 83 -76q0 -65 -35 -98.5t-95 -33.5q-101 0 -101 96q0 8 2 24l11 82q8 55 44 90t90 35zM398 122l-2 -14q-2 -14 -2 -16q0 -31 37 -31q44 0 44 55q0 28 -32 28q-43 0 -45 -22z" />
    <glyph glyph-name="oneeighth" unicode="&#x215b;" horiz-adv-x="595" 
d="M202 727h67l-39 -321h-83l25 208h-67l6 53h27q30 0 42 11.5t22 48.5zM106 0h-83l483 727h83zM421 -4q-106 0 -106 82q0 67 53 91q-27 16 -27 52q0 46 29.5 74t90.5 28q99 0 99 -74q0 -56 -44 -80q35 -18 35 -60q0 -56 -35.5 -84.5t-94.5 -28.5zM428 57q26 0 36 13t10 38
q0 27 -36 27q-24 0 -34.5 -10t-10.5 -38q0 -17 8 -23.5t27 -6.5zM454 262q-22 0 -31.5 -10.5t-9.5 -36.5q0 -25 32 -25q22 0 31.5 10.5t9.5 38.5q0 13 -7 18t-25 5z" />
    <glyph glyph-name="threeeighths" unicode="&#x215c;" horiz-adv-x="595" 
d="M127 540l7 56h26q45 0 45 42q0 28 -30 28q-35 0 -54 -37l-56 21q34 79 125 79q48 0 73 -21.5t25 -54.5q0 -62 -53 -82q42 -13 42 -60q0 -52 -36 -80.5t-93 -28.5q-90 0 -107 75l61 22q10 -36 47 -36q20 0 32 13t12 36q0 28 -38 28h-28zM106 0h-83l483 725h83zM421 -4
q-106 0 -106 82q0 67 53 91q-27 16 -27 52q0 46 29.5 74t90.5 28q99 0 99 -74q0 -56 -44 -80q35 -18 35 -60q0 -56 -35.5 -84.5t-94.5 -28.5zM428 57q26 0 36 13t10 38q0 27 -36 27q-24 0 -34.5 -10t-10.5 -38q0 -17 8 -23.5t27 -6.5zM454 262q-22 0 -31.5 -10.5t-9.5 -36.5
q0 -25 32 -25q22 0 31.5 10.5t9.5 38.5q0 13 -7 18t-25 5z" />
    <glyph glyph-name="fiveeighths" unicode="&#x215d;" horiz-adv-x="595" 
d="M113 537l-48 26l33 162h195l-13 -65h-127l-11 -58q24 9 51 9q85 0 85 -80q0 -62 -35 -95.5t-98 -33.5q-88 0 -102 75l59 22q12 -35 45 -35q48 0 48 57q0 29 -39 29q-21 0 -43 -13zM106 0h-83l483 725h83zM421 -4q-106 0 -106 82q0 67 53 91q-27 16 -27 52q0 46 29.5 74
t90.5 28q99 0 99 -74q0 -56 -44 -80q35 -18 35 -60q0 -56 -35.5 -84.5t-94.5 -28.5zM428 57q26 0 36 13t10 38q0 27 -36 27q-24 0 -34.5 -10t-10.5 -38q0 -17 8 -23.5t27 -6.5zM454 262q-22 0 -31.5 -10.5t-9.5 -36.5q0 -25 32 -25q22 0 31.5 10.5t9.5 38.5q0 13 -7 18
t-25 5z" />
    <glyph glyph-name="seveneighths" unicode="&#x215e;" horiz-adv-x="595" 
d="M202 406h-88l149 252h-144l8 67h227l-7 -61zM106 0h-83l483 725h83zM421 -4q-106 0 -106 82q0 67 53 91q-27 16 -27 52q0 46 29.5 74t90.5 28q99 0 99 -74q0 -56 -44 -80q35 -18 35 -60q0 -56 -35.5 -84.5t-94.5 -28.5zM428 57q26 0 36 13t10 38q0 27 -36 27
q-24 0 -34.5 -10t-10.5 -38q0 -17 8 -23.5t27 -6.5zM454 262q-22 0 -31.5 -10.5t-9.5 -36.5q0 -25 32 -25q22 0 31.5 10.5t9.5 38.5q0 13 -7 18t-25 5z" />
    <glyph glyph-name="uni215F" unicode="&#x215f;" horiz-adv-x="595" 
d="M202 727h67l-39 -321h-83l25 208h-67l6 53h27q30 0 42 11.5t22 48.5zM106 0h-83l483 727h83z" />
    <glyph glyph-name="uni2189" unicode="&#x2189;" horiz-adv-x="705" 
d="M287 603l-11 -83q-7 -54 -40.5 -86t-88.5 -32q-49 0 -75.5 26.5t-26.5 72.5q0 14 2 27l12 83q8 55 41 86.5t87 31.5q49 0 75.5 -26t26.5 -71q0 -17 -2 -29zM136 610l-12 -84q-2 -18 -2 -22q0 -38 32 -38q20 0 30 12.5t14 41.5l11 84q2 20 2 22q0 34 -32 34
q-20 0 -30 -11.5t-13 -38.5zM183 0h-83l483 725h83zM510 134l7 56h26q45 0 45 42q0 28 -30 28q-36 0 -54 -37l-56 21q34 79 125 79q48 0 73 -21.5t25 -54.5q0 -62 -53 -82q42 -13 42 -60q0 -52 -36 -80.5t-93 -28.5q-91 0 -107 75l61 22q11 -36 47 -36q20 0 32 13t12 36
q0 28 -38 28h-28z" />
    <glyph glyph-name="partialdiff" unicode="&#x2202;" horiz-adv-x="484" 
d="M254 521q61 0 98 -29q0 151 -154 174l36 88q236 -31 236 -264q0 -41 -12 -116l-28 -175q-15 -94 -79 -151t-166 -57q-85 0 -129 41t-44 109q0 23 4 43l24 146q14 86 70 138.5t144 52.5zM293 187l24 137q4 28 4 36q0 58 -58 58q-74 0 -90 -94l-23 -135q-4 -28 -4 -39
q0 -57 58 -57q72 0 89 94z" />
    <glyph glyph-name="Delta" unicode="&#x2206;" horiz-adv-x="596" 
d="M-31 0l321 725h126l139 -725h-586zM331 548l-168 -429h226z" />
    <glyph glyph-name="product" unicode="&#x220f;" horiz-adv-x="601" 
d="M76 725h556l-15 -130h-64l-82 -655h-135l83 656h-161l-82 -656h-133l81 655h-63z" />
    <glyph glyph-name="summation" unicode="&#x2211;" horiz-adv-x="535" 
d="M81 725h481l-15 -130h-286l134 -250l-202 -277h295l-15 -128h-488l7 64l252 341l-172 306z" />
    <glyph glyph-name="minus" unicode="&#x2212;" horiz-adv-x="450" 
d="M411 261h-372v99h372v-99z" />
    <glyph glyph-name="uni2215" unicode="&#x2215;" horiz-adv-x="280" 
d="M-20 0h-83l483 725h83z" />
    <glyph glyph-name="uni2219" unicode="&#x2219;" 
d="M140 311q0 59 36.5 99t89.5 40t89.5 -40t36.5 -99q0 -58 -36.5 -98t-89.5 -40t-89.5 40t-36.5 98z" />
    <glyph glyph-name="radical" unicode="&#x221a;" horiz-adv-x="599" 
d="M656 746l-314 -746h-156l-81 391l-77 18l11 102h205l41 -333l207 568h164z" />
    <glyph glyph-name="infinity" unicode="&#x221e;" horiz-adv-x="565" 
d="M531 283q0 -80 -35 -121t-84 -41q-38 0 -67 20t-62 62q-33 -42 -62.5 -62t-68.5 -20q-48 0 -83 41t-35 121q0 79 35 120t83 41q39 0 68.5 -20t62.5 -62q33 42 62 62t67 20q49 0 84 -41t35 -120zM235 283q-26 36 -39 49t-30 13q-39 0 -39 -62q0 -63 39 -63q16 0 29.5 13
t39.5 50zM330 283q25 -35 39 -48.5t30 -13.5q39 0 39 62t-39 62q-16 0 -30 -13.5t-39 -48.5z" />
    <glyph glyph-name="integral" unicode="&#x222b;" horiz-adv-x="235" 
d="M256 860l9 -103q-38 -5 -55.5 -28.5t-17.5 -74.5v-614q0 -196 -199 -206l-8 103q38 5 55.5 28t17.5 74v615q0 196 198 206z" />
    <glyph glyph-name="approxequal" unicode="&#x2248;" horiz-adv-x="450" 
d="M394 439v-99q-47 -26 -90 -26q-32 0 -86 18.5t-82 18.5q-41 0 -80 -25v98q47 26 92 26q34 0 90 -19t82 -19q39 0 74 27zM394 274v-99q-47 -26 -90 -26q-32 0 -86 18.5t-82 18.5q-41 0 -80 -25v98q47 26 91 26q34 0 90.5 -19t82.5 -19q39 0 74 27z" />
    <glyph glyph-name="notequal" unicode="&#x2260;" horiz-adv-x="450" 
d="M353 505l-32 -71h73v-100h-117l-28 -65h145v-100h-189l-44 -100l-62 28l32 72h-75v100h119l29 65h-148v100h193l44 99z" />
    <glyph glyph-name="lessequal" unicode="&#x2264;" horiz-adv-x="450" 
d="M387 423l-154 -82l154 -81v-126l-340 201v12l340 206v-130zM50 24v94h337v-94h-337z" />
    <glyph glyph-name="greaterequal" unicode="&#x2265;" horiz-adv-x="450" 
d="M63 260l154 81l-154 82v130l340 -206v-12l-340 -201v126zM400 118v-94h-337v94h337z" />
    <glyph glyph-name="dotmath" unicode="&#x22c5;" 
d="M186 318q0 37 23 63t56 26t57 -26t24 -63q0 -36 -24 -61.5t-57 -25.5t-56 25.5t-23 61.5z" />
    <glyph glyph-name="lozenge" unicode="&#x25ca;" horiz-adv-x="425" 
d="M33 305l179 275l179 -275l-179 -276zM137 304l75 -114l75 114l-75 115z" />
    <glyph glyph-name="uni2E18" unicode="&#x2e18;" horiz-adv-x="541" 
d="M497 64q-38 -80 -112 -131t-167 -51q-110 0 -164.5 48t-54.5 121q0 83 57.5 149.5t165.5 109.5l15 83h103l-18 -204l-24 -188q57 23 95 95zM384 620l-16 -146h-137l16 146h137zM129 81q-1 -5 -1 -16q0 -58 59 -73l27 215q-74 -48 -85 -126z" />
    <glyph glyph-name="uniFB00" unicode="&#xfb00;" horiz-adv-x="580" 
d="M594 510l-11 -99h-98l-50 -411h-134l50 411h-138l-50 -411h-134l50 411h-50l11 99h52l4 33q10 83 69 134t175 53l-5 -95q-54 -2 -80 -26t-32 -69l-4 -30h145l4 33q10 83 69 134t175 53l-5 -95q-54 -2 -80 -26t-32 -69l-4 -30h103z" />
    <glyph glyph-name="fi" unicode="&#xfb01;" horiz-adv-x="526" 
d="M340 730l-5 -95q-54 -2 -80 -26t-32 -69l-4 -30h277l-62 -510h-134l49 411h-136l-50 -411h-134l50 411h-50l11 99h52l4 33q10 83 69 134t175 53zM398 725h118l-15 -128h-118z" />
    <glyph glyph-name="fl" unicode="&#xfb02;" horiz-adv-x="537" 
d="M311 510l-11 -100h-87l-50 -410h-134l50 410h-50l11 100h52l4 33q10 85 72.5 136t187.5 51h41l2 16h134l-91 -746h-134l77 635h-38q-61 0 -89.5 -23t-34.5 -72l-4 -30h92z" />
    <glyph glyph-name="uniFB03" unicode="&#xfb03;" horiz-adv-x="796" 
d="M610 730l-5 -95q-54 -2 -80 -26t-32 -69l-4 -30h277l-62 -510h-134l49 411h-136l-50 -411h-134l50 411h-136l-50 -411h-134l50 411h-50l11 99h52l4 33q10 83 69 134t175 53l-5 -95q-54 -2 -80 -26t-32 -69l-4 -30h143l4 33q10 83 69 134t175 53zM668 725h118l-15 -128
h-118z" />
    <glyph glyph-name="uniFB04" unicode="&#xfb04;" horiz-adv-x="808" 
d="M362 510l4 33q11 85 73.5 136t187.5 51h40l2 16h134l-91 -746h-134l77 635h-38q-61 0 -89 -23t-34 -72l-4 -30h91l-11 -99h-87l-50 -411h-134l50 411h-136l-50 -411h-134l50 411h-50l11 99h52l4 33q10 83 69 134t175 53l-5 -95q-54 -2 -80 -26t-32 -69l-4 -30h143z" />
    <glyph glyph-name="caron.alt001" horiz-adv-x="271" 
d="M158 725h107l-77 -143h-72z" />
    <glyph glyph-name="ogonek.alt001" horiz-adv-x="271" 
d="M129 -90q23 0 54 13l15 -66q-47 -26 -111 -26q-49 0 -76 19t-27 50q0 37 34.5 67t90.5 49l49 -16q-27 0 -46 -19.5t-19 -42.5q0 -28 36 -28z" />
    <glyph glyph-name="numbersign.subs" horiz-adv-x="282" 
d="M-5 72l6 48h46l18 86h53l-18 -86h48l18 86h53l-18 -86h38l-5 -48h-40l-11 -57h43l-5 -48h-45l-17 -84h-53l17 84h-48l-17 -84h-53l17 84h-40l6 48h41l12 57h-46zM93 72l-11 -57h48l11 57h-48z" />
    <glyph glyph-name="dollar.subs" horiz-adv-x="265" 
d="M163 254l-6 -54q52 -16 65 -70l-52 -19q-6 21 -24 30l-16 -69q35 -14 55.5 -32.5t20.5 -50.5q0 -45 -29.5 -74.5t-76.5 -34.5l-13 -45h-44l5 46q-63 12 -75 77l55 20q8 -27 30 -36l16 72q-24 10 -39 18.5t-28 26.5t-13 41q0 43 30.5 72.5t80.5 32.5l13 49h45zM108 -63
q33 4 33 32q0 16 -25 28zM96 146q-31 -4 -31 -30q0 -17 22 -26z" />
    <glyph glyph-name="comma.subs" horiz-adv-x="139" 
d="M-19 -114l9 83h78l-8 -65q-12 -100 -89 -106l1 40q19 3 27.5 13.5t12.5 34.5h-31z" />
    <glyph glyph-name="period.subs" horiz-adv-x="139" 
d="M-19 -117l9 86h78l-10 -86h-77z" />
    <glyph glyph-name="n.subs" horiz-adv-x="274" 
d="M-19 -117l30 250h71l1 -23q31 28 68 28q34 0 51 -20.5t17 -53.5q0 -10 -1 -16l-20 -165h-78l20 160q0 1 0.5 4t0.5 5q0 23 -24 23q-21 0 -37 -19l-21 -173h-78z" />
    <glyph glyph-name="cent.subs" horiz-adv-x="242" 
d="M214 129l-56 -19q-5 35 -37 35q-20 0 -32 -12.5t-16 -42.5l-14 -98q-1 -6 -1 -16q0 -42 36 -42q31 0 48 40l52 -20q-29 -60 -85 -72l-13 -47h-45l4 46q-73 13 -73 91q0 12 1 18l14 104q6 44 31.5 73.5t68.5 36.5l16 50h45l-5 -53q49 -15 61 -72z" />
    <glyph glyph-name="sterling.subs" horiz-adv-x="287" 
d="M-5 23l-1 51h30q-1 6 -1 19q0 52 34 85t90 33q42 0 68 -21t31 -54l-60 -23q-6 33 -41 33q-46 0 -46 -72h94l-13 -51h-80q0 -4 0.5 -11t0.5 -10q0 -4 -0.5 -10t-0.5 -8q8 -5 19 -15t20 -15.5t19 -5.5q13 0 20.5 8t13.5 27l53 -16q-24 -88 -90 -88q-17 0 -31.5 8t-21.5 15
t-19 22q-25 -45 -74 -45t-49 42q0 28 19.5 47t55.5 23q-3 14 -5 32h-35zM22 -73q12 0 16 26q-20 -2 -22 -17q0 -9 6 -9z" />
    <glyph glyph-name="currency.subs" horiz-adv-x="201" 
d="M2 49q0 20 9 35l-20 22l24 27l22 -23q14 8 31 8q15 0 33 -9l24 25l24 -27l-23 -24q9 -15 9 -34q0 -16 -9 -36l21 -22l-25 -27l-22 23q-14 -8 -32 -8q-19 0 -32 8l-22 -24l-25 27l22 23q-9 17 -9 36zM45 48q0 -11 7 -18t17 -7t17 7t7 18q0 12 -7 19t-17 7t-17 -7t-7 -19z
" />
    <glyph glyph-name="yen.subs" horiz-adv-x="311" 
d="M209 -69h-54l-5 -48h-86l6 48h-55l5 46h55l2 16h-55l5 45h41l-73 168h95l39 -138l72 138h96l-114 -168h38l-5 -45h-53l-2 -16h53z" />
    <glyph glyph-name="franc.subs" horiz-adv-x="265" 
d="M-44 -79l6 48h29l29 237h219l-7 -70h-134l-8 -61h113l-7 -64h-114l-5 -42h42l-6 -48h-42l-4 -38h-86l5 38h-30z" />
    <glyph glyph-name="lira.subs" horiz-adv-x="287" 
d="M-3 46l-2 38h28q0 1 -0.5 3.5t-0.5 3.5q0 53 34 86.5t91 33.5q42 0 68 -21t31 -54l-60 -23q-6 33 -41 33q-46 0 -46 -62h102l-11 -38h-91q0 -2 0.5 -5.5t0.5 -4.5h86l-9 -36h-77q0 -18 -1 -24q5 -2 25 -15t34 -13q13 0 20.5 8t13.5 27l53 -16q-24 -88 -90 -88
q-37 0 -73 43q-24 -43 -73 -43t-49 40q0 28 20.5 44.5t56.5 18.5q0 3 -1.5 9.5t-1.5 8.5h-33l-2 36h29q-1 3 -1 10h-30zM20 -77q11 0 16 26q-21 -2 -21 -19q0 -7 5 -7z" />
    <glyph glyph-name="peseta.subs" horiz-adv-x="477" 
d="M99 206q74 0 74 -81q0 -61 -26.5 -95.5t-68.5 -34.5h-27l-14 -112h-68l39 323h91zM440 59l-42 -17q-4 24 -20 24q-15 0 -15 -17q0 -11 16 -22t32 -27.5t16 -41.5q0 -36 -21 -57.5t-55 -21.5q-57 0 -64 61l43 15q4 -30 23 -30q17 0 17 22q0 10 -10.5 19t-22.5 16
t-22.5 21.5t-10.5 34.5q0 34 20 56t54 22q54 0 62 -57zM298 112l-7 -51h-34l-14 -114q0 -1 -0.5 -2.5t-0.5 -2.5q0 -14 17 -14q5 0 13 2l1 -41q-18 -10 -42 -10q-50 0 -50 51q0 13 1 20l14 110l-18 6l5 45l22 2l23 59h43l-8 -60h35zM69 149l-12 -102h21q28 0 28 77
q0 25 -16 25h-21z" />
    <glyph glyph-name="Euro.subs" horiz-adv-x="283" 
d="M142 211q42 0 70 -22.5t34 -54.5l-64 -23q-7 31 -40 31q-46 0 -52 -50l-1 -4h110l-12 -35h-102l-2 -12h100l-11 -35h-93l-2 -15q-1 -4 -1 -11q0 -38 40 -38q32 0 49 35l59 -22q-31 -76 -124 -76q-51 0 -81 25.5t-30 70.5q0 10 1 16l2 15h-21l4 35h22l1 12h-21l4 35h22
l1 4q7 55 44 87t94 32z" />
    <glyph glyph-name="numbersign.sups" horiz-adv-x="282" 
d="M67 665l6 48h46l18 86h53l-18 -86h48l18 86h53l-18 -86h38l-5 -48h-40l-11 -57h43l-5 -48h-45l-17 -84h-53l17 84h-48l-17 -84h-53l17 84h-40l6 48h41l12 57h-46zM165 665l-11 -57h48l11 57h-48z" />
    <glyph glyph-name="dollar.sups" horiz-adv-x="265" 
d="M235 847l-6 -54q52 -16 65 -70l-52 -19q-6 21 -24 30l-16 -69q35 -14 55.5 -32.5t20.5 -50.5q0 -45 -29.5 -74.5t-76.5 -34.5l-13 -45h-44l5 46q-63 12 -75 77l55 20q8 -27 30 -36l16 72q-24 10 -39 18.5t-28 26.5t-13 41q0 43 30.5 72.5t80.5 32.5l13 49h45zM180 530
q33 4 33 32q0 16 -25 28zM168 739q-31 -4 -31 -30q0 -17 22 -26z" />
    <glyph glyph-name="comma.sups" horiz-adv-x="139" 
d="M53 479l9 83h78l-8 -65q-12 -100 -89 -106l1 40q19 3 27.5 13.5t12.5 34.5h-31z" />
    <glyph glyph-name="period.sups" horiz-adv-x="139" 
d="M53 476l9 86h78l-10 -86h-77z" />
    <glyph glyph-name="cent.sups" horiz-adv-x="242" 
d="M286 722l-56 -19q-5 35 -37 35q-20 0 -32 -12.5t-16 -42.5l-14 -98q-1 -6 -1 -16q0 -42 36 -42q31 0 48 40l52 -20q-29 -60 -85 -72l-13 -47h-45l4 46q-73 13 -73 91q0 12 1 18l14 104q6 44 31.5 73.5t68.5 36.5l16 50h45l-5 -53q49 -15 61 -72z" />
    <glyph glyph-name="sterling.sups" horiz-adv-x="287" 
d="M67 616l-1 51h30q-1 6 -1 19q0 52 34 85t90 33q42 0 68 -21t31 -54l-60 -23q-6 33 -41 33q-46 0 -46 -72h94l-13 -51h-80q0 -4 0.5 -11t0.5 -10q0 -4 -0.5 -10t-0.5 -8q8 -5 19 -15t20 -15.5t19 -5.5q13 0 20.5 8t13.5 27l53 -16q-24 -88 -90 -88q-17 0 -31.5 8t-21.5 15
t-19 22q-25 -45 -74 -45t-49 42q0 28 19.5 47t55.5 23q-3 14 -5 32h-35zM94 520q12 0 16 26q-20 -2 -22 -17q0 -9 6 -9z" />
    <glyph glyph-name="currency.sups" horiz-adv-x="201" 
d="M74 642q0 20 9 35l-20 22l24 27l22 -23q14 8 31 8q15 0 33 -9l24 25l24 -27l-23 -24q9 -15 9 -34q0 -16 -9 -36l21 -22l-25 -27l-22 23q-14 -8 -32 -8q-19 0 -32 8l-22 -24l-25 27l22 23q-9 16 -9 36zM117 641q0 -11 7 -18t17 -7t17 7t7 18q0 12 -7 19t-17 7t-17 -7
t-7 -19z" />
    <glyph glyph-name="yen.sups" horiz-adv-x="311" 
d="M281 524h-54l-5 -48h-86l6 48h-55l5 46h55l2 16h-55l5 45h41l-73 168h95l39 -138l72 138h96l-114 -168h38l-5 -45h-53l-2 -16h53z" />
    <glyph glyph-name="franc.sups" horiz-adv-x="265" 
d="M28 514l6 48h29l29 237h219l-7 -70h-134l-8 -61h113l-7 -64h-114l-5 -42h42l-6 -48h-42l-4 -38h-86l4 38h-29z" />
    <glyph glyph-name="lira.sups" horiz-adv-x="287" 
d="M69 639l-2 38h28q0 1 -0.5 3.5t-0.5 3.5q0 53 34 86.5t91 33.5q42 0 68 -21t31 -54l-60 -23q-6 33 -41 33q-46 0 -46 -62h102l-11 -38h-91q0 -2 0.5 -5.5t0.5 -4.5h86l-9 -36h-77q0 -18 -1 -24q5 -2 25 -15t34 -13q13 0 20.5 8t13.5 27l53 -16q-24 -88 -90 -88
q-37 0 -73 43q-24 -43 -73 -43t-49 40q0 28 20.5 44.5t56.5 18.5q0 3 -1.5 9.5t-1.5 8.5h-33l-2 36h29q-1 3 -1 10h-30zM92 516q11 0 16 26q-21 -2 -21 -19q0 -7 5 -7z" />
    <glyph glyph-name="peseta.sups" horiz-adv-x="477" 
d="M171 799q74 0 74 -81q0 -61 -26.5 -95.5t-68.5 -34.5h-27l-14 -112h-68l39 323h91zM512 652l-42 -17q-4 24 -20 24q-15 0 -15 -17q0 -11 16 -22t32 -27.5t16 -41.5q0 -36 -21 -57.5t-55 -21.5q-57 0 -64 61l43 15q4 -30 23 -30q17 0 17 22q0 10 -10.5 19t-22.5 16
t-22.5 21.5t-10.5 34.5q0 34 20 56t54 22q54 0 62 -57zM370 705l-7 -51h-34l-14 -114q0 -1 -0.5 -2.5t-0.5 -2.5q0 -14 17 -14q5 0 13 2l1 -41q-18 -10 -42 -10q-50 0 -50 51q0 13 1 20l14 110l-18 6l5 45l22 2l23 59h43l-8 -60h35zM141 742l-12 -102h21q28 0 28 77
q0 25 -16 25h-21z" />
    <glyph glyph-name="Euro.sups" horiz-adv-x="283" 
d="M214 804q42 0 70 -22.5t34 -54.5l-64 -23q-7 31 -40 31q-46 0 -52 -50l-1 -4h110l-12 -35h-102l-2 -12h100l-11 -35h-93l-2 -15q-1 -4 -1 -11q0 -38 40 -38q32 0 49 35l59 -22q-31 -76 -124 -76q-51 0 -81 25.5t-30 70.5q0 10 1 16l2 15h-21l4 35h22l1 12h-21l4 35h22
l1 4q7 55 44 87t94 32z" />
    <glyph glyph-name="numbersign.numr" horiz-adv-x="282" 
d="M58 595l6 48h46l18 86h53l-18 -86h48l18 86h53l-18 -86h38l-5 -48h-40l-11 -57h43l-5 -48h-45l-17 -84h-53l17 84h-48l-17 -84h-53l17 84h-40l6 48h41l12 57h-46zM156 595l-11 -57h48l11 57h-48z" />
    <glyph glyph-name="dollar.numr" horiz-adv-x="265" 
d="M226 777l-6 -54q52 -16 65 -70l-52 -19q-6 21 -24 30l-16 -69q35 -14 55.5 -32.5t20.5 -50.5q0 -45 -29.5 -74.5t-76.5 -34.5l-13 -45h-44l5 46q-63 12 -75 77l55 20q7 -27 30 -36l16 72q-24 10 -39 18.5t-28 26.5t-13 41q0 43 30.5 72.5t80.5 32.5l13 49h45zM171 460
q33 4 33 32q0 16 -25 28zM159 669q-31 -4 -31 -30q0 -17 22 -26z" />
    <glyph glyph-name="parenleft.numr" horiz-adv-x="147" 
d="M49 488l18 144q9 72 39 107t87 35h14l-6 -50h-14q-46 0 -57 -92l-18 -144q-2 -24 -2 -32q0 -60 36 -60h14l-5 -49h-14q-50 0 -72.5 24.5t-22.5 75.5q0 19 3 41z" />
    <glyph glyph-name="parenright.numr" horiz-adv-x="147" 
d="M161 632l-18 -144q-9 -73 -37.5 -107t-87.5 -34h-13l5 50h13q46 0 57 91l18 144q3 20 3 33q0 58 -37 58h-14l6 51h14q49 0 71.5 -24.5t22.5 -75.5q0 -20 -3 -42z" />
    <glyph glyph-name="plus.numr" horiz-adv-x="228" 
d="M107 459l9 75h-66l6 51h66l9 74h53l-9 -74h65l-6 -51h-65l-9 -75h-53z" />
    <glyph glyph-name="comma.numr" horiz-adv-x="139" 
d="M44 409l9 83h78l-8 -65q-12 -100 -89 -106l1 40q19 3 27.5 13.5t12.5 34.5h-31z" />
    <glyph glyph-name="period.numr" horiz-adv-x="139" 
d="M44 406l9 86h78l-10 -86h-77z" />
    <glyph glyph-name="zero.numr" horiz-adv-x="269" 
d="M287 603l-11 -83q-7 -54 -40.5 -86t-88.5 -32q-49 0 -75.5 26.5t-26.5 72.5q0 14 2 27l12 83q8 55 41 86.5t87 31.5q49 0 75.5 -26t26.5 -71q0 -17 -2 -29zM136 610l-12 -84q-2 -18 -2 -22q0 -38 32 -38q20 0 30 12.5t14 41.5l11 84q2 20 2 22q0 34 -32 34
q-20 0 -30 -11.5t-13 -38.5z" />
    <glyph glyph-name="one.numr" horiz-adv-x="217" 
d="M159 727h67l-39 -321h-83l25 208h-67l6 53h27q30 0 42 11.5t22 48.5z" />
    <glyph glyph-name="two.numr" horiz-adv-x="269" 
d="M189 729q50 0 74 -22.5t24 -57.5q0 -38 -21.5 -67.5t-48.5 -45t-54.5 -34t-34.5 -34.5h136l-7 -62h-221l2 32q6 36 33.5 68t57 50.5t53.5 41t24 43.5q0 24 -31 24q-38 0 -56 -47l-59 21q17 41 50.5 65.5t78.5 24.5z" />
    <glyph glyph-name="three.numr" horiz-adv-x="269" 
d="M123 540l7 56h26q45 0 45 42q0 28 -30 28q-35 0 -54 -37l-56 21q34 79 125 79q48 0 73 -21.5t25 -54.5q0 -62 -53 -82q42 -13 42 -60q0 -52 -36 -80.5t-93 -28.5q-90 0 -107 75l61 22q10 -36 47 -36q20 0 32 13t12 36q0 28 -38 28h-28z" />
    <glyph glyph-name="four.numr" horiz-adv-x="269" 
d="M244 406h-71l7 57h-149l7 52l167 210h78l-25 -202h33l-12 -60h-28zM119 523h69l18 120z" />
    <glyph glyph-name="five.numr" horiz-adv-x="269" 
d="M109 537l-48 26l33 162h195l-13 -65h-127l-11 -58q24 9 51 9q85 0 85 -80q0 -62 -35 -95.5t-98 -33.5q-88 0 -102 75l59 22q12 -35 45 -35q48 0 48 57q0 29 -39 29q-21 0 -43 -13z" />
    <glyph glyph-name="six.numr" horiz-adv-x="269" 
d="M193 729q37 0 62.5 -18.5t32.5 -53.5l-55 -24q-10 32 -42 32q-48 0 -56 -51l-3 -20q27 16 62 16q83 0 83 -76q0 -65 -35 -98.5t-95 -33.5q-101 0 -101 96q0 8 2 24l11 82q8 55 44 90t90 35zM124 528l-2 -14q-2 -14 -2 -16q0 -31 37 -31q44 0 44 55q0 28 -32 28
q-43 0 -45 -22z" />
    <glyph glyph-name="seven.numr" horiz-adv-x="255" 
d="M142 406h-88l149 252h-144l8 67h227l-7 -61z" />
    <glyph glyph-name="eight.numr" horiz-adv-x="269" 
d="M147 402q-106 0 -106 82q0 67 53 91q-27 16 -27 52q0 46 29.5 74t90.5 28q99 0 99 -74q0 -56 -44 -80q35 -18 35 -60q0 -56 -35.5 -84.5t-94.5 -28.5zM154 463q26 0 36 13t10 38q0 27 -36 27q-24 0 -34.5 -10t-10.5 -38q0 -17 8 -23.5t27 -6.5zM180 668
q-22 0 -31.5 -10.5t-9.5 -36.5q0 -25 32 -25q22 0 31.5 10.5t9.5 38.5q0 13 -7 18t-25 5z" />
    <glyph glyph-name="nine.numr" horiz-adv-x="269" 
d="M42 471l52 28q14 -35 49 -35q48 0 54 49l4 29q-27 -15 -61 -15q-37 0 -60 19.5t-23 58.5q0 58 35 91.5t94 33.5q49 0 75 -26t26 -68q0 -13 -1 -19l-13 -101q-7 -53 -42 -83.5t-90 -30.5q-81 0 -99 69zM165 586q35 0 44 20l2 14l2 20q0 28 -34 28q-47 0 -47 -53
q0 -29 33 -29z" />
    <glyph glyph-name="equal.numr" horiz-adv-x="228" 
d="M224 569h-161l6 52h161zM215 489h-162l6 51h162z" />
    <glyph glyph-name="n.numr" horiz-adv-x="274" 
d="M44 406l30 250h71l1 -23q31 28 68 28q34 0 51 -20.5t17 -53.5q0 -10 -1 -16l-20 -165h-78l20 160q0 2 0.5 5t0.5 4q0 23 -24 23q-21 0 -37 -19l-21 -173h-78z" />
    <glyph glyph-name="cent.numr" horiz-adv-x="242" 
d="M277 652l-56 -19q-5 35 -37 35q-20 0 -32 -12.5t-16 -42.5l-14 -98q-1 -6 -1 -16q0 -42 36 -42q31 0 48 40l52 -20q-29 -60 -85 -72l-13 -47h-45l4 46q-73 13 -73 91q0 12 1 18l14 104q6 44 31.5 73.5t68.5 36.5l16 50h45l-5 -53q49 -15 61 -72z" />
    <glyph glyph-name="sterling.numr" horiz-adv-x="287" 
d="M58 546l-1 51h30q-1 6 -1 19q0 52 34 85t90 33q42 0 68 -21t31 -54l-60 -23q-6 33 -41 33q-46 0 -46 -72h94l-13 -51h-80q0 -4 0.5 -11t0.5 -10q0 -4 -0.5 -10t-0.5 -8q8 -5 19 -15t20 -15.5t19 -5.5q13 0 20.5 8t13.5 27l53 -16q-24 -88 -90 -88q-17 0 -31.5 8t-21.5 15
t-19 22q-25 -45 -74 -45t-49 42q0 28 19.5 47t55.5 23q-4 14 -5 32h-35zM85 450q12 0 16 26q-20 -2 -22 -17q0 -9 6 -9z" />
    <glyph glyph-name="currency.numr" horiz-adv-x="201" 
d="M65 572q0 20 9 35l-20 22l24 27l22 -23q14 8 31 8q15 0 33 -9l24 25l24 -27l-23 -24q9 -15 9 -34q0 -16 -9 -36l21 -22l-25 -27l-22 23q-14 -8 -32 -8q-19 0 -32 8l-22 -24l-25 27l22 23q-9 16 -9 36zM108 571q0 -11 7 -18t17 -7t17 7t7 18q0 12 -7 19t-17 7t-17 -7
t-7 -19z" />
    <glyph glyph-name="yen.numr" horiz-adv-x="311" 
d="M272 454h-54l-5 -48h-86l6 48h-55l5 46h55l2 16h-55l5 45h41l-73 168h95l39 -138l72 138h96l-114 -168h38l-5 -45h-53l-2 -16h53z" />
    <glyph glyph-name="franc.numr" horiz-adv-x="265" 
d="M19 444l6 48h29l29 237h219l-7 -70h-134l-8 -61h113l-7 -64h-114l-5 -42h42l-6 -48h-42l-4 -38h-86l4 38h-29z" />
    <glyph glyph-name="lira.numr" horiz-adv-x="287" 
d="M60 569l-2 38h28q0 1 -0.5 3.5t-0.5 3.5q0 53 34 86.5t91 33.5q42 0 68 -21t31 -54l-60 -23q-6 33 -41 33q-46 0 -46 -62h102l-11 -38h-91q0 -2 0.5 -5.5t0.5 -4.5h86l-9 -36h-77q0 -18 -1 -24q5 -2 25 -15t34 -13q13 0 20.5 8t13.5 27l53 -16q-24 -88 -90 -88
q-37 0 -73 43q-24 -43 -73 -43t-49 40q0 28 20.5 44.5t56.5 18.5q0 3 -1.5 9.5t-1.5 8.5h-33l-2 36h29q-1 3 -1 10h-30zM83 446q11 0 16 26q-21 -2 -21 -19q0 -7 5 -7z" />
    <glyph glyph-name="peseta.numr" horiz-adv-x="477" 
d="M162 729q74 0 74 -81q0 -61 -26.5 -95.5t-68.5 -34.5h-27l-14 -112h-68l39 323h91zM503 582l-42 -17q-4 24 -20 24q-15 0 -15 -17q0 -11 16 -22t32 -27.5t16 -41.5q0 -36 -21 -57.5t-55 -21.5q-57 0 -64 61l43 15q4 -30 23 -30q17 0 17 22q0 10 -10.5 19t-22.5 16
t-22.5 21.5t-10.5 34.5q0 34 20 56t54 22q54 0 62 -57zM361 635l-7 -51h-34l-14 -114q0 -1 -0.5 -2.5t-0.5 -2.5q0 -14 17 -14q5 0 13 2l1 -41q-18 -10 -42 -10q-50 0 -50 51q0 13 1 20l14 110l-18 6l5 45l22 2l23 59h43l-8 -60h35zM132 672l-12 -102h21q28 0 28 77
q0 25 -16 25h-21z" />
    <glyph glyph-name="Euro.numr" horiz-adv-x="283" 
d="M205 734q42 0 70 -22.5t34 -54.5l-64 -23q-7 31 -40 31q-46 0 -52 -50l-1 -4h110l-12 -35h-102l-2 -12h100l-11 -35h-93l-2 -15q-1 -4 -1 -11q0 -38 40 -38q32 0 49 35l59 -22q-31 -76 -124 -76q-51 0 -81 25.5t-30 70.5q0 10 1 16l2 15h-21l4 35h22l1 12h-21l4 35h22
l1 4q7 55 44 87t94 32z" />
    <glyph glyph-name="minus.numr" horiz-adv-x="228" 
d="M234 534h-184l6 51h184z" />
    <glyph glyph-name="numbersign.dnom" horiz-adv-x="282" 
d="M9 189l6 48h46l18 86h53l-18 -86h48l18 86h53l-18 -86h38l-5 -48h-40l-11 -57h43l-5 -48h-45l-17 -84h-53l17 84h-48l-17 -84h-53l17 84h-40l6 48h41l12 57h-46zM107 189l-11 -57h48l11 57h-48z" />
    <glyph glyph-name="dollar.dnom" horiz-adv-x="265" 
d="M177 371l-6 -54q52 -16 65 -70l-52 -19q-6 21 -24 30l-16 -69q35 -14 55.5 -32.5t20.5 -50.5q0 -45 -29.5 -74.5t-76.5 -34.5l-13 -45h-44l5 46q-63 12 -75 77l55 20q8 -27 30 -36l16 72q-24 10 -39 18.5t-28 26.5t-13 41q0 43 30.5 72.5t80.5 32.5l13 49h45zM122 54
q33 4 33 32q0 16 -25 28zM110 263q-31 -4 -31 -30q0 -17 22 -26z" />
    <glyph glyph-name="parenleft.dnom" horiz-adv-x="147" 
d="M0 82l18 144q9 72 39 107t87 35h14l-6 -50h-14q-46 0 -57 -92l-18 -144q-2 -16 -2 -32q0 -60 36 -60h14l-5 -49h-14q-50 0 -72.5 24.5t-22.5 75.5q0 19 3 41z" />
    <glyph glyph-name="parenright.dnom" horiz-adv-x="147" 
d="M112 226l-18 -144q-9 -73 -37.5 -107t-87.5 -34h-13l5 50h13q46 0 57 91l18 144q3 20 3 33q0 58 -37 58h-14l6 51h14q49 0 71.5 -24.5t22.5 -75.5q0 -20 -3 -42z" />
    <glyph glyph-name="plus.dnom" horiz-adv-x="228" 
d="M58 53l9 75h-66l6 51h66l9 74h53l-9 -74h65l-6 -51h-65l-9 -75h-53z" />
    <glyph glyph-name="comma.dnom" horiz-adv-x="139" 
d="M-5 3l9 83h78l-8 -65q-12 -100 -89 -106l1 40q19 3 27.5 13.5t12.5 34.5h-31z" />
    <glyph glyph-name="period.dnom" horiz-adv-x="139" 
d="M-5 0l9 86h78l-10 -86h-77z" />
    <glyph glyph-name="zero.dnom" horiz-adv-x="269" 
d="M238 197l-11 -83q-7 -54 -40.5 -86t-88.5 -32q-49 0 -75.5 26.5t-26.5 72.5q0 14 2 27l12 83q8 55 41 86.5t87 31.5q49 0 75.5 -26t26.5 -71q0 -17 -2 -29zM87 204l-12 -84q-2 -18 -2 -22q0 -38 32 -38q20 0 30 12.5t14 41.5l11 84q2 20 2 22q0 34 -32 34
q-20 0 -30 -11.5t-13 -38.5z" />
    <glyph glyph-name="one.dnom" horiz-adv-x="217" 
d="M110 321h67l-39 -321h-83l25 208h-67l6 53h27q30 0 42 11.5t22 48.5z" />
    <glyph glyph-name="two.dnom" horiz-adv-x="269" 
d="M140 323q50 0 74 -22.5t24 -57.5q0 -38 -21.5 -67.5t-48.5 -45t-54.5 -34t-34.5 -34.5h136l-7 -62h-221l2 32q6 36 33.5 68t57 50.5t53.5 41t24 43.5q0 24 -31 24q-38 0 -56 -47l-59 21q17 41 50.5 65.5t78.5 24.5z" />
    <glyph glyph-name="three.dnom" horiz-adv-x="269" 
d="M74 134l7 56h26q45 0 45 42q0 28 -30 28q-36 0 -54 -37l-56 21q34 79 125 79q48 0 73 -21.5t25 -54.5q0 -62 -53 -82q42 -13 42 -60q0 -52 -36 -80.5t-93 -28.5q-91 0 -107 75l61 22q11 -36 47 -36q20 0 32 13t12 36q0 28 -38 28h-28z" />
    <glyph glyph-name="four.dnom" horiz-adv-x="269" 
d="M195 0h-71l7 57h-149l7 52l167 210h78l-25 -202h33l-12 -60h-28zM70 117h69l18 120z" />
    <glyph glyph-name="five.dnom" horiz-adv-x="269" 
d="M60 131l-48 26l33 162h195l-13 -65h-127l-11 -58q24 9 51 9q85 0 85 -80q0 -62 -35 -95.5t-98 -33.5q-88 0 -102 75l59 22q12 -35 45 -35q48 0 48 57q0 29 -39 29q-21 0 -43 -13z" />
    <glyph glyph-name="six.dnom" horiz-adv-x="269" 
d="M144 323q37 0 62.5 -18.5t32.5 -53.5l-55 -24q-10 32 -42 32q-48 0 -56 -51l-3 -20q27 16 62 16q83 0 83 -76q0 -65 -35 -98.5t-95 -33.5q-101 0 -101 96q0 8 2 24l11 82q8 55 44 90t90 35zM75 122l-2 -14q-2 -14 -2 -16q0 -31 37 -31q44 0 44 55q0 28 -32 28
q-43 0 -45 -22z" />
    <glyph glyph-name="seven.dnom" horiz-adv-x="255" 
d="M93 0h-88l149 252h-144l8 67h227l-7 -61z" />
    <glyph glyph-name="eight.dnom" horiz-adv-x="269" 
d="M98 -4q-106 0 -106 82q0 67 53 91q-27 16 -27 52q0 46 29.5 74t90.5 28q99 0 99 -74q0 -56 -44 -80q35 -18 35 -60q0 -56 -35.5 -84.5t-94.5 -28.5zM105 57q26 0 36 13t10 38q0 27 -36 27q-24 0 -34.5 -10t-10.5 -38q0 -17 8 -23.5t27 -6.5zM131 262q-22 0 -31.5 -10.5
t-9.5 -36.5q0 -25 32 -25q22 0 31.5 10.5t9.5 38.5q0 13 -7 18t-25 5z" />
    <glyph glyph-name="nine.dnom" horiz-adv-x="269" 
d="M-7 65l52 28q14 -35 49 -35q48 0 54 49l4 29q-27 -15 -61 -15q-37 0 -60 19.5t-23 58.5q0 58 35 91.5t94 33.5q49 0 75 -26t26 -68q0 -13 -1 -19l-13 -101q-7 -53 -42 -83.5t-90 -30.5q-81 0 -99 69zM116 180q35 0 44 20l2 14l2 20q0 28 -34 28q-47 0 -47 -53
q0 -29 33 -29z" />
    <glyph glyph-name="equal.dnom" horiz-adv-x="228" 
d="M175 163h-161l6 52h161zM166 83h-162l6 51h162z" />
    <glyph glyph-name="n.dnom" horiz-adv-x="274" 
d="M-5 0l30 250h71l1 -23q31 28 68 28q34 0 51 -20.5t17 -53.5q0 -10 -1 -16l-20 -165h-78l20 160q0 2 0.5 5t0.5 4q0 23 -24 23q-21 0 -37 -19l-21 -173h-78z" />
    <glyph glyph-name="cent.dnom" horiz-adv-x="242" 
d="M228 246l-56 -19q-5 35 -37 35q-20 0 -32 -12.5t-16 -42.5l-14 -98q-1 -6 -1 -16q0 -42 36 -42q31 0 48 40l52 -20q-29 -60 -85 -72l-13 -47h-45l4 46q-73 13 -73 91q0 12 1 18l14 104q6 44 31.5 73.5t68.5 36.5l16 50h45l-5 -53q49 -15 61 -72z" />
    <glyph glyph-name="sterling.dnom" horiz-adv-x="287" 
d="M9 140l-1 51h30q-1 6 -1 19q0 52 34 85t90 33q42 0 68 -21t31 -54l-60 -23q-6 33 -41 33q-46 0 -46 -72h94l-13 -51h-80q0 -4 0.5 -11t0.5 -10q0 -4 -0.5 -10t-0.5 -8q8 -5 19 -15t20 -15.5t19 -5.5q13 0 20.5 8t13.5 27l53 -16q-24 -88 -90 -88q-17 0 -31.5 8t-21.5 15
t-19 22q-25 -45 -74 -45t-49 42q0 28 19.5 47t55.5 23q-3 14 -5 32h-35zM36 44q12 0 16 26q-20 -2 -22 -17q0 -9 6 -9z" />
    <glyph glyph-name="currency.dnom" horiz-adv-x="201" 
d="M16 166q0 20 9 35l-20 22l24 27l22 -23q14 8 31 8q15 0 33 -9l24 25l24 -27l-23 -24q9 -15 9 -34q0 -16 -9 -36l21 -22l-25 -27l-22 23q-14 -8 -32 -8q-19 0 -32 8l-22 -24l-25 27l22 23q-9 16 -9 36zM59 165q0 -11 7 -18t17 -7t17 7t7 18q0 12 -7 19t-17 7t-17 -7
t-7 -19z" />
    <glyph glyph-name="yen.dnom" horiz-adv-x="311" 
d="M223 48h-54l-5 -48h-86l6 48h-55l5 46h55l2 16h-55l5 45h41l-73 168h95l39 -138l72 138h96l-114 -168h38l-5 -45h-53l-2 -16h53z" />
    <glyph glyph-name="franc.dnom" horiz-adv-x="265" 
d="M-30 38l6 48h29l29 237h219l-7 -70h-134l-8 -61h113l-7 -64h-114l-5 -42h42l-6 -48h-42l-4 -38h-86l5 38h-30z" />
    <glyph glyph-name="lira.dnom" horiz-adv-x="287" 
d="M11 163l-2 38h28q0 1 -0.5 3.5t-0.5 3.5q0 53 34 86.5t91 33.5q42 0 68 -21t31 -54l-60 -23q-6 33 -41 33q-46 0 -46 -62h102l-11 -38h-91q0 -2 0.5 -5.5t0.5 -4.5h86l-9 -36h-77q0 -18 -1 -24q5 -2 25 -15t34 -13q13 0 20.5 8t13.5 27l53 -16q-24 -88 -90 -88
q-41 0 -73 43q-24 -43 -73 -43t-49 40q0 28 20.5 44.5t56.5 18.5q0 3 -1.5 9.5t-1.5 8.5h-33l-2 36h29q-1 3 -1 10h-30zM34 40q11 0 16 26q-21 -2 -21 -19q0 -7 5 -7z" />
    <glyph glyph-name="peseta.dnom" horiz-adv-x="477" 
d="M113 323q74 0 74 -81q0 -61 -26.5 -95.5t-68.5 -34.5h-27l-14 -112h-68l39 323h91zM454 176l-42 -17q-4 24 -20 24q-15 0 -15 -17q0 -11 16 -22t32 -27.5t16 -41.5q0 -36 -21 -57.5t-55 -21.5q-57 0 -64 61l43 15q4 -30 23 -30q17 0 17 22q0 10 -10.5 19t-22.5 16
t-22.5 21.5t-10.5 34.5q0 34 20 56t54 22q54 0 62 -57zM312 229l-7 -51h-34l-14 -114q0 -1 -0.5 -2.5t-0.5 -2.5q0 -14 17 -14q5 0 13 2l1 -41q-18 -10 -42 -10q-50 0 -50 51q0 13 1 20l14 110l-18 6l5 45l22 2l23 59h43l-8 -60h35zM83 266l-12 -102h21q28 0 28 77
q0 25 -16 25h-21z" />
    <glyph glyph-name="Euro.dnom" horiz-adv-x="283" 
d="M156 328q42 0 70 -22.5t34 -54.5l-64 -23q-7 31 -40 31q-46 0 -52 -50l-1 -4h110l-12 -35h-102l-2 -12h100l-11 -35h-93l-2 -15q-1 -4 -1 -11q0 -38 40 -38q32 0 49 35l59 -22q-31 -76 -124 -76q-51 0 -81 25.5t-30 70.5q0 10 1 16l2 15h-21l4 35h22l1 12h-21l4 35h22
l1 4q7 55 44 87t94 32z" />
    <glyph glyph-name="minus.dnom" horiz-adv-x="228" 
d="M185 128h-184l6 51h184z" />
    <glyph glyph-name="space.frac" horiz-adv-x="38" 
 />
    <glyph glyph-name="numbersign.osf" horiz-adv-x="477" 
d="M36 362l10 89h82l32 165h95l-34 -165h84l34 165h95l-33 -165h66l-10 -89h-70l-21 -110h77l-10 -88h-80l-33 -164h-95l33 164h-84l-33 -164h-94l32 164h-67l9 88h72l21 110h-78zM208 362l-20 -110h83l21 110h-84z" />
    <glyph glyph-name="dollar.osf" horiz-adv-x="477" 
d="M56 425q0 75 50 129.5t130 64.5l34 120h81l-12 -126q98 -28 117 -135l-94 -28q-18 66 -95 66q-70 0 -70 -63q0 -24 23.5 -44t57.5 -37t67.5 -37.5t57 -54.5t23.5 -78q0 -80 -48.5 -134.5t-124.5 -69.5l-33 -132h-82l12 131q-59 9 -92 44t-43 101l98 30q8 -39 37 -59
t71 -20q31 0 51 20t20 54q0 25 -24.5 45.5t-59 38t-69 38t-59 55.5t-24.5 81z" />
    <glyph glyph-name="plus.osf" horiz-adv-x="477" 
d="M189 72v169h-135v99h135v169h97v-169h137v-99h-137v-169h-97z" />
    <glyph glyph-name="zero.osf" horiz-adv-x="489" 
d="M468 373l-22 -167q-13 -102 -75 -159t-165 -57q-92 0 -140 47t-48 132q0 25 2 39l22 163q14 104 74.5 161t163.5 57q92 0 141 -47t49 -131q0 -25 -2 -38zM176 372l-23 -172q-2 -12 -2 -33q0 -39 16.5 -56.5t50.5 -17.5q41 0 62 24.5t29 82.5l24 174q2 13 2 36
q0 40 -16 57t-51 17q-42 0 -63 -25t-29 -87z" />
    <glyph glyph-name="one.osf" horiz-adv-x="362" 
d="M177 372h-142l11 97h62q61 0 86 27t40 97h115l-72 -593h-146z" />
    <glyph glyph-name="two.osf" horiz-adv-x="460" 
d="M281 592q82 0 122.5 -37.5t40.5 -99.5q0 -75 -66 -154.5t-198 -193.5h224l-11 -107h-397l7 78q305 255 305 359q0 44 -56 44q-65 0 -110 -68l-95 40q46 70 101.5 104.5t132.5 34.5z" />
    <glyph glyph-name="three.osf" horiz-adv-x="458" 
d="M433 428q-15 -113 -94 -145q79 -22 79 -105q0 -131 -103.5 -203.5t-306.5 -72.5l2 110q149 0 209.5 39.5t60.5 117.5q0 32 -22 45t-74 13h-35l12 101h30q56 0 81.5 25t25.5 81q0 47 -55 47q-63 0 -111 -69l-94 40q90 140 234 140q82 0 122 -38t40 -100q0 -17 -1 -26z" />
    <glyph glyph-name="four.osf" horiz-adv-x="466" 
d="M346 -95h-130l27 218h-259l11 101l299 360h135l-44 -358h72l-21 -103h-64zM132 226h126l37 212z" />
    <glyph glyph-name="five.osf" horiz-adv-x="451" 
d="M420 465h-240l-24 -130q46 15 99 15q159 0 159 -141q0 -145 -103.5 -226t-297.5 -81l2 110q142 0 202 41t60 129q0 33 -20 47t-62 14q-49 0 -96 -22l-78 40l64 323h357z" />
    <glyph glyph-name="six.osf" horiz-adv-x="472" 
d="M425 581q-99 0 -158 -46t-81 -144q42 24 94 24q160 0 160 -155q0 -127 -64.5 -198.5t-175.5 -71.5q-88 0 -131 49.5t-43 135.5q0 22 3 46l15 114q22 167 124 261.5t260 94.5zM245 305q-45 0 -75 -27l-7 -56q-3 -24 -3 -42q0 -79 60 -79q37 0 61.5 33t24.5 106
q0 35 -14.5 50t-46.5 15z" />
    <glyph glyph-name="seven.osf" horiz-adv-x="438" 
d="M156 -89h-144l299 554h-281l14 119h420l-12 -109z" />
    <glyph glyph-name="eight.osf" horiz-adv-x="471" 
d="M198 -10q-187 0 -187 144q0 130 106 171q-59 30 -59 104q0 80 53 131.5t161 51.5q91 0 133 -36t42 -97q0 -52 -24 -93t-67 -61q73 -31 73 -111q0 -104 -62.5 -154t-168.5 -50zM210 97q43 0 64 27.5t21 73.5q0 55 -65 55q-83 0 -83 -97q0 -59 63 -59zM260 489
q-77 0 -77 -92q0 -54 58 -54q77 0 77 95q0 27 -13.5 39t-44.5 12z" />
    <glyph glyph-name="nine.osf" horiz-adv-x="472" 
d="M40 12q108 0 167.5 47.5t80.5 156.5q-42 -20 -91 -20q-163 0 -163 152q0 115 63 179.5t174 64.5q88 0 131.5 -49t43.5 -134q0 -19 -3 -42l-14 -108q-22 -171 -125.5 -264t-264.5 -93zM230 301q41 0 74 30l5 35q3 22 3 41q0 40 -14.5 57t-45.5 17q-84 0 -84 -118
q0 -34 15 -48t47 -14z" />
    <glyph glyph-name="less.osf" horiz-adv-x="477" 
d="M404 393l-173 -106l174 -107v-131l-347 231v13l346 231v-131z" />
    <glyph glyph-name="equal.osf" horiz-adv-x="477" 
d="M406 322h-335v100h335v-100zM406 157h-335v100h335v-100z" />
    <glyph glyph-name="greater.osf" horiz-adv-x="477" 
d="M72 524l347 -231v-12l-347 -232v131l173 106l-173 108v130z" />
    <glyph glyph-name="cent.osf" horiz-adv-x="477" 
d="M458 483l-110 -37q-14 71 -76 71q-43 0 -63 -26t-28 -84l-28 -207q-2 -12 -2 -32q0 -40 17 -57t53 -17q62 0 92 73l103 -35q-54 -118 -162 -137l-33 -129h-81l12 128q-134 20 -134 168q0 22 3 48l26 191q12 93 60 150t132 69l33 119h81l-12 -124q94 -28 117 -132z" />
    <glyph glyph-name="sterling.osf" horiz-adv-x="477" 
d="M445 483l-97 -34q-8 67 -62 67q-42 0 -60 -39.5t-18 -122.5h151l-18 -80h-132q2 -61 -3 -97q16 -10 44 -39.5t44 -29.5q21 0 33.5 16t22.5 56l89 -25q-21 -87 -57.5 -126t-89.5 -39q-28 0 -51 15.5t-33 29t-27 41.5q-37 -86 -118 -86q-36 0 -56 19t-20 54q0 48 31 83
t86 44l-14 84h-44v80h37q0 4 -0.5 13t-0.5 14q0 110 55 176.5t151 66.5q68 0 109 -38.5t48 -102.5zM78 68q20 0 29 56q-40 -10 -40 -44q0 -12 11 -12z" />
    <glyph glyph-name="currency.osf" horiz-adv-x="368" 
d="M55 316q0 38 17 69l-41 44l46 52l43 -46q29 17 63 17t65 -18l45 49l47 -51l-45 -49q18 -33 18 -67q0 -37 -18 -70l42 -44l-46 -51l-44 46q-29 -17 -64 -17t-63 17l-45 -49l-47 50l44 49q-17 31 -17 69zM133 316q0 -25 14.5 -40.5t36.5 -15.5t37 15.5t15 40.5
q0 24 -15 39.5t-37 15.5q-21 0 -36 -15.5t-15 -39.5z" />
    <glyph glyph-name="yen.osf" horiz-adv-x="477" 
d="M383 114h-100l-13 -114h-134l13 114h-99l9 76h99l5 35h-100l9 77h72l-109 313h147l63 -270l127 270h148l-187 -313h72l-8 -77h-101l-4 -35h100z" />
    <glyph glyph-name="logicalnot.osf" horiz-adv-x="477" 
d="M326 99v142h-272v99h369v-241h-97z" />
    <glyph glyph-name="plusminus.osf" horiz-adv-x="477" 
d="M190 138v130h-136v99h136v142h96v-142h137v-99h-137v-130h-96zM423 16h-369v99h369v-99z" />
    <glyph glyph-name="multiply.osf" horiz-adv-x="477" 
d="M328 110l-110 118l-110 -118l-64 70l109 117l-109 118l64 70l110 -118l110 118l65 -70l-110 -118l110 -117z" />
    <glyph glyph-name="divide.osf" horiz-adv-x="477" 
d="M423 242h-369v99h369v-99zM173 458q0 28 18.5 48.5t44.5 20.5t45.5 -20.5t19.5 -48.5t-19.5 -48t-45.5 -20t-44.5 20t-18.5 48zM173 129q0 28 18.5 48t44.5 20t45.5 -20t19.5 -48q0 -29 -19 -48.5t-46 -19.5q-26 0 -44.5 19.5t-18.5 48.5z" />
    <glyph glyph-name="franc.osf" horiz-adv-x="477" 
d="M-7 75l10 85h51l55 455h363l-14 -117h-227l-17 -139h193l-12 -107h-194l-12 -92h75l-10 -85h-75l-9 -75h-135l9 75h-51z" />
    <glyph glyph-name="lira.osf" horiz-adv-x="477" 
d="M445 483l-97 -34q-8 67 -62 67q-39 0 -55.5 -31.5t-22.5 -103.5h186l-18 -61h-168v-23h161l-17 -56h-143q0 -44 -3 -64q16 -10 44 -39.5t44 -29.5q21 0 33.5 16t22.5 56l89 -25q-21 -87 -57.5 -126t-89.5 -39q-28 0 -51 15.5t-33 29t-27 41.5q-37 -86 -118 -86
q-36 0 -56 19t-20 54q0 48 31 83t86 44q-4 17 -9 51h-42l-3 56h37l-2 23h-37l-4 61h38q0 110 55 176.5t151 66.5q68 0 109 -38.5t48 -102.5zM78 68q20 0 29 56q-40 -10 -40 -44q0 -12 11 -12z" />
    <glyph glyph-name="peseta.osf" horiz-adv-x="477" 
d="M19 371l8 78h42l20 166h199q78 0 118 -43.5t40 -122.5h39l-9 -78h-39q-19 -77 -67.5 -119t-120.5 -42h-75l-26 -210h-133l44 371h-40zM246 306q24 0 38 16.5t21 55.5h-111l-9 -72h61zM211 509l-9 -65h111v9q0 56 -40 56h-62z" />
    <glyph glyph-name="Euro.osf" horiz-adv-x="477" 
d="M462 481l-111 -34q-6 37 -22.5 53t-46.5 16q-39 0 -58 -23.5t-27 -78.5l-3 -19h140l-19 -67h-130l-3 -28h124l-19 -66h-114l-4 -34q-2 -13 -2 -34q0 -39 15.5 -55.5t47.5 -16.5q31 0 51 16.5t35 55.5l105 -34q-62 -142 -210 -142q-177 0 -177 172q0 23 3 47l3 25h-30
l7 66h32l4 28h-32l8 67h33l2 10q11 100 68 159t157 59q69 0 115 -37t58 -105z" />
    <glyph glyph-name="uni20B4.osf" horiz-adv-x="472" 
d="M40 325l8 74h252q27 30 27 70q0 54 -59 54q-67 0 -102 -66l-93 36q72 130 217 130q76 0 115 -37t39 -95q0 -50 -27 -92h33l-8 -74h-107q-28 -18 -53 -32h155l-8 -74h-243q-29 -34 -29 -74q0 -53 67 -53q69 0 107 70l87 -34q-67 -138 -215 -138q-85 0 -125 35.5t-40 93.5
q0 53 31 100h-42l8 74h113q34 22 52 32h-160z" />
    <glyph glyph-name="minus.osf" horiz-adv-x="477" 
d="M423 241h-369v99h369v-99z" />
    <glyph glyph-name="approxequal.osf" horiz-adv-x="477" 
d="M406 427v-98q-44 -26 -90 -26q-31 0 -84 18t-81 18q-41 0 -80 -25v99q47 26 90 26q34 0 89.5 -19.5t81.5 -19.5q39 0 74 27zM406 262v-99q-47 -26 -90 -26q-32 0 -84.5 18.5t-80.5 18.5q-41 0 -80 -25v98q47 26 91 26q34 0 89 -19t81 -19q39 0 74 27z" />
    <glyph glyph-name="notequal.osf" horiz-adv-x="477" 
d="M406 157h-186l-44 -100l-61 28l32 72h-76v100h120l29 65h-149v100h193l44 99l60 -29l-31 -70h69v-100h-113l-29 -65h142v-100z" />
    <glyph glyph-name="lessequal.osf" horiz-adv-x="477" 
d="M404 406l-158 -80l159 -78v-125l-347 198v11l346 203v-129zM60 18v89h345v-89h-345z" />
    <glyph glyph-name="greaterequal.osf" horiz-adv-x="477" 
d="M71 248l159 78l-158 80v129l347 -203v-11l-348 -198v125zM416 107v-89h-345v89h345z" />
    <glyph glyph-name="numbersign.tf" 
d="M56 436l10 92h95l39 197h94l-39 -197h99l39 197h94l-39 -197h75l-10 -92h-79l-27 -146h87l-10 -92h-92l-38 -198h-94l39 198h-99l-39 -198h-94l39 198h-80l11 92h82l27 146h-90zM241 436l-27 -146h99l26 146h-98z" />
    <glyph glyph-name="dollar.tf" 
d="M397 827l-10 -102q113 -34 136 -156l-97 -34q-14 60 -62 78l-38 -190q36 -18 58.5 -32t48.5 -37t39 -54t13 -69q0 -99 -62.5 -163.5t-158.5 -74.5l-25 -96h-81l9 99q-131 26 -154 170l103 37q15 -68 73 -90l40 198q-37 18 -60.5 32t-50.5 37t-40 54.5t-13 70.5
q0 92 62.5 156.5t163.5 72.5l24 93h82zM301 276l-24 -170q88 10 88 87q0 46 -64 83zM192 549q-1 -3 -1 -10q0 -44 62 -79l22 160q-75 -11 -83 -71z" />
    <glyph glyph-name="plus.tf" 
d="M217 79v182h-146v99h146v182h96v-182h147v-99h-147v-182h-96z" />
    <glyph glyph-name="zero.tf" 
d="M519 486l-34 -248q-16 -116 -82.5 -182t-174.5 -66q-98 0 -149.5 53.5t-51.5 148.5q0 22 3 46l33 247q15 117 81.5 183.5t175.5 66.5q98 0 150 -54t52 -151q0 -22 -3 -44zM201 486l-34 -248q-3 -22 -3 -40q0 -46 19 -66.5t59 -20.5q47 0 71.5 29t34.5 98l34 248
q1 7 1.5 19.5t0.5 16.5q0 47 -19 67.5t-59 20.5q-47 0 -72.5 -29t-32.5 -95z" />
    <glyph glyph-name="one.tf" 
d="M106 0l9 83h106l53 416h-152l11 100h73q58 0 82.5 24.5t43.5 105.5h114l-79 -646h99l-9 -83h-351z" />
    <glyph glyph-name="two.tf" 
d="M330 735q96 0 144 -46.5t48 -121.5q0 -69 -30.5 -126t-76 -97t-93 -74.5t-88.5 -74t-55 -79.5h288l-13 -116h-437l4 63q9 57 40 109.5t70.5 89.5t83.5 75.5t80 69t60 68.5t24 76q0 63 -74 63q-40 0 -72.5 -28.5t-50.5 -81.5l-105 35q33 88 98 142t155 54z" />
    <glyph glyph-name="three.tf" 
d="M198 317l12 108h53q107 0 107 122q0 69 -70 69q-80 0 -120 -94l-101 36q31 82 96 129.5t152 47.5q94 0 141.5 -46t47.5 -119q0 -69 -30 -120t-83 -73q85 -27 85 -130q0 -126 -71.5 -191.5t-186.5 -65.5q-180 0 -205 166l106 38q21 -88 103 -88q51 0 79.5 35t28.5 104
q0 40 -22 56t-66 16h-56z" />
    <glyph glyph-name="four.tf" 
d="M416 0h-128l16 132h-303l10 94l357 499h137l-59 -480h73l-22 -113h-65zM158 245h161l46 313z" />
    <glyph glyph-name="five.tf" 
d="M149 316l-84 41l73 368h382l-24 -125h-263l-29 -159q56 25 115 25q169 0 169 -175q0 -134 -65.5 -217.5t-202.5 -83.5q-82 0 -134 42.5t-62 124.5l108 38q18 -89 94 -89q115 0 115 164q0 42 -21.5 60t-66.5 18q-60 0 -104 -32z" />
    <glyph glyph-name="six.tf" 
d="M333 735q75 0 123.5 -41.5t61.5 -120.5l-102 -41q-15 83 -89 83q-102 0 -120 -126l-9 -65q56 36 128 36q166 0 166 -165q0 -23 -3 -50q-32 -255 -257 -255q-97 0 -148 51.5t-51 144.5q0 21 3 45l32 240q15 116 87 190t178 74zM181 289l-10 -74q-2 -16 -2 -23
q0 -80 80 -80q45 0 69 29.5t34 99.5q2 12 2 32q0 38 -17.5 55t-55.5 17q-43 0 -69.5 -15t-30.5 -41z" />
    <glyph glyph-name="seven.tf" 
d="M220 0h-154l326 600h-326l14 125h477l-12 -111z" />
    <glyph glyph-name="eight.tf" 
d="M228 -10q-207 0 -207 177q0 167 116 218q-60 36 -60 118q0 105 60.5 168.5t182.5 63.5q194 0 194 -160q0 -68 -25.5 -117t-72.5 -72q75 -38 75 -136q0 -121 -67 -190.5t-196 -69.5zM242 106q111 0 111 144q0 41 -20 57.5t-63 16.5q-54 0 -82 -30.5t-28 -107.5
q0 -43 20.5 -61.5t61.5 -18.5zM307 621q-52 0 -76.5 -28.5t-24.5 -98.5q0 -38 18 -52.5t58 -14.5q51 0 76 28t25 100q0 36 -18 51t-58 15z" />
    <glyph glyph-name="nine.tf" 
d="M122 195q12 -47 36 -67t67 -20q99 0 114 112l12 95q-48 -36 -119 -36q-83 0 -128.5 43t-45.5 129q0 135 70.5 209.5t191.5 74.5q95 0 145.5 -51.5t50.5 -135.5q0 -24 -2 -37l-37 -283q-14 -110 -83.5 -174t-175.5 -64q-164 0 -193 156zM270 391q36 0 66.5 16t33.5 46
l8 65q2 18 2 25q0 71 -77 71q-105 0 -105 -148q0 -41 17.5 -58t54.5 -17z" />
    <glyph glyph-name="less.tf" 
d="M438 439l-198 -123l198 -123v-130l-372 247v12l372 247v-130z" />
    <glyph glyph-name="equal.tf" 
d="M443 334h-354v99h354v-99zM443 170h-354v99h354v-99z" />
    <glyph glyph-name="greater.tf" 
d="M94 193l198 123l-198 123v130l372 -247v-12l-372 -247v130z" />
    <glyph glyph-name="cent.tf" 
d="M74 491q12 103 71.5 167t151.5 75l25 91h79l-10 -96q59 -16 95.5 -59.5t42.5 -101.5l-113 -39q-9 77 -84 77q-94 0 -108 -114l-36 -270q-2 -16 -2 -23q0 -87 84 -87q71 0 103 86l107 -37q-54 -152 -198 -168l-25 -93h-79l9 96q-71 14 -111 64.5t-40 126.5q0 23 2 35z" />
    <glyph glyph-name="sterling.tf" 
d="M59 322l-2 96h55q0 4 -0.5 13t-0.5 13q0 135 60 214t171 79q77 0 124 -44t51 -120l-107 -37q-4 43 -23 59.5t-53 16.5q-50 0 -72.5 -47t-22.5 -147h181l-22 -96h-160q-2 -80 -4 -111q20 -11 55.5 -48t60.5 -37q24 0 38 18t27 67l91 -26q-25 -103 -64.5 -149t-98.5 -46
q-26 0 -47 9t-38.5 29t-25.5 32t-23 38q-42 -108 -134 -108q-41 0 -63.5 22t-22.5 63q0 57 37 97t99 50q-1 18 -7 100h-59zM95 83q25 0 34 64q-24 -5 -35.5 -19.5t-11.5 -29.5t13 -15z" />
    <glyph glyph-name="currency.tf" 
d="M137 373q0 37 17 68l-41 44l46 51l43 -45q28 17 63 17q34 0 65 -18l45 49l46 -51l-44 -48q17 -34 17 -67q0 -37 -18 -70l42 -44l-46 -51l-44 46q-29 -17 -63 -17t-63 17l-45 -49l-46 50l43 48q-17 31 -17 70zM214 372q0 -25 15 -40t37 -15t37 15t15 40t-15 40t-37 15
t-37 -15t-15 -40z" />
    <glyph glyph-name="yen.tf" 
d="M420 129h-105l-15 -129h-139l15 129h-107l10 89h108l5 38h-108l10 90h82l-118 379h153l68 -326l149 326h154l-213 -379h76l-10 -90h-104l-5 -38h104z" />
    <glyph glyph-name="logicalnot.tf" 
d="M363 120v141h-292v99h389v-240h-97z" />
    <glyph glyph-name="plusminus.tf" 
d="M217 146v140h-136v99h136v160h96v-160h138v-99h-138v-140h-96zM451 18h-370v99h370v-99z" />
    <glyph glyph-name="multiply.tf" 
d="M394 102l-129 138l-128 -138l-65 69l129 139l-129 139l64 70l129 -140l129 140l64 -70l-129 -139l129 -139z" />
    <glyph glyph-name="divide.tf" 
d="M460 261h-389v99h389v-99zM197 482q0 30 19.5 51.5t47.5 21.5t48 -22t20 -51q0 -31 -20 -52t-48 -21q-29 0 -48 21t-19 52zM197 143q0 30 19.5 52t47.5 22t48 -22t20 -52t-20 -51t-48 -21q-29 0 -48 20.5t-19 51.5z" />
    <glyph glyph-name="uni2007.tf" 
 />
    <glyph glyph-name="franc.tf" 
d="M-9 91l11 94h61l67 540h417l-15 -132h-264l-22 -169h225l-13 -121h-227l-14 -118h85l-10 -94h-87l-11 -91h-153l11 91h-61z" />
    <glyph glyph-name="lira.tf" 
d="M61 375l-4 66h55q0 3 -0.5 9.5t-0.5 9.5q0 125 62.5 201t168.5 76q77 0 124 -44t51 -120l-107 -37q-4 43 -23 59.5t-53 16.5q-47 0 -69 -41t-26 -130h205l-20 -66h-186v-27h176l-17 -63h-160q0 -43 -3 -74q20 -11 55.5 -48t60.5 -37q24 0 38 18t27 67l91 -26
q-25 -103 -64.5 -149t-98.5 -46q-26 0 -47 9t-38.5 29t-25.5 32t-23 38q-42 -108 -134 -108q-41 0 -63.5 22t-22.5 63q0 57 37 97t99 50l-5 63h-52l-4 63h52l-2 27h-53zM95 83q25 0 34 64q-24 -5 -35.5 -19.5t-11.5 -29.5t13 -15z" />
    <glyph glyph-name="peseta.tf" 
d="M32 448l8 76h43l25 201h221q84 0 129 -48.5t45 -138.5v-14h46l-9 -76h-47q-20 -93 -75 -143.5t-137 -50.5h-87l-31 -254h-144l55 448h-42zM281 368q27 0 43.5 19t26.5 64h-133l-11 -83h74zM238 603l-11 -81h133v13q0 37 -12 52.5t-37 15.5h-73z" />
    <glyph glyph-name="Euro.tf" 
d="M351 735q81 0 133.5 -47.5t60.5 -120.5l-113 -39q-9 77 -83 77q-94 0 -108 -114l-4 -31h209l-22 -72h-197l-4 -31h190l-22 -72h-178l-9 -64q-2 -16 -2 -23q0 -87 84 -87q38 0 62.5 20t40.5 66l107 -37q-58 -170 -238 -170q-96 0 -151 53t-55 143q0 11 2 35l9 64h-52l8 72
h54l4 31h-54l9 72h55l4 31q14 114 83.5 179t176.5 65z" />
    <glyph glyph-name="uni20B4.tf" 
d="M52 388l9 79h291q37 42 37 96q0 31 -19.5 48.5t-54.5 17.5q-84 0 -129 -82l-95 39q82 149 246 149q86 0 129.5 -42t43.5 -110q0 -67 -38 -116h43l-9 -79h-123q-18 -12 -72 -44h189l-9 -79h-281q-40 -45 -40 -99q0 -69 86 -69q85 0 134 88l88 -36q-76 -159 -243 -159
q-95 0 -140.5 41t-45.5 109q0 67 40 125h-52l9 79h129q46 30 70 44h-193z" />
    <glyph glyph-name="minus.tf" 
d="M460 261h-388v99h388v-99z" />
    <glyph glyph-name="approxequal.tf" 
d="M433 438v-98q-47 -26 -89 -26q-32 0 -85 18.5t-81 18.5q-41 0 -80 -25v98q45 26 90 26q34 0 90 -19.5t82 -19.5q38 0 73 27zM433 274v-98q-47 -26 -90 -26q-32 0 -84.5 18.5t-80.5 18.5q-38 0 -80 -25v97q45 26 91 26q34 0 89.5 -19t81.5 -19q38 0 73 27z" />
    <glyph glyph-name="notequal.tf" 
d="M403 516l-39 -83h79v-99h-124l-30 -65h154v-99h-200l-51 -111l-61 27l39 84h-81v99h127l30 65h-157v99h202l52 111z" />
    <glyph glyph-name="lessequal.tf" 
d="M437 452l-187 -99l188 -98v-125l-372 217v12l371 222v-129zM69 21v93h369v-93h-369z" />
    <glyph glyph-name="greaterequal.tf" 
d="M94 255l187 97l-187 100v129l371 -222v-12l-371 -217v125zM463 114v-93h-369v93h369z" />
    <glyph glyph-name="numbersign.tosf" horiz-adv-x="480" 
d="M43 364l10 87h80l32 164h92l-32 -164h81l33 164h92l-33 -164h66l-10 -87h-68l-22 -112h75l-9 -88h-79l-32 -164h-93l33 164h-82l-33 -164h-91l33 164h-67l9 88h71l21 112h-77zM212 364l-21 -112h81l21 112h-81z" />
    <glyph glyph-name="dollar.tosf" horiz-adv-x="480" 
d="M64 449q8 65 54.5 112t119.5 58l34 118h78l-12 -123q98 -28 114 -137l-92 -27q-16 67 -91 67q-70 0 -70 -64q0 -24 23 -44t55.5 -38t65.5 -38.5t56 -54.5t23 -77q0 -79 -47.5 -133.5t-122.5 -69.5l-31 -130h-80l12 129q-58 8 -89.5 43t-41.5 102l96 29q14 -79 103 -79
q31 0 51 20t20 55q0 25 -23.5 46t-57.5 38.5t-68 38.5t-57.5 56t-23.5 80q0 7 2 23z" />
    <glyph glyph-name="plus.tosf" horiz-adv-x="480" 
d="M191 74v167h-130v98h130v167h96v-167h133v-98h-133v-167h-96z" />
    <glyph glyph-name="zero.tosf" horiz-adv-x="480" 
d="M458 375l-23 -171q-14 -102 -73.5 -158t-159.5 -56q-90 0 -136.5 46t-46.5 130q0 26 2 40l23 167q15 103 73.5 159.5t157.5 56.5q90 0 137.5 -45.5t47.5 -129.5q0 -26 -2 -39zM173 373l-23 -174q-2 -13 -2 -35q0 -39 15.5 -55t49.5 -16q40 0 61 23.5t29 81.5l24 178
q2 14 2 37q0 40 -15.5 56t-50.5 16q-41 0 -61.5 -24.5t-28.5 -87.5z" />
    <glyph glyph-name="one.tosf" horiz-adv-x="480" 
d="M221 374h-139l11 96h61q59 0 83 27t39 96h111l-62 -510h95l-9 -83h-344l9 83h108z" />
    <glyph glyph-name="two.tosf" horiz-adv-x="480" 
d="M288 592q80 0 119.5 -37t39.5 -99q0 -75 -63 -153t-194 -196h217l-12 -107h-386l6 76q300 256 300 361q0 45 -56 45q-64 0 -106 -68l-93 38q45 70 99 105t129 35z" />
    <glyph glyph-name="three.tosf" horiz-adv-x="480" 
d="M437 428q-15 -111 -92 -144q77 -22 77 -106q0 -130 -102 -202t-298 -72l2 109q144 0 204 39.5t60 117.5q0 33 -21 45.5t-73 12.5h-33l11 101h29q55 0 80.5 25t25.5 79q0 49 -54 49q-63 0 -109 -69l-91 38q84 141 228 141q80 0 119 -37.5t39 -100.5q0 -8 -2 -26z" />
    <glyph glyph-name="four.tosf" horiz-adv-x="480" 
d="M347 -94h-126l27 219h-254l11 99l294 360h130l-43 -357h69l-20 -102h-62zM139 227h124l37 214z" />
    <glyph glyph-name="five.tosf" horiz-adv-x="480" 
d="M430 466h-234l-23 -130q45 15 96 15q155 0 155 -139q0 -105 -53 -176t-138.5 -101.5t-200.5 -30.5l1 108q54 0 93.5 5.5t79.5 22t61.5 52.5t21.5 91q0 34 -19 48t-60 14q-44 0 -93 -22l-76 39l63 322h348z" />
    <glyph glyph-name="six.tosf" horiz-adv-x="480" 
d="M423 580q-96 0 -154 -46t-80 -144q42 24 92 24q156 0 156 -155q0 -127 -63.5 -198t-171.5 -71q-85 0 -127.5 49t-42.5 134q0 23 3 45l16 118q22 167 122 260.5t253 93.5zM247 304q-43 0 -74 -26l-7 -58q-3 -24 -3 -42q0 -78 58 -78q35 0 55 24.5t28 84.5q3 18 3 33
q0 34 -14.5 48t-45.5 14z" />
    <glyph glyph-name="seven.tosf" horiz-adv-x="480" 
d="M179 -88h-139l292 554h-272l13 118h408l-11 -107z" />
    <glyph glyph-name="eight.tosf" horiz-adv-x="480" 
d="M203 -10q-183 0 -183 144q0 130 105 171q-57 29 -57 103q0 82 51.5 133t157.5 51q88 0 129 -35.5t41 -94.5q0 -54 -23.5 -96t-65.5 -61q70 -31 70 -113q0 -96 -58 -149t-167 -53zM215 96q83 0 83 104q0 29 -15 41t-47 12q-41 0 -62 -22t-21 -75q0 -31 15 -45.5t47 -14.5z
M266 490q-77 0 -77 -94q0 -53 57 -53q76 0 76 96q0 27 -13.5 39t-42.5 12z" />
    <glyph glyph-name="nine.tosf" horiz-adv-x="480" 
d="M50 13q106 0 164.5 47.5t79.5 157.5q-42 -20 -89 -20q-159 0 -159 151q0 115 61.5 179t170.5 64q85 0 127 -48t42 -131q0 -21 -3 -43l-14 -111q-22 -170 -123 -262.5t-258 -92.5zM236 302q42 0 73 29l5 37q3 24 3 43q0 38 -14 54.5t-45 16.5q-83 0 -83 -116q0 -34 15 -49
t46 -15z" />
    <glyph glyph-name="less.tosf" horiz-adv-x="480" 
d="M403 392l-169 -106l169 -106v-129l-340 228v13l340 230v-130z" />
    <glyph glyph-name="equal.tosf" horiz-adv-x="480" 
d="M404 321h-328v98h328v-98zM404 158h-328v99h328v-99z" />
    <glyph glyph-name="greater.tosf" horiz-adv-x="480" 
d="M77 522l340 -229v-13l-340 -229v129l169 106l-169 106v130z" />
    <glyph glyph-name="cent.tosf" horiz-adv-x="480" 
d="M454 481l-107 -34q-13 71 -74 71q-42 0 -61.5 -25.5t-27.5 -83.5l-28 -211q-2 -12 -2 -33q0 -39 16.5 -56t51.5 -17q32 0 53 17t36 57l100 -33q-50 -119 -157 -138l-32 -127h-79l12 126q-130 20 -130 165q0 23 3 48l26 196q12 92 59 149t128 68l33 117h79l-12 -122
q92 -28 113 -134z" />
    <glyph glyph-name="sterling.tosf" horiz-adv-x="480" 
d="M440 481l-94 -32q-4 37 -19 52.5t-41 15.5q-41 0 -57 -38t-20 -125h149l-18 -79h-129q0 -67 -3 -100q16 -10 43 -39t42 -29q20 0 33 16t22 57l87 -24q-21 -88 -56 -127t-87 -39q-28 0 -51 15.5t-32 29t-26 41.5q-36 -86 -115 -86q-74 0 -74 72q0 48 30.5 82.5t83.5 43.5
q-2 14 -7 45.5t-6 41.5h-43v79h36q0 3 -0.5 9t-0.5 9q0 115 52.5 183t148.5 68q67 0 107 -38.5t45 -103.5zM83 68q19 0 29 55q-40 -10 -40 -45q0 -10 11 -10z" />
    <glyph glyph-name="currency.tosf" horiz-adv-x="480" 
d="M104 372q0 38 17 69l-40 44l46 52l43 -46q28 17 62 17t65 -18l46 50l46 -51l-44 -50q17 -34 17 -67q0 -36 -18 -69l43 -45l-47 -51l-44 46q-29 -17 -64 -17q-34 0 -63 17l-44 -49l-47 50l44 48q-18 30 -18 70zM182 372q0 -25 15 -40.5t37 -15.5t37 15.5t15 40.5
q0 24 -15 39.5t-37 15.5t-37 -15.5t-15 -39.5z" />
    <glyph glyph-name="yen.tosf" horiz-adv-x="480" 
d="M381 114h-99l-13 -114h-129l13 114h-97l9 76h97l4 35h-97l9 77h70l-105 313h143l61 -271l125 271h144l-184 -313h71l-9 -77h-98l-4 -35h98z" />
    <glyph glyph-name="logicalnot.tosf" horiz-adv-x="480" 
d="M325 101v140h-264v98h359v-238h-95z" />
    <glyph glyph-name="plusminus.tosf" horiz-adv-x="480" 
d="M192 136v130h-131v98h131v142h95v-142h133v-98h-133v-130h-95zM420 15h-359v99h359v-99z" />
    <glyph glyph-name="multiply.tosf" horiz-adv-x="480" 
d="M349 113l-107 114l-107 -114l-64 69l106 114l-106 114l64 69l107 -114l107 115l64 -69l-107 -114l108 -115z" />
    <glyph glyph-name="divide.tosf" horiz-adv-x="480" 
d="M420 241h-359v99h359v-99zM175 456q0 27 18.5 47.5t44.5 20.5t45 -20.5t19 -47.5q0 -29 -18.5 -48.5t-45.5 -19.5q-26 0 -44.5 19.5t-18.5 48.5zM175 130q0 28 18.5 48t44.5 20t45 -20t19 -48t-19 -47.5t-45 -19.5t-44.5 19.5t-18.5 47.5z" />
    <glyph glyph-name="uni2007.tosf" horiz-adv-x="480" 
 />
    <glyph glyph-name="franc.tosf" horiz-adv-x="480" 
d="M1 75l9 85h50l56 454h352l-13 -116h-221l-18 -140h189l-12 -105h-190l-11 -93h73l-10 -85h-74l-9 -75h-131l9 75h-49z" />
    <glyph glyph-name="lira.tosf" horiz-adv-x="480" 
d="M440 481l-94 -32q-4 37 -19 52.5t-41 15.5q-38 0 -54.5 -31.5t-21.5 -103.5h181l-18 -62h-164q0 -4 0.5 -12t0.5 -11h155l-15 -58h-139q0 -33 -3 -64q16 -10 43 -39t42 -29q20 0 33 16t22 57l87 -24q-21 -88 -56 -127t-87 -39q-28 0 -51 15.5t-32 29t-26 41.5
q-36 -86 -115 -86q-74 0 -74 72q0 48 30.5 82.5t83.5 43.5l-8 51h-41l-3 58h36l-2 23h-36l-3 62h37q0 109 53.5 175t146.5 66q67 0 107 -38.5t45 -103.5zM83 68q19 0 29 55q-40 -10 -40 -45q0 -10 11 -10z" />
    <glyph glyph-name="peseta.tosf" horiz-adv-x="480" 
d="M27 372l9 78h41l20 164h193q75 0 114 -43t39 -121h38l-9 -78h-39q-18 -77 -65.5 -119t-118.5 -42h-72l-26 -211h-129l45 372h-40zM248 306q44 0 58 73h-109l-9 -73h60zM214 511l-9 -66h109v10q0 56 -39 56h-61z" />
    <glyph glyph-name="Euro.tosf" horiz-adv-x="480" 
d="M458 480l-107 -32q-6 37 -22 53t-45 16q-39 0 -58 -24t-25 -79l-3 -18h131l-18 -68h-122l-3 -27h115l-19 -66h-105l-5 -37q-2 -13 -2 -36q0 -38 15 -53.5t46 -15.5q30 0 50 16t34 56l102 -32q-59 -143 -204 -143q-172 0 -172 170q0 30 3 47l4 28h-31l8 66h32l3 27h-32
l8 68h33l2 12q12 98 67 156.5t152 58.5q68 0 113 -37t55 -106z" />
    <glyph glyph-name="uni20B4.tosf" horiz-adv-x="480" 
d="M49 324l8 74h245q28 33 28 74q0 52 -58 52q-65 0 -100 -67l-91 34q70 132 213 132q75 0 113 -37t38 -95q0 -53 -28 -93h33l-9 -74h-105q-17 -11 -51 -31h152l-9 -74h-236q-29 -38 -29 -76q0 -52 66 -52q67 0 104 70l85 -32q-66 -139 -210 -139q-82 0 -121.5 35.5
t-39.5 92.5q0 55 31 101h-42l9 74h111q16 11 48 31h-155z" />
    <glyph glyph-name="minus.tosf" horiz-adv-x="480" 
d="M420 241h-359v98h359v-98z" />
    <glyph glyph-name="approxequal.tosf" horiz-adv-x="480" 
d="M404 425v-98q-45 -26 -88 -26q-31 0 -82.5 18.5t-78.5 18.5q-39 0 -79 -25v98q43 25 89 25q33 0 87.5 -19t79.5 -19q37 0 72 27zM404 262v-97q-47 -26 -88 -26q-30 0 -82 18t-79 18q-40 0 -79 -25v98q43 25 89 25q33 0 87.5 -19t79.5 -19q37 0 72 27z" />
    <glyph glyph-name="notequal.tosf" horiz-adv-x="480" 
d="M404 158h-182l-42 -98l-61 27l31 71h-74v99h117l28 64h-145v98h187l43 98l61 -28l-31 -70h68v-98h-111l-28 -64h139v-99z" />
    <glyph glyph-name="lessequal.tosf" horiz-adv-x="480" 
d="M403 403l-156 -79l156 -78v-125l-340 197v12l340 202v-129zM66 17v88h337v-88h-337z" />
    <glyph glyph-name="greaterequal.tosf" horiz-adv-x="480" 
d="M77 246l155 78l-155 79v129l340 -202v-12l-340 -197v125zM414 105v-88h-338v88h338z" />
    <glyph glyph-name="exclam.sc" horiz-adv-x="214" 
d="M79 584h125l-29 -230l-33 -166h-99l7 165zM6 0l15 130h129l-15 -130h-129z" />
    <glyph glyph-name="ampersand.sc" horiz-adv-x="521" 
d="M420 480l-98 -43q-19 58 -60 58q-22 0 -34.5 -13t-12.5 -37q0 -25 12 -43l107 -167q19 50 26 107l3 23h142l-10 -94h-57q-18 -74 -45 -124q39 -42 94 -50l-24 -104q-87 7 -142 59q-68 -60 -160 -60q-72 0 -115 37t-43 110q0 65 31 119t88 88q-26 45 -26 87q0 63 46.5 110
t126.5 47q116 0 151 -110zM187 89q42 0 81 37l-94 142q-45 -51 -45 -116q0 -63 58 -63z" />
    <glyph glyph-name="question.sc" horiz-adv-x="423" 
d="M419 438q-9 -64 -51 -115.5t-116 -82.5l-13 -58h-95l5 115q74 23 108.5 59.5t34.5 79.5q0 49 -59 49q-71 0 -107 -71l-96 32q32 66 89 105t134 39q85 0 126 -38t41 -95q0 -13 -1 -19zM106 0l14 130h129l-14 -130h-129z" />
    <glyph glyph-name="grave.sc" horiz-adv-x="273" 
d="M65 727h140l29 -114h-98z" />
    <glyph glyph-name="a.sc" horiz-adv-x="510" 
d="M147 116l-42 -116h-139l246 584h155l104 -584h-139l-14 116h-171zM275 466l-91 -250h121z" />
    <glyph glyph-name="b.sc" horiz-adv-x="486" 
d="M453 431q-12 -96 -89 -128q83 -24 83 -110q0 -91 -53 -142t-160 -51h-220l71 584h195q88 0 131 -35t43 -95q0 -15 -1 -23zM178 249l-18 -142h77q38 0 57 21.5t19 73.5q0 26 -13.5 36.5t-43.5 10.5h-78zM207 473l-17 -129h65q39 0 56 20t17 66q0 24 -12.5 33.5t-42.5 9.5
h-66z" />
    <glyph glyph-name="c.sc" horiz-adv-x="434" 
d="M268 592q70 0 116 -39.5t54 -98.5l-103 -37q-6 63 -65 63q-74 0 -87 -92l-28 -201q-1 -6 -1 -18q0 -70 67 -70q30 0 49.5 15.5t32.5 51.5l96 -36q-52 -139 -205 -139q-83 0 -131 44.5t-48 119.5q0 9 2 29l27 204q13 95 73 149.5t151 54.5z" />
    <glyph glyph-name="d.sc" horiz-adv-x="515" 
d="M494 375l-23 -165q-14 -97 -76.5 -153.5t-163.5 -56.5h-217l71 584h217q93 0 143.5 -47t50.5 -129q0 -11 -2 -33zM334 215l22 152q2 22 2 31q0 39 -16.5 56t-51.5 17h-80l-47 -361h80q42 0 63 23.5t28 81.5z" />
    <glyph glyph-name="e.sc" horiz-adv-x="433" 
d="M85 584h354l-12 -114h-216l-16 -122h157l-11 -99h-159l-18 -138h222l-12 -111h-360z" />
    <glyph glyph-name="f.sc" horiz-adv-x="430" 
d="M85 584h356l-12 -116h-218l-17 -130h186l-12 -107h-187l-29 -231h-138z" />
    <glyph glyph-name="g.sc" horiz-adv-x="494" 
d="M291 592q76 0 125.5 -37.5t58.5 -101.5l-107 -40q-19 61 -84 61q-48 0 -72.5 -25.5t-32.5 -80.5l-22 -163q-2 -20 -2 -27q0 -73 76 -73q51 0 86 34l11 82h-63l9 85h182l-37 -306h-109l4 35q-57 -43 -126 -43q-80 0 -125.5 44.5t-45.5 128.5q0 25 2 38l23 167
q14 103 76.5 162.5t172.5 59.5z" />
    <glyph glyph-name="h.sc" horiz-adv-x="518" 
d="M85 584h138l-29 -228h145l28 228h137l-70 -584h-138l29 238h-144l-29 -238h-138z" />
    <glyph glyph-name="i.sc" horiz-adv-x="252" 
d="M93 584h136l-70 -584h-137z" />
    <glyph glyph-name="j.sc" horiz-adv-x="256" 
d="M104 584h137l-59 -474q-13 -105 -77.5 -162.5t-176.5 -59.5v107q55 0 82 25.5t35 88.5z" />
    <glyph glyph-name="k.sc" horiz-adv-x="502" 
d="M466 0h-150l-97 234l-48 -56l-21 -178h-136l71 584h136l-32 -257l181 257h155l-207 -257z" />
    <glyph glyph-name="l.sc" horiz-adv-x="399" 
d="M85 584h133l-59 -466h201l-13 -118h-333z" />
    <glyph glyph-name="m.sc" horiz-adv-x="660" 
d="M516 584h129l-71 -584h-124l40 331l-155 -245h-60l-96 245l-40 -331h-125l71 584h130l110 -326z" />
    <glyph glyph-name="n.sc" horiz-adv-x="518" 
d="M85 584h102l156 -315l40 315h121l-70 -584h-97l-161 328l-41 -328h-121z" />
    <glyph glyph-name="o.sc" horiz-adv-x="496" 
d="M475 367l-23 -165q-14 -98 -76.5 -154.5t-165.5 -56.5q-94 0 -143.5 47t-49.5 130q0 22 3 42l24 171q14 98 75.5 154.5t164.5 56.5q94 0 144.5 -47t50.5 -129q0 -21 -4 -49zM315 202l23 165q4 30 4 40q0 71 -70 71q-41 0 -62.5 -22t-28.5 -74l-24 -174q-3 -22 -3 -36
q0 -37 16.5 -53.5t52.5 -16.5q41 0 63 23.5t29 76.5z" />
    <glyph glyph-name="p.sc" horiz-adv-x="475" 
d="M301 584q81 0 124.5 -42.5t43.5 -118.5q0 -103 -56.5 -165.5t-148.5 -62.5h-88l-24 -195h-138l71 584h216zM211 473l-23 -176h73q72 0 72 121q0 55 -49 55h-73z" />
    <glyph glyph-name="q.sc" horiz-adv-x="496" 
d="M476 376l-24 -174q-21 -149 -143 -195l84 -81l-121 -52l-82 118q-84 5 -128.5 51.5t-44.5 124.5q0 21 3 45l24 168q14 98 75.5 154.5t164.5 56.5q94 0 144.5 -47t50.5 -129q0 -22 -3 -40zM315 202l25 179q2 18 2 26q0 71 -70 71q-41 0 -62.5 -22t-28.5 -74l-24 -171
q-3 -21 -3 -39q0 -37 16.5 -53.5t52.5 -16.5q42 0 64 23.5t28 76.5z" />
    <glyph glyph-name="r.sc" horiz-adv-x="483" 
d="M296 0l-68 223h-48l-28 -223h-138l71 584h202q177 0 177 -143q0 -67 -30 -117.5t-82 -69.5l91 -254h-147zM211 475l-20 -152h62q75 0 75 103q0 26 -13.5 37.5t-43.5 11.5h-60z" />
    <glyph glyph-name="s.sc" horiz-adv-x="434" 
d="M252 593q146 0 181 -130l-98 -39q-7 31 -29 47.5t-54 16.5q-31 0 -48.5 -15t-17.5 -41q0 -22 22 -41.5t53 -37t62.5 -38t53.5 -54.5t22 -78q0 -89 -60 -141t-155 -52q-71 0 -122 38.5t-59 103.5l107 34q7 -36 31.5 -54t57.5 -18q67 0 67 60q0 26 -22 47.5t-54 39
t-64 38.5t-54 54.5t-22 76.5q0 77 56.5 130t145.5 53z" />
    <glyph glyph-name="t.sc" horiz-adv-x="419" 
d="M45 584h400l-13 -117h-131l-59 -467h-136l58 467h-132z" />
    <glyph glyph-name="u.sc" horiz-adv-x="515" 
d="M373 584h136l-48 -384q-12 -97 -75 -153t-165 -56q-93 0 -144 45t-51 125q0 10 2 32l49 391h137l-48 -391q-1 -8 -1 -21q0 -65 70 -65q78 0 89 86z" />
    <glyph glyph-name="v.sc" horiz-adv-x="514" 
d="M548 584l-256 -584h-141l-115 584h151l54 -420l156 420h151z" />
    <glyph glyph-name="w.sc" horiz-adv-x="777" 
d="M801 584l-217 -584h-145l-40 371l-132 -371h-145l-75 584h138l35 -410l140 410h128l41 -414l134 414h138z" />
    <glyph glyph-name="x.sc" horiz-adv-x="496" 
d="M-28 0l188 295l-114 289h149l62 -207l114 207h148l-181 -289l115 -295h-148l-66 214l-119 -214h-148z" />
    <glyph glyph-name="y.sc" horiz-adv-x="494" 
d="M528 584l-227 -408l-21 -176h-137l21 176l-128 408h152l60 -275l129 275h151z" />
    <glyph glyph-name="z.sc" horiz-adv-x="446" 
d="M391 116l-12 -116h-385l8 80l278 389h-219l12 115h377l-8 -80l-275 -388h224z" />
    <glyph glyph-name="exclamdown.sc" horiz-adv-x="214" 
d="M135 0h-125l29 230l33 166h99l-7 -165zM208 584l-15 -130h-129l15 130h129z" />
    <glyph glyph-name="dieresis.sc" horiz-adv-x="273" 
d="M66 728h98l-14 -110h-97zM217 728h96l-13 -110h-97z" />
    <glyph glyph-name="macron.sc" horiz-adv-x="273" 
d="M320 713l-9 -79h-266l10 79h265z" />
    <glyph glyph-name="acute.sc" horiz-adv-x="273" 
d="M146 728h139l-93 -115h-101z" />
    <glyph glyph-name="questiondown.sc" horiz-adv-x="423" 
d="M3 147q8 64 50.5 115.5t117.5 82.5l13 58h95l-5 -116q-143 -44 -143 -140q0 -48 58 -48q70 0 107 72l96 -32q-32 -66 -89 -105.5t-133 -39.5q-85 0 -126.5 38t-41.5 96q0 13 1 19zM317 585l-15 -130h-129l15 130h129z" />
    <glyph glyph-name="germandbls.sc" horiz-adv-x="868" 
d="M252 593q146 0 181 -130l-98 -39q-7 31 -29 47.5t-54 16.5q-31 0 -48.5 -15t-17.5 -41q0 -22 22 -41.5t53 -37t62.5 -38t53.5 -54.5t22 -78q0 -89 -60 -141t-155 -52q-71 0 -122 38.5t-59 103.5l107 34q7 -36 31.5 -54t57.5 -18q67 0 67 60q0 26 -22 47.5t-54 39
t-64 38.5t-54 54.5t-22 76.5q0 77 56.5 130t145.5 53zM686 593q146 0 181 -130l-98 -39q-7 31 -29 47.5t-54 16.5q-31 0 -48.5 -15t-17.5 -41q0 -22 22 -41.5t53 -37t62.5 -38t53.5 -54.5t22 -78q0 -89 -60 -141t-155 -52q-71 0 -122 38.5t-59 103.5l107 34q7 -36 31.5 -54
t57.5 -18q67 0 67 60q0 26 -22 47.5t-54 39t-64 38.5t-54 54.5t-22 76.5q0 77 56.5 130t145.5 53z" />
    <glyph glyph-name="agrave.sc" horiz-adv-x="510" 
d="M147 116l-42 -116h-139l246 584h155l104 -584h-139l-14 116h-171zM275 466l-91 -250h121zM191 727h140l29 -114h-98z" />
    <glyph glyph-name="aacute.sc" horiz-adv-x="510" 
d="M147 116l-42 -116h-139l246 584h155l104 -584h-139l-14 116h-171zM275 466l-91 -250h121zM289 728h139l-93 -115h-101z" />
    <glyph glyph-name="acircumflex.sc" horiz-adv-x="510" 
d="M147 116l-42 -116h-139l246 584h155l104 -584h-139l-14 116h-171zM275 466l-91 -250h121zM262 613h-107l106 115h95l77 -115h-107l-26 55z" />
    <glyph glyph-name="atilde.sc" horiz-adv-x="510" 
d="M147 116l-42 -116h-139l246 584h155l104 -584h-139l-14 116h-171zM275 466l-91 -250h121zM397 734l69 -10q-15 -57 -41 -85.5t-68 -28.5q-34 0 -68.5 25t-46.5 25q-26 0 -38 -43l-68 8q29 116 108 116q34 0 69 -25t47 -25q14 0 22 9.5t15 33.5z" />
    <glyph glyph-name="adieresis.sc" horiz-adv-x="510" 
d="M147 116l-42 -116h-139l246 584h155l104 -584h-139l-14 116h-171zM275 466l-91 -250h121zM184 728h98l-14 -110h-97zM335 728h96l-13 -110h-97z" />
    <glyph glyph-name="aring.sc" horiz-adv-x="510" 
d="M147 116l-42 -116h-139l246 584h155l104 -584h-139l-14 116h-171zM275 466l-91 -250h121zM202 680q0 40 30 68t80 28q41 0 65.5 -19.5t24.5 -53.5q0 -43 -32 -69t-79 -26q-40 0 -64.5 19.5t-24.5 52.5zM305 720q-28 0 -28 -33q0 -22 21 -22q29 0 29 32q0 23 -22 23z" />
    <glyph glyph-name="ae.sc" horiz-adv-x="705" 
d="M170 122l-65 -122h-139l332 584h412l-12 -114h-217l-2 -122h146l-11 -99h-136l-2 -138h182l-12 -111h-308l2 122h-170zM223 222h119l4 232z" />
    <glyph glyph-name="ccedilla.sc" horiz-adv-x="434" 
d="M268 592q70 0 116 -39.5t54 -98.5l-103 -37q-6 63 -65 63q-74 0 -87 -92l-28 -201q-1 -6 -1 -18q0 -70 67 -70q30 0 49.5 15.5t32.5 51.5l96 -36q-49 -129 -184 -138l-4 -15q70 -11 70 -56q0 -36 -38 -63t-106 -31l-17 55q58 12 58 27q0 18 -56 21l23 66q-61 11 -95.5 53
t-34.5 106q0 9 2 29l27 204q13 95 73 149.5t151 54.5z" />
    <glyph glyph-name="egrave.sc" horiz-adv-x="433" 
d="M85 584h354l-12 -114h-216l-16 -122h157l-11 -99h-159l-18 -138h222l-12 -111h-360zM159 727h140l29 -114h-98z" />
    <glyph glyph-name="eacute.sc" horiz-adv-x="433" 
d="M85 584h354l-12 -114h-216l-16 -122h157l-11 -99h-159l-18 -138h222l-12 -111h-360zM256 728h139l-93 -115h-101z" />
    <glyph glyph-name="ecircumflex.sc" horiz-adv-x="433" 
d="M85 584h354l-12 -114h-216l-16 -122h157l-11 -99h-159l-18 -138h222l-12 -111h-360zM234 613h-107l106 115h95l77 -115h-107l-26 55z" />
    <glyph glyph-name="edieresis.sc" horiz-adv-x="433" 
d="M85 584h354l-12 -114h-216l-16 -122h157l-11 -99h-159l-18 -138h222l-12 -111h-360zM158 728h98l-14 -110h-97zM309 728h96l-13 -110h-97z" />
    <glyph glyph-name="igrave.sc" horiz-adv-x="252" 
d="M93 584h136l-70 -584h-137zM56 727h140l29 -114h-98z" />
    <glyph glyph-name="iacute.sc" horiz-adv-x="252" 
d="M93 584h136l-70 -584h-137zM161 728h139l-93 -115h-101z" />
    <glyph glyph-name="icircumflex.sc" horiz-adv-x="252" 
d="M93 584h136l-70 -584h-137zM135 613h-107l106 115h95l77 -115h-107l-26 55z" />
    <glyph glyph-name="idieresis.sc" horiz-adv-x="252" 
d="M93 584h136l-70 -584h-137zM55 728h98l-14 -110h-97zM206 728h96l-13 -110h-97z" />
    <glyph glyph-name="eth.sc" horiz-adv-x="527" 
d="M505 375l-23 -165q-14 -97 -76.5 -153.5t-163.5 -56.5h-217l32 262h-50l9 73h50l30 249h217q93 0 143.5 -47t50.5 -129q0 -11 -2 -33zM345 215l22 152q2 22 2 31q0 39 -16.5 56t-51.5 17h-80l-18 -136h69l-9 -73h-69l-20 -152h80q42 0 63 23.5t28 81.5z" />
    <glyph glyph-name="ntilde.sc" horiz-adv-x="518" 
d="M85 584h102l156 -315l40 315h121l-70 -584h-97l-161 328l-41 -328h-121zM407 734l69 -10q-15 -57 -41 -85.5t-68 -28.5q-34 0 -68.5 25t-46.5 25q-26 0 -38 -43l-68 8q29 116 108 116q34 0 69 -25t47 -25q14 0 22 9.5t15 33.5z" />
    <glyph glyph-name="ograve.sc" horiz-adv-x="496" 
d="M475 367l-23 -165q-14 -98 -76.5 -154.5t-165.5 -56.5q-94 0 -143.5 47t-49.5 130q0 22 3 42l24 171q14 98 75.5 154.5t164.5 56.5q94 0 144.5 -47t50.5 -129q0 -21 -4 -49zM315 202l23 165q4 30 4 40q0 71 -70 71q-41 0 -62.5 -22t-28.5 -74l-24 -174q-3 -22 -3 -36
q0 -37 16.5 -53.5t52.5 -16.5q41 0 63 23.5t29 76.5zM178 727h140l29 -114h-98z" />
    <glyph glyph-name="oacute.sc" horiz-adv-x="496" 
d="M475 367l-23 -165q-14 -98 -76.5 -154.5t-165.5 -56.5q-94 0 -143.5 47t-49.5 130q0 22 3 42l24 171q14 98 75.5 154.5t164.5 56.5q94 0 144.5 -47t50.5 -129q0 -21 -4 -49zM315 202l23 165q4 30 4 40q0 71 -70 71q-41 0 -62.5 -22t-28.5 -74l-24 -174q-3 -22 -3 -36
q0 -37 16.5 -53.5t52.5 -16.5q41 0 63 23.5t29 76.5zM287 728h139l-93 -115h-101z" />
    <glyph glyph-name="ocircumflex.sc" horiz-adv-x="496" 
d="M475 367l-23 -165q-14 -98 -76.5 -154.5t-165.5 -56.5q-94 0 -143.5 47t-49.5 130q0 22 3 42l24 171q14 98 75.5 154.5t164.5 56.5q94 0 144.5 -47t50.5 -129q0 -21 -4 -49zM315 202l23 165q4 30 4 40q0 71 -70 71q-41 0 -62.5 -22t-28.5 -74l-24 -174q-3 -22 -3 -36
q0 -37 16.5 -53.5t52.5 -16.5q41 0 63 23.5t29 76.5zM256 613h-107l106 115h95l77 -115h-107l-26 55z" />
    <glyph glyph-name="otilde.sc" horiz-adv-x="496" 
d="M475 367l-23 -165q-14 -98 -76.5 -154.5t-165.5 -56.5q-94 0 -143.5 47t-49.5 130q0 22 3 42l24 171q14 98 75.5 154.5t164.5 56.5q94 0 144.5 -47t50.5 -129q0 -21 -4 -49zM315 202l23 165q4 30 4 40q0 71 -70 71q-41 0 -62.5 -22t-28.5 -74l-24 -174q-3 -22 -3 -36
q0 -37 16.5 -53.5t52.5 -16.5q41 0 63 23.5t29 76.5zM394 734l69 -10q-15 -57 -41 -85.5t-68 -28.5q-34 0 -68.5 25t-46.5 25q-26 0 -38 -43l-68 8q29 116 108 116q34 0 69 -25t47 -25q14 0 22 9.5t15 33.5z" />
    <glyph glyph-name="odieresis.sc" horiz-adv-x="496" 
d="M475 367l-23 -165q-14 -98 -76.5 -154.5t-165.5 -56.5q-94 0 -143.5 47t-49.5 130q0 22 3 42l24 171q14 98 75.5 154.5t164.5 56.5q94 0 144.5 -47t50.5 -129q0 -21 -4 -49zM315 202l23 165q4 30 4 40q0 71 -70 71q-41 0 -62.5 -22t-28.5 -74l-24 -174q-3 -22 -3 -36
q0 -37 16.5 -53.5t52.5 -16.5q41 0 63 23.5t29 76.5zM178 728h98l-14 -110h-97zM329 728h96l-13 -110h-97z" />
    <glyph glyph-name="oslash.sc" horiz-adv-x="496" 
d="M474 361l-22 -159q-14 -98 -76.5 -154.5t-165.5 -56.5q-95 0 -147 50l-37 -43l-32 33l41 49q-18 38 -18 87q0 17 4 49l23 165q14 98 75.5 154.5t164.5 56.5q94 0 146 -49l41 48l33 -33l-45 -53q20 -40 20 -91q0 -21 -5 -53zM315 202l22 160l-181 -212q9 -47 67 -47
q42 0 64 23.5t28 75.5zM181 382l-22 -157l179 210q-11 41 -67 41q-42 0 -63 -21.5t-27 -72.5z" />
    <glyph glyph-name="ugrave.sc" horiz-adv-x="515" 
d="M373 584h136l-48 -384q-12 -97 -75 -153t-165 -56q-93 0 -144 45t-51 125q0 10 2 32l49 391h137l-48 -391q-1 -8 -1 -21q0 -65 70 -65q78 0 89 86zM186 727h140l29 -114h-98z" />
    <glyph glyph-name="uacute.sc" horiz-adv-x="515" 
d="M373 584h136l-48 -384q-12 -97 -75 -153t-165 -56q-93 0 -144 45t-51 125q0 10 2 32l49 391h137l-48 -391q-1 -8 -1 -21q0 -65 70 -65q78 0 89 86zM298 728h139l-93 -115h-101z" />
    <glyph glyph-name="ucircumflex.sc" horiz-adv-x="515" 
d="M373 584h136l-48 -384q-12 -97 -75 -153t-165 -56q-93 0 -144 45t-51 125q0 10 2 32l49 391h137l-48 -391q-1 -8 -1 -21q0 -65 70 -65q78 0 89 86zM267 613h-107l106 115h95l77 -115h-107l-26 55z" />
    <glyph glyph-name="udieresis.sc" horiz-adv-x="515" 
d="M373 584h136l-48 -384q-12 -97 -75 -153t-165 -56q-93 0 -144 45t-51 125q0 10 2 32l49 391h137l-48 -391q-1 -8 -1 -21q0 -65 70 -65q78 0 89 86zM189 728h98l-14 -110h-97zM340 728h96l-13 -110h-97z" />
    <glyph glyph-name="yacute.sc" horiz-adv-x="494" 
d="M528 584l-227 -408l-21 -176h-137l21 176l-128 408h152l60 -275l129 275h151zM284 728h139l-93 -115h-101z" />
    <glyph glyph-name="thorn.sc" horiz-adv-x="475" 
d="M290 495q80 0 124 -42t44 -118q0 -104 -56.5 -166.5t-148.5 -62.5h-88l-13 -106h-138l71 584h138l-11 -89h78zM199 385l-22 -177h73q71 0 71 121q0 56 -48 56h-74z" />
    <glyph glyph-name="ydieresis.sc" horiz-adv-x="494" 
d="M528 584l-227 -408l-21 -176h-137l21 176l-128 408h152l60 -275l129 275h151zM177 728h98l-14 -110h-97zM328 728h96l-13 -110h-97z" />
    <glyph glyph-name="dotlessi.sc" horiz-adv-x="252" 
d="M93 584h136l-70 -584h-137z" />
    <glyph glyph-name="ij.sc" horiz-adv-x="508" 
d="M93 584h136l-70 -584h-137zM356 584h137l-59 -474q-13 -105 -77.5 -162.5t-176.5 -59.5v107q55 0 82 25.5t35 88.5z" />
    <glyph glyph-name="lslash.sc" horiz-adv-x="411" 
d="M95 584h133l-28 -221l134 59l-12 -106l-136 -59l-17 -139h201l-13 -118h-333l25 208l-50 -22l12 105l51 22z" />
    <glyph glyph-name="oe.sc" horiz-adv-x="710" 
d="M363 584h352l-12 -114h-215l-16 -122h157l-11 -99h-159l-18 -138h222l-11 -111h-360l4 33q-48 -42 -121 -42q-71 0 -114.5 48t-43.5 128q0 11 2 35l25 179q13 96 69.5 153.5t134.5 57.5q74 0 111 -42zM316 204l24 175q2 20 2 26q0 38 -17 54.5t-54 16.5q-42 0 -63 -22
t-28 -75l-23 -175q-2 -12 -2 -32q0 -37 16.5 -53t51.5 -16q43 0 64.5 23t28.5 78z" />
    <glyph glyph-name="scaron.sc" horiz-adv-x="434" 
d="M252 593q146 0 181 -130l-98 -39q-7 31 -29 47.5t-54 16.5q-31 0 -48.5 -15t-17.5 -41q0 -22 22 -41.5t53 -37t62.5 -38t53.5 -54.5t22 -78q0 -89 -60 -141t-155 -52q-71 0 -122 38.5t-59 103.5l107 34q7 -36 31.5 -54t57.5 -18q67 0 67 60q0 26 -22 47.5t-54 39
t-64 38.5t-54 54.5t-22 76.5q0 77 56.5 130t145.5 53zM141 728h103l29 -61l44 61h102l-105 -115h-95z" />
    <glyph glyph-name="zcaron.sc" horiz-adv-x="446" 
d="M391 116l-12 -116h-385l8 80l278 389h-219l12 115h377l-8 -80l-275 -388h224zM145 728h103l29 -61l44 61h102l-105 -115h-95z" />
    <glyph glyph-name="longs.sc" horiz-adv-x="434" 
d="M252 593q146 0 181 -130l-98 -39q-7 31 -29 47.5t-54 16.5q-31 0 -48.5 -15t-17.5 -41q0 -22 22 -41.5t53 -37t62.5 -38t53.5 -54.5t22 -78q0 -89 -60 -141t-155 -52q-71 0 -122 38.5t-59 103.5l107 34q7 -36 31.5 -54t57.5 -18q67 0 67 60q0 26 -22 47.5t-54 39
t-64 38.5t-54 54.5t-22 76.5q0 77 56.5 130t145.5 53z" />
    <glyph glyph-name="circumflex.sc" horiz-adv-x="273" 
d="M144 613h-107l106 115h95l77 -115h-107l-26 55z" />
    <glyph glyph-name="caron.sc" horiz-adv-x="273" 
d="M51 728h103l29 -61l44 61h102l-105 -115h-95z" />
    <glyph glyph-name="breve.sc" horiz-adv-x="273" 
d="M54 727h90v-11q0 -25 8.5 -34t30.5 -9q24 0 35.5 11.5t17.5 42.5h91q-19 -68 -51.5 -94t-99.5 -26t-93.5 26t-28.5 94z" />
    <glyph glyph-name="dotaccent.sc" horiz-adv-x="273" 
d="M106 728h125l-13 -110h-125z" />
    <glyph glyph-name="ring.sc" horiz-adv-x="273" 
d="M85 680q0 40 30 68t80 28q41 0 65.5 -19.5t24.5 -53.5q0 -43 -32 -69t-79 -26q-40 0 -64.5 19.5t-24.5 52.5zM188 720q-28 0 -28 -33q0 -22 21 -22q29 0 29 32q0 23 -22 23z" />
    <glyph glyph-name="tilde.sc" horiz-adv-x="273" 
d="M280 734l69 -10q-15 -57 -41 -85.5t-68 -28.5q-34 0 -68.5 25t-46.5 25q-26 0 -38 -43l-68 8q29 116 108 116q34 0 69 -25t47 -25q14 0 22 9.5t15 33.5z" />
    <glyph glyph-name="hungarumlaut.sc" horiz-adv-x="273" 
d="M114 728h118l-84 -115h-79zM264 728h118l-100 -115h-81z" />
    <glyph glyph-name="gravecomb.sc" horiz-adv-x="1" 
d="M-317 727h140l29 -114h-98z" />
    <glyph glyph-name="acutecomb.sc" horiz-adv-x="1" 
d="M-208 728h139l-93 -115h-101z" />
    <glyph glyph-name="uni0302.sc" horiz-adv-x="1" 
d="M-239 613h-107l106 115h95l77 -115h-107l-26 55z" />
    <glyph glyph-name="tildecomb.sc" horiz-adv-x="1" 
d="M-101 734l69 -10q-15 -57 -41 -85.5t-68 -28.5q-34 0 -68.5 25t-46.5 25q-26 0 -38 -43l-68 8q29 116 108 116q34 0 69 -25t47 -25q14 0 22 9.5t15 33.5z" />
    <glyph glyph-name="uni0304.sc" horiz-adv-x="1" 
d="M47 718l-10 -85h-265l9 85h266z" />
    <glyph glyph-name="uni0306.sc" horiz-adv-x="1" 
d="M-226 764h95q-1 -10 -1 -26q0 -31 9 -43.5t30 -12.5q24 0 37.5 17.5t23.5 64.5h95q-23 -86 -58.5 -118.5t-104.5 -32.5q-70 0 -97.5 32.5t-28.5 118.5z" />
    <glyph glyph-name="uni0307.sc" horiz-adv-x="1" 
d="M-164 737h122l-16 -128h-122z" />
    <glyph glyph-name="uni0308.sc" horiz-adv-x="1" 
d="M-203 737h95l-16 -128h-95zM-54 737h94l-15 -128h-95z" />
    <glyph glyph-name="uni030A.sc" horiz-adv-x="1" 
d="M-190 678q0 42 30.5 70t79.5 28q41 0 65.5 -20.5t24.5 -54.5q0 -43 -32 -69.5t-79 -26.5q-40 0 -64.5 20t-24.5 53zM-87 717q-27 0 -27 -32q0 -21 21 -21q12 0 20 8.5t8 22.5q0 22 -22 22z" />
    <glyph glyph-name="uni030B.sc" horiz-adv-x="1" 
d="M-151 756h125l-104 -143h-78zM8 756h125l-123 -143h-79z" />
    <glyph glyph-name="uni030C.sc" horiz-adv-x="1" 
d="M-300 728h103l29 -61l44 61h102l-105 -115h-95z" />
    <glyph glyph-name="uni0327.sc" horiz-adv-x="1" 
d="M-216 24l67 -6l-12 -41q70 -11 70 -56q0 -36 -38 -63t-106 -31l-17 55q58 12 58 27q0 18 -56 21z" />
    <glyph glyph-name="uni0328.sc" horiz-adv-x="1" 
d="M-160 9l52 -6q-33 -11 -52.5 -30t-19.5 -39q0 -28 37 -28q23 0 54 13l14 -66q-45 -26 -113 -26q-47 0 -73.5 18t-26.5 50q0 71 128 114z" />
    <glyph glyph-name="uni203D.sc" horiz-adv-x="466" 
d="M463 433q-15 -125 -192 -188l-11 -63h-91l8 134l21 169q-43 -19 -73 -73l-95 30q35 68 96.5 109t144.5 41q96 0 144.5 -40.5t48.5 -100.5q0 -12 -1 -18zM127 0l14 130h129l-15 -130h-128zM344 427q0 2 0.5 6t0.5 6q0 41 -46 54l-19 -156q56 34 64 90z" />
    <glyph glyph-name="uni2E18.sc" horiz-adv-x="467" 
d="M3 159q15 125 192 188l11 63h91l-8 -134l-21 -169q43 19 73 73l95 -30q-35 -68 -96.5 -109t-144.5 -41q-96 0 -144.5 40.5t-48.5 100.5q0 12 1 18zM339 592l-14 -130h-129l15 130h128zM122 165q0 -2 -0.5 -6t-0.5 -6q0 -41 46 -54l19 156q-56 -34 -64 -90z" />
    <glyph glyph-name="uniFB00.sc" horiz-adv-x="860" 
d="M85 584h356l-12 -116h-218l-17 -130h186l-12 -107h-187l-29 -231h-138zM515 584h356l-12 -116h-218l-17 -130h186l-12 -107h-187l-29 -231h-138z" />
    <glyph glyph-name="fi.sc" horiz-adv-x="682" 
d="M85 584h356l-12 -116h-218l-17 -130h186l-12 -107h-187l-29 -231h-138zM523 584h136l-70 -584h-137z" />
    <glyph glyph-name="fl.sc" horiz-adv-x="829" 
d="M85 584h356l-12 -116h-218l-17 -130h186l-12 -107h-187l-29 -231h-138zM515 584h133l-59 -466h201l-13 -118h-333z" />
    <glyph glyph-name="uniFB03.sc" horiz-adv-x="1112" 
d="M85 584h356l-12 -116h-218l-17 -130h186l-12 -107h-187l-29 -231h-138zM515 584h356l-12 -116h-218l-17 -130h186l-12 -107h-187l-29 -231h-138zM953 584h136l-70 -584h-137z" />
    <glyph glyph-name="uniFB04.sc" horiz-adv-x="1259" 
d="M85 584h356l-12 -116h-218l-17 -130h186l-12 -107h-187l-29 -231h-138zM515 584h356l-12 -116h-218l-17 -130h186l-12 -107h-187l-29 -231h-138zM945 584h133l-59 -466h201l-13 -118h-333z" />
    <glyph glyph-name="parenleft.case" horiz-adv-x="280" 
d="M41 206l42 331q21 167 81.5 243t176.5 76h27l-10 -94h-28q-107 0 -135 -225l-42 -331q-6 -48 -6 -84q0 -141 85 -141h28l-10 -95h-28q-96 0 -142 53.5t-46 166.5q0 48 7 100z" />
    <glyph glyph-name="parenright.case" horiz-adv-x="280" 
d="M258 537l-42 -331q-21 -168 -81.5 -244t-175.5 -76h-27l10 95h27q106 0 134 225l42 331q6 48 6 85q0 140 -84 140h-28l10 94h28q97 0 142.5 -53t45.5 -167q0 -36 -7 -99z" />
    <glyph glyph-name="hyphen.case" horiz-adv-x="280" 
d="M30 304l13 116h222l-13 -116h-222z" />
    <glyph glyph-name="at.case" horiz-adv-x="760" 
d="M551 495h-21l-15 -199q-1 -6 -1 -16q0 -47 42 -47q34 0 52 28t18 103v126q0 223 -235 223q-121 0 -188 -69.5t-67 -178.5v-207q0 -124 69.5 -190t189.5 -66q79 0 130 20.5t97 63.5l72 -52q-119 -124 -300 -124q-170 0 -263 91.5t-93 255.5v209q0 147 94 244.5t259 97.5
q160 0 245 -89t85 -229v-125q0 -115 -46.5 -172.5t-124.5 -57.5q-76 0 -108 45q-50 -48 -123 -48q-62 0 -95 42t-33 115q0 136 64.5 213.5t183.5 77.5h117zM404 268l16 213h-8q-102 0 -102 -187q0 -36 9.5 -50t29.5 -14q37 0 55 38z" />
    <glyph glyph-name="bracketleft.case" horiz-adv-x="275" 
d="M13 -114l119 970h255l-11 -95h-134l-97 -779h134l-11 -96h-255z" />
    <glyph glyph-name="bracketright.case" horiz-adv-x="279" 
d="M284 856l-118 -970h-257l10 97h133l97 777h-134l11 96h258z" />
    <glyph glyph-name="grave.case" horiz-adv-x="271" 
d="M56 874h159l41 -120h-111z" />
    <glyph glyph-name="braceleft.case" horiz-adv-x="287" 
d="M26 330l9 83q83 9 83 82q0 15 -4.5 58.5t-4.5 71.5q0 231 254 231h28l-9 -83h-28q-126 0 -126 -164q0 -24 3.5 -65t3.5 -57q0 -90 -91 -116q68 -22 68 -82q0 -19 -26.5 -98t-26.5 -127q0 -94 95 -94h28l-10 -83h-28q-101 0 -154.5 39t-53.5 115q0 57 28 136.5t28 97.5
q0 23 -17.5 37.5t-48.5 17.5z" />
    <glyph glyph-name="braceright.case" horiz-adv-x="287" 
d="M280 413l-9 -83q-83 -7 -83 -82q0 -15 4.5 -58t4.5 -71q0 -232 -253 -232h-28l10 84h27q125 0 125 164q0 24 -3.5 65t-3.5 56q0 89 90 116q-67 19 -67 80q0 18 26.5 98t26.5 129q0 93 -95 93h-28l10 84h28q209 0 209 -154q0 -57 -29 -137t-29 -98q0 -48 67 -54z" />
    <glyph glyph-name="exclamdown.case" horiz-adv-x="248" 
d="M156 0h-135l35 275l39 223h110l-14 -218zM245 725l-17 -146h-137l17 146h137z" />
    <glyph glyph-name="dieresis.case" horiz-adv-x="271" 
d="M73 874h97l-13 -115h-98zM243 874h97l-13 -115h-98z" />
    <glyph glyph-name="guillemotleft.case" horiz-adv-x="447" 
d="M446 517l-141 -175l98 -176h-109l-95 176l138 175h109zM279 517l-141 -175l98 -176h-109l-95 176l138 175h109z" />
    <glyph glyph-name="uni00AD.case" horiz-adv-x="280" 
d="M30 304l13 116h222l-13 -116h-222z" />
    <glyph glyph-name="macron.case" horiz-adv-x="271" 
d="M341 858l-9 -80h-274l9 80h274z" />
    <glyph glyph-name="acute.case" horiz-adv-x="271" 
d="M163 874h160l-111 -120h-113z" />
    <glyph glyph-name="periodcentered.case" horiz-adv-x="230" 
d="M35 398q0 37 23 63t56 26t57 -26t24 -63q0 -36 -24 -61.5t-57 -25.5t-56 25.5t-23 61.5z" />
    <glyph glyph-name="guillemotright.case" horiz-adv-x="447" 
d="M178 166l140 176l-98 175h109l95 -175l-138 -176h-108zM11 166l140 176l-98 175h109l95 -175l-138 -176h-108z" />
    <glyph glyph-name="questiondown.case" horiz-adv-x="493" 
d="M462 166q-37 -80 -103 -128t-155 -48q-98 0 -145.5 45t-47.5 114q0 84 54 158t148 116l18 77h102l-9 -140q-174 -64 -174 -187q0 -67 76 -67q87 0 132 94zM378 725l-17 -146h-136l17 146h136z" />
    <glyph glyph-name="circumflex.case" horiz-adv-x="271" 
d="M155 754h-109l106 120h108l78 -120h-109l-31 54z" />
    <glyph glyph-name="caron.case" horiz-adv-x="271" 
d="M63 874h107l29 -56l44 56h107l-111 -120h-93z" />
    <glyph glyph-name="breve.case" horiz-adv-x="271" 
d="M60 874h96v-9q0 -27 9.5 -38t33.5 -11t37 13t20 45h94q-21 -69 -56.5 -97t-103.5 -28t-97 28t-33 97z" />
    <glyph glyph-name="dotaccent.case" horiz-adv-x="271" 
d="M122 874h127l-13 -115h-128z" />
    <glyph glyph-name="ring.case" horiz-adv-x="271" 
d="M99 807q0 38 31 63.5t78 25.5q41 0 66 -19.5t25 -51.5q0 -39 -31.5 -62t-77.5 -23q-41 0 -66 18t-25 49zM202 842q-13 0 -20 -8.5t-7 -20.5q0 -19 22 -19q12 0 19.5 7.5t7.5 19.5q0 21 -22 21z" />
    <glyph glyph-name="tilde.case" horiz-adv-x="271" 
d="M295 877l66 -9q-16 -60 -42.5 -91t-72.5 -31q-31 0 -63 25t-43 25q-24 0 -38 -44l-66 8q16 61 42.5 91.5t72.5 30.5q32 0 63.5 -24.5t42.5 -24.5q26 0 38 44z" />
    <glyph glyph-name="hungarumlaut.case" horiz-adv-x="271" 
d="M132 874h126l-94 -120h-81zM292 874h126l-114 -120h-82z" />
    <glyph glyph-name="gravecomb.case" horiz-adv-x="1" 
d="M-367 874h159l41 -120h-111z" />
    <glyph glyph-name="acutecomb.case" horiz-adv-x="1" 
d="M-235 874h160l-111 -120h-113z" />
    <glyph glyph-name="uni0302.case" horiz-adv-x="1" 
d="M-271 754h-109l106 120h108l78 -120h-109l-31 54z" />
    <glyph glyph-name="tildecomb.case" horiz-adv-x="1" 
d="M-131 877l66 -9q-16 -60 -42.5 -91t-72.5 -31q-31 0 -63 25t-43 25q-24 0 -38 -44l-66 8q16 61 42.5 91.5t72.5 30.5q32 0 63.5 -24.5t42.5 -24.5q26 0 38 44z" />
    <glyph glyph-name="uni0304.case" horiz-adv-x="1" 
d="M47 857l-10 -85h-265l9 85h266z" />
    <glyph glyph-name="uni0306.case" horiz-adv-x="1" 
d="M-226 905h95q-1 -10 -1 -26q0 -31 9 -43.5t30 -12.5q24 0 37.5 17.5t23.5 64.5h95q-23 -86 -58.5 -118.5t-104.5 -32.5q-70 0 -97.5 32.5t-28.5 118.5z" />
    <glyph glyph-name="uni0307.case" horiz-adv-x="1" 
d="M-164 880h122l-16 -128h-122z" />
    <glyph glyph-name="uni0308.case" horiz-adv-x="1" 
d="M-203 880h95l-16 -128h-95zM-54 880h94l-15 -128h-95z" />
    <glyph glyph-name="uni030A.case" horiz-adv-x="1" 
d="M-190 798q0 42 30.5 70t79.5 28q41 0 65.5 -20.5t24.5 -54.5q0 -43 -32 -69.5t-79 -26.5q-40 0 -64.5 20t-24.5 53zM-87 837q-27 0 -27 -32q0 -21 21 -21q12 0 20 8.5t8 22.5q0 22 -22 22z" />
    <glyph glyph-name="uni030B.case" horiz-adv-x="1" 
d="M-151 897h125l-104 -143h-78zM8 897h125l-123 -143h-79z" />
    <glyph glyph-name="uni030C.case" horiz-adv-x="1" 
d="M-323 874h107l29 -56l44 56h107l-111 -120h-93z" />
    <glyph glyph-name="uni0327.case" horiz-adv-x="1" 
d="M-216 24l67 -6l-12 -41q70 -11 70 -56q0 -36 -38 -63t-106 -31l-17 55q58 12 58 27q0 18 -56 21z" />
    <glyph glyph-name="uni0328.case" horiz-adv-x="1" 
d="M-160 9l52 -6q-33 -11 -52.5 -30t-19.5 -39q0 -28 37 -28q23 0 54 13l14 -66q-45 -26 -113 -26q-47 0 -73.5 18t-26.5 50q0 71 128 114z" />
    <glyph glyph-name="endash.case" horiz-adv-x="430" 
d="M33 328l12 106h374l-12 -106h-374z" />
    <glyph glyph-name="emdash.case" horiz-adv-x="611" 
d="M33 328l12 106h555l-12 -106h-555z" />
    <glyph glyph-name="bullet.case" horiz-adv-x="283" 
d="M16 391q0 59 36.5 99t89.5 40t89.5 -40t36.5 -99q0 -58 -36.5 -98t-89.5 -40t-89.5 40t-36.5 98z" />
    <glyph glyph-name="guilsinglleft.case" horiz-adv-x="280" 
d="M280 517l-141 -175l98 -176h-109l-95 176l138 175h109z" />
    <glyph glyph-name="guilsinglright.case" horiz-adv-x="280" 
d="M11 166l141 176l-98 175h109l95 -175l-138 -176h-109z" />
    <glyph glyph-name="uni2E18.case" horiz-adv-x="540" 
d="M509 169q-38 -80 -112 -131t-167 -51q-110 0 -164.5 48t-54.5 121q0 83 57.5 149.5t165.5 109.5l15 83h103l-18 -204l-24 -188q57 23 95 95zM396 725l-16 -146h-137l16 146h137zM141 186q-1 -5 -1 -16q0 -58 59 -73l27 215q-74 -48 -85 -126z" />
    <glyph glyph-name="ampersand.ss01" horiz-adv-x="559" 
d="M303 734q78 0 120.5 -33.5t42.5 -89.5q0 -69 -42 -120.5t-118 -107.5l84 -139q37 72 48 155h106q-17 -140 -90 -248q39 -35 97 -42l-27 -118q-101 8 -156 66q-85 -66 -188 -66q-182 0 -182 156q0 77 39.5 136t112.5 116l-11 18q-42 68 -42 126q0 85 62 138t144 53z
M140 195q-1 -7 -1 -20q0 -71 72 -71q51 0 98 38l-101 164q-62 -57 -68 -111zM346 588q0 42 -53 42q-35 0 -54 -20t-19 -55q0 -26 22 -64l10 -17q55 41 74.5 63.5t19.5 50.5z" />
    <glyph glyph-name="ampersand.sc.ss01" horiz-adv-x="522" 
d="M270 591q69 0 107 -27.5t38 -73.5q0 -39 -24 -76t-51 -59t-71 -51l80 -105q33 55 42 122h105q-16 -112 -81 -199q34 -24 83 -28l-23 -101q-85 5 -141 51q-79 -53 -172 -53q-81 0 -126 32.5t-45 98.5q0 60 34 105t96 89q-43 60 -43 118q0 70 55 113.5t137 43.5zM122 157
q-1 -4 -1 -11q0 -53 67 -53q43 0 84 25l-93 123q-52 -42 -57 -84zM298 465q0 29 -41 29q-28 0 -45.5 -15t-17.5 -40q0 -36 20 -62q44 28 64 48t20 40z" />
    <glyph glyph-name="ampersand.ss02" horiz-adv-x="542" 
d="M379 475l123 23l-9 -73h45l-12 -107h-47l-25 -203q-1 -3 -1 -8q0 -22 23 -22h19l-9 -87h-68q-57 0 -85 52q-69 -60 -163 -60q-77 0 -122 41.5t-45 122.5q0 82 35 141t99 84q-59 38 -59 122q0 99 63 166.5t170 67.5q161 0 189 -159l-111 -33q-10 44 -29 62t-55 18
q-43 0 -67.5 -31t-24.5 -91q0 -43 24 -59.5t71 -16.5h62zM228 107q55 0 98 45l21 166h-68q-133 0 -133 -137q0 -74 82 -74z" />
    <glyph glyph-name="ampersand.sc.ss02" horiz-adv-x="459" 
d="M308 379l114 22l-7 -56h36l-11 -97h-38l-18 -148q0 -23 17 -23h16l-9 -79h-62q-49 0 -73 43q-55 -48 -139 -48q-64 0 -102.5 35t-38.5 101q0 61 29 107.5t81 66.5q-49 31 -49 96q0 81 55 136t147 55q138 0 163 -132l-102 -30q-7 33 -22 47t-42 14q-34 0 -53 -22.5
t-19 -64.5q0 -31 18.5 -44t55.5 -13h46zM188 98q44 0 78 34l14 116h-50q-52 0 -77.5 -23t-25.5 -74q0 -53 61 -53z" />
    <glyph glyph-name="orn001" horiz-adv-x="633" 
d="M589 479l-33 -237q-17 -118 -88.5 -185t-188.5 -67q-107 0 -164.5 55t-57.5 154q0 21 3 43l33 237q17 119 88.5 187.5t189.5 68.5q106 0 163.5 -56.5t57.5 -156.5q0 -20 -3 -43zM144 350l-19 -132q-2 -24 -2 -33q0 -72 41.5 -109.5t120.5 -37.5q177 0 203 180l17 121
q4 32 4 45q0 73 -41.5 111t-120.5 38q-89 0 -141 -47t-62 -136zM201 354q0 24 17 41.5t39 17.5q19 0 31 -14t12 -33q0 -24 -17 -42t-38 -18q-19 0 -31.5 14t-12.5 34zM353 354q0 22 16.5 40.5t39.5 18.5q19 0 31 -14t12 -33q0 -24 -16.5 -42t-38.5 -18q-19 0 -31.5 14
t-12.5 34zM279 207l12 101h60l-13 -101h-59zM198 134l6 48h204l-6 -48h-204zM223 376q0 -16 14 -16t16 16q0 15 -13 15t-17 -15zM376 376q0 -16 13 -16q15 0 17 16q0 15 -13 15q-15 0 -17 -15z" />
    </font>
</defs>
</svg>
